<?xml version="1.0" encoding="UTF-8" standalone="no"?>
<!-- Generator: Adobe Illustrator 23.0.1, SVG Export Plug-In . SVG Version: 6.00 Build 0)  -->

<svg
   xmlns:dc="http://purl.org/dc/elements/1.1/"
   xmlns:cc="http://creativecommons.org/ns#"
   xmlns:rdf="http://www.w3.org/1999/02/22-rdf-syntax-ns#"
   xmlns:svg="http://www.w3.org/2000/svg"
   xmlns="http://www.w3.org/2000/svg"
   xmlns:sodipodi="http://sodipodi.sourceforge.net/DTD/sodipodi-0.dtd"
   xmlns:inkscape="http://www.inkscape.org/namespaces/inkscape"
   version="1.1"
   id="图层_1"
   x="0px"
   y="0px"
   viewBox="0 0 62 62"
   xml:space="preserve"
   sodipodi:docname="1password.svg"
   width="62"
   height="62"
   inkscape:version="0.92.4 (5da689c313, 2019-01-14)"><metadata
   id="metadata90"><rdf:RDF><cc:Work
       rdf:about=""><dc:format>image/svg+xml</dc:format><dc:type
         rdf:resource="http://purl.org/dc/dcmitype/StillImage" /><dc:title></dc:title></cc:Work></rdf:RDF></metadata><defs
   id="defs88" /><sodipodi:namedview
   pagecolor="#ffffff"
   bordercolor="#666666"
   borderopacity="1"
   objecttolerance="10"
   gridtolerance="10"
   guidetolerance="10"
   inkscape:pageopacity="0"
   inkscape:pageshadow="2"
   inkscape:window-width="1920"
   inkscape:window-height="1017"
   id="namedview86"
   showgrid="false"
   fit-margin-top="0"
   fit-margin-left="0"
   fit-margin-right="0"
   fit-margin-bottom="0"
   inkscape:zoom="5.02849"
   inkscape:cx="-45.6"
   inkscape:cy="33.5"
   inkscape:window-x="-8"
   inkscape:window-y="-8"
   inkscape:window-maximized="1"
   inkscape:current-layer="图层_1" />
<style
   type="text/css"
   id="style51">
	.st0{fill:#4E5F89;}
	.st1{fill-rule:evenodd;clip-rule:evenodd;fill:#198CFF;}
	.st2{fill-rule:evenodd;clip-rule:evenodd;fill:#FFFFFF;}
	.st3{opacity:0.5;enable-background:new    ;}
	.st4{fill-rule:evenodd;clip-rule:evenodd;fill-opacity:0.1;}
	.st5{fill-rule:evenodd;clip-rule:evenodd;fill:#F2F2F2;}
	.st6{fill-opacity:0.25;}
	.st7{fill-rule:evenodd;clip-rule:evenodd;fill-opacity:5.000000e-02;}
	.st8{fill-opacity:0.15;}
	.st9{fill:#FFFFFF;}
	.st10{fill-rule:evenodd;clip-rule:evenodd;fill:#4D4D4D;}
	.st11{fill-rule:evenodd;clip-rule:evenodd;fill:#808080;}
</style>
<g
   id="g83"
   transform="translate(-221.1,-5)">
	<path
   class="st0"
   d="m 221.3,29.8 c 0.1,0.1 0.1,0.2 0.2,0.3 l 1.1,-3.7 c -0.4,1.1 -0.9,2.3 -1.3,3.4 z"
   id="path53"
   inkscape:connector-curvature="0"
   style="fill:#4e5f89" />
	<path
   class="st0"
   d="m 224.4,21.7 c -0.1,0.2 -0.3,0.5 -0.4,0.7 -0.3,0.9 -0.7,1.8 -0.9,2.7 0.3,-0.7 0.7,-1 1.6,-1.2 v 0 h 0.2 c 0.7,-1.5 1.5,-2.9 2.4,-4.2 V 17.6 H 227 c -0.6,1.3 -1.7,2.6 -2.6,4.1 z"
   id="path55"
   inkscape:connector-curvature="0"
   style="fill:#4e5f89" />
	<path
   class="st1"
   d="m 252,12 c 13.3,0 24,10.7 24,24 0,13.3 -10.7,24 -24,24 -13.3,0 -24,-10.7 -24,-24 0,-13.3 10.7,-24 24,-24"
   id="path57"
   inkscape:connector-curvature="0"
   style="clip-rule:evenodd;fill:#198cff;fill-rule:evenodd" />
	<path
   class="st2"
   d="m 222,36 c 0,-16.6 13.4,-30 30,-30 16.6,0 30,13.4 30,30 0,16.6 -13.4,30 -30,30 -16.6,0 -30,-13.4 -30,-30 z m 6,0 c 0,13.3 10.7,24 24,24 13.3,0 24,-10.7 24,-24 0,-13.3 -10.7,-24 -24,-24 -13.3,0 -24,10.7 -24,24 z"
   id="path59"
   inkscape:connector-curvature="0"
   style="clip-rule:evenodd;fill:#ffffff;fill-rule:evenodd" />
	<path
   class="st3"
   d="m 252,12 c -13.3,0 -24,10.7 -24,24 0,13.3 10.7,24 24,24 13.3,0 24,-10.7 24,-24 0,-13.3 -10.7,-24 -24,-24 z m 0,47 c -12.7,0 -23,-10.3 -23,-23 0,-12.7 10.3,-23 23,-23 12.7,0 23,10.3 23,23 0,12.7 -10.3,23 -23,23 z"
   id="path61"
   inkscape:connector-curvature="0"
   style="opacity:0.5;enable-background:new" />
	<path
   class="st3"
   d="M 280.9,24.8 C 280,23.1 279,21.5 278.4,19.8 273,10.9 263.2,5 252,5 c -10.4,0 -19.6,5.1 -25.2,13 -0.5,0.9 -1.1,1.7 -1.7,2.6 -0.8,1.3 -1.5,2.8 -2,4.2 0,0.1 -0.1,0.3 -0.1,0.4 -0.2,0.7 -0.5,1.5 -0.7,2.2 -0.3,0.9 -0.5,1.9 -0.7,2.9 0.4,0.9 0.5,2 0,3.1 -0.2,0.4 -0.3,0.8 -0.5,1.3 0,0.4 0,0.9 0,1.3 0,17.1 13.9,31 31,31 17.1,0 31,-13.9 31,-31 -0.1,-4 -0.9,-7.8 -2.2,-11.2 z M 252,66 c -16.6,0 -30,-13.4 -30,-30 0,-16.6 13.4,-30 30,-30 16.6,0 30,13.4 30,30 0,16.6 -13.4,30 -30,30 z"
   id="path63"
   inkscape:connector-curvature="0"
   style="opacity:0.5;enable-background:new" />
	<path
   class="st4"
   d="m 262.3,61.1 c 9.1,-3.9 15.5,-12.9 15.5,-23.5 0,-14.1 -11.4,-25.5 -25.6,-25.5 -14.1,0 -25.6,11.4 -25.6,25.5 0,14 11.4,25.4 25.4,25.5 0,0 -0.1,0 -0.1,0 -14.8,0 -26.8,-12 -26.8,-26.8 0,-14.8 12,-26.8 26.8,-26.8 14.8,0 26.8,12 26.8,26.8 0.2,11.2 -6.7,20.8 -16.4,24.8 z m -10.8,2.3 c 16.6,0 30,-13.4 30,-29.9 0,-1.5 -0.1,-3.1 -0.3,-4.5 0.6,2.3 0.9,4.7 0.9,7.1 0,16.5 -13.4,29.9 -30,29.9 -15,0 -27.4,-11 -29.6,-25.4 3.1,13.1 14.9,22.8 29,22.8 z"
   id="path65"
   inkscape:connector-curvature="0"
   style="clip-rule:evenodd;fill-opacity:0.1;fill-rule:evenodd" />
	<path
   class="st5"
   d="m 252,18 c 9.9,0 18,8.1 18,18 0,9.9 -8.1,18 -18,18 -9.9,0 -18,-8.1 -18,-18 0,-9.9 8.1,-18 18,-18 z"
   id="path67"
   inkscape:connector-curvature="0"
   style="clip-rule:evenodd;fill:#f2f2f2;fill-rule:evenodd" />
	<path
   class="st6"
   d="m 252,18 c -9.9,0 -18,8.1 -18,18 0,9.9 8.1,18 18,18 9.9,0 18,-8.1 18,-18 0,-9.9 -8.1,-18 -18,-18 z m 0,-1 c 10.5,0 19,8.5 19,19 0,10.5 -8.5,19 -19,19 -10.5,0 -19,-8.5 -19,-19 0,-10.5 8.5,-19 19,-19 z"
   id="path69"
   inkscape:connector-curvature="0"
   style="fill-opacity:0.25" />
	<path
   class="st7"
   d="m 260,36 c 0,4.4 -3.6,8 -8,8 -4.4,0 -8,-3.6 -8,-8 0,-4.4 3.6,-8 8,-8 4.4,0 8,3.6 8,8 z"
   id="path71"
   inkscape:connector-curvature="0" />
	<path
   class="st8"
   d="m 259,36 c 0,-3.9 -3.1,-7 -7,-7 -3.9,0 -7,3.1 -7,7 0,3.9 3.1,7 7,7 3.9,0 7,-3.1 7,-7 z m 1,0 c 0,4.4 -3.6,8 -8,8 -4.4,0 -8,-3.6 -8,-8 0,-4.4 3.6,-8 8,-8 4.4,0 8,3.6 8,8 z"
   id="path73"
   inkscape:connector-curvature="0"
   style="fill-opacity:0.15" />
	<path
   class="st9"
   d="m 260,36 c 0,-4.4 -3.6,-8 -8,-8 -4.4,0 -8,3.6 -8,8 0,4.4 3.6,8 8,8 4.4,0 8,-3.6 8,-8 z m 1,0 c 0,5 -4,9 -9,9 -5,0 -9,-4 -9,-9 0,-5 4,-9 9,-9 5,0 9,4 9,9 z"
   id="path75"
   inkscape:connector-curvature="0"
   style="fill:#ffffff" />
	<path
   class="st2"
   d="M 248,32.4 V 24 h 8 v 13.9 l -2,1.9 2,1.9 V 50 h -8 V 36.1 l 2,-1.9 z"
   id="path77"
   inkscape:connector-curvature="0"
   style="clip-rule:evenodd;fill:#ffffff;fill-rule:evenodd" />
	<path
   class="st10"
   d="M 248,31.4 V 23 h 8 v 13.9 l -2,1.9 2,1.9 V 49 h -8 V 35.1 l 2,-1.9 c 0,0 -2,-1.8 -2,-1.8 z"
   id="path79"
   inkscape:connector-curvature="0"
   style="clip-rule:evenodd;fill:#4d4d4d;fill-rule:evenodd" />
	<path
   class="st11"
   d="M 249,32.2 V 25 h 6 v 12.4 l -1.5,1.7 v 1 L 255,42 v 7 h -6 V 36.6 l 1.5,-1.7 v -1 z"
   id="path81"
   inkscape:connector-curvature="0"
   style="clip-rule:evenodd;fill:#808080;fill-rule:evenodd" />
</g>
</svg>