<svg xmlns="http://www.w3.org/2000/svg" viewBox="0 0 40 40" width="40" height="40"><path d="M20 39.5C9.246 39.5.5 30.754.5 20S9.246.5 20 .5 39.5 9.246 39.5 20 30.754 39.5 20 39.5z" fill="#eceff1"></path><path d="M20 1c10.477 0 19 8.523 19 19s-8.523 19-19 19S1 30.477 1 20 9.523 1 20 1m0-1C8.953 0 0 8.953 0 20s8.953 20 20 20 20-8.953 20-20S31.047 0 20 0z" fill="#cfd8dc"></path><path d="M20 35.5c-8.547 0-15.5-6.953-15.5-15.5S11.453 4.5 20 4.5 35.5 11.453 35.5 20 28.547 35.5 20 35.5z" fill="#1976d2"></path><path d="M20 5c8.27 0 15 6.73 15 15s-6.73 15-15 15S5 28.27 5 20 11.73 5 20 5m0-1C11.164 4 4 11.164 4 20s7.164 16 16 16 16-7.164 16-16S28.836 4 20 4z" fill="#1565c0"></path><path d="M32 20c0 6.629-5.371 12-12 12S8 26.629 8 20 13.371 8 20 8s12 5.371 12 12z" fill="#cfd8dc"></path><path d="M26 20c0 3.313-2.688 6-6 6-3.313 0-6-2.688-6-6 0-3.313 2.688-6 6-6 3.313 0 6 2.688 6 6z" fill="#b0bec5"></path><path d="M17.59 28.59v-9.106l1.664-1.664-1.664-1.664V11.41h4.82v9.106l-1.664 1.664 1.664 1.664v4.746z" fill="#607d8b"></path><path d="M21.91 11.91v8.399l-1.87 1.87 1.87 1.872v4.039h-3.82V19.69l1.87-1.87-1.87-1.872V11.91h3.82m1-1h-5.82v5.453l1.457 1.457-1.457 1.457v9.813h5.82v-5.453l-1.457-1.457 1.457-1.457z" fill="#455a64"></path></svg>