<svg xmlns="http://www.w3.org/2000/svg" xmlns:xlink="http://www.w3.org/1999/xlink" width="46.012" height="46.012"><defs><circle id="a" cx="23" cy="23" r="22"></circle><circle id="b" cx="23" cy="23" r="22"></circle><filter id="c" width="1.045" height="1.045" x="-.023" y="-.023" filterUnits="objectBoundingBox"><feOffset dy="-2" in="SourceAlpha" result="shadowOffsetInner1"></feOffset><feComposite in="shadowOffsetInner1" in2="SourceAlpha" k2="-1" k3="1" operator="arithmetic" result="shadowInnerInner1"></feComposite><feColorMatrix in="shadowInnerInner1" values="0 0 0 0 0.925490196 0 0 0 0 0.925490196 0 0 0 0 0.925490196 0 0 0 1 0"></feColorMatrix></filter><path id="d" d="M24.926 26.504a.586.586 0 0 1 0-.835l.648-.635c.235-.23.426-.68.426-1.018v-8.819c0-.661-.532-1.197-1.2-1.197h-3.6c-.663 0-1.2.542-1.2 1.208v3.632c0 .334.196.796.426 1.02l.648.636a.59.59 0 0 1 0 .838l-.648.64A1.63 1.63 0 0 0 20 22.995v8.81c0 .66.532 1.195 1.2 1.195h3.6c.663 0 1.2-.542 1.2-1.208V28.16c0-.334-.196-.796-.426-1.02z"></path><filter id="e" width="1.167" height="1.105" x="-.083" y="-.026" filterUnits="objectBoundingBox"><feOffset dy="1" in="SourceAlpha" result="shadowOffsetOuter1"></feOffset><feColorMatrix in="shadowOffsetOuter1" values="0 0 0 0 1 0 0 0 0 1 0 0 0 0 1 0 0 0 1 0"></feColorMatrix></filter><filter id="f" width="1.5" height="1.211" x="-.25" y="-.079" filterUnits="objectBoundingBox"><feGaussianBlur in="SourceAlpha" result="shadowBlurInner1" stdDeviation="1"></feGaussianBlur><feOffset dy="1" in="shadowBlurInner1" result="shadowOffsetInner1"></feOffset><feComposite in="shadowOffsetInner1" in2="SourceAlpha" k2="-1" k3="1" operator="arithmetic" result="shadowInnerInner1"></feComposite><feColorMatrix in="shadowInnerInner1" values="0 0 0 0 0 0 0 0 0 0 0 0 0 0 0 0 0 0 0.681244339 0"></feColorMatrix></filter><linearGradient id="h" x1="23" x2="23" y1="5.842" y2="40.521" gradientUnits="userSpaceOnUse"><stop offset="0%" stop-color="#0AF"></stop><stop offset="100%" stop-color="#0080FF"></stop></linearGradient><path id="g" d="M23 41c-9.941 0-18-8.059-18-18S13.059 5 23 5s18 8.059 18 18-8.059 18-18 18zm0-4c7.732 0 14-6.268 14-14S30.732 9 23 9 9 15.268 9 23s6.268 14 14 14z"></path></defs><g transform="translate(.012 .012)" fill="none" fill-rule="evenodd"><use xlink:href="#a" width="100%" height="100%" fill="#fff"></use><circle cx="23" cy="23" r="22.5" stroke="#000" stroke-opacity=".2"></circle><use xlink:href="#b" width="100%" height="100%" fill="#fff"></use><use xlink:href="#b" width="100%" height="100%" fill="#000" filter="url(#c)"></use><circle cx="23" cy="23" r="7" fill="#f9f9f9" stroke="#e5e5e5"></circle><use xlink:href="#d" width="100%" height="100%" fill="#000" filter="url(#e)"></use><use xlink:href="#d" width="100%" height="100%" fill="#434a4f"></use><use xlink:href="#d" width="100%" height="100%" fill="#000" filter="url(#f)"></use><use xlink:href="#g" width="100%" height="100%" fill="url(#h)"></use><path d="M23 40.75c9.803 0 17.75-7.947 17.75-17.75S32.803 5.25 23 5.25 5.25 13.197 5.25 23 13.197 40.75 23 40.75zm0-3.5c-7.87 0-14.25-6.38-14.25-14.25S15.13 8.75 23 8.75 37.25 15.13 37.25 23 30.87 37.25 23 37.25z" stroke="#0073e6" stroke-width=".5"></path></g></svg>