<svg xmlns="http://www.w3.org/2000/svg" width="56.446" height="57.855" viewBox="0 0 56.446 57.855"><g fill="none" fill-rule="evenodd"><path d="M28.222 0C19.401 0 8.76 2.074 0 6.64c0 9.862-.12 34.429 28.222 51.215C56.566 41.069 56.445 16.502 56.445 6.64 47.685 2.074 37.045 0 28.222 0z" fill="#68bc71"></path><path d="M28.193 57.838C-.12 41.052 0 16.498 0 6.64 8.75 2.08 19.378.005 28.193 0v57.838z" fill="#67b279"></path><path d="M27.193 38.603L44.259 15.6c-1.25-1.002-2.347-.295-2.951.253l-.022.002-14.23 14.803-5.362-6.452c-2.557-2.956-6.035-.701-6.847-.106l12.346 14.502" fill="#fff"></path></g></svg>