<svg xmlns="http://www.w3.org/2000/svg" height="39.773" viewBox="-22.98 -3.25 64 39.773" width="64"><g fill="#373c41" stroke-width=".092"><path d="M-14.278-3.003c-2.917.59-6.05 2.928-7.352 5.484-1.302 2.555-1.35 3.182-1.35 13.933 0 5.737.096 10.461.241 11.209a10.963 10.963 0 0 0 8.654 8.654c1.326.24 18.585.361 18.585.096 0-.193-1.47-5.978-1.543-6.05-.024-.049-3.085-.724-6.797-1.52-8.654-1.88-8.389-1.807-9.112-2.675l-.627-.747V7.88l.627-.76c.723-.868.458-.796 9.112-2.676 3.712-.795 6.773-1.47 6.797-1.518C3.03 2.854 4.5-2.931 4.5-3.123c0-.23-17.62-.121-18.778.12zm27.938.036c.024.434 1.374 5.737 1.519 5.882.048.072 3.35.82 7.304 1.663 3.953.844 7.473 1.711 7.786 1.88.424.246.78.594 1.036 1.012.386.675.434 1.399.434 9.16 0 7.762-.048 8.486-.434 9.16a3.17 3.17 0 0 1-1.036 1.013c-.313.169-3.809 1.012-7.786 1.88-3.977.868-7.256 1.591-7.304 1.664-.145.144-1.495 5.447-1.519 5.881 0 .265 1.736.314 9.353.241 10.51-.096 10.63-.12 13.306-1.928a11.004 11.004 0 0 0 4.147-5.424c.554-1.615.554-1.76.554-12.486 0-10.727 0-10.872-.554-12.487a11.004 11.004 0 0 0-4.147-5.424c-2.675-1.808-2.796-1.832-13.306-1.928-7.617-.073-9.353-.036-9.353.24z"></path><path d="M2.91 16.124c-.078.258-.095.53-.049.796.072.41.506.434 6.171.506l6.075.048v-1.687H9.08c-5.038 0-6.074.048-6.17.337z"></path></g></svg>