<svg xmlns="http://www.w3.org/2000/svg" viewBox="0 0 512.189 470.667" width="512.189" height="470.667"><path d="M404.072 261.685a153.392 153.392 0 0 1-19.883-47.979V96.373C383.217 42.184 338.499-.956 284.31.016c-2.266.041-4.531.16-6.79.357-68.842 0-110.591 30.485-127.615 93.205-1.546 5.684 1.808 11.546 7.493 13.093.182.05.366.094.55.134a634.303 634.303 0 0 0 65.557 10.88 10.666 10.666 0 0 0 10.837-7.36c6.272-19.37 11.029-24.619 32.512-24.619 24.917 0 30.955 12.8 31.872 43.157-117.824 6.507-170.54 39.445-170.54 106.176 0 48.064 51.606 85.333 96 85.333a114.172 114.172 0 0 0 84.31-27.115 142.945 142.945 0 0 0 39.424 26.24c1.348.578 2.8.875 4.267.875a10.663 10.663 0 0 0 7.552-3.115l42.667-42.667a10.662 10.662 0 0 0 1.665-12.905zm-108.395-2.987a57.323 57.323 0 0 1-39.488 19.008c-9.728 0-41.515-3.84-42.667-53.077a36.888 36.888 0 0 1 11.264-26.923 129.344 129.344 0 0 1 84.736-26.667 10.667 10.667 0 0 1 10.667 10.197 100.735 100.735 0 0 1-24.512 77.462z" fill="#37474f"></path><g fill="#ffc107"><path d="M504.232 342.07c-3.008-.769-73.835-18.988-106.261 13.44-4.093 4.236-3.976 10.99.26 15.082 4.135 3.993 10.689 3.993 14.822 0 17.067-17.067 56.043-13.824 77.333-9.77-1.835 23.636-9.003 60.927-24.683 66.943-5.532 2.026-8.373 8.153-6.347 13.685 2.026 5.532 8.153 8.373 13.685 6.347.093-.034.186-.07.278-.106 35.883-13.739 38.677-86.763 38.869-95.125a10.665 10.665 0 0 0-7.956-10.497z"></path><path d="M469.522 395.04c0-11.782-9.551-21.333-21.333-21.333a20.73 20.73 0 0 0-12.096 3.947c-143.637 57.11-269.504 46.72-420.181-34.667-5.13-2.897-11.636-1.088-14.533 4.042a10.668 10.668 0 0 0 1.989 13.025c74.816 73.707 157.717 110.613 247.872 110.613a436.002 436.002 0 0 0 199.979-54.42c10.537-1.514 18.347-10.562 18.303-21.207z"></path></g></svg>