<svg xmlns="http://www.w3.org/2000/svg" width="261.433" height="269.966"><path d="M222.613 158.339c0 .182.714.127.33.932-.39.803-.534 1.13-1.193 1.661-.63.535-1.64 1.495-.787.837.848-.622 4.219-3.102 6.277-4.923 2.03-1.81 7.009-5.625 10.597-9.154 3.6-3.546 4.88-4.438 6.544-6.532 1.65-2.088 3.169-3.756 3.315-3.485.16.271.599.804.473 1.925-.088 1.12-.36 2.784-.36 2.784s1.654-2.412 1.98-3.047c.319-.645.644-1.606 1.008-2.194.383-.598.802-1.497 1.246-3.225.428-1.715 1.29-2.455 1.29-2.455s-.6-.33.324-1.505c.896-1.185 1.43-1.717 1.76-2.152.129-.171.273-.292.338-.349a11.15 11.15 0 0 1-.507.349c-.841.601-2.396 2.208-2.777 2.416-.385.215-1.674 1.714-2.624 2.354-.962.646-1.461 1.076-1.461 1.076s-1.168.958-2.568 2.416c-1.394 1.438-2.83 3.27-3.902 4.289-1.08 1.02-2.743 3.159-3.646 3.962-.92.814-4.075 4.391-6.261 6.214-2.208 1.812-4.461 4.117-6.11 5.24-1.665 1.129-3.286 2.566-3.286 2.566M80.665 175.405c-.1.054.227.041.37-.119.145-.149.555-.274.719-.354.164-.1.652-.301.979-.522.339-.191.662-.338.905-.572.228-.244.412-.389.69-.613.287-.21.546-.318.764-.526.207-.223.406-.341.339-.359-.065-.023-.217.028-.59.273-.376.232-.442.304-.975.602-.535.297-.947.52-1.068.617-.12.069-.33.198-.608.366l.42-.241c-.541.381-1.595.983-1.724 1.153-.118.156-.118.227-.221.295M215.877 158.4c.33.182.623.243.623.243s2.509-1.523 3.7-2.804c1.219-1.287 2.41-2.506 2.826-2.652.399-.158.815-.572 2.155-2.01 1.378-1.448 2.18-2.253 1.703-1.935-.486.327-2.982 2.008-3.37 2.485-.415.498-3.314 2.263-4.264 2.98-.963.72-.397.465-2.18 1.123-1.764.642-1.851.315-1.851.315s-2.41.973-4.018 1.448l-.073.244s.635.241 1.682.328c1.037.088 2.742.088 3.067.235M68.24 15.918a18.399 18.399 0 0 0 1.154-.164s.202-.225 1.03-.529c.833-.289 2.643-1.027 3.005-1.113.368-.093.72-.212.72-.212s.617-.508.92-.8c.287-.296.638-.39 1.193-.9.542-.504.895-.73 1.205-1.198.327-.45.355-.527.379-.592.012-.071-.3-.276-.485-.324-.181-.042-.65.048-.946.026-.293-.026-.646.047-.646.047s-.024.087-.024.274c0 .177-.107.388-.267.671-.16.272-.551.729-.988 1.169-.443.436-.527.588-1.082.894-.553.298-.756.391-1.395.714-.646.317-.646.411-1.725.783-1.081.36-2.2.865-2.757.955l-.107.192.334.297c-.001 0 .03-.142.482-.19m193.187 213.964s-.392.163-.677.262c-.273.11-.742.231-1.503.531-.762.286-1.968.889-2.571 1.118-.615.217-1.437.587-1.951.859-.513.271-1.231.645-2.065.951-.833.313-4.803 2.146-5.74 2.539-.915.413-4.937 2.109-5.918 2.55-1.011.42-5.43 2.153-6.91 2.701-1.492.561-6.806 2.454-7.846 2.782-1.021.328-3.171.875-3.36.911-.175.064-.634.151-1.102.191-.451.041-.477-.154-.406-.269.07-.127.313-.354.392-.457.099-.075-.205.013-.42.129-.206.121-.37.121-.817.28-.447.176-1.52.506-1.877.571-.334.059-1.17.063-1.646.063-.454 0-1.085.022-1.215-.059a1.022 1.022 0 0 0-.718-.283c-.37 0-.72.208-.781.208-.077 0-.31.035-.31.035s-.35.168-.571.229c-.212.063-.664.126-1.151.199-.456.087-1.11.256-1.501.279-.368.019-.345.198-.668.182-.346-.002-.677.143-1.416.21-.74.054-1.952.156-2.157.156-.19 0-.322.13-.62.043-.332-.085-.637-.043-.903-.063-.253-.022-.652.041-.908-.022-.271-.061-.53-.041-.7-.223-.145-.166-.388-.188-.494-.265-.12-.063-.35-.274-.53-.274-.166 0-.495-.041-.717-.086-.21-.03-.195-.179-.498-.222-.308-.041-.822-.041-1.023.023-.172.062-.191.188-.527.106-.34-.087-.627.062-.783.081-.161.011-.606.097-.8.097-.218 0-.567 0-.694.044-.104.043-.476.063-.866.063-.368 0-.614.082-.803.167-.181.099-.592-.063-.963-.042-.364.023-.432.205-.697.203-.253-.021-.45-.108-.85-.041-.4.043-.283.145-.621.145-.328 0-.57-.04-.79 0-.195.041-.395.085-.606.128-.222.034-.821.031-1.003.054a2.765 2.765 0 0 1-.624.063c-.222 0-.702.063-1.09.082-.393.022-.454.125-.574.148-.093.023-.325.097-.717.075-.413-.02-.782-.052-.91-.133-.102-.11.109-.195.109-.458 0-.267-.373-.585-.541-.848-.182-.264-.242-.477-.413-.718-.158-.243-.204-.33-.477-.352-.284-.039-.591-.081-.793-.221-.167-.105-.294-.17-.452-.253-.15-.065-.331-.083-.698-.16-.394-.062-.022.116-.731.16-.695.045-.961.104-1.226.173-.253.047-.543.047-1.111.047-.562 0-.562.128-.93.264-.392.141-.803.16-1.087.214-.287.043-.847.104-1.503.209-.677.104-.865.269-.95.269-.065 0-.553.186-.657.104-.127-.064-.37 0-.515.021-.186.02-.33-.085-.33-.148 0-.063.063-.656.02-1.106-.044-.456-.104-.576-.33-.785-.221-.222-.221-.326-.328-.496-.08-.182-.207-.118-.262-.29-.025-.176-.105-.282-.148-.407-.04-.16-.305-.097-.328-.207-.02-.081-.076-.188-.453-.207-.393-.021-.95-.156-1.564-.204-.635-.041-.78-.06-.968-.06-.186 0-.472.127-.62.127-.162 0-1.065.116-1.787.331-.74.241-1.83.654-2 .716-.156.063-.548.22-.78.241-.243.021.022-.095.066-.265.039-.18.123-.18.166-.348.054-.146.054-.241.118-.332.063-.06.104-.301.063-.599-.063-.303-.127-.284-.308-.409-.188-.118-.241-.226-.35-.291-.097-.036.064-.137-.02-.303-.076-.203-.476-.203-.695-.151-.211.043-.521-.019-.584.023-.062.045-.484.231-.635.255-.125.02-.37.088-.653.197-.277.13-.457.063-.646-.054-.182-.124.229-.379.435-.379.19 0 .284-.219.413-.35.146-.116.146-.225.327-.225.168 0 .517-.301 1.237-.579.726-.284.676-.263.91-.284.243-.021.466-.198.598-.198.14 0 .689-.358.713-.435.02-.086.188-.23.342-.275.13-.056.238-.16.333-.222.106-.083.255-.128.339-.171.098-.047.098-.22.157-.263.086-.044.436-.044.479-.084.02-.076.083-.182.146-.205.076-.02.2 0 .33 0 .115 0 .137-.282.223-.287.082-.017.124.005.19-.104.073-.125.222-.019.325-.062.115-.042.199-.158.266-.286.063-.104.453-.042.539-.125.095-.106.11 0 .117-.106.019-.107.214-.222.293-.203.119.025.373-.102.482-.171.09-.09.24-.239.333-.22.107.022.318-.124.415-.225.062-.08.052-.187.326-.228.272-.046.314-.16.435-.311.08-.122.346-.146.454-.164.126-.035.419-.118.476-.225.063-.127.284-.208.434-.203.136.035.266-.06.455-.229.198-.158.285-.204.423-.204.148 0 .295-.164.337-.274.054-.093.266-.018.466-.156.193-.147.085-.126.296-.126.22 0 .285-.139.425-.29.148-.122.21-.188.518-.302.283-.085.28-.257.633-.478.373-.224.908-.611 1.607-1.11.695-.518 2.568-1.955 3.13-2.372.56-.429 1.024-.713 1.956-1.456.908-.739 2.136-1.708 2.98-2.475a14.008 14.008 0 0 1 2.369-1.683c.658-.37.76-.39 1.029-.431.25-.021.209.108.323.329.127.217.372.699.519 1.257.17.591.042 1.131.108 1.291.062.128.177-.182.485-.614.296-.438 1.256-1.747 2.167-3.459.903-1.725.942-2.222 1.195-2.917.266-.697.813-1.938.962-2.326.125-.416.329-.438.452-.604.13-.156-.347.127-.715.435-.393.326-1.196.995-2.5 2.106-1.308 1.085-3.062 2.42-4.066 3.243-1.024.828-2.823 2.294-3.85 3.108-1.025.825-2.137 1.65-2.656 2-.518.349-2.24 1.26-2.715 1.609-.496.326-1.748.918-3.29 1.896-1.544.958-2.432 1.389-3.435 1.949-.992.573-1.937 1.071-2.411 1.334-.18.102-.083.063-.223.153-.107.11-.435 0-.435 0s-.083-.216 0-.416c.063-.19.139-.15.267-.212.104-.077.41-.286.865-.553.476-.251 1.037-.664 1.629-1.031.612-.394 1.002-.616 1.205-.743a1.59 1.59 0 0 1 .456-.307c.129-.065.126-.166.168-.224.062-.06.162-.168.326-.229.18-.099.285-.284.35-.31.067-.019.562-.265.7-.409.147-.139.432-.267.603-.392.157-.161.243-.203.464-.373.21-.158.762-.551 1.11-.718.339-.18.339-.286.476-.35.15-.063.328-.326.934-.717.63-.4 3.636-2.697 4.333-3.152.687-.454 1.839-1.334 2.252-1.608.403-.285.699-.649 1.025-.759.304-.139.347-.184.572-.418.23-.22.866-.544.95-.607.085-.067.2-.184.309-.184.084-.018.188-.186.346-.27.173-.121.436-.328.76-.533.308-.212.604-.498.826-.579.229-.118.327-.267.616-.465a34.01 34.01 0 0 1 1.194-.891c.474-.372.369-.394.537-.432.2-.063.348-.108.455-.213.096-.095.244-.222.37-.31.16-.113.182-.323.656-.716.477-.369 2.368-1.894 2.728-2.135.359-.234.795-.701.996-.827.189-.104.559-.388.886-.695.35-.309.887-.764 1.134-.953.24-.212.453-.482.515-.529.076-.04.51-.314.74-.372.244-.039.595-.315 1.07-.58.472-.265.653-.346.94-.612.273-.254.604-.49 1.343-1.064.718-.584 1.999-1.778 2.528-2.373.516-.601.949-1.089 1.457-1.626.52-.54 1.343-1.237 1.574-1.5.225-.265.446-.265.529-.479.106-.203.227-.223.614-.655.414-.44.603-.738.935-1.194.303-.433.453-.433.559-.721.096-.285.156-.212.336-.35.19-.102.23-.188.296-.431.064-.246.415-.476.719-.802.33-.331.284-.205.392-.415.107-.221.158-.286.285-.348.108-.066.394-.353.56-.616.163-.252.447-.389.637-.579.212-.224.307-.417.698-.803.369-.416.738-.766.824-.857.106-.108.179-.211.283-.339.13-.115.309-.245.415-.369.1-.117.37-.468.783-.859.388-.412.559-.644.846-.928.285-.289.305-.322.389-.455.109-.138.33-.242.943-.85.58-.6.908-1.023 1.078-1.265.158-.231.223-.213.279-.288.049-.062.025-.146.006-.231-.006-.085-.063-.31-.041-.397.02-.101.084-.238.452-.585.367-.37 1.154-1.114 1.619-1.608.453-.496 1.058-.98 1.345-1.301.284-.328.496-.435.76-.725.267-.301.634-.627.889-.958.262-.328.525-.558.9-.97.369-.438.399-.438.696-.634.294-.191.845-1.049 1.172-1.416.317-.395.764-.912 1.26-1.559.495-.63 1.89-2.049 2.548-2.833.666-.782 1.872-2.137 2.41-2.855s.7-.802 1.218-1.521c.518-.719 1.438-1.756 2.02-2.369.592-.624.96-1.11 1.109-1.363.136-.265.879-.839 1.047-1.026.18-.201.329-.349.39-.551.087-.189.128-.189.499-.729.392-.552 1.048-1.251 1.52-1.828.488-.614.615-.846 1.114-1.417.527-.561.654-.91 1.31-1.712.624-.837.739-1.047 1.3-1.895.555-.857.72-1.29 1.005-1.727.273-.409.349-.759.584-1.258.219-.506.135-.693.29-.958.16-.255.16-.458.257-.626.063-.178-.224.211-.547.763-.354.537-.827 1.033-1.091 1.361-.254.328-1.174 1.502-1.716 2.488-.538.948-1.352 2.144-1.891 3.045-.542.886-1.65 2.326-1.98 2.886-.325.572-1.106 1.521-1.417 2.009-.304.497-1.341 1.625-1.808 2.188-.451.572-2.282 2.652-3.17 3.66-.874.994-2.453 2.694-2.782 3.106-.347.437-2.588 2.634-3.107 3.161-.508.527-2.283 2.295-3.693 3.691-1.011.978-2.375 2.222-3.164 3.047-.783.823-2.417 2.179-3.428 3.064-1.047.91-2.014 1.606-2.444 1.978a6 6 0 0 1-1.218.739c-.432.222-.784.5-.843.639-.086.103-1.4 1.254-2.161 2.018-.76.761-1.997 1.956-2.474 2.348-.485.406-1.025 1.068-1.215 1.235-.2.201-.2.181-.53.527-.326.369-1.28 1.61-1.808 2.223-.518.604-1.216.992-1.384 1.014-.18.02-.372.153-.51.242-.146.108-.23.108-.58.456-.35.369-.918.893-1.377 1.282-.431.365-1.38 1.228-1.688 1.415-.33.2-.987.529-1.673.984a161.02 161.02 0 0 1-2.422 1.626c-.58.415-1.87 1.28-2.196 1.525-.297.223-1.87 1.275-2.365 1.627-.481.373-1.737 1.335-2.048 1.542-.304.202-1.395.86-1.647 1.03-.268.145-.836.494-1.5 1.13-.657.656-3.29 2.409-5.404 3.908-2.104 1.526-5.352 3.422-6.894 4.285-1.544.901-3.627 2.033-4.614 2.466-.95.43-2.715 1.339-3.802 1.977-1.092.652-2.613 1.373-3.175 1.764-.561.373-3.088 1.609-4.282 2.262-.572.311-2.151 1.123-3.024 1.606-1.13.627-3.848 1.809-5.04 2.37a151.65 151.65 0 0 1-4.296 1.892c-.782.331-1.13.543-1.626.679-.5.15-.87.413-.997.472-.161.046-.507.09-.738.264-.243.154-.488.108-.488.108s-.02.127-.272.127c-.264 0-.414-.168-.264-.435.126-.249.368-.187.453-.229.083-.054.345-.243.59-.362.236-.122.296-.264.72-.313.394-.063.605-.369.73-.478.158-.093.488-.264.55-.286.063-.041.063-.041.189-.161.162-.081.205-.063.33-.121.139-.085.084-.152.328-.152.24 0 .329-.334.409-.334.109 0 .415-.193.415-.193s.137-.126.287-.189c.126-.063.288-.182.433-.265.135-.085.263-.243.432-.393.204-.123-.17.045-.886.476-.742.413-.964.531-1.114.564-.158.028-.45.22-1.148.527-.681.327-6.546 3.022-6.546 3.022s-6.335 2.855-7.881 3.482c-1.54.614-4.215 1.698-5 1.952-.78.267-4.777 1.618-6.153 2.159-1.376.54-5.073 1.807-6.48 2.176-1.418.371-3.085.974-4.854 1.43-1.733.442-3.955 1.045-5.98 1.766-2.028.718-4.641 1.333-5.38 1.546-.751.22-2.633.608-4.88 1.255-2.252.678-5.975 1.523-7.757 2.095-1.79.561-3.72 1.109-4.101 1.259-.382.137-.702.007-.663-.232.033-.246.033-.139.544-.308.499-.203 1.404-.551 3.85-1.354 2.458-.802 4.167-1.173 6.873-1.981 2.717-.801 5.209-1.392 7.017-1.913 1.8-.516 4.098-1.129 5.097-1.477 1.013-.352 4.717-1.585 5.543-1.784.82-.192 4.218-1.201 5.719-1.717 1.5-.517 4.778-1.519 6.025-2.02 1.235-.508 3.32-1.268 5.43-1.988 2.09-.728 3.77-1.45 4.487-1.69.73-.245.805-.371.87-.393.063-.012.515-.042.515-.042s.287-.18.373-.18c.083 0 .019-.166.198-.255.17-.063.23.025.394-.063.127-.117.104-.094.232-.179.118-.083.199 0 .409-.063.223-.042.204-.202.33-.287.115-.104.286-.041.454-.147.183-.105.14-.085.309-.198.179-.13.266-.023.434-.047.199-.021.262-.231.412-.344.138-.087.222-.054.423-.129.188-.083.168-.177.434-.243.254-.087.254-.087.325-.107.088-.023.206-.043.52-.189.327-.176.02-.176.243-.176.234 0 .41-.025 1.034-.373.655-.354 3.132-1.462 4.38-2.04 1.239-.614 1.775-.804 1.775-.804s.613 0 .659-.042c.032-.057.515-.428.673-.433.159-.012.19-.182.413-.264.19-.063.678-.044.678-.044s.21-.243.455-.373c.243-.115 2.155-1.153 2.919-1.478.76-.354 1.173-.614 2.062-1.049.908-.452 1.849-.888 1.849-.888s.33-.182 1.004-.618c.688-.407.996-.492 1.533-.674.553-.168.837-.229 2.03-.823 1.195-.584 2.263-1.09 2.263-1.09s.276-.168.784-.496c.517-.327 1.34-.697 2.019-1.068.657-.364 1.153-.54 1.809-.926.637-.418 1.892-1.198 2.453-1.57.565-.391 1.312-.781 1.872-1.131.55-.35.57-.429.635-.445.062-.021.108-.021.168-.128.085-.106-.494-.018-.527-.106-.032-.059.01-.261.116-.387.104-.153.352-.309.43-.417.12-.133.33-.199.393-.264.066-.08.225-.147.37-.165.185-.023.35-.099.458-.16.092-.083.114-.104.2-.083.083.02.146-.125.35-.309.168-.145.32-.192.613-.307.293-.083.379-.209.823-.454.459-.233.645-.309.803-.435.17-.148.582-.324.717-.475.11-.18.152-.225.605-.497a6.84 6.84 0 0 0 .923-.657c.207-.199.294-.062.41-.218.125-.171.37-.289.624-.458.267-.147.242-.147.444-.244.189-.06.293-.19.623-.372.317-.177.062-.104-.173.024-.22.116-.241.116-.323.035-.106-.117.125-.226.475-.394.339-.18.41-.223.846-.487.41-.256.35-.309.676-.646.33-.328 0 0 .74-.506.739-.499 1.175-.841 1.588-1.094.436-.229.78-.6.78-.6s-.326.147-.854.325c-.528.193-1.385.588-2.146.808-.764.232-1.958.498-2.561.581-.593.116-1.087.201-1.66.244-.581.04-1.195-.051-1.195-.051s-.062.682-.062.897c0 .22-.35.695-.496.947-.14.246-.318.383-.318.383s.158.021.179.147c.02.148-.275.741-.495 1.065-.224.354-.761 1.091-1.09 1.346-.328.265-1.894 1.33-2.224 1.461-.314.104-.737.265-.825.286-.06.02-.618.261-1.618.739-.991.476-1.837.78-2.926 1.153-1.11.348-2.075.578-2.613.653-.538.066-1.69.211-2.284.251-.58.047-.825.14-1.383.331-.551.2-1.195.35-1.596.37-.404.043-1.098.061-1.303.083-.17.021-.211.201-.58.327-.393.105-.573.046-.9.105-.317.055-.782.116-1.344.223-.57.085-.938.042-1.005-.06-.062-.128 0-.329.225-.574.21-.231.253-.188.35-.341.066-.134-.023-.175.43-.609.457-.459 2.065-2 3.5-3.374 1.42-1.355 1.524-1.564 2.33-2.388.805-.848.92-.985 1.003-1.092.105-.127.127-.083.475-.223.373-.146.512-.265 1.356-.803.844-.538 1.755-1.198 2.475-1.65.717-.452 1.396-.982 2.568-1.872 1.194-.887 1.584-1.234 2.739-2.137 1.128-.887 1.518-1.074 1.913-1.341.37-.263.889-.719 1.316-1.004.417-.271.1.019-.1.285-.191.265-.213.308-.584.613-.37.316-.37.455-.526.54-.147.104-.253.15-.412.328-.171.185.346-.125.803-.328.432-.168 1.15-.589 1.874-1.049.694-.431 1.328-.883 1.994-1.34.657-.437.763-.678 1.664-1.195.864-.531 1.606-1.418 2.389-2.052.782-.644 1.936-2.286 2.28-2.717.35-.435.519-.562 1.376-1.217.844-.679.844-.74 1.077-1.109.245-.371.7-.909 1.396-1.479.723-.584 2.02-1.567 2.528-2.021.496-.433 1.195-1.131 2.042-1.873.844-.72.983-1.069 1.806-1.893.828-.802.913-1.046 1.737-1.909.805-.892 1.076-1.094 1.523-1.592.43-.493.676-.76 1.13-1.374.435-.6.55-.802 1.088-1.501.55-.719.456-.663.944-1.276.475-.639.292-.352.539-.639.24-.274.165-.391.326-.433.168-.063.126-.145.146-.326.022-.18 0-.128.086-.296.073-.182-.192-.118-.231-.182-.062-.085-.042-.282 0-.454.062-.156.126-.065.213-.222.07-.125.07-.145.24-.191.147-.04.074-.156.147-.303a.856.856 0 0 0 .159-.375c.039-.146-.221.086-.306.266-.104.192-.183.128-.37.275-.17.184-.41.265-.657.55-.23.288-.481.329-.716.489-.214.17-.436.399-.56.463-.15.064-.288.199-.478.367-.18.205-.488.371-.591.487-.13.087-.236.234-.35.234-.128 0-.15-.126-.045-.372.106-.231.106-.125.245-.208.149-.118.23-.099.252-.31.032-.22.14-.324.352-.652.218-.308.26-.371.59-.764.306-.368.393-.518.454-.719.065-.189.2-.107.245-.213.044-.137.105-.137.125-.263.043-.146.184-.222.393-.431.222-.245.595-.722.802-.869.223-.18.204-.265.614-.463.395-.215.435-.066.826-.419.412-.35 1.353-.641 1.714-.905.368-.265 1.805-1.175 2.788-1.852.995-.697 2.103-1.502 2.39-1.688.286-.205.413-.047.638-.205.21-.168.602-.45 1.34-.932.74-.487 1.068-.719 1.896-1.563.825-.855 2.137-1.967 2.528-2.241.412-.288.757-.74 1.383-1.291.613-.539.698-.761.792-.869.089-.104-.284.33-.326.289-.043-.042-.614.349-1.025.62-.411.266-.762.573-1.258.72-.511.139-.944.224-1.291.243-.37.023-.58.108-.645.17-.074.077-.412.393-.858.837a16.157 16.157 0 0 1-2.02 1.752c-.802.614-1.671 1.42-2.566 2.077-.91.622-2.191 1.479-2.95 1.953-.763.478-2.532 1.652-2.94 1.979-.39.307-2.18 1.344-2.434 1.397-.261.06-.443.189-.72.229-.285.062-.716.244-.738-.021-.02-.263.127-.169.719-.527.58-.358.846-.527 1.153-.793.297-.286.253-.371.623-.699.39-.327.572-.452 1.02-.804.44-.341 1.07-.897 1.305-1.089.222-.181.139-.285.965-1.152.823-.89.95-.963 1.233-1.196.288-.244.189-.081.53-.431.339-.35.783-.697 2.084-2.053 1.3-1.342 1.955-1.914 2.476-2.367.527-.477.857-.781 1.435-1.28.612-.488.944-.919 1.502-1.479.573-.573.804-.809.94-.921.15-.129.087-.233.274-.458.202-.21.287-.433.372-.579.072-.18-.062-.137-.211.043-.181.193-.285.212-.572.492-.272.269-.558.552-1.195 1.055a25.238 25.238 0 0 1-1.935 1.519c-.695.474-1.3.972-1.82 1.364-.506.367-.643.529-.944.835-.298.316-1.223 1.246-2.04 1.881-.801.643-1.933 1.774-2.437 2.16-.502.416-2.438 1.771-3.346 2.456-.913.646-1.018.525-1.062.417-.055-.095-.033-.18.063-.39.065-.225.019-.304.297-.549.283-.231.304-.464 1.033-1.112.73-.646.908-.848 1.302-1.112.369-.251.808-.759 1.037-.905.22-.17.22-.245.073-.17-.138.085-1.06.624-1.365.923-.33.298-.441.417-1.043.802-.564.364-.718.692-.922.908-.215.203-.385.315-.718.503-.356.195-.747.713-.685.656.084-.069-.273.231-.72.502-.448.269-1.191.892-1.937 1.405-.72.506-1.306.95-2.081 1.45-.778.519-1.194.876-1.38.963-.2.116-.531.415-.713.561-.147.188-.39.388-.87.743-.495.334-2.923 1.859-3.87 2.543-.931.658-3.818 2.465-5.332 3.242-1.495.775-4.925 2.48-7.253 3.476-2.326 1.001-2.448.914-2.682.857-.241-.056.386-.328.832-.633.447-.328.692-.44.904-.587.229-.183.533-.188.616-.327.087-.134.087-.277.329-.306.232-.023.896-.686 1.756-1.135.869-.469 1.319-.743 1.56-.886.236-.169.288-.099.288-.099s.274-.317.806-.651c.545-.355.718-.474 1.158-.686.433-.217.598-.217.637-.3.056-.06.413-.334.889-.63.486-.293.57-.417.689-.534.155-.145-.203-.084-.233-.218-.027-.139-.071-.195-.27-.139-.187.054-.801.244-1.464.505-.688.269-.774.486-1.02.654-.232.162-.59.395-.974.634-.364.239-.838.684-1.643 1.029-.815.333-1.486.69-2.004.965-.505.271-.866.601-1.138.745-.26.147-.917.504-1.518.831-.575.331-1.375.717-2.11 1.224-.72.514-1.072.814-1.435 1.188-.386.361-.628.72-.807.791-.188.054-.327.061-.413.143-.06.087-.39.302-.604.415-.225.089-.468.474-.741.688-.257.205-.23.304.069.355.288.039.776.093 1.447.234.663.131.993.1 1.234.214.23.114-.097.393-.433.631-.353.205-.828.563-1.005.68-.206.122-.657.514-1.702 1.13-1.038.609-2.168 1.411-2.83 1.852-.685.415-2.563 1.348-2.563 1.348s-2.188 1.305-3.103 1.755c-.895.459-1.738.867-2.712 1.164-.964.327-1.494.327-1.494.327s-.357.124-1.403.545c-1.037.44-1.454.585-1.841.746-.36.168-.126.26.29.226.44-.058.545.507.44.553-.113.054-.23.7-.614 1.157-.387.446-.718.748-.718.748s-.116.316-.331.674c-.204.333-1.521 1.621-2.111 2.063-.597.417-1.85 1.522-2.865 2.44-1.02.903-4.15 2.718-5.555 3.49-1.39.775-3.876 1.909-3.903 2.004-.558.62-3.99 4.009-5.124 5.063-1.13 1.049-4.262 3.825-5.724 5.045a1397.03 1397.03 0 0 1-6.196 5.137c-1.293 1.031-4.48 3.385-5.284 4.017-.802.602-1.82 1.22-2.212 1.519-.412.302-1.102.63-2.438 1.493-1.345.894-2.363 1.641-2.76 1.969-.402.327-1.02.63-1.18.474-.165-.146-.212-.112-.644-.087-.43.029-.293-.205-.135-.332.165-.146.589-.444 1.209-.804.61-.386 1.043-.658 1.33-.859.3-.218.589-.431 1.105-.75.502-.327 3.06-2.317 4.56-3.458 1.499-1.157 5.699-4.717 8.054-6.799 2.352-2.083 4.29-3.762 6.087-5.426 1.778-1.664 3.987-3.974 4.615-4.563.596-.574 1.307-1.377 1.465-1.638.162-.271-.626.29-1.316.746-.692.447-1.686.862-2.14 1.092-.463.243-.544.276-.544.061 0-.229.125-.375.9-1.122.775-.747 1.277-1.25 2.474-2.564 1.213-1.318 2.047-2.269 2.477-2.599.42-.306.42-.449 1.449-1.107 1.02-.684 2.132-1.638 3.345-2.627 1.195-1.001 1.523-1.159 1.523-1.159s-.1-.536.14-1.036c.243-.518.433-.843 1.343-1.561 0 0 2.086-1.423 2.639-1.691.555-.276.555-.446 1.127-.861.562-.39 1.396-1.074 2.442-1.795a92.048 92.048 0 0 1 2.736-1.824c.605-.361.519-.361 1.235-.649.72-.301 1.696-.601 2.054-.873.356-.261-1.414.132-2.467.462-1.048.316-1.495.674-2.111 1.033-.615.388-1.582.994-2.787 1.702-1.191.695-2.782 1.703-3.166 1.925-.375.219-2.082 1.319-2.587 1.505-.514.178-2.01 1.009-2.75 1.396-.71.36-2.743 1.234-3.518 1.594-.776.386-1.52.803-1.637.834-.142.026-.533.026-.57-.162-.03-.172.122-.41.268-.534.16-.138.188-.352.664-.686.499-.355.657-.332 1.105-.657.469-.316-.318 0-.584.031-.262.037-.79.182-1.416.267-.656.087-.954.189-1.591.299-.645.095-1.55.176-2.081.274-.531.062-.748.178-.958.359-.174.202-.68.443-1.308.918a55.995 55.995 0 0 1-1.613 1.223c-.235.182-.27-.091.28-.772.56-.664 1.12-.894 1.366-1.132.24-.207.5-.234.5-.391 0-.148.072-.23.23-.357.156-.087.697-.317.927-.444.078-.041.123-.056.132-.063a.292.292 0 0 0-.063-.023c-.182-.063-.15-.272.064-.504.23-.245 1.908-.991 3.684-1.953 1.768-.974 4.119-2.466 5.315-3.213 1.226-.75 2.626-1.161 2.925-1.234.3-.074.772.188.89.017.097-.161.297-.161.895-.515.568-.324.786-.621.985-.682.183-.054.328-.024.93.029.592.057.859.201 1.038.057.206-.181.21-.14.656-1.155.445-1.021 1.712-2.391 2.842-3.521 1.133-1.108 1.548-1.577 2.652-2.652 1.094-1.069 1.483-1.576 1.908-2.009.39-.42.833-.907.894-1.132.085-.203.172-.706.562-1.098.415-.427.573-1.04 1.158-1.729.602-.693 1.88-1.167 3.169-2.209 1.279-1.004 2.773-2.214 3.72-2.947a47.867 47.867 0 0 1 2.624-2.004c.852-.59 1.438-1.223 1.822-1.468.364-.23.607-.557.778-.614.158-.061.24-.272 0-.272-.245 0-.72.384-1.523.836-.805.456-1.91 1.068-3.128 1.791-1.246.715-3.256 1.992-3.256 1.992s-1.396 1.223-2.71 2.181c-1.31.974-2.441 1.792-3.265 2.47-.817.691-1.66 1.403-2.102 1.676-.418.263-.308-.181.208-.445.502-.272.584-.454.692-.57.112-.091-1.438.57-2.48 1.016-1.02.419-1.766.836-3.071 1.467a39.959 39.959 0 0 0-2.956 1.549c-.334.2-.745.261-.774 0-.027-.272.464-.417 1.104-.832.655-.403 1.346-.903 2.179-1.464.83-.573 2.026-1.293 2.454-1.676.43-.36.499-.263 1.005-.419.5-.168 1.967-.776 2.567-1.104.587-.326 1.364-.718 2.709-1.494 1.338-.776 2.24-1.417 3.044-1.936.806-.504.967-.643 1.28-.946.329-.333.414-.359.746-.574.359-.202.573-.447.473-.533-.11-.085-1.002.272-1.693.619-.69.329-1.101.901-2.684 1.847-1.578.933-1.996 1.083-2.627 1.352-.602.274-.986.506-1.49.758-.502.259-.3 0 .242-.454.536-.448.42-.391.834-.599.389-.18.632-.393.804-.624.146-.243-.96.502-1.608.859-.684.334-1.747.895-3.345 1.643-1.608.757-2.438 1.246-2.825 1.377-.363.138-.512.17-.572.255-.033.097.302.031.6.071.289.025 0 .108.029.203.027.116-.217.116-.602.329-.361.199-.504.391-.83.831-.304.417-1.698 1.606-2.352 2.172-.635.542-2.691 1.732-3.616 2.25-.896.501-2.861 1.574-2.888 1.605-.383.203-1.736.889-2.741 1.131-.991.231-2.21.478-2.933.533-.738.03-1.045-.056-1.128-.142-.088-.085-.114-.241.214-.446.316-.217.288-.355.288-.355s-.444 0-.59-.063c-.127-.03-.326-.03-.156-.358.156-.331-.19-.182-.058-.3.134-.143-.745.417-1.28.689-.54.257-.854.476-1.287.53-.44.062-.442-.118-.748-.055-.317.084.158-.149.632-.529.477-.363.63-.433 1.25-.778.659-.332.545-.359.453-.399-.121-.029-.205-.151-.182-.345.03-.191-.023-.16-.358 0-.357.168-.862.412-1.795.772-.945.387-1.807.75-2.796 1.279-.978.529-2.324 1.04-2.324 1.04s-.59 0-1.135.121c-.531.142-.864.326-1.466.531a6.887 6.887 0 0 1-1.228.302s-1.6.627-2.92 1.045c-1.305.42-3.123 1.25-5.268 1.764-2.18.505-3.284.779-4.594.971-1.314.191-2.01.218-2.01.218l-.14.066s-.687.253-1.118.467c-.43.215-1.638.272-2.354.391-.728.141-2.117.475-2.927.656a34.85 34.85 0 0 0-2.333.505c-.693.186-1.525.393-1.525.393s.208.222.673.382c.458.158.904.419 1.012.444.107.033-.674-.025-1.091-.17-.431-.17-.758-.274-1.426-.216a26.79 26.79 0 0 0-2.407.269c-.858.117-1.261.301-2.091.334-.827.06-1.602.417-2.275.469-.51.029-.181.321.244.557.01.01.032.028.056.048.048.031.129.067.252.111a.25.25 0 0 0 .058.033l.03-.004c.124.04.29.074.506.109.855.184 1.328.468 1.895.618.555.144.76.425.555.472-.198.044-.123.202-.152.571-.045.371 0 1.322-1.696 2.738-1.683 1.396-1.761 1.631-1.761 1.631s-.403.652-1.33 1.375c-.924.734-1.963 1.562-4.098 3.023-2.127 1.424-3.895 2.652-4.741 3.362-.851.717-1.207 1.244-1.207 1.244s.088.458-.193.699c-.286.234-.564 0-.973-.182-.401-.148-.641-.06-.804-.286a5.968 5.968 0 0 1-.36-.471s-.321.04-.517-.146c-.21-.204-.327-.705-.327-.705s-.481-.154-.36-.388c.122-.245-.598-.573-.236-.89l.358-.31s-.164-.605.074-.896c.248-.272-.074-.603 0-.889.089-.282.04-.59.329-1.088.28-.478.28-.806.522-1.153.237-.371.92-1.248 1.4-2.04.49-.804 1.207-1.608 1.569-2.109.369-.483 1.293-1.59 1.817-2.333.516-.717 2.162-2.716 2.847-3.603.685-.904.922-.922 1.007-1.198.078-.286.6-.572.767-.854l.155-.277s-.844.392-1.574.56c-.713.164-1.473.572-1.804.595-.315.041-.442.372-.758.562-.331.222-1.285.523-1.371.409-.078-.126-.078-.229-.078-.229s-1.774.581-5.098 1.606c-3.343.992-4.503 1.48-4.503 1.48s-1.936.844-3.057 1.278c-1.133.434-2.416 1.235-4.383 2.005-1.968.775-3.49 1.367-4.22 1.698-.72.326-1.644.761-2.325 1.17-.688.394-2.18 1.324-3.384 2.044-1.198.717-3.131 1.662-3.416 1.604-.28-.041-.358-.315.12-.604.49-.284 1.046-.719 2.133-1.189 1.087-.505 2.13-1.048 2.776-1.549.639-.486 1.485-1.15 2.205-1.477.729-.331 1.409-.848 2.012-1.197.61-.37 1.133-.699 1.73-1.044.605-.373 1.527-.847 2.13-1.219a28.132 28.132 0 0 1 1.242-.678l.609-.324 2.844-1.379 1.654-.866 2.409-1.412.123-.129h.199l1.685-.833s2.538-.777 2.416-.777c-.121 0 .64.045.925-.631.042-.126.319-.087.64-.416-.121.043-.597.18-.36-.305.239-.497.842-1.447.842-1.447s1.129-.373 3.14-1.525c2.005-1.172 3.253-1.804 3.938-2.418.683-.607 1.358-.894 1.969-1.24.597-.367 2.25-1.132 3.694-1.935 1.45-.804 3.61-1.438 4.657-1.893 1.048-.433 2.13-.803 2.532-1.006.403-.19 1.37-.518 1.612-.662.24-.186.203-.288-.723-.101-.92.205-3.256.723-3.976.923-.73.211-2.89.805-2.89.805l-1.017.495-5.663 1.626-1.241.572-.568-.199s-1.842.097-2.933.371c-1.088.271-2.151-.257-2.151-.257l-2.417.954s-1.947.893-3.365 1.409c-1.4.52-1.636 1.049-1.636 1.049s-.69 0-1.411.293c-.4.14-.318.197-1.011.42-.61.183-1.39.585-1.39.585s-.497.18-.892.267c-.4.064-.771.189-.771.189l-.301.462s-1.985.97-2.267.908c-.285-.085.863-1.292 1.547-1.608.684-.33.677-.377 1.127-.664.432-.286.637-.286.759-.286.115 0 .402-.305.402-.305s.238-.215.714-.603c.38-.327 1.542-1.222 2.147-1.769l2.757-1.714.423-.241c.428-.245.626-.329 1.144-.825.522-.496.76-.39 1.21-.654.445-.263.876-.476 1.062-.518.187-.063.164-.265-.281-.265-.444 0-.521.016-.781-.085-.265-.109-.501-.222-.708-.244-.116-.012-.26-.124-.395-.205-.375-.106-.855-.097-1.527.213-1.327.6-6.232 2.856-7.755 3.617-.99.486-1.55.585-2.237.771-4.18 1.994-9.364 4.253-7.507 2.394 1.746-1.753 10.844-6.935 15.403-9.469a291.445 291.445 0 0 1 5.775-3.304c-.208.044-.363.071-.572.113-.402.087-.693.108-1.021.149-.32.021-.266-.104-.236-.189.02-.073.236-.31 1.519-1.155 1.29-.876 3.38-2.069 5.024-3 1.657-.941 5.136-2.697 6.126-3.271.977-.558 2.756-1.34 5.05-2.365 2.284-1.026 4.013-1.979 5.123-2.569a38.198 38.198 0 0 1 2.425-1.174c.467-.211.567-.146.928-.25.364-.1.76-.53 1.367-.862.598-.313.71-.457 1.106-.687.399-.221.766-.489 1.006-.567.238-.108.423-.213.479-.31a1.2 1.2 0 0 1 .403-.369c.185-.087.38-.253.948-.626.564-.345 1.184-.898 2.582-1.679 1.417-.784 2.48-1.564 3.199-1.854a28.68 28.68 0 0 0 1.535-.624c.369-.156-.021-.241-.35-.307-.328-.038-.371-.104-1.024-.284-.663-.146-.987-.346-1.401-.556-.423-.241-.281-.247-.21-.31.224-.065.268-.125.568-.285.308-.171.46-.064.688-.174.217-.137.598-.262.7-.262.097 0 .288-.02.394-.211.14-.178-.043-.137-.105-.348-.084-.234.039-.392.124-.614.097-.22.267-.352.553-.539.285-.202.329-.348.923-.508.6-.155.686-.187 1.856-.646 1.196-.444 2.265-.568 3.659-.875 1.36-.308 2.695-.52 4.506-.954 1.817-.409 1.817-.507 2.188-.654.393-.17-.043-.19-.435-.17-.411.043-.696.104-1.257.242-.593.148-2.115.539-2.897.647-.781.104-2.286.263-4.482.78-2.211.52-4.908 1.397-6.13 1.789-1.23.414-2.631.644-4.021 1.109-1.384.453-4.482 1.692-5.741 2.253-1.275.55-2.014 1.207-2.014 1.207s.12.04.328.04c.193 0 .74-.023.875-.065.144-.054.36.149.525.149.164.021.286.243.459.243.185 0 .157-.159.566-.223.4-.042 0 0 .823-.083.826-.106.826-.202 1.258-.182.452.041.144-.042.526-.125.378-.088 1.109 0 1.233 0 .112 0 .07.307.07.307s.144.168-.315.91c-.465.738-2.007 2.199-3.775 3.478-1.77 1.289-3.171 1.873-4.138 2.265-.97.369-2.317 1.058-2.583 1.085-.258.043-.31.106-.76.149-.434.054-.762-.043-.713-.128.03-.062.054-.17.414-.212.369-.053.246-.178.419-.367.188-.224-.315.106-.718.348-.4.231-1.13.727-2.314 1.429-1.185.674-2.872 1.699-2.925 1.699-.07 0-.327.087-.686.231-.368.185-1.413.777-2.936 1.569-1.521.78-3.413 1.809-3.478 1.786-.06-.021-.361.046-.808.307-.434.263-2.505 1.174-4.351 2.04-1.847.876-3.035 1.564-3.882 2.011-.846.447-2.324 1.277-2.632 1.565-.301.272-.588.211-1.607.802-1.02.579-2.553 1.322-3.013 1.565-.466.231-.706.106-.706.106s-1.004.432-1.88.888c-.895.442-.688.308-1.654.794-.97.495-1.991.866-2.372 1.054-.381.182-1.068.528-2.134 1.155-1.063.657-3.791 2.202-4.794 2.793-1.013.558-2.881 1.729-2.771 1.648.092-.065.62-.765 1.52-1.544.905-.784 2.175-1.673 2.989-2.24.829-.598 2.897-1.791 4.926-2.829 2.037-1.045 2.85-1.41 3.917-1.981 1.063-.564 1.709-.955 2.893-1.591 1.184-.644 1.449-.974.629-.601-.824.392-1.748.887-2.49 1.195-.75.304-.66.188-.802.188-.146 0-1.296.644-2.913 1.542-1.635.924-4.425 2.446-6.42 3.661a259.233 259.233 0 0 0-5.124 3.26c-1.233.835-4.578 2.992-5.401 3.657-.82.655-1.646 1.444-2.01 1.957-.366.497-1.507 2.019-1.807 2.527-.302.494-.288 1.045-.402 1.215-.122.189-1.304 1.066-1.974 1.563-.66.51-2.108 1.606-2.627 2.04-.521.424-2.11 1.77-2.59 2.307-.484.552-1.686 1.577-2.551 2.338-.862.759-2.232 1.818-2.892 2.452-.67.611-.58.698-.58.698s.199-.245.396-.35c.202-.084.276-.105.66-.37.388-.263.706-.241 1.487-.537.784-.307 3.223-1.271 4.323-1.682 1.104-.394 2.41-1.111 2.809-1.239.405-.139.473-.197.668-.128.205.087-.042.314-.422.783-.381.477-1.502 1.715-2.273 2.803-.764 1.089-1.188 1.482-1.862 2.283-.688.804-3.321 3.497-4.426 4.667a167.044 167.044 0 0 0-2.711 2.969s-.323.064-.703.108l-.45.037c-.51.046-1.281.098-1.281.098s-.338.169-.696.272c-.371.14-.844.472-.844.472s-.31.554-.73 1.668c-.412 1.108-1.883 4.692-2.11 5.537-.217.857-2.425 4.618-3.23 6.147-.802 1.521-2.274 3.669-2.632 4.145-.36.482-.403.482-.306.695.1.202.186.085.24.287.066.225-.194.169-.215.478-.025.291.139.344.16.431.024.097 0 .201.057.287.065.085.164.021.207-.065.043-.085.177-.202.216-.328.042-.106.167-.123.282-.123.122 0 .262-.201.357-.201.112 0 .144-.132.144-.217 0-.073-.162-.036-.162-.241 0-.17-.012-.189.042-.265.069-.042 0-.189.306-.601.304-.433.596-1.007.858-1.418.262-.41.564-.74.61-.948.032-.238.097-.055.139-.244.037-.224.14-.131.172-.247.049-.081.167-.251.235-.277.053-.049.138-.153.146-.261.022-.083.127-.265.127-.265s.18-.192.203-.33c.019-.145.1-.127.186-.229.072-.138.138-.043.152-.23.019-.183.143-.275.247-.445.102-.146.276-.454.338-.521.06-.07.188-.263.238-.504.064-.231.219-.498.473-.722.237-.211.146-.272 1.113-1.647.974-1.376 3.6-5.025 6.07-7.855 2.47-2.823 3.774-4.241 5.545-5.764 1.779-1.525 2.656-1.934 3.498-2.56.844-.613 1.748-1.075 2.07-1.269.318-.17.058-.19.524-.477.459-.288 1.185-.912 2.067-1.565a64.194 64.194 0 0 1 2.748-1.893c.475-.284.668-.355.976-.455.3-.104.237-.04.423.066.174.081.26-.042.26.306 0 .371-.21.285-.381.431-.186.129-.383.392-.991 1.004-.597.604-1.427 1.45-2.087 2.021-.66.581-.997.972-1.126 1.112-.128.145-.203.393-.344.433-.138.063-.26.412-.26.412l-.215.122s-.107.101-.122.269c-.023.19-.107.348-.164.39-.064.049-.302.203-.302.203s-.196.274-.218.477c-.026.211-.101.147-.307.253-.194.136-.38.422-1.727 1.725-1.35 1.298-4.034 4.341-5.217 5.848-1.19 1.479-3.54 4.482-3.938 5.021-.403.551-.904 1.394-.904 1.394s-.261.245-.35.5c-.075.244-.424.487-.54.738-.124.267-.337.593-.337.593s-.243.251-.348.537c-.103.31-.273.505-.413.553-.145.063-.266-.021-.248.166.02.184 0 .29-.176.595a8.282 8.282 0 0 1-.482.721s-.206-.118-.163.168c.032.286-.085.348-.187.537-.094.202-.236.511-.358.53-.118.021-.3.208-.343.371-.038.125-.223.56-.32.676-.1.104-.442.208-.38.314.054.097-.041.47-.142.574-.094.083-.021.166.052.411.09.242-.115.242-.268.617-.166.346-.132.78-.35 1.128-.215.368-.662 1.449-.76 2.04-.097.581-.466 1.387-.641 1.767-.187.39-.543.646-.422.803.115.147.357.066.515-.128.167-.175.266.033.669-.155.4-.201 1.04-.393 1.964-.637.927-.253 2.317-.82 3.46-1.13a12.535 12.535 0 0 0 2.208-.782c.238-.127 1.208-.044 1.473-.087.255-.04 1.348-.373 1.862-.471.526-.106 1.689-.289 2.19-.313.496-.02.116.477-.403.615-.522.106-1.521.298-3.32.761-1.778.452-2.664.931-3.705 1.388-1.05.431-1.654 1.025-2.221 1.331-.555.272-1.12.739-1.236.798-.121.046-.381-.014-.363-.238.012-.19.054-.212.27-.374.23-.168.128-.229-.071-.168-.198.091-.48.253-2.012 1.178-1.525.921-1.948 1.19-2.348 1.5-.404.307-1.306 1.238-2.132 2.104-.823.9-1.426 1.542-1.903 2.073-.494.518-.627 1.086-.687 1.521-.062.415-.115 1.156-.217 1.262-.104.106-.4.106-.545.164-.138.101-.241.08-.585.225-.34.17-.316.127-.444.267-.123.146.26.04.844-.02.588-.042.926-.162 1.593-.12.659.043 1.02-.062 1.226-.127.194-.041.5-.062.864-.081.354-.023.495-.063.563.063.053.145-.966.697-1.656 1.236-.676.549-.811 1.268-.934 1.455-.13.21-.306.224-.565.763-.258.541-.098.782-.042.964.063.148.019.273-.381.538-.404.267-.828.496-1.091.846-.26.371-.803 1.089-.924 1.315-.117.188-.26.884-.055 1.627.198.748 1.503 2.066 2.235 2.782.71.695 1.119 1.285 1.483 1.436.358.171.786.479 1.004.452.217-.02.282-.081.404-.263.115-.189 0-.409-.221-.688a44.423 44.423 0 0 0-.913-1.11c-.338-.39-.676-.569-.638-.917.045-.35.3-.369.564-.668.26-.285.562-.897.968-1.375.402-.482.282-.482.26-.822-.02-.349-.062-.739.142-1.197.196-.432.858-1.108 1.475-1.724.635-.604 1.535-1.259 2.603-2.039 1.068-.783 1.48-1.196 2.004-1.542.524-.326.465-.371.659-.435.206-.077.328-.182.629-.267.296-.083.037-.18-.207-.241-.237-.063-.162 0-.542-.298-.381-.305-.435-.466-.622-.527-.182-.064-.256-.287-.256-.655 0-.395.094-.563.094-.91 0-.35-.032-.326.044-.909.076-.613.334-.7.544-.941.196-.232-.021-.367.142-.742.164-.369 1.047-.942 1.359-1.216.328-.283.965-.781 1.086-.869.125-.081.752-.567 2.799-1.913 2.042-1.352 3.529-2.195 5.466-3.224 1.926-1.015 2.51-1.107 2.784-1.147.282-.043.33-.132.12-.235-.198-.14-.394-.097-1.021-.763-.62-.652-.456-.548-.62-.741-.162-.18-.216-.57.164-1.661.38-1.094 3.592-2.093 5.054-2.471 1.47-.392 2.48-.517 3.6-.698 1.13-.191 1.09-.497 1.525-.744.442-.229.666-.164.708-.06.042.085-.381.307-.381.307s-.023.371-.164.497a5.186 5.186 0 0 0-.403.349s-.101.309-.43.678c-.35.348-1.757.95-2.583 1.363-.822.389-1.666.963-1.986 1.587-.316.612 0 1.142 0 1.142s.517.581.966 1.059c.447.485-.02.549-.78.612-.762.063-1.55.101-1.55.101s-.89.393-1.554.642c-.663.228-2.45 1.254-3.09 1.712-.636.431-2.17 1.868-2.574 2.38-.4.519-.555.663-.943.885-.383.209-1.101.717-1.791 1.832-.68 1.108-1.203 1.754-1.304 2.346-.093.603-.093 1.025-.158 1.132-.06.104-.195.148-.285.229-.076.097.12.021.924.021.803 0 1.692-.062 1.87-.083.188-.02.238-.02.424.062.187.097.319-.081.618-.081.307 0 .492 0 .688.062.203.076.545-.021.826.076.286.083.38.253.214.295a3.583 3.583 0 0 1-.495.064s-.215.092-.741.135c-.527.044-.915-.02-1.23.044-.323.064-.682.104-1.184.364-.501.251-1.23.789-1.546.916-.325.139-.706.179-1.151.463-.435.276-1.208.912-1.47 1.429-.258.529-.011 1.417-.011 1.354 0-.085.399.306.72.601.327.328.283.678.26 1.01-.024.303-.26 1.146-.095 2.24.162 1.088 1.399 3.044 1.986 3.764.578.717 2.147 1.869 2.668 2.261.526.413 1.086.521 1.17.719.079.17.46.274.677.456.228.148.652.741.652.741s0-.139-.108-.328c-.102-.18-.174-.391-.337-.742-.165-.348.12-.117.143-.678.02-.56-.567-1.279-1.255-2.218-.68-.931-.901-1.177-1.02-1.482-.122-.294-.042-.494.064-.931.1-.412.032-.518.277-1.436.248-.93.79-1.777 1.698-2.742.895-.948 0 0 1.14-1.064 1.142-1.067 1.866-1.483 2.03-1.609.152-.104.553-.308.646-.389.074-.107.334-.243.637-.33.3-.087.567-.158.719-.326.167-.145.589-.33.647-.359.059-.031.3-.16.438-.16.144 0 .38-.104.448-.203.055-.081.217-.188.477-.271.265-.101.423-.222.85-.531.424-.294.405-.211.858-.391.47-.146.924-.411 1.068-.479.145-.058.187-.076.424-.102.237-.023.78-.083 1.16-.14.38-.04.289-.251.289-.251h-.41c-.4 0-.723.021-1.184 0-.462-.021-1.081-.137-2.028-.115-.942.006-1.765-.021-1.904 0-.143.006-.223-.213-.186-.458.043-.23.138-.518.61-1.118.453-.594.597-.839 1.04-1.226.439-.371.459-.371.86-.784.404-.391.969-.87 2.06-1.542 1.069-.674 2.662-1.155 3.99-1.523 1.323-.392 2.37-.658 2.89-.743.518-.104 2.275-.33 3.695-.33 1.43 0 3.056 0 3.266-.101.194-.085.524-.104.78-.243.267-.108 1.309-.626 2.929-1.407 1.63-.782 2.39-.983 3.623-1.269 1.228-.274 2.41-.699 3.956-1.09 1.542-.371 1.945-.344 4.143-.729 2.185-.367 2.263-.468 2.492-.529.215-.063.48-.128.638-.232.167-.116 0-.285-.135-.285-.143 0-.35.063-.525-.064-.186-.113-.207-.16-.207-.326 0-.205-.03-.802-.08-1.048-.043-.243-.184-.931-.156-1.004-.102-.276-.222-.887-.222-.867-.446-1.001-1.128-1.419-1.793-1.872-.66-.454-1.48-.764-1.985-.847-.505-.083-1.32-.393-1.885-.456-.567-.083-.904-.202-.947-.389-.043-.182.163-.371.723-.39.56-.023 1.007-.023 1.667.104.665.147 2.272.616 2.755.738.475.149 1.369.372 1.944.416.59.041 1.305.388 2.039.537.709.139 1.257.508 1.922.919.663.435 1.307.763 1.628.951.316.184.595.533.688.859.074.296.217.495.335.644.119.158.519.413.519.682 0 .28.122.41.144.491.023.075.308.075.524.116.214.044.236.184-.186.237-.411.059-1.523.219-3.395.677-1.872.426-3.58.905-5.525 1.411-1.944.497-3.911.888-5.043 1.281-1.122.371-2.753.867-3.578 1.312-.816.414-2.37 1.077-3.13 1.471-.761.387-1.765.919-2.494 1.151-.714.224-1.61.467-2.084.552-.48.063-2.118.063-2.354.17-.237.096-1.406.359-2.294.672-.876.332-1.707.518-2.304.742-.607.202-1.793.536-2.131.763-.347.203-.481.306-.73.474-.238.162-.7.33-1.078.553-.385.208-.92.477-1.226.718-.31.232-.217.274-.31.452-.071.193-.091.255-.258.371-.164.098-.04.129.187.098.217-.032.122.052.259.235.145.145.222.166.483.081.257-.063.306-.043.729-.054.414-.01.497-.051 1.072-.027.585.018.409 0 .809.188.402.2 1.826.042 2.835.062 1.004.025.97.043 1.469.243.502.168 1.083.265 1.407.391.32.152.32.415.218.54-.103.159-.103.185-.384.507-.285.354-.5.275-.557.087-.066-.199.034-.18.176-.333.137-.125.087-.125-.142-.166-.216-.054-.053-.115-.338-.177-.278-.086-.36-.352-1.062-.265-.712.073-1.092.115-1.796.137-.693.02-.957.042-1.237.128-.288.062-.404.102-.646.177-.238.064-.724.213-1.105.254-.381.046-.984.087-1.307.202-.318.128-.624.231-.968.414-.338.146-.555.084-.76.213-.195.114-.666.197-.862.384-.208.207-.607.352-.967.881-.358.52-.101.889.076.974.182.12.088.156.045.465-.045.316.159.435.3.603.146.187.267.307.32.635.062.327-.338.308-.885 1.092-.544.781-1.227 1.755-1.5 2.259-.28.498-.186 1.345-.021 1.738.159.412.159.632.338.547.185-.075.216-.135.708-.446.475-.293 1.258-.778 2.685-1.501 1.435-.71 1.557-.761 2.01-1.033.47-.288.882-.553 1.143-.721.264-.158.85-.474 1.11-.545.265-.09.358-.321.802-.396.452-.062.67-.209.74-.316.093-.095.948-.402 1.169-.572.228-.145.4-.324 1.032-.553.62-.229.856-.313 1.042-.354.173-.043.423-.173 1.35-.308.923-.135 1.383-.243 1.763-.222.38.021 1.566 0 1.67-.086.104-.083.318-.043.625-.083.295-.021.237-.063.597-.16.36-.086.35-.126.423-.211.072-.081.164-.158.78-.241.62-.11.547-.151 1.529-.182.983-.031 1.868-.189 2.39-.146.518.042 2.792.095 4.92.146 2.138.054 2.44.158 3.322.158.878 0 1.1.023 1.237.063a.899.899 0 0 0 .513.023c.26-.063.43.02 1.42.069.984.045 1.212.027 1.503.089.307.064.229-.044.14-.158-.07-.131-.193-.35-.356-.498-.164-.128-.186-.537-.598-.974-.424-.446-.442-.618-1.41-1.336-.958-.694-1.666-1.191-2.111-1.393-.44-.21-.863-.413-.925-.604-.06-.197.086-.197.228-.187.138.007.05-.115.289-.139.248-.021 1.038-.021 1.307-.044.285-.021.207-.083.989-.103.787-.033 1.119 0 1.233-.075.093-.063.412-.063.813-.13.402-.037.445-.037.687-.145.24-.118.566-.155 1.085-.465.525-.319.689-.482.727-.497.198-1.416-.527-2.042-.75-2.245-.215-.188-.712-.761-.895-.905-.186-.18-1.266-.7-1.708-.826-.451-.16-.266-.263-.588-.35-.317-.085-.016-.104 0-.199.02-.104.467-.127.704-.127.242 0 .215.101.544.06.32-.036.4 0 1.43.108 1.017.095 1.679.222 2.747.591 1.065.395 1.965.932 2.675 1.672.708.739.998 1.789.968 2.399-.042.603-.37.628-1.203 1.101-.851.485-1.114.531-1.802.614-.673.104-2.223.242-2.628.305-.406.065-.6.044-.98.174-.38.113.242.344.905.737.667.369 1.766 1.13 2.466 1.893.71.739.926 1.237.762 1.523-.152.286-.152.567-.073.612.073.063.586 0 1.248.021.662.02 1.119.02 1.404.02.282 0 .314-.2.314-.2s.284-.041.608 0c.316.056.5.079.623.115.115.042.259.108.68.171.426.064 1.45.16 1.753.205.295.038.285.367-.02.431-.305.04-.85.148-1.27.348-.42.206-.4.352-.698.433-.305.063-.638.087-.904.286-.26.172-.52.233-1.033.279-.501.07-1.075.462-1.161.527-.078.083-.577.231-1.098.327-.524.104-.71.207-.99.393-.287.145-.687.409-.973.593-.295.174 0 0-.458.091-.46.124-1.043.215-1.415.486-.375.261-.778.616-1.16.831-.374.203-.75.169-1.096.327-.352.148-1.015.591-1.261.806-.244.2-.823.261-1.285.533-.451.271-1.234.573-1.897.931-.667.384.376.06 1.819-.029 1.449-.069 4.369-.427 6.428-.573a171.33 171.33 0 0 1 4.687-.304s0-.085.293-.255c.299-.202 1.272-.202 1.909-.202.64 0 .506.16 1.179.202.674.025 5.57-.33 11.78-.633 3.736-.172 10.512-.389 15.574-.624 5.054-.204 21.467-.596 26.71-.658 5.249-.063 12.55-.659 14.417-.824 1.862-.145 4.266-.362 5.21-.484.906-.132 4.23-.41 5.554-.563 1.33-.146 5.85-.635 7.316-.876 1.48-.203 2.794-.431 4.12-.549 1.364-.113 3.716-.073 5.237-.129 1.49-.069 4.76-.567 6.917-.974 2.179-.432 3.66-.559 6.153-1.021 2.509-.47 4.072-.848 6.329-1.304 2.255-.431 3.69-.793 5.308-1.133 1.607-.348 3.416-.879 5.567-1.423 2.164-.533 3.242-.861 4.52-1.22 1.277-.383 3.1-.802 4.479-1.236 1.354-.454 2.079-.514 4.474-1.317 2.384-.791 4.625-1.55 6.733-2.291 2.124-.749 4.42-1.583 7.773-2.832 3.32-1.249 4.667-1.776 6.203-2.354 1.323-.504 3.85-1.606 4.317-1.767.76-.274 1.089-.498 1.167-.531.097-.056.37-.127.786-.099.445.012 1.106.117 1.892.085.794-.04 1.15-.113 1.352.025.188.104 1.036.84 1.537 1.267.489.404.529.541.588.663.056.14.135.345.227.187.115-.116.19-.116.19-.116s1.92-1.767 2.885-2.683c.983-.895 2.274-2.011 2.826-2.567.557-.551 1.098-1.175 1.599-1.566.49-.414.64-.634 1.154-1.09.503-.447.574-.647 1.134-1.082.54-.44 1.02-.93 1.333-1.167.315-.207.518-.421.662-.533.139-.075.097-.147.097-.147M155.11 217.676s-.526.128-.716.369c-.593.68-.803-.095-.488-.284.327-.201.804-.392.804-.392l.487-.041zm15.355-18.557c.76-.453 1.172-.699 2.222-1.247 1.032-.56 1.564-.793 1.383-.793-.148 0-.148-.286-.148-.286l.678-.498 1.65-1.047s.515-.2 1.607-.718c1.087-.52.569-.084.199.561-.346.657-.531.816-.572 1.003-.034.201-.578.29-1.15.763-.562.488-2.082 1.221-2.222 1.259-.262.083-1.67.676-1.606.676.084 0-.805.328-1.322.479-.53.18-.571.135-1.152.283-.616.162-.33-.001.433-.435m-21.298 18.685c.519-.57 1.236-1.005 2.04-1.693.805-.676 1.207-.761 1.207-.761s.603-.402.772-.634c.158-.245.635-.573.834-.699.212-.103.646-.521 1.218-.906.562-.417 1.09-.659 1.366-.94.278-.288.672-.588 1.045-.849.347-.246 1.91-1.567 3.243-2.528 1.323-.951 3.11-2.166 4.305-3.044 1.195-.887 3.605-2.342 4.07-2.537.436-.205.667-.35.667-.35s.572-.571 1.894-1.419c1.334-.847 2.77-1.648 2.77-1.648s.133-.563.317-.719c.488-.286 1.703-1.088 1.765-1.233.084-.186.614-.289 1.504-.806.864-.53 1.235-.944 1.375-.763.103.149.146.189-.372.912-.528.715-1.288 2.036-1.662 2.492-.346.446-.845 1.334-1.233 1.921-.414.606-.434 1.219-1.811 2.415-1.363 1.217-1.564 1.649-2.121 2.123-.574.489-.904 1.092-1.006 1.132-.128.047-1.134.636-2.826 1.684-1.68 1.047-3.734 2.697-4.652 3.217-.92.523-1.184.567-1.184.567s-.476.689-.824.759c-.37.089-.413-.281-.56-.281-.182 0-.33-.435-.33-.435s.373-.201.563-.676c.198-.499.198-.659-.167-.559-.354.06-1.483.514-1.483.514s-.847.869-1.681 1.321a17.542 17.542 0 0 0-1.651 1.007l-1.174.808s-.33.282-2.125 1.146c-1.807.892-2.697 1.334-3.372 1.703-.675.374-1.235.319-.721-.241m-11.268 14.179c-.296-.043-.395-.719.42-1.481.805-.762 1.607-1.322 2.127-1.502.52-.148 1.722-.581 3.617-.994 1.89-.391 3.128-.963 3.933-.856.802.139-.202.856-.436 1.049-.241.221-.961.74-1.763 1.216-.805.486-1.825 1.153-1.825 1.153s-1.53.57-1.805.697c0 0-.527.158-1.15.616-.655.431-.857.537-.857.537s-.517.18-1.405.37c-.88.2-1.111.04-1.111.04s.15-.41.477-.561c.307-.157.102-.244-.222-.284m2.109-38.173c.817-.636.595-.601 1.24-.719.634-.126-.846.824-1.565 1.354-.73.524-1.045.451-1.045.451v-.122c-.21-.043.57-.348 1.37-.964m-7.282 3.377c0-.205.696-.574.696-.574l1.154-.664.803-.245s.52-.326.994-.613c.485-.278.14.202-.336.532-.503.326-.815.471-1.025.471-.205 0-.436.182-1.397.804-.973.656-.89.451-.89.289m-12.542 6.453c.334-.069.446-.014 1.209-.428.757-.394 1.743-1.006 1.743-1.006s1.196-.474 2.085-1.001c.877-.521 1.606-.934 1.606-.934s.35-.288 1.288-.761c.91-.478.867-.561 1.326-.863.43-.33.485.101.11.512-.348.394-.597.45-.9.723-.33.271-1.606 1.402-3.127 2.297-1.493.914-2.127 1.229-2.931 1.765-.802.526-2.263 1.188-2.851 1.243-.575.059.442-1.547.442-1.547m-8.938 5.252c.802-.49.675-.49 2.136-1.135 1.437-.653 2.037-.272 2.037-.057 0 .205-.27.861-.33 1.392-.056.545-.916.75-1.443 1.076-.533.326-1.034.633-1.451.747-.418.108-.747.108-1.28.272-.544.146-.544.13-.544-.806-.001-.329.058-1.016.875-1.489M97.238 243.36c.088-.4.89-.801 3.386-1.998 2.49-1.216 1.188.133-1.046 1.342-.896.508-.803.413-1.536.656-.716.243-.882.391-.804 0M49.35 190.068c.475-.331.537-.264 1.44-.748.912-.474.966-.678 1.342-.678.373 0-.647.678-.86 1.006-.21.313-.538.42-1.233.841-.69.452-1.601 1.13-1.93 1.254-.317.088-.64.328-1.07.206-.43-.118.36-.585 2.31-1.881m106.32 54.338l-.431.478s-.7.699-1.374 1.043c-.678.374-.604-.037-.604-.037s-.393.21-.876.411c-.5.188-1.176.316-1.176.316s-.042-.272-.085-.411c-.04-.106-.303-.279-.58-.434-.286-.171-.164-.317.234-1.09.158-.318.63-.668 1.288-1.035.622-.372 1.364-.615 1.364-.615s.242.043 1.353-.105c1.13-.182 1.13.105 1.13.56 0 .434-.242.919-.242.919m21.252 3.501c-.918 0-.347-.403.499-.371 2.24.083.436.371-.5.371M117.5 148.569c-.942.083-1.49.054-1.991.083-.476.027-1.336.085-1.82.328-.475.232-1.167.777-1.581 1.008-.39.245-2.743.873-3.737 1.075-1.011.219-3.428.962-3.896 1.13-.452.15-3.91 1.324-4.55 1.554-.641.244-1.046.505-.053.215.99-.302.99-.243 1.74-.446.755-.214 2.04-.516 2.41-.654.39-.134.693-.134 1.34-.477.64-.359 1.223-.488 1.694-.603.46-.089.878-.298 2.397-.719 1.548-.419 2.349-.616 2.682-.718.359-.112.603-.112 1.218-.298.606-.178 1.25-.15 1.769-.296a11.796 11.796 0 0 1 1.906-.454c.83-.14 1.223-.259 1.696-.414.477-.117.65-.141 1.016-.314.444-.186-1.316-.075-2.24 0m78.587-31.586c.02.031-.68 0-1.134.135-.454.133-.825.462-1.111.525-.284.052-.126-.249-.103-.329.02-.072-.487-.137-1.092-.072-.611.051-1.486-.022-1.786-.065-.307-.048-.558-.08-.782.165-.228.238-.498.761-1.017 1.521-.528.763-.794 1.063-.794 1.063s-.271.64-.664 1.111c-.393.454-.78.804-1.288 1.285-.5.476-.765.618-1.588 1.25-.825.617-1.712.956-1.544.901.339-.131-.147.282.065.162.199-.128.369 0 .482-.065.085-.063.478-.325 1.216-.737.743-.428 1.61-.75 2.352-1.189.738-.444.97-.544 1.108-.629.116-.074.5-.598.5-.598s.655-.567 1.37-1.001c.72-.447 1.546-1.055 1.714-1.107.2-.065.495-.021.75-.307.272-.278.913-.519 1.577-.898.656-.382 1.746-1.167 1.769-1.121m-16.667 29.478c-.253.021.063.149-.643.288-.698.146-1.397.434-1.913.475-.53.023-.595.286-1.006.307-.436.043-.614.065-1.068.065-.48 0-.436 0-.973.146-.554.139-1.13.139-1.745.182-1.087.073-1.46.168-1.914.307-.454.103-1.724.642-2.261.863-.54.247-.722.35-1.067.766-.374.391-.542.928-1.135 1.354-.58.433-.63.556-1.193 1.014-.56.432-.698.635-.763.72-.086.083-.538.494-.783.631-.264.149-.408.215-.58.328-.202.128-.052.151.147.151.189 0 .393-.089.658-.223.253-.15.409-.35.558-.35.18 0 .499-.065.783-.174.27-.123 1.026-.527 1.546-.714.526-.168 1.149-.54 1.765-.828.602-.284 1.13-.78 1.395-.824.253-.021.316-.265.73-.271.388-.012.35-.162.814-.257.454-.062.622-.271 1.3-.411.653-.126 1.672-.743 3.064-1.324 1.416-.591 2.877-1.395 3.416-1.478.54-.108.518-.268.846-.31.329-.041.869-.084.452-.188-.387-.139-.164-.251-.43-.245m-23.102 29.131s-.033.079-.068.229c-.111.479-.86.814-.457.666.378-.187.746-.264 1.31-.631a6.925 6.925 0 0 0 1.295-1.116c.3-.332.529-.411.907-.78.404-.347.818-.779.068-.301-.744.498-1.161.864-1.925 1.278-.751.44-1.13.655-1.13.655m42.377-71.434c.113-.333.362-.643.77-1.455.416-.813.572-.706.773-.883.194-.193.552-.118.85-.229.304-.109.637-.29.994-.406.36-.113.493-.281.36-.306-.166-.041-.6 0-.781.053-.197.057-.455.185-1.044.37-.62.18-.85.29-1.81.527-.973.252-1.28.393-1.638.507-.376.111-.813.217-1.26.236l-.191.17s-.396-.02-.396.009c.02.298-.471 1.608-.678 2.05-.168.446-1.863 2.836-2.162 3.338-.304.497-.472.537-.396.675.09.148.093.229.484.169.42-.053.473 0 .454-.071-.011-.079.213-.124.517-.51.314-.389.63-.432 1.402-1.184.772-.762.592-.505 1.093-.936.496-.452 1.826-1.184 2.25-1.481.43-.297.282-.317.409-.643M1.32 245.772s.14-.189.264-.329c.117-.11.38-.065.38-.065s.344-.622.466-.865c.12-.241-.386-.148-.23-.435.165-.284.329-.592.37-.866.034-.285.24-.39.363-.516.115-.119.518-.205.518-.205l.356-.55-.495-.124s-1.11 1.395-1.794 2.197c-.674.791-.72.869-1.198 1.385-.491.527-.281.725-.248.614.042-.124.28-.124.608-.16l.64-.081m183.342-112.241c.717-.641 2.16-2.109 2.325-2.152.206-.032.246-.032.615-.155.373-.126.54-.083.719-.126.19-.036.473-.079.846-.223.395-.135.783-.116 1.278-.4.496-.282.552-.239.678-.301.108-.058.56-.031.656-.151.104-.125.37.026.827-.125.05-.018.524-.069.934-.249.386-.164.366-.134.113-.051-.267.074-1.695.181-2.223.214-.55.042-1.311 0-1.723.042-.415.042-1.152.167-2.307.167-1.174 0-3.5 0-4.483.018-.98.009-1.562.032-1.67.054-.108.021-.222.142-.35.285-.104.145-1.05.982-1.915 2.01a56.967 56.967 0 0 1-2.324 2.526c-.678.698-1.172 1.024-1.11 1.088.062.064.104-.042.222-.135.096-.108.189 0 .497-.229.307-.258.372-.244.825-.292.456-.06.456-.021.72-.285.265-.258.37-.146.845-.389.487-.237.719-.333 1.003-.411.287-.084.393-.043.287 0-.117.03-.443.331-.92.676-.497.35-1.28.761-2.222 1.396-.94.623-.94.585-1.361.973-.411.415-1.238.942-1.438 1.11-.212.168.303.043 1.669-.434 1.374-.492 3.066-1.088 4.644-1.915 1.565-.828 3.625-1.89 4.343-2.536M9.89 114.393c.37.107 1.449.33 2.57.704 1.127.378 1.604.542 2.094.703.477.155 1.639.62 3.048.981 1.407.362 2.768.852 3.417.924.645.084 1.685.251 1.973.336.276.08 1.163.033 1.52.155.357.121 3.014.128 3.414.091.403-.041 2.893-.109 3.625-.198.714-.074 2.13-.35 2.966-.471.852-.118 3.413-.159 3.413.039 0 .206-.598.283-1.207.521-.597.247-1.762.727-2.735.962-.962.234-2.207.395-3.206.438-1.014.043-2.653.759-4.266.637-1.607-.127-3.5-.573-6.225-1.061-2.735-.481-3.743-.601-5.031-.847-1.273-.254-2.007-.393-2.752-.452-.748-.061-.968.16-.564.208.4.065.779.197 1.399.167.608-.026 2.385.438 3.425.544 1.046.11 2.697.486 4.414.757 1.716.268 2.487.622 3.325.644.83.04 1.262.137 1.505.197.238.051 1.58.083 2.463.041.876-.063 3.796-.219 4.663-.322.847-.104 3.746-.422 5.522-1 1.759-.592 3.399-1.233 3.94-1.469.53-.24 1.844-.756 2.329-.936a134.57 134.57 0 0 0 3.516-1.472c.746-.338 1.312-.338 2.435-1.01 1.129-.662 1.88-.932 2.145-1.063.274-.137.83-.644 1.258-.893.432-.234.539-.149.862-.417.315-.271.942-.807 1.48-1.178.529-.378 1.36-.801 1.632-1.126.266-.314.668-.744.97-.964.293-.214.713-.479.985-.775.266-.292 1.508-1.655 2.123-2.246.62-.581.886-.955 1.108-1.119.208-.164.308-.373.746-.804.432-.436 1.014-1.207 1.508-1.683.477-.491.808-.908.987-1.209.194-.293.268-.613.505-.8.249-.192.333-.729.649-.939.32-.208 1.048-.829 1.182-1.012.13-.189.052-.262.296-.458.24-.179 1.286-1.58 1.643-2.294.343-.73 1.58-2.785 1.797-3.408.218-.612.67-1.793.88-2.087.222-.292.33-.556.33-.556s.104-.864.24-1.236c.139-.367.33-.904.3-.028-.03.885.073 1.13.073 1.13s.353 1.362.46 1.798c.1.426.366.981.292 1.119-.084.13.178.403.234.623.054.208.298.401.164.685-.136.299-.595 1.131-.624 1.343-.023.226-.211.506-.377.726-.163.212-.271.48-.045.454.21-.025.64-.05.82-.022.194.022.623-.187.776-.248.163-.045.329-.238.403-.045.09.182.49 1.208.535 1.79-.003.301.025 1.776.025 1.776s-.642.64-1.013 1.039c-.164.182-.437.182-.778.512-.36.315-.596.665-1.05.873-.46.225-.773.401-.594.373.19-.017.327.031.327.031s.346.327.504.371c.163.065.617.167 1.046.121a4.547 4.547 0 0 0 1.285-.398c.292-.164.86-.425.999-.384.134.059.134.403.149.762.027.343.156.608.057.882-.11.269-.27.43-.407.666-.136.236-.136.32-.136.749-.166.263-.721.666-1.043.993-.321.319-.523.528-.886.802-.355.272-.593.617-1.018.91-.433.293-.296.536-.46.688-.167.167-.348.251-.568.46-.208.207-.346.463-.778.592-.045.107.432.107.97.083.537-.034.879-.027 1.178-.027.299 0 .374-.167.747-.271.372-.1 1.474-.508 2.15-.636.669-.132 1.313-.296 1.473-.397.162-.107.297-.164.314 0 .03.166.086.371.086.371s.16 1.207.075 1.61c-.077.401-.134.537-.343.7-.222.153-2.72 1.757-3.464 2.132-.748.379-3.667 1.446-4.641 1.814-.958.373-1.072.479-1.254.537-.192.048-.14.105.106.152.238.057 2.434.167 3.962.125 1.52-.059 4.34-.246 5.223-.318.89-.072 2.619-.072 2.976-.129.348-.053 1.66-.527 2.064-.662.4-.136 1.922-.593 2.892-.877.97-.292 1.689-.832 1.96-.936.266-.105.295-.268.22-.907-.086-.646-.266-1.162-.16-1.314.103-.161.564-.295.72-.325.157-.03.695-.208.83-.324.137-.104.672-.21.804-.18.135.032.08-.083.346-.194.269-.099.64-.071 1.104-.181a24.337 24.337 0 0 1 1.373-.258c.235-.06.775-.194 1.148-.194.373 0 1.208-.182 1.822-.182.612 0 1.607.026 1.607.026l-.11-.29s.217.107.513.159c.298.06.956.295 1.255.461.292.165 1.208.584 1.872 1.29.672.696 1.072 1.506 1.236 1.847.154.346.208.775.233 1.076.03.299.226.48.373.299.15-.191.573-.225 1.023-.459.448-.239.745-.293.888-.343.12-.06.33-.24.214-.295-.124-.057-.958-1.078-1.903-1.72-.937-.646-2.968-1.693-4.307-2.286-1.342-.587-1.715-.811-1.984-.832-.265-.029-.45-.161-.711-.25-.272-.074-.541-.103-.868-.241-.321-.134-.563-.315-.54-.482.032-.157-.261-.321.032-.4.302-.072.586-.057.776-.027.194.03.299.22.539.239.242.035.535.003.535.003s-.024-.104-.191-.239c-.153-.136-.552-.54-1.091-.987-.53-.459-.964-.914-1.127-.998-.158-.081-.448-.003-1.147-.558-.695-.566-1.55-1.184-1.98-1.318-.081-.087-.73-.164-1.014-.356-.295-.182-.7-.236-.863-.778-.028-.299-.18-.372-.344-.609-.156-.247-.268-.031-.404-.542-.123-.511-.216-1.283-.156-1.607.062-.325.034-.747.08-.939.057-.18-.018-.719-.044-.988a8.495 8.495 0 0 1 .003-1.163c.025-.208.242-1.33.508-1.843.272-.51 1.127-2.596 1.426-3.441.297-.87.615-1.434 1.29-2.848.672-1.418 1.285-2.566 1.422-2.858.135-.302.495-.75.567-.94.084-.194.643-1.477.87-1.925.208-.463-1.528-2.649-.966-3.353.566-.692 1.156-1.253 1.257-1.518.113-.265.494-.563.623-.728.139-.158.184-.235.184-.235s-.581-.596-.874-.915a3.627 3.627 0 0 1-.483-.668s.583.477.985.853c.399.376 1.417 1.342 1.658 1.615l.8.88.118.135s.236-.135.373.028c.129.164-.03.271-.03.271s.502.614 1.015 1.075c.507.458.965 1.048 1.149 1.211.19.165 1.067 1.073 1.067 1.073s.669.402 1.749 1.047c1.07.643 1.463.826 1.463.826l.54.093s.234-.246.452-.408c.204-.157 1.908-.722 3.3-1.255 1.385-.535 4.02-1.349 4.02-1.349s.29-.136.788-.539c.478-.398 1.646-1.604 2.162-1.975.504-.375 1.008-.864 1.638-1.341.629-.482 1.158-.696.685-.728-.508-.018-1.704.133-2.764.215-1.078.074-2.128.294-3.375.422-1.265.135-2.1.371-2.844.507-.77.127-2.052.548-2.266.578-.203.026-1.193-.113-1.193-.113s.805-.609 1.293-.898c.475-.298.117-.163.475-.298.359-.136 2.472-.561 2.885-.635.43-.079 2.154-.323 2.238-.372.06-.059 1.353-.479 1.942-.743.602-.269 1.294-.518 1.649-.67.354-.164 1.726-1.259 2.199-1.632.46-.373 2.097-1.573 2.656-2.037.55-.444 1.083-1.011 1.236-1.122.12-.098.83-.126 1.033-.021.218.103.808.059 1.29.106.479.06.952.132 1.254.197.298.046.774.134.355-.163-.421-.302-1.074-.778-1.428-1.104-.335-.321-1.194-1.019-1.628-1.364-.426-.356-1.551-1.673-3.79-2.797-2.262-1.129-7.571-3.787-8.617-4.085-.143-.059-.29.056-.591.099-.297.062-.385-.028-1.046.135-.686.163-2.956.933-3.963 1.126-1.02.177-1.995.397-2.236.504-.244.102-.612.29-.796.309-.19.029-1.103-.107-2.363-.287-1.257-.196-3.051-.516-3.587-.655-.53-.129-1.798-.249-2.353-.297-.563-.063-.703-.139-.266-.164a8.76 8.76 0 0 1 1.844.059c.806.111 1.147.273 2.113.276.96.003 2.409-.084 3.167.022.747.115 1.285.198 1.595.226.328.021.385 0 .358-.222a3.856 3.856 0 0 0-.266-.854c-.134-.322-.103-.668-.22-.939-.103-.264-.397-1.071-.507-1.206-.098-.136-.026-.208-.026-.208s1.098-.508 1.517-.729c.454-.208.816-.292.816-.292s.506-.345.917-.539a3.35 3.35 0 0 1 .722-.234s.556.236.829.269c.27.027.388.163.963.264.587.112.727.276 1.335.276.627.003 1.79-.047 2.208.006.417.056.327.164 1.49.104 1.19-.042 1.638-.126 2.02-.098.366.029.607.24.636.166.027-.088-.388-.436-.902-.647-.508-.223-.618-.321-.917-.4-.301-.089-2.12-.889-2.681-1.139-.571-.24-.834-.269-1.075-.35-.24-.073-.718-.321-1.277-.67-.57-.345-1.493-.912-1.846-1.049-.342-.13-.721-.296-.721-.296s-.141-.156.055-.208c.188-.063 4.277.008 4.277.008s.762-.108 1.153-.133c.41-.028.385-.055-.148-.237-.53-.197-1.02-.497-1.345-.544-.318-.052-1.063-.594-1.748-.94-.66-.348-1.55-.835-1.865-1-.314-.153-.76-.421-1.001-.421-.231 0-.562.025-.562.025s-.115-.353-.086-.654c.028-.27-.175-.663-.04-.867l-.022-.002c-3.007-.208-7.835 1.506-7.835 1.506l.868-.865 2.247-.962c4.823-1.977 9.526-1.933 12.249-1.66.389-.058.869-.133 1.395-.133.774.003 1.187.295 1.963.349.774.056 1.578.386 2.41.598.819.211 1.85.542 2.15.644.333.11.418.346.745.54.303.19 2.714 1.374 3.34 1.692.618.325 2.137 1.375 2.855 1.914.719.539 1.629 1.39 1.629 1.39l-1.578-.002s-1.223.054-1.781-.006a4.67 4.67 0 0 0-1.05.029s.207 0 .778.318c.56.327 2.738 1.748 3.124 2.016.363.271 1.437 1.269 1.576 1.345.13.078.907.617 2.034 1.643 1.13 1.016 2.969 2.949 3.07 3.408.109.446.078 1.312.078 1.312s.179.375.3.542c.115.147.229.552.149.583-.064.026-.368.16-.538-.003-.211-.164-1.348-1.345-1.348-1.345s-1.101-.539-1.486-.749c-.36-.209-1.048-.512-1.494-.679a5.364 5.364 0 0 1-1.072-.561c-.231-.16-.66-.352-.616-.186.057.164-.044.079-.044.079s.456.887 1.373 2.202c.957 1.316 2.39 3.543 3.03 4.499.634.969 2.62 3.818 3.276 6.412.68 2.6.852 4.612.852 4.612s.114.074.804.188c.692.111 1.289.379 1.289.56 0 .192-.36.302-.777.51-.401.217-1.292.326-1.292.326s-.148 1.712-.208 3.054c-.071 1.34.022 3.338-.076 4.099-.085.745-.085 1.254-.206 1.998-.144.762-.087 1.044-.003.971.086-.08.358-.584.562-.674.216-.074 1.018.113 1.048.484.024.384.112 1.234-.062 1.743-.19.509-.19.967-.25 1.369-.051.4-.144.748-.386 1.384-.204.648-.42 1.27-.693 1.808-.262.535-.262.771-.393 1.066-.142.289.459-.779.805-1.232a7.292 7.292 0 0 0 .97-1.848c.243-.725.883-2.309 1.136-2.973.247-.663.582-2.225.612-3.135.03-.909.205-1.443.145-1.652-.085-.222-.026-1.004-.026-1.004s.39.193.563.517c.156.323.21 1.154.179 1.582-.025.426.03.619.03.619s-.09.208-.09.338c0 .138.088.302.088.412 0 .099-.06.188-.087.372-.03.191.084.221.057.432-.028.207-.113.427-.113.564 0 .129.14.18.109.374-.028.188-.06.208-.085.565-.026.338.026.878-.052 1.014-.08.132-.108.208-.168.429-.055.207-.146.29-.118.403.028.104.332.287.26.507-.086.211-.144.268-.228.482-.062.215-.186.668-.446 1.339-.274.667-1.108 3.021-2.435 5.46-1.312 2.432-2.005 3.608-2.93 4.846-.957 1.227-1.52 1.759-1.91 2.216-.415.459-.33.507-.067.346.273-.152 1.076-.746 1.26-.803.199-.044.649-.149 1.335-.206.702-.061 1.493-.104 1.969-.16.485-.043 1.165-.162 1.203-.025.029.129-.132.403-.274.513-.13.11.09.079.304.054.204-.032.503-.08.42.027-.064.102.223.164.41.136.175-.032.325.611-.001.987-.33.381-1.217 1.257-2.002 2.032-.818.772-1.288 1.255-1.65 1.121-.383-.133-.203-.477-.17-.662.059-.191.203-.621-.127-.134-.316.481-.778 1.19-1.216 1.714-.426.507-.987 1.192-1.317 1.591-.303.407-1.468 1.746-2.04 2.366-.562.612-.593.93-1.037.848-.444-.076-.573-.129-.512-.504.067-.375.069-.567.123-.748.035-.191 0-.326-.21 0-.177.31-.624 1.04-.95 1.461-.332.433-.938 1.1-1.11 1.205-.158.111-.026.266-.447.832a30.195 30.195 0 0 1-1.493 1.819c-.52.562-1.523 1.531-2.101 1.932-.59.4-.66.5-.532.611.09.101.17.268-.09.454-.27.183-.652.29-1.313.528-.684.247-.09 0-.684.247-.571.242-.726.27-.726.479 0 .211.098.139.27.139.189 0 .274.102.445.265.154.164.128.346.273.432.17.078.113.318.058.508-.06.182-.177.296-.177.566-.003.265.056.475-.423.847-.511.373-.985.73-1.731 1.101-.75.372-1.38.535-1.825.954-.447.427-.617.621-1.036.865-.431.236-1.197.464-2.37 1.092-1.45.773-4.655 2.56-6.175 3.573-1.494 1.006-1.796 1.158-3.611 2.405-1.825 1.247-2.685 1.791-3.33 2.261-.642.444-.42.413 0 .145.429-.271 1.853-1.07 2.28-1.248.433-.192.864-.38 1.38-.653.502-.272 1.754-.656 2.972-1.158 1.205-.501 2.386-1.012 3.62-1.534 1.226-.535 2.502-1.192 3.777-1.729 1.266-.534 2.513-1.036 2.702-1.201.194-.163.749-.372.989-.479.258-.101.264-.22.835-.318.56-.11.972-.375 1.394-.538.419-.16 1.723-.606 2.067-.743.354-.135 1.009-.298 1.276-.427.274-.137 1.998-.743 2.987-1.069.98-.313 2.326-.742 3.788-1.17 1.438-.425 2.5-.828 3.158-1.099.636-.263 1.672-.547 2.804-.902 1.135-.339 2.6-.707 2.816-.684.226.019.168.264-.217.394-.363.135-1.554.453-2.655.856-1.106.398-2.356.932-3.756 1.386-1.374.452-1.677.508-3.912 1.251-2.214.743-2.571.987-3.471 1.277-.913.291-.973.328-1.4.621-.441.288-.503.371-1.01.672-.516.28-2.57 1.19-4.51 2.234-1.965 1.046-5.193 2.528-7.465 3.814a302.613 302.613 0 0 1-6.182 3.345c-1.19.603-2.31 1.256-2.77 1.342-.456.058-.855.213-1.42.443-.566.242-1.042.599-1.474.958-.438.385-1.152.587-1.778 1.006-.613.438-1.15.737-2.3 1.313-1.15.59-1.908 1.026-2.576 1.455-.665.418-1.231.901-2.035 1.429-.803.536-1.418.948-1.345 1.031.08.062.194.215.235.286.063.077.303.077.513.021.22-.033.429-.128.593-.186.163-.057.584-.327.749-.475.164-.151.328-.083.536-.214.219-.14.539-.168.73-.229.182-.086.556-.181.803-.298.24-.144.35-.205 1.098-.626.753-.39.967-.504 1.207-.614.236-.093.346-.034.298-.272-.062-.202-.241-.146.075-.276.33-.142.73-.355 1.153-.559.427-.227 1.102-.529 1.319-.597.213-.058.377-.172.75-.228.373-.061.749-.086.749-.086s-.208.42-.511.614c-.3.186-.566.3-1.26.715-.695.418-.752.505-1.287.963-.542.468-.648.529-.648.529s.106.234-.047.359c-.164.14-.402.172-.76.471-.343.3-.583.414-1.687 1.129-1.1.717-1.652 1.1-2.191 1.547-.542.444-.245.329.042.159.298-.159.832-.429 1.05-.547.22-.141.75-.385.968-.51.215-.147.698-.491 1.15-.76.459-.271 1.235-.63 1.472-.719.242-.081.84-.213 1.179-.322.354-.091.809-.147 1.004-.242.176-.066.342-.2.713-.316.372-.099 1.045.002 1.313-.03.27-.066.27-.183.999-.269.717-.112 1.949-.18 2.495-.269.529-.112 1.574-.081 3.989-.265 2.422-.191 3.346-.189 4.063-.431.74-.23 1.046-.445 1.046-.445s.239-.146-.417-.004c-.664.118-1.05.085-1.05.085s.423-.497.665-.589c.252-.112.385-.271.385-.271s-.271-.085-.426-.243c-.174-.169-.44-.833-.44-.833s-.366.128-.293-.029c.089-.146.145-.358.386-.502.234-.159.449-.298.449-.298s-.39-.331-.213-.478c.186-.158.802-.357 1.345-.502.536-.178 1.195-.354 1.613-.484.39-.138.345-.138.976-.193.657-.035 2.799.002 3.584-.054.777-.099 1.755-.097 2.715-.24.979-.17 1.508-.382 2.084-.524.602-.127 1.199-.098 1.105-.098-.088 0-.357.483-1.395 1.045-1.05.568-2.243 1.432-2.758 1.729-.507.29-.955.466-2.086.999-1.136.54-1.378.658-1.938.873-.572.202-.936.442-1.404.722-.448.283-.865.463-1.467.824-.587.383-.83.585-.421.357.394-.243.806-.487 1.02-.545.208-.056.589.004.779-.056.174-.054.076-.146.417-.24.354-.076.14.183.44-.026.277-.176.417-.293.877-.232.453.057.98.002 1.279-.389.3-.411.536-.541.835-.569.299-.027.89-.169.99-.271.115-.11.47-.174.645-.344.189-.156.962-.539 1.207-.57.243-.025.509-.087.864-.17.355-.099.447-.188.802-.214a6.75 6.75 0 0 0 .952-.17c.26-.044.715.028 1.104-.1.413-.142.738-.383 1.186-.438.464-.037.635.085 1.65.089.979.002 1.009-.288 1.369-.288.385.004.412-.056 1.016-.34.565-.291 1.34-.616 2.055-.917.69-.286 1.409-.665 1.85-.911.419-.243.807-.473 1.113-.502.327-.027.984-.101 1.403-.241.44-.116.945-.145 1.85-.267.92-.088 1.522-.201 2.56-.528 1.049-.324 2.182-.598 2.868-.859.658-.271 2.353-.783 3.49-1.009 1.16-.198 2.684-.627 3.872-.793 1.17-.144 2.154-.296 2.959-.354.803-.086 1.247-.215 1.61-.244.384-.024.44-.141.5-.23.1-.125.303-.299.128-.326-.185-.029-.446-.115-1.82-.092-1.376.028-3.102.081-4.206.137-1.102.028-2.29.209-2.983.209-.69-.004-.888.054-2.477.141-1.614.108-1.54-.19-2.056-.219-.501-.029-.363-.146-.591-.377-.262-.212-.742-.215-1.313-.245-.54-.018-1.06-.363-.623-.721.419-.35.953-.935 1.52-1.172.564-.242 2.088-.806 3.668-1.468 1.58-.674 2.355-.745 2.815-1.013.47-.267 1.189-.476 1.479-.532.3-.057.813-.234.905.059.11.287.082.448.138.646.058.174.058.264.302.34.243.086.339.328.689.617.354.292.5.295.53.459.028.167.443 0 .57-.072.13-.092.478-.271.592-.3.099-.024.156-.326.54-.456.366-.135.395-.296.536-.4.118-.108.634-.373 1.195-.671.572-.282 1.733-1.009 2.423-1.412.678-.398 1.873-.962 2.893-1.443 1.019-.473 2.024-1.116 2.54-1.279.504-.156 2.684-.933 3.76-1.526 1.069-.58 1.813-.773 2.527-1.081.69-.327 1.109-.432 1.048-.516-.083-.077-.056 0-.918.189-.872.191-4.723.901-7.348 1.489-2.625.58-4.64.662-5.038.818-.4.156-.862.078-.775-.108.087-.185.966-.674 1.999-1.09 1.049-.427 2.659-.934 3.976-1.495 1.31-.564 3.22-1.142 4.075-1.361.872-.208 1.11-.208 1.414-.452.329-.24.629-.353 1.188-.503.573-.162 1.466-.425 1.61-.53.129-.122.746-.3.87-.384.09-.075.26-.075-.056-.182-.326-.101-.63-.299-.81-.303-.182 0-.453.081-.563-.027-.117-.102.146-.181.146-.181s-.12-.268-.547-.324c-.433-.051-.8.098-2.382.095-1.582-.003-1.754.053-1.984.088-.241.027-.214-.193-.43-.108-.223.073-.223.152-1.16.206-.922.057-1.578.076-2.268.105-.704.024-.978-.166-1.22-.111-.23.057.274.079-.591.108-.9.024-1.35-.056-2.096.049-.77.102-.797.074-2.021.3-1.223.205-1.581.279-2.57.41-.98.131-2.207.319-2.234.107-.028-.22.099-.129.844-.266.732-.128 1.006-.087 1.36-.217.36-.132.632-.341 1.05-.45.42-.101.617-.101.832-.127.214-.028.104-.221-.138-.223-.244 0 .08-.048.559-.104.476-.045 1.82-.069 3.156-.161 1.348-.07 2.239-.202 3.343-.227 1.095-.028 1.822-.105 2.269-.263.446-.162.774-.078 1.132-.159.332-.08 1.52-.022 2-.108.486-.071.869-.132 1.819-.178.985-.05.993-.079 1.436-.106.418-.023.418-.08.604-.136.199-.045-.02-.138.14-.289.146-.156.302 0 .915-.593.609-.586.67-.721.842-.829.21-.105.13-.583.388-.746.27-.165.27-.4.69-.508.443-.101.776-.237.984-.265.179-.028.694-.458.925-.593.244-.135.807-.371 1.162-.579.335-.22 1.768-.892 2.184-1.125a46.315 46.315 0 0 0 1.609-.912c.453-.264.659-.293.98-.636.313-.347.424-.458.313-.51-.104-.057-.07-.501-.186-.457-.113.052-.168-.009-.168-.152 0-.131.253-.031.275-.297.02-.258.072-.344.02-.485-.06-.14.1-.216.1-.216s-.1-.043-.138-.185c-.044-.136.263-.192.31-.264.058-.05.219-.496.347-.732.148-.246.985-1.162 1.728-1.87.706-.698 2.584-1.919 3.526-2.441.953-.521 1.133-.684 1.384-.705.266-.022.373-.022.572-.115.188-.102.613-.467.287-.452-.346.023-.346-.053-.614-.015-.261.039-.168.225-.374.202-.21-.023-.21-.045-.386-.026-.17.023-.39-.176-.578-.164-.203.023-.161.003-.534-.012-.355-.018-.124-.162-.558-.134-.411.01-.487 0-.677-.03-.2-.019-.172 0-.703 0-.534 0-.926.099-1.167-.045-.244-.141-.286-.118-.31-.197-.021-.085-.105-.259-.21-.327-.117-.058-.15-.023-.412-.138-.266-.125-.53-.105-1.642-.105-1.13 0-2.306.018-2.885-.149-.608-.159-1.523-.099-2.344-.162-.855-.061-1.79.133-1.744-.031.042-.149.52-.38.718-.516.213-.145.516-.318.635-.458.107-.14.584-.081.826-.207.232-.116.436-.138.849-.194.39-.063.632-.039 1.103-.092.462-.065.782-.065.959-.089.18-.02.308-.143.35-.114.06.021.18.114.273.095.096-.007.318-.119.548-.119.243 0 .243-.015.72-.065.467-.066.413-.224.51-.224.062 0 .347-.002.455-.021.107-.022.188.003.474-.02.287-.018.287-.084.437-.097.135-.021.323-.107.323-.107l.206-.142s-.057.04-.418.083c-.362.044-.461.019-1.371.019-.89-.002-1.005-.044-1.26-.044-.263 0-.368.121-.612.039-.246-.084-.37-.02-.7-.084-.326-.054-.37-.297-.6-.384-.22-.073-.2-.422-.157-.64.042-.222.222-.305.33-.425.079-.116.413-.453 1.48-.831 1.065-.381 2.063-.657 2.846-.9a41.953 41.953 0 0 1 1.81-.536c.305-.091.74-.142.677.011-.062.16-.02.126-.474.587-.478.465-1.011 1.276-.82 1.511.2.217.877.692 1.415.801.549.101.845.318 1.462.318.613 0 1.413.168 1.95.226.57.067.847.209 1.13.209.287 0 .33.166.552.138.21-.017.804-.082.945-.114.134-.041 1.266-.062 1.424-.062.158 0-.116-.078-.551-.12-.412-.045-.556-.081-.844-.102-.284-.022-.188-.165-.74-.208-.538-.033-.72.088-.822-.033-.084-.122.04-.35-.105-.35-.184 0-.041-.311-.285-.432-.245-.131-1.375-.756-1.496-1.094-.11-.35.453-1.27.695-1.533.243-.261.887-.472 1.346-.669.468-.206 1.314-.602 1.967-.887.67-.278 1.06-.358 1.198-.401.104-.03.23-.236.23-.236s-.23-.102-.23-.144c0-.042.296-.122.349-.122.064 0 .538-.4.773-.564a11.176 11.176 0 0 1 1.438-.732c.425-.161.698-.183 1.047-.378.35-.206.698-.161.698-.263 0-.095.106-.095.236-.084.113.02.18-.143-.846-.143-1.015 0-1.175.036-1.28.017-.127-.017-.188-.144-.327-.031-.148.093-.307.05-.973.071-.7.022-1.991.078-2.245.019-.265-.067-.386-.285-.675-.22-.284.057-.242.102-.611.152-.373.062-.154.084-.522.161-.37.084-4.758-.007-4.758-.007s-.2.085.045-.144c.235-.216.604-.402.58-.476-.042-.078.804-.464 1.134-.621.35-.159 1.049-.462 1.218-.628.16-.152.94-.409 1.292-.451.33-.048.719-.141 1.11-.16.369-.024.494 0 .739-.102.232-.093.294.046.452.003.147-.042.088-.161-.263-.263-.347-.099 0-.183.353-.203.324-.019.452.042.613-.099.168-.139.104-.197.212-.239.084-.043.062-.164-.25-.328-.313-.147-.968-.674-1.252-1.145-.277-.454-.305-.948.184-1.239.455-.303.89-.366 1.324-.527.453-.152.82-.093 1.002-.152.148-.063.37-.26.37-.38 0-.128.416-.39.743-.723.35-.337.766-.501 1.037-.643.283-.138.35-.205.679-.235.328-.044.243-.145.57-.186.33-.04.146-.019.458-.094.305-.091.305-.164-.373-.164-.7-.002-2.348.017-2.651-.025-.333-.04-.48-.104-.891-.104-.417 0-.802-.125-1.225-.145-.437-.022-2.74-.027-3.014-.005-.29.019-.126.019-.722.065-.612.031-1.13.072-1.331.134-.187.061-.583.266-.91.405-.326.137-.478.053-1.003.434-.522.379-.437.487-.873.537-.41.068-.98-.577-1.476-1.118-.497-.545-1.34-1.875-1.207-2.52 0 0 .28-.017.556.029.284.032.203.075.513.094.323.022.255.103.516.217.244.124.282.104.43.167.138.059.222.145.2.059-.018-.079-.092-.131-.325-.181a.594.594 0 0 1-.411-.282c-.086-.121-.203.122-.246-.121-.042-.24-.062-.361 0-.423.066-.054.089-.167-.081-.319-.158-.158-.368-.301-.388-.484-.023-.176.037-.482.229-.721.184-.238.595-.207.533-.301-.065-.101.308-.075.495-.117.2-.042.31-.065.475-.065.18 0 .1.186.33.116.242-.051.41-.215.826-.192.388.021.199.163.716.197.53.043.393.114.647.127.252.018.273-.104.527-.104.27 0 .27.209.65.125.396-.077.414-.362.619-.641.169-.287.352-.836.764-.92.393-.082 1.387-.439 1.649-.565.264-.122.965-.171 1.133-.212.189-.048.612-.164.927-.195.33-.049.349-.02.699-.068.35-.043.66-.155.395-.159-.253 0-.458-.12-.603-.16-.161-.042-.898-.13-1.584-.107-.7.021-1.226-.056-1.485-.196-.26-.145-1.051-.191-1.521-.1-.844.135-1.643.09-2.17.047-.525-.042-1.158-.166-1.158-.288 0-.119.954-.675.954-.675v-.243s1.087-.24 1.53-.404c.457-.148 2.127-.549 2.5-.671.37-.128.656-.202.803-.244.156-.034 1.607-.189 2.284-.189.699.002 1.134-.205 1.788-.161.62.045 1.15-.197 1.15-.197s.417.036.967-.036c.558-.092 1.055-.119 1.298-.21.233-.072.309-.115-.41-.072-.72.039-1.25-.124-1.766-.209-.517-.075-1.46-.646-2.55-.77-1.063-.122-1.59.082-2.117-.322-.527-.402-1.727-1.133-2.4-1.57-.69-.442-1.22-.402-1.22-.566 0-.167-.145-.2-.517-.072-.346.115-.804.265-2.041.665-1.25.396-2.655.724-3.331.796-.698.088-1.704.326-2.266.28-.571-.03-2.091.207-2.481.038-.413-.164-1.261-.444-1.545-.641-.274-.208-.392-.36-.346-.608.055-.243.243-.481.243-.481s.043-.598.285-.689c.23-.069 1.606.006 1.606.006s.3-.128.377-.128c.085 0 .196.193.328.163.123-.035.396-.188.396-.188s.195.025.354.025c.17.001.41-.105.473-.105.087 0 .184-.05.274-.05.11 0-.03.106.208.129.264.027.063-.107.264-.107.186 0 .418-.074.418-.074s-.682-.192-.72-.271c-.057-.075-.057-.075.243-.135.3-.056.773-.07.92-.101.185-.028.202-.09.572-.105.39-.03.749-.191.835-.191.085 0 .119-.236.148-.611.038-.379-.03-.566-.062-.699-.058-.133-.027-.478-.114-.671-.083-.192-.312-.992-.43-1.215-.153-.215-.153-1.045-.028-1.253.093-.22.176-.596.478-.73.3-.13.69-.099 1.02-.099.33 0 .892-.027 1.105-.027.203 0 .369.03.369-.05 0-.084-.466-.167-.672-.295-.213-.135-.57-.245-.715-.301-.171-.047-.215-.183-.196-.267.025-.077.14-.208.226-.297.06-.077.445-.077 1.016-.045.56.028 1.064.003 1.064.003s-.315-.223-.411-.223c-.063 0-.868-.184-1.093-.184-.218 0-.718.136-.966.136-.241 0-.772.206-1.045.31-.26.114-.42.219-1.276.024-.86-.182-1.607-.43-1.935-.509-.325-.08-.75-.164-.832-.164-.074 0-.633-.183-.806-.183-.157 0-.746-.139-1.07-.167-.308-.03-.992-.077-1.196-.139-.217-.056-.486-.167-.632-.189-.114-.02-.472-.318-.472-.318s-.774-.062-.933-.107c-.17-.059-.44-.087-.72-.193a3.027 3.027 0 0 1-.531-.269s-.83 0-1.101-.083c-.272-.083-.834-.057-.834-.057s-.297-.137-.745-.211c-.472-.081-.75.13-1.464.025-.688-.109-.59-.028-.59-.135 0-.105.173-.163.476-.163.3 0 .59-.073.59-.073s.33-.088.573-.088c.243 0 .533-.133.686-.133.118 0 .505.139.65.166.183.029.332.13.517.13.197.003.327-.189.559-.127.245.053.516.029.834.102.327.083.844.195 1.018.166.187-.024.473.032.716.082.245.059.49.059 1.275.06.775.003 1.02.031 1.469-.053.444-.08.96-.08 1.276-.077.329 0 .435-.134.719-.134.302 0 1.617-.025 1.85.036.242.048.47.104.93.077.443-.025.382-.252.202-.252-.168-.002-.434-.002-.7-.022-.251-.027-.346-.078-.452-.102a2.89 2.89 0 0 1-.325-.12c-.148-.065-.561-.046-.74-.107a18.304 18.304 0 0 1-.411-.125s-.453-.24-.783-.499c-.33-.265-.602-.544-.62-.761-.024-.224.125-.338.29-.428.204-.074.786 0 .905-.093.099-.102.254-.08.39-.142.148-.061.189-.042.328-.072.148-.043-.221-.091-.508-.113-.272-.01-.307.11-.868.11-.562-.003-.804.15-1.28-.026-.483-.186-2.201-1.391-3.205-2.177-.972-.783-1.91-1.803-2.018-2.186-.104-.381.067-.524.132-.565.094-.042.262-.144.198-.264-.062-.116-.182-.074-.328-.175-.146-.108.149-.26.372-.392.188-.113.68-.311 1.008-.497.316-.171.518-.211.604-.281.103-.054.409-.29.017-.29-.367 0-1.068-.023-1.215-.023-.146 0-.391.093-.496.136-.116.035-.141.143-.222.162a4.527 4.527 0 0 1-.495 0c-.184-.021-.226-.106-.35-.106-.148 0-.403-.058-.497-.102-.12-.045-.265.065-.468.019-.211-.041-.128-.137-.996-.14-.841 0-1.08-.029-1.634-.029-.56 0-.772.163-1.1.142-.35-.024-.414.099-.728-.145-.32-.239-1.8-1.57-2.272-2.066-.473-.501-1.192-1.331-1.29-1.657-.084-.318-.13-2.326.104-2.664.212-.351 1.219-1.184 1.407-1.305.215-.121 1.333.056 1.807.126.498.054 1.65.263 1.997.342.353.075 1.028.337 1.42.466.41.127.822.399 1.046.399.188 0 .148.181.326.204.193.022.315.022.35-.043.023-.052-.075-.023-.283-.237-.223-.223-.594-.428-.87-.586-.284-.157-1.087-.441-1.352-.464-.263-.022-.982-.197-1.562-.407-.571-.193-2.485-.549-3.72-.831-1.217-.277-2.738-.581-4.04-.724-1.31-.146-2.263-.387-3.12-.409-.863-.023-1.753-.189-2.492-.2-.74-.022-1.483.07-1.722.006-.233-.061-.437-.123-.626-.135-.2-.018-.37-.184-.78-.371-.411-.174-1.153-.281-1.462-.382-.325-.096-.518 0-.795-.096-.27-.101-.4.02-.6-.123-.187-.145-.21-.218-.621-.287-.36-.059-.813-.052-1.206-.115.103-.003.158-.005.142-.011-.214-.078-.961-.325-.986-.402-.028-.08.38-.187.772-.187.396 0 .575-.084 1.265-.154.704-.092 1.895-.055 3.388-.052 1.518.003 1.518.076 2.063.107.529.027 1.489-.041 1.752.003.27.058.328.107.602.11.27 0 .563.129.837.223.27.072.572 0 .777-.057.235-.052.496-.052.652-.136.146-.073.422-.073.834-.107.392-.025 1.074.037 1.317.11.229.081.534-.024.804.003.26.031.95.213 1.396.302.486.076.33.161.443.076.103-.073-1.248-.512-1.778-.692-.547-.195-1.246-.434-1.55-.598-.283-.164-2.837-1.046-3.842-1.424-1.02-.373-1.374-.675-1.85-.777-.476-.107-1.908-.469-2.598-.57-.69-.11-2.205-.59-3.155-.707-.968-.11-1.608-.294-1.822-.321-.218-.029-.615-.185-1.03-.528-.442-.346-.027-.403.216-.484.233-.077.614-.251.792-.272.146-.03.2-.131.389-.25.2-.102-1.032.102-1.451.073-.425-.037-.328-.215-.683-.245-.336-.032-.797-.193-1.071-.238-.298-.06-.598-.461-.541-.734.032-.265.362-.208.895-.429.542-.208.785-.233 1.227-.397.42-.152.666-.249 1.053-.409a7.247 7.247 0 0 1 1.207-.375c.344-.08 1.034-.153 1.455-.289.452-.128.869-.216 1.614-.245.753-.016.115-.18-.098-.18-.21 0-.918-.11-2.167-.142-1.263-.03-2.765.088-3.09.085-.354 0-.598.167-.771.22-.211.045-.96.1-1.286.133-.305.019-1.643.145-2.24.205-.59.056-1.582.292-3.056.424-1.48.133-4.22.776-5.35 1.011-1.136.236-2.13.583-2.307.661-.191.075-.603.164-1.238.257-.611.098-1.133.304-1.303.356-.156.065-.607.125-.897.106-.31-.022-.273-.068-.254-.232.017-.152.316-.069.456-.139.104-.051.23-.195.516-.454.29-.257.554-.423.722-.443.18-.021.596-.295.888-.435.312-.141.86-.385 1.153-.488.308-.098.638-.172 1.187-.302.539-.117.87-.236 1.143-.287.284-.064.795-.186.963-.284.18-.096.2-.137.539-.22.35-.082.785-.367 1.09-.459.31-.102 1.009-.068 1.25-.184.23-.12.473-.14 1.258-.292.783-.161.975-.32 1.279-.442.33-.124.392-.185.637-.214.24-.043.65-.164.762-.185a2.44 2.44 0 0 0 .476-.143c.196-.051.2-.116.393-.164.177-.031.2-.216.076-.216-.121 0-.34-.063-.427-.074-.083-.02-1.406-.093-1.683-.093-.272-.003-1.732-.037-2.968-.027-1.251.019-3.831.103-4.348.135-.53.042-1.355.06-1.355.06s.064-.043-.038-.074c-.128-.042 0-.183.168-.264.179-.082-.315-.124-.908-.124-.573 0-1.194.079-1.63.122-.455.037-1.788.239-2.021.239-.242 0-1.227.307-1.48.42-.264.094-.738.273-1.332.287-.584.019-.784-.054-.87-.151-.078-.111.17-.209.33-.251.127-.031.23-.136.045-.137-.211 0-.37-.061-.37-.176 0-.122.168-.285.41-.469.222-.175.414-.237.596-.38.188-.145.126-.237.253-.361.158-.115.267-.183.435-.214.157-.041.309-.205.412-.245.142-.033.18.063.51-.102.327-.162.622-.332 1.153-.542.519-.195.804-.379 1.139-.537.344-.151.658-.265.924-.437.266-.186.369-.236.639-.256.25-.022.739-.258 1.17-.326.432-.052.497-.117 1.029-.214.514-.097.949-.097 1.78-.138.839-.043.47-.045.524-.161.02-.122-2.075-.125-2.614-.128-.55 0-2.481.042-3.201.068-.743.049-2.782.469-3.978.845-1.218.379-2.783 1.106-3.936 1.383-1.175.277-3.557.712-4.276.798-.718.075-1.756.046-2.04.046-.306-.003-.35.185-.285.206.052.021.286.296.348.462.096.164-.828.845-1.693 1.037-.89.205-2.582.226-3.184.226-.603 0-2.031.258-2.591.285-.592.042-1.22.061-1.22.061s-.55.481-1.228.858c-.684.383-1.872 1.27-2.671 1.847-.811.585-2.071 1.554-3.12 2.264-1.042.728-2.72 1.986-3.383 2.409-.667.42-.985.658-1.098.499-.125-.163.29-.436.64-.785.339-.331.947-.856 1.362-1.236.428-.388.964-.8 1.854-1.507.894-.708 1.607-1.244 2.154-1.664.544-.42 1.35-1.043 2.18-1.579.828-.545 1.959-1.224 2.416-1.571.433-.337 1.175-.904 1.334-1.046.126-.138.476-.309.863-.453.419-.145.545-.183.707-.234.12-.066.549-.589 1.117-.688.58-.093 1.134-.277 1.199-.397.063-.119-.552.05-1.07.138-.52.072-2.315 1.037-3.845 1.517a95.293 95.293 0 0 0-4.496 1.596c-1.161.47-2.607 1.446-3.151 1.767-.547.316 0 0-.732.429-.72.409-1.72 1.159-2.125 1.518-.4.355 0 0-.422.402-.43.397-.993.851-1.192.921-.206.061-.322-.187-.203-.79.12-.602.908-1.366 1.492-1.863.592-.501 1.917-1.117 2.316-1.342.394-.219.134-.219.127-.318-.02-.105.03-.401.236-.728.194-.314.508-.598 1.029-.959a40.764 40.764 0 0 0 1.846-1.406c.266-.217.429-.316.463-.4.043-.078-.525.207-.783.301-.267.097-.401-.002-.401-.002s-.723.448-1.174.739c-.43.304-1.882 1.269-2.4 1.629-.525.349-1.176.722-1.842 1.057-.662.337-1.62.922-2.071 1.181-.438.266-1.727 1.21-2.371 1.565-.64.356-1.688 1.14-2.02 1.39-.308.232-.554.45-.658.356-.103-.1-.136-.359-.136-.359s-.366.278-.648.453c-.272.185-.697.399-1.406.758-.705.368-1.145.781-1.145.781s-.16.327-.347.666c-.172.347-.964 1.245-1.266 1.573-.305.316-1.05 1.282-1.164 1.707-.122.409-.381.594-.711.57-.314-.02-.28-.314-.501-.4-.215-.078-.258-.102-.4-.164-.137-.056-.058-.598.07-.784.116-.174.116-.217.116-.217s-.258.139-.37.079c-.095-.058 0-.527.05-.704.04-.181.137-.354.588-.878.434-.526 1.116-1.248 1.175-1.622 0 0 .045-.414.149-.607.089-.182.375-.638.838-1.165.48-.517.914-.92 1.048-1.022.129-.107-.122-.125-.122-.125s-.763.582-1.258.897c-.497.321-.875.741-1.023.771a2.612 2.612 0 0 0-.464.207c-.093.045-.2.014-.371-.105-.063-.196.04-.405.503-.955.468-.553 1.943-2.086 3.407-3.393 1.467-1.316 3.02-2.465 3.196-2.513.18-.057.15.423.15.423s.446-.421.806-.689c.346-.288 2.014-1.315 2.908-1.902.886-.592 1.929-1.323 1.929-1.323s.12-.134-.066-.19c-.187-.048-2.097 1.071-2.858 1.541-.762.466-2.45 1.518-2.585 1.607-.132.073-.296.115-.293-.049 0-.156-.125-.1-.125-.1s-1.985 1.063-2.821 1.516c-.823.457-2.193 1.308-2.944 1.766-.757.444-2.891 1.808-3.14 2.005-.245.178-.245.341-.554.448-.331.102-.57.535-1.484 1.229-.91.702-3.03 2.676-4.11 3.961-1.071 1.282-1.717 3.051-1.795 3.188-.09.13-.804.502-1.615 1.201-.804.688-2.117 1.787-2.57 2.001-.451.217-.668.217-.668.217s.217-.866.668-1.849c.456-.996 1.45-2.735 1.837-3.217.369-.474 1.983-2.83 2.707-3.769.729-.939 2.925-3.453 3.357-3.796.426-.351 1.604-1.336 1.604-1.336l.114-.269s-.36.045-.486-.195c-.135-.237.24-.849.733-1.279.473-.432 1.716-1.576 2.3-2.057.594-.486 2.072-1.366 2.62-1.633.57-.263.814-.533 1.11-.667.299-.134.343-.03.91-.323.566-.287 1.314-.674 1.66-.773.358-.108 2.415-1.042 2.475-1.071.238.064.42-.015.876-.266.46-.233 2.704-1.277 3.872-1.787 1.15-.501 2.672-1.438 2.672-1.438s.222-.053 1.099-.368c.883-.328 2.196-.666 4.177-1.288 1.99-.606 2.475-.814 2.985-1.006.505-.19 2.566-1.174 3.428-1.637.873-.444 1.908-1.172 2.3-1.456.417-.3 1.22-.728 1.22-.728s.304-.479.689-.772c.365-.299.993-.966.993-.966s.165-.609.3-.96c.127-.352.36-.964.564-1.262.218-.297.363-.748.424-.986.064-.249.125-.458.125-.458s-.461.075-.78.236c-.326.164-.743.134-1.044.084-.3-.06-.328.077-.89.103a30.04 30.04 0 0 0-1.618.163s-.06.309 0 .446c.065.136.179.537.095.867-.097.311.087.491.024.894-.096.397-.572 1.446-1.006 1.883-.46.437-1.222 2.213-1.467 2.286-.23.087-1.325.801-1.955 1.158-.658.369-3.792 1.413-4.597 1.646-.803.238-1.524.321-1.524.321s-3.334.792-4.825 1.232c-1.496.439-3.746 1.241-5.747 1.674-2.017.442-4.065.963-4.065.963s-.72.278-2.171.724c-1.45.427-3.42 1.231-3.864 1.395-.436.161-2.532 1.135-3.456 1.621-.922.476-1.267.759-1.67.685-.4-.092 1.932-1.348 3.122-1.991 1.186-.641 2.072-1.143 2.853-1.5.783-.357 1.494-.642 1.754-.825.264-.175-.322-.022-.87.14-.544.164-1.628.488-1.81.662-.183.18-.66.584-1.445 1.01-.782.409-3.243 1.631-4.056 2.101-.832.45-2.42 1.475-3.151 2.079-.721.598-2.752 2.483-3.637 3.503-.888 1.028-2.24 2.29-2.856 2.999-.626.689-1.375 1.921-1.54 2.107-.151.171-.695.257-.978.409-.285.167-.732.822-.927.967-.205.14-.237-.096-.143-.308.102-.194.267-.4.267-.577 0-.183-.242-.134-.264-.321-.021-.175-.062-.502.062-.821.126-.32.606-.967.442-.967-.163 0-1.207 1.765-1.692 2.653-.478.884-2.018 3.368-2.702 4.336-.68.961-1.05 1.235-1.05 1.235s.209-.596.289-1.163c.084-.559-.237-1.003-.4-1.239a4.09 4.09 0 0 1-.285-.523s-.36.031-.431.237c-.087.194-.333.925-.612 1.207-.283.281-1.002 1.925-1.288 2.283-.281.37-2.051 1.811-2.051 1.811s1.085-2.365 1.53-3.29c.452-.928 1.815-3.742 2.219-4.545.407-.803 1.133-1.892 1.133-1.892s.003-.638.155-1.162c.169-.52.653-1.203.808-1.637.167-.447.847-1.173 1.258-1.567.403-.4 1.362-1.53 1.804-1.976.446-.429.64-.355.807-.595.167-.236 2.116-1.653 3.088-2.345.958-.702.584-.645.049-.33-.537.327-1.23.857-1.342 1.065-.107.226-.69.438-1.393.968-.7.534-2.624 1.55-4.34 2.827-1.717 1.294-2.53 2.362-2.693 2.625-.157.264-.908.531-1.447 1.067-.538.531-.692 1.664-.915 1.873-.208.226-1.494 2.037-1.765 2.621-.273.592-.647 1.294-1.777 2.889-1.124 1.61-1.988 2.74-1.988 2.74s-.59 2.619-1.021 4.112c-.44 1.503-.74 6.978-.761 7.239-.031.271-.647.958-1.051 1.602-.404.644-1.136 2.142-1.238 2.272-.11.137-.456.164-1.122 0-.673-.162-1.61-.938-1.61-.938s-.222.129-.46-.028c-.236-.156-.314-.964-.314-.964s-.19-.102-.35-.4c-.162-.296-.051-.914.034-1.64.072-.718.376-4.145.408-4.818.03-.666.324-2.652.302-2.839-.028-.184-.572 1.664-.894 2.737-.32 1.067-1.297 4.604-1.432 5.215-.13.608-.407 1.984-.646 3.024-.24 1.049-.434 1.926-.434 2.354 0 .437.152 1.881.152 1.881s.273.164.566.482c.298.325.536.775.536.775s.298.027.375.113c.08.078.028.375.028.375s.164.032.564.033c.4 0 .375.212.375.371 0 .157-.542 1.285-.736 1.685-.184.4-.02.617-.151.643.185-.025.719.198.719.198s.614.073.86.211c.242.127.32.451.019.719-.291.262-1.094 1.094-1.39 1.557-.3.447-.567.747-.567.747s.056.192.537.294c.482.11 1.205.241 1.205.241s-.107.302-.4.373c-.302.083-1.345-.298-1.522-.315-.191-.03-.57.417-.57.417l.506.11c.51.111 1.13.433 1 .565-.761.807-3.735 2.642-3.971 2.944-.247.293-.734.91-1.244 1.311-.504.4-.806.695-.806.695s.373.453.484.718c.107.273.129 2.019 0 2.28-.135.273-.838.854-.938.983-.115.136-.273.673-.571 1.103-.298.429-1.37 1.819-1.526 1.819-.162 0-.397-.553-.46-.773a.554.554 0 0 0-.265-.321s-.03.317-.107.584c-.086.267-.435.62-1.317 1.713-.88 1.099-1.54 1.904-1.54 1.904s-.183.506-.341.447c-.163-.047-.642-1.287-.986-2.521-.344-1.223-.96-3.209-.96-3.209s-.217-.241-.292-.432c-.08-.184-.3-.778-.372-.805-.081-.03 0 .402.026.805.022.4-.106.802-.268.91-.164.101-.4-.111-.4.294-.002.399-.541 2.304-.95 4.577-.41 2.278-.711 4.366-.711 4.366s-.152.217-.451.509c-.285.281-.665.506-.904.579-.123-.081-.271-.217-.44-.499-.474-.804-.666-.91-.83-1.106-.163-.192-.072-.372-.072-.372s-.328.104-.376-.003a2.773 2.773 0 0 1-.136-.451c-.027-.023-.234-.414-.531-1.019-.358-.704-.564-1.258-.638-1.658-.085-.405-.057-.834-.135-.807-.085.028-.054.21-.191.448-.13.241-.193.324-.193.939 0 .62-.077.671-.104.907-.028.24-.081.331-.113.64-.028.329-.047.468-.072.705-.03.235-.193.234-.328.057-.135-.194-.933-2.761-1.733-4.804-.801-2.032-1.173-3.135-1.252-3.479-.085-.355-.293-.089-.372-.331-.086-.236-.13-.19-.246-.456-.105-.266-.076-.618-.375-1.824-.286-1.205-.551-2.385-.632-2.92-.078-.532-.047-1.15-.134-1.466-.074-.33-.046-1.077-.133-.357-.075.73-.053 3.673-.056 4.854 0 1.183-.194 2.943-.202 6.328-.006 3.366-.038 4.113-.038 4.652 0 .538-.021.645.188 1.045.209.404.432.668.563 1.553.128.897.07.861.263 1.669.177.805.45 1.475.507 1.554.049.076-.166.164-.35-.164-.188-.317-.321-.54-.324.027 0 .566-.193.327-.06.774.137.459.518 1.019.62 1.415.108.41.134.869-.324 1.213-.453.354-.565.323-.565.323s0 .297.13.643c.134.345.118.477.295 1.013.19.541.22.648.265 1.024.063.375.165.529.299.691.129.164.694 1.242 1.008 1.774.328.538.67.914.773 1.123.119.22.756.895.965.939.216.063.216.376.375.512.165.134.372.623.506.76.136.135.46.236.46.42 0 .188-.06.164-.374.161-.324 0-.458.164-.104.236.345.094.503.094 1.179.245.667.163 2.265.866 3.77 1.17 1.5.286 3.323.912 4.84 1.202 1.534.303 2.547.735 3.486.874.94.132 1.899.406 2.683.372.776-.025 1.358.166 1.149-.07-.22-.248-1.393-1.001-2.542-1.674-1.15-.672-1.898-.907-2.162-1.017-.271-.107-.703-.807-1.053-1.151-.288-.301-.681-.762-.782-.826.046.002.152-.164.388-.112.264.044 1.633.431 2.244.542.625.101.965.318.965.318s1.269.132 2.252.226c.996.072 2.326.075 2.594.019.27-.042.165-.177.403-.269.245-.072-.044-.072-.933-.343-.882-.273-.78-.346-.67-.372.116-.035-.183-.082-.586-.274-.402-.191-1.712-.993-1.875-1.107-.167-.102-.587-.102-.587-.102s-.695-1.232-.853-1.389c-.167-.166.265-.226.265-.226s.475.271 2.547.202c2.062-.083 2.49-.104 2.945-.129a83.952 83.952 0 0 1 1.933-.104c.18 0 .403-.247-.191-.247-.581 0-.854-.241-1.074-.294-.212-.057-.375.164-.583 0-.221-.159-.86-.668-1.07-.778-.213-.112-.242-.349-.372-.325-.134.029-.193-.207.046-.298.247-.073.896-.608 1.206-.687.33-.086.804.217.776.137-.022-.084.273-.192.73-.192.447.003.964.146 1.285.089.323-.046.505.089 1.013.091.512 0 .759-.19.832-.223.078-.023-.16-.247-.13-.563.028-.327-.102-.966-.102-1.042 0-.091-.296-.034-.195-.134.108-.12.438-.358.895-.565.448-.221.93-.49.93-.49s-.206-.929-.013-1.058c.18-.137.375-.491.418-.595.057-.107-.043-.133.328-.189.375-.054.668.085.849.114.19.019.496-.131 1.104-.131.214.003.359.008.474.014l.038.058c.695.057 1.175.208 1.606.268.428.061 1.389.108 1.549.165.163.05 1.023-.162 1.023-.162s-.428-.592-.484-.968c-.045-.372-.263-1.387-.263-1.387s-.91 0-.537-.212c.374-.215 1.236-.754 1.665-.963.425-.22.479-.22.857-.263.372-.063.803-.538 1.13-.489.313.057.375.163 1.062.43.697.271.753.375 1.45.44.695.054.645.208 1.229.369.597.164.907.438.907.438s.166-.376.222-.54c.052-.164-.22-.804-.756-1.613-.528-.805-1.644-2.897-1.644-2.897s2.026-.69 3.474-.848c.328-.048.167-.795.167-1.553v-.915s.378-.312 1.345-.577c.968-.264 2.73-.91 3.488-1.125.748-.209 1.179-.164 1.388-.262.216-.109.537-.273 1.287-.373.756-.106 1.88-.324 1.878-.104 0 .209-.268.482-.855.638-.594.163-.92.535-1.667 1.014-.748.488-1.078.593-1.078.8 0 .218.374.434.643 1.238.265.809.647 1.821.645 2.362 0 .536.102 1.606-.056 2.032-.167.427-.217 1.286-.377 2.142-.168.861-.168 1.342-.22 1.878-.06.53-.16 1.384-.383 2.297-.217.917-.652 2.736-.864 3.374-.211.646-.375 1.505-.538 1.717-.17.208-.211.743-.324 1.39-.111.638-.696 2.246-1.031 3.054-.313.802-1.016 2.2-1.555 3.052-.538.858-1.554 1.98-2.302 2.678-.76.688-.867 1.012-.867 1.012s-.537.477-1.613 1.175c-1.07.7-2.52 1.545-3.54 2.084-1.012.531-2.728 1.333-3.103 1.39-.374.05-.641.371-1.075.643-.43.268-2.082.473-4.338 1.107-2.252.652-4.774 1.286-5.31 1.328-.54.063-1.012.063-1.987.224-.964.158-2.455.529-3.8.577-1.34.051-3.373.317-4.284.15-.92-.161-2.1-.271-2.471-.315-.375-.063-1.494-.223-2.73-.708-1.237-.482-3.694-1.128-5.347-1.618-1.668-.482-3.921-.919-4.99-1.131-1.075-.219-2.297-.44-1.338-.167.964.255 2.198.529 2.57.633m91.064-48.015c.243 0 .609 0 1.37.09.763.072 1.119.236 1.447.281.319.037 0 .482-.206.526-.194.026-.4-.17-.924-.286-.974-.229-1.926-.611-1.687-.611m-4.652.355c.474.158 2.047.814 2.488.96.434.166 1.043.252 1.043.252s.715.318 1.282.483c.566.164.76.198.566.442-.208.248-.73.125-1.286-.125-1.354-.578-2.897-1.365-3.541-1.571-.644-.196-1.044-.599-.552-.441m37.66 71.549c-.721.441-1.523.83-1.668.83 0 0-.286.234.04-.159.308-.408 0-.56.308-.929.328-.35-.391.369-1.07.803-.697.454-1.31.701-1.604.701-.326 0-1.818.187-2.307.325-.483.109-1.852.434-2.38.521-.52.06-1.078.156-1.468-.087-.41-.243.889-.518 2.084-1.047 1.197-.517 1.934-.805 2.84-1.216.947-.393 1.81-.435 2.468-.52.637-.072 1.52.17 2.218 0 .669-.156 1.313-.199 1.568-.018.23.145-.288.334-1.03.796m54.369-69.864c.193 0 .504 0 .889.209.36.221-.656.135-1.047.063-.414-.083-.273-.272.158-.272m-.603 22.591c-.258.101-.172-.093-.603.266a3.289 3.289 0 0 1-1.132.583c-.313.108-.802.192-1.415.345-.61.162-1.554.593-2.11.833-.555.236-1.024.432-1.453.673-.421.236.067-.346.429-.857.384-.513.889-1.157 1.188-1.534l.15-.164.054-.611s.359-.027.475-.072c.157-.062.157-.09.63-.09.477 0 1.018-.046 1.252.028.242.083.488.107 1.046.062.573-.062 1.52.021 1.879.128.356.109-.146.291-.39.41m-1.637-7.159c1.034.027 1.104-.137 1.606.138.503.265-.228.444-.92.444-.687 0-.784.056-1.201.221-.441.165-.833.273-.588.482.229.213.588.832.328.832-.272 0-.844-.029-1.106-.219-.271-.182-.444-.153-.955-.376-.473-.208-.42-.208-.895-.288-.475-.085-.112-.62.108-.725.22-.106.924-.501 1.837-.347.325.049.739-.188 1.786-.162m-4.001-15.377c.478.053 2.624.025 2.205.081-.44.053-.53.136-1.58.168-1.046.015-.83.207-1.876.207-1.048-.001.56-.535 1.25-.456m-2.383 2.226c.302-.135 1.254-.195 1.708-.293 0 0 .375-.217.499-.243.09-.031 1.607-.087 1.94 0 .356.078.142.178-.075.243-.224.046-.554.372-.782.876-.214.508-.247.91-.394.995-.157.079.146.29.263.344.122.062.029.302-.444.241-.48-.047-1.493.061-1.667 0-.184-.047-.543-.16-1.074-.241-.533-.074-.892-.772-.777-1.07.112-.298.503-.715.803-.852m1.017-18.021c.192.281.108.766.108.766s-.87-.627-1.135-.91c-.264-.275.992.095 1.027.144m-9.386 1.061c.262-.018.684.061.558.072-.137.009-.245.237-.245.237s-.313.084-.74 0c-.4-.091-.02-.274.427-.309m-2.436 54.715c.562-.48 1.035-.596 2.21-1.356 1.16-.772 1.108-.852 1.352-1.298.244-.434.613-.597.743-1.164.104-.563.394-.376 1.608-.478.918-.085.473.045 1.002 0 .519-.043.907.045 1.71.045.806 0 .806 0 .243.239-.57.236-.63.318-1.192.761-.571.446-.571.237-1.172.279-.591.04-.68.246-1.093.566-.39.32-.76.555-1.193.761-.431.197-.758.558-1.607.811-.856.238-1.416.354-1.373.597.04.237-.043.924-.15.966-.136.031-.975 0-1.52-.042-.571-.048-.141-.193.432-.687m-6.943-72.335c.685.101 1.346.074 1.403.208.056.136-.03.376-.3.359-.262-.029-.532.151-1.064.444-.542.298-.622.73-1.204.492-.593-.247-1.245-.673-1.393-1.029-.158-.34-.298-.402-.298-.402l-.088-.311c.17-.161 2.294.131 2.944.239m-4.565-.511c.185-.054.812.139.987.302.188.151.118.374.09.529-.004.154-.837-.266-1.341-.457-.513-.19-.197-.245.264-.374m-13.42 86.55c.459-.196.978-.481 1.539-.839a38.15 38.15 0 0 1 1.088-.682s.792 0 .792.115c0 .547 1.055.08-.072.567-1.13.479-1.854.839-2.551 1.207-.664.364-.664.316-1.235.272-.561-.033-.001-.433.439-.64m-1.325-40.287l-.278.447s-.832-.015-.804-.527c.025-.659 1.082.08 1.082.08M92.02 46.456c-.163.195-.6.316-1.57-.042-.967-.36-.6-.237 1.164-.566l.968.042c0-.001-.401.361-.562.566m37.706-5.35c.632 0 .907.687.907.687s-2.084-.245-2.76-.36c-.696-.121.106-.327 1.853-.327m-11.883-18.985c.72-.762 1.342-.883 1.342-.883s.422-.164.984-.164c.558 0 1.004-.282 1.85-.403.845-.121-.761.76-.761.76s-.244.042-.847.206c-.614.163-1.565.688-2.053 1-.495.327-.78.355-1.217.688-.346.28-.04-.445.702-1.204m-5.08 16.213c-.053-.164.478-.121 1.153-.047.686.09 4.386.403 6.626.772 2.265.361 4.879 1.202 4.879 1.202s1.033.125 1.65.205c.589.072.022.116-1.421.194-1.448.085-2.121-.152-3.932-.032-1.81.117-5.022.158-7.633.405-2.614.236-5.784.515-8.44 1.119-2.654.609-5.588 1.248-5.588 1.248s.969-1.369 2.77-2.294c1.814-.926 3.824-1.967 3.824-1.967s.275-.121.95-.24c.7-.119 1.417-.162 1.417-.162 1.592-.586 1.462-.453 2.126-.481.92-.043 1.66.237 1.619.078m-19.155-.447c.544-.476 1.514-1.261 1.945-1.667.446-.403.752-.62.752-.62s6.308-2.694 7.304-3.197c1.012-.496 2.885-1.37 4.013-1.866 1.154-.501 1.892-.562 2.18-.741.286-.185 1.028-.308 1.028-.308s-.054.35-.368.487c-.354.137-.51.122-.967.4-.452.277-.561.223-1.375.527-.802.293-2.972 1.621-3.903 2.188-.92.564-1.788 1.021-1.974 1.264-.176.24-.58.399-1.002.519-.423.12-.642.37-.86.643-.228.281-.868.867-1.01.947-.143.084-.481.258-.741.465-.258.197-1.087 1.09-1.511 1.43-.414.332-1.076 1.119-1.33 1.245-.237.121-1.277-.085-1.355-.126a2.51 2.51 0 0 0-.566-.152c-.303-.071-1.427-.125-1.781-.024-.145.038.976-.924 1.52-1.414m-4.576-7.911c.114-.2.359-.343.76-.767.403-.415.568-.502.947-.802.38-.297.559-.319.834-.362l.52-.242s-.073.36-.52.728c-.433.363-.997.885-.997.885s-.198.56-.525.834c-.328.288-1 .403-1 .403-.4.067-.141-.477-.02-.677m-1.39.725c.237-.361.443-.725.559-.761.163-.063.123.682.08.997-.033.325-.884.115-.638-.236M26.115 88.119c-.36.162-.475.284-.601.284-.127 0-.527.369-.962.639-.446.285-.884.655-1.133.773-.236.121-.803.552-.955.678-.164.128-.641.843-.773 1.292-.121.434-.483 1.164-.761 1.474-.28.329-.524 1.09-.56 1.581-.038.477-.365.713-.562.671-.207-.031-.084-.719-.207-1.686-.121-.96-.073-1.846-.073-1.846s.876-.685.998-.81c.124-.115 1.444-1.039 1.444-1.039l.408-.074.846-.762 1.606-1.015s.319-.118 1.004-.402c.684-.279.64.091.28.242m44.66-5.875c-.163 3.586-.163 3.723-.612 5.381-.46 1.67-.97 2.919-2.067 5.367-1.094 2.43-1.2 2.625-1.2 2.625s.449-1.695.72-2.446c.269-.745 1.578-3.964 1.874-4.951.3-.995.188-.803.372-1.953.196-1.159.346-3.49.196-3.864-.158-.369-.246-1.176-.267-2.382-.027-1.205.07-1.906.153-2.087.082-.194.4-.46.4-.46s0-.479.248-.479c0-.002.346 1.653.183 5.249m12.11 22.077c-.271.105-.422.152-.582.315-.165.166-.703.405-.811.539-.1.131-.477.505-.745.536a4.728 4.728 0 0 0-1.261.324c-.54.211-.987.211-.987.211s-1.583.08-1.697.08l.269-.378.268-.132c.159-.136.267-.293.267-.293s.432-.111.537-.156c.108-.061.432-.355.834-.645.4-.295 1.282-.916 1.954-1.398.67-.474 1.13-.911 1.638-1.282.51-.375.694-.403.694-.403l.11 2.435c-.003-.001-.223.132-.488.247m.322-6.053c-.212.264-.374.285-.61.342-.25.056-.25.166-.357.321-.104.161-.563.263-.775.381-.208.108-.405.108-.64.151-.237.057-.567.221-.838.295-.268.09-.884-.09-1.178-.026-.208.062-.102-.375.245-.419.354-.056.38-.119.696-.249.329-.133.329-.209.539-.397.208-.186.4-.186.726-.456a62.088 62.088 0 0 0 1.662-1.524c.53-.516.53-.625.694-.402.154.208.239.929.08 1.091-.165.167-.061.267.058.33.1.044-.09.292-.302.562m.138-8.096c.135 1.018-.138 1.58-.138 1.58l-.212-.195s-.082-.282-.135-.417c-.054-.13-.247.286-.247.286s-.15.087-.4 0c-.238-.079-.721.031-1.466.326-.76.298-1.261.437-1.261.437s.399-.804.457-.967c.044-.166.347-.542.775-1.187.432-.64.857-.804 1.258-1.231.403-.42.885-.942 1.13-1.016.24-.078.102.167.133.724.02.555-.032.646.106 1.66m.482-9.885c-.137.03-.513.185-.513.185s-.967 0-1.176.113c-.211.11-.563.237-.911.373-.346.137-.865.566-.865.566-.34.347.192-.494.192-.494l.375-.535s.372-.405 1.285-1.36c.91-.966 1.8-1.905 1.8-1.905s-.061 3.027-.187 3.057m1.884-31.342c.565-.085.646.434.36.679-.281.247-.878.161-1.363-.033-.484-.212-.023-.497 1.003-.646M73.094 35.6c.403-.679.762-.925.762-.925s.645-.682.598-.803c-.032-.115.687-1.246 1.253-1.65.562-.401.927-.524.64-.079-.28.443-.565.999-.565.999l-.04 1.053s-.27.48-.395.559c-.132.084-.084.524-.084.524s-.122.561-.122.683c0 .121-.446.731-1.522 1.532-1.088.793-1.371.762-1.371.762l-.121.031s-.205-.4-.164-.876c.049-.482.732-1.123 1.13-1.81m1.036 39.274c.128-.028 1.386-.236 3.475-.727 2.093-.476 2.382-.75 2.789-.929.403-.193 0-.193-.031-.534-.016-.356.254-.327.27-.566.028-.243.028-.7.085-.999.05-.283 0-.777.107-1.015.104-.24.136-.3.029-.567-.107-.264.045-.236-.107-.417-.16-.192-.16-.118-.16-.118l.53-3.742s.348-.966.51-1.423c.168-.456.836-1.368.836-1.368s.104-.24.45-.427c.347-.184.294-.542.294-.542s-.61-.042-2.782.251c-2.176.292-3.756.584-4.178.644-.432.047-.703.075-.703-.032 0-.101.61-1.819.673-1.819.052 0 .943-2.223.943-2.223l.562-1.45s1.197-1.47 1.225-1.555c.029-.079.885-1.286 1.55-1.609.674-.319.674-.48 1.479-1.363.803-.882.995-1.04 1.395-1.411.403-.387.692-.062.692-.062s-.272.24-.717.835c-.46.582-1 .907-1.18 1.205-.193.286-.37.612-.506 1.223-.14.626-.97 1.776-1.208 2.208-.236.417-.966 1.623-1.018 2.353-.058.719-.112 1.283-.187 1.523-.08.242-.407.838-.244.803.164-.028.43.136 1.422.107.988-.028 1.789-.4 3.638-.48 1.846-.086 2.445-.16 2.36.05-.083.221-.135.401-.398.486-.264.08-.25.107-.52.567-.265.454-1.551 2.641-1.86 5.139-.331 2.496-.331 7.016-.274 6.99.045-.019-.188.247-.51.267a46.8 46.8 0 0 0-2.812.383c-1.342.21-4.175.774-5.068.826-.88.057-2.221.292-2.221.292l-6.19 1.478c-.775.184.19-.237.19-.237s7.234-1.984 7.37-2.015M54.807 48.143c.404-1.291.519-1.492.519-1.492l.246-.804.678-1.045.49-1.281 1.28-2.735s.247-1.202 1.007-2.452c.764-1.242 1.685-2.94 2.294-3.816.598-.882 1.764-2.538 1.764-2.538s.128.09 0 .242c-.125.158-.278.652-.395 1.009-.131.361-.37.805-.45 1.165-.076.357-.76.925-1.528 2.296-.765 1.357-1.284 2.121-1.685 3.413-.403 1.285-.556 3.174-.76 4.499-.195 1.327.115 1.449.115 1.449l.358.123.167.116s-.198.315-.566.839c-.362.52-.794.684-.794.684l-.443.164v.284l.194.239-.152.443-.327-.279s-.325.194-.761.833c-.445.65-1.492 1.85-1.61 1.896-.002 0-.046-1.968.359-3.252m9.119 8.676c0 .193-.356.448-.596.645-.245.199-.37.805-.486.967-.121.157-.402.401-.482.64-.072.236-.33.438-.598.688-.284.237-.49.638-.49.638s-.036.197-.114.403c-.083.194-.526.284-1.37.803-.844.525-1.884 1.045-1.884 1.045s-.327.077-.61.24c-.478.194-2.044.761-2.044.761l-2.938.882s.046-.403.406-1.118c.354-.73.608-.688.608-.688s.03-.16.194-.761c.165-.608.24-.518.525-.762.28-.241.443-.608.443-.608s.596-.476 1.639-1.163c1.046-.685 1.492-1 1.492-1l.882-.241 4.097-2.218 1.375-.926.434-.523.37-.311s.639-.646.718-.769c.084-.126.846-.278.846-.278v.121s-.163.357-.684.834c-.52.493-1.003 1.017-1.003 1.017l-.28.354s-.121.199-.161.405c-.043.198-.29.713-.29.923m46.5 75.548s.244-.322 1.618-1.041c1.344-.731 2.127-1.482 3.85-2.893.892-.729-1.996.878-3.13 1.524-1.131.638-2.263.877-3.554 1.679-1.276.809-2.653 1.297-1.276 1.133 1.37-.158 2.492-.402 2.492-.402m25.667 55.804c-.446.295-.938.437-1.56.56-.606.14-.942.219-1.458.367-.527.114-.655.348-.736.676l-.033.106c-.275.746-.083.48.537.331.61-.186 1.084-.528 1.493-.734.416-.191.819-.298 1.014-.411.186-.149.55-.335.917-.564.368-.233.976-.585 1.262-.85.302-.263.392-.415 0-.193-.401.224-.962.423-1.436.712m-60.937-22.467c-.38.07-.47.161-.77.266-.291.144-.64.296-1.017.45-.377.146-1.174.535-1.498.749-.334.227-.862.435-1.323.693-.47.257-.953.229-1.116.284-.15.054-.552.308-.811.416-.257.081-.72.359-.995.444-.282.085-.406.255-.644.651-.333.56-.491.666-.57.792-.066.115.234.007.392-.132.173-.146.819-.216 1.314-.502.508-.271 2.043-.854 2.747-1.213.693-.384 1.265-.571 1.265-.571s.118-.36.597-.641c.495-.28 1.292-.689 1.747-1.014.466-.325 1.296-.692 1.653-.931.344-.229.594-.332.995-.626.412-.295.618-.438.288-.287-.336.162-.968.643-1.478.822-.503.164-.401.284-.776.35m3.223-4.235c.265-.148.478-.452.203-.289-.27.125-1.078.492-1.52.813-.436.298-1.378.68-2.083 1.052-.687.355-1.322.67-1.94 1.025-.616.33-1.003.563-1.65.842-.651.271-.785.371-.944.604l-.086.029c-.386.501-.297.519-.008.421.293-.094.692-.253.918-.405.239-.146.577-.17.708-.259.139-.073.276-.126.547-.294.274-.156.667-.314 1.109-.571.44-.245 1.06-.58 1.377-.717.319-.131.618-.417.932-.506.324-.087.35-.147.68-.412.32-.263.575-.589.957-.784.365-.187.534-.409.8-.549m49.999-14.967c-.23.114-.675.272-.587.3.083.028.232-.076 1.046-.327.355-.091-.058 0 .205-.093.27-.11-.417.027-.664.12m-7 2.596c.176-.174 1.232-.446 1.704-.604.448-.17.745-.231 1.279-.457.53-.217 1.15-.458 1.49-.527.358-.078 1.077-.349 1.163-.377.08-.031-.271-.029-.748.145-.492.211-.982.245-1.58.497-.624.247-1.186.279-2.057.517-.838.203-1.223.361-1.396.391-.205.027-.416.143-.331.202 0 0 .126.068 0 .329-.135.273.332.083.476-.116" fill="#dc241f"/></svg>