<svg xmlns="http://www.w3.org/2000/svg" width="11.033" height="11.981" viewBox="102 1952 11.033 11.981"><g fill="#000" fill-rule="nonzero" transform="translate(68.03 1947.47)"><path d="M35.775 14.809a6.018 6.018 0 0 1-1.806-4.295c0-1.614.65-3.16 1.806-4.295a6.366 6.366 0 0 1 4.523-1.686 6.22 6.22 0 0 1 2.911.624 4.695 4.695 0 0 1 1.793 1.515L42.624 8.86a2.465 2.465 0 0 0-2.173-1.067 2.578 2.578 0 0 0-1.954.761 2.54 2.54 0 0 0-.729 1.954 2.662 2.662 0 0 0 .761 1.997 2.64 2.64 0 0 0 1.903.742l-.162 3.263a6.346 6.346 0 0 1-4.495-1.7z"/><ellipse cx="40.665" cy="10.554" rx="1.646" ry="1.634"/></g></svg>