<svg xmlns="http://www.w3.org/2000/svg" viewBox="0 0 65.215 65.218" width="65.215" height="65.218"><title>Atlassian-horizontal-blue-rgb</title><g transform="translate(.015 -.082)"><linearGradient id="a" gradientUnits="userSpaceOnUse" x1="28.138" y1="32.979" x2="11.256" y2="3.738" gradientTransform="matrix(1 0 0 -1 0 68)"><stop offset="0" stop-color="#0052cc"></stop><stop offset=".923" stop-color="#2684ff"></stop></linearGradient><path d="M19.4 30.1c-.6-.8-1.8-1-2.6-.3-.2.2-.4.4-.6.7l-16 32c-.5.9-.1 2.1.9 2.6.3.1.6.2.9.2h22.3c.7 0 1.4-.4 1.7-1.1 4.7-10 1.8-25.1-6.6-34.1z" fill="url(#a)"></path><path d="M31.1 1c-8.1 12.5-9 28.3-2.5 41.7l10.7 21.5c.3.6 1 1.1 1.7 1.1h22.3c1.1 0 1.9-.9 1.9-1.9 0-.3-.1-.6-.2-.9 0 0-30-59.9-30.7-61.4-.4-.9-1.5-1.3-2.4-.8-.3.1-.6.4-.8.7z" fill="#2684ff"></path></g></svg>