<svg xmlns="http://www.w3.org/2000/svg" viewBox="0 0 175.414 167.08" width="175.414" height="167.08"><g transform="matrix(.2176 0 0 -.2176 -407.561 106.541)"><defs transform="matrix(39.04 0 0 39.04 -23017.474 -1680.523)"><path id="a" d="M196.4-37.1h1000v165.8h-1000z"></path></defs><defs transform="matrix(39.04 0 0 39.04 -23017.474 -1680.523)"><path id="b" d="M196.4-37.1h1000v165.8h-1000z"></path></defs><linearGradient id="c" gradientUnits="userSpaceOnUse" x1="511.324" y1="10734.314" x2="1057.027" y2="10625.584" gradientTransform="matrix(.1741 0 0 -.1741 1848.546 1708.412)"><stop offset="0" stop-color="#2b7a77"></stop><stop offset=".51" stop-color="#4ebaa9"></stop><stop offset="1" stop-color="#5cc2b1"></stop></linearGradient><path d="M2024.9-275.9c-21.7 0-33 8.2-43.8 27.2l-99 183.5c-6.8 13.1-6.9 17.5-6.9 27l155.5-6.9 35.6-35.6h312l-259.1-160.5c-12.6-7.4-60.6-34.7-94.3-34.7z" fill="url(#c)"></path><linearGradient id="d" gradientUnits="userSpaceOnUse" x1="1861.853" y1="7376.624" x2="1591.053" y2="8012.593" gradientTransform="matrix(.1741 0 0 -.1741 1848.546 1708.412)"><stop offset="0" stop-color="#236736"></stop><stop offset=".493" stop-color="#6ba443"></stop><stop offset="1" stop-color="#86c146"></stop></linearGradient><path d="M2066.4-80.7h-134.5c-40.6 0-56.7 21.3-56.7 42.5 0 13.4 4.3 20.7 10.3 35.6l196.1 468.1 2.1 4.1 2.7 4.2 5.6 5.5 8.3 4.4 12 2.6 20.6-.5 136.3-50.6-46.1-145.3z" fill="url(#d)"></path><linearGradient id="e" gradientUnits="userSpaceOnUse" x1="2135.243" y1="7096.355" x2="2533.237" y2="8044.154" gradientTransform="matrix(.1741 0 0 -.1741 1848.546 1708.412)"><stop offset="0" stop-color="#29a5e3"></stop><stop offset=".515" stop-color="#356eb9"></stop><stop offset="1" stop-color="#394da5"></stop></linearGradient><path d="M2461.5-275.9L2152 456.8c-5.3 12.5-13.9 28.6-36 28.6-19.8 0-29.2-9.6-34.5-19.9 2.7 7.4 11.1 21.8 35.2 21.8h213.6c19.7 0 29.1-11.6 33.4-22.2l313-741z" fill="url(#e)"></path></g></svg>