<?xml version="1.0" encoding="utf-8"?>
<!-- Generator: Adobe Illustrator 14.0.0, SVG Export Plug-In . SVG Version: 6.00 Build 43363)  -->
<!DOCTYPE svg PUBLIC "-//W3C//DTD SVG 1.1//EN" "http://www.w3.org/Graphics/SVG/1.1/DTD/svg11.dtd">
<svg version="1.1"
	 id="svg2" xmlns:dc="http://purl.org/dc/elements/1.1/" xmlns:rdf="http://www.w3.org/1999/02/22-rdf-syntax-ns#" xmlns:cc="http://creativecommons.org/ns#" xmlns:svg="http://www.w3.org/2000/svg"
	 xmlns="http://www.w3.org/2000/svg" xmlns:xlink="http://www.w3.org/1999/xlink" x="0px" y="0px" width="580px" height="217.5px"
	 viewBox="0 0 580 217.5" enable-background="new 0 0 580 217.5" xml:space="preserve">
<g id="g10" transform="matrix(1.25,0,0,-1.25,0,217.5)">
	<g id="g12" transform="scale(0.1,0.1)">
		<path id="path14" fill="#F68D11" d="M1289.672,1140L1020,1230v390l270-80L1289.672,1140"/>
		<path id="path16" fill="#F68D11" d="M1360,1540l270,80l-0.938-389.73L1360,1140V1540"/>
		<path id="path18" fill="#F68D11" d="M1575,1662.23L1323.359,1740L1075,1662.23l248.719-66.672L1575,1662.23"/>
		<path id="path20" fill="#F68D11" d="M1969.672,1140L1700,1230v390l270-80L1969.672,1140"/>
		<path id="path22" fill="#F68D11" d="M2040,1540l270,80l-0.938-389.73L2040,1140V1540"/>
		<path id="path24" fill="#F68D11" d="M2255,1662.23L2003.359,1740L1755,1662.23l248.719-66.672L2255,1662.23"/>
		<path id="path26" fill="#F68D11" d="M270,970L0,1050V660l269.672-90L270,970"/>
		<path id="path28" fill="#F68D11" d="M340,970l270,80l-0.938-389.734L340,570V970"/>
		<path id="path30" fill="#F68D11" d="M555,1092.23L303.359,1170L55,1092.23l248.723-66.672L555,1092.23"/>
		<path id="path32" fill="#F68D11" d="M949.672,570L680,660v390l270-80L949.672,570"/>
		<path id="path34" fill="#F68D11" d="M1020,970l270,80l-0.938-389.734L1020,570V970"/>
		<path id="path36" fill="#F68D11" d="M1235,1092.23L983.359,1170L735,1092.23l248.727-66.672L1235,1092.23"/>
		<path id="path38" fill="#F68D11" d="M609.672,0L340,90v390l270-80L609.672,0"/>
		<path id="path40" fill="#F68D11" d="M680,400l270,80l-0.938-389.734L680,0V400"/>
		<path id="path42" fill="#F68D11" d="M895,522.234L643.359,600L395,522.234l248.723-66.672L895,522.234"/>
	</g>
</g>
</svg>
