<svg xmlns="http://www.w3.org/2000/svg" width="288.75" height="217.5" viewBox="0 0 288.75 217.5"><g fill="#f68d11"><path d="M161.209 75L127.5 63.75V15l33.75 10-.041 50M170 25l33.75-10-.117 48.716L170 75V25M196.875 9.721L165.42 0l-31.045 9.721 31.09 8.334 31.41-8.334M246.209 75L212.5 63.75V15l33.75 10-.041 50M255 25l33.75-10-.117 48.716L255 75V25M281.875 9.721L250.42 0l-31.045 9.721 31.09 8.334 31.41-8.334M33.75 96.25L0 86.25V135l33.709 11.25.041-50M42.5 96.25l33.75-10-.117 48.717L42.5 146.25v-50M69.375 80.971L37.92 71.25 6.875 80.971l31.09 8.334 31.41-8.334M118.709 146.25L85 135V86.25l33.75 10-.041 50M127.5 96.25l33.75-10-.117 48.717L127.5 146.25v-50M154.375 80.971L122.92 71.25l-31.045 9.721 31.09 8.334 31.41-8.334M76.209 217.5L42.5 206.25V157.5l33.75 10-.041 50M85 167.5l33.75-10-.117 48.717L85 217.5v-50M111.875 152.22L80.42 142.5l-31.045 9.72 31.09 8.335 31.41-8.334"></path></g></svg>