<svg xmlns="http://www.w3.org/2000/svg" width="13.992" height="22.986"><g fill="#d30035"><path d="M4.308 0S7.73 2.992 7.265 5.644c-.207 1.18-1.774 3.13-.93 4.98.914 1.997 1.387 5.844-2.723 4.848-4.054-.98-3.738-5.945-.726-8.565C5.94 4.25 4.91 1.327 4.308 0"></path><path d="M7.433 8.972c-.227 2.02 2.007 4.032.234 6.766-1.23 1.894.656 4.555 3.078 4.07 2.656-.531 3.313-2.21 3.242-4.16-.093-2.476-1.078-3.164-3.27-5.023-2.37-2.012-.538-5.809-.538-5.809S7.687 6.75 7.433 8.972"></path><path d="M.218 14.882c.75.922 2.2 2.008 4.976 2.07.84.016.184 1.583 1.864 2.993 1.453 1.223 3.41 1.25 4.457.855.61-.226 1.183-.445.742.122-1.973 2.527-5.399 2.367-7.844 1.453C1.507 21.289.776 19.152.3 17.82c-.512-1.445-.25-3.145-.082-2.938"></path></g></svg>