<?xml version="1.0" encoding="UTF-8"?>
<svg xmlns="http://www.w3.org/2000/svg" xmlns:xlink="http://www.w3.org/1999/xlink" viewBox="0 0 48 48" version="1.1" width="96px" height="96px">
<g id="surface1">
<path style=" fill:#0288D1;" d="M 38.070313 21.628906 C 38.070313 21.628906 41.359375 21.792969 41.359375 19.859375 C 41.359375 17.332031 36.980469 15.054688 36.980469 15.054688 C 36.980469 15.054688 37.667969 13.597656 38.09375 12.785156 C 38.523438 11.972656 39.726563 8.796875 39.835938 8.070313 C 39.972656 7.160156 39.765625 6.875 39.765625 6.875 C 39.46875 8.828125 36.289063 14.449219 36.035156 14.640625 C 32.933594 13.1875 28.675781 12.78125 28.675781 12.78125 C 28.675781 12.78125 24.503906 4 20.582031 4 C 16.691406 4 16.710938 11.519531 16.710938 11.519531 C 16.710938 11.519531 15.613281 9.386719 14.234375 9.386719 C 12.21875 9.386719 11.554688 12.4375 11.554688 15.746094 C 7.574219 15.746094 4.222656 16.636719 3.925781 16.722656 C 3.625 16.808594 2.683594 17.492188 3.109375 17.40625 C 3.980469 17.128906 8.074219 16.496094 11.65625 16.804688 C 11.851563 19.949219 13.6875 24.042969 13.6875 24.042969 C 13.6875 24.042969 9.753906 29.746094 9.753906 33.816406 C 9.753906 34.890625 10.152344 37 12.980469 37 C 15.347656 37 18.070313 35.425781 18.570313 35.136719 C 18.132813 35.761719 17.808594 36.945313 17.808594 37.492188 C 17.808594 37.746094 17.910156 38.269531 18.328125 38.671875 C 18.996094 38.007813 19.652344 37.347656 20.464844 36.539063 C 19.589844 36.378906 19.472656 35.730469 19.472656 35.5625 C 19.472656 34.976563 19.929688 34.28125 19.929688 34.28125 C 19.929688 34.28125 22.058594 32.84375 22.191406 32.691406 L 23.761719 35.621094 C 23.761719 35.621094 22.152344 36.574219 20.890625 36.574219 C 20.730469 36.574219 20.589844 36.5625 20.464844 36.539063 C 19.652344 37.347656 18.996094 38.007813 18.328125 38.671875 C 18.640625 38.972656 19.125 39.203125 19.898438 39.203125 C 22.242188 39.203125 24.863281 37.40625 24.863281 37.40625 C 24.863281 37.40625 27.335938 41.515625 29.445313 43.398438 C 30.015625 43.90625 30.5625 44 30.5625 44 C 30.5625 44 28.460938 41.976563 25.695313 36.769531 C 28.265625 35.179688 30.941406 31.433594 30.941406 31.433594 C 30.941406 31.433594 31.257813 31.441406 33.699219 31.441406 C 37.523438 31.441406 42.957031 30.636719 42.957031 27.597656 C 42.957031 24.460938 38.070313 21.628906 38.070313 21.628906 Z M 38.5 19.738281 C 38.5 20.847656 37.441406 20.835938 37.441406 20.835938 L 36.640625 20.886719 L 34.195313 19.710938 C 34.195313 19.710938 35.625 17.507813 35.960938 16.890625 C 36.214844 17.039063 38.5 18.46875 38.5 19.738281 Z M 15.371094 11.863281 C 15.941406 11.863281 16.503906 12.558594 16.734375 13.148438 C 16.734375 13.535156 16.9375 15.808594 16.9375 15.808594 L 13.636719 15.6875 C 13.636719 12.707031 14.800781 11.863281 15.371094 11.863281 Z M 15.03125 32.539063 C 13.226563 32.539063 12.855469 31.535156 12.855469 30.628906 C 12.855469 28.578125 14.488281 25.714844 14.488281 25.714844 C 14.488281 25.714844 16.320313 29.570313 19.519531 31.195313 C 17.933594 32.128906 16.621094 32.539063 15.03125 32.539063 Z M 24.832031 34.976563 C 24.0625 33.628906 23.496094 32.222656 23.496094 32.222656 C 23.496094 32.222656 26.65625 32.429688 28.355469 30.671875 C 27.296875 31.148438 25.609375 31.75 23.644531 31.566406 L 32.171875 22.621094 C 31.996094 22.410156 31.070313 21.761719 30.84375 21.652344 C 29.621094 23.125 24.867188 28.210938 20.464844 30.726563 C 14.890625 27.6875 13.71875 18.738281 13.601563 16.882813 L 16.644531 17.175781 C 16.644531 17.175781 15.5 19.203125 15.5 20.695313 C 15.5 22.1875 15.679688 22.269531 15.679688 22.269531 C 15.679688 22.269531 15.640625 19.664063 17.246094 17.65625 C 18.472656 24.171875 19.746094 27.511719 20.742188 29.503906 C 21.25 29.292969 22.195313 28.875 22.195313 28.875 C 22.195313 28.875 19.382813 20.765625 19.539063 15.277344 C 20.425781 14.804688 21.613281 14.324219 22.964844 14.074219 C 22.933594 13.722656 22.859375 13.371094 22.707031 13.023438 C 21.683594 13.261719 20.585938 13.640625 19.558594 14.246094 C 19.648438 11.1875 20.675781 8.421875 22.496094 8.421875 C 24.292969 8.421875 26.859375 12.664063 26.859375 12.664063 C 26.859375 12.664063 24.964844 12.496094 22.707031 13.019531 C 22.859375 13.371094 22.933594 13.722656 22.964844 14.074219 C 23.558594 13.964844 24.183594 13.894531 24.832031 13.894531 C 30.441406 13.894531 34.949219 16.308594 34.949219 16.308594 L 33.1875 18.773438 C 33.1875 18.773438 31.613281 15.925781 29.394531 15.417969 C 30.566406 16.289063 31.875 17.445313 32.558594 19.105469 C 27.910156 17.285156 22.300781 16.328125 20.5 16.117188 C 20.34375 16.78125 20.363281 17.730469 20.363281 17.730469 C 20.363281 17.730469 27.886719 19.117188 33.359375 22.25 C 33.324219 29.105469 25.863281 34.363281 24.832031 34.976563 Z M 31.957031 29.855469 C 31.957031 29.855469 34.296875 26.789063 34.257813 22.730469 C 34.257813 22.730469 38.027344 25.066406 38.027344 27.347656 C 38.03125 29.894531 31.957031 29.855469 31.957031 29.855469 Z "/>
<path style=" fill:#01579B;" d="M 17.808594 37.492188 C 17.808594 36.949219 18.132813 35.761719 18.566406 35.136719 C 19.304688 34.765625 19.929688 34.28125 19.929688 34.28125 C 19.929688 34.28125 19.46875 34.976563 19.46875 35.5625 C 19.46875 35.730469 19.585938 36.378906 20.460938 36.539063 C 20.585938 36.5625 20.726563 36.574219 20.886719 36.574219 C 22.152344 36.574219 23.757813 35.621094 23.757813 35.621094 C 18.59375 40.25 17.808594 37.558594 17.808594 37.492188 Z M 18.644531 29.398438 L 18.582031 29.425781 L 18.507813 29.472656 C 18.214844 29.644531 17.941406 29.785156 17.671875 29.910156 C 18.226563 30.402344 18.839844 30.851563 19.519531 31.195313 C 19.8125 31.054688 20.257813 30.835938 20.464844 30.730469 C 19.796875 30.363281 19.191406 29.910156 18.644531 29.398438 Z M 13.402344 32.042969 C 12.984375 31.667969 12.855469 31.136719 12.855469 30.628906 C 12.855469 28.578125 14.488281 25.714844 14.488281 25.714844 L 13.6875 24.046875 C 13.6875 24.046875 9.640625 30.132813 13.390625 32.070313 C 13.398438 32.046875 13.394531 32.066406 13.402344 32.042969 Z M 37.964844 27.785156 C 37.308594 29.890625 31.957031 29.855469 31.957031 29.855469 L 30.941406 31.433594 C 30.941406 31.433594 31.242188 31.441406 33.3125 31.445313 C 33.3125 31.445313 37.554688 31.097656 37.964844 27.785156 Z M 33.230469 24.445313 C 33.230469 24.445313 33.574219 24.667969 34.03125 25.019531 C 34.175781 24.304688 34.265625 23.539063 34.257813 22.730469 C 34.058594 22.609375 33.550781 22.339844 33.363281 22.253906 C 33.359375 22.980469 33.257813 23.683594 33.101563 24.371094 C 33.152344 24.402344 33.199219 24.429688 33.230469 24.445313 Z M 38.5 19.738281 C 38.5 20.847656 37.441406 20.835938 37.441406 20.835938 L 36.640625 20.886719 L 38.070313 21.625 C 42.6875 21.4375 39.136719 17.84375 35.960938 16.890625 C 36.214844 17.039063 38.5 18.46875 38.5 19.738281 Z M 21.933594 8.523438 C 22.113281 8.464844 22.296875 8.425781 22.496094 8.425781 C 24.292969 8.425781 26.859375 12.667969 26.859375 12.667969 L 28.675781 12.78125 C 28.675781 12.78125 28.257813 11.90625 27.566406 10.710938 C 26.617188 9.171875 23.691406 7.640625 21.933594 8.523438 Z M 15.1875 10.1875 C 13.40625 10 13.460938 15.125 13.636719 15.6875 C 13.636719 12.710938 14.800781 11.863281 15.371094 11.863281 C 15.941406 11.863281 16.503906 12.558594 16.734375 13.148438 C 16.707031 12.269531 16.710938 11.519531 16.710938 11.519531 C 16.710938 11.519531 16 10.34375 15.1875 10.1875 Z M 21.558594 14.328125 C 21.566406 13.980469 21.601563 13.652344 21.640625 13.328125 C 20.941406 13.554688 20.234375 13.847656 19.558594 14.246094 C 19.539063 14.664063 19.5625 14.855469 19.539063 15.28125 C 20.097656 14.980469 20.789063 14.6875 21.554688 14.441406 C 21.554688 14.40625 21.554688 14.371094 21.558594 14.328125 Z M 24.8125 34.976563 C 24.042969 33.628906 23.472656 32.222656 23.472656 32.222656 C 23.472656 32.222656 26.636719 32.429688 28.335938 30.671875 C 27.273438 31.148438 25.589844 31.75 23.621094 31.566406 C 23.207031 32 22.707031 32.332031 22.167969 32.691406 L 23.738281 35.621094 C 23.738281 35.621094 24.933594 34.902344 24.8125 34.976563 Z M 25.671875 36.769531 C 25.914063 36.621094 24.839844 37.40625 24.839844 37.40625 C 24.839844 37.40625 27.308594 41.515625 29.421875 43.398438 C 29.992188 43.90625 30.535156 44 30.535156 44 C 30.535156 44 28.4375 41.976563 25.671875 36.769531 Z M 39.765625 6.871094 C 39.46875 8.824219 36.289063 14.449219 36.039063 14.640625 C 35.726563 14.496094 36.984375 15.050781 36.984375 15.050781 C 36.984375 15.050781 37.667969 13.597656 38.097656 12.78125 C 38.523438 11.96875 39.730469 8.796875 39.835938 8.070313 C 39.972656 7.160156 39.765625 6.871094 39.765625 6.871094 Z M 34.953125 16.3125 L 33.1875 18.777344 C 33.1875 18.777344 31.613281 15.929688 29.394531 15.421875 C 30.289063 16.089844 31.261719 16.921875 31.976563 18.015625 C 31.976563 18.011719 31.976563 18.003906 31.976563 18 C 31.976563 18.003906 31.976563 18.011719 31.976563 18.015625 C 32.199219 18.355469 32.398438 18.714844 32.558594 19.109375 C 33.476563 19.457031 34.273438 19.742188 34.195313 19.710938 C 34.195313 19.710938 35.625 17.507813 35.960938 16.890625 C 36.054688 16.945313 34.953125 16.3125 34.953125 16.3125 Z M 16.9375 15.8125 L 13.636719 15.6875 C 13.582031 16.019531 13.601563 16.542969 13.601563 16.882813 L 16.644531 17.175781 C 16.644531 17.175781 15.503906 19.203125 15.503906 20.699219 C 15.503906 22.191406 15.679688 22.269531 15.679688 22.269531 C 15.679688 22.269531 15.648438 19.957031 16.988281 18.007813 C 16.984375 18.003906 16.980469 18.003906 16.980469 18 C 16.984375 18.003906 16.988281 18.007813 16.988281 18.007813 C 17.070313 17.890625 17.15625 17.773438 17.25 17.65625 C 17.039063 16.480469 16.9375 15.8125 16.9375 15.8125 Z M 11.554688 15.746094 C 7.574219 15.746094 4.222656 16.636719 3.921875 16.722656 C 3.621094 16.808594 2.679688 17.492188 3.109375 17.40625 C 3.980469 17.128906 8.074219 16.496094 11.65625 16.808594 C 11.582031 16.144531 11.554688 15.746094 11.554688 15.746094 Z "/>
</g>
</svg>
