<svg xmlns="http://www.w3.org/2000/svg" viewBox="0 0 48 48" width="96" height="96"><path d="M38.07 21.629s3.29.164 3.29-1.77c0-2.527-4.38-4.804-4.38-4.804s.688-1.457 1.114-2.27c.43-.812 1.633-3.988 1.742-4.715.137-.91-.07-1.195-.07-1.195-.297 1.953-3.477 7.574-3.73 7.766-3.102-1.454-7.36-1.86-7.36-1.86S24.504 4 20.582 4c-3.89 0-3.871 7.52-3.871 7.52s-1.098-2.133-2.477-2.133c-2.015 0-2.68 3.05-2.68 6.36-3.98 0-7.331.89-7.628.976-.301.086-1.242.77-.817.683.871-.277 4.965-.91 8.547-.601.196 3.144 2.031 7.238 2.031 7.238s-3.933 5.703-3.933 9.773c0 1.075.398 3.184 3.226 3.184 2.368 0 5.09-1.574 5.59-1.863-.437.625-.761 1.808-.761 2.355 0 .254.101.778.52 1.18.667-.664 1.323-1.324 2.136-2.133-.875-.16-.992-.809-.992-.977 0-.585.457-1.28.457-1.28s2.129-1.438 2.261-1.59l1.57 2.93s-1.609.952-2.87.952c-.16 0-.301-.011-.426-.035-.813.809-1.469 1.469-2.137 2.133.313.3.797.531 1.57.531 2.344 0 4.965-1.797 4.965-1.797s2.473 4.11 4.582 5.992c.57.508 1.117.602 1.117.602s-2.101-2.023-4.867-7.23c2.57-1.59 5.246-5.336 5.246-5.336s.317.007 2.758.007c3.824 0 9.258-.804 9.258-3.843 0-3.137-4.887-5.97-4.887-5.97zm.43-1.89c0 1.109-1.059 1.097-1.059 1.097l-.8.05-2.446-1.175s1.43-2.203 1.766-2.82c.254.148 2.539 1.578 2.539 2.847zm-23.129-7.876c.57 0 1.133.696 1.363 1.285 0 .387.203 2.66.203 2.66l-3.3-.12c0-2.981 1.164-3.825 1.734-3.825zm-.34 20.676c-1.804 0-2.176-1.004-2.176-1.91 0-2.05 1.633-4.914 1.633-4.914s1.832 3.855 5.032 5.48c-1.586.934-2.899 1.344-4.489 1.344zm9.801 2.438c-.77-1.348-1.336-2.754-1.336-2.754s3.16.207 4.86-1.551c-1.06.476-2.747 1.078-4.711.894l8.527-8.945c-.176-.21-1.102-.86-1.328-.969-1.223 1.473-5.977 6.559-10.38 9.075-5.573-3.04-6.745-11.989-6.862-13.844l3.043.293s-1.145 2.027-1.145 3.52c0 1.491.18 1.574.18 1.574s-.04-2.606 1.566-4.614c1.227 6.516 2.5 9.856 3.496 11.848.508-.211 1.453-.629 1.453-.629s-2.812-8.11-2.656-13.598a12.07 12.07 0 0 1 3.426-1.203 3.313 3.313 0 0 0-.258-1.05c-1.023.238-2.121.617-3.148 1.222.09-3.059 1.117-5.824 2.937-5.824 1.797 0 4.363 4.242 4.363 4.242s-1.894-.168-4.152.356c.152.351.227.703.258 1.054.594-.11 1.219-.18 1.867-.18 5.61 0 10.117 2.415 10.117 2.415l-1.761 2.464s-1.575-2.847-3.793-3.355c1.171.871 2.48 2.027 3.164 3.687-4.649-1.82-10.258-2.777-12.059-2.988-.156.664-.137 1.613-.137 1.613s7.524 1.387 12.996 4.52c-.035 6.855-7.496 12.113-8.527 12.727zm7.125-5.122s2.34-3.066 2.3-7.125c0 0 3.77 2.336 3.77 4.618.004 2.547-6.07 2.507-6.07 2.507z" fill="#0288d1"></path><path d="M17.809 37.492c0-.543.324-1.73.757-2.355.739-.371 1.364-.856 1.364-.856s-.461.696-.461 1.282c0 .167.117.816.992.976.125.023.266.035.426.035 1.265 0 2.87-.953 2.87-.953-5.163 4.629-5.948 1.938-5.948 1.871zm.836-8.094l-.063.028-.074.047a9.672 9.672 0 0 1-.836.437 8.774 8.774 0 0 0 1.848 1.285c.293-.14.738-.36.945-.465a9.049 9.049 0 0 1-1.82-1.332zm-5.243 2.645c-.418-.375-.547-.906-.547-1.414 0-2.05 1.633-4.914 1.633-4.914l-.8-1.668s-4.047 6.086-.297 8.023c.007-.023.004-.004.011-.027zm24.563-4.258c-.656 2.106-6.008 2.07-6.008 2.07l-1.016 1.579s.301.007 2.372.011c0 0 4.242-.347 4.652-3.66zm-4.735-3.34s.344.223.801.575c.145-.715.235-1.48.227-2.29-.2-.12-.707-.39-.895-.476a9.754 9.754 0 0 1-.261 2.117c.05.031.097.059.128.074zm5.27-4.707c0 1.11-1.059 1.098-1.059 1.098l-.8.05 1.43.739c4.617-.188 1.066-3.781-2.11-4.734.254.148 2.539 1.578 2.539 2.847zM21.934 8.523a1.79 1.79 0 0 1 .562-.097c1.797 0 4.363 4.242 4.363 4.242l1.817.113s-.418-.875-1.11-2.07c-.949-1.54-3.875-3.07-5.632-2.188zm-6.747 1.665c-1.78-.188-1.726 4.937-1.55 5.5 0-2.977 1.164-3.825 1.734-3.825.57 0 1.133.696 1.363 1.285-.027-.878-.023-1.628-.023-1.628s-.711-1.176-1.523-1.332zm6.372 4.14c.007-.348.043-.676.082-1-.7.227-1.407.52-2.082.918-.02.418.003.61-.02 1.035.559-.3 1.25-.594 2.016-.84 0-.035 0-.07.004-.113zm3.253 20.649c-.769-1.348-1.34-2.754-1.34-2.754s3.165.207 4.864-1.551c-1.063.476-2.746 1.078-4.715.894-.414.434-.914.766-1.453 1.125l1.57 2.93s1.196-.719 1.075-.644zm.86 1.793c.242-.149-.832.636-.832.636s2.469 4.11 4.582 5.992c.57.508 1.113.602 1.113.602s-2.098-2.023-4.863-7.23zM39.766 6.87c-.297 1.953-3.477 7.578-3.727 7.77-.312-.145.945.41.945.41s.684-1.453 1.114-2.27c.425-.812 1.632-3.984 1.738-4.71.137-.91-.07-1.2-.07-1.2zm-4.813 9.441l-1.766 2.465s-1.574-2.847-3.792-3.355c.894.668 1.867 1.5 2.582 2.594V18v.016c.222.34.421.699.582 1.093.918.348 1.714.633 1.636.602 0 0 1.43-2.203 1.766-2.82l-1.008-.578zm-18.016-.5l-3.3-.124c-.055.332-.035.855-.035 1.195l3.043.293s-1.141 2.027-1.141 3.523c0 1.492.176 1.57.176 1.57s-.032-2.312 1.308-4.261c-.004-.004-.008-.004-.008-.008l.008.008c.082-.117.168-.235.262-.352-.21-1.176-.313-1.843-.313-1.843zm-5.382-.066c-3.98 0-7.332.89-7.633.977-.3.086-1.242.77-.813.683.871-.277 4.965-.91 8.547-.597a27.687 27.687 0 0 1-.101-1.063z" fill="#01579b"></path></svg>