<svg xmlns="http://www.w3.org/2000/svg" width="126.613" height="126.611" viewBox="0 0 126.613 126.611"><path fill="#f3ba2f" d="M87.907 53.216l14.307-14.307L63.306 0 24.41 38.896l14.307 14.307 24.588-24.587zM14.308 48.997l14.306 14.307L14.307 77.61 0 63.304zM87.906 73.396l14.315 14.299-.007.008-38.908 38.908L24.41 87.716l-.02-.02 14.328-14.288 24.588 24.587zM126.613 63.31l-14.307 14.308L97.999 63.31l14.307-14.308z"></path><path fill="#f3ba2f" d="M63.306 48.78l-10.73 10.729-1.232 1.233-2.543 2.543-.02.02.02.021 14.505 14.505 14.518-14.518.007-.008-.013-.007h.006z"></path></svg>