<svg xmlns="http://www.w3.org/2000/svg" viewBox="0 0 62.431 56.1" width="62.431" height="56.1"><title>Bitbucket-blue</title><g transform="translate(0 -6.3)"><path fill="none" d="M40.9 25.1H21.2l3.5 18.4h13.1z"></path><path d="M2 6.3c-1.1 0-2 .9-2 2v.3l8.5 51.5c.2 1.3 1.3 2.3 2.7 2.3h40.7c1 0 1.8-.7 2-1.7l8.5-52.1c.2-1.1-.6-2.1-1.7-2.3h-.3zm35.8 37.2h-13l-3.5-18.4H41z" fill="#2684ff"></path><linearGradient id="a" gradientUnits="userSpaceOnUse" x1="64.018" y1="35.72" x2="32.998" y2="11.51" gradientTransform="matrix(1 0 0 -1 0 66)"><stop offset=".18" stop-color="#0052cc"></stop><stop offset="1" stop-color="#2684ff"></stop></linearGradient><path d="M59.7 25.1H40.9l-3.2 18.4h-13L9.4 61.7c.5.4 1.1.7 1.8.7h40.7c1 0 1.8-.7 2-1.7z" fill="url(#a)"></path></g></svg>