<svg xmlns="http://www.w3.org/2000/svg" viewBox="0 0 102.561 122.782" width="102.561" height="122.782"><title>资源 1</title><g data-name="图层 2"><g data-name="图层 1"><path d="M51.514.008h43.48c5.79 0 7.49 1.61 7.51 7.39.06 19.48.09 39 0 58.46-.06 10.59-4 19.84-10.66 27.93-10.22 12.49-23.33 21.21-37.65 28.29a6.4 6.4 0 0 1-6.18-.19c-13.38-6.65-25.67-14.82-35.62-26.13-8.26-9.36-12.54-20.18-12.39-32.83.22-18.15 0-36.31.07-54.47 0-7.12 1.36-8.44 8.47-8.44q21.48-.03 42.97-.01z" fill="#333"></path><path d="M51.334 60.758c0-13.33.18-26.67-.1-40-.1-4.53 1.44-5.69 5.73-5.54 8.66.3 17.33.17 26 .05 2.94-.05 4.17.83 4.14 4-.12 16.16 0 32.32-.12 48.49 0 6.48-3.19 11.83-7.15 16.68-6.75 8.24-15.28 14.29-24.32 19.75-3.24 2-4.24 1.36-4.21-2.41.1-13.69.03-27.36.03-41.02z" fill="#fefefe"></path></g></g></svg>