<svg xmlns="http://www.w3.org/2000/svg" viewBox="0 0 180.17 180.17"><defs><style>.cls-1{fill:#fefefe;}.cls-2{fill:#333;}</style></defs><title>资源 1</title><g id="图层_2" data-name="图层 2"><g id="图层_1-2" data-name="图层 1"><path class="cls-1" d="M180.08,90.58c0,28.67-.05,57.34.09,86,0,3-.6,3.59-3.59,3.59q-86.49-.18-173,0c-3,0-3.59-.6-3.58-3.59q.17-86.49,0-173C0,.6.6,0,3.58,0q86.51.17,173,0c3,0,3.6.6,3.59,3.58C180,32.58,180.08,61.58,180.08,90.58Z"/><path class="cls-2" d="M90.8,29.08q21.74,0,43.48,0c5.79,0,7.49,1.61,7.51,7.39.06,19.48.09,39,0,58.46-.06,10.59-4,19.84-10.66,27.93-10.22,12.49-23.33,21.21-37.65,28.29a6.4,6.4,0,0,1-6.18-.19c-13.38-6.65-25.67-14.82-35.62-26.13C43.42,115.47,39.14,104.65,39.29,92c.22-18.15,0-36.31.07-54.47,0-7.12,1.36-8.44,8.47-8.44Q69.31,29.06,90.8,29.08Z"/><path class="cls-1" d="M90.62,89.83c0-13.33.18-26.67-.1-40-.1-4.53,1.44-5.69,5.73-5.54,8.66.3,17.33.17,26,.05,2.94-.05,4.17.83,4.14,4-.12,16.16,0,32.32-.12,48.49,0,6.48-3.19,11.83-7.15,16.68-6.75,8.24-15.28,14.29-24.32,19.75-3.24,2-4.24,1.36-4.21-2.41C90.69,117.16,90.62,103.49,90.62,89.83Z"/></g></g></svg>