<svg width="178" height="200" xmlns="http://www.w3.org/2000/svg" xmlns:xlink="http://www.w3.org/1999/xlink"><defs><path d="M80.926 2.111a15.76 15.76 0 0 1 15.759 0l72.953 42.118a15.759 15.759 0 0 1 7.88 13.647v84.236c0 5.63-3.005 10.832-7.88 13.647l-72.953 42.118a15.759 15.759 0 0 1-15.76 0L7.974 155.76a15.758 15.758 0 0 1-7.88-13.647V57.876c0-5.63 3.004-10.832 7.88-13.647L80.926 2.111z" id="prefix__path-1"/></defs><g id="prefix__Landing-Pages" stroke="none" stroke-width="1" fill="none" fill-rule="evenodd"><g id="prefix__Micropage" transform="translate(-862 -160)"><g id="prefix__LOGO" transform="translate(862 160)"><g id="prefix__Group-9"><mask id="prefix__mask-2" fill="#fff"><use xlink:href="#prefix__path-1"/></mask><path d="M80.926 2.111a15.76 15.76 0 0 1 15.759 0l72.953 42.118a15.759 15.759 0 0 1 7.88 13.647v84.236c0 5.63-3.005 10.832-7.88 13.647l-72.953 42.118a15.759 15.759 0 0 1-15.76 0L7.974 155.76a15.758 15.758 0 0 1-7.88-13.647V57.876c0-5.63 3.004-10.832 7.88-13.647L80.926 2.111z" id="prefix__Fill-1" fill="#0DA7FE" mask="url(#prefix__mask-2)"/><path id="prefix__Fill-3" fill="#1A67FD" mask="url(#prefix__mask-2)" d="M.094 151.221l46.077-51.227 42.634 102.432z"/><path id="prefix__Fill-4" fill="#0DA7FE" mask="url(#prefix__mask-2)" d="M46.171 99.994L.715 48.419.094 151.221z"/><path id="prefix__Fill-5" fill="#05BBFF" mask="url(#prefix__mask-2)" d="M46.171 99.994L88.805-2.438.715 48.419z"/><path id="prefix__Fill-6" fill="#00C9FF" mask="url(#prefix__mask-2)" d="M88.805-2.438l88.712 153.648L46.171 99.994"/><path id="prefix__Fill-7" fill="#1A86FD" mask="url(#prefix__mask-2)" d="M88.805 202.6l88.712-51.379L46.171 99.994z"/><path id="prefix__Fill-8" fill="#05BBFF" mask="url(#prefix__mask-2)" d="M177.517 151.21V48.778L88.805-2.438z"/></g><path id="prefix__Fill-10" fill-opacity=".5" fill="#1A67FD" d="M107.557 91.351l11.261 11.26-5.59 5.59-5.671 5.671-31.703 31.702-11.261-11.261 31.703-31.702-31.703-31.702 11.261-11.26z"/><path id="prefix__Fill-11" fill="#D6FFFF" d="M118.818 97.557l-11.261-11.26-42.964 42.962 11.261 11.261z"/><path id="prefix__Fill-12" fill="#D6FFFF" d="M75.854 54.595l-11.261 11.26 42.964 42.963 11.261-11.261z"/></g></g></g></svg>