<svg version="1.1" id="prefix__Layer_1" xmlns="http://www.w3.org/2000/svg" x="0" y="0" viewBox="0 0 900 1295.5" xml:space="preserve"><style>.prefix__st0{fill:#ff5a60}</style><circle class="prefix__st0" cx="450" cy="845.5" r="53.7"/><path class="prefix__st0" d="M450 1295.5c-248.1 0-450-201.9-450-450V622.3c0-18.5 15-33.5 33.5-33.5h159.6l-.6-516.6-125.6 77.3v294.2c0 18.5-15 33.5-33.5 33.5S0 462.2 0 443.7v-298c0-20.7 11-40.4 28.6-51.2L167.8 8.9C186.4-2.5 209.7-3 228.7 7.6s30.8 30.7 30.8 52.5l.6 528.8h190c141.5 0 256.6 115.1 256.6 256.6s-115.1 256.6-256.6 256.6S193.5 987 193.5 845.5l-.2-189.7H66.9v189.7c0 211.2 171.8 383.1 383.1 383.1s383.1-171.8 383.1-383.1S661.2 462.4 450 462.4h-58.1c-18.5 0-33.5-15-33.5-33.5s15-33.5 33.5-33.5H450c248.1 0 450 201.9 450 450s-201.9 450.1-450 450.1zM260.1 655.8l.2 189.7c0 104.6 85.1 189.7 189.7 189.7s189.7-85.1 189.7-189.7S554.6 655.8 450 655.8H260.1z"/></svg>