<?xml version="1.0" encoding="UTF-8"?>
<svg version="1.1" id="Layer_1" width="150px" height="150px" viewBox="11 -12 150 150" overflow="visible" enable-background="new 0 0 134.182 262.502" xmlns="http://www.w3.org/2000/svg">
  <defs>
    <linearGradient id="gradient-2" gradientUnits="userSpaceOnUse" x1="77.796" y1="-0.127" x2="77.796" y2="116.113" gradientTransform="matrix(1.194842, 0, 0, 1.247421, -6.953299, -9.34158)">
      <stop offset="0" style="stop-color: rgb(145, 116, 162);"/>
      <stop offset="1" style="stop-color: rgb(144, 117, 164);"/>
    </linearGradient>
    <linearGradient id="gradient-1" gradientUnits="userSpaceOnUse" x1="77.796" y1="-0.127" x2="77.796" y2="116.113" gradientTransform="matrix(1.194842, 0, 0, 1.247421, -6.952857, -9.341914)">
      <stop offset="0" style="stop-color: rgb(145, 116, 162);"/>
      <stop offset="1" style="stop-color: rgb(144, 117, 164);"/>
    </linearGradient>
  </defs>
  <path fill="#E3DCE7" d="M123.927,245.755c0.13-5.801-12.592-12.438-50.29-10.18c-10.825,0.648-24.546-2.088-35.179-0.28 c-10.514,1.788-22.936,3.198-32.066,7.562c-18.45,8.818,7.941,18.436,17.6,19.278c12.942,1.126,27.462-0.456,40.017-3.14 c15.059-3.216,30.372-2.954,45.585-5.488C114.015,252.769,123.811,250.97,123.927,245.755z"/>
  <path fill="#BDA7C8" d="M123.213,245.271c0.119-4.88-13.268-10.791-46.643-8.865c-9.583,0.553-20.282-1.494-29.696,0.035 c-9.308,1.51-20.306,2.705-28.392,6.383c-16.341,7.434,7.015,15.506,15.565,16.208c11.457,0.938,24.313-0.403,35.429-2.671 c13.334-2.717,26.891-2.506,40.36-4.649C113.751,251.086,123.104,249.657,123.213,245.271z"/>
  <g>
    <path fill="#BDA7C8" d="M65.886,241.464c0.29,3.723-7.941,7.763-17.539,7.973c-9.598,0.209-18.698-2.22-18.988-5.943 c-0.291-3.722,8.877-5.438,18.449-6.183C57.378,236.563,65.596,237.742,65.886,241.464z"/>
    <path fill="#BBA6C8" d="M65.751,241.47c0.288,3.679-7.834,7.645-17.345,7.859s-18.476-2.148-18.763-5.829 c-0.288-3.679,8.732-5.417,18.218-6.153C57.345,236.608,65.463,237.791,65.751,241.47z"/>
    <path fill="#BBA5C7" d="M65.617,241.476c0.285,3.636-7.728,7.525-17.151,7.747c-9.422,0.22-18.253-2.077-18.538-5.716 c-0.285-3.637,8.589-5.396,17.988-6.125C57.312,236.651,65.332,237.838,65.617,241.476z"/>
    <path fill="#BAA4C7" d="M65.481,241.479c0.284,3.596-7.62,7.409-16.956,7.637c-9.335,0.225-18.031-2.007-18.313-5.602 c-0.283-3.594,8.444-5.377,17.757-6.098C57.279,236.696,65.2,237.887,65.481,241.479z"/>
    <path fill="#BAA2C6" d="M65.347,241.485c0.28,3.553-7.514,7.291-16.761,7.523c-9.249,0.23-17.809-1.936-18.087-5.487 c-0.282-3.552,8.3-5.357,17.524-6.069C57.246,236.741,65.067,237.934,65.347,241.485z"/>
    <path fill="#B9A1C6" d="M65.212,241.491c0.277,3.51-7.408,7.172-16.568,7.41c-9.16,0.236-17.585-1.863-17.863-5.373 s8.157-5.336,17.296-6.039C57.214,236.785,64.936,237.982,65.212,241.491z"/>
    <path fill="#B9A0C5" d="M65.078,241.497c0.274,3.467-7.301,7.054-16.375,7.298c-9.073,0.241-17.363-1.792-17.637-5.261 c-0.276-3.465,8.013-5.315,17.064-6.01C57.18,236.829,64.804,238.03,65.078,241.497z"/>
    <path fill="#B89FC5" d="M64.943,241.503c0.272,3.424-7.194,6.936-16.179,7.184c-8.986,0.249-17.142-1.72-17.413-5.145 c-0.273-3.424,7.868-5.296,16.833-5.982C57.147,236.873,64.671,238.078,64.943,241.503z"/>
    <path fill="#B79EC5" d="M64.808,241.509c0.269,3.381-7.087,6.816-15.985,7.071c-8.899,0.254-16.919-1.649-17.188-5.031 c-0.27-3.382,7.724-5.276,16.604-5.953C57.114,236.917,64.539,238.127,64.808,241.509z"/>
    <path fill="#B79DC4" d="M64.674,241.514c0.267,3.339-6.98,6.699-15.791,6.96c-8.811,0.26-16.696-1.578-16.962-4.917 c-0.268-3.339,7.579-5.257,16.371-5.925C57.082,236.962,64.407,238.175,64.674,241.514z"/>
    <path fill="#B69BC4" d="M64.539,241.52c0.264,3.295-6.874,6.581-15.597,6.847c-8.724,0.266-16.474-1.506-16.737-4.803 c-0.265-3.297,7.436-5.236,16.141-5.896C57.049,237.007,64.275,238.223,64.539,241.52z"/>
    <path fill="#B59AC3" d="M64.404,241.524c0.262,3.254-6.767,6.463-15.402,6.734c-8.637,0.271-16.252-1.435-16.513-4.688 s7.292-5.216,15.91-5.868C57.016,237.051,64.144,238.271,64.404,241.524z"/>
    <path fill="#B499C3" d="M64.27,241.53c0.259,3.211-6.66,6.345-15.209,6.621c-8.549,0.277-16.028-1.363-16.286-4.574 c-0.259-3.211,7.147-5.195,15.678-5.839C56.983,237.095,64.01,238.319,64.27,241.53z"/>
    <path fill="#B398C3" d="M64.134,241.536c0.257,3.168-6.553,6.227-15.014,6.509c-8.461,0.282-15.807-1.292-16.062-4.462 c-0.256-3.167,7.004-5.175,15.449-5.811C56.949,237.138,63.879,238.366,64.134,241.536z"/>
    <path fill="#B397C1" d="M64,241.541c0.253,3.126-6.447,6.108-14.821,6.397c-8.374,0.287-15.583-1.221-15.836-4.348 c-0.253-3.126,6.859-5.154,15.217-5.781C56.917,237.183,63.747,238.415,64,241.541z"/>
    <path fill="#B296C1" d="M63.866,241.547c0.25,3.083-6.339,5.991-14.627,6.285c-8.287,0.293-15.362-1.15-15.611-4.233 c-0.251-3.083,6.714-5.137,14.987-5.754C56.883,237.226,63.615,238.464,63.866,241.547z"/>
    <path fill="#B294C0" d="M63.731,241.552c0.248,3.041-6.232,5.873-14.432,6.172c-8.199,0.299-15.139-1.078-15.388-4.118 c-0.248-3.041,6.572-5.116,14.757-5.725C56.852,237.271,63.483,238.511,63.731,241.552z"/>
    <path fill="#B193C0" d="M63.596,241.558c0.246,2.998-6.126,5.755-14.237,6.06c-8.112,0.304-14.917-1.007-15.163-4.005 c-0.247-2.999,6.427-5.096,14.525-5.697C56.818,237.314,63.35,238.558,63.596,241.558z"/>
    <path fill="#B192BF" d="M63.46,241.562c0.244,2.956-6.018,5.638-14.042,5.948s-14.694-0.936-14.937-3.892 c-0.244-2.956,6.283-5.075,14.293-5.669C56.785,237.359,63.219,238.606,63.46,241.562z"/>
    <path fill="#B092BF" d="M63.327,241.568c0.241,2.912-5.912,5.519-13.849,5.835c-7.938,0.316-14.472-0.864-14.712-3.777 c-0.241-2.914,6.139-5.055,14.063-5.639C56.752,237.403,63.086,238.655,63.327,241.568z"/>
    <path fill="#AE91BF" d="M63.191,241.573c0.237,2.871-5.805,5.401-13.654,5.723c-7.85,0.321-14.25-0.793-14.487-3.664 c-0.238-2.869,5.996-5.034,13.833-5.61C56.719,237.447,62.954,238.702,63.191,241.573z"/>
    <path fill="#AE90BE" d="M63.057,241.579c0.235,2.828-5.699,5.283-13.46,5.609c-7.763,0.328-14.027-0.721-14.263-3.549 s5.851-5.014,13.602-5.582C56.687,237.491,62.823,238.751,63.057,241.579z"/>
    <path fill="#AD8FBE" d="M62.922,241.585c0.233,2.785-5.592,5.164-13.267,5.496c-7.675,0.334-13.804-0.648-14.036-3.434 c-0.233-2.785,5.706-4.995,13.371-5.555C56.654,237.536,62.689,238.8,62.922,241.585z"/>
    <path fill="#AD8EBC" d="M62.787,241.59c0.23,2.743-5.484,5.047-13.072,5.386c-7.588,0.337-13.583-0.578-13.812-3.322 c-0.23-2.742,5.562-4.975,13.142-5.525C56.621,237.579,62.558,238.847,62.787,241.59z"/>
    <path fill="#AC8DBC" d="M62.653,241.596c0.228,2.7-5.378,4.929-12.877,5.272c-7.5,0.343-13.361-0.506-13.587-3.207 c-0.228-2.699,5.418-4.955,12.909-5.497C56.588,237.624,62.425,238.896,62.653,241.596z"/>
    <path fill="#AC8CBB" d="M62.519,241.601c0.224,2.658-5.271,4.811-12.684,5.16c-7.413,0.349-13.137-0.435-13.362-3.093 c-0.224-2.657,5.275-4.935,12.68-5.468C56.555,237.668,62.293,238.942,62.519,241.601z"/>
    <path fill="#AB8ABB" d="M62.383,241.606c0.222,2.615-5.164,4.692-12.49,5.047c-7.326,0.355-12.914-0.363-13.136-2.979 c-0.223-2.615,5.13-4.914,12.448-5.439C56.521,237.712,62.162,238.991,62.383,241.606z"/>
    <path fill="#AA89BB" d="M62.249,241.612c0.219,2.572-5.057,4.574-12.295,4.935c-7.239,0.36-12.693-0.292-12.911-2.866 c-0.22-2.571,4.985-4.894,12.216-5.41C56.488,237.757,62.029,239.04,62.249,241.612z"/>
    <path fill="#AA88BA" d="M62.113,241.617c0.218,2.53-4.95,4.456-12.101,4.823c-7.15,0.365-12.47-0.221-12.686-2.752 c-0.218-2.529,4.842-4.873,11.987-5.381C56.456,237.8,61.897,239.087,62.113,241.617z"/>
    <path fill="#A987BA" d="M61.979,241.622c0.215,2.488-4.844,4.34-11.907,4.711c-7.063,0.371-12.246-0.149-12.46-2.637 c-0.215-2.488,4.697-4.854,11.755-5.354C56.423,237.845,61.765,239.136,61.979,241.622z"/>
    <path fill="#A886B9" d="M61.845,241.628c0.211,2.445-4.738,4.221-11.713,4.598c-6.976,0.377-12.025-0.078-12.236-2.523 c-0.213-2.443,4.553-4.833,11.524-5.324C56.39,237.889,61.633,239.183,61.845,241.628z"/>
    <path fill="#A785B9" d="M61.71,241.634c0.208,2.402-4.63,4.102-11.518,4.484c-6.889,0.383-11.803-0.006-12.012-2.408 c-0.209-2.402,4.41-4.814,11.295-5.296C56.357,237.934,61.501,239.231,61.71,241.634z"/>
    <path fill="#A684B9" d="M61.575,241.64c0.207,2.359-4.523,3.984-11.325,4.372c-6.8,0.389-11.579,0.065-11.785-2.295 c-0.206-2.36,4.266-4.794,11.063-5.267C56.324,237.977,61.368,239.28,61.575,241.64z"/>
    <path fill="#A683B8" d="M61.439,241.646c0.205,2.316-4.416,3.865-11.129,4.26c-6.713,0.394-11.356,0.136-11.56-2.182 c-0.205-2.316,4.122-4.773,10.832-5.238C56.291,238.021,61.237,239.327,61.439,241.646z"/>
    <path fill="#A581B8" d="M61.306,241.651c0.202,2.273-4.31,3.747-10.936,4.146c-6.626,0.4-11.135,0.207-11.336-2.068 c-0.201-2.273,3.978-4.752,10.602-5.209C56.259,238.065,61.104,239.376,61.306,241.651z"/>
    <path fill="#A580B7" d="M61.171,241.656c0.198,2.231-4.204,3.63-10.743,4.034c-6.538,0.406-10.912,0.279-11.109-1.953 c-0.199-2.23,3.833-4.732,10.37-5.181C56.225,238.11,60.972,239.423,61.171,241.656z"/>
    <path fill="#A480B7" d="M61.036,241.661c0.196,2.189-4.096,3.512-10.548,3.923s-10.688,0.351-10.885-1.839 c-0.196-2.189,3.688-4.714,10.14-5.152C56.193,238.153,60.841,239.472,61.036,241.661z"/>
    <path fill="#A47FB6" d="M60.901,241.667c0.193,2.146-3.989,3.394-10.353,3.811c-6.364,0.416-10.467,0.422-10.661-1.727 c-0.193-2.145,3.545-4.691,9.909-5.123C56.159,238.198,60.708,239.521,60.901,241.667z"/>
    <path fill="#A37EB5" d="M60.767,241.673c0.19,2.104-3.884,3.275-10.16,3.697s-10.245,0.494-10.434-1.611 c-0.191-2.104,3.4-4.674,9.677-5.096C56.127,238.242,60.577,239.567,60.767,241.673z"/>
  </g>
  <g>
    <path fill="#BDA7C8" d="M84.669,243.372c-0.294,3.39,7.937,7.057,17.537,7.235c9.603,0.177,18.71-2.048,19.007-5.437 c0.296-3.389-8.798-6.768-18.373-7.435C93.266,237.069,84.965,239.983,84.669,243.372z"/>
    <path fill="#BBA6C8" d="M84.822,243.359c-0.29,3.354,7.822,6.97,17.336,7.156c9.516,0.182,18.483-2.018,18.776-5.372 c0.294-3.354-8.644-6.689-18.131-7.35S85.117,240.006,84.822,243.359z"/>
    <path fill="#BBA5C7" d="M84.979,243.347c-0.289,3.318,7.706,6.885,17.133,7.075c9.428,0.189,18.256-1.987,18.547-5.306 c0.291-3.316-8.488-6.61-17.891-7.264C93.367,237.2,85.268,240.028,84.979,243.347z"/>
    <path fill="#BAA4C7" d="M85.133,243.334c-0.287,3.282,7.592,6.799,16.931,6.995c9.341,0.195,18.031-1.957,18.317-5.24 c0.289-3.282-8.336-6.531-17.65-7.178C93.418,237.266,85.42,240.052,85.133,243.334z"/>
    <path fill="#BAA2C6" d="M85.288,243.321c-0.284,3.246,7.476,6.713,16.728,6.916c9.253,0.201,17.805-1.927,18.09-5.175 c0.285-3.247-8.184-6.454-17.41-7.091C93.468,237.33,85.572,240.073,85.288,243.321z"/>
    <path fill="#B9A1C6" d="M85.441,243.308c-0.279,3.211,7.363,6.628,16.527,6.838c9.164,0.207,17.577-1.898,17.859-5.109 c0.283-3.213-8.029-6.375-17.17-7.007C93.519,237.396,85.724,240.097,85.441,243.308z"/>
    <path fill="#B9A0C5" d="M85.598,243.294c-0.279,3.176,7.247,6.544,16.323,6.759c9.077,0.214,17.351-1.868,17.63-5.045 c0.28-3.175-7.875-6.296-16.93-6.921C93.569,237.462,85.875,240.118,85.598,243.294z"/>
    <path fill="#B89FC5" d="M85.752,243.282c-0.275,3.141,7.133,6.457,16.121,6.678c8.991,0.22,17.125-1.837,17.4-4.979 c0.277-3.141-7.72-6.217-16.688-6.836C93.62,237.526,86.027,240.142,85.752,243.282z"/>
    <path fill="#B79EC5" d="M85.906,243.269c-0.273,3.105,7.019,6.373,15.92,6.6c8.902,0.225,16.898-1.809,17.172-4.914 c0.273-3.104-7.568-6.138-16.449-6.75C93.67,237.592,86.18,240.163,85.906,243.269z"/>
    <path fill="#B79DC4" d="M86.062,243.255c-0.271,3.07,6.903,6.287,15.718,6.521c8.814,0.23,16.671-1.779,16.941-4.85 c0.271-3.069-7.414-6.059-16.208-6.663C93.721,237.657,86.332,240.187,86.062,243.255z"/>
    <path fill="#B69BC4" d="M86.215,243.242c-0.266,3.034,6.791,6.202,15.518,6.44s16.443-1.748,16.712-4.781 c0.269-3.035-7.261-5.98-15.968-6.58C93.771,237.724,86.483,240.208,86.215,243.242z"/>
    <path fill="#B59AC3" d="M86.371,243.231c-0.266,2.996,6.675,6.113,15.312,6.359c8.641,0.244,16.219-1.717,16.484-4.718 c0.266-2.997-7.107-5.901-15.727-6.493C93.822,237.789,86.636,240.232,86.371,243.231z"/>
    <path fill="#B499C3" d="M86.525,243.216c-0.262,2.964,6.56,6.03,15.111,6.283c8.553,0.249,15.991-1.689,16.254-4.652 s-6.952-5.822-15.486-6.408C93.871,237.854,86.787,240.254,86.525,243.216z"/>
    <path fill="#B398C3" d="M86.679,243.204c-0.258,2.927,6.446,5.943,14.911,6.201c8.464,0.256,15.764-1.658,16.023-4.587 c0.261-2.925-6.799-5.742-15.245-6.321C93.922,237.919,86.938,240.276,86.679,243.204z"/>
    <path fill="#B397C1" d="M86.834,243.191c-0.256,2.892,6.332,5.858,14.707,6.121c8.379,0.263,15.539-1.628,15.797-4.521 c0.256-2.892-6.646-5.664-15.006-6.235C93.973,237.984,87.092,240.3,86.834,243.191z"/>
    <path fill="#B296C1" d="M86.988,243.179c-0.254,2.855,6.217,5.772,14.506,6.042c8.29,0.269,15.312-1.598,15.566-4.456 c0.254-2.855-6.492-5.585-14.765-6.15C94.023,238.05,87.244,240.321,86.988,243.179z"/>
    <path fill="#B294C0" d="M87.145,243.165c-0.252,2.82,6.1,5.688,14.303,5.964c8.201,0.274,15.085-1.569,15.336-4.392 c0.252-2.82-6.336-5.506-14.523-6.064C94.074,238.116,87.395,240.344,87.145,243.165z"/>
    <path fill="#B193C0" d="M87.298,243.151c-0.247,2.785,5.987,5.602,14.101,5.885c8.115,0.28,14.859-1.539,15.107-4.326 c0.25-2.783-6.184-5.428-14.283-5.979C94.125,238.181,87.547,240.366,87.298,243.151z"/>
    <path fill="#B192BF" d="M87.453,243.139c-0.245,2.749,5.872,5.517,13.898,5.804c8.027,0.287,14.633-1.508,14.879-4.26 c0.246-2.748-6.031-5.348-14.045-5.893C94.176,238.246,87.699,240.389,87.453,243.139z"/>
    <path fill="#B092BF" d="M87.607,243.126c-0.242,2.715,5.758,5.431,13.697,5.725c7.939,0.293,14.406-1.479,14.648-4.193 c0.243-2.714-5.876-5.271-13.803-5.809C94.227,238.312,87.85,240.412,87.607,243.126z"/>
    <path fill="#AE91BF" d="M87.762,243.112c-0.239,2.68,5.644,5.347,13.494,5.646c7.854,0.299,14.181-1.449,14.42-4.129 c0.24-2.679-5.723-5.191-13.561-5.723C94.277,238.378,88.002,240.435,87.762,243.112z"/>
    <path fill="#AE90BE" d="M87.918,243.1c-0.238,2.644,5.527,5.261,13.291,5.566c7.765,0.306,13.953-1.419,14.191-4.063 c0.236-2.643-5.57-5.112-13.322-5.637C94.328,238.442,88.154,240.458,87.918,243.1z"/>
    <path fill="#AD8FBE" d="M88.071,243.087c-0.233,2.607,5.413,5.175,13.091,5.486c7.676,0.312,13.727-1.389,13.961-3.997 s-5.416-5.034-13.081-5.552C94.378,238.508,88.306,240.478,88.071,243.087z"/>
    <path fill="#AD8EBC" d="M88.227,243.074c-0.232,2.571,5.299,5.088,12.889,5.407c7.588,0.316,13.499-1.359,13.73-3.934 c0.232-2.571-5.262-4.953-12.84-5.464C94.429,238.573,88.457,240.503,88.227,243.074z"/>
    <path fill="#AC8DBC" d="M88.381,243.062c-0.229,2.537,5.185,5.004,12.686,5.328c7.502,0.322,13.273-1.33,13.503-3.867 s-5.108-4.877-12.601-5.381C94.479,238.64,88.609,240.524,88.381,243.062z"/>
    <path fill="#AC8CBB" d="M88.535,243.048c-0.226,2.502,5.07,4.918,12.484,5.248s13.047-1.299,13.271-3.803 c0.228-2.5-4.953-4.796-12.357-5.293C94.53,238.704,88.762,240.548,88.535,243.048z"/>
    <path fill="#AB8ABB" d="M88.689,243.036c-0.223,2.465,4.956,4.832,12.283,5.168c7.326,0.336,12.82-1.27,13.043-3.736 c0.224-2.466-4.8-4.718-12.119-5.209C94.58,238.769,88.914,240.569,88.689,243.036z"/>
    <path fill="#AA89BB" d="M88.844,243.022c-0.219,2.43,4.842,4.746,12.08,5.09c7.24,0.341,12.595-1.24,12.814-3.671 c0.221-2.431-4.646-4.64-11.879-5.124C94.629,238.834,89.065,240.593,88.844,243.022z"/>
    <path fill="#AA88BA" d="M88.999,243.009c-0.218,2.395,4.726,4.662,11.878,5.01s12.367-1.209,12.586-3.604 c0.217-2.396-4.493-4.562-11.639-5.038C94.68,238.899,89.218,240.615,88.999,243.009z"/>
    <path fill="#A987BA" d="M89.154,242.996c-0.215,2.358,4.611,4.576,11.676,4.93c7.063,0.354,12.141-1.179,12.354-3.539 c0.216-2.358-4.339-4.481-11.396-4.952C94.73,238.966,89.369,240.637,89.154,242.996z"/>
    <path fill="#A886B9" d="M89.308,242.983c-0.211,2.322,4.498,4.49,11.476,4.851c6.977,0.36,11.914-1.15,12.125-3.475 c0.213-2.323-4.186-4.403-11.157-4.866C94.781,239.031,89.521,240.659,89.308,242.983z"/>
    <path fill="#A785B9" d="M89.463,242.97c-0.209,2.287,4.383,4.404,11.271,4.772c6.891,0.366,11.688-1.12,11.896-3.409 c0.211-2.288-4.031-4.324-10.916-4.781C94.832,239.097,89.674,240.682,89.463,242.97z"/>
    <path fill="#A684B9" d="M89.617,242.957c-0.206,2.253,4.27,4.319,11.07,4.692c6.802,0.372,11.461-1.09,11.668-3.344 c0.206-2.252-3.879-4.245-10.676-4.695C94.883,239.161,89.826,240.704,89.617,242.957z"/>
    <path fill="#A683B8" d="M89.773,242.944c-0.205,2.217,4.152,4.232,10.867,4.613c6.713,0.377,11.232-1.062,11.438-3.279 c0.203-2.217-3.724-4.166-10.436-4.609C94.934,239.227,89.978,240.727,89.773,242.944z"/>
    <path fill="#A581B8" d="M89.927,242.931c-0.2,2.182,4.038,4.148,10.665,4.533s11.009-1.029,11.209-3.213 c0.201-2.181-3.569-4.088-10.194-4.523C94.984,239.292,90.129,240.749,89.927,242.931z"/>
    <path fill="#A580B7" d="M90.082,242.917c-0.198,2.147,3.924,4.064,10.463,4.455s10.781-1,10.98-3.147 c0.197-2.146-3.417-4.009-9.955-4.438C95.035,239.358,90.281,240.771,90.082,242.917z"/>
    <path fill="#A480B7" d="M90.236,242.905c-0.195,2.11,3.81,3.977,10.262,4.374c6.451,0.397,10.555-0.97,10.75-3.082 c0.195-2.11-3.264-3.929-9.714-4.352C95.086,239.423,90.433,240.794,90.236,242.905z"/>
    <path fill="#A47FB6" d="M90.392,242.892c-0.193,2.076,3.694,3.893,10.06,4.295c6.363,0.403,10.326-0.939,10.52-3.017 c0.193-2.074-3.109-3.851-9.473-4.267C95.137,239.488,90.584,240.817,90.392,242.892z"/>
    <path fill="#A37EB5" d="M90.547,242.879c-0.191,2.04,3.578,3.807,9.855,4.216c6.276,0.409,10.102-0.91,10.292-2.951 c0.19-2.039-2.956-3.772-9.232-4.182C95.188,239.554,90.736,240.839,90.547,242.879z"/>
  </g>
  <rect width="145" height="145" rx="10" ry="10" style="fill: url(#gradient-2); stroke: rgb(255, 255, 255); stroke-width: 5px;" y="-9.5" x="13.5"/>
  <polygon fill="#FFFFFF" points="70.546,118.833 70.524,118.84 69.635,119.081 68.575,119.828 67.908,120.77 67.593,121.634 &#xA;&#9;67.711,122.851 68.261,123.832 69.871,125.481 71.717,126.542 73.482,127.131 76.153,127.642 79.059,127.837 81.141,127.602 &#xA;&#9;84.046,127.013 86.206,126.189 87.776,125.129 88.365,124.265 88.365,123.087 87.776,121.909 86.756,121.005 85.109,122.496 &#xA;&#9;82.829,123.361 79.844,123.753 77.174,123.637 74.229,122.851 72.423,121.869 71.274,120.558 70.695,119.591 "/>
  <polygon fill="#FFFFFF" points="43.359,241.487 43.68,243.515 46.719,244.476 50.772,245.114 55.466,244.848 59.091,244.048 &#xA;&#9;62.13,242.715 63.517,241.435 64.211,240.102 64.264,237.915 63.357,239.249 61.438,240.848 58.557,242.075 55.038,242.821 &#xA;&#9;49.972,242.661 46.24,242.128 "/>
  <radialGradient id="XMLID_23_" cx="119.4951" cy="80.5933" r="19.8416" gradientUnits="userSpaceOnUse">
    <stop offset="0" style="stop-color:#FBD8A1"/>
    <stop offset="1" style="stop-color:#FBC87D"/>
  </radialGradient>
  <polygon fill="url(#XMLID_23_)" points="132.908,88.225 130.756,83.349 127.461,78.869 122.498,73.728 116.392,68.94 111.916,66.12 &#xA;&#9;111.562,64.079 110.197,61.164 108.703,58.704 105.014,53.872 101.807,51.235 98.995,50.049 97.15,50.401 95.744,51.367 &#xA;&#9;94.759,52.311 94.426,51.938 90.252,49.039 86.298,47.589 82.959,47.853 78.277,50.342 75.756,52.554 72.939,56.19 68.859,57.606 &#xA;&#9;65.718,59.919 62.048,63.712 59.061,68.369 57.261,73.465 56.733,77.946 56.776,81.065 57.611,85.195 59.325,89.192 61.873,92.707 &#xA;&#9;64.202,95.474 66.09,98.461 67.936,102.591 69.034,106.72 69.825,111.377 70.546,118.833 71.274,120.558 72.592,121.655 &#xA;&#9;75.096,122.798 78.238,123.386 81.379,123.386 83.852,122.837 85.579,122.052 86.717,121.11 87.227,118.323 88.287,114.554 &#xA;&#9;89.543,112.003 90.643,110.394 92.605,108.941 94.528,108.078 97.354,107.372 100.443,107.159 104.266,106.983 107.559,106.941 &#xA;&#9;111.914,106.353 116.781,105.371 122.119,103.723 127.066,101.053 130.976,97.758 132.646,94.551 133.262,91.213 "/>
  <path fill="#FFFFFF" d="M80.188,77.828l-2.629-1.57c-1.418-4.665-5.522-18.854,6.219-24.607c4.38,0.79,8.35,5.169,8.35,5.169 l3.014,3.653l2.078,4.906l0.533,5.812l-0.586,5.492l-3.173,1.813l-5.333,0.879l-5.064-0.56L80.188,77.828z"/>
  <path fill="#F9A565" d="M83.818,51.651c6.515-0.208,13.666,5.865,14.171,16.899l-1.374-4.476l-1.152-2.925l-1.553-2.172 l-1.783-2.156l-1.406-1.39l-2.305-1.729l-1.551-0.975l-1.197-0.446l-0.9-0.37L83.818,51.651z"/>
  <path fill="#F9A565" d="M102.717,52.361c-4.898-0.981-0.834,7.033,3.837,10.566c1.353,1.021-4.245-1.401-4.245-1.401l-4.716-6.144 c0,0-2.947-3.047-2.834-3.07c0.114-0.023,3.634-1.836,3.634-1.836S101.466,51.023,102.717,52.361z"/>
  <path fill="#F9A565" d="M73.17,56.101l-2.31,3.61c0,0,0.91-2.03-0.889-2.069C71.365,56.733,73.17,56.101,73.17,56.101z"/>
  <path fill="#F9A565" d="M102.653,61.964c0.524-0.105,0.823,0.051,1.47,0.659c0.848,1.559,1.561,4.233,1.973,6.814 C105.219,66.92,102.653,61.964,102.653,61.964z"/>
  <path fill="#F9A565" d="M63.65,94.416c12.841,11.935,2.614,32.691,22.957,26.316c-0.24,3.2-14.799,4.08-15.758-0.88 C69.802,114.439,72.131,107.854,63.65,94.416z"/>
  <path fill="#D1F1FD" d="M77.559,76.258c1.828,0.831,11.693,6.252,19.607,0.426c0,0,0.51-2.7,0.421-3.322 C90.886,81.274,77.559,76.258,77.559,76.258z"/>
  <path fill="#E1E1E1" d="M78.261,126.794c-5.545-0.323-11.691-4.159-7.948-7.764c-3.881,1.017-2.256,4.584-1.708,5.361 c0.876,1.248,6.146,3.512,8.687,3.466c6.123-0.111,10.305-2.149,10.489-2.866c0.073-0.282,0.558-1.199,0.462-1.479 C86.626,126.055,82.387,127.035,78.261,126.794z"/>
  <radialGradient id="XMLID_24_" cx="91.541" cy="137.2812" r="60.0411" gradientUnits="userSpaceOnUse">
    <stop offset="0" style="stop-color:#E59472"/>
    <stop offset="1" style="stop-color:#D05F57"/>
  </radialGradient>
  <polygon fill="url(#XMLID_24_)" points="67.609,122.532 68.45,124.091 70.89,126.091 73.488,127.05 77.488,127.81 81.648,127.611 &#xA;&#9;84.207,126.972 86.487,126.051 87.968,124.971 88.527,123.532 90.727,124.812 94.406,127.411 96.366,129.051 98.326,131.49 &#xA;&#9;99.566,133.29 101.006,136.171 102.085,139.729 102.766,143.489 103.205,146.808 103.244,148.088 102.085,148.647 98.967,149.608 &#xA;&#9;97.646,148.647 93.646,147.128 89.527,146.488 85.328,146.608 79.689,147.487 76.729,148.128 71.97,147.487 68.33,146.929 &#xA;&#9;64.371,145.769 63.571,145.128 63.731,141.729 64.691,136.01 65.05,133.61 64.97,132.57 64.331,131.89 62.971,131.971 &#xA;&#9;61.091,133.251 59.571,135.089 58.411,137.45 57.651,140.208 57.212,142.888 57.131,145.009 56.371,146.169 55.545,148.009 &#xA;&#9;55.438,149.928 56.292,151.501 57.599,152.112 58.372,152.207 59.051,153.767 60.451,155.406 62.77,156.646 65.45,156.967 &#xA;&#9;68.97,156.687 72.689,155.887 77.568,154.606 80.488,155.208 86.928,155.927 94.686,156.247 96.966,157.526 99.486,157.446 &#xA;&#9;101.564,155.847 103.285,155.287 102.645,160.047 101.006,166.446 98.166,172.565 94.926,176.844 92.006,179.443 87.367,182.284 &#xA;&#9;83.008,183.563 78.088,184.122 70.61,183.163 64.771,180.323 59.251,175.245 56.532,171.484 53.732,166.005 51.812,159.247 &#xA;&#9;51.052,154.087 51.132,149.608 51.492,144.328 52.452,139.169 54.092,134.851 55.652,131.971 57.212,129.69 58.852,127.81 &#xA;&#9;61.251,125.811 63.331,124.412 65.61,123.251 "/>
  <radialGradient id="XMLID_25_" cx="89.8076" cy="120.396" r="43.9896" gradientUnits="userSpaceOnUse">
    <stop offset="0" style="stop-color:#E59472"/>
    <stop offset="1" style="stop-color:#D05F57"/>
  </radialGradient>
  <path opacity="0.2" fill="url(#XMLID_25_)" d="M84.571,149.018l-0.179,0.112l-9.6,1.738l-13.049-3.234l0.086-8.966l-0.126-6.124 c-2.764,2.001-6.718,6.4-5.498,16.418c-0.469,0.509-1.379,1.533-1.525,2.282c-0.48,2.47,0.321,3.942,2.12,4.267 c0.304,0.057,1.102-0.066,1.396-0.103c4.28,7.407,12.781,4.873,20.081,1.261c4.428,1.002,8.831,1.472,12.983,1.519 c0.785,0.4,3.178,1.298,4.312,1.356c2.562,0.133,4.733-1.411,4.804-2.773c1.172-0.15,1.588-2.416,1.588-2.416l-0.005-3.676 L84.571,149.018z"/>
  <polygon fill="#FBC87D" points="89.167,150.354 91.774,150.452 96.926,150.017 100.989,149.146 103.244,148.088 103.021,144.575 &#xA;&#9;101.965,138.622 99.512,132.864 100.418,133.345 102.125,135.104 103.405,136.917 104.578,138.996 105.805,142.354 106.443,145.235 &#xA;&#9;106.794,148.638 106.575,151.976 106.141,153.355 104.763,154.515 102.004,155.53 97.868,156.112 92.572,156.257 85.172,155.821 &#xA;&#9;77.542,154.781 81.596,153.181 87.674,150.993 "/>
  <polygon fill="#F9A565" points="94.271,156.495 97,157.654 99.335,157.654 101.057,156.648 101.449,155.762 "/>
  <polygon fill="#FBC87D" points="62.021,178.647 60.344,182.657 57.719,188.124 55.242,193.665 54.002,197.893 52.98,202.776 &#xA;&#9;52.836,205.911 53.2,215.169 53.784,225.155 54.439,234.777 56.116,235.651 57.792,236.016 60.124,234.851 59.687,224.353 &#xA;&#9;59.396,211.013 59.542,204.38 61.146,198.329 63.333,193.519 66.54,188.052 69.31,182.876 65.738,181.198 "/>
  <polygon fill="#FBC87D" points="85.785,183.313 93.146,195.487 95.406,200.589 97.229,205.837 97.155,208.462 97.082,216.554 &#xA;&#9;96.574,225.739 95.771,234.923 97.447,235.944 99.854,235.944 101.383,235.288 102.842,221.292 103.716,209.557 103.716,205.036 &#xA;&#9;102.04,198.11 98.176,188.271 95.043,181.782 93.438,178.503 90.012,181.055 "/>
  <radialGradient id="XMLID_26_" cx="84.1348" cy="134.6055" r="40.1849" gradientUnits="userSpaceOnUse">
    <stop offset="0" style="stop-color:#D78361"/>
    <stop offset="1" style="stop-color:#BF5850"/>
  </radialGradient>
  <path fill="url(#XMLID_26_)" d="M83.783,134.466c-7.029,0.547-11.854,0.425-17.054-1.057c4.864,1.997,8.651,2.369,15.757,2.271 c6.094-0.083,9.16-0.977,12.906-2.557C92.847,133.637,89.499,134.022,83.783,134.466z"/>
  <radialGradient id="XMLID_27_" cx="83.0576" cy="136.0957" r="38.4729" gradientUnits="userSpaceOnUse">
    <stop offset="0" style="stop-color:#EDA281"/>
    <stop offset="1" style="stop-color:#DA736A"/>
  </radialGradient>
  <path fill="url(#XMLID_27_)" d="M83.783,135.106c-5.852,0.457-9.982,0.506-16.669-1.511c4.554,2.142,7.848,3.15,14.954,3.053 c6.093-0.084,11.686-1.653,13.867-3.729C93.746,133.649,89.499,134.659,83.783,135.106z"/>
  <radialGradient id="XMLID_28_" cx="84.9199" cy="135.6826" r="38.3648" gradientUnits="userSpaceOnUse">
    <stop offset="0" style="stop-color:#D78361"/>
    <stop offset="1" style="stop-color:#BF5850"/>
  </radialGradient>
  <path fill="url(#XMLID_28_)" d="M85.301,142.222c-8.061,0.67-13.732,0.026-19.371-1.492c5.521,2.339,9.142,2.422,17.014,2.422 c7.112,0,12.372-0.941,16.087-2.902C96.951,140.829,91.291,141.725,85.301,142.222z"/>
  <radialGradient id="XMLID_29_" cx="83.7715" cy="135.917" r="38.5892" gradientUnits="userSpaceOnUse">
    <stop offset="0" style="stop-color:#EDA281"/>
    <stop offset="1" style="stop-color:#DA736A"/>
  </radialGradient>
  <path fill="url(#XMLID_29_)" d="M85.621,142.915c-7.099,0.467-13.373-0.221-19.37-2.059c5.521,2.34,9.251,3.398,17.123,3.398 c7.112,0,13.153-1.26,15.892-4.096C97.258,140.798,91.967,142.497,85.621,142.915z"/>
  <radialGradient id="XMLID_30_" cx="83.2266" cy="133.9863" r="43.8004" gradientUnits="userSpaceOnUse">
    <stop offset="0" style="stop-color:#D78361"/>
    <stop offset="1" style="stop-color:#BF5850"/>
  </radialGradient>
  <path fill="url(#XMLID_30_)" d="M85.541,160.112c-5.332,0.188-12.723,0.604-24.24-2.105c6.146,1.977,13.77,2.84,22,2.853 c6.787,0.011,12.42-0.552,16.772-1.821C96.205,159.526,90.847,159.927,85.541,160.112z"/>
  <radialGradient id="XMLID_31_" cx="81.6084" cy="132.084" r="46.93" gradientUnits="userSpaceOnUse">
    <stop offset="0" style="stop-color:#EDA281"/>
    <stop offset="1" style="stop-color:#DA736A"/>
  </radialGradient>
  <path fill="url(#XMLID_31_)" d="M85.688,160.567c-5.332,0.188-12.784,0.238-24.581-2.618c6.146,1.976,14.469,3.808,22.701,3.82 c6.788,0.011,12.665-0.749,16.697-2.813C97.006,159.634,90.994,160.379,85.688,160.567z"/>
  <radialGradient id="XMLID_32_" cx="83.1426" cy="134.4854" r="43.1253" gradientUnits="userSpaceOnUse">
    <stop offset="0" style="stop-color:#D78361"/>
    <stop offset="1" style="stop-color:#BF5850"/>
  </radialGradient>
  <path fill="url(#XMLID_32_)" d="M84.048,168.965c-4.487,0.097-9.144,0.372-20.129-1.226c4.941,1.181,11.847,2.076,18.388,2.163 c5.939,0.081,10.822-0.821,14.859-1.918C94.057,168.354,87.768,168.886,84.048,168.965z"/>
  <radialGradient id="XMLID_33_" cx="81.5156" cy="128.1069" r="50.7822" gradientUnits="userSpaceOnUse">
    <stop offset="0" style="stop-color:#EDA281"/>
    <stop offset="1" style="stop-color:#DA736A"/>
  </radialGradient>
  <path fill="url(#XMLID_33_)" d="M84.207,169.444c-4.486,0.097-9.364,0.109-20.486-1.739c5.453,1.448,12.312,2.858,18.852,2.946 c5.939,0.08,11.501-0.887,14.967-2.806C93.594,168.858,87.927,169.364,84.207,169.444z"/>
  <radialGradient id="XMLID_34_" cx="83.293" cy="134.4717" r="43.188" gradientUnits="userSpaceOnUse">
    <stop offset="0" style="stop-color:#D78361"/>
    <stop offset="1" style="stop-color:#BF5850"/>
  </radialGradient>
  <path fill="url(#XMLID_34_)" d="M82.129,177.363c-3.285,0.038-3.444,0.161-12.348-0.6c3.612,0.731,7.036,1.021,10.924,1.2 c3.44,0.16,6.969-0.387,9.368-0.867C87.354,177.136,84.474,177.337,82.129,177.363z"/>
  <radialGradient id="XMLID_35_" cx="81.6084" cy="129.5474" r="48.5584" gradientUnits="userSpaceOnUse">
    <stop offset="0" style="stop-color:#EDA281"/>
    <stop offset="1" style="stop-color:#DA736A"/>
  </radialGradient>
  <path fill="url(#XMLID_35_)" d="M83.835,177.631c-3.279,0.16-5.253,0.426-14.225-0.887c3.613,0.731,7.902,1.621,11.792,1.802 c3.438,0.16,7.324-0.462,9.204-1.582C87.646,177.497,86.151,177.517,83.835,177.631z"/>
  <radialGradient id="XMLID_36_" cx="86.1338" cy="147.8916" r="9.658" gradientUnits="userSpaceOnUse">
    <stop offset="0" style="stop-color:#FBD08F"/>
    <stop offset="1" style="stop-color:#FBC87D"/>
  </radialGradient>
  <polygon fill="url(#XMLID_36_)" points="64.637,132.022 65.073,132.965 64.782,134.851 64.058,139.278 63.767,142.325 &#xA;&#9;63.549,145.372 63.693,151.105 64.855,151.759 69.788,150.306 76.972,148.131 81.762,147.114 87.493,146.315 91.991,146.752 &#xA;&#9;95.256,147.694 97.646,148.647 99.174,149.653 93.588,150.524 89.018,150.379 85.389,151.831 78.205,154.442 72.328,156.112 &#xA;&#9;67.902,156.909 64.564,157.055 61.808,156.112 59.703,154.878 58.18,152.339 57.091,144.793 57.236,142.543 58.18,137.899 &#xA;&#9;59.775,134.706 61.372,132.892 63.258,131.949 "/>
  <radialGradient id="XMLID_37_" cx="56.6133" cy="147.8467" r="3.225" gradientUnits="userSpaceOnUse">
    <stop offset="0" style="stop-color:#FBD08F"/>
    <stop offset="1" style="stop-color:#FBC87D"/>
  </radialGradient>
  <polygon fill="url(#XMLID_37_)" points="75.812,147.841 69.064,147.114 65.704,145.661 62.931,144.862 60.066,144.43 58.18,144.647 &#xA;&#9;56.878,145.555 56.292,146.435 55.678,147.688 55.358,149.021 55.572,150.327 56.132,151.342 56.985,152.061 58.325,152.12 &#xA;&#9;59.994,150.814 62.169,150.814 64.129,151.25 64.855,151.759 66.161,151.323 75.303,148.647 76.795,148.274 "/>
  <path fill="#F9A565" d="M89.914,150.78c-4.533,1.493-6.879,4.641-6.879,4.641l-5.493-0.64l3.358-1.334l4.693-1.653l3.424-1.415 l1.536,0.028L89.914,150.78z"/>
  <path fill="#F9A565" d="M64.744,151.969c0,0-4.638-0.914-5.545,1.731c-0.126,0.364-0.74-1.958-0.74-1.958l1.858-1.175l2.453,0.054 l1.494,0.693L64.744,151.969z"/>
  <radialGradient id="XMLID_38_" cx="49.209" cy="92.7109" r="91.8375" gradientUnits="userSpaceOnUse">
    <stop offset="0" style="stop-color:#D78361"/>
    <stop offset="1" style="stop-color:#BF5850"/>
  </radialGradient>
  <path fill="url(#XMLID_38_)" d="M60.037,127.011c-11.307,14.418-9.825,60.912,30.569,52.992c0.164,0.109-3.649,2.705-7.465,3.627 c-3.597,0.868-7.948,0.85-7.948,0.85l-7.337-2.232l-5.955-4.041l-4.466-5.317l-4.042-7.869l-1.807-7.444l-0.638-6.061l0.745-8.401 l1.381-5.849l2.578-5.294l1.995-3L60.037,127.011z"/>
  <path fill="#F9A565" d="M60.447,182.812c0,0,2.385,2.078,8.114,1.234c0.736-1.271,0.749-1.17,0.749-1.17l-4.14-2.072l-2.933-2.188 L60.447,182.812z"/>
  <path fill="#F9A565" d="M89.877,180.937l-3.84,1.92c0,0,0.47,0.768,1.473,2.439c3.555-1.016,6.588-5.589,6.588-5.589l-0.67-1.267 L89.877,180.937z"/>
  <path fill="#E1E1E1" d="M44.547,241.704c0.169,0.262,0.013,1.872,3.432,2.69c1.432,0.341-3.473-0.454-3.473-0.454l-2.106-1.253 l-1.013-1.812l0.161-0.8L44.547,241.704z"/>
  <polygon fill="#FFFFFF" points="93.86,240.902 93.912,243.089 97.485,244.794 101.324,245.382 105.699,245.647 108.418,245.327 &#xA;&#9;111.938,244.582 113.43,243.621 113.963,242.768 114.391,240.848 113.537,241.487 111.725,242.715 107.991,243.354 104.259,243.462 &#xA;&#9;100.953,243.141 97.593,242.448 "/>
  <path fill="#E1E1E1" d="M91.422,238.353l0.301,1.857l1.417,2.32l2.275,1.395l2.854,0.975c0,0-2.931-1.495-2.791-3.143 c-0.627-0.512-1.99-1.57-1.99-1.57L91.422,238.353z"/>
  <g>
    <path d="M70.792,59.835c3.579-5.346,8.909-11.938,15.798-11.298c6.156,0.571,15.977,11.804,19.708,21.538 c-2.783-10.534-12.31-21.897-19.458-22.62C79.637,46.727,74.308,52.185,70.792,59.835z"/>
  </g>
  <g>
    <path d="M56.893,73.261c-1.946,8.068,0.462,15.787,5.886,21.226c7.191,7.208,7.208,22.727,7.26,24.504 c0.12,0.679,0.858,4.07,6.97,4.941c7.729,1.102,9.791-2.464,9.891-2.606l0.033-0.045l0.014-0.056 c1.848-7.208,1.856-13.414,13.584-13.459c23.922-0.094,33.834-8.308,33.647-16.453c-0.3-13.213-19.245-25.416-31.859-30.396 l0.587,1.458c12.456,4.918,30.088,18.083,29.914,29.391c-0.122,7.889-11.052,14.875-32.662,15.176 c-12.286,0.171-12.26,8.091-13.797,14.061c-0.166,0.213-3.363,2.984-9.628,1.738c-4.442-0.884-5.165-2.629-5.483-3.687 c-0.053-1.772,0.16-16.559-8.011-25.312c-5.085-5.448-6.888-12.996-5.254-20.147c1.642-7.19,6.968-14.281,14.266-16.491 l0.854-1.529C65.259,57.782,58.985,64.591,56.893,73.261z"/>
  </g>
  <g>
    <path d="M94.793,51.88l0.844,0.696c1.496-1.344,2.974-2.364,5.209-1.278c2.433,1.184,9.537,8.122,10.744,14.213l0.693,0.237 c-1.516-7.604-8.793-14.193-11.303-15.414C98.289,49.025,96.821,50.222,94.793,51.88z"/>
  </g>
  <g>
    <path d="M99.871,28.212c-14.812,3.154-23.767,23.21-24.141,24.062l1.115-0.451c3.229-6.754,11.324-20.644,22.93-23.115 c6.5-1.384,13.316,0.688,19.852,6.626l0.436-0.111C113.371,29.143,106.577,26.784,99.871,28.212z"/>
  </g>
  <g>
    <path d="M66.189,2.029c23.059,8.454,11.87,40.321,8.366,50.531l-0.631,1.868l1.209-1.545c3.552-10.35,14.375-41.968-8.593-50.998 L66.189,2.029z"/>
  </g>
  <g>
    <g>
      <path d="M94.213,59.705c2.111,3.016,3.684,7.365,3.006,14.059c-0.09,0.891-0.236,1.817-0.434,2.772 c-4.377,3.958-14.578,2.753-19.386-0.423c3.732,3.811,15.398,5.119,19.999,0.822l0.071-0.067l0.021-0.096 c1.779-8.417-0.293-13.892-2.768-17.425c-3.305-4.719-8.049-7.277-11.031-7.716C86.719,52.379,91.016,55.138,94.213,59.705z"/>
    </g>
    <g>
      <ellipse transform="matrix(0.9773 0.212 -0.212 0.9773 15.0073 -16.7521)" cx="85.629" cy="61.612" rx="5.936" ry="8.517"/>
      <ellipse transform="matrix(0.9773 0.2119 -0.2119 0.9773 14.3877 -16.6471)" fill="#FFFFFF" cx="84.846" cy="58.789" rx="2.662" ry="3.475"/>
      <ellipse transform="matrix(0.9772 0.2123 -0.2123 0.9772 16.1275 -16.7938)" fill="#FFFFFF" cx="86.259" cy="66.696" rx="1.29" ry="1.569"/>
    </g>
  </g>
  <g>
    <circle cx="64.856" cy="1.799" r="1.798"/>
  </g>
  <g>
    <circle cx="120.621" cy="36.497" r="1.799"/>
  </g>
  <g>
    <path d="M80.604,105.579c3.886-1.928,12.431,0.389,14.269,2.302l0.793-0.391C93.672,105.413,84.629,102.838,80.604,105.579z"/>
  </g>
  <g>
    <path d="M67.194,121.659c-0.261,2.5,3.272,5.797,9.041,6.399c4.74,0.495,9.473-0.856,11.334-2.393 c0.666-0.552,1.149-1.239,1.21-1.822c0.103-0.977-0.587-2.408-1.942-3.105l-0.27,0.523c1.082,0.557,1.643,1.711,1.559,2.505 c-0.043,0.417-0.348,0.866-0.881,1.3c-1.738,1.407-6.029,2.649-10.563,2.177c-5.702-0.595-8.917-3.698-8.712-5.66 c0.097-0.93,0.861-2.096,2.711-2.583l-0.15-0.569C68.388,118.995,67.311,120.535,67.194,121.659z"/>
  </g>
  <g>
    <path d="M50.692,152.554c0.202,9.971,4.217,19.929,10.682,25.9c4.837,4.469,11.004,6.975,17.495,6.592 c14.152-0.833,23.979-12.828,24.68-29.928l-0.877,0.141c-1.223,16.928-10.676,27.461-23.795,28.213 c-6.293,0.361-12.085-1.787-16.646-5.877c-6.413-5.752-10.477-15.328-10.675-25.111c-0.323-15.9,4.742-25.353,16.26-29.866 l-0.26-0.666C55.72,126.59,50.363,136.313,50.692,152.554z"/>
  </g>
  <g>
    <path d="M60.272,133.401c-2.179,2.494-3.216,5.797-3.584,11.402l-0.067,0.845l0.78-0.798c0.441-6.723,1.899-9.251,3.408-10.979 c1.222-1.399,2.806-1.972,3.519-1.627c0.445,0.213,0.445,0.778,0.366,1.215c-0.728,4.023-1.415,7.824-1.456,11.667l0.715,0.007 c0.041-3.783,0.723-7.555,1.445-11.547c0.235-1.297-0.375-1.802-0.759-1.988C63.517,131.061,61.641,131.833,60.272,133.401z"/>
  </g>
  <g>
    <path d="M88.486,123.699c7.254,4.662,12.418,7.949,14.058,19.613c0.323,2.293,0.364,3.785,0.364,4.398 c0,0.074-0.002,0.065-0.002,0.113c-3.955,2.348-13.767,1.98-13.865,1.975l-0.086-0.004l-0.08,0.036 c-0.062,0.029-6.346,2.905-12.965,4.833c-7.15,2.083-14.967,3.778-17.204-2.527l-0.673,0.238c2.65,7.471,12.306,4.656,18.075,2.977 c6.282-1.83,12.28-4.172,13.013-4.504c0.918,0.038,10.266,0.037,14.195-2.457l0.349-0.191v-0.24 c0.003-0.068-0.05-1.499-0.491-4.639c-1.686-11.988-7.111-15.421-14.559-20.131L88.486,123.699z"/>
  </g>
  <g>
    <path d="M99.075,132.36c5.005,4.406,7.995,11.141,7.165,19.369c-0.078,0.785-0.476,1.438-1.211,1.999 c-5.602,4.266-27.5,0.604-27.721,0.565l-0.577,0.75c0.913,0.156,22.794,3.925,28.64-0.527c0.891-0.678,1.522-1.734,1.58-2.715 c0.506-8.578-2.359-15.805-8.174-20.082L99.075,132.36z"/>
  </g>
  <g>
    <path d="M56.801,145.167c-1.653,1.684-2.137,4.102-1.553,5.303c0.537,1.104,1.223,1.771,2.038,1.984 c0.826,0.217,1.353-0.205,1.353-0.205c0.917-1.184,3.268-1.674,5.992-0.32l0.109,0.056l0.122-0.025 c1.876-0.392,4.138-1.081,6.532-1.809c6.705-2.04,15.049-4.579,21.83-2.851c1.85,0.471,4.365,1.426,5.52,2.409l0.464-0.544 c-1.249-1.064-3.815-2.051-5.808-2.558c-5.104-1.3-10.443-0.415-15.898,1.04c0.004-0.025-4.52-0.285-4.52-0.285 c-1.293-0.114-2.785-0.065-6.238-1.665C62.121,143.556,57.993,143.952,56.801,145.167z M55.891,150.157 c-0.469-0.963,0-3.043,1.42-4.49c1.06-1.08,4.927-1.318,9.134,0.679c3.473,1.648,5.037,1.587,6.499,1.702 c0,0,1.226,0.08,2.455,0.17c-1.451,0.412-2.865,0.84-4.212,1.25c-2.34,0.711-4.548,1.381-6.376,1.77 c-2.706-1.567-5.749-0.95-6.384,0.254C57.57,152.085,56.332,151.065,55.891,150.157z"/>
  </g>
  <g>
    <path d="M99.236,157.011c-0.939,0.297-2.372,0.254-4.539-0.856l-0.845,0.423c2.153,1.592,4.671,1.698,5.759,1.4 c1.117-0.305,2.178-1.264,2.695-2.246l-1.268-0.053C100.615,156.399,100.01,156.767,99.236,157.011z"/>
  </g>
  <g>
    <path d="M42.047,140.482c-3.219,13.985,1.645,31.618,19.767,39.489l0.284-0.654c-17.746-7.707-22.508-24.979-19.355-38.674 c3.043-13.228,12.767-20.664,24.769-18.946l0.1-0.708C55.215,119.216,45.181,126.867,42.047,140.482z"/>
  </g>
  <g>
    <path d="M59.548,183.254c-3.074,6.115-6.2,12.37-7.017,20.373c-0.304,7.279,0.549,16.311,1.272,25.851l0.409,5.455l0.11,0.098 c0.958,0.83,2.22,1.49,3.434,1.393c1.049-0.086,1.957-0.621,2.571-1.358l0.083-0.1l-0.01-0.446c0-2.907-0.146-6.732-0.29-10.912 c-0.229-6.594-0.488-14.066-0.27-19.312c1.629-7.573,3.928-10.874,6.473-15.177c0.97-1.64,2.221-3.471,3.574-5.726l-1.253-0.46 c-1.164,2.244-2.21,4.014-3.222,5.724c-2.58,4.358-4.618,7.802-6.277,15.549c-0.062,1.455-0.088,3.071-0.088,4.785 c0,4.567,0.183,9.837,0.349,14.641c0.143,4.103,0.205,8.009,0.21,10.888c-0.496,0.546-1.152,0.867-1.972,0.934 c-0.98,0.08-1.94-0.251-2.732-0.896c-0.024-0.332-0.385-5.133-0.385-5.133c-0.602-7.938-1.177-15.508-1.177-21.988 c0-1.291,0.022-2.537,0.072-3.734c0.801-7.852,3.952-14.117,6.998-20.174l2.16-4.383l-0.835-0.746L59.548,183.254z"/>
  </g>
  <g>
    <path d="M92.953,178.884l1.813,3.36c3.657,7.118,7.235,14.708,8.536,22.688c0.03,0.775,0.044,1.58,0.044,2.41 c0,6.789-0.934,15.244-1.7,22.186c0,0-0.551,5.169-0.588,5.518c-0.606,0.451-1.604,0.691-2.612,0.593 c-0.949-0.093-1.744-0.474-2.239-1.026c0.025-0.324,0.258-3.291,0.258-3.291c0.463-5.795,1.121-14.037,1.121-21.18 c0-1.509-0.029-2.969-0.097-4.346c-1.995-8.154-5.149-13.407-9.144-20.054l-1.888-3.158l-1.183,0.673l2.064,3.155 c4.117,6.853,7.486,11.504,9.445,19.485c0.372,7.784-0.473,18.365-1.033,25.367l-0.283,3.909l0.091,0.11 c0.613,0.757,1.614,1.24,2.817,1.356c1.258,0.123,2.502-0.479,3.246-1.101l0.111-0.093l0.621-5.841 c0.863-7.812,2.024-17.545,1.743-24.752c-1.325-8.137-6.122-18.549-8.372-23.197c-1.041-2.15-1.76-3.573-1.76-3.573L92.953,178.884 z"/>
  </g>
  <g>
    <path d="M101.751,233.019l1.8,0.16c5.654,0.748,10.76,4.323,10.402,7.02c-0.068,0.52-0.369,0.987-0.893,1.389 c-1.858,1.424-7.679,1.944-12.578,1.295c-5.996-0.793-8.795-3.761-8.461-6.283c0.176-1.326,1.627-2.875,4.062-3.268l-0.115-0.706 c-2.778,0.449-4.445,2.291-4.656,3.88c-0.442,3.352,3.374,6.331,9.076,7.086c3.914,0.518,10.64,0.453,13.105-1.438 c0.682-0.521,1.073-1.146,1.169-1.861c0.401-3.037-4.779-6.997-11.019-7.822l-1.865-0.166L101.751,233.019z"/>
  </g>
  <g>
    <path d="M92.079,241.821c1.438,1.91,4.555,3.425,8.134,3.875c6.062,0.764,11.307,0.055,13.236-1.709 c0.933-0.852,1.295-2.683,1.246-4.078l-0.771,0.505c0.042,1.194-0.148,2.308-0.952,2.996c-1.809,1.546-6.889,2.084-12.657,1.378 c-3.333-0.408-6.31-1.73-7.608-3.455c-0.909-1.209-0.971-2.729-0.72-4.342l-0.706-0.11C91,238.688,91.051,240.456,92.079,241.821z"/>
  </g>
  <g>
    <path d="M52.52,232.12c-5.913,0.445-11.8,3.512-11.551,6.836c0.058,0.762,0.443,1.455,1.146,2.059 c1.987,1.709,7.856,2.614,12.698,2.25c5.919-0.445,10.036-3.145,9.789-6.42c-0.119-1.597-1.68-3.531-4.43-4.135l-0.153,0.697 c2.383,0.523,3.773,2.189,3.87,3.492c0.216,2.861-3.625,5.238-9.13,5.652c-4.666,0.352-10.326-0.484-12.18-2.078 c-0.554-0.479-0.857-1.006-0.899-1.57c-0.193-2.568,4.902-5.619,10.892-6.07l1.805-0.057l0.011-0.715L52.52,232.12z"/>
  </g>
  <g>
    <path d="M63.95,237.315c0.148,1.502,0.101,2.893-0.993,3.96c-1.568,1.53-4.929,2.952-8.451,3.194 c-3.93,0.27-9.947-0.234-11.867-2.234c-0.761-0.794-0.956-1.84-1.007-3.11l-0.669-0.499c-0.131,1.424,0.179,3.289,1.089,4.223 c2.346,2.399,8.597,2.824,12.676,2.542c3.719-0.255,7.298-1.729,8.842-3.556c1.049-1.24,1.239-2.43,1.029-4.9L63.95,237.315z"/>
  </g>
  <polygon points="65.65,123.303 67.478,122.41 67.54,121.319 63.325,121.102 59.211,121.802 56.076,122.717 53.151,124.126 &#xA;&#9;50.017,126.523 47.69,128.953 45.894,131.314 44.767,133.216 43.677,136.159 42.607,139.232 41.777,143.585 41.403,150.479 &#xA;&#9;42.38,157.125 44.498,162.972 47.125,167.573 50.406,171.778 54.466,175.485 58.154,177.889 61.965,179.671 62.4,178.673 &#xA;&#9;59.036,175.237 55.089,169.362 52.722,163.657 51.081,155.808 50.997,148.142 52.119,141.081 53.344,135.796 57.274,129.692 &#xA;&#9;61.828,125.411 "/>
  <g>
    <circle fill="#FFFFFF" cx="65.2" cy="1.486" r="0.757"/>
  </g>
  <g>
    <circle fill="#FFFFFF" cx="120.951" cy="36.112" r="0.757"/>
  </g>
  <polygon points="54.376,232.421 54.615,234.753 56.118,235.821 57.621,236.059 59.44,235.346 60.032,234.753 60.073,233.171 &#xA;&#9;61.575,233.527 63.513,235.109 64.226,236.573 64.226,238.194 63.672,239.104 62.644,240.251 60.073,241.794 57.501,242.544 &#xA;&#9;53.863,243.019 50.58,243.019 47.692,242.544 44.72,241.833 43.059,241.003 41.439,239.737 41.714,237.5 42.98,236.216 &#xA;&#9;44.759,234.714 47.099,233.804 49.67,232.935 51.569,232.578 "/>
  <polygon points="92.228,239.183 93.492,240.646 94.996,241.675 97.289,242.624 99.662,243.179 102.154,243.493 105.396,243.533 &#xA;&#9;108.602,243.179 111.021,242.742 112.629,242.16 114.098,241.167 114.112,239.147 113,237.278 110.941,235.544 108.561,234.397 &#xA;&#9;106.781,233.685 105.082,233.132 103.736,232.894 101.798,232.657 101.442,235.386 100.415,235.86 98.832,236.138 97.17,235.821 &#xA;&#9;96.341,235.386 95.866,234.792 95.945,233.132 94.758,233.37 93.531,233.923 92.543,234.872 91.793,235.979 91.635,237.166 "/>
  <g opacity="0.35">
    <g>
      <linearGradient id="XMLID_39_" gradientUnits="userSpaceOnUse" x1="86.9619" y1="68.5308" x2="83.6311" y2="53.9128">
        <stop offset="0" style="stop-color:#83C1FC"/>
        <stop offset="1" style="stop-color:#0A1519"/>
      </linearGradient>
      <path fill="url(#XMLID_39_)" d="M83.809,69.936c3.203,0.695,6.609-2.469,7.606-7.065c0.627-2.891,0.15-5.659-1.085-7.489 c-0.931-0.807-1.874-1.494-2.794-2.058c-0.04-0.01-0.077-0.026-0.117-0.035c-3.204-0.694-6.608,2.468-7.606,7.065 C78.815,64.951,80.604,69.241,83.809,69.936z M81.066,59.415c0.71-3.582,3.128-6.084,5.399-5.59 c2.271,0.494,3.536,3.797,2.827,7.379c-0.713,3.58-3.133,6.082-5.402,5.589C81.619,66.3,80.354,62.995,81.066,59.415z"/>
    </g>
  </g>
  <radialGradient id="XMLID_40_" cx="119.6592" cy="37.3389" r="3.0373" gradientUnits="userSpaceOnUse">
    <stop offset="0" style="stop-color:#9E4D55"/>
    <stop offset="0.5787" style="stop-color:#68092B"/>
  </radialGradient>
  <circle fill="url(#XMLID_40_)" cx="120.64" cy="36.471" r="1.454"/>
  <radialGradient id="XMLID_41_" cx="63.9365" cy="2.8579" r="3.2234" gradientUnits="userSpaceOnUse">
    <stop offset="0" style="stop-color:#9E4D55"/>
    <stop offset="0.5787" style="stop-color:#68092B"/>
  </radialGradient>
  <circle fill="url(#XMLID_41_)" cx="64.847" cy="1.809" r="1.454"/>
  <linearGradient id="XMLID_42_" gradientUnits="userSpaceOnUse" x1="54.8579" y1="171.8008" x2="54.8579" y2="129.6977">
    <stop offset="0" style="stop-color:#83C1FC"/>
    <stop offset="1" style="stop-color:#0A1519"/>
  </linearGradient>
  <path opacity="0.35" fill="url(#XMLID_42_)" d="M61.562,178.483c-6.317-5.887-10.75-15.944-10.949-25.757 c-0.323-15.898,4.53-25.586,16.627-30.384c-0.099-0.48-0.009-0.781-0.009-0.781c-11.979-0.95-20.685,6.229-23.977,19.808 c-3.199,13.198,3.6,30.556,18.076,37.565C61.432,178.731,61.521,178.573,61.562,178.483z"/>
  <path opacity="0.35" fill="#5E747C" d="M59.161,122.855c-4.055,1.072-8.905,5.682-9.767,7.682c-0.38,0.88,1.337,1.528,2.042,0.753 C53.221,129.33,54.69,126.252,59.161,122.855z"/>
  <path opacity="0.35" fill="#5E747C" d="M48.14,136.048c-0.928-0.479-0.769-1.949,0.052-3.359c0.482-0.828,2.391-0.309,2.04,0.429 C49.369,134.936,49.06,136.522,48.14,136.048z"/>
  <g>
    <circle fill="#FFFFFF" cx="65.2" cy="1.486" r="0.757"/>
  </g>
  <g>
    <circle fill="#FFFFFF" cx="120.951" cy="36.112" r="0.757"/>
  </g>
  <rect width="145" height="145" rx="10" ry="10" style="stroke: rgb(255, 255, 255); fill: url(#gradient-1); fill-opacity: 0; stroke-width: 5px;" y="-9.5" x="13.5"/>
  <linearGradient id="XMLID_43_" gradientUnits="userSpaceOnUse" x1="43.4312" y1="238.7295" x2="63.7208" y2="236.6142">
    <stop offset="0" style="stop-color:#83C1FC"/>
    <stop offset="1" style="stop-color:#0A1519"/>
  </linearGradient>
  <path opacity="0.35" fill="url(#XMLID_43_)" d="M54.032,233.046c0.066,0.932,0.11,1.33,0.149,1.961 c1.381,1.949,4.431,2.029,6.27,0.039c0.01-0.5-0.004-0.832-0.017-1.117c1.857,0.717,3.089,1.883,3.162,3.135 c0.146,2.506-4.236,5.011-9.869,5.216c-5.547,0.201-11.43-1.051-11.576-3.559s5.223-5.304,10.764-5.627 C53.222,233.076,53.731,233.051,54.032,233.046z"/>
  <path opacity="0.35" fill="#5E747C" d="M48.498,240.822c-2.462,0.161-5.071-0.948-5.213-2.312c-0.096-0.914,0.809-2.401,3.385-2.906 C45.812,237.282,46.335,239.367,48.498,240.822z"/>
  <linearGradient id="XMLID_44_" gradientUnits="userSpaceOnUse" x1="151.7148" y1="238.3721" x2="136.0412" y2="238.7881" gradientTransform="matrix(-0.9998 -0.0218 -0.0218 0.9998 251.5246 2.6363)">
    <stop offset="0" style="stop-color:#83C1FC"/>
    <stop offset="1" style="stop-color:#0A1519"/>
  </linearGradient>
  <path opacity="0.35" fill="url(#XMLID_44_)" d="M101.994,233.216c-0.086,0.93-0.135,1.274-0.188,1.902 c-1.422,1.92-4.558,1.912-6.354-0.117c0.002-0.5,0.109-1.042,0.13-1.325c-2.101,0.662-3.251,2.14-3.352,3.388 c-0.2,2.504,4.016,5.262,9.548,5.705c5.531,0.443,11.737-0.153,11.938-2.656c0.201-2.504-5.299-6.393-10.832-6.836 C102.578,233.251,102.295,233.228,101.994,233.216z"/>
  <path opacity="0.35" fill="#5E747C" d="M106.781,241.739c2.42,0.546,5.215-0.209,5.605-1.608c0.262-0.938-0.369-2.629-2.841-3.554 C110.096,238.459,109.195,240.554,106.781,241.739z"/>
</svg>