<svg width="150" height="150" viewBox="11 -12 150 150" overflow="visible" xmlns="http://www.w3.org/2000/svg"><defs><linearGradient id="a" gradientUnits="userSpaceOnUse" x1="77.796" y1="-.127" x2="77.796" y2="116.113" gradientTransform="matrix(1.19484 0 0 1.24742 -6.953 -9.342)"><stop offset="0" stop-color="#9174a2"></stop><stop offset="1" stop-color="#9075a4"></stop></linearGradient><linearGradient id="v" gradientUnits="userSpaceOnUse" x1="77.796" y1="-.127" x2="77.796" y2="116.113" gradientTransform="matrix(1.19484 0 0 1.24742 -6.953 -9.342)"><stop offset="0" stop-color="#9174a2"></stop><stop offset="1" stop-color="#9075a4"></stop></linearGradient></defs><path fill="#E3DCE7" d="M123.927 245.755c.13-5.801-12.592-12.438-50.29-10.18-10.825.648-24.546-2.088-35.179-.28-10.514 1.788-22.936 3.198-32.066 7.562-18.45 8.818 7.941 18.436 17.6 19.278 12.942 1.126 27.462-.456 40.017-3.14 15.059-3.216 30.372-2.954 45.585-5.488 4.421-.738 14.217-2.537 14.333-7.752z"></path><path fill="#BDA7C8" d="M123.213 245.271c.119-4.88-13.268-10.791-46.643-8.865-9.583.553-20.282-1.494-29.696.035-9.308 1.51-20.306 2.705-28.392 6.383-16.341 7.434 7.015 15.506 15.565 16.208 11.457.938 24.313-.403 35.429-2.671 13.334-2.717 26.891-2.506 40.36-4.649 3.915-.626 13.268-2.055 13.377-6.441z"></path><path fill="#BDA7C8" d="M65.886 241.464c.29 3.723-7.941 7.763-17.539 7.973-9.598.209-18.698-2.22-18.988-5.943-.291-3.722 8.877-5.438 18.449-6.183 9.57-.748 17.788.431 18.078 4.153z"></path><path fill="#BBA6C8" d="M65.751 241.47c.288 3.679-7.834 7.645-17.345 7.859s-18.476-2.148-18.763-5.829c-.288-3.679 8.732-5.417 18.218-6.153 9.484-.739 17.602.444 17.89 4.123z"></path><path fill="#BBA5C7" d="M65.617 241.476c.285 3.636-7.728 7.525-17.151 7.747-9.422.22-18.253-2.077-18.538-5.716-.285-3.637 8.589-5.396 17.988-6.125 9.396-.731 17.416.456 17.701 4.094z"></path><path fill="#BAA4C7" d="M65.481 241.479c.284 3.596-7.62 7.409-16.956 7.637-9.335.225-18.031-2.007-18.313-5.602-.283-3.594 8.444-5.377 17.757-6.098 9.31-.72 17.231.471 17.512 4.063z"></path><path fill="#BAA2C6" d="M65.347 241.485c.28 3.553-7.514 7.291-16.761 7.523-9.249.23-17.809-1.936-18.087-5.487-.282-3.552 8.3-5.357 17.524-6.069 9.223-.711 17.044.482 17.324 4.033z"></path><path fill="#B9A1C6" d="M65.212 241.491c.277 3.51-7.408 7.172-16.568 7.41-9.16.236-17.585-1.863-17.863-5.373s8.157-5.336 17.296-6.039c9.137-.704 16.859.493 17.135 4.002z"></path><path fill="#B9A0C5" d="M65.078 241.497c.274 3.467-7.301 7.054-16.375 7.298-9.073.241-17.363-1.792-17.637-5.261-.276-3.465 8.013-5.315 17.064-6.01 9.05-.695 16.674.506 16.948 3.973z"></path><path fill="#B89FC5" d="M64.943 241.503c.272 3.424-7.194 6.936-16.179 7.184-8.986.249-17.142-1.72-17.413-5.145-.273-3.424 7.868-5.296 16.833-5.982 8.963-.687 16.487.518 16.759 3.943z"></path><path fill="#B79EC5" d="M64.808 241.509c.269 3.381-7.087 6.816-15.985 7.071-8.899.254-16.919-1.649-17.188-5.031-.27-3.382 7.724-5.276 16.604-5.953 8.875-.679 16.3.531 16.569 3.913z"></path><path fill="#B79DC4" d="M64.674 241.514c.267 3.339-6.98 6.699-15.791 6.96-8.811.26-16.696-1.578-16.962-4.917-.268-3.339 7.579-5.257 16.371-5.925 8.79-.67 16.115.543 16.382 3.882z"></path><path fill="#B69BC4" d="M64.539 241.52c.264 3.295-6.874 6.581-15.597 6.847-8.724.266-16.474-1.506-16.737-4.803-.265-3.297 7.436-5.236 16.141-5.896 8.703-.661 15.929.555 16.193 3.852z"></path><path fill="#B59AC3" d="M64.404 241.524c.262 3.254-6.767 6.463-15.402 6.734-8.637.271-16.252-1.435-16.513-4.688s7.292-5.216 15.91-5.868c8.617-.651 15.745.569 16.005 3.822z"></path><path fill="#B499C3" d="M64.27 241.53c.259 3.211-6.66 6.345-15.209 6.621-8.549.277-16.028-1.363-16.286-4.574-.259-3.211 7.147-5.195 15.678-5.839 8.53-.643 15.557.581 15.817 3.792z"></path><path fill="#B398C3" d="M64.134 241.536c.257 3.168-6.553 6.227-15.014 6.509-8.461.282-15.807-1.292-16.062-4.462-.256-3.167 7.004-5.175 15.449-5.811 8.442-.634 15.372.594 15.627 3.764z"></path><path fill="#B397C1" d="M64 241.541c.253 3.126-6.447 6.108-14.821 6.397-8.374.287-15.583-1.221-15.836-4.348-.253-3.126 6.859-5.154 15.217-5.781 8.357-.626 15.187.606 15.44 3.732z"></path><path fill="#B296C1" d="M63.866 241.547c.25 3.083-6.339 5.991-14.627 6.285-8.287.293-15.362-1.15-15.611-4.233-.251-3.083 6.714-5.137 14.987-5.754 8.268-.619 15 .619 15.251 3.702z"></path><path fill="#B294C0" d="M63.731 241.552c.248 3.041-6.232 5.873-14.432 6.172-8.199.299-15.139-1.078-15.388-4.118-.248-3.041 6.572-5.116 14.757-5.725 8.184-.61 14.815.63 15.063 3.671z"></path><path fill="#B193C0" d="M63.596 241.558c.246 2.998-6.126 5.755-14.237 6.06-8.112.304-14.917-1.007-15.163-4.005-.247-2.999 6.427-5.096 14.525-5.697 8.097-.602 14.629.642 14.875 3.642z"></path><path fill="#B192BF" d="M63.46 241.562c.244 2.956-6.018 5.638-14.042 5.948s-14.694-.936-14.937-3.892c-.244-2.956 6.283-5.075 14.293-5.669 8.011-.59 14.445.657 14.686 3.613z"></path><path fill="#B092BF" d="M63.327 241.568c.241 2.912-5.912 5.519-13.849 5.835-7.938.316-14.472-.864-14.712-3.777-.241-2.914 6.139-5.055 14.063-5.639 7.923-.584 14.257.668 14.498 3.581z"></path><path fill="#AE91BF" d="M63.191 241.573c.237 2.871-5.805 5.401-13.654 5.723-7.85.321-14.25-.793-14.487-3.664-.238-2.869 5.996-5.034 13.833-5.61 7.836-.575 14.071.68 14.308 3.551z"></path><path fill="#AE90BE" d="M63.057 241.579c.235 2.828-5.699 5.283-13.46 5.609-7.763.328-14.027-.721-14.263-3.549s5.851-5.014 13.602-5.582c7.751-.566 13.887.694 14.121 3.522z"></path><path fill="#AD8FBE" d="M62.922 241.585c.233 2.785-5.592 5.164-13.267 5.496-7.675.334-13.804-.648-14.036-3.434-.233-2.785 5.706-4.995 13.371-5.555 7.664-.556 13.699.708 13.932 3.493z"></path><path fill="#AD8EBC" d="M62.787 241.59c.23 2.743-5.484 5.047-13.072 5.386-7.588.337-13.583-.578-13.812-3.322-.23-2.742 5.562-4.975 13.142-5.525 7.576-.55 13.513.718 13.742 3.461z"></path><path fill="#AC8DBC" d="M62.653 241.596c.228 2.7-5.378 4.929-12.877 5.272-7.5.343-13.361-.506-13.587-3.207-.228-2.699 5.418-4.955 12.909-5.497 7.49-.54 13.327.732 13.555 3.432z"></path><path fill="#AC8CBB" d="M62.519 241.601c.224 2.658-5.271 4.811-12.684 5.16-7.413.349-13.137-.435-13.362-3.093-.224-2.657 5.275-4.935 12.68-5.468 7.402-.532 13.14.742 13.366 3.401z"></path><path fill="#AB8ABB" d="M62.383 241.606c.222 2.615-5.164 4.692-12.49 5.047-7.326.355-12.914-.363-13.136-2.979-.223-2.615 5.13-4.914 12.448-5.439 7.316-.523 12.957.756 13.178 3.371z"></path><path fill="#AA89BB" d="M62.249 241.612c.219 2.572-5.057 4.574-12.295 4.935-7.239.36-12.693-.292-12.911-2.866-.22-2.571 4.985-4.894 12.216-5.41 7.229-.514 12.77.769 12.99 3.341z"></path><path fill="#AA88BA" d="M62.113 241.617c.218 2.53-4.95 4.456-12.101 4.823-7.15.365-12.47-.221-12.686-2.752-.218-2.529 4.842-4.873 11.987-5.381 7.143-.507 12.584.78 12.8 3.31z"></path><path fill="#A987BA" d="M61.979 241.622c.215 2.488-4.844 4.34-11.907 4.711-7.063.371-12.246-.149-12.46-2.637-.215-2.488 4.697-4.854 11.755-5.354 7.056-.497 12.398.794 12.612 3.28z"></path><path fill="#A886B9" d="M61.845 241.628c.211 2.445-4.738 4.221-11.713 4.598-6.976.377-12.025-.078-12.236-2.523-.213-2.443 4.553-4.833 11.524-5.324 6.97-.49 12.213.804 12.425 3.249z"></path><path fill="#A785B9" d="M61.71 241.634c.208 2.402-4.63 4.102-11.518 4.484-6.889.383-11.803-.006-12.012-2.408-.209-2.402 4.41-4.814 11.295-5.296 6.882-.48 12.026.817 12.235 3.22z"></path><path fill="#A684B9" d="M61.575 241.64c.207 2.359-4.523 3.984-11.325 4.372-6.8.389-11.579.065-11.785-2.295-.206-2.36 4.266-4.794 11.063-5.267 6.796-.473 11.84.83 12.047 3.19z"></path><path fill="#A683B8" d="M61.439 241.646c.205 2.316-4.416 3.865-11.129 4.26-6.713.394-11.356.136-11.56-2.182-.205-2.316 4.122-4.773 10.832-5.238 6.709-.465 11.655.841 11.857 3.16z"></path><path fill="#A581B8" d="M61.306 241.651c.202 2.273-4.31 3.747-10.936 4.146-6.626.4-11.135.207-11.336-2.068-.201-2.273 3.978-4.752 10.602-5.209 6.623-.455 11.468.856 11.67 3.131z"></path><path fill="#A580B7" d="M61.171 241.656c.198 2.231-4.204 3.63-10.743 4.034-6.538.406-10.912.279-11.109-1.953-.199-2.23 3.833-4.732 10.37-5.181 6.536-.446 11.283.867 11.482 3.1z"></path><path fill="#A480B7" d="M61.036 241.661c.196 2.189-4.096 3.512-10.548 3.923s-10.688.351-10.885-1.839c-.196-2.189 3.688-4.714 10.14-5.152 6.45-.44 11.098.879 11.293 3.068z"></path><path fill="#A47FB6" d="M60.901 241.667c.193 2.146-3.989 3.394-10.353 3.811-6.364.416-10.467.422-10.661-1.727-.193-2.145 3.545-4.691 9.909-5.123 6.363-.43 10.912.893 11.105 3.039z"></path><path fill="#A37EB5" d="M60.767 241.673c.19 2.104-3.884 3.275-10.16 3.697s-10.245.494-10.434-1.611c-.191-2.104 3.4-4.674 9.677-5.096 6.277-.421 10.727.904 10.917 3.01z"></path><path fill="#BDA7C8" d="M84.669 243.372c-.294 3.39 7.937 7.057 17.537 7.235 9.603.177 18.71-2.048 19.007-5.437.296-3.389-8.798-6.768-18.373-7.435-9.574-.666-17.875 2.248-18.171 5.637z"></path><path fill="#BBA6C8" d="M84.822 243.359c-.29 3.354 7.822 6.97 17.336 7.156 9.516.182 18.483-2.018 18.776-5.372.294-3.354-8.644-6.689-18.131-7.35s-17.686 2.213-17.981 5.566z"></path><path fill="#BBA5C7" d="M84.979 243.347c-.289 3.318 7.706 6.885 17.133 7.075 9.428.189 18.256-1.987 18.547-5.306.291-3.316-8.488-6.61-17.891-7.264-9.401-.652-17.5 2.176-17.789 5.495z"></path><path fill="#BAA4C7" d="M85.133 243.334c-.287 3.282 7.592 6.799 16.931 6.995 9.341.195 18.031-1.957 18.317-5.24.289-3.282-8.336-6.531-17.65-7.178-9.313-.645-17.311 2.141-17.598 5.423z"></path><path fill="#BAA2C6" d="M85.288 243.321c-.284 3.246 7.476 6.713 16.728 6.916 9.253.201 17.805-1.927 18.09-5.175.285-3.247-8.184-6.454-17.41-7.091-9.228-.641-17.124 2.102-17.408 5.35z"></path><path fill="#B9A1C6" d="M85.441 243.308c-.279 3.211 7.363 6.628 16.527 6.838 9.164.207 17.577-1.898 17.859-5.109.283-3.213-8.029-6.375-17.17-7.007-9.138-.634-16.933 2.067-17.216 5.278z"></path><path fill="#B9A0C5" d="M85.598 243.294c-.279 3.176 7.247 6.544 16.323 6.759 9.077.214 17.351-1.868 17.63-5.045.28-3.175-7.875-6.296-16.93-6.921-9.052-.625-16.746 2.031-17.023 5.207z"></path><path fill="#B89FC5" d="M85.752 243.282c-.275 3.141 7.133 6.457 16.121 6.678 8.991.22 17.125-1.837 17.4-4.979.277-3.141-7.72-6.217-16.688-6.836-8.965-.619-16.558 1.997-16.833 5.137z"></path><path fill="#B79EC5" d="M85.906 243.269c-.273 3.105 7.019 6.373 15.92 6.6 8.902.225 16.898-1.809 17.172-4.914.273-3.104-7.568-6.138-16.449-6.75-8.879-.613-16.369 1.958-16.643 5.064z"></path><path fill="#B79DC4" d="M86.062 243.255c-.271 3.07 6.903 6.287 15.718 6.521 8.814.23 16.671-1.779 16.941-4.85.271-3.069-7.414-6.059-16.208-6.663-8.792-.606-16.181 1.924-16.451 4.992z"></path><path fill="#B69BC4" d="M86.215 243.242c-.266 3.034 6.791 6.202 15.518 6.44s16.443-1.748 16.712-4.781c.269-3.035-7.261-5.98-15.968-6.58-8.706-.597-15.994 1.887-16.262 4.921z"></path><path fill="#B59AC3" d="M86.371 243.231c-.266 2.996 6.675 6.113 15.312 6.359 8.641.244 16.219-1.717 16.484-4.718.266-2.997-7.107-5.901-15.727-6.493-8.618-.59-15.804 1.853-16.069 4.852z"></path><path fill="#B499C3" d="M86.525 243.216c-.262 2.964 6.56 6.03 15.111 6.283 8.553.249 15.991-1.689 16.254-4.652s-6.952-5.822-15.486-6.408c-8.533-.585-15.617 1.815-15.879 4.777z"></path><path fill="#B398C3" d="M86.679 243.204c-.258 2.927 6.446 5.943 14.911 6.201 8.464.256 15.764-1.658 16.023-4.587.261-2.925-6.799-5.742-15.245-6.321-8.446-.578-15.43 1.779-15.689 4.707z"></path><path fill="#B397C1" d="M86.834 243.191c-.256 2.892 6.332 5.858 14.707 6.121 8.379.263 15.539-1.628 15.797-4.521.256-2.892-6.646-5.664-15.006-6.235-8.359-.572-15.24 1.744-15.498 4.635z"></path><path fill="#B296C1" d="M86.988 243.179c-.254 2.855 6.217 5.772 14.506 6.042 8.29.269 15.312-1.598 15.566-4.456.254-2.855-6.492-5.585-14.765-6.15-8.272-.565-15.051 1.706-15.307 4.564z"></path><path fill="#B294C0" d="M87.145 243.165c-.252 2.82 6.1 5.688 14.303 5.964 8.201.274 15.085-1.569 15.336-4.392.252-2.82-6.336-5.506-14.523-6.064-8.187-.557-14.866 1.671-15.116 4.492z"></path><path fill="#B193C0" d="M87.298 243.151c-.247 2.785 5.987 5.602 14.101 5.885 8.115.28 14.859-1.539 15.107-4.326.25-2.783-6.184-5.428-14.283-5.979-8.098-.55-14.676 1.635-14.925 4.42z"></path><path fill="#B192BF" d="M87.453 243.139c-.245 2.749 5.872 5.517 13.898 5.804 8.027.287 14.633-1.508 14.879-4.26.246-2.748-6.031-5.348-14.045-5.893-8.009-.544-14.486 1.599-14.732 4.349z"></path><path fill="#B092BF" d="M87.607 243.126c-.242 2.715 5.758 5.431 13.697 5.725 7.939.293 14.406-1.479 14.648-4.193.243-2.714-5.876-5.271-13.803-5.809-7.922-.537-14.299 1.563-14.542 4.277z"></path><path fill="#AE91BF" d="M87.762 243.112c-.239 2.68 5.644 5.347 13.494 5.646 7.854.299 14.181-1.449 14.42-4.129.24-2.679-5.723-5.191-13.561-5.723-7.838-.528-14.113 1.529-14.353 4.206z"></path><path fill="#AE90BE" d="M87.918 243.1c-.238 2.644 5.527 5.261 13.291 5.566 7.765.306 13.953-1.419 14.191-4.063.236-2.643-5.57-5.112-13.322-5.637-7.75-.524-13.924 1.492-14.16 4.134z"></path><path fill="#AD8FBE" d="M88.071 243.087c-.233 2.607 5.413 5.175 13.091 5.486 7.676.312 13.727-1.389 13.961-3.997s-5.416-5.034-13.081-5.552c-7.664-.516-13.736 1.454-13.971 4.063z"></path><path fill="#AD8EBC" d="M88.227 243.074c-.232 2.571 5.299 5.088 12.889 5.407 7.588.316 13.499-1.359 13.73-3.934.232-2.571-5.262-4.953-12.84-5.464-7.577-.51-13.549 1.42-13.779 3.991z"></path><path fill="#AC8DBC" d="M88.381 243.062c-.229 2.537 5.185 5.004 12.686 5.328 7.502.322 13.273-1.33 13.503-3.867s-5.108-4.877-12.601-5.381c-7.49-.502-13.36 1.382-13.588 3.92z"></path><path fill="#AC8CBB" d="M88.535 243.048c-.226 2.502 5.07 4.918 12.484 5.248s13.047-1.299 13.271-3.803c.228-2.5-4.953-4.796-12.357-5.293-7.403-.496-13.171 1.348-13.398 3.848z"></path><path fill="#AB8ABB" d="M88.689 243.036c-.223 2.465 4.956 4.832 12.283 5.168 7.326.336 12.82-1.27 13.043-3.736.224-2.466-4.8-4.718-12.119-5.209-7.316-.49-12.982 1.31-13.207 3.777z"></path><path fill="#AA89BB" d="M88.844 243.022c-.219 2.43 4.842 4.746 12.08 5.09 7.24.341 12.595-1.24 12.814-3.671.221-2.431-4.646-4.64-11.879-5.124-7.23-.483-12.794 1.276-13.015 3.705z"></path><path fill="#AA88BA" d="M88.999 243.009c-.218 2.395 4.726 4.662 11.878 5.01s12.367-1.209 12.586-3.604c.217-2.396-4.493-4.562-11.639-5.038-7.144-.478-12.606 1.238-12.825 3.632z"></path><path fill="#A987BA" d="M89.154 242.996c-.215 2.358 4.611 4.576 11.676 4.93 7.063.354 12.141-1.179 12.354-3.539.216-2.358-4.339-4.481-11.396-4.952-7.058-.469-12.419 1.202-12.634 3.561z"></path><path fill="#A886B9" d="M89.308 242.983c-.211 2.322 4.498 4.49 11.476 4.851 6.977.36 11.914-1.15 12.125-3.475.213-2.323-4.186-4.403-11.157-4.866-6.971-.462-12.231 1.166-12.444 3.49z"></path><path fill="#A785B9" d="M89.463 242.97c-.209 2.287 4.383 4.404 11.271 4.772 6.891.366 11.688-1.12 11.896-3.409.211-2.288-4.031-4.324-10.916-4.781-6.882-.455-12.04 1.13-12.251 3.418z"></path><path fill="#A684B9" d="M89.617 242.957c-.206 2.253 4.27 4.319 11.07 4.692 6.802.372 11.461-1.09 11.668-3.344.206-2.252-3.879-4.245-10.676-4.695-6.796-.449-11.853 1.094-12.062 3.347z"></path><path fill="#A683B8" d="M89.773 242.944c-.205 2.217 4.152 4.232 10.867 4.613 6.713.377 11.232-1.062 11.438-3.279.203-2.217-3.724-4.166-10.436-4.609-6.708-.442-11.664 1.058-11.869 3.275z"></path><path fill="#A581B8" d="M89.927 242.931c-.2 2.182 4.038 4.148 10.665 4.533s11.009-1.029 11.209-3.213c.201-2.181-3.569-4.088-10.194-4.523-6.623-.436-11.478 1.021-11.68 3.203z"></path><path fill="#A580B7" d="M90.082 242.917c-.198 2.147 3.924 4.064 10.463 4.455s10.781-1 10.98-3.147c.197-2.146-3.417-4.009-9.955-4.438-6.535-.429-11.289.984-11.488 3.13z"></path><path fill="#A480B7" d="M90.236 242.905c-.195 2.11 3.81 3.977 10.262 4.374 6.451.397 10.555-.97 10.75-3.082.195-2.11-3.264-3.929-9.714-4.352-6.448-.422-11.101.949-11.298 3.06z"></path><path fill="#A47FB6" d="M90.392 242.892c-.193 2.076 3.694 3.893 10.06 4.295 6.363.403 10.326-.939 10.52-3.017.193-2.074-3.109-3.851-9.473-4.267-6.362-.415-10.915.914-11.107 2.989z"></path><path fill="#A37EB5" d="M90.547 242.879c-.191 2.04 3.578 3.807 9.855 4.216 6.276.409 10.102-.91 10.292-2.951.19-2.039-2.956-3.772-9.232-4.182-6.274-.408-10.726.877-10.915 2.917z"></path><rect width="145" height="145" rx="10" ry="10" y="-9.5" x="13.5" fill="url(#a)" stroke="#fff" stroke-width="5"></rect><path fill="#FFF" d="M70.546 118.833l-.022.007-.889.241-1.06.747-.667.942-.315.864.118 1.217.55.981 1.61 1.649 1.846 1.061 1.765.589 2.671.511 2.906.195 2.082-.235 2.905-.589 2.16-.824 1.57-1.06.589-.864v-1.178l-.589-1.178-1.02-.904-1.647 1.491-2.28.865-2.985.392-2.67-.116-2.945-.786-1.806-.982-1.149-1.311-.579-.967zM43.359 241.487l.321 2.028 3.039.961 4.053.638 4.694-.266 3.625-.8 3.039-1.333 1.387-1.28.694-1.333.053-2.187-.907 1.334-1.919 1.599-2.881 1.227-3.519.746-5.066-.16-3.732-.533z"></path><radialGradient id="b" cx="119.495" cy="80.593" r="19.842" gradientUnits="userSpaceOnUse"><stop offset="0" stop-color="#fbd8a1"></stop><stop offset="1" stop-color="#fbc87d"></stop></radialGradient><path fill="url(#b)" d="M132.908 88.225l-2.152-4.876-3.295-4.48-4.963-5.141-6.106-4.788-4.476-2.82-.354-2.041-1.365-2.915-1.494-2.46-3.689-4.832-3.207-2.637-2.812-1.186-1.845.352-1.406.966-.985.944-.333-.373-4.174-2.899-3.954-1.45-3.339.264-4.682 2.489-2.521 2.212-2.817 3.636-4.08 1.416-3.141 2.313-3.67 3.793-2.987 4.657-1.8 5.096-.528 4.481.043 3.119.835 4.13 1.714 3.997 2.548 3.515 2.329 2.767 1.888 2.987 1.846 4.13 1.098 4.129.791 4.657.721 7.456.728 1.725 1.318 1.097 2.504 1.143 3.142.588h3.141l2.473-.549 1.727-.785 1.138-.942.51-2.787 1.06-3.769 1.256-2.551 1.1-1.609 1.962-1.453 1.923-.863 2.826-.706 3.089-.213 3.823-.176 3.293-.042 4.355-.588 4.867-.982 5.338-1.648 4.947-2.67 3.91-3.295 1.67-3.207.616-3.338z"></path><path fill="#FFF" d="M80.188 77.828l-2.629-1.57c-1.418-4.665-5.522-18.854 6.219-24.607 4.38.79 8.35 5.169 8.35 5.169l3.014 3.653 2.078 4.906.533 5.812-.586 5.492-3.173 1.813-5.333.879-5.064-.56-3.409-.987z"></path><path fill="#F9A565" d="M83.818 51.651c6.515-.208 13.666 5.865 14.171 16.899l-1.374-4.476-1.152-2.925-1.553-2.172-1.783-2.156-1.406-1.39-2.305-1.729-1.551-.975-1.197-.446-.9-.37-.95-.26zM102.717 52.361c-4.898-.981-.834 7.033 3.837 10.566 1.353 1.021-4.245-1.401-4.245-1.401l-4.716-6.144s-2.947-3.047-2.834-3.07c.114-.023 3.634-1.836 3.634-1.836s3.073.547 4.324 1.885zM73.17 56.101l-2.31 3.61s.91-2.03-.889-2.069c1.394-.909 3.199-1.541 3.199-1.541z"></path><path fill="#F9A565" d="M102.653 61.964c.524-.105.823.051 1.47.659.848 1.559 1.561 4.233 1.973 6.814-.877-2.517-3.443-7.473-3.443-7.473zM63.65 94.416c12.841 11.935 2.614 32.691 22.957 26.316-.24 3.2-14.799 4.08-15.758-.88-1.047-5.413 1.282-11.998-7.199-25.436z"></path><path fill="#D1F1FD" d="M77.559 76.258c1.828.831 11.693 6.252 19.607.426 0 0 .51-2.7.421-3.322-6.701 7.912-20.028 2.896-20.028 2.896z"></path><path fill="#E1E1E1" d="M78.261 126.794c-5.545-.323-11.691-4.159-7.948-7.764-3.881 1.017-2.256 4.584-1.708 5.361.876 1.248 6.146 3.512 8.687 3.466 6.123-.111 10.305-2.149 10.489-2.866.073-.282.558-1.199.462-1.479-1.617 2.543-5.856 3.523-9.982 3.282z"></path><radialGradient id="c" cx="91.541" cy="137.281" r="60.041" gradientUnits="userSpaceOnUse"><stop offset="0" stop-color="#e59472"></stop><stop offset="1" stop-color="#d05f57"></stop></radialGradient><path fill="url(#c)" d="M67.609 122.532l.841 1.559 2.44 2 2.598.959 4 .76 4.16-.199 2.559-.639 2.28-.921 1.481-1.08.559-1.439 2.2 1.28 3.679 2.599 1.96 1.64 1.96 2.439 1.24 1.8 1.44 2.881 1.079 3.558.681 3.76.439 3.319.039 1.28-1.159.559-3.118.961-1.321-.961-4-1.519-4.119-.64-4.199.12-5.639.879-2.96.641-4.759-.641-3.64-.558-3.959-1.16-.8-.641.16-3.399.96-5.719.359-2.4-.08-1.04-.639-.68-1.36.081-1.88 1.28-1.52 1.838-1.16 2.361-.76 2.758-.439 2.68-.081 2.121-.76 1.16-.826 1.84-.107 1.919.854 1.573 1.307.611.773.095.679 1.56 1.4 1.639 2.319 1.24 2.68.321 3.52-.28 3.719-.8 4.879-1.281 2.92.602 6.44.719 7.758.32 2.28 1.279 2.52-.08 2.078-1.599 1.721-.56-.64 4.76-1.639 6.399-2.84 6.119-3.24 4.279-2.92 2.599-4.639 2.841-4.359 1.279-4.92.559-7.478-.959-5.839-2.84-5.52-5.078-2.719-3.761-2.8-5.479-1.92-6.758-.76-5.16.08-4.479.36-5.28.96-5.159 1.64-4.318 1.56-2.88 1.56-2.281 1.64-1.88 2.399-1.999 2.08-1.399 2.279-1.161z"></path><radialGradient id="d" cx="89.808" cy="120.396" r="43.99" gradientUnits="userSpaceOnUse"><stop offset="0" stop-color="#e59472"></stop><stop offset="1" stop-color="#d05f57"></stop></radialGradient><path opacity=".2" fill="url(#d)" d="M84.571 149.018l-.179.112-9.6 1.738-13.049-3.234.086-8.966-.126-6.124c-2.764 2.001-6.718 6.4-5.498 16.418-.469.509-1.379 1.533-1.525 2.282-.48 2.47.321 3.942 2.12 4.267.304.057 1.102-.066 1.396-.103 4.28 7.407 12.781 4.873 20.081 1.261a62.289 62.289 0 0 0 12.983 1.519c.785.4 3.178 1.298 4.312 1.356 2.562.133 4.733-1.411 4.804-2.773 1.172-.15 1.588-2.416 1.588-2.416l-.005-3.676-17.388-1.661z"></path><path fill="#FBC87D" d="M89.167 150.354l2.607.098 5.152-.435 4.063-.871 2.255-1.058-.223-3.513-1.056-5.953-2.453-5.758.906.481 1.707 1.759 1.28 1.813 1.173 2.079 1.227 3.358.638 2.881.351 3.403-.219 3.338-.434 1.379-1.378 1.16-2.759 1.015-4.136.582-5.296.145-7.4-.436-7.63-1.04 4.054-1.6 6.078-2.188z"></path><path fill="#F9A565" d="M94.271 156.495L97 157.654h2.335l1.722-1.006.392-.886z"></path><path fill="#FBC87D" d="M62.021 178.647l-1.677 4.01-2.625 5.467-2.477 5.541-1.24 4.228-1.022 4.883-.144 3.135.364 9.258.584 9.986.655 9.622 1.677.874 1.676.365 2.332-1.165-.437-10.498-.291-13.34.146-6.633 1.604-6.051 2.187-4.81 3.207-5.467 2.77-5.176-3.572-1.678zM85.785 183.313l7.361 12.174 2.26 5.102 1.823 5.248-.074 2.625-.073 8.092-.508 9.185-.803 9.184 1.676 1.021h2.407l1.529-.656 1.459-13.996.874-11.735v-4.521l-1.676-6.926-3.864-9.839-3.133-6.489-1.605-3.279-3.426 2.552z"></path><radialGradient id="e" cx="84.135" cy="134.606" r="40.185" gradientUnits="userSpaceOnUse"><stop offset="0" stop-color="#d78361"></stop><stop offset="1" stop-color="#bf5850"></stop></radialGradient><path fill="url(#e)" d="M83.783 134.466c-7.029.547-11.854.425-17.054-1.057 4.864 1.997 8.651 2.369 15.757 2.271 6.094-.083 9.16-.977 12.906-2.557-2.545.514-5.893.899-11.609 1.343z"></path><radialGradient id="f" cx="83.058" cy="136.096" r="38.473" gradientUnits="userSpaceOnUse"><stop offset="0" stop-color="#eda281"></stop><stop offset="1" stop-color="#da736a"></stop></radialGradient><path fill="url(#f)" d="M83.783 135.106c-5.852.457-9.982.506-16.669-1.511 4.554 2.142 7.848 3.15 14.954 3.053 6.093-.084 11.686-1.653 13.867-3.729-2.189.73-6.436 1.74-12.152 2.187z"></path><radialGradient id="g" cx="84.92" cy="135.683" r="38.365" gradientUnits="userSpaceOnUse"><stop offset="0" stop-color="#d78361"></stop><stop offset="1" stop-color="#bf5850"></stop></radialGradient><path fill="url(#g)" d="M85.301 142.222c-8.061.67-13.732.026-19.371-1.492 5.521 2.339 9.142 2.422 17.014 2.422 7.112 0 12.372-.941 16.087-2.902-2.08.579-7.74 1.475-13.73 1.972z"></path><radialGradient id="h" cx="83.772" cy="135.917" r="38.589" gradientUnits="userSpaceOnUse"><stop offset="0" stop-color="#eda281"></stop><stop offset="1" stop-color="#da736a"></stop></radialGradient><path fill="url(#h)" d="M85.621 142.915c-7.099.467-13.373-.221-19.37-2.059 5.521 2.34 9.251 3.398 17.123 3.398 7.112 0 13.153-1.26 15.892-4.096-2.008.64-7.299 2.339-13.645 2.757z"></path><radialGradient id="i" cx="83.227" cy="133.986" r="43.8" gradientUnits="userSpaceOnUse"><stop offset="0" stop-color="#d78361"></stop><stop offset="1" stop-color="#bf5850"></stop></radialGradient><path fill="url(#i)" d="M85.541 160.112c-5.332.188-12.723.604-24.24-2.105 6.146 1.977 13.77 2.84 22 2.853 6.787.011 12.42-.552 16.772-1.821-3.868.487-9.226.888-14.532 1.073z"></path><radialGradient id="j" cx="81.608" cy="132.084" r="46.93" gradientUnits="userSpaceOnUse"><stop offset="0" stop-color="#eda281"></stop><stop offset="1" stop-color="#da736a"></stop></radialGradient><path fill="url(#j)" d="M85.688 160.567c-5.332.188-12.784.238-24.581-2.618 6.146 1.976 14.469 3.808 22.701 3.82 6.788.011 12.665-.749 16.697-2.813-3.499.678-9.511 1.423-14.817 1.611z"></path><radialGradient id="k" cx="83.143" cy="134.485" r="43.125" gradientUnits="userSpaceOnUse"><stop offset="0" stop-color="#d78361"></stop><stop offset="1" stop-color="#bf5850"></stop></radialGradient><path fill="url(#k)" d="M84.048 168.965c-4.487.097-9.144.372-20.129-1.226 4.941 1.181 11.847 2.076 18.388 2.163 5.939.081 10.822-.821 14.859-1.918-3.109.37-9.398.902-13.118.981z"></path><radialGradient id="l" cx="81.516" cy="128.107" r="50.782" gradientUnits="userSpaceOnUse"><stop offset="0" stop-color="#eda281"></stop><stop offset="1" stop-color="#da736a"></stop></radialGradient><path fill="url(#l)" d="M84.207 169.444c-4.486.097-9.364.109-20.486-1.739 5.453 1.448 12.312 2.858 18.852 2.946 5.939.08 11.501-.887 14.967-2.806-3.946 1.013-9.613 1.519-13.333 1.599z"></path><radialGradient id="m" cx="83.293" cy="134.472" r="43.188" gradientUnits="userSpaceOnUse"><stop offset="0" stop-color="#d78361"></stop><stop offset="1" stop-color="#bf5850"></stop></radialGradient><path fill="url(#m)" d="M82.129 177.363c-3.285.038-3.444.161-12.348-.6 3.612.731 7.036 1.021 10.924 1.2 3.44.16 6.969-.387 9.368-.867-2.719.04-5.599.241-7.944.267z"></path><radialGradient id="n" cx="81.608" cy="129.547" r="48.558" gradientUnits="userSpaceOnUse"><stop offset="0" stop-color="#eda281"></stop><stop offset="1" stop-color="#da736a"></stop></radialGradient><path fill="url(#n)" d="M83.835 177.631c-3.279.16-5.253.426-14.225-.887 3.613.731 7.902 1.621 11.792 1.802 3.438.16 7.324-.462 9.204-1.582-2.96.533-4.455.553-6.771.667z"></path><radialGradient id="o" cx="86.134" cy="147.892" r="9.658" gradientUnits="userSpaceOnUse"><stop offset="0" stop-color="#fbd08f"></stop><stop offset="1" stop-color="#fbc87d"></stop></radialGradient><path fill="url(#o)" d="M64.637 132.022l.436.943-.291 1.886-.724 4.427-.291 3.047-.218 3.047.144 5.733 1.162.654 4.933-1.453 7.184-2.175 4.79-1.017 5.731-.799 4.498.437 3.265.942 2.39.953 1.528 1.006-5.586.871-4.57-.145-3.629 1.452-7.184 2.611-5.877 1.67-4.426.797-3.338.146-2.756-.943-2.105-1.234-1.523-2.539-1.089-7.546.145-2.25.944-4.644 1.595-3.193 1.597-1.814 1.886-.943z"></path><radialGradient id="p" cx="56.613" cy="147.847" r="3.225" gradientUnits="userSpaceOnUse"><stop offset="0" stop-color="#fbd08f"></stop><stop offset="1" stop-color="#fbc87d"></stop></radialGradient><path fill="url(#p)" d="M75.812 147.841l-6.748-.727-3.36-1.453-2.773-.799-2.865-.432-1.886.217-1.302.908-.586.88-.614 1.253-.32 1.333.214 1.306.56 1.015.853.719 1.34.059 1.669-1.306h2.175l1.96.436.726.509 1.306-.436 9.142-2.676 1.492-.373z"></path><path fill="#F9A565" d="M89.914 150.78c-4.533 1.493-6.879 4.641-6.879 4.641l-5.493-.64 3.358-1.334 4.693-1.653 3.424-1.415 1.536.028-.639.373zM64.744 151.969s-4.638-.914-5.545 1.731c-.126.364-.74-1.958-.74-1.958l1.858-1.175 2.453.054 1.494.693.48.655z"></path><radialGradient id="q" cx="49.209" cy="92.711" r="91.838" gradientUnits="userSpaceOnUse"><stop offset="0" stop-color="#d78361"></stop><stop offset="1" stop-color="#bf5850"></stop></radialGradient><path fill="url(#q)" d="M60.037 127.011c-11.307 14.418-9.825 60.912 30.569 52.992.164.109-3.649 2.705-7.465 3.627-3.597.868-7.948.85-7.948.85l-7.337-2.232-5.955-4.041-4.466-5.317-4.042-7.869-1.807-7.444-.638-6.061.745-8.401 1.381-5.849 2.578-5.294 1.995-3 2.39-1.961z"></path><path fill="#F9A565" d="M60.447 182.812s2.385 2.078 8.114 1.234c.736-1.271.749-1.17.749-1.17l-4.14-2.072-2.933-2.188-1.79 4.196zM89.877 180.937l-3.84 1.92s.47.768 1.473 2.439c3.555-1.016 6.588-5.589 6.588-5.589l-.67-1.267-3.551 2.497z"></path><path fill="#E1E1E1" d="M44.547 241.704c.169.262.013 1.872 3.432 2.69 1.432.341-3.473-.454-3.473-.454l-2.106-1.253-1.013-1.812.161-.8 2.999 1.629z"></path><path fill="#FFF" d="M93.86 240.902l.052 2.187 3.573 1.705 3.839.588 4.375.265 2.719-.32 3.52-.745 1.492-.961.533-.853.428-1.92-.854.639-1.812 1.228-3.734.639-3.732.108-3.306-.321-3.36-.693z"></path><path fill="#E1E1E1" d="M91.422 238.353l.301 1.857 1.417 2.32 2.275 1.395 2.854.975s-2.931-1.495-2.791-3.143c-.627-.512-1.99-1.57-1.99-1.57l-2.066-1.834z"></path><g><path d="M70.792 59.835c3.579-5.346 8.909-11.938 15.798-11.298 6.156.571 15.977 11.804 19.708 21.538-2.783-10.534-12.31-21.897-19.458-22.62-7.203-.728-12.532 4.73-16.048 12.38z"></path></g><g><path d="M56.893 73.261c-1.946 8.068.462 15.787 5.886 21.226 7.191 7.208 7.208 22.727 7.26 24.504.12.679.858 4.07 6.97 4.941 7.729 1.102 9.791-2.464 9.891-2.606l.033-.045.014-.056c1.848-7.208 1.856-13.414 13.584-13.459 23.922-.094 33.834-8.308 33.647-16.453-.3-13.213-19.245-25.416-31.859-30.396l.587 1.458c12.456 4.918 30.088 18.083 29.914 29.391-.122 7.889-11.052 14.875-32.662 15.176-12.286.171-12.26 8.091-13.797 14.061-.166.213-3.363 2.984-9.628 1.738-4.442-.884-5.165-2.629-5.483-3.687-.053-1.772.16-16.559-8.011-25.312-5.085-5.448-6.888-12.996-5.254-20.147 1.642-7.19 6.968-14.281 14.266-16.491l.854-1.529c-7.846 2.207-14.12 9.016-16.212 17.686z"></path></g><g><path d="M94.793 51.88l.844.696c1.496-1.344 2.974-2.364 5.209-1.278 2.433 1.184 9.537 8.122 10.744 14.213l.693.237c-1.516-7.604-8.793-14.193-11.303-15.414-2.691-1.309-4.159-.112-6.187 1.546z"></path></g><g><path d="M99.871 28.212c-14.812 3.154-23.767 23.21-24.141 24.062l1.115-.451c3.229-6.754 11.324-20.644 22.93-23.115 6.5-1.384 13.316.688 19.852 6.626l.436-.111c-6.692-6.08-13.486-8.439-20.192-7.011z"></path></g><g><path d="M66.189 2.029c23.059 8.454 11.87 40.321 8.366 50.531l-.631 1.868 1.209-1.545c3.552-10.35 14.375-41.968-8.593-50.998l-.351.144z"></path></g><g><path d="M94.213 59.705c2.111 3.016 3.684 7.365 3.006 14.059-.09.891-.236 1.817-.434 2.772-4.377 3.958-14.578 2.753-19.386-.423 3.732 3.811 15.398 5.119 19.999.822l.071-.067.021-.096c1.779-8.417-.293-13.892-2.768-17.425-3.305-4.719-8.049-7.277-11.031-7.716 3.028.748 7.325 3.507 10.522 8.074z"></path><ellipse transform="rotate(12.239 85.625 61.609)" cx="85.629" cy="61.612" rx="5.936" ry="8.517"></ellipse><ellipse transform="rotate(12.231 84.86 58.808)" fill="#FFF" cx="84.846" cy="58.789" rx="2.662" ry="3.475"></ellipse><ellipse transform="rotate(12.258 86.267 66.7)" fill="#FFF" cx="86.259" cy="66.696" rx="1.29" ry="1.569"></ellipse></g><g><circle cx="64.856" cy="1.799" r="1.798"></circle></g><g><circle cx="120.621" cy="36.497" r="1.799"></circle></g><g><path d="M80.604 105.579c3.886-1.928 12.431.389 14.269 2.302l.793-.391c-1.994-2.077-11.037-4.652-15.062-1.911z"></path></g><g><path d="M67.194 121.659c-.261 2.5 3.272 5.797 9.041 6.399 4.74.495 9.473-.856 11.334-2.393.666-.552 1.149-1.239 1.21-1.822.103-.977-.587-2.408-1.942-3.105l-.27.523c1.082.557 1.643 1.711 1.559 2.505-.043.417-.348.866-.881 1.3-1.738 1.407-6.029 2.649-10.563 2.177-5.702-.595-8.917-3.698-8.712-5.66.097-.93.861-2.096 2.711-2.583l-.15-.569c-2.143.564-3.22 2.104-3.337 3.228z"></path></g><g><path d="M50.692 152.554c.202 9.971 4.217 19.929 10.682 25.9 4.837 4.469 11.004 6.975 17.495 6.592 14.152-.833 23.979-12.828 24.68-29.928l-.877.141c-1.223 16.928-10.676 27.461-23.795 28.213-6.293.361-12.085-1.787-16.646-5.877-6.413-5.752-10.477-15.328-10.675-25.111-.323-15.9 4.742-25.353 16.26-29.866l-.26-.666c-11.836 4.638-17.193 14.361-16.864 30.602z"></path></g><g><path d="M60.272 133.401c-2.179 2.494-3.216 5.797-3.584 11.402l-.067.845.78-.798c.441-6.723 1.899-9.251 3.408-10.979 1.222-1.399 2.806-1.972 3.519-1.627.445.213.445.778.366 1.215-.728 4.023-1.415 7.824-1.456 11.667l.715.007c.041-3.783.723-7.555 1.445-11.547.235-1.297-.375-1.802-.759-1.988-1.122-.537-2.998.235-4.367 1.803z"></path></g><g><path d="M88.486 123.699c7.254 4.662 12.418 7.949 14.058 19.613.323 2.293.364 3.785.364 4.398 0 .074-.002.065-.002.113-3.955 2.348-13.767 1.98-13.865 1.975l-.086-.004-.08.036c-.062.029-6.346 2.905-12.965 4.833-7.15 2.083-14.967 3.778-17.204-2.527l-.673.238c2.65 7.471 12.306 4.656 18.075 2.977 6.282-1.83 12.28-4.172 13.013-4.504.918.038 10.266.037 14.195-2.457l.349-.191v-.24c.003-.068-.05-1.499-.491-4.639-1.686-11.988-7.111-15.421-14.559-20.131l-.129.51z"></path></g><g><path d="M99.075 132.36c5.005 4.406 7.995 11.141 7.165 19.369-.078.785-.476 1.438-1.211 1.999-5.602 4.266-27.5.604-27.721.565l-.577.75c.913.156 22.794 3.925 28.64-.527.891-.678 1.522-1.734 1.58-2.715.506-8.578-2.359-15.805-8.174-20.082l.298.641z"></path></g><g><path d="M56.801 145.167c-1.653 1.684-2.137 4.102-1.553 5.303.537 1.104 1.223 1.771 2.038 1.984.826.217 1.353-.205 1.353-.205.917-1.184 3.268-1.674 5.992-.32l.109.056.122-.025c1.876-.392 4.138-1.081 6.532-1.809 6.705-2.04 15.049-4.579 21.83-2.851 1.85.471 4.365 1.426 5.52 2.409l.464-.544c-1.249-1.064-3.815-2.051-5.808-2.558-5.104-1.3-10.443-.415-15.898 1.04.004-.025-4.52-.285-4.52-.285-1.293-.114-2.785-.065-6.238-1.665-4.623-2.141-8.751-1.745-9.943-.53zm-.91 4.99c-.469-.963 0-3.043 1.42-4.49 1.06-1.08 4.927-1.318 9.134.679 3.473 1.648 5.037 1.587 6.499 1.702 0 0 1.226.08 2.455.17-1.451.412-2.865.84-4.212 1.25-2.34.711-4.548 1.381-6.376 1.77-2.706-1.567-5.749-.95-6.384.254-.857.593-2.095-.427-2.536-1.335z"></path></g><g><path d="M99.236 157.011c-.939.297-2.372.254-4.539-.856l-.845.423c2.153 1.592 4.671 1.698 5.759 1.4 1.117-.305 2.178-1.264 2.695-2.246l-1.268-.053c-.423.72-1.028 1.088-1.802 1.332z"></path></g><g><path d="M42.047 140.482c-3.219 13.985 1.645 31.618 19.767 39.489l.284-.654c-17.746-7.707-22.508-24.979-19.355-38.674 3.043-13.228 12.767-20.664 24.769-18.946l.1-.708c-12.397-1.773-22.431 5.878-25.565 19.493z"></path></g><g><path d="M59.548 183.254c-3.074 6.115-6.2 12.37-7.017 20.373-.304 7.279.549 16.311 1.272 25.851l.409 5.455.11.098c.958.83 2.22 1.49 3.434 1.393a3.763 3.763 0 0 0 2.571-1.358l.083-.1-.01-.446c0-2.907-.146-6.732-.29-10.912-.229-6.594-.488-14.066-.27-19.312 1.629-7.573 3.928-10.874 6.473-15.177.97-1.64 2.221-3.471 3.574-5.726l-1.253-.46c-1.164 2.244-2.21 4.014-3.222 5.724-2.58 4.358-4.618 7.802-6.277 15.549a114.2 114.2 0 0 0-.088 4.785c0 4.567.183 9.837.349 14.641.143 4.103.205 8.009.21 10.888-.496.546-1.152.867-1.972.934-.98.08-1.94-.251-2.732-.896l-.385-5.133c-.602-7.938-1.177-15.508-1.177-21.988 0-1.291.022-2.537.072-3.734.801-7.852 3.952-14.117 6.998-20.174l2.16-4.383-.835-.746-2.187 4.854z"></path></g><g><path d="M92.953 178.884l1.813 3.36c3.657 7.118 7.235 14.708 8.536 22.688.03.775.044 1.58.044 2.41 0 6.789-.934 15.244-1.7 22.186l-.588 5.518c-.606.451-1.604.691-2.612.593-.949-.093-1.744-.474-2.239-1.026l.258-3.291c.463-5.795 1.121-14.037 1.121-21.18 0-1.509-.029-2.969-.097-4.346-1.995-8.154-5.149-13.407-9.144-20.054l-1.888-3.158-1.183.673 2.064 3.155c4.117 6.853 7.486 11.504 9.445 19.485.372 7.784-.473 18.365-1.033 25.367l-.283 3.909.091.11c.613.757 1.614 1.24 2.817 1.356 1.258.123 2.502-.479 3.246-1.101l.111-.093.621-5.841c.863-7.812 2.024-17.545 1.743-24.752-1.325-8.137-6.122-18.549-8.372-23.197-1.041-2.15-1.76-3.573-1.76-3.573l-1.011.802z"></path></g><g><path d="M101.751 233.019l1.8.16c5.654.748 10.76 4.323 10.402 7.02-.068.52-.369.987-.893 1.389-1.858 1.424-7.679 1.944-12.578 1.295-5.996-.793-8.795-3.761-8.461-6.283.176-1.326 1.627-2.875 4.062-3.268l-.115-.706c-2.778.449-4.445 2.291-4.656 3.88-.442 3.352 3.374 6.331 9.076 7.086 3.914.518 10.64.453 13.105-1.438.682-.521 1.073-1.146 1.169-1.861.401-3.037-4.779-6.997-11.019-7.822l-1.865-.166-.027.714z"></path></g><g><path d="M92.079 241.821c1.438 1.91 4.555 3.425 8.134 3.875 6.062.764 11.307.055 13.236-1.709.933-.852 1.295-2.683 1.246-4.078l-.771.505c.042 1.194-.148 2.308-.952 2.996-1.809 1.546-6.889 2.084-12.657 1.378-3.333-.408-6.31-1.73-7.608-3.455-.909-1.209-.971-2.729-.72-4.342l-.706-.11c-.281 1.807-.23 3.575.798 4.94z"></path></g><g><path d="M52.52 232.12c-5.913.445-11.8 3.512-11.551 6.836.058.762.443 1.455 1.146 2.059 1.987 1.709 7.856 2.614 12.698 2.25 5.919-.445 10.036-3.145 9.789-6.42-.119-1.597-1.68-3.531-4.43-4.135l-.153.697c2.383.523 3.773 2.189 3.87 3.492.216 2.861-3.625 5.238-9.13 5.652-4.666.352-10.326-.484-12.18-2.078-.554-.479-.857-1.006-.899-1.57-.193-2.568 4.902-5.619 10.892-6.07l1.805-.057.011-.715-1.868.059z"></path></g><g><path d="M63.95 237.315c.148 1.502.101 2.893-.993 3.96-1.568 1.53-4.929 2.952-8.451 3.194-3.93.27-9.947-.234-11.867-2.234-.761-.794-.956-1.84-1.007-3.11l-.669-.499c-.131 1.424.179 3.289 1.089 4.223 2.346 2.399 8.597 2.824 12.676 2.542 3.719-.255 7.298-1.729 8.842-3.556 1.049-1.24 1.239-2.43 1.029-4.9l-.649.38z"></path></g><path d="M65.65 123.303l1.828-.893.062-1.091-4.215-.217-4.114.7-3.135.915-2.925 1.409-3.134 2.397-2.327 2.43-1.796 2.361-1.127 1.902-1.09 2.943-1.07 3.073-.83 4.353-.374 6.894.977 6.646 2.118 5.847 2.627 4.601 3.281 4.205 4.06 3.707 3.688 2.404 3.811 1.782.435-.998-3.364-3.436-3.947-5.875-2.367-5.705-1.641-7.849-.084-7.666 1.122-7.061 1.225-5.285 3.93-6.104 4.554-4.281z"></path><g><circle fill="#FFF" cx="65.2" cy="1.486" r=".757"></circle></g><g><circle fill="#FFF" cx="120.951" cy="36.112" r=".757"></circle></g><path d="M54.376 232.421l.239 2.332 1.503 1.068 1.503.238 1.819-.713.592-.593.041-1.582 1.502.356 1.938 1.582.713 1.464v1.621l-.554.91-1.028 1.147-2.571 1.543-2.572.75-3.638.475H50.58l-2.888-.475-2.972-.711-1.661-.83-1.62-1.266.275-2.237 1.266-1.284 1.779-1.502 2.34-.91 2.571-.869 1.899-.357zM92.228 239.183l1.264 1.463 1.504 1.029 2.293.949 2.373.555 2.492.314 3.242.04 3.206-.354 2.419-.437 1.608-.582 1.469-.993.014-2.02-1.112-1.869-2.059-1.734-2.38-1.147-1.78-.712-1.699-.553-1.346-.238-1.938-.237-.356 2.729-1.027.474-1.583.278-1.662-.317-.829-.435-.475-.594.079-1.66-1.187.238-1.227.553-.988.949-.75 1.107-.158 1.187z"></path><g opacity=".35"><linearGradient id="r" gradientUnits="userSpaceOnUse" x1="86.962" y1="68.531" x2="83.631" y2="53.913"><stop offset="0" stop-color="#83c1fc"></stop><stop offset="1" stop-color="#0a1519"></stop></linearGradient><path fill="url(#r)" d="M83.809 69.936c3.203.695 6.609-2.469 7.606-7.065.627-2.891.15-5.659-1.085-7.489a21.236 21.236 0 0 0-2.794-2.058c-.04-.01-.077-.026-.117-.035-3.204-.694-6.608 2.468-7.606 7.065-.998 4.597.791 8.887 3.996 9.582zm-2.743-10.521c.71-3.582 3.128-6.084 5.399-5.59 2.271.494 3.536 3.797 2.827 7.379-.713 3.58-3.133 6.082-5.402 5.589-2.271-.493-3.536-3.798-2.824-7.378z"></path></g><radialGradient id="s" cx="119.659" cy="37.339" r="3.037" gradientUnits="userSpaceOnUse"><stop offset="0" stop-color="#9e4d55"></stop><stop offset=".579" stop-color="#68092b"></stop></radialGradient><circle fill="url(#s)" cx="120.64" cy="36.471" r="1.454"></circle><radialGradient id="t" cx="63.937" cy="2.858" r="3.223" gradientUnits="userSpaceOnUse"><stop offset="0" stop-color="#9e4d55"></stop><stop offset=".579" stop-color="#68092b"></stop></radialGradient><circle fill="url(#t)" cx="64.847" cy="1.809" r="1.454"></circle><linearGradient id="u" gradientUnits="userSpaceOnUse" x1="54.858" y1="171.801" x2="54.858" y2="129.698"><stop offset="0" stop-color="#83c1fc"></stop><stop offset="1" stop-color="#0a1519"></stop></linearGradient><path opacity=".35" fill="url(#u)" d="M61.562 178.483c-6.317-5.887-10.75-15.944-10.949-25.757-.323-15.898 4.53-25.586 16.627-30.384-.099-.48-.009-.781-.009-.781-11.979-.95-20.685 6.229-23.977 19.808-3.199 13.198 3.6 30.556 18.076 37.565.102-.203.191-.361.232-.451z"></path><path opacity=".35" fill="#5E747C" d="M59.161 122.855c-4.055 1.072-8.905 5.682-9.767 7.682-.38.88 1.337 1.528 2.042.753 1.785-1.96 3.254-5.038 7.725-8.435zM48.14 136.048c-.928-.479-.769-1.949.052-3.359.482-.828 2.391-.309 2.04.429-.863 1.818-1.172 3.404-2.092 2.93z"></path><g><circle fill="#FFF" cx="65.2" cy="1.486" r=".757"></circle></g><g><circle fill="#FFF" cx="120.951" cy="36.112" r=".757"></circle></g><rect width="145" height="145" rx="10" ry="10" y="-9.5" x="13.5" stroke="#fff" fill="url(#v)" fill-opacity="0" stroke-width="5"></rect><linearGradient id="w" gradientUnits="userSpaceOnUse" x1="43.431" y1="238.73" x2="63.721" y2="236.614"><stop offset="0" stop-color="#83c1fc"></stop><stop offset="1" stop-color="#0a1519"></stop></linearGradient><path opacity=".35" fill="url(#w)" d="M54.032 233.046c.066.932.11 1.33.149 1.961 1.381 1.949 4.431 2.029 6.27.039.01-.5-.004-.832-.017-1.117 1.857.717 3.089 1.883 3.162 3.135.146 2.506-4.236 5.011-9.869 5.216-5.547.201-11.43-1.051-11.576-3.559s5.223-5.304 10.764-5.627c.307-.018.816-.043 1.117-.048z"></path><path opacity=".35" fill="#5E747C" d="M48.498 240.822c-2.462.161-5.071-.948-5.213-2.312-.096-.914.809-2.401 3.385-2.906-.858 1.678-.335 3.763 1.828 5.218z"></path><linearGradient id="x" gradientUnits="userSpaceOnUse" x1="151.715" y1="238.372" x2="136.041" y2="238.788" gradientTransform="scale(-1 1) rotate(-1.249 -4.84 11537.773)"><stop offset="0" stop-color="#83c1fc"></stop><stop offset="1" stop-color="#0a1519"></stop></linearGradient><path opacity=".35" fill="url(#x)" d="M101.994 233.216c-.086.93-.135 1.274-.188 1.902-1.422 1.92-4.558 1.912-6.354-.117.002-.5.109-1.042.13-1.325-2.101.662-3.251 2.14-3.352 3.388-.2 2.504 4.016 5.262 9.548 5.705 5.531.443 11.737-.153 11.938-2.656.201-2.504-5.299-6.393-10.832-6.836a19.471 19.471 0 0 0-.89-.061z"></path><path opacity=".35" fill="#5E747C" d="M106.781 241.739c2.42.546 5.215-.209 5.605-1.608.262-.938-.369-2.629-2.841-3.554.551 1.882-.35 3.977-2.764 5.162z"></path></svg>