<svg xmlns="http://www.w3.org/2000/svg" version="1.1" x="0" y="0" viewBox="0 0 150 150" xml:space="preserve" width="150" height="150"><style type="text/css" id="style2">.st1{fill:#fff}.st3{fill:#f9a565}</style><linearGradient id="SVGID_1_" gradientUnits="userSpaceOnUse" x1="31.084" y1="205.977" x2="31.084" y2="89.737" gradientTransform="matrix(1.1948 0 0 -1.2474 37.86 259.44)"><stop offset="0" id="stop4" stop-color="#9174a2"></stop><stop offset="1" id="stop6" stop-color="#9075a4"></stop></linearGradient><path d="M12.5 2.5h125c5.5 0 10 4.5 10 10v125c0 5.5-4.5 10-10 10h-125c-5.5 0-10-4.5-10-10v-125c0-5.5 4.5-10 10-10z" id="path9" fill="url(#SVGID_1_)" stroke="#fff" stroke-width="5"></path><path class="st1" id="polygon11" fill="#fff" d="M65.2 139.6l2.9.2 2-.2 2.9-.6 2.2-.8 1.6-1.1.6-.8v-1.2l-.6-1.2-1-.9-1.7 1.5-2.3.9-3 .4-2.6-.2-3-.7-1.8-1-1.1-1.3-.6-1-.2-.8-.9.3-1 .7-.7 1-.3.8.1 1.3.6.9 1.6 1.7 1.8 1 1.8.6z"></path><radialGradient id="SVGID_2_" cx="108.495" cy="59.407" r="19.842" gradientTransform="matrix(1 0 0 -1 0 152)" gradientUnits="userSpaceOnUse"><stop offset="0" id="stop13" stop-color="#fbd8a1"></stop><stop offset="1" id="stop15" stop-color="#fbc87d"></stop></radialGradient><path d="M121.9 100.2l-2.2-4.9-3.3-4.5-5-5.1-6.1-4.8-4.5-2.8-.4-2-1.4-2.9-1.5-2.5-3.5-4.8-3.2-2.6L88 62l-1.8.4-1.4 1-1 .9-.3-.4-4.2-2.9-4-1.5-3.3.4-4.7 2.5-2.5 2.2-2.8 3.6-4.1 1.4-3.1 2.3-3.8 3.8-3 4.7-1.8 5.1-.5 4.5v3.1l.8 4.1 1.7 4 2.5 3.5 2.3 2.8 1.9 3 1.8 4.1 1.1 4.1.8 4.7.7 7.5.7 1.7 1.3 1.1 2.5 1.1 3.1.6H70l2.5-.5 1.7-.8 1.1-.9.5-2.8 1.1-3.8 1.3-2.6 1.1-1.6 2-1.5 1.9-.9 2.8-.7 3.1-.2 3.8-.2h3.3l4.4-.6 4.9-1 5.3-1.6 4.9-2.7 3.9-3.3 1.7-3.2.6-3.3z" id="path18" fill="url(#SVGID_2_)"></path><path class="st1" d="M69.2 89.8l-2.6-1.6c-1.4-4.7-5.5-18.9 6.2-24.6 4.4.8 8.3 5.2 8.3 5.2l3 3.7 2.1 4.9.5 5.8-.6 5.5-3.1 1.8-5.3.9-5.1-.6-3.4-1z" id="path20" fill="#fff"></path><path class="st3" d="M72.8 63.7c6.5-.2 13.7 5.9 14.2 16.9l-1.4-4.5-1.2-2.9-1.5-2.2-1.8-2.2-1.4-1.4-2.3-1.7-1.6-1-1.2-.4-.9-.4zm18.9.7c-4.9-1-.8 7 3.8 10.6 1.4 1-4.2-1.4-4.2-1.4l-4.7-6.1s-2.9-3-2.8-3.1c.1 0 3.6-1.8 3.6-1.8s3.1.4 4.3 1.8zm-29.5 3.7l-2.3 3.6s.9-2-.9-2.1c1.4-.9 3.2-1.5 3.2-1.5z" id="path22" fill="#f9a565"></path><path class="st3" d="M91.7 74c.5-.1.8.1 1.5.7.8 1.6 1.6 4.2 2 6.8-1-2.6-3.5-7.5-3.5-7.5zm-39 32.4c12.8 11.9 2.6 32.7 23 26.3-.2 3.2-14.8 4.1-15.8-.9-1.1-5.4 1.2-11.9-7.2-25.4z" id="path24" fill="#f9a565"></path><path d="M66.6 88.3c1.8.8 11.7 6.3 19.6.4 0 0 .5-2.7.4-3.3-6.7 7.9-20 2.9-20 2.9z" id="path26" fill="#d1f1fd"></path><path d="M67.3 138.8c-5.5-.3-11.7-4.2-7.9-7.8-3.9 1-2.3 4.6-1.7 5.4.9 1.2 6.1 3.5 8.7 3.5 6.1-.1 10.3-2.1 10.5-2.9.1-.3.6-1.2.5-1.5-1.8 2.6-6 3.5-10.1 3.3z" id="path28" fill="#e1e1e1"></path><radialGradient id="SVGID_3_" cx="80.541" cy="2.719" r="60.041" gradientTransform="matrix(1 0 0 -1 0 152)" gradientUnits="userSpaceOnUse"><stop offset="0" id="stop30" stop-color="#e59472"></stop><stop offset="1" id="stop32" stop-color="#d05f57"></stop></radialGradient><path d="M47.8 148.7l.8-1.7 1.5-1.8L52 144l1.4-.1.6.7.1 1-.4 2.4-.2.9h.7c1.9 0 3.7 0 5.6.1 6.1.2 12.3.6 18.4.6 4 0 7.9-.6 11.8-1l-.2-.5-1.4-2.9-1.2-1.8-2-2.4-2-1.6-3.7-2.6-2.2-1.3-.3 1.5-1.5 1.1-2.3.9-2.6.6-4.2.2-4-.8-2.6-1-2.4-2-.8-1.6-2 .7-2.3 1.2-2.1 1.4-2.4 2-1.6 1.9-1.6 2.3-1.6 2.9-.7 1.9h5.5z" id="path35" fill="url(#SVGID_3_)"></path><radialGradient id="SVGID_4_" cx="78.808" cy="19.604" r="43.99" gradientTransform="matrix(1 0 0 -1 0 152)" gradientUnits="userSpaceOnUse"><stop offset="0" id="stop37" stop-color="#e59472"></stop><stop offset="1" id="stop39" stop-color="#d05f57"></stop></radialGradient><path d="M50.8 148.8l-.1-4.3c-1.2.9-2.6 2.2-3.7 4.2 1.2 0 2.5.1 3.8.1z" id="path42" opacity=".2" fill="url(#SVGID_4_)"></path><path d="M92.1 148.5l-1-1.4-1.7-1.8-.9-.5 1.6 3.8c.7 0 1.4 0 2-.1z" id="path44" fill="#fbc87d"></path><radialGradient id="SVGID_5_" cx="73.135" cy="5.394" r="40.185" gradientTransform="matrix(1 0 0 -1 0 152)" gradientUnits="userSpaceOnUse"><stop offset="0" id="stop46" stop-color="#d78361"></stop><stop offset="1" id="stop48" stop-color="#bf5850"></stop></radialGradient><path d="M72.8 146.5c-7 .5-11.9.4-17.1-1.1 4.9 2 8.7 2.4 15.8 2.3 6.1-.1 9.2-1 12.9-2.6-2.6.5-5.9.9-11.6 1.4z" id="path51" fill="url(#SVGID_5_)"></path><radialGradient id="SVGID_6_" cx="72.058" cy="3.904" r="38.473" gradientTransform="matrix(1 0 0 -1 0 152)" gradientUnits="userSpaceOnUse"><stop offset="0" id="stop53" stop-color="#eda281"></stop><stop offset="1" id="stop55" stop-color="#da736a"></stop></radialGradient><path d="M72.8 147.1c-5.9.5-10 .5-16.7-1.5 4.6 2.1 7.8 3.1 15 3.1 6.1-.1 11.7-1.7 13.9-3.7-2.3.6-6.5 1.7-12.2 2.1z" id="path58" fill="url(#SVGID_6_)"></path><radialGradient id="SVGID_7_" cx="75.134" cy="-7.892" r="9.658" gradientTransform="matrix(1 0 0 -1 0 152)" gradientUnits="userSpaceOnUse"><stop offset="0" id="stop60" stop-color="#fbd08f"></stop><stop offset="1" id="stop62" stop-color="#fbc87d"></stop></radialGradient><path d="M53.4 148.9l.3-2.1.3-1.9-.4-.9-1.4-.1-1.9.9-1.6 1.8-1 2c2 .2 3.8.2 5.7.3z" id="path65" fill="url(#SVGID_7_)"></path><radialGradient id="SVGID_8_" cx="38.209" cy="47.289" r="91.838" gradientTransform="matrix(1 0 0 -1 0 152)" gradientUnits="userSpaceOnUse"><stop offset="0" id="stop67" stop-color="#d78361"></stop><stop offset="1" id="stop69" stop-color="#bf5850"></stop></radialGradient><path d="M44.5 148.7c1.1-3.9 2.6-7.3 4.5-9.7l-2.4 2-2 3-2.4 4.8c.8 0 1.6 0 2.3-.1z" id="path72" fill="url(#SVGID_8_)"></path><g id="g76"><path d="M59.8 71.8c3.6-5.3 8.9-11.9 15.8-11.3 6.2.6 16 11.8 19.7 21.5C92.5 71.5 83 60.2 75.8 59.5c-7.2-.8-12.5 4.7-16 12.3z" id="path74"></path></g><g id="g80"><path d="M45.9 85.3c-1.9 8.1.5 15.8 5.9 21.2C59 113.7 59 129.2 59 131c.1.7.9 4.1 7 4.9 7.7 1.1 9.8-2.5 9.9-2.6v-.1c1.8-7.2 1.9-13.4 13.6-13.5 23.9-.1 33.8-8.3 33.6-16.5-.3-13.2-19.2-25.4-31.9-30.4l.6 1.5c12.5 4.9 30.1 18.1 29.9 29.4-.1 7.9-11.1 14.9-32.7 15.2-12.3.2-12.3 8.1-13.8 14.1-.2.2-3.4 3-9.6 1.7-4.4-.9-5.2-2.6-5.5-3.7-.1-1.8.2-16.6-8-25.3-5.1-5.4-6.9-13-5.3-20.1 1.6-7.2 7-14.3 14.3-16.5l.9-1.5c-7.7 2.2-14 9-16.1 17.7z" id="path78"></path></g><g id="g84"><path d="M83.8 63.9l.8.7c1.5-1.3 3-2.4 5.2-1.3 2.4 1.2 9.5 8.1 10.7 14.2l.7.2c-1.5-7.6-8.8-14.2-11.3-15.4-2.6-1.3-4.1-.1-6.1 1.6z" id="path82"></path></g><g id="g88"><path d="M88.9 40.2c-14.8 3.2-23.8 23.2-24.1 24.1l1.1-.5c3.2-6.8 11.3-20.6 22.9-23.1 6.5-1.4 13.3.7 19.9 6.6l.4-.1c-6.7-6.1-13.5-8.4-20.2-7z" id="path86"></path></g><g id="g92"><path d="M55.2 14c23.1 8.5 11.9 40.3 8.4 50.5l-.6 1.9 1.2-1.5c3.6-10.3 14.4-42-8.6-51-.1 0-.4.1-.4.1z" id="path90"></path></g><g id="g102"><path d="M83.2 71.7c2.1 3 3.7 7.4 3 14.1-.1.9-.2 1.8-.4 2.8-4.4 4-14.6 2.8-19.4-.4 3.7 3.8 15.4 5.1 20 .8l.1-.1v-.1c1.8-8.4-.3-13.9-2.8-17.4-3.3-4.7-8-7.3-11-7.7 3 .7 7.3 3.4 10.5 8z" id="path94"></path><ellipse transform="rotate(-77.761 74.626 73.61)" cx="74.6" cy="73.6" rx="8.5" ry="5.9" id="ellipse96"></ellipse><ellipse transform="rotate(-77.766 73.854 70.786)" class="st1" cx="73.9" cy="70.8" rx="3.5" ry="2.7" id="ellipse98" fill="#fff"></ellipse><ellipse transform="rotate(-77.743 75.259 78.695)" class="st1" cx="75.3" cy="78.7" rx="1.6" ry="1.3" id="ellipse100" fill="#fff"></ellipse></g><g id="g106"><circle cx="53.9" cy="13.8" r="1.8" id="circle104"></circle></g><g id="g110"><circle cx="109.6" cy="48.5" r="1.8" id="circle108"></circle></g><g id="g114"><path d="M69.6 117.6c3.9-1.9 12.4.4 14.3 2.3l.8-.4c-2-2.1-11.1-4.7-15.1-1.9z" id="path112"></path></g><g id="g118"><path d="M56.2 133.7c-.3 2.5 3.3 5.8 9 6.4 4.7.5 9.5-.9 11.3-2.4.7-.6 1.1-1.2 1.2-1.8.1-1-.6-2.4-1.9-3.1l-.3.5c1.1.6 1.6 1.7 1.6 2.5 0 .4-.3.9-.9 1.3-1.7 1.4-6 2.6-10.6 2.2-5.7-.6-8.9-3.7-8.7-5.7.1-.9.9-2.1 2.7-2.6l-.2-.6c-2 .6-3.1 2.1-3.2 3.3z" id="path116"></path></g><g id="g122"><path d="M42.7 148.8c2.5-6.8 7.1-11.4 14.1-14.2l-.3-.7c-7.3 2.9-12.2 7.7-14.7 14.9h.9z" id="path120"></path></g><g id="g126"><path d="M48 148.8c.5-1.3 1.2-2.1 1.8-2.9 1.2-1.4 2.8-2 3.5-1.6.4.2.4.8.4 1.2-.2 1.2-.4 2.3-.6 3.5h.7c.2-1.1.4-2.2.6-3.4.2-1.3-.4-1.8-.8-2-1.1-.5-3 .2-4.4 1.8-.8 1-1.5 2.1-2 3.3.3 0 .5 0 .8.1z" id="path124"></path></g><g id="g130"><path d="M89.9 148.7c.2 0 .4 0 .6-.1-2.5-6.8-7.1-9.8-12.9-13.4l-.1.5c5.6 3.6 10 6.4 12.4 13z" id="path128"></path></g><g id="g134"><path d="M91.7 148.5h.6c-1.2-1.8-2.7-3.5-4.5-4.8l.3.6c1.4 1.3 2.6 2.7 3.6 4.2z" id="path132"></path></g><g id="g138"><path d="M32.6 149.6c3.7-11.3 12.9-17.5 23.9-16l.1-.7c-11.5-1.6-20.9 4.8-24.7 16.5.2.2.5.2.7.2z" id="path136"></path></g><path d="M33.3 149.7c2.2-.5 4.6-.7 6.6-.8.8-.1 1.5-.1 2.3-.1l.2-1 3.9-6.1 4.6-4.3 3.8-2.1 1.8-.9.1-1.1-4.2-.2-4.1.7-3.1.9-2.9 1.4-3.1 2.4-2.3 2.4-1.8 2.4-1.1 1.9-1.1 2.9-.5 1.4c.1.1.5.2.9.2z" id="path140"></path><g id="g144"><circle class="st1" cx="54.2" cy="13.5" r=".8" id="circle142" fill="#fff"></circle></g><g id="g148"><circle class="st1" cx="110" cy="48.1" r=".8" id="circle146" fill="#fff"></circle></g><g id="g157" opacity=".35"><linearGradient id="SVGID_9_" gradientUnits="userSpaceOnUse" x1="76.178" y1="71.518" x2="72.847" y2="86.136" gradientTransform="matrix(1 0 0 -1 0 152)"><stop offset="0" id="stop150" stop-color="#83c1fc"></stop><stop offset="1" id="stop152" stop-color="#0a1519"></stop></linearGradient><path d="M72.8 81.9c3.2.7 6.6-2.5 7.6-7.1.6-2.9.2-5.7-1.1-7.5-.9-.8-1.8-1.4-2.8-2.1h-.1c-3.2-.7-6.6 2.5-7.6 7.1s.8 8.9 4 9.6zm-2.7-10.5c.7-3.6 3.1-6.1 5.4-5.6 2.3.5 3.5 3.8 2.8 7.4-.7 3.6-3.1 6.1-5.4 5.6-2.3-.5-3.5-3.8-2.8-7.4z" id="path155" fill="url(#SVGID_9_)"></path></g><radialGradient id="SVGID_10_" cx="108.659" cy="102.661" r="3.037" gradientTransform="matrix(1 0 0 -1 0 152)" gradientUnits="userSpaceOnUse"><stop offset="0" id="stop159" stop-color="#9e4d55"></stop><stop offset=".579" id="stop161" stop-color="#68092b"></stop></radialGradient><circle cx="109.6" cy="48.5" r="1.5" id="circle164" fill="url(#SVGID_10_)"></circle><radialGradient id="SVGID_11_" cx="52.937" cy="137.142" r="3.223" gradientTransform="matrix(1 0 0 -1 0 152)" gradientUnits="userSpaceOnUse"><stop offset="0" id="stop166" stop-color="#9e4d55"></stop><stop offset=".579" id="stop168" stop-color="#68092b"></stop></radialGradient><circle cx="53.8" cy="13.8" r="1.5" id="circle171" fill="url(#SVGID_11_)"></circle><linearGradient id="SVGID_12_" gradientUnits="userSpaceOnUse" x1="44.792" y1="-31.801" x2="44.792" y2="10.302" gradientTransform="matrix(1 0 0 -1 0 152)"><stop offset="0" id="stop173" stop-color="#83c1fc"></stop><stop offset="1" id="stop175" stop-color="#0a1519"></stop></linearGradient><path d="M39.9 148.9c.6 0 1.3-.1 1.9-.1 2.5-6.8 7.1-11.6 14.5-14.5-.1-.5 0-.8 0-.8-10.8-.9-19 5-22.9 16.2 2.2-.5 4.5-.6 6.5-.8z" id="path178" opacity=".35" fill="url(#SVGID_12_)"></path><path d="M48.2 134.9c-4.1 1.1-8.9 5.7-9.8 7.7-.4.9 1.3 1.5 2 .8 1.8-2.1 3.3-5.1 7.8-8.5zM37.1 148c-.9-.5-.8-1.9.1-3.4.5-.8 2.4-.3 2 .4-.8 1.9-1.1 3.5-2.1 3z" id="path180" opacity=".35" fill="#5e747c"></path><g id="g184"><circle class="st1" cx="54.2" cy="13.5" r=".8" id="circle182" fill="#fff"></circle></g><g id="g188"><circle class="st1" cx="110" cy="48.1" r=".8" id="circle186" fill="#fff"></circle></g><linearGradient id="SVGID_13_" gradientUnits="userSpaceOnUse" x1="31.084" y1="205.977" x2="31.084" y2="89.737" gradientTransform="matrix(1.1948 0 0 -1.2474 37.86 259.44)"><stop offset="0" id="stop190" stop-color="#9174a2"></stop><stop offset="1" id="stop192" stop-color="#9075a4"></stop></linearGradient><path d="M12.5 2.5h125c5.5 0 10 4.5 10 10v125c0 5.5-4.5 10-10 10h-125c-5.5 0-10-4.5-10-10v-125c0-5.5 4.5-10 10-10z" id="path195" fill="url(#SVGID_13_)" fill-opacity="0" stroke="#fff" stroke-width="5"></path></svg>