<svg xmlns="http://www.w3.org/2000/svg" xmlns:xlink="http://www.w3.org/1999/xlink" width="71.994" height="19.742" fill="#c4122e"><g id="a" fill="#15495d"><path d="M3.135 11.8c0-.862-.704-1.561-1.567-1.561S0 10.938 0 11.799v3.285a1.568 1.568 0 0 0 3.135 0zM11.744 7.49a1.567 1.567 0 0 0-3.135 0v7.594a1.567 1.567 0 0 0 3.135 0zM20.354 1.592C20.354.73 19.65.03 18.787.03c-.864 0-1.568.7-1.568 1.562v16.613a1.568 1.568 0 0 0 3.135 0zM28.963 7.49a1.567 1.567 0 0 0-3.135 0v7.594a1.567 1.567 0 0 0 3.135 0zM37.563 11.8a1.56 1.56 0 0 0-1.558-1.561c-.863 0-1.567.699-1.567 1.56v3.285a1.562 1.562 0 1 0 3.125 0z" transform="translate(0 -.03)"></path></g><use xlink:href="#a" transform="translate(34.432)" width="100%" height="100%"></use></svg>