<svg xmlns="http://www.w3.org/2000/svg" version="1.0" width="299.874" height="186.887"><linearGradient id="prefix__a" gradientUnits="userSpaceOnUse" x1="171.667" y1="114.824" x2="171.667" y2="232.491" gradientTransform="translate(-21.42 -64.76)"><stop offset="0" stop-color="#d25b55"/><stop offset="1" stop-color="#851e20"/></linearGradient><path d="M91.748 50.064h117v117.667h-117z" clip-rule="evenodd" fill="url(#prefix__a)" fill-rule="evenodd"/><path d="M289.236 98.163c-5.542-7.893-12.494-13.885-22.411-15.357-2.7-.402-3.374-1.789-3.8-4.242-1.726-9.962-5.244-19.277-11.19-27.523-5.918-8.209-13.311-14.427-23.592-16.428-9.1-1.77-17.02 1.27-24.416 6.348-8.65-20.862-20.771-38.395-45.198-39.416-24.955-1.043-37.906 16.031-47.457 37.002-1.623-1.345-2.754-2.319-3.924-3.244-15.575-12.314-35.184-11.296-49.391 2.618-9.385 9.19-14.57 20.563-16.76 33.351-.83 4.846-1.117 9.787-1.644 14.61-13.925 1.126-22.21 5.724-29.67 16.315-13.531 19.213-12.978 49.494 1.36 68.082 7.346 9.52 16.859 14.561 29.186 14.648 73.145.521 146.289 1.14 219.43 1.957 12.695.143 22.103-5.02 29.236-15.074 14.406-20.305 14.524-53.303.24-73.647zM112.129 150.98l-10.377 9.113-8.07-46.967c15.55 4.137 30.363 8.078 46.13 12.275l-10.35 9.424c16.394 16.174 44.929 11.908 54.532-15.039 7.113 1.813 14.269 3.635 21.397 5.45-6.04 31.481-50.585 61.37-93.262 25.744zm47.813-55.097l10.443-9.529c-16.761-16.45-45.431-12.056-55.084 15.012-6.974-1.773-13.991-3.559-21.553-5.48 6.353-20.588 19.288-34.01 39.632-39.574 20.412-5.582 37.993 1.152 53.968 14.39l10.215-8.99 8.195 46.438c-15.492-4.148-30.174-8.08-45.816-12.267z" clip-rule="evenodd" fill-rule="evenodd"/><linearGradient id="prefix__b" gradientUnits="userSpaceOnUse" x1="171.357" y1="64.758" x2="171.357" y2="250.147" gradientTransform="translate(-21.42 -64.76)"><stop offset="0" stop-color="#fff"/><stop offset="1" stop-color="#ccc"/></linearGradient><path d="M289.236 96.663c-5.542-7.893-12.494-13.885-22.411-15.357-2.7-.402-3.374-1.789-3.8-4.242-1.726-9.962-5.244-19.277-11.19-27.523-5.918-8.209-13.311-14.427-23.592-16.428-9.1-1.77-17.02 1.27-24.416 6.348C195.177 18.6 183.056 1.066 158.629.045c-24.955-1.043-37.906 16.031-47.457 37.002-1.623-1.345-2.754-2.319-3.924-3.244-15.575-12.314-35.184-11.296-49.391 2.618-9.385 9.19-14.57 20.563-16.76 33.351-.83 4.846-1.117 9.787-1.644 14.61-13.925 1.126-22.21 5.724-29.67 16.315-13.531 19.213-12.978 49.494 1.36 68.082 7.346 9.52 16.859 14.561 29.186 14.648 73.145.521 146.289 1.14 219.43 1.957 12.695.143 22.103-5.02 29.236-15.074 14.406-20.305 14.524-53.303.24-73.647zM112.129 149.48l-10.377 9.113-8.07-46.967c15.55 4.137 30.363 8.078 46.13 12.275l-10.35 9.424c16.394 16.174 44.929 11.908 54.532-15.039 7.113 1.813 14.269 3.635 21.397 5.45-6.04 31.481-50.585 61.37-93.262 25.744zm47.813-55.097l10.443-9.529c-16.761-16.45-45.431-12.056-55.084 15.012-6.974-1.773-13.991-3.559-21.553-5.48 6.353-20.588 19.288-34.01 39.632-39.574 20.412-5.582 37.993 1.152 53.968 14.39l10.215-8.99 8.195 46.438c-15.492-4.148-30.174-8.08-45.816-12.267z" clip-rule="evenodd" fill="url(#prefix__b)" fill-rule="evenodd"/></svg>