<svg xmlns="http://www.w3.org/2000/svg" viewBox="0 0 41.098 19.036" width="42.81" height="19.829"><path d="M38.008 13.524l-.61-2.238 3.7-.691-3.672-.825 3.453-1.496-3.762.012 3.035-2.223-3.664.848 2.461-2.844-3.386 1.645 1.769-3.32-2.934 2.355.985-3.633-2.332 2.95.144-3.758L31.578 3.7 30.891 0l-.828 3.673L28.57.22l.008 3.761-1.61.426-2.605-2.258 1.64 3.383-3.316-1.766 2.352 2.93-3.629-.98 2.945 2.336-3.753-.153 3.39 1.621-3.695.688 3.668.828-2.024.875h-7.816v4.625h17.336l4.539.5-.172-.5H36v-.941l.516.277h1.254l-1.415-1.766 3.63.985z" fill="#fdd835"></path><path d="M35.266 10.826c-.883 0-1.707.218-2.453.573l2.562 4.762-4-3.875-15 4.375 13.75-5.25L22.5 8.536l9.04 2.082.265.055c.008.027.035-.367.035-.77 0-5.25-4.27-9.504-9.535-9.504a9.519 9.519 0 0 0-9.176 6.946 4.145 4.145 0 0 0-2.852-1.133 4.159 4.159 0 0 0-4.168 4.152c0 .461.079.906.22 1.317a7.266 7.266 0 0 0-.587-.028C2.57 11.653 0 14.216 0 17.376c0 .578.09 1.137.25 1.66h40.172A5.67 5.67 0 0 0 41 16.548a5.726 5.726 0 0 0-5.734-5.723z" fill="#f57c00"></path><path d="M22.5 6.036c2.852 0 5.453 1.043 7.465 2.762-.375-3.793-3.575-6.762-7.465-6.762-3.89 0-7.09 2.969-7.465 6.762A11.448 11.448 0 0 1 22.5 6.036zM11.738 9.063A1.995 1.995 0 0 0 10 8.036a2 2 0 0 0-2 2c0 .465.164.887.434 1.227a3.97 3.97 0 0 1 3.304-2.2zM4.05 19.036c.25-2.734 2.481-4.895 5.259-4.988A4.45 4.45 0 0 0 6.5 13.036a4.501 4.501 0 0 0-4.5 4.5c0 .527.102 1.031.27 1.5z" fill="#ffb74d"></path></svg>