<svg xmlns="http://www.w3.org/2000/svg" height="61.302" width="93.683" viewBox="0 0 93.683 61.302"><path d="M1.814 59.262l26-56 24 21 6.3-7.2 34 43" fill="#fff" stroke="#2185d0" stroke-width="4"></path><path d="M23.814 29.262l9-10.29 7.43 6.5m-2.43 6.79l4 3.5 9.8-11.2" fill="none" stroke="#2185d0" stroke-width="4"></path><path d="M20.027 46.397q-.08.101-.16.16-.072.057-.217.057-.137 0-.268-.08-.13-.087-.312-.188-.181-.109-.435-.189-.246-.087-.616-.087-.471 0-.826.174-.356.167-.595.486-.232.32-.348.776-.116.45-.116 1.022 0 .595.123 1.059.13.464.37.783.24.311.58.478.34.16.769.16.427 0 .688-.102.269-.109.45-.232.181-.13.312-.232.137-.109.304-.109.218 0 .326.167l.515.653q-.297.348-.645.587-.348.232-.725.377-.37.138-.769.196-.391.058-.783.058-.688 0-1.297-.254-.61-.261-1.066-.754-.457-.493-.725-1.204-.261-.717-.261-1.63 0-.82.232-1.516.239-.703.696-1.21.457-.516 1.13-.806.675-.29 1.552-.29.834 0 1.458.269.63.268 1.13.768zm4.817-1.69q.826 0 1.5.269.682.268 1.16.76.486.494.747 1.204t.261 1.588q0 .885-.261 1.595t-.747 1.21q-.478.501-1.16.77-.674.268-1.5.268-.834 0-1.516-.269-.681-.268-1.167-.768-.478-.5-.747-1.21-.26-.711-.26-1.596 0-.877.26-1.588.269-.71.747-1.203.486-.493 1.167-.761.682-.269 1.516-.269zm0 6.286q.928 0 1.37-.623.45-.624.45-1.827 0-1.204-.45-1.835-.442-.63-1.37-.63-.943 0-1.4.638-.45.63-.45 1.827 0 1.196.45 1.827.457.623 1.4.623zm10.399 1.269q-.355 0-.45-.326l-.152-.718q-.232.26-.485.471-.254.21-.551.363-.29.152-.631.232-.334.087-.725.087-.609 0-1.117-.254-.507-.254-.877-.732-.362-.486-.565-1.197-.196-.71-.196-1.624 0-.826.225-1.537.224-.71.645-1.232.42-.522 1.008-.812.587-.297 1.32-.297.623 0 1.065.203.442.195.79.529v-3.93h1.791v10.774zm-2.385-1.312q.558 0 .95-.232.391-.232.74-.66v-3.335q-.305-.37-.668-.522-.355-.152-.768-.152-.406 0-.733.152-.326.152-.558.464-.232.304-.355.783-.123.471-.123 1.116 0 .653.101 1.11.109.45.305.74.195.282.478.412.283.124.631.124zm8.43-6.243q.703 0 1.297.225.595.225 1.023.66.427.428.667 1.058.246.624.246 1.429 0 .406-.087.55-.087.138-.333.138h-4.604q.043.573.203.994.16.413.42.688.261.269.617.406.362.13.797.13.435 0 .747-.1.319-.102.55-.225.24-.124.414-.225.181-.102.348-.102.225 0 .334.167l.514.653q-.297.348-.667.587-.37.232-.775.377-.4.138-.82.196-.413.058-.804.058-.776 0-1.443-.254-.667-.261-1.16-.761-.493-.508-.776-1.247-.283-.747-.283-1.726 0-.761.247-1.428.246-.674.703-1.167.464-.5 1.124-.79.667-.29 1.5-.29zm.036 1.284q-.783 0-1.225.442-.443.442-.566 1.254h3.379q0-.348-.102-.652-.094-.312-.29-.544-.196-.232-.5-.363-.297-.137-.696-.137zm4.526 6.271V41.488h1.792v4.256q.45-.478.993-.754.55-.283 1.254-.283.645 0 1.16.254.522.254.885.732.37.472.565 1.146.196.674.196 1.515 0 .906-.225 1.646-.225.74-.645 1.269-.413.522-1 .812-.588.29-1.306.29-.348 0-.638-.073-.282-.065-.522-.188-.232-.124-.435-.298-.195-.18-.377-.398l-.08.5q-.043.188-.152.268-.101.08-.282.08zm3.423-6.163q-.515 0-.9.24-.383.232-.731.66v3.334q.304.377.66.53.362.145.76.145.414 0 .74-.145.334-.153.566-.464.232-.32.355-.805.123-.493.123-1.175 0-1.225-.406-1.769-.406-.55-1.167-.55zm7.987-1.392q.704 0 1.298.225.595.225 1.022.66.428.428.667 1.058.247.624.247 1.429 0 .406-.087.55-.087.138-.334.138H55.47q.043.573.203.994.16.413.42.688.261.269.616.406.363.13.798.13.435 0 .747-.1.319-.102.55-.225.24-.124.414-.225.181-.102.348-.102.225 0 .333.167l.515.653q-.297.348-.667.587-.37.232-.776.377-.398.138-.819.196-.413.058-.805.058-.775 0-1.442-.254-.667-.261-1.16-.761-.493-.508-.776-1.247-.283-.747-.283-1.726 0-.761.247-1.428.246-.674.703-1.167.464-.5 1.124-.79.667-.29 1.5-.29zm.037 1.284q-.783 0-1.226.442-.442.442-.565 1.254h3.378q0-.348-.101-.652-.094-.312-.29-.544-.196-.232-.5-.363-.298-.137-.696-.137zm4.527 6.271v-7.439h1.05q.276 0 .385.102.109.094.145.348l.102.84q.355-.666.833-1.043.479-.384 1.131-.384.515 0 .827.224l-.116 1.342q-.036.13-.109.188-.065.05-.181.05-.109 0-.326-.035-.21-.037-.414-.037-.297 0-.529.087-.232.087-.42.254-.182.16-.327.392-.137.232-.26.529v4.582zm8.014-7.569q.479 0 .892.101.42.095.776.283h2.138v.667q0 .32-.384.392l-.667.123q.073.188.109.399.043.21.043.442 0 .55-.224 1-.218.443-.61.754-.39.312-.927.486-.53.167-1.146.167-.42 0-.82-.08-.347.21-.347.471 0 .225.203.334.21.101.55.145.342.043.777.058.435.007.891.043.457.037.892.13.435.088.776.284.34.195.544.536.21.334.21.863 0 .493-.247.957-.239.464-.703.826-.457.363-1.13.58-.668.225-1.523.225-.841 0-1.465-.167-.623-.16-1.037-.435-.413-.268-.616-.623t-.203-.74q0-.514.312-.87.319-.355.863-.565-.29-.152-.464-.406-.174-.254-.174-.667 0-.167.058-.34.058-.182.174-.356.123-.174.304-.326.189-.16.435-.283-.565-.305-.892-.812-.319-.508-.319-1.19 0-.55.218-.992.225-.45.616-.762.399-.319.935-.485.544-.167 1.182-.167zm2.023 7.902q0-.217-.13-.348-.131-.137-.356-.217-.225-.08-.53-.116-.296-.036-.637-.05-.334-.023-.696-.037-.355-.015-.696-.058-.297.167-.486.391-.181.225-.181.522 0 .196.094.363.102.174.312.297.217.123.558.189.34.072.834.072.5 0 .863-.08.362-.072.594-.21.24-.13.348-.319.109-.181.109-.399zm-2.023-4.234q.334 0 .58-.087.247-.094.406-.253.167-.16.247-.385.087-.224.087-.493 0-.55-.334-.87-.326-.326-.986-.326-.66 0-.993.326-.326.32-.326.87 0 .261.08.486.086.225.246.392.167.16.413.253.254.087.58.087z" aria-label="codeberg" font-weight="700" font-size="14.5" font-family="Lato" fill="#107bb5"></path></svg>