<svg xmlns="http://www.w3.org/2000/svg" width="113.775" height="139.265" viewBox="0 0 113.775 139.265"><path d="M37.275 125.465l55.4 13.8.3-.2h-.5v-33l-42.4-2.3.5-23.9c0-3.9-.9-6.7-2.6-8.4-1.3-1.3-3.1-1.9-5.2-1.9-3.2 0-8.6 1.4-8.6 10.4l.3 40.4v.1c-.2 2 .9 4 2.8 5zm5.2-51.3c1.9 0 3.4 1.6 3.4 3.6 0 1.9-1.6 3.4-3.6 3.4s-3.4-1.6-3.4-3.6c.1-2 1.7-3.5 3.6-3.4zM95.675 137.565l15.1-8.4 3-29.3-18.1 5.6z" fill="#7e61ea"></path><path d="M113.175 47.065c.3-13.6-3.9-25.7-12-34.2-7.9-8.2-19.2-12.6-32.7-12.8-23.5-.8-44.5 5.8-56.2 17.6-8.7 8.8-12.9 20.7-12.2 35.2v.4l3.2 27.4c.2 1.3.9 2.5 2.1 3.2.6.4 1.4.8 2.2 1.3 10.4 6 18.4 11.1 23.3 15.1l-.2-20.4c0-12.8 9.2-13.9 12.1-13.9 3.1-.1 5.8 1 7.7 2.9 2.4 2.4 3.7 6.1 3.7 11l-.5 20.6 39.5 2.1 18.8-5.8zm-13.4 10.8c-.2 8.2-3.3 14.8-6.8 14.7-3.6-.1-6.3-6.8-6.1-15 .2-8.2 3.3-14.8 6.8-14.7 3.6.1 6.3 6.8 6.1 15z" fill="#7e61ea"></path></svg>