<svg xmlns="http://www.w3.org/2000/svg" class="prefix__prefix__icon prefix__prefix__icon-codeship-cloudbees prefix__prefix__sessions-header-logo-icon prefix__prefix__sessions-header-logo-icon-codeship-cloudbees" preserveAspectRatio="xMinYMin meet" width="83.739" height="88.889"><g fill="none" fill-rule="evenodd"><path d="M31.418 2.334a2.211 2.211 0 0 0-1.222 1.978v6.327a66.604 66.604 0 0 1 22.222 0V4.312a2.212 2.212 0 0 0-1.223-1.978A22.098 22.098 0 0 0 41.307 0c-3.388 0-6.776.777-9.889 2.334m49.859 61.57c-7.217 14.793-22.403 24.984-39.97 24.984-18.74 0-34.773-11.601-41.307-28.013 3.332-2.952 7.246-5.32 13.53-5.32 8.333 0 12.5 4.166 16.667 8.333 4.166 4.166 8.333 8.333 16.666 8.333 6.945 0 11.806-2.083 16.667-4.167 4.861-2.083 9.722-4.166 16.667-4.166.366 0 .727.005 1.08.016" fill="#28aed4"/><path d="M41.307 33.333c-5.556 8.333 0 33.333 0 33.333s5.555-25 0-33.333m-39.656 31.2c1.883-.402 3.954-.645 6.322-.645 6.945 0 11.806 2.084 16.667 4.167.611.262 1.222.524 1.837.781-2.656-8.887-6.734-20.182-12.234-28.849-.395-.622-.254-1.446.351-1.869 11.079-7.734 26.713-10.34 26.713-10.34s15.634 2.605 26.713 10.34c.605.423.746 1.247.35 1.87-4.6 7.25-8.206 16.34-10.817 24.32l.42-.42c4.167-4.166 8.334-8.333 16.667-8.333 3.75 0 6.656.844 9.099 2.152-5.642 18.068-22.505 31.182-42.432 31.182-17.317 0-32.32-9.904-39.656-24.356" fill="#046"/><path d="M19.877 19.147a1.221 1.221 0 0 0-.792 1.143v8.84c4.024-1.936 8.034-3.368 11.396-4.395a94.433 94.433 0 0 1 7.002-1.853 66.965 66.965 0 0 1 2.667-.542l1.157-.195.99.166.167.029a76.728 76.728 0 0 1 2.667.542c1.75.39 4.193.993 7.002 1.852 3.362 1.028 7.372 2.46 11.396 4.396v-8.84c0-.508-.316-.965-.792-1.143a61.035 61.035 0 0 0-42.86 0" fill="#046"/></g></svg>