<svg xmlns="http://www.w3.org/2000/svg" version="1.1" x="0" y="0" xml:space="preserve" width="129.9" height="80.9"><style type="text/css" id="style2">.prefix__st0{fill:#607280}</style><path class="prefix__st0" d="M27.2 46.1c.5.3.9.5 1.4.7 5.1 2.9 10.3 5.7 15.4 8.7 1.5.9 2.2.7 3.3-.7 10.6-14.6 22.5-28 36.7-39.3 4-3.2 8.2-6.2 12.7-8.8.7-.4 1.5-1.3 2.2-.2.7 1-.2 1.5-.8 2-19.9 18.1-35 39.8-46.9 63.9-1.3 2.6-1.6 2.6-3.5.3-6.9-8-13.7-16-20.6-24-.3-.3-.6-.6-.8-1-.6-.9.1-1.3.9-1.6z" id="prefix__path26" fill="#607280"/><g id="prefix__g32" transform="translate(0 -1.7)"><path class="prefix__st0" d="M0 82.6V1.7h19.8v7.2H9.3v66.5h10.5v7.2H0z" id="prefix__path28" fill="#607280"/><path class="prefix__st0" d="M129.9 1.7v80.9h-19.8v-7.2h10.5V8.9h-10.5V1.7z" id="prefix__path30" fill="#607280"/></g></svg>