<svg xmlns="http://www.w3.org/2000/svg" width="148.979" height="105.711" viewBox="0 0 39.417 27.969" version="1.1" id="svg8"><g id="layer1" transform="translate(-82.157 -147.687)"><g id="g20" transform="matrix(.26458 0 0 .26458 20.826 56.645)"><g id="g18"><path id="path14" d="M367 435.2c-9.6 3-16.2-1.1-22.4-7.9-8.4-9.4-17.6-18.2-26.8-26.9-3-2.8-2.5-4.3.1-6.9 11.5-11.1 22.7-22.5 34.1-33.8-6.5-2.7-13.9-1.4-18.5 3.1-7.9 7.9-15.8 15.7-23.6 23.7-2.1 2.1-3.3 2.8-5.8.2-9-9.3-18.3-18.4-28.1-28.2 8-.5 15.1-2.1 20.2 5.2 2.2 3.1 5.5 5.3 8 8.2 2 2.4 3.3 2.2 5.5 0 8.2-8.5 16.7-16.8 25-25.1 1.6-1.6 3-2.8 5.5-2.7 13.5.1 27 .1 40.5.1.5 2.2-1.5 2.9-2.5 3.9-15.1 15.2-30.3 30.5-45.6 45.5-2.9 2.9-2.5 4.3.1 6.9 10.5 10.2 20.8 20.6 31.1 31 1.2 1.2 2.8 2 3.2 3.7z" class="st1" fill="#002856"></path><path id="path16" d="M231.8 449.8c16.9-16.9 32.7-32.9 48.7-48.6 3.3-3.2 3.8-4.9.2-8.4-11.6-11-22.7-22.4-34.7-34.5 8.3-.3 14.9-1.3 20.9 5.7 9.1 10.6 19.5 20.1 29.5 29.8 2.4 2.4 2.7 3.7.1 6.2-10.5 10.2-20.8 20.7-31.2 31-1.1 1.1-2.2 2.3-3.9 4.1 8.3.6 15.2 1.5 21.1-5.8 6.5-8 14.5-14.7 21.7-22.1 2.1-2.2 3.3-2.2 5.4 0 8.5 8.7 17.1 17.2 25.7 25.9.6.6 1.8 1.1 1.4 2.7-3.9 0-7.8-.1-11.7 0-2 .1-3-1.3-4.1-2.4-3.9-3.9-7.9-7.7-11.6-11.7-1.9-2.1-3.1-2-5.1 0-8.3 8.6-16.8 17.1-25.3 25.6-1.3 1.3-2.4 2.6-4.6 2.5h-42.5z" class="st1" fill="#002856"></path></g></g></g><style id="style10" type="text/css">.st1{fill:#002856}</style></svg>