<svg xmlns="http://www.w3.org/2000/svg" version="1.1" id="svg" x="0" y="0" viewBox="0 0 89.239 63.375" xml:space="preserve" width="89.239" height="63.375"><style type="text/css" id="style3784">.st1{fill:#33640c}.st2{fill:#679014}.st3{fill:#749c14}.st4{fill:#7c9c14}</style><g id="svgg" transform="translate(0 .375)"><path id="path0" d="M34.5.2c0 .1-.8.2-2 .2-1.5 0-2 .1-2.2.2-.2.2-.7.3-1.6.3-1 0-1.4.1-1.4.3 0 .2-.3.2-1.1.2-.6 0-1.2.1-1.3.2-.1.1-.4.2-.8.2s-.9.1-1 .2c-.1.1-.7.2-1.1.2-.4.1-.8.2-.9.3-.1.1-.3.2-.6.2s-.6.1-.7.3c-.1.1-.4.3-.6.3-.2 0-.6.1-.8.2-.2.1-.6.3-.9.3-.3-.1-.5 0-.5.2 0 .1-.2.2-.5.2s-.5.1-.5.3c0 .2-.2.3-.5.3s-.5.1-.6.3c-.1.1-.3.3-.5.3s-.5.1-.7.3c-.1.1-.4.3-.5.3-.1 0-.2-.2-.2-.1 0 .2-.2.3-.5.3s-.5.1-.5.2c0 .2-.2.3-.4.3s-.5.1-.5.3c-.1.1-.2.3-.3.3-.1 0-.2.1-.1.2.1.2-.6.5-.8.4-.1 0-.1 0-.1.2s-.2.1-.4.1c-.1 0-.3.1-.3.3 0 .2-.1.2-.2.2-.1-.1-.3 0-.3.2s-.2.3-.3.2c-.1-.1-.1 0-.1.1s-.2.3-.4.4c-.3.1-.5.2-.6.4-.1.2-.2.3-.3.2-.1-.1-.2.1-.3.3-.1.3-.2.4-.3.3-.2-.1-.3.1-.2.5 0 .1-.1.1-.1 0-.1-.1-.2 0-.3.2-.1.2-.4.6-.8 1s-.7.8-.7 1c0 .2-.2.5-.5.7-.3.3-.5.6-.5.7 0 .1-.1.3-.2.4-.1.1-.2.3-.2.3 0 .1-.1.3-.3.6-.2.2-.3.4-.2.4.1 0 0 .2-.1.4-.2.4-.3.6-.2.7 0 .1 0 .1-.1.1s-.1.1-.1.2 0 .4-.1.7c-.1.3-.2.7-.2 1 0 .3-.1.6-.2.6s-.2.6-.3 1.5c0 .8-.1 1.4-.2 1.4s-.1-.1 0-.2c.1-.2.1-.2-.1 0-.1.1-.2.7-.1 1.6V26h.6c.9.1 1.4.2 1.3.4 0 .1 0 .1.1.1.9 0 1.6.1 1.5.2-.1.2.6.2.9 0 .2-.2 1-.2 2.1 0 .5.1 1.3.3 1.8.4.6.1 1.3.2 1.6.3.3.1 1 .2 1.6.3.6.1 1.5.3 2.2.4 3.4.7 3.4.7 3.5 0 .1-.3.2-.7.2-.8.1-.1.3-.7.4-1.3.2-.5.4-1.2.5-1.5.1-.3.2-.7.2-.8 0-.2.1-.5.3-.8.1-.3.2-.6.2-.8 0-.2.1-.4.2-.6l.3-.6c0-.1.2-.6.4-1s.6-1 .8-1.4c1.1-2 5.6-6.6 6.5-6.6.1 0 .2-.1.2-.1 0-.1.5-.4 1-.7.6-.3 1.2-.7 1.4-.8.2-.1.7-.4 1.1-.6l1.2-.6c.3-.1.6-.2.7-.2.1 0 .4-.1.7-.2 1-.5 1.7-.8 2.1-.8.2 0 .4-.1.4-.2.1-.1.4-.2.8-.3.4-.1.8-.2 1-.3.1-.1.6-.2 1-.3 1.3-.3 2.4-.5 3-.7 1-.3 2.7-.5 4.1-.7.7-.1 1.7-.2 2.1-.3 2.3-.1 17.8-.5 21.6-.1 1 .1 2.8.3 4 .3 2.8.2 5.6.5 7 .7.6.1 1.7.2 2.4.3.8.1 1.7.2 2 .3.8.2 1.6.1 1.6-.2 0-.3-.3-.4-1.2-.7-.2-.1-.5-.2-.5-.4-.1-.1-.3-.2-.7-.2-.4 0-.7-.1-.9-.3-.1-.1-.5-.3-.8-.3-.3 0-.6-.1-.7-.2-.1-.1-.5-.2-1-.3-.4 0-.8-.1-.9-.3-.1-.1-.5-.2-1-.3-.5 0-.9-.1-1-.2-.1-.1-.6-.2-1.2-.3-.7 0-1.1-.1-1.2-.3-.1-.2-.4-.2-1.2-.2-.6 0-1.1-.1-1.1-.2.1-.2-.3-.3-1.4-.3-.7 0-1.1-.1-1.2-.3-.2-.2-.6-.3-1.5-.3-.7 0-1.3-.1-1.3-.2s-.8-.2-1.7-.2c-1 0-1.6-.1-1.7-.2-.1-.1 0-.2.2-.1s.2 0 .2-.1c-.1-.1-.2-.2-.3-.1-1.1.1-3.9 0-3.8-.2.1-.2-.3-.2-2.3-.3-1.5 0-2.4-.1-2.5-.2-.1-.1-.1-.1-.2 0-.1.2-.1.2-.1 0-.2.2-21.7.2-21.7.5m19.6 11.6c-.2.2-.3.2-.2 0 .1-.2.1-.2-.1 0-.1.1-.8.2-2.1.2-1.6 0-1.9 0-1.9.3 0 .2-.3.3-1.3.3-1.4 0-1.9.1-1.8.4.1.1 0 .1 0 .1-.8-.1-2.4 0-2.4.3 0 .2-.2.3-1 .3-.7 0-1 .1-1 .2s-.3.2-.9.3c-.7 0-1 .1-1 .3 0 .2-.8.4-1.4.3-.1 0-.1.1-.1.2 0 .2-.2.3-.5.3s-.7.1-.9.2c-.3.1-.5.2-.6.2-.1 0-.2 0-.2.2-.1.1-.3.3-.5.3s-.5.1-.6.3c-.1.1-.4.3-.6.3-.2 0-.4.1-.5.2-.1.1-.2.2-.4.2s-.5.3-.8.5c-.3.3-.5.4-.5.3 0-.1-.2 0-.4.2s-.6.5-.8.6c-.2.1-.7.5-1 .8-.3.3-.7.6-.8.6-.1 0-.2.1-.2.2 0 .2-.6.8-.8.8-.1 0-.2.1-.2.2s-.2.3-.4.6c-.2.2-.4.5-.4.5 0 .1-.2.4-.5.7-.3.3-.6.7-.6.9 0 .2-.2.4-.3.5-.1.1-.2.3-.2.4.1.1 0 .4-.2.6-.2.2-.3.6-.3.8 0 .2-.1.6-.2.9-.1.3-.3.9-.3 1.3 0 .5-.1.9-.2 1.1-.2.2-.2.2 0 .1s.2-.1 0 .1c-.4.4-.3 2.8.2 2.9.6.2 2.9.1 3-.1.1-.2 2.1-.2 3.8.1 2 .3 4.8.5 4.9.3.1-.1.2-.6.2-1 .5-3.3 1.6-6.1 2.8-7.4.1-.1.2-.3.2-.3 0-.2 1.5-1.7 2.4-2.4.5-.4.9-.7.9-.8.3-.4 4.6-2.7 5-2.7.1 0 .4-.1.6-.2.3-.1.8-.3 1.1-.5.3-.2.9-.3 1.3-.4.4-.1.8-.2 1.1-.3.3-.1.7-.1.8-.2.2-.1.7-.2 1.1-.3.7-.1 1-.2 3-.7.8-.2 2-.4 4.5-.6.9-.1 1.9-.2 2.3-.3 1.2-.3 7.2-.6 12-.6 2.4 0 4.6-.1 4.7-.1.5-.2.3-.6-.3-.6-.4 0-.6-.1-.7-.3-.1-.2-.4-.3-1.6-.3-.8 0-1.5-.1-1.4-.1.2-.3-.4-.4-2.5-.4-1.6 0-2.1-.1-2-.2.2-1-17.9-1-18.3-.6m28 1.4c-.1.1 0 .2 0 .2.1 0 0 .1-.2.2-.4.2-.5.5-.2.5.1 0 .4 0 .6.1.3.1.4 0 .4-.2 0-.5-.5-1.1-.6-.8M63 19.6c0 .2-.4.2-1.9.3-1.3 0-1.9.1-1.9.3 0 .1-.4.2-1.1.2-.8 0-1.1.1-1.1.3 0 .1-.1.2-.1.2-.7-.1-1.7.1-1.7.3 0 .2-.2.3-.8.3-.6 0-.8.1-.8.3 0 .2-.2.3-.8.3-.5 0-.7.1-.7.2s-.2.2-.5.3c-.3 0-.5.1-.4.2.1.1 0 .2-.2.2-.1 0-.3 0-.4.1-.1 0-.2.1-.3.1-.1 0-.1.1-.1.2s0 .2-.1.2-.3.1-.4.2c-.1.1-.3.3-.5.3s-.3.1-.3.2c0 .2-.5.7-1 .9-.5.2-1.2 1.1-1 1.3.1.1 0 .1-.1 0s-.3 0-.3.2c-.1.2-.2.4-.3.4-.1 0-.2.2-.3.4 0 .2-.1.4-.3.3-.1 0-.2 0-.2.1.1.3-.2 1.2-.4 1.1-.1-.1-.2.2-.2.6 0 .5-.1.8-.3.8-.2.1-.3.4-.3 1.8v1.7h1c.5 0 1-.1 1.1-.2.1-.2 2.3-.2 3.4 0 .4.1 1.2.2 1.6.2h.8l.3-1c.2-.5.3-1.2.3-1.3 0-.7.9-2.5 1.7-3.6 1.1-1.5 5.4-4.3 6.6-4.3.2 0 .4-.1.5-.2.1-.1.5-.2.8-.3.4-.1 1-.3 1.4-.4.4-.1 1-.3 1.3-.4.6-.2 1.9-.4 4.3-.6.8-.1 2.1-.2 2.8-.3.7-.1 2.9-.2 5-.2s3.9-.1 4.1-.1c.5 0 .2-.4-.3-.5-.3-.1-.5-.2-.4-.3 0-.1 0-.2-.1-.2-.9.1-3.9-.1-3.9-.3 0-.2-.9-.2-6.8-.2-5.6-.4-6.7-.3-6.7-.1M0 37.3c0 2.3.1 3.7.2 3.7s.2.6.2 1.5c0 1.2.1 1.5.3 1.6.2.1.3.3.3.7 0 .8.2 1.4.3 1.3.1-.1.1.3.1.8s.1.8.2.8.2.1.2.2.2.7.5 1.3c.3.6.5 1.2.6 1.3 0 .1.1.3.2.4.1.1.2.3.2.6 0 .2.1.4.3.4.1 0 .2.2.2.4 0 .3.1.4.3.4.1 0 .2.1.2.3 0 .2.1.3.2.3s.3.2.3.5c.1.3.2.5.3.4.1-.1.2 0 .2.2s.1.3.3.4c.1.1.3.2.3.3 0 .1.1.2.3.2.1 0 .3.1.3.2 0 .3 1 1.3 1.2 1.2.1-.1.1 0 .1.1s.1.2.3.3c.2 0 .4.2.4.3 0 .1.1.2.3.2.1 0 .3.1.3.3 0 .1.1.3.3.3.1 0 .3.1.3.3 0 .1.2.3.4.3s.6.2.8.5c.2.3.6.5.8.5.2 0 .4.1.4.3 0 .1.1.3.3.3.2 0 .3.1.3.2s.3.2.6.3c.3.1.7.2.8.3.1.1.4.2.5.2.2 0 .3.1.3.2s.3.2.7.3c.4.1.8.2.8.3 0 .1.4.2.7.2.3 0 .7.1.9.2.4.3 2.1.4 9.1.4 8.3 0 9.2 0 9.7-.4.3-.2 1.1-.3 2.2-.4.2 0 .3-.1.2-.2-.1-.2.2-.2.7-.2.1 0 .2-.1.2-.2 0-.3.4-.3.8-.1.2.1.4.1.8-.3.6-.5.9-.6 1.4-.3.2.1.3.2.3.1-.1-.1 0-.2.1-.3.1-.1.2-.2.2-.4s.2-.2.7-.2c.4 0 .7 0 .8-.2.1-.3-.7-.4-1.6-.2-1.9.6-9.8.5-12-.1-2.8-.7-3.6-1-6.1-2.4-1.9-1-4.9-4.3-5.8-6.2-.1-.2-.2-.5-.3-.6-.1-.2-.3-.7-.9-2-.1-.3-.3-.7-.3-.9 0-.1-.1-.5-.2-.7-.1-.3-.2-.7-.3-.9 0-.3-.1-.6-.2-.8-.2-.4-.4-2.2-.7-5.5l-.2-2.6h-.9c-.5 0-1.1-.1-1.3-.2-.2-.1-1-.2-1.7-.3-.7-.1-1.9-.3-2.7-.4-.7-.1-1.8-.3-2.3-.4-.5-.1-1.1-.2-1.3-.3-.2-.1-.5-.2-.8-.2-.3 0-.7-.2-1.1-.5-.3-.3-.6-.4-.7-.4-.1.1-.1 0-.1-.1 0-.2-.2-.3-.9-.3s-1-.1-1.1-.3c-.1-.2-.4-.2-.9-.2H0v3.9m44.4.1c0 1 .1 1.4.3 1.3.1 0 .2.2.2.8 0 .9.1 1.4.4 1.3.1-.1.1.2.1.5s.1.7.3.8c.1.1.3.4.3.7 0 .3.1.4.3.4.2 0 .3.2.3.4s.1.5.3.5c.1.1.3.2.3.3 0 .1.1.2.3.2.1 0 .3.1.3.3 0 .3.9 1.2 1.1 1.2.1 0 .3.2.6.5.2.3.6.5.8.5.2 0 .4.1.4.3 0 .2.2.3.5.3s.5.1.6.1c.8.8 7.7 1.2 8.3.6.1-.1.6-.3 1.2-.3.5 0 1-.1 1-.2s.2-.2.4-.2.3-.1.4-.3c.1-.3.7-.3.9-.1.1.2.6-.3.5-.6-.1-.2-.6-.2-2.6-.2-2.7 0-3.8-.2-5.3-1.3-1-.6-2.8-2.9-2.8-3.4l-.2-.6c-.3-.6-.6-2-.7-2.7-.2-1.3-.1-1.2-1.4-1.3-2.6 0-3.9-.2-4.3-.6-.2-.2-.5-.4-.7-.4-.2 0-.3-.1-.4-.2-.1-.1-.4-.2-.7-.2h-.6l-.4 1.6M25 37.1c-.3.3-.3.8 0 1 .1.1.2.7.2 1.4 0 1.3.1 1.9.3 1.8.1 0 .2.3.2.9 0 .5.2 1 .3 1 .1 0 .2.3.2.6 0 .7.1 1.1.3 1 .1 0 .2.2.2.6 0 .4.2.7.3.8.1 0 .2.2.2.4s.2.5.3.7c.2.2.3.4.2.5-.1.1.1.4.5.7.3.3.4.5.3.4-.2-.1-.2 0 0 .2s.2.4.2.4c-.1.1 0 .1.2.1s.3.1.3.3c0 .1.1.3.3.3.1 0 .3.1.3.3 0 .1.1.3.3.3.1 0 .3.1.3.3 0 .1.1.3.3.3.1 0 .3.1.3.3 0 .1.1.3.3.3.1 0 .3.1.3.3 0 .1.1.3.3.3.1 0 .3.1.3.3 0 .1.1.3.3.3.2 0 .4.1.4.3.1.1.2.3.3.3.1 0 .3.1.4.3.1.2.2.3.3.3.3-.1.8 0 .7.1-.1.1.2.2.6.3.4.1.7.2.7.3 0 .1.2.1.5.2.3 0 .7.1.9.3.2.1.8.2 1.3.3.5 0 1.1.1 1.2.2.1.1.2.1.3 0 .1-.1.1 0 .1.1 0 .3 5.8.2 6.1 0 .2-.1.6-.2 1.3-.2.6 0 1.4-.1 1.7-.2.3-.1 1-.3 1.5-.3.6 0 .9-.1.9-.3 0-.1.2-.2.5-.2h1c.2 0 .4-.1.4-.2s.1-.2.2-.2.3-.1.3-.3c0-.2.2-.3.7-.3.5 0 .7-.1.8-.3.1-.2.3-.3.7-.3.3 0 .6-.1.6-.2.1-.3-.7-.4-1.4-.1-.5.2-1.6.2-4.2.3-3.7 0-4.2 0-5.9-.8l-.6-.2c-.7 0-3.7-2.5-4.5-3.8-.6-.9-1.4-2.5-1.4-2.7 0-.1-.1-.4-.2-.6-.1-.2-.3-.8-.3-1.1-.1-.4-.2-.7-.3-.8-.1-.1-.2-.4-.2-.8 0-.6-.4-2.6-.5-2.7-.1-.1-4.2-.5-6-.6-1.3-.1-1.7-.2-2.1-.5-.3-.2-.6-.4-.7-.4-.1 0-.2-.1-.2-.2-.9-1.4-3.1-1.4-3.4-1.1m21.1 22.5c.1.1.2.3.2.3.1 0 .1-.1.1-.3 0-.1-.1-.3-.2-.3s-.2.1-.1.3" fill="#b2cb1b"></path><path class="st1" d="M84.4 14c0 .3-.6.3-8.5.3-5.4 0-8.7.1-9.3.2-.5.1-1.7.3-2.7.3-2.1.2-4.2.5-5.1.7-.3.1-1 .2-1.5.3-1.9.4-2.8.5-3.1.7-.2.1-.6.2-1 .3-.4.1-.8.2-.9.2-.1.1-.8.3-1.5.5s-1.3.4-1.3.5c0 .1-.2.1-.4.1s-.5.1-.8.2c-.3.1-.8.4-1.3.7-1.6.8-2.3 1.2-2.4 1.3l-.8.6c-.7.5-3.3 3-3.8 3.6-.3.5-.6.9-.9 1.6-.7 1.5-.9 1.9-.9 2.4 0 .2-.1.6-.2.9-.1.2-.2.7-.2.9 0 .2-.1.7-.2 1-.1.3-.2.8-.3 1.1-.1.9-.4 1-2 .8-.8-.1-2.3-.3-3.4-.3-1.1-.1-2.3-.2-2.6-.3-1.2-.4-1.2-.3-1.1 2.4v2.4l1.2.2c.6.1 2.5.3 4.2.4 3.6.2 3.7.2 3.7 1.8 0 .5.1 1.2.2 1.6.1.4.2.9.2 1.2 0 .3.1.6.3.8.1.2.2.5.2.6 0 .2.1.5.2.8.1.3.4.8.5 1.1 1 2.2 4.3 5.3 5.7 5.3.1 0 .4.1.6.2.2.1.5.2.7.3.2 0 .8.1 1.2.3 1.1.3 4.9.3 6 0 .5-.1 1.1-.3 1.5-.3.4 0 .9-.1 1.1-.2.2-.1.7-.2 1-.2.3 0 .7-.1.8-.3.1-.1.5-.3.8-.3.4 0 .6-.1.6-.3 0-.3.6-.3 1.3-.1.3.1.4.2.3.4 0 .2 0 .3.1.3s.2-.1.2-.3c0-.2.2-.3.4-.3.5 0 .6-.3.4-.9-.2-.5-.6-.6-.8-.2-.1.2-.3.3-1 .3s-.9.1-1 .3c-.1.2-.4.3-1.4.3-.7 0-1.4.1-1.4.2-.1.1-1.2.2-2.8.2-1.6 0-2.7-.1-2.8-.2-.1-.1-.5-.2-1.1-.2-.8 0-1-.1-1-.3 0-.2-.2-.3-.8-.3-.6 0-.8-.1-.8-.3 0-.2-.2-.3-.4-.3s-.5-.1-.5-.3c-.1-.1-.3-.3-.5-.3s-.4-.1-.4-.3c0-.1-.1-.3-.2-.3s-.3-.1-.3-.3c-.1-.1-.2-.3-.4-.3s-.3-.1-.3-.1c0-.1-.2-.2-.4-.3-.2-.1-.4-.3-.4-.4 0-.1-.2-.5-.5-.8-.3-.3-.5-.6-.5-.7 0-.1-.1-.2-.3-.2-.2 0-.3-.2-.3-.4s-.1-.5-.3-.5c-.1-.1-.3-.3-.3-.5s-.1-.5-.2-.7c-.1-.2-.2-.6-.3-1 0-.4-.1-.7-.3-.7-.2-.1-.3-.4-.3-1.4 0-1-.1-1.3-.3-1.4-.2-.1-.3-.5-.3-2.1s0-2 .3-2.1c.2-.1.3-.4.3-1.8s0-1.7.3-1.7c.2 0 .3-.2.3-.8 0-.6.1-.8.3-.8.2 0 .3-.2.3-.5s.1-.5.3-.5c.2 0 .3-.2.3-.4s.1-.4.2-.4c.2 0 .6-.6.8-1.2.1-.2.2-.3.3-.3.1 0 .2-.1.2-.3 0-.1.1-.3.3-.3.1 0 .3-.1.3-.3 0-.1.1-.3.3-.3.1 0 .3-.1.3-.3 0-.1.1-.3.3-.3.1 0 .3-.1.3-.3 0-.1.1-.3.3-.3.1 0 .3-.1.3-.2s.1-.3.3-.3c.7-.3 1.5-.9 1.5-1.3 0-.1.2-.2.5-.2s.5-.1.5-.3c0-.2.2-.3.5-.3s.5-.1.5-.3c0-.1.1-.3.3-.3.2 0 .7-.2 1.1-.4.4-.2.9-.4 1.2-.5.2-.1.4-.2.4-.3 0-.1.2-.2.4-.2s.5-.1.5-.3c.1-.2.3-.3.7-.3.4 0 .7-.1.7-.3.1-.2.3-.3.8-.3s.7-.1.7-.3c0-.2.2-.3.8-.3.6 0 .8-.1.8-.3 0-.2.2-.3.9-.3s.9-.1 1-.3c.1-.2.3-.3 1-.3.6 0 .9-.1 1-.3.1-.2.4-.3 1.3-.3s1.2-.1 1.2-.3c0-.2.2-.3 1.2-.3.9 0 1.3-.1 1.5-.3.2-.2.6-.3 1.7-.3s1.5-.1 1.5-.3c.1-.2.5-.3 2.2-.3 1.7 0 2.2-.1 2.4-.3.2-.2 1-.3 5.1-.3 5.1 2.3 5.2 2.3 4.9 1.5 0-.2 0-.2 0 0z" id="path3787" fill="#33640c"></path><path class="st1" d="M78.5 21.3c0-.2-1.1-.2-1.6 0-.2.1-1.8.2-3.7.2-1.9.1-3.6.2-3.8.3-.3.1-1.1.2-1.8.3-1.6.2-3.4.6-3.7.7-.1.1-.5.2-.9.2-.4.1-.7.2-.8.3 0 .1-.4.2-.7.2-.3.1-.7.2-.9.2-.2 0-.8.4-1.4.7-2.1 1-4.3 2.8-4.8 3.8-.1.1-.3.6-.5 1s-.4.9-.4 1.1c0 .2-.1.5-.2.7-.1.2-.2.8-.3 1.3-.2 1.5-.2 1.5-2.8 1.4-1.2-.1-2.6-.2-3.1-.2l-.8-.1v3l1 .2c.5.1 1.9.3 3 .3 2.3.1 2.1 0 2.5 2.1.1.6.3 1.3.4 1.5.1.2.2.5.2.7 0 .2.1.4.3.5.1.1.3.3.3.5s.8 1.3 1.2 1.8c.7.7 2.3 1.6 3.1 1.8.2 0 .7.2 1.1.3.9.2 3 .2 3.8 0 .4-.1 1.1-.2 1.6-.3.5 0 .9-.2 1-.3.1-.1.3-.2.7-.2.5 0 .6-.1.6-.3 0-.4-1.6-.5-1.8-.1-.1.2-.5.3-2 .3s-1.9 0-2-.3c-.1-.2-.3-.3-1-.3-.6 0-.9-.1-1-.3-.1-.1-.2-.3-.4-.3s-.5-.2-.8-.4c-.2-.2-.6-.4-.8-.4-.2 0-.4-.1-.4-.3 0-.1-.1-.3-.3-.3-.2 0-.3-.2-.3-.4s-.1-.5-.3-.5c-.1-.1-.3-.2-.3-.3 0-.1-.1-.2-.3-.2-.2 0-.3-.2-.3-.5s-.1-.5-.3-.5c-.2 0-.3-.2-.3-1 0-.6-.1-1-.2-1s-.2-.9-.2-2.4c0-1.4.1-2.4.2-2.5.1-.1.2-.5.2-1 0-.7.1-.9.3-.9.2 0 .3-.2.3-.5s.1-.5.3-.5c.1 0 .3-.1.3-.3 0-.2.1-.3.2-.3s.2-.2.3-.4c.1-.2.2-.4.3-.4.1 0 .2-.1.2-.3 0-.2.1-.3.3-.3.1 0 .3-.1.3-.3 0-.2.1-.3.3-.3.1 0 .3-.1.3-.1 0-.1.2-.2.4-.2.2-.1.6-.3.8-.5.3-.2.6-.4.8-.4.2 0 .3-.1.3-.2s.2-.3.5-.3c.3-.1.5-.2.5-.3 0-.1.2-.2.4-.2s.5-.1.5-.3c.1-.1.3-.3.6-.3s.5-.1.5-.3c0-.2.2-.3.8-.3.6 0 .8-.1.8-.3 0-.2.2-.3.8-.3.6 0 .8-.1.8-.3 0-.2.2-.3.9-.3s.9-.1 1-.3c.1-.2.4-.3 1.2-.3.9 0 1.1-.1 1.1-.3 0-.2.3-.3 1.5-.3s1.5 0 1.5-.3c0-.2.4-.3 2.2-.3 1.4 0 2.3-.1 2.4-.2.1-.1.3-.2.5-.3.3-.1.3-.1.1-.2-.2.8-.3.7-.3.6z" id="path3789" fill="#33640c"></path><path class="st1" d="M86.5 7.2c0-.2-.3-.2-1.6-.2-1.2 0-1.6-.1-1.7-.3-.1-.2-.4-.3-1.4-.3-.7 0-1.7-.1-2.3-.3-.4 0-1.5-.1-2.2-.1-.8 0-1.7-.1-2.1-.2-1.8-.4-16.6-.8-19.3-.5-.7.1-2 .1-2.9.2-.9 0-2.3.1-3 .3-.8.1-1.8.2-2.4.2-.6 0-1.1.1-1.4.2-.2.1-1 .2-1.7.3-1.6.2-2.9.5-3.9.8-.4.1-1 .2-1.2.2-.2 0-.5.1-.5.2-.1.1-.4.2-.9.3-.4.1-1 .2-1.2.3-.2.1-.6.2-.8.2-.2 0-.4.1-.5.2-.1.1-.2.2-.4.2s-.4.1-.7.2c-3.1 1.3-5.3 2.5-6.4 3.3-.3.3-.7.5-.8.5-.1 0-.2.1-.2.1 0 .1-.2.3-.5.4-.9.5-4.3 4.1-4.3 4.5 0 .1-.2.4-.4.7-.2.3-.5.8-.6 1l-.3.6c-.3.4-.7 1.5-.7 1.7 0 .1-.1.4-.3.5-.1.2-.2.5-.3.8 0 .2-.1.6-.3.8-.1.2-.2.5-.2.8 0 .3-.1.5-.2.6-.1.1-.2.4-.3.8-.1.4-.2.7-.2.7-.1 0-.2.4-.2.7-.2 1.3-.6 1.9-1.2 1.8-.3 0-1-.2-1.6-.3-.6-.1-1.2-.3-1.2-.3-.1-.1-.5-.2-.9-.2s-1-.1-1.3-.3c-.3-.1-.9-.3-1.3-.3s-1-.1-1.4-.2c-.4-.1-.9-.2-1.3-.3-.3 0-.9-.1-1.3-.3-.4-.1-1-.2-1.5-.2h-.8v1c0 .7-.1 1.2-.3 1.4-.2.2-.2.9-.2 2.7v2.3l.6.3c.3.2 1 .3 1.5.4.5.1.9.2 1 .2.1.1.7.2 1.3.2.6.1 1.2.2 1.2.3.1.1.5.2.9.2s1.2.1 1.6.2c.5.1 1.5.3 2.2.3 2.1.2 2.2.3 2.4 1.7.3 3.3.5 5.7.7 6 .1.2.2.7.2 1.2.1.5.2.9.2 1 .1.1.2.4.2.8.1.3.2.8.4 1.1.1.3.2.6.2.7 0 .2.1.3.2.4.1.1.2.2.2.4s.1.4.3.5c.1.1.3.3.3.4 0 .7 4.2 5.7 4.8 5.7.1 0 .3.1.4.2.7.6 3.7 2 5 2.3.3.1.7.2.9.3.2.1.7.2 1 .2.3 0 1 .1 1.5.3 1.1.3 7 .3 8.3 0 .5-.1 1.3-.2 1.8-.3.5 0 1.1-.1 1.5-.2.4-.1 1-.2 1.3-.2.3 0 .7-.1.9-.3.2-.1.6-.2 1-.3.5 0 .7-.1.8-.3.1-.3.3-.3 1.1-.1.5.1.6.2.4.4-.2.2-.1.2.1.2.1 0 .3-.1.3-.3 0-.2.2-.3.5-.3.7 0 .7-.8.1-.9-.6-.2-2.3 0-2.4.3-.2.6-11.5.6-11.9.2-.2-.2-.6-.3-1.1-.3-.4 0-.9-.1-.9-.2-.1-.1-.5-.2-1-.2-.7 0-.9-.1-.9-.3 0-.2-.2-.3-.5-.3s-.5-.1-.6-.3c-.1-.2-.3-.3-.7-.3-.4 0-.6-.1-.6-.3 0-.1-.1-.3-.3-.3-.2 0-.4-.1-.5-.3-.1-.1-.3-.3-.4-.3-.1 0-.3-.1-.3-.3-.1-.1-.3-.3-.5-.3-.3 0-.4-.1-.4-.3 0-.1-.1-.3-.3-.3-.1 0-.3-.1-.3-.3 0-.1-.1-.3-.2-.3-.2 0-2.8-2.6-2.8-2.8 0-.1-.1-.2-.3-.2-.2 0-.3-.2-.3-.4 0-.3-.1-.4-.3-.4-.2 0-.3-.2-.3-.5s-.1-.5-.1-.5c-.2-.1-.7-1.1-.7-1.5 0-.2-.1-.4-.3-.4-.2-.1-.3-.3-.3-.6s-.1-.7-.3-.8c-.2-.2-.3-.6-.3-1.1 0-.5-.1-1-.2-1.1-.4-.5-.4-10 0-10.1.2-.1.3-.4.3-1.4 0-1 .1-1.4.3-1.6.2-.2.3-.6.3-1.1 0-.6.1-1 .3-1.1.1-.1.3-.5.3-.8 0-.3.1-.7.2-.7.2-.1.4-.9.6-1.9 0-.3.2-.5.3-.5.1 0 .2-.1.2-.2s.1-.3.3-.4c.1-.1.3-.3.3-.5s.1-.3.3-.3c.2 0 .3-.2.3-.5s.1-.5.2-.5 1-.9 2.1-1.9c1.1-1.1 2-1.9 2.1-1.9.1 0 .2-.1.2-.2s.1-.3.3-.3c.7-.3 1.5-.9 1.5-1.3 0-.1.2-.2.5-.2s.5-.1.5-.3c0-.2.2-.3.4-.3s.5-.1.5-.2c.2-.3.8-.6 1.2-.6.2 0 .3-.1.3-.3 0-.2.2-.3.5-.3s.5-.1.5-.2.3-.2.7-.3c.4-.1.7-.3.8-.3.1-.1.3-.2.5-.2s.5-.1.5-.3c.1-.2.3-.3.7-.3.4 0 .6-.1.7-.3.1-.2.3-.3.8-.3s.7-.1.8-.3c.1-.2.1.5.5.5s.7-.1.8-.3c.1-.2.3-.3.8-.3s.7-.1.8-.3c.1-.2.4-.3 1-.3s.9-.1 1-.3c.1-.2.4-.3 1.2-.3.9 0 1.1-.1 1.1-.3 0 .1.2.1 1.2.1s1.3 0 1.3-.3c0-.2.3-.3 1.5-.3s1.5-.1 1.6-.3c0-.1.4-.1 1.9-.1S58 8 58 7.7c0-.2.4-.3 2.9-.3 2.4 0 2.9 0 3-.3.1-.4 18.5-.4 18.9 0 .2.2.7.3 2 .3 1.4.1 1.7.1 1.7-.2z" id="path3791" fill="#33640c"></path><path id="path2" class="st2" d="M55.3 5.1c-.3 0-1.4.1-2.5.2-1.5.1-1.3.1 1.1 0 3.8-.1 11.3-.1 15.8 0 2.3.1 2.9.1 1.8 0-1.9-.1-15.2-.3-16.2-.2m-6 .5c-.1 0-.7.1-1.3.2l-1.2.2h1c.5 0 1.5-.1 2.1-.2 1.1-.2 1.1-.2.3-.2-.4-.1-.9 0-.9 0m25.4.1c.7.2 1.8.3 2.6.3h1.3l-1.2-.1c-.6-.1-1.8-.2-2.6-.2l-1.4-.1 1.3.1m-29.6.5c-.3.1-1 .2-1.7.3-2.4.4-4.7 1-3.9 1 .2 0 .8-.1 1.2-.2.9-.3 2.2-.6 3.9-.8C46 6.3 47 6 46.1 6c-.3 0-.7.1-1 .2m34.2 0c.2.1 1.2.2 2.1.2 1.5 0 1.6 0 .5-.1-.6-.1-1.6-.2-2.1-.2-.7-.1-.8-.1-.5.1m4 .6c0 .1.3.2.8.2h.8l-.5-.2c-.6-.4-1.3-.4-1.1 0m5.4.3c.1.3.2.4.4.2s.2-.2-.1-.4c-.4-.3-.5-.3-.3.2m-2.2.2c0 .1.1.3.3.3.2 0 .3-.1.3-.3 0-.2-.1-.3-.3-.3-.2 0-.3.1-.3.3m-48.3.4c-.2.1-.9.3-1.6.5-1.3.4-1.9.7-1.4.7.2 0 .3-.1.4-.2.1-.1.3-.2.5-.2s.6-.1.8-.2c.2-.1.8-.3 1.2-.3.4-.1.8-.2.9-.3 0-.2-.3-.2-.8 0M34 9c-.2.1-.8.3-1.2.5-5.1 2.2-9 5.3-11.5 9.3-.7 1.2-.8 1.4-.4 1.1.1-.1.3-.3.3-.4 0-.1.2-.5.5-.9s.5-.8.5-.8c0-.4 3.4-4 4.3-4.5.3-.1.5-.3.5-.3 0-.1.1-.1.2-.1s.5-.2.8-.5c.9-.7 3-1.8 5.3-2.8 1.5-.6 1.6-.7 1.4-.7-.2 0-.5 0-.7.1m35.6 5.2c-1.4.1.4.1 4.2.1 3.6 0 5.9 0 5.3-.1-1.6-.2-6.2-.2-9.5 0m14.1 0c0 .1.1.1.3.1.2 0 .3-.1.3-.1 0-.1-.1-.1-.3-.1-.1 0-.2 0-.3.1m-18.2.2s-.9.2-1.8.2c-2.1.2-5.3.7-5.7.9-.2.1-.1.1.3.1s1.3-.2 2-.3c.7-.1 1.5-.2 1.8-.3.3-.1 1.3-.2 2.3-.3 2.1-.1 3.4-.4 2-.4-.5 0-.9.1-.9.1m-9.7 1.5c-.7.3-.1.2 1-.1l.6-.2h-.5c-.3.1-.7.2-1.1.3m-2.7.7c-1.4.4-1.7.6-1.2.6.2 0 .4-.1.4-.2.1-.1.5-.2.9-.3.4-.1.9-.2 1-.2.1-.1.4-.2.6-.2l.4-.1h-.4c-.2 0-1 .2-1.7.4m-2.6.8c-1.5.6-1.7.8-1.5.8.2 0 .5-.1.8-.2.3-.1.8-.4 1.1-.5.4-.1.5-.2.3-.2-.1-.1-.5 0-.7.1m-2.5 1c-.3.2-.3.2-.2.2.1 0 .4-.1.6-.2.4-.3.1-.3-.4 0m-1 .4c-.1.1-.7.4-1.2.7-.5.3-.9.6-.9.6s.4-.1.8-.3c.4-.2 1-.5 1.3-.7.3-.1.5-.3.5-.3 0-.2-.2-.1-.5 0m-3.2 1.9c-2 1.4-4.2 3.8-4.9 5.5-.2.4-.4.9-.5 1.1-.1.2-.1.4-.1.5 0 0 .2-.2.3-.5.4-1 .9-2.1 1.4-2.8.7-1 3.8-3.8 4.5-4.1.1 0 .2-.1.1-.2 0 0-.4.2-.8.5m-23.6.4c-.2.4-.4.9-.4 1-.1.1-.1.3-.1.4 0 .3.5-.3.5-.6 0-.1.1-.5.3-.8.1-.3.2-.6.2-.7-.1 0-.3.3-.5.7m63.2 0c-.1.4.2.7.4.4.2-.3.1-.7-.2-.7 0 0-.1.2-.2.3m-11.2.3c-3.9.3-10.7 1.6-8.7 1.6.2 0 .4 0 .5-.1.2-.2 1.9-.5 3.7-.7.7-.1 1.5-.2 1.8-.3.3-.1 2-.2 3.8-.3 1.8-.1 3.5-.2 3.7-.2.3-.3-2.5-.2-4.8 0m6.3-.1c0 .2.6.3 2 .4 1 0 1.2 0 1.2-.2s-.3-.3-1.6-.3c-.9 0-1.6 0-1.6.1m-59.1 2.1c-.3.6-.3.9.1.5.1-.2.2-.5.2-.7-.1-.2-.2-.1-.3.2m41.8.1c-.6.2-1 .5-.9.5.1 0 .3 0 .4-.1.1-.1.5-.2.8-.3.3-.1.7-.2.8-.3.1-.1.3-.2.5-.2s.2-.1-.1-.1c-.3 0-.9.2-1.5.5m-2.6 1.1c-.5.3-1 .6-1.2.7-.1.1-.3.2-.3.2-.7 0-4 3.9-3.6 4.3.1.1.2-.2.4-.5.8-1.8 2.6-3.5 5.1-4.7.5-.3 1-.5 1-.5 0-.2-.5 0-1.4.5m-39.8.7c-.2.5-.4 1.2-.5 1.5-.1.2-.1.5-.1.7 0 .1.1.1.1-.1s.1-.4.2-.5c.1-.1.2-.4.3-.7.1-.3.2-.7.3-.8.1-.1.1-.4.1-.6-.1-.4-.2-.3-.4.5M6.7 27.2c.2.1.7.2 1.3.3.8.1.9 0 .3-.1-1.8-.4-1.9-.4-1.6-.2m2.5.5c.2.1.8.2 1.3.3.9 0 .9 0 .4-.1-1.7-.4-2-.4-1.7-.2m8.6.6c-.2.6-.3.7-.6.7-.5 0-2.3-.4-2.7-.5-.3-.1-.4-.1-.3.1.1.1.7.3 1.3.4.6.1 1.3.2 1.6.3.5.1 1.2-.9 1-1.5 0-.1-.2.1-.3.5m-5.7-.1c.3.1.8.2 1.3.2h.8l-.7-.1c-.4-.1-.9-.2-1.3-.2l-.6-.1.5.2m25.9.5c-.1.4-.2.8-.1.9.1.1.5-.9.4-1.3 0-.3-.1-.2-.3.4m-.5 2c-.1.5-.2 1-.1 1 .1.1.5-1.2.4-1.6 0-.2-.1 0-.3.6m15.6.2c-.1.5-.4 1.4-.5 1.8-.1.5-.3.9-.4 1-.1.1-.1.1.1.1.3-.1.7-.8.7-1.4 0-.3.1-.8.3-1.2.1-.4.2-.8.2-.9-.1-.2-.2.1-.4.6m-15.9 1.5c0 .8-.4.9-1.7.7-.6-.1-1.3-.2-1.5-.1-.4.1 1.6.5 2.4.5.7-.2 1-.5.8-1.1V32v.4m-7.4.2c.5.1 1.4.2 2.1.2h1.3l-1-.1c-.5-.1-1.5-.2-2.1-.2l-1.1-.1.8.2m17.9 1c.7.1 2 .2 2.8.2h1.6l-1.3-.1c-.7-.1-2-.2-2.8-.2l-1.5-.1 1.2.2M4.6 34.8c.4.2 1.8.6 3.4.9.4.1 1 .2 1.3.3.4 0 .6 0 .5-.1-.1-.1-.6-.2-1.3-.3l-1.2-.2c0-.1-.5-.2-1-.3-.5-.1-1.1-.2-1.3-.3-.2-.1-.4-.2-.5-.2-.2-.1-.1 0 .1.2m6.1 1.4c.4.1 1.3.2 1.9.3.6.1 1.8.3 2.6.4l1.4.2.1 1.6c.3 3.6.9 7.9 1 6.3 0-.3-.1-.6-.1-.8-.1-.3-.4-2.4-.7-6-.1-1.4-.3-1.5-2.4-1.7-.8-.1-1.8-.2-2.2-.3-.5-.1-1.2-.2-1.6-.2h-.8l.8.2m36.5.6c.2.1.7.2 1 .2.7 0 .3-.2-.8-.4-.6-.1-.6-.1-.2.2m3.2.3c1 0 1.8.1 1.9.3.2.2.2.2.2 0-.1-.2-.4-.3-1.9-.3h-1.8 1.6m-21.6.6c.2.1.8.2 1.4.2l1.1.1-1-.2c-1.2-.3-2.1-.4-1.5-.1m23.7.3c0 .2.1.7.2 1.2.3 1.1.8 2.5.8 2.2 0-.2-.1-.5-.2-.8-.1-.2-.3-.8-.3-1.3-.1-.5-.2-1-.3-1.3l-.2-.4v.4m-19.4.2c.9.1 2 .1 2.5.2 1.2 0 1.4.2 1.6 1.7.2 1.5.6 3.3.6 2.6 0-.3-.1-.8-.2-1.2-.1-.4-.2-1.1-.2-1.6 0-1.6-.1-1.7-3.3-1.7-2.4-.2-2.5-.2-1 0m20.4 3.6c0 .3.5.8.5.5 0-.1-.1-.4-.3-.5-.1-.1-.2-.1-.2 0m.8 1.4c.6 1 3 2.9 3.3 2.5 0 0-.1-.2-.4-.3-.6-.3-1.7-1.1-2.2-1.6-.2-.2-.5-.6-.7-.8l-.3-.4.3.6m-16.5.2c0 .2.1.3.2.4.1.1.2.2.2.4s.8 1.9 1.5 3.1c.3.6 1.9 2.2 2.6 2.7 1 .7 2 1.2 2.1 1.1 0 0-.1-.2-.4-.3-1.7-.8-3.9-3-4.8-4.9-.2-.4-.4-.9-.5-1.1-.1-.3-.2-.6-.2-.8-.2-.4-.7-1-.7-.6M67.2 45c0 .3-.1.3-.6.3-.4 0-.7.1-.7.2-.1.1-.4.3-1 .3-.5 0-1.1.2-1.5.3-.6.2-.6.2.2.1.4-.1 1.3-.1 2-.1.9 0 1.2-.1 1.2-.2s.1-.2.3-.2c.3 0 .3.3 0 .4-.1.1-.1.1.1.1.1 0 .4-.1.7-.3.2-.2.5-.3.6-.3.4 0 .3-.5-.2-.6-.2-.1-.5-.1-.7-.2-.4-.1-.4-.1-.4.2m-49.5.8c0 .4.9 3.4 1.3 4 .2.3.2.3.2 0 0-.2-.1-.3-.2-.4-.1-.1-.2-.2-.2-.4s-.1-.5-.2-.7c-.1-.3-.3-.7-.4-1.1-.1-.3-.2-.7-.2-.8-.1-.1-.2-.3-.3-.6v-.4.4m40.6.3c.3.1.8.2 1.1.2h.5l-.6-.2c-1.1-.3-1.7-.3-1 0m-39.1 4.2c0 .3.5.8.5.5 0-.1-.1-.4-.3-.5-.1-.1-.2-.1-.2 0m40 .1c0 .2-.2.3-.6.3-.3 0-.7.1-.8.3-.1.1-.5.3-.8.3-.3 0-.8.1-1 .3l-.4.3.5-.1c.3-.1.8-.1 1.2-.2.4 0 .8-.2 1-.3.1-.1.4-.2.8-.1 1.2.2 2.5-.4 1.4-.7-.7-.4-1.3-.3-1.3-.1m-39.4 1c1 1.8 3.3 4.4 5 5.5.9.6 2.9 1.7 3 1.6 0 0-.4-.3-.9-.6-1.3-.7-1.7-.9-2-1.1-.1-.1-.3-.2-.4-.2-.3 0-3.1-3-3.9-4.1-.7-1.2-1.2-1.8-.8-1.1m25.1 0c.6.3 1 .3.5 0-.2-.1-.5-.2-.7-.2-.2 0-.2 0 .2.2m1.7.5c1.1.3 1.7.3.8 0-.4-.1-.9-.2-1.2-.2-.3 0-.2.1.4.2m6.8 0c-.9.3-.2.3 1.2 0l1-.2h-.8c-.4 0-1 .1-1.4.2m-4.2.4h2.3c.6 0 .1-.1-1.1-.1-1.3 0-1.8.1-1.2.1m-.4 6c-.1.2-.3.3-.8.3-.4 0-.8.1-1 .2-.2.1-.8.3-1.2.3-.5.1-1 .2-1.2.3-.2.1-.2.2.3.1 1.4-.2 1.9-.3 2.3-.2.2.1.4.2.3.3-.1.1 0 .2.1.2.2.1.3-.5.1-.7-.1-.1 0-.2.4-.2s.6.1.6.3c0 .1.1.3.2.3s.2-.1.3-.3c.1-.1.3-.3.6-.3.8 0 1-.4.2-.7-1-.3-1.1-.2-1.2.1m-20.8.3c.1.1 2.6.9 2.8.9.4 0-.6-.5-1-.5-.2 0-.6-.1-.8-.3-.4-.2-1.2-.3-1-.1m3.9 1.1c.4.1 1 .2 1.3.2l.7.1-.8-.3c-.4-.1-1-.2-1.3-.2h-.6l.7.2m9.6.1l-.7.2.8-.1c.5 0 1.2-.2 1.6-.2l.8-.1h-.8c-.6-.1-1.3 0-1.7.2m-5.5.3h2.6c.7 0 .1-.1-1.3-.1-1.4 0-2 .1-1.3.1" fill="#679014"></path><path class="st2" d="M5.3 27h.8c.2 0 0-.1-.4-.1s-.6 0-.4.1" id="path3794" fill="#679014"></path><path class="st2" d="M60.6 46.5h1.2c.3 0 .1-.1-.5-.1s-1 0-.7.1" id="path3796" fill="#679014"></path><path id="path3" class="st3" d="M60.2 5H63c.8 0 .1-.1-1.5-.1-1.5 0-2.1 0-1.3.1M88 6.6c.2.2.3.5.3.6 0 .2.1.3.3.3.4 0 .3-.5-.3-.9-.5-.3-.5-.3-.3 0m-4.2 7c.1.2 0 .3-.2.5-.2.1-.2.2-.1.2s.2-.1.3-.2c.1-.1.2-.1.2-.1.1 0 .2 0 .4-.2s.2-.3 0-.2c-.2.2-.5.1-.6 0-.1-.1-.2-.1 0 0m-.7 7.6c-.2.4.3.6.5.2.1-.1 0-.1-.1-.1-.2.1-.2 0-.1-.2.2-.4-.1-.4-.3.1m-6.2-.1h1.6c.4 0 .1-.1-.8-.1-.9.1-1.3.1-.8.1m4.8.3c0 .2.2.3.4.3.3 0 .4-.1.3-.3-.1-.1-.2-.3-.4-.3-.2.1-.3.2-.3.3m-15 24.5c0 .2.1.2.3.1.1-.1.3-.2.3-.2 0-.1-.1-.1-.3-.1-.2 0-.3.1-.3.2m-8.4 5.2c-.1.1-.4.3-.6.3-.3.1-.3.1 0 .1.2 0 .3.1.3.2 0 .2.4.1.4-.1 0-.1.1-.3.2-.5.1-.3 0-.4-.3 0m-10.6 8c.1.1.4.3.6.3.2 0 .4-.1.4-.3 0-.3-.3-.3-.4 0-.1.2-.1.2-.1 0 0-.1-.2-.2-.4-.2-.3-.1-.3 0-.1.2m-.7.2c.1.1.2.2.1.3-.1.1 0 .2.1.2s.2-.1.2-.2c0-.2-.3-.5-.5-.5-.1.1 0 .1.1.2m-1.4.8c-.1.2 0 .3.2.3s.3-.1.3-.3c0-.1-.1-.3-.2-.3s-.2.1-.3.3" fill="#749c14"></path><path class="st3" d="M55 5.1h.6c.2 0 0-.1-.3-.1s-.4.1-.3.1" id="path3799" fill="#749c14"></path><path class="st3" d="M67.9 5.1h.6c.2 0 0-.1-.3-.1-.4 0-.5.1-.3.1" id="path3801" fill="#749c14"></path><path class="st3" d="M70.7 14.1h.8c.2 0 0-.1-.5-.1-.4 0-.5.1-.3.1" id="path3803" fill="#749c14"></path><path class="st3" d="M78.4 14.1h.8c.2 0 0-.1-.5-.1-.4 0-.6.1-.3.1" id="path3805" fill="#749c14"></path><path class="st3" d="M16.7 40c0 .3 0 .5.1.3v-.6c-.1-.2-.1 0-.1.3" id="path3807" fill="#749c14"></path><path class="st3" d="M34 60.1h.6c.2 0 0-.1-.3-.1s-.4.1-.3.1" id="path3809" fill="#749c14"></path><path id="path4" class="st4" d="M54 4.9s-.8.2-1.6.2l-1.5.2 1.7-.1c.9-.1 2.7-.1 4-.2l2.3-.1h-2.4c-1.4-.1-2.5 0-2.5 0m12.8.1c5.9.3 6.4.3 5.1.2-.7-.1-2.7-.2-4.4-.2-3.2-.1-3.2-.1-.7 0m-18.5.5c-.2.1-.6.2-.9.2-.3 0-.4.1-.3.1.2 0 1 0 1.8-.2 1.4-.2 1.4-.2.6-.2-.5 0-1.1 0-1.2.1m27.4.1c1 .1 2 .2 2.3.2.9 0-.9-.3-2.7-.4l-1.4-.1 1.8.3m10.3.2c.2.2.8.2.8.1s-.2-.2-.4-.2c-.3 0-.4 0-.4.1m-41.7.3c-1 .3-.2.3 1.1 0 .9-.2.9-.2.3-.2-.3 0-1 .1-1.4.2M79.9 6c1.3.2 3.1.4 2.1.2-.4-.1-1.2-.2-1.8-.2-1.1-.1-1.1-.1-.3 0m7.3.4c0 .4-.8.5-1.6.3-.4-.1-1-.2-1.4-.3-.8-.1-.8-.1-.2.1 1.2.3 1.9.5 2.7.5.6 0 .8.1.7.3-.1.2 0 .3.4.3.5 0 .8-.5.3-.8-.1-.1-.1-.2-.1-.3.1-.1 0-.1-.1-.1-.1.1-.2 0-.2-.1s-.2-.2-.3-.2c-.1 0-.2.2-.2.3m-45 .1c-.3.2 0 .2.7 0l.4-.1h-.4c-.3-.1-.6 0-.7.1m-1.8.4c-.9.3-.5.3.6.1.6-.1.8-.2.5-.2-.4-.1-.8 0-1.1.1m-2.3.6c-.1.2 0 .2.5 0 .3-.1.3-.1 0-.2-.2 0-.5.1-.5.2m-2.9.9c-.2.1-.5.2-.7.2-.1 0-.4.1-.6.3-.2.2 0 .1.6-.1.5-.2 1.1-.4 1.3-.5.3-.1.4-.1.1-.1-.2 0-.5.1-.7.2m-2.7 1l-1.2.6c-.4.2-.8.4-.9.5-.1.1 2.7-1.1 2.9-1.3.2-.1-.4 0-.8.2m-3.6 1.9c-.6.3-1 .7-1 .7 0 .1 2-1.1 2.3-1.3.2-.2-.4.1-1.3.6m-2.2 1.5c-1.2.9-2.3 2-2.3 2.1 0 .1.4-.2.8-.7.5-.4 1.2-1.1 1.7-1.4.5-.3.8-.6.8-.6 0-.1-.3 0-1 .6m54.6.5c0 .4-.5.5-3.7.4-1.8 0-4.1 0-5.2.1-1.7.1-1.5.1 2.9.2 2.6.1 5.5.2 6.3.2 1.6.1 2.4-.1 2.1-.6-.2-.4-1.1-.2-1.1.2 0 .3-.1.3-.4.3-.2-.1-.5-.1-.6-.1-.3 0-.3-.3.1-.5.5-.2.4-.5 0-.5-.2.1-.4.2-.4.3m-15.8.9c-.7.1-1.3.2-1.3.2-.1.1.3.1.9 0 .6-.1 2-.2 3.2-.2l2.2-.1h-1.8c-1.1 0-2.5 0-3.2.1m-5 .6c-.3.2.1.2.9 0l.5-.1h-.6c-.3 0-.7 0-.8.1m-2.7.5c-.4.1-.9.2-1.1.2-.5 0-1.6.3-1.5.4 0 0 .4 0 .7-.1.7-.2 3-.6 3.7-.8.2 0 .1-.1-.3-.1-.4.1-1.1.2-1.5.4m-34.8.8c-.7.8-2.1 2.9-2 3 0 0 .4-.5.9-1.2.4-.7 1-1.4 1.1-1.5.3-.3.7-.9.6-.9l-.6.6m28.8.7c-.5.3-.3.3.6 0 .5-.2.6-.2.3-.2-.3-.1-.6 0-.9.2m-1.5.5c-.3.2-.3.2-.2.2.1 0 .3-.1.4-.1.1-.1.3-.2.5-.2l.3-.1H51c-.1-.1-.4 0-.7.2m-1.2.4c-.4.3-.2.3.4 0 .3-.1.4-.2.2-.3l-.6.3m-1.7.7c-.5.2-.9.5-.8.5 0 0 .3 0 .5-.2.3-.1.7-.3 1.1-.5.3-.1.5-.3.3-.3-.1.1-.6.3-1.1.5m-2.5 1.3c-.6.4-1.2.8-1.3.9-.1.1-.5.4-1 .8-1 .8-2.2 2-2.5 2.5-.1.2.3-.2.9-.8 1.1-1.2 2.8-2.6 4.5-3.5.5-.3.8-.5.7-.5 0-.1-.6.2-1.3.6m-24.2-.2c-.3.5-.7 1.5-.7 1.6 0 0 .3-.3.5-.8.5-1 .5-1.2.2-.8m60.7 1.1c.1.2-.1.3-.9.3-1.6.2-1.6.2.1.2 1.2 0 1.6.1 1.7.3.1.4.7.3.7-.1 0-.5-.6-.9-1.2-.9-.3-.1-.4 0-.4.2m-9.1.6c-.3.1.5.1 1.7 0 1.2 0 2.2-.1 2.2-.1.1-.2-3.5-.1-3.9.1m-4.5.5c-.3.2.1.2.9 0l.5-.1h-.6c-.3-.1-.6 0-.8.1m-2.3.3c-.3.1-.5.2-.5.3 0 .1.2 0 .5 0 .3-.1.8-.2 1.2-.2l.8-.1h-.7c-.4-.1-1-.1-1.3 0m-2.1.6c-.4.2-.4.2-.1.1.2-.1.7-.2 1-.2.6-.1.6-.1.1-.1-.3 0-.7.1-1 .2m-44.2.6c-.1.3-.2.6-.2.8 0 .2.1 0 .2-.4.3-.7.2-1.1 0-.4m42.7-.2c-.7.3-.3.3.4.1.4-.1.5-.2.3-.2s-.5 0-.7.1m-2 .8c-.5.2-.9.4-.9.5 0 0 .4-.1.9-.3.5-.2.9-.4 1.1-.5.2-.1.2-.1 0-.1-.1 0-.7.1-1.1.4m-41.2 1c-.1.2-.2.6-.2.7 0 .1.1 0 .2-.4.3-.8.3-1 0-.3m39.5-.2c-.2.1-.2.2-.2.2.1 0 .3-.1.5-.2s.2-.2.2-.2c-.1-.1-.3 0-.5.2m-18.9.4c-.4.6-.7 1.2-.6 1.2 0 0 .3-.3.5-.7.5-.7.6-1.1.1-.5m17.7.3l-.6.5.7-.4c.4-.2.7-.5.7-.5 0-.2-.3 0-.8.4m-38.8 1.1c-.1.2-.2.6-.2.7 0 .1.1-.1.3-.5l.2-.8c-.1.1-.2.3-.3.6m37.4.1c-.8.7-1.6 1.7-1.9 2.5-.5 1.2-.8 1.9-.8 2.1 0 .1.2-.1.3-.6.6-1.7 1-2.3 2.3-3.7 1-1.1 1.1-1.2.1-.3m-50.4.1c-.2 0-.5.2-.6.3-.2.3-.2.3.1.1.2-.1.6-.2 1-.2h.7c.1-.1-.8-.2-1.2-.2m33.2.3c-.3.6-.2.9.1.4l.2-.6s-.2 0-.3.2m-31.1.2c.4.1.9.2 1.2.2.3 0 .1-.1-.4-.2-1.1-.3-1.7-.3-.8 0m2.2.4c.6.2 1.1.2.8 0-.1-.1-.5-.2-.8-.1-.4 0-.4 0 0 .1m1.8.3c.4.1.9.2 1.3.3.4.1.5.1.3-.1-.1-.1-.7-.2-1.3-.3-.8 0-.9 0-.3.1m26.6.7c-.3.9-.2 1.2.1.4.1-.4.2-.8.2-.9-.1-.1-.2.1-.3.5m-23.8-.1c1.2.3 1.4.3 1.1.1-.1-.1-.7-.2-1.2-.2l-.9-.1 1 .2m3.4.1c0 .2-.2.3-.5.3h-.5l.5.2c.4.1.8-.2.5-.5.1-.2 0-.1 0 0m19.9 1.6c-.3 1.3-.3 1.6 0 .8.1-.4.2-.9.2-1.1 0-.1-.1 0-.2.3m15.3 1.8c0 .1-.1.5-.2 1-.1.4-.2.8-.1.7.2-.1.6-1.6.5-1.7-.2-.1-.2-.1-.2 0m-23.1.4c.7.1 1.8.2 2.4.2l1.1.1-1.2-.2c-.6-.1-1.7-.2-2.4-.2h-1.3l1.4.1m7.4.2c-.1.4-.1.4-1.7.3-1.5-.1-1.5-.1-.5.1.7.1 1.3.2 1.5.2.4.1.9-.3.9-.7-.1-.3-.1-.3-.2.1m11.2.8c.5.1 1.6.2 2.4.2 1.3.1 1.4.1.5-.1-1.5-.1-4.1-.3-2.9-.1M4.6 35c.3.2.6.4.9.4.5 0 .5 0-.1-.1-.3-.1-.8-.2-.9-.4-.1-.2-.1-.1.1.1m1.7.5c.1.1.3.2.6.2.4 0 .4 0 .1-.2-.5-.2-.9-.2-.7 0m2.4.5c.1.1.4.2.7.1h.4l-.5-.1c-.6-.2-1-.2-.6 0m1.8.4c1.4.3 2.2.3 1.3.1-.5-.1-1.1-.2-1.4-.2-.6-.1-.6-.1.1.1m3.2.5c.4.1 1.1.2 1.6.2.8.1.8.1-.3-.2-.6-.1-1.3-.2-1.6-.2-.4 0-.3 0 .3.2m33.1-.1c0 .2.7.4 1.2.3.3-.1.2-.1-.2-.1-.3 0-.7-.1-.8-.2-.1-.2-.2-.2-.2 0m-30.2 1.6c0 .7 0 1 .1.6v-1.3c-.1-.3-.1 0-.1.7m34.1-1.1c.8 0 1.5.1 1.6.3.1.1.1.1.1 0-.2-.3-.5-.4-1.7-.3l-1.4-.1 1.4.1m-22.4.3c0 .2 1.1.6 1.8.6h.8L30 38c-.5-.1-1.1-.2-1.3-.3-.2-.1-.4-.2-.4-.1m24.1.7c0 .3.1.8.2 1.2.3.6.3.6-.1-1.1l-.1-.7v.6m-19.7 0c.4.1 1.5.2 2.4.3 1.6.1 1.6.1 1.7.6.3 1.2.4 1.4.3.6-.1-1.1-.2-1.2-2.3-1.4-2.2-.3-3.3-.3-2.1-.1m20.1 2.2c0 .2.1.5.2.8.3.6.3.3 0-.5 0-.3-.2-.4-.2-.3m-36.1.8c0 .5.1 1 .1 1.2.2.5.2-.2 0-1.3l-.1-.8v.9m20.5.3c0 .3.1.6.2.6.1.1.2.3.2.5s0 .3.1.2c0-.1 0-.6-.2-1-.3-.7-.3-.8-.3-.3m16.1.3c0 .7 2.8 3.9 3.1 3.6 0 0-.2-.3-.5-.5-.9-.7-1.2-1.1-1.9-2.2-.4-.6-.7-1-.7-.9m-36.2 2c0 .6.1 1.2.3 1.3.2.3.2.2.1-.2-.1-.3-.2-.9-.3-1.3l-.2-.8.1 1m20.6-.5c0 .2.1.5.2.8.3.6.3.3 0-.5-.1-.4-.2-.5-.2-.3m.5 1.4c0 .1.1.4.2.6.3.4.3.1 0-.4-.1-.2-.2-.3-.2-.2m18.6.9c.3.3 2 .8 2.4.8.2 0 0-.1-.5-.3-.5-.1-1.1-.4-1.4-.5-.6-.2-.8-.3-.5 0m-39.2.6c0 .4.2.8.3.9.2.1.2.1.1-.1s-.2-.6-.3-.9c-.2-.6-.2-.6-.1.1m21.1-.4c-.1.7 2.6 3.9 3.9 4.6.8.5.8.3-.1-.3-1.2-.8-2.2-2-3.6-4.1-.1-.2-.2-.3-.2-.2m25.8.3c-.1.1-.5.2-.8.2-.4 0-.5 0-.2.1.2 0 .4.2.5.4.1.4.3.4 1.4-.1.8-.3.9-.5.5-.7-.7-.1-1.1-.1-1.4.1m-1.9 1.1c-.2.2-.1.3.3.3.6-.1.6-.1.5-.2-.1-.3-.6-.3-.8-.1m-44.6.4c0 .3.3 1.2.4 1.1 0 0 0-.4-.2-.7-.1-.4-.2-.6-.2-.4m25.6 3.4c.2.1.5.3.8.4.2.1.5.2.5.3 0 .1.2.1.4.1s-.2-.2-.7-.5c-1.1-.6-1.5-.7-1-.3m14.8.2c-.1.2 0 .3.4.3.3 0 .5-.1.5-.3 0-.1-.2-.3-.4-.3s-.4.1-.5.3m-38.9 0c0 .4 1.6 2.6 2.6 3.6l1.1 1.1-1-1.1c-.6-.6-1.4-1.7-1.9-2.4-.4-.8-.8-1.3-.8-1.2m36.8.4c-.6.2-.6.3-.3.3s.4.1.3.3c-.1.3.5.3.7 0 .1-.1.4-.3.7-.3.4 0 .5-.1.4-.3-.3-.4-1.1-.4-1.8 0m-10 .4c.4.1.9.2 1.1.2.3 0 .1-.1-.4-.2-1.2-.3-1.6-.3-.7 0m7.6 0c-.8.2-.8.2-.3.2.3 0 .9-.1 1.3-.2.9-.3.2-.3-1 0m-4.4.4h1.8c.5 0 .1-.1-.9-.1s-1.4 0-.9.1m5.4.2c-.1.4.3.4.8.1.3-.2.3-.2-.2-.3-.4-.1-.5 0-.6.2m-1.4.6c0 .2.1.2.4.2.2-.1.4-.1.5-.1.4 0 0-.3-.4-.3-.3-.1-.5 0-.5.2m-30.2 2.6c0 .2 1.3 1.1 2 1.5.6.3.4.1-.3-.4-.4-.2-.9-.6-1.2-.9-.3-.1-.5-.3-.5-.2m3.8 2.5c.2.1.5.3.8.4.2.1.5.2.5.3.1.1.3.1.5.1s-.1-.2-.8-.5c-1.3-.6-1.5-.6-1-.3m2.7 1c.3.1.7.2.9.2.2 0 .1-.1-.3-.2-.9-.3-1.3-.3-.6 0m15.7-.1c-.1.1-.5.2-.8.2-.5 0-.5 0-.1.2.2.1.3.3.3.4-.1.1 0 .2.2.2s.4-.1.4-.3c.1-.1.2-.3.3-.3.2 0 .2-.1.2-.3-.1-.2 0-.3.1-.3s.2.1.2.3c0 .3.4.3.6.1.4-.3-.9-.5-1.4-.2m-13.7.6c.3.1.9.2 1.3.2h.8l-.7-.1c-.4-.1-1-.2-1.3-.2l-.6-.1.5.2m11.2-.1c-.1.1-.6.2-1.2.2l-1.1.1h1c1 0 2.8-.4 1.9-.4-.4 0-.6 0-.6.1m-7 .5h2.7c.7 0 .1-.1-1.4-.1s-2.1.1-1.3.1m7.5.2c-.1.4.2.4.7.1.3-.1.3-.2.1-.3-.4-.2-.8-.1-.8.2m-1.8.5c-.3.3-.3.3.3.3.5 0 1-.2.8-.4-.2-.2-.8-.2-1.1.1m-1.9.6c0 .2.2.3 1 .1 0 0 0-.1-.2-.2-.3-.2-.8-.2-.8.1" fill="#7c9c14"></path><path class="st4" d="M62.6 14.6h1c.3 0 0-.1-.5-.1s-.8.1-.5.1" id="path3812" fill="#7c9c14"></path><path class="st4" d="M77 21h1.2c.4 0 .1-.1-.5-.1-.8 0-1 0-.7.1" id="path3814" fill="#7c9c14"></path><path class="st4" d="M70 21.5h1.2c.4 0 .1-.1-.5-.1-.8 0-1 0-.7.1" id="path3816" fill="#7c9c14"></path><path class="st4" d="M19.7 21.8c-.1.2-.2.5-.1.6.1.2.1.2.1-.1 0-.2.1-.4.2-.5.1-.1.2-.2.1-.3-.1-.1-.2.1-.3.3" id="path3818" fill="#7c9c14"></path><path class="st4" d="M15.7 28.8h.6c.2 0 0-.1-.3-.1s-.5 0-.3.1" id="path3820" fill="#7c9c14"></path><path class="st4" d="M7.5 35.8h.6c.2 0 0-.1-.3-.1s-.4 0-.3.1" id="path3822" fill="#7c9c14"></path><path class="st4" d="M60.9 46.6h.8c.2 0 0-.1-.5-.1-.4 0-.6.1-.3.1" id="path3824" fill="#7c9c14"></path><path class="st4" d="M18.5 49.2c0 .1.1.4.2.6.3.3.3.3.1 0-.1-.2-.2-.4-.2-.6-.1-.2-.1-.2-.1 0" id="path3826" fill="#7c9c14"></path></g></svg>