<?xml version="1.0" encoding="UTF-8" standalone="no"?>
<!-- Generator: Adobe Illustrator 21.0.0, SVG Export Plug-In . SVG Version: 6.00 Build 0)  -->

<svg
   xmlns:dc="http://purl.org/dc/elements/1.1/"
   xmlns:cc="http://creativecommons.org/ns#"
   xmlns:rdf="http://www.w3.org/1999/02/22-rdf-syntax-ns#"
   xmlns:svg="http://www.w3.org/2000/svg"
   xmlns="http://www.w3.org/2000/svg"
   xmlns:sodipodi="http://sodipodi.sourceforge.net/DTD/sodipodi-0.dtd"
   xmlns:inkscape="http://www.inkscape.org/namespaces/inkscape"
   version="1.1"
   id="svg"
   x="0px"
   y="0px"
   viewBox="0 0 89.239388 63.374999"
   xml:space="preserve"
   sodipodi:docname="image2vector.svg"
   width="89.239388"
   height="63.375"
   inkscape:version="0.92.3 (2405546, 2018-03-11)"><metadata
   id="metadata3834"><rdf:RDF><cc:Work
       rdf:about=""><dc:format>image/svg+xml</dc:format><dc:type
         rdf:resource="http://purl.org/dc/dcmitype/StillImage" /><dc:title></dc:title></cc:Work></rdf:RDF></metadata><defs
   id="defs3832" /><sodipodi:namedview
   pagecolor="#ffffff"
   bordercolor="#666666"
   borderopacity="1"
   objecttolerance="10"
   gridtolerance="10"
   guidetolerance="10"
   inkscape:pageopacity="0"
   inkscape:pageshadow="2"
   inkscape:window-width="1366"
   inkscape:window-height="715"
   id="namedview3830"
   showgrid="false"
   fit-margin-top="0"
   fit-margin-left="0"
   fit-margin-right="0"
   fit-margin-bottom="0"
   inkscape:zoom="1.475"
   inkscape:cx="4.3071809"
   inkscape:cy="101.62652"
   inkscape:window-x="-8"
   inkscape:window-y="-8"
   inkscape:window-maximized="1"
   inkscape:current-layer="svg" />
<style
   type="text/css"
   id="style3784">
	.st0{fill:#B2CB1B;}
	.st1{fill:#33640C;}
	.st2{fill:#679014;}
	.st3{fill:#749C14;}
	.st4{fill:#7C9C14;}
</style>
<g
   id="svgg"
   transform="translate(0,0.375)">
	<path
   id="path0"
   class="st0"
   d="m 34.5,0.2 c 0,0.1 -0.8,0.2 -2,0.2 -1.5,0 -2,0.1 -2.2,0.2 -0.2,0.2 -0.7,0.3 -1.6,0.3 -1,0 -1.4,0.1 -1.4,0.3 0,0.2 -0.3,0.2 -1.1,0.2 -0.6,0 -1.2,0.1 -1.3,0.2 -0.1,0.1 -0.4,0.2 -0.8,0.2 -0.4,0 -0.9,0.1 -1,0.2 C 23,2.1 22.4,2.2 22,2.2 21.6,2.3 21.2,2.4 21.1,2.5 21,2.6 20.8,2.7 20.5,2.7 20.2,2.7 19.9,2.8 19.8,3 19.7,3.1 19.4,3.3 19.2,3.3 19,3.3 18.6,3.4 18.4,3.5 18.2,3.6 17.8,3.8 17.5,3.8 17.2,3.7 17,3.8 17,4 17,4.1 16.8,4.2 16.5,4.2 16.2,4.2 16,4.3 16,4.5 16,4.7 15.8,4.8 15.5,4.8 15.2,4.8 15,4.9 14.9,5.1 14.8,5.2 14.6,5.4 14.4,5.4 14.2,5.4 13.9,5.5 13.7,5.7 13.6,5.8 13.3,6 13.2,6 13.1,6 13,5.8 13,5.9 13,6.1 12.8,6.2 12.5,6.2 12.2,6.2 12,6.3 12,6.4 12,6.6 11.8,6.7 11.6,6.7 11.4,6.7 11.1,6.8 11.1,7 11,7.1 10.9,7.3 10.8,7.3 10.7,7.3 10.6,7.4 10.7,7.5 10.8,7.7 10.1,8 9.9,7.9 9.8,7.9 9.8,7.9 9.8,8.1 9.8,8.3 9.6,8.2 9.4,8.2 9.3,8.2 9.1,8.3 9.1,8.5 9.1,8.7 9,8.7 8.9,8.7 8.8,8.6 8.6,8.7 8.6,8.9 8.6,9.1 8.4,9.2 8.3,9.1 8.2,9 8.2,9.1 8.2,9.2 8.2,9.3 8,9.5 7.8,9.6 7.5,9.7 7.3,9.8 7.2,10 7.1,10.2 7,10.3 6.9,10.2 6.8,10.1 6.7,10.3 6.6,10.5 6.5,10.8 6.4,10.9 6.3,10.8 6.1,10.7 6,10.9 6.1,11.3 c 0,0.1 -0.1,0.1 -0.1,0 -0.1,-0.1 -0.2,0 -0.3,0.2 -0.1,0.2 -0.4,0.6 -0.8,1 -0.4,0.4 -0.7,0.8 -0.7,1 0,0.2 -0.2,0.5 -0.5,0.7 -0.3,0.3 -0.5,0.6 -0.5,0.7 0,0.1 -0.1,0.3 -0.2,0.4 -0.1,0.1 -0.2,0.3 -0.2,0.3 0,0.1 -0.1,0.3 -0.3,0.6 -0.2,0.2 -0.3,0.4 -0.2,0.4 0.1,0 0,0.2 -0.1,0.4 -0.2,0.4 -0.3,0.6 -0.2,0.7 0,0.1 0,0.1 -0.1,0.1 -0.1,0 -0.1,0.1 -0.1,0.2 0,0.1 0,0.4 -0.1,0.7 -0.1,0.3 -0.2,0.7 -0.2,1 0,0.3 -0.1,0.6 -0.2,0.6 -0.1,0 -0.2,0.6 -0.3,1.5 0,0.8 -0.1,1.4 -0.2,1.4 -0.1,0 -0.1,-0.1 0,-0.2 0.1,-0.2 0.1,-0.2 -0.1,0 -0.1,0.1 -0.2,0.7 -0.1,1.6 V 26 h 0.6 c 0.9,0.1 1.4,0.2 1.3,0.4 0,0.1 0,0.1 0.1,0.1 0.9,0 1.6,0.1 1.5,0.2 -0.1,0.2 0.6,0.2 0.9,0 0.2,-0.2 1,-0.2 2.1,0 0.5,0.1 1.3,0.3 1.8,0.4 0.6,0.1 1.3,0.2 1.6,0.3 0.3,0.1 1,0.2 1.6,0.3 0.6,0.1 1.5,0.3 2.2,0.4 3.4,0.7 3.4,0.7 3.5,0 0.1,-0.3 0.2,-0.7 0.2,-0.8 0.1,-0.1 0.3,-0.7 0.4,-1.3 0.2,-0.5 0.4,-1.2 0.5,-1.5 0.1,-0.3 0.2,-0.7 0.2,-0.8 0,-0.2 0.1,-0.5 0.3,-0.8 0.1,-0.3 0.2,-0.6 0.2,-0.8 0,-0.2 0.1,-0.4 0.2,-0.6 0.1,-0.2 0.2,-0.4 0.3,-0.6 0,-0.1 0.2,-0.6 0.4,-1 0.2,-0.4 0.6,-1 0.8,-1.4 1.1,-2 5.6,-6.6 6.5,-6.6 0.1,0 0.2,-0.1 0.2,-0.1 0,-0.1 0.5,-0.4 1,-0.7 0.6,-0.3 1.2,-0.7 1.4,-0.8 0.2,-0.1 0.7,-0.4 1.1,-0.6 0.4,-0.2 1,-0.5 1.2,-0.6 0.3,-0.1 0.6,-0.2 0.7,-0.2 0.1,0 0.4,-0.1 0.7,-0.2 1,-0.5 1.7,-0.8 2.1,-0.8 0.2,0 0.4,-0.1 0.4,-0.2 0.1,-0.1 0.4,-0.2 0.8,-0.3 0.4,-0.1 0.8,-0.2 1,-0.3 0.1,-0.1 0.6,-0.2 1,-0.3 1.3,-0.3 2.4,-0.5 3,-0.7 1,-0.3 2.7,-0.5 4.1,-0.7 C 47.2,5.3 48.2,5.2 48.6,5.1 50.9,5 66.4,4.6 70.2,5 c 1,0.1 2.8,0.3 4,0.3 2.8,0.2 5.6,0.5 7,0.7 0.6,0.1 1.7,0.2 2.4,0.3 0.8,0.1 1.7,0.2 2,0.3 0.8,0.2 1.6,0.1 1.6,-0.2 C 87.2,6.1 86.9,6 86,5.7 85.8,5.6 85.5,5.5 85.5,5.3 85.4,5.2 85.2,5.1 84.8,5.1 84.4,5.1 84.1,5 83.9,4.8 83.8,4.7 83.4,4.5 83.1,4.5 82.8,4.5 82.5,4.4 82.4,4.3 82.3,4.2 81.9,4.1 81.4,4 81,4 80.6,3.9 80.5,3.7 80.4,3.6 80,3.5 79.5,3.4 79,3.4 78.6,3.3 78.5,3.2 78.4,3.1 77.9,3 77.3,2.9 76.6,2.9 76.2,2.8 76.1,2.6 76,2.4 75.7,2.4 74.9,2.4 74.3,2.4 73.8,2.3 73.8,2.2 73.9,2 73.5,1.9 72.4,1.9 71.7,1.9 71.3,1.8 71.2,1.6 71,1.4 70.6,1.3 69.7,1.3 69,1.3 68.4,1.2 68.4,1.1 68.4,1 67.6,0.9 66.7,0.9 65.7,0.9 65.1,0.8 65,0.7 64.9,0.6 65,0.5 65.2,0.6 65.4,0.7 65.4,0.6 65.4,0.5 65.3,0.4 65.2,0.3 65.1,0.4 64,0.5 61.2,0.4 61.3,0.2 61.4,0 61,0 59,-0.1 c -1.5,0 -2.4,-0.1 -2.5,-0.2 -0.1,-0.1 -0.1,-0.1 -0.2,0 -0.1,0.2 -0.1,0.2 -0.1,0 -0.2,0.2 -21.7,0.2 -21.7,0.5 m 19.6,11.6 c -0.2,0.2 -0.3,0.2 -0.2,0 0.1,-0.2 0.1,-0.2 -0.1,0 -0.1,0.1 -0.8,0.2 -2.1,0.2 -1.6,0 -1.9,0 -1.9,0.3 0,0.2 -0.3,0.3 -1.3,0.3 -1.4,0 -1.9,0.1 -1.8,0.4 0.1,0.1 0,0.1 0,0.1 -0.8,-0.1 -2.4,0 -2.4,0.3 0,0.2 -0.2,0.3 -1,0.3 -0.7,0 -1,0.1 -1,0.2 0,0.1 -0.3,0.2 -0.9,0.3 -0.7,0 -1,0.1 -1,0.3 0,0.2 -0.8,0.4 -1.4,0.3 -0.1,0 -0.1,0.1 -0.1,0.2 0,0.2 -0.2,0.3 -0.5,0.3 -0.3,0 -0.7,0.1 -0.9,0.2 -0.3,0.1 -0.5,0.2 -0.6,0.2 -0.1,0 -0.2,0 -0.2,0.2 -0.1,0.1 -0.3,0.3 -0.5,0.3 -0.2,0 -0.5,0.1 -0.6,0.3 -0.1,0.1 -0.4,0.3 -0.6,0.3 -0.2,0 -0.4,0.1 -0.5,0.2 -0.1,0.1 -0.2,0.2 -0.4,0.2 -0.2,0 -0.5,0.3 -0.8,0.5 -0.3,0.3 -0.5,0.4 -0.5,0.3 0,-0.1 -0.2,0 -0.4,0.2 -0.2,0.2 -0.6,0.5 -0.8,0.6 -0.2,0.1 -0.7,0.5 -1,0.8 -0.3,0.3 -0.7,0.6 -0.8,0.6 -0.1,0 -0.2,0.1 -0.2,0.2 0,0.2 -0.6,0.8 -0.8,0.8 -0.1,0 -0.2,0.1 -0.2,0.2 0,0.1 -0.2,0.3 -0.4,0.6 -0.2,0.2 -0.4,0.5 -0.4,0.5 0,0.1 -0.2,0.4 -0.5,0.7 -0.3,0.3 -0.6,0.7 -0.6,0.9 0,0.2 -0.2,0.4 -0.3,0.5 -0.1,0.1 -0.2,0.3 -0.2,0.4 0.1,0.1 0,0.4 -0.2,0.6 -0.2,0.2 -0.3,0.6 -0.3,0.8 0,0.2 -0.1,0.6 -0.2,0.9 -0.1,0.3 -0.3,0.9 -0.3,1.3 0,0.5 -0.1,0.9 -0.2,1.1 -0.2,0.2 -0.2,0.2 0,0.1 0.2,-0.1 0.2,-0.1 0,0.1 -0.4,0.4 -0.3,2.8 0.2,2.9 0.6,0.2 2.9,0.1 3,-0.1 0.1,-0.2 2.1,-0.2 3.8,0.1 2,0.3 4.8,0.5 4.9,0.3 0.1,-0.1 0.2,-0.6 0.2,-1 0.5,-3.3 1.6,-6.1 2.8,-7.4 0.1,-0.1 0.2,-0.3 0.2,-0.3 0,-0.2 1.5,-1.7 2.4,-2.4 0.5,-0.4 0.9,-0.7 0.9,-0.8 0.3,-0.4 4.6,-2.7 5,-2.7 0.1,0 0.4,-0.1 0.6,-0.2 0.3,-0.1 0.8,-0.3 1.1,-0.5 0.3,-0.2 0.9,-0.3 1.3,-0.4 0.4,-0.1 0.8,-0.2 1.1,-0.3 0.3,-0.1 0.7,-0.1 0.8,-0.2 0.2,-0.1 0.7,-0.2 1.1,-0.3 0.7,-0.1 1,-0.2 3,-0.7 0.8,-0.2 2,-0.4 4.5,-0.6 0.9,-0.1 1.9,-0.2 2.3,-0.3 1.2,-0.3 7.2,-0.6 12,-0.6 2.4,0 4.6,-0.1 4.7,-0.1 0.5,-0.2 0.3,-0.6 -0.3,-0.6 -0.4,0 -0.6,-0.1 -0.7,-0.3 -0.1,-0.2 -0.4,-0.3 -1.6,-0.3 -0.8,0 -1.5,-0.1 -1.4,-0.1 0.2,-0.3 -0.4,-0.4 -2.5,-0.4 -1.6,0 -2.1,-0.1 -2,-0.2 0.2,-1 -17.9,-1 -18.3,-0.6 m 28,1.4 c -0.1,0.1 0,0.2 0,0.2 0.1,0 0,0.1 -0.2,0.2 -0.4,0.2 -0.5,0.5 -0.2,0.5 0.1,0 0.4,0 0.6,0.1 0.3,0.1 0.4,0 0.4,-0.2 0,-0.5 -0.5,-1.1 -0.6,-0.8 M 63,19.6 c 0,0.2 -0.4,0.2 -1.9,0.3 -1.3,0 -1.9,0.1 -1.9,0.3 0,0.1 -0.4,0.2 -1.1,0.2 -0.8,0 -1.1,0.1 -1.1,0.3 0,0.1 -0.1,0.2 -0.1,0.2 -0.7,-0.1 -1.7,0.1 -1.7,0.3 0,0.2 -0.2,0.3 -0.8,0.3 -0.6,0 -0.8,0.1 -0.8,0.3 0,0.2 -0.2,0.3 -0.8,0.3 -0.5,0 -0.7,0.1 -0.7,0.2 0,0.1 -0.2,0.2 -0.5,0.3 -0.3,0 -0.5,0.1 -0.4,0.2 0.1,0.1 0,0.2 -0.2,0.2 -0.1,0 -0.3,0 -0.4,0.1 -0.1,0 -0.2,0.1 -0.3,0.1 -0.1,0 -0.1,0.1 -0.1,0.2 0,0.1 0,0.2 -0.1,0.2 -0.1,0 -0.3,0.1 -0.4,0.2 -0.1,0.1 -0.3,0.3 -0.5,0.3 -0.2,0 -0.3,0.1 -0.3,0.2 0,0.2 -0.5,0.7 -1,0.9 -0.5,0.2 -1.2,1.1 -1,1.3 0.1,0.1 0,0.1 -0.1,0 -0.1,-0.1 -0.3,0 -0.3,0.2 -0.1,0.2 -0.2,0.4 -0.3,0.4 -0.1,0 -0.2,0.2 -0.3,0.4 0,0.2 -0.1,0.4 -0.3,0.3 -0.1,0 -0.2,0 -0.2,0.1 0.1,0.3 -0.2,1.2 -0.4,1.1 -0.1,-0.1 -0.2,0.2 -0.2,0.6 0,0.5 -0.1,0.8 -0.3,0.8 -0.2,0.1 -0.3,0.4 -0.3,1.8 v 1.7 h 1 c 0.5,0 1,-0.1 1.1,-0.2 0.1,-0.2 2.3,-0.2 3.4,0 0.4,0.1 1.2,0.2 1.6,0.2 h 0.8 l 0.3,-1 c 0.2,-0.5 0.3,-1.2 0.3,-1.3 0,-0.7 0.9,-2.5 1.7,-3.6 1.1,-1.5 5.4,-4.3 6.6,-4.3 0.2,0 0.4,-0.1 0.5,-0.2 0.1,-0.1 0.5,-0.2 0.8,-0.3 0.4,-0.1 1,-0.3 1.4,-0.4 0.4,-0.1 1,-0.3 1.3,-0.4 0.6,-0.2 1.9,-0.4 4.3,-0.6 0.8,-0.1 2.1,-0.2 2.8,-0.3 0.7,-0.1 2.9,-0.2 5,-0.2 2.1,0 3.9,-0.1 4.1,-0.1 0.5,0 0.2,-0.4 -0.3,-0.5 -0.3,-0.1 -0.5,-0.2 -0.4,-0.3 0,-0.1 0,-0.2 -0.1,-0.2 -0.9,0.1 -3.9,-0.1 -3.9,-0.3 0,-0.2 -0.9,-0.2 -6.8,-0.2 C 64.1,19.3 63,19.4 63,19.6 M 0,37.3 c 0,2.3 0.1,3.7 0.2,3.7 0.1,0 0.2,0.6 0.2,1.5 0,1.2 0.1,1.5 0.3,1.6 0.2,0.1 0.3,0.3 0.3,0.7 0,0.8 0.2,1.4 0.3,1.3 0.1,-0.1 0.1,0.3 0.1,0.8 0,0.5 0.1,0.8 0.2,0.8 0.1,0 0.2,0.1 0.2,0.2 0,0.1 0.2,0.7 0.5,1.3 0.3,0.6 0.5,1.2 0.6,1.3 0,0.1 0.1,0.3 0.2,0.4 0.1,0.1 0.2,0.3 0.2,0.6 0,0.2 0.1,0.4 0.3,0.4 0.1,0 0.2,0.2 0.2,0.4 0,0.3 0.1,0.4 0.3,0.4 0.1,0 0.2,0.1 0.2,0.3 0,0.2 0.1,0.3 0.2,0.3 0.1,0 0.3,0.2 0.3,0.5 0.1,0.3 0.2,0.5 0.3,0.4 0.1,-0.1 0.2,0 0.2,0.2 0,0.2 0.1,0.3 0.3,0.4 0.1,0.1 0.3,0.2 0.3,0.3 0,0.1 0.1,0.2 0.3,0.2 0.1,0 0.3,0.1 0.3,0.2 0,0.3 1,1.3 1.2,1.2 0.1,-0.1 0.1,0 0.1,0.1 0,0.1 0.1,0.2 0.3,0.3 0.2,0 0.4,0.2 0.4,0.3 0,0.1 0.1,0.2 0.3,0.2 0.1,0 0.3,0.1 0.3,0.3 0,0.1 0.1,0.3 0.3,0.3 0.1,0 0.3,0.1 0.3,0.3 0,0.1 0.2,0.3 0.4,0.3 0.2,0 0.6,0.2 0.8,0.5 0.2,0.3 0.6,0.5 0.8,0.5 0.2,0 0.4,0.1 0.4,0.3 0,0.1 0.1,0.3 0.3,0.3 0.2,0 0.3,0.1 0.3,0.2 0,0.1 0.3,0.2 0.6,0.3 0.3,0.1 0.7,0.2 0.8,0.3 0.1,0.1 0.4,0.2 0.5,0.2 0.2,0 0.3,0.1 0.3,0.2 0,0.1 0.3,0.2 0.7,0.3 0.4,0.1 0.8,0.2 0.8,0.3 0,0.1 0.4,0.2 0.7,0.2 0.3,0 0.7,0.1 0.9,0.2 0.4,0.3 2.1,0.4 9.1,0.4 8.3,0 9.2,0 9.7,-0.4 0.3,-0.2 1.1,-0.3 2.2,-0.4 0.2,0 0.3,-0.1 0.2,-0.2 -0.1,-0.2 0.2,-0.2 0.7,-0.2 0.1,0 0.2,-0.1 0.2,-0.2 0,-0.3 0.4,-0.3 0.8,-0.1 0.2,0.1 0.4,0.1 0.8,-0.3 0.6,-0.5 0.9,-0.6 1.4,-0.3 0.2,0.1 0.3,0.2 0.3,0.1 -0.1,-0.1 0,-0.2 0.1,-0.3 0.1,-0.1 0.2,-0.2 0.2,-0.4 0,-0.2 0.2,-0.2 0.7,-0.2 0.4,0 0.7,0 0.8,-0.2 0.1,-0.3 -0.7,-0.4 -1.6,-0.2 -1.9,0.6 -9.8,0.5 -12,-0.1 -2.8,-0.7 -3.6,-1 -6.1,-2.4 -1.9,-1 -4.9,-4.3 -5.8,-6.2 -0.1,-0.2 -0.2,-0.5 -0.3,-0.6 -0.1,-0.2 -0.3,-0.7 -0.9,-2 -0.1,-0.3 -0.3,-0.7 -0.3,-0.9 0,-0.1 -0.1,-0.5 -0.2,-0.7 -0.1,-0.3 -0.2,-0.7 -0.3,-0.9 0,-0.3 -0.1,-0.6 -0.2,-0.8 -0.2,-0.4 -0.4,-2.2 -0.7,-5.5 L 16.6,37 h -0.9 c -0.5,0 -1.1,-0.1 -1.3,-0.2 -0.2,-0.1 -1,-0.2 -1.7,-0.3 C 12,36.4 10.8,36.2 10,36.1 9.3,36 8.2,35.8 7.7,35.7 7.2,35.6 6.6,35.5 6.4,35.4 6.2,35.3 5.9,35.2 5.6,35.2 5.3,35.2 4.9,35 4.5,34.7 4.2,34.4 3.9,34.3 3.8,34.3 3.7,34.4 3.7,34.3 3.7,34.2 3.7,34 3.5,33.9 2.8,33.9 2.1,33.9 1.8,33.8 1.7,33.6 1.6,33.4 1.3,33.4 0.8,33.4 H 0 v 3.9 m 44.4,0.1 c 0,1 0.1,1.4 0.3,1.3 0.1,0 0.2,0.2 0.2,0.8 0,0.9 0.1,1.4 0.4,1.3 0.1,-0.1 0.1,0.2 0.1,0.5 0,0.3 0.1,0.7 0.3,0.8 0.1,0.1 0.3,0.4 0.3,0.7 0,0.3 0.1,0.4 0.3,0.4 0.2,0 0.3,0.2 0.3,0.4 0,0.2 0.1,0.5 0.3,0.5 0.1,0.1 0.3,0.2 0.3,0.3 0,0.1 0.1,0.2 0.3,0.2 0.1,0 0.3,0.1 0.3,0.3 0,0.3 0.9,1.2 1.1,1.2 0.1,0 0.3,0.2 0.6,0.5 0.2,0.3 0.6,0.5 0.8,0.5 0.2,0 0.4,0.1 0.4,0.3 0,0.2 0.2,0.3 0.5,0.3 0.3,0 0.5,0.1 0.6,0.1 0.8,0.8 7.7,1.2 8.3,0.6 0.1,-0.1 0.6,-0.3 1.2,-0.3 0.5,0 1,-0.1 1,-0.2 0,-0.1 0.2,-0.2 0.4,-0.2 0.2,0 0.3,-0.1 0.4,-0.3 0.1,-0.3 0.7,-0.3 0.9,-0.1 0.1,0.2 0.6,-0.3 0.5,-0.6 -0.1,-0.2 -0.6,-0.2 -2.6,-0.2 -2.7,0 -3.8,-0.2 -5.3,-1.3 -1,-0.6 -2.8,-2.9 -2.8,-3.4 0,0 -0.1,-0.3 -0.2,-0.6 -0.3,-0.6 -0.6,-2 -0.7,-2.7 -0.2,-1.3 -0.1,-1.2 -1.4,-1.3 -2.6,0 -3.9,-0.2 -4.3,-0.6 C 47,36.4 46.7,36.2 46.5,36.2 46.3,36.2 46.2,36.1 46.1,36 46,35.9 45.7,35.8 45.4,35.8 h -0.6 l -0.4,1.6 M 25,37.1 c -0.3,0.3 -0.3,0.8 0,1 0.1,0.1 0.2,0.7 0.2,1.4 0,1.3 0.1,1.9 0.3,1.8 0.1,0 0.2,0.3 0.2,0.9 0,0.5 0.2,1 0.3,1 0.1,0 0.2,0.3 0.2,0.6 0,0.7 0.1,1.1 0.3,1 0.1,0 0.2,0.2 0.2,0.6 0,0.4 0.2,0.7 0.3,0.8 0.1,0 0.2,0.2 0.2,0.4 0,0.2 0.2,0.5 0.3,0.7 0.2,0.2 0.3,0.4 0.2,0.5 -0.1,0.1 0.1,0.4 0.5,0.7 0.3,0.3 0.4,0.5 0.3,0.4 -0.2,-0.1 -0.2,0 0,0.2 0.2,0.2 0.2,0.4 0.2,0.4 -0.1,0.1 0,0.1 0.2,0.1 0.2,0 0.3,0.1 0.3,0.3 0,0.1 0.1,0.3 0.3,0.3 0.1,0 0.3,0.1 0.3,0.3 0,0.1 0.1,0.3 0.3,0.3 0.1,0 0.3,0.1 0.3,0.3 0,0.1 0.1,0.3 0.3,0.3 0.1,0 0.3,0.1 0.3,0.3 0,0.1 0.1,0.3 0.3,0.3 0.1,0 0.3,0.1 0.3,0.3 0,0.1 0.1,0.3 0.3,0.3 0.1,0 0.3,0.1 0.3,0.3 0,0.1 0.1,0.3 0.3,0.3 0.2,0 0.4,0.1 0.4,0.3 0.1,0.1 0.2,0.3 0.3,0.3 0.1,0 0.3,0.1 0.4,0.3 0.1,0.2 0.2,0.3 0.3,0.3 0.3,-0.1 0.8,0 0.7,0.1 -0.1,0.1 0.2,0.2 0.6,0.3 0.4,0.1 0.7,0.2 0.7,0.3 0,0.1 0.2,0.1 0.5,0.2 0.3,0 0.7,0.1 0.9,0.3 0.2,0.1 0.8,0.2 1.3,0.3 0.5,0 1.1,0.1 1.2,0.2 0.1,0.1 0.2,0.1 0.3,0 0.1,-0.1 0.1,0 0.1,0.1 0,0.3 5.8,0.2 6.1,0 0.2,-0.1 0.6,-0.2 1.3,-0.2 0.6,0 1.4,-0.1 1.7,-0.2 0.3,-0.1 1,-0.3 1.5,-0.3 0.6,0 0.9,-0.1 0.9,-0.3 0,-0.1 0.2,-0.2 0.5,-0.2 0.3,0 0.7,0 1,0 0.2,0 0.4,-0.1 0.4,-0.2 0,-0.1 0.1,-0.2 0.2,-0.2 0.1,0 0.3,-0.1 0.3,-0.3 0,-0.2 0.2,-0.3 0.7,-0.3 0.5,0 0.7,-0.1 0.8,-0.3 0.1,-0.2 0.3,-0.3 0.7,-0.3 0.3,0 0.6,-0.1 0.6,-0.2 0.1,-0.3 -0.7,-0.4 -1.4,-0.1 -0.5,0.2 -1.6,0.2 -4.2,0.3 -3.7,0 -4.2,0 -5.9,-0.8 -0.3,-0.1 -0.6,-0.2 -0.6,-0.2 -0.7,0 -3.7,-2.5 -4.5,-3.8 -0.6,-0.9 -1.4,-2.5 -1.4,-2.7 0,-0.1 -0.1,-0.4 -0.2,-0.6 C 38.6,45.1 38.4,44.5 38.4,44.2 38.3,43.8 38.2,43.5 38.1,43.4 38,43.3 37.9,43 37.9,42.6 37.9,42 37.5,40 37.4,39.9 37.3,39.8 33.2,39.4 31.4,39.3 30.1,39.2 29.7,39.1 29.3,38.8 29,38.6 28.7,38.4 28.6,38.4 28.5,38.4 28.4,38.3 28.4,38.2 27.5,36.8 25.3,36.8 25,37.1 m 21.1,22.5 c 0.1,0.1 0.2,0.3 0.2,0.3 0.1,0 0.1,-0.1 0.1,-0.3 0,-0.1 -0.1,-0.3 -0.2,-0.3 -0.1,0 -0.2,0.1 -0.1,0.3"
   inkscape:connector-curvature="0"
   style="fill:#b2cb1b" />
	<path
   class="st1"
   d="m 84.4,14 c 0,0.3 -0.6,0.3 -8.5,0.3 -5.4,0 -8.7,0.1 -9.3,0.2 -0.5,0.1 -1.7,0.3 -2.7,0.3 -2.1,0.2 -4.2,0.5 -5.1,0.7 -0.3,0.1 -1,0.2 -1.5,0.3 -1.9,0.4 -2.8,0.5 -3.1,0.7 -0.2,0.1 -0.6,0.2 -1,0.3 -0.4,0.1 -0.8,0.2 -0.9,0.2 -0.1,0.1 -0.8,0.3 -1.5,0.5 -0.7,0.2 -1.3,0.4 -1.3,0.5 0,0.1 -0.2,0.1 -0.4,0.1 -0.2,0 -0.5,0.1 -0.8,0.2 -0.3,0.1 -0.8,0.4 -1.3,0.7 -1.6,0.8 -2.3,1.2 -2.4,1.3 0,0 -0.4,0.3 -0.8,0.6 -0.7,0.5 -3.3,3 -3.8,3.6 -0.3,0.5 -0.6,0.9 -0.9,1.6 -0.7,1.5 -0.9,1.9 -0.9,2.4 0,0.2 -0.1,0.6 -0.2,0.9 -0.1,0.2 -0.2,0.7 -0.2,0.9 0,0.2 -0.1,0.7 -0.2,1 -0.1,0.3 -0.2,0.8 -0.3,1.1 -0.1,0.9 -0.4,1 -2,0.8 C 34.5,33.1 33,32.9 31.9,32.9 30.8,32.8 29.6,32.7 29.3,32.6 28.1,32.2 28.1,32.3 28.2,35 v 2.4 l 1.2,0.2 c 0.6,0.1 2.5,0.3 4.2,0.4 3.6,0.2 3.7,0.2 3.7,1.8 0,0.5 0.1,1.2 0.2,1.6 0.1,0.4 0.2,0.9 0.2,1.2 0,0.3 0.1,0.6 0.3,0.8 0.1,0.2 0.2,0.5 0.2,0.6 0,0.2 0.1,0.5 0.2,0.8 0.1,0.3 0.4,0.8 0.5,1.1 1,2.2 4.3,5.3 5.7,5.3 0.1,0 0.4,0.1 0.6,0.2 0.2,0.1 0.5,0.2 0.7,0.3 0.2,0 0.8,0.1 1.2,0.3 1.1,0.3 4.9,0.3 6,0 0.5,-0.1 1.1,-0.3 1.5,-0.3 0.4,0 0.9,-0.1 1.1,-0.2 0.2,-0.1 0.7,-0.2 1,-0.2 0.3,0 0.7,-0.1 0.8,-0.3 0.1,-0.1 0.5,-0.3 0.8,-0.3 0.4,0 0.6,-0.1 0.6,-0.3 0,-0.3 0.6,-0.3 1.3,-0.1 0.3,0.1 0.4,0.2 0.3,0.4 0,0.2 0,0.3 0.1,0.3 0.1,0 0.2,-0.1 0.2,-0.3 0,-0.2 0.2,-0.3 0.4,-0.3 0.5,0 0.6,-0.3 0.4,-0.9 -0.2,-0.5 -0.6,-0.6 -0.8,-0.2 -0.1,0.2 -0.3,0.3 -1,0.3 -0.7,0 -0.9,0.1 -1,0.3 -0.1,0.2 -0.4,0.3 -1.4,0.3 -0.7,0 -1.4,0.1 -1.4,0.2 -0.1,0.1 -1.2,0.2 -2.8,0.2 -1.6,0 -2.7,-0.1 -2.8,-0.2 -0.1,-0.1 -0.5,-0.2 -1.1,-0.2 -0.8,0 -1,-0.1 -1,-0.3 0,-0.2 -0.2,-0.3 -0.8,-0.3 -0.6,0 -0.8,-0.1 -0.8,-0.3 0,-0.2 -0.2,-0.3 -0.4,-0.3 -0.2,0 -0.5,-0.1 -0.5,-0.3 -0.1,-0.1 -0.3,-0.3 -0.5,-0.3 -0.2,0 -0.4,-0.1 -0.4,-0.3 0,-0.1 -0.1,-0.3 -0.2,-0.3 -0.1,0 -0.3,-0.1 -0.3,-0.3 -0.1,-0.1 -0.2,-0.3 -0.4,-0.3 -0.2,0 -0.3,-0.1 -0.3,-0.1 0,-0.1 -0.2,-0.2 -0.4,-0.3 -0.2,-0.1 -0.4,-0.3 -0.4,-0.4 0,-0.1 -0.2,-0.5 -0.5,-0.8 -0.3,-0.3 -0.5,-0.6 -0.5,-0.7 0,-0.1 -0.1,-0.2 -0.3,-0.2 -0.2,0 -0.3,-0.2 -0.3,-0.4 0,-0.2 -0.1,-0.5 -0.3,-0.5 -0.1,-0.1 -0.3,-0.3 -0.3,-0.5 0,-0.2 -0.1,-0.5 -0.2,-0.7 -0.1,-0.2 -0.2,-0.6 -0.3,-1 0,-0.4 -0.1,-0.7 -0.3,-0.7 -0.2,-0.1 -0.3,-0.4 -0.3,-1.4 0,-1 -0.1,-1.3 -0.3,-1.4 C 39.1,38 39,37.6 39,36 c 0,-1.6 0,-2 0.3,-2.1 0.2,-0.1 0.3,-0.4 0.3,-1.8 0,-1.4 0,-1.7 0.3,-1.7 0.2,0 0.3,-0.2 0.3,-0.8 0,-0.6 0.1,-0.8 0.3,-0.8 0.2,0 0.3,-0.2 0.3,-0.5 0,-0.3 0.1,-0.5 0.3,-0.5 0.2,0 0.3,-0.2 0.3,-0.4 0,-0.2 0.1,-0.4 0.2,-0.4 0.2,0 0.6,-0.6 0.8,-1.2 0.1,-0.2 0.2,-0.3 0.3,-0.3 0.1,0 0.2,-0.1 0.2,-0.3 0,-0.1 0.1,-0.3 0.3,-0.3 0.1,0 0.3,-0.1 0.3,-0.3 0,-0.1 0.1,-0.3 0.3,-0.3 0.1,0 0.3,-0.1 0.3,-0.3 0,-0.1 0.1,-0.3 0.3,-0.3 0.1,0 0.3,-0.1 0.3,-0.3 0,-0.1 0.1,-0.3 0.3,-0.3 0.1,0 0.3,-0.1 0.3,-0.2 0,-0.1 0.1,-0.3 0.3,-0.3 0.7,-0.3 1.5,-0.9 1.5,-1.3 0,-0.1 0.2,-0.2 0.5,-0.2 0.3,0 0.5,-0.1 0.5,-0.3 0,-0.2 0.2,-0.3 0.5,-0.3 0.3,0 0.5,-0.1 0.5,-0.3 0,-0.1 0.1,-0.3 0.3,-0.3 0.2,0 0.7,-0.2 1.1,-0.4 0.4,-0.2 0.9,-0.4 1.2,-0.5 0.2,-0.1 0.4,-0.2 0.4,-0.3 0,-0.1 0.2,-0.2 0.4,-0.2 0.2,0 0.5,-0.1 0.5,-0.3 0.1,-0.2 0.3,-0.3 0.7,-0.3 0.4,0 0.7,-0.1 0.7,-0.3 0.1,-0.2 0.3,-0.3 0.8,-0.3 0.5,0 0.7,-0.1 0.7,-0.3 0,-0.2 0.2,-0.3 0.8,-0.3 0.6,0 0.8,-0.1 0.8,-0.3 0,-0.2 0.2,-0.3 0.9,-0.3 0.7,0 0.9,-0.1 1,-0.3 0.1,-0.2 0.3,-0.3 1,-0.3 0.6,0 0.9,-0.1 1,-0.3 0.1,-0.2 0.4,-0.3 1.3,-0.3 0.9,0 1.2,-0.1 1.2,-0.3 0,-0.2 0.2,-0.3 1.2,-0.3 0.9,0 1.3,-0.1 1.5,-0.3 0.2,-0.2 0.6,-0.3 1.7,-0.3 1.1,0 1.5,-0.1 1.5,-0.3 0.1,-0.2 0.5,-0.3 2.2,-0.3 1.7,0 2.2,-0.1 2.4,-0.3 0.2,-0.2 1,-0.3 5.1,-0.3 5.1,2.3 5.2,2.3 4.9,1.5 0,-0.2 0,-0.2 0,0 z"
   id="path3787"
   inkscape:connector-curvature="0"
   style="fill:#33640c" />
	<path
   class="st1"
   d="m 78.5,21.3 c 0,-0.2 -1.1,-0.2 -1.6,0 -0.2,0.1 -1.8,0.2 -3.7,0.2 -1.9,0.1 -3.6,0.2 -3.8,0.3 -0.3,0.1 -1.1,0.2 -1.8,0.3 -1.6,0.2 -3.4,0.6 -3.7,0.7 -0.1,0.1 -0.5,0.2 -0.9,0.2 -0.4,0.1 -0.7,0.2 -0.8,0.3 0,0.1 -0.4,0.2 -0.7,0.2 -0.3,0.1 -0.7,0.2 -0.9,0.2 -0.2,0 -0.8,0.4 -1.4,0.7 -2.1,1 -4.3,2.8 -4.8,3.8 -0.1,0.1 -0.3,0.6 -0.5,1 -0.2,0.4 -0.4,0.9 -0.4,1.1 0,0.2 -0.1,0.5 -0.2,0.7 -0.1,0.2 -0.2,0.8 -0.3,1.3 -0.2,1.5 -0.2,1.5 -2.8,1.4 -1.2,-0.1 -2.6,-0.2 -3.1,-0.2 l -0.8,-0.1 v 1.5 1.5 l 1,0.2 c 0.5,0.1 1.9,0.3 3,0.3 2.3,0.1 2.1,0 2.5,2.1 0.1,0.6 0.3,1.3 0.4,1.5 0.1,0.2 0.2,0.5 0.2,0.7 0,0.2 0.1,0.4 0.3,0.5 0.1,0.1 0.3,0.3 0.3,0.5 0,0.2 0.8,1.3 1.2,1.8 0.7,0.7 2.3,1.6 3.1,1.8 0.2,0 0.7,0.2 1.1,0.3 0.9,0.2 3,0.2 3.8,0 0.4,-0.1 1.1,-0.2 1.6,-0.3 0.5,0 0.9,-0.2 1,-0.3 0.1,-0.1 0.3,-0.2 0.7,-0.2 0.5,0 0.6,-0.1 0.6,-0.3 0,-0.4 -1.6,-0.5 -1.8,-0.1 -0.1,0.2 -0.5,0.3 -2,0.3 -1.5,0 -1.9,0 -2,-0.3 -0.1,-0.2 -0.3,-0.3 -1,-0.3 -0.6,0 -0.9,-0.1 -1,-0.3 -0.1,-0.1 -0.2,-0.3 -0.4,-0.3 -0.2,0 -0.5,-0.2 -0.8,-0.4 -0.2,-0.2 -0.6,-0.4 -0.8,-0.4 -0.2,0 -0.4,-0.1 -0.4,-0.3 0,-0.1 -0.1,-0.3 -0.3,-0.3 -0.2,0 -0.3,-0.2 -0.3,-0.4 0,-0.2 -0.1,-0.5 -0.3,-0.5 -0.1,-0.1 -0.3,-0.2 -0.3,-0.3 0,-0.1 -0.1,-0.2 -0.3,-0.2 -0.2,0 -0.3,-0.2 -0.3,-0.5 0,-0.3 -0.1,-0.5 -0.3,-0.5 -0.2,0 -0.3,-0.2 -0.3,-1 0,-0.6 -0.1,-1 -0.2,-1 -0.1,0 -0.2,-0.9 -0.2,-2.4 0,-1.4 0.1,-2.4 0.2,-2.5 0.1,-0.1 0.2,-0.5 0.2,-1 0,-0.7 0.1,-0.9 0.3,-0.9 0.2,0 0.3,-0.2 0.3,-0.5 0,-0.3 0.1,-0.5 0.3,-0.5 0.1,0 0.3,-0.1 0.3,-0.3 0,-0.2 0.1,-0.3 0.2,-0.3 0.1,0 0.2,-0.2 0.3,-0.4 0.1,-0.2 0.2,-0.4 0.3,-0.4 0.1,0 0.2,-0.1 0.2,-0.3 0,-0.2 0.1,-0.3 0.3,-0.3 0.1,0 0.3,-0.1 0.3,-0.3 0,-0.2 0.1,-0.3 0.3,-0.3 0.1,0 0.3,-0.1 0.3,-0.1 0,-0.1 0.2,-0.2 0.4,-0.2 0.2,-0.1 0.6,-0.3 0.8,-0.5 0.3,-0.2 0.6,-0.4 0.8,-0.4 0.2,0 0.3,-0.1 0.3,-0.2 0,-0.1 0.2,-0.3 0.5,-0.3 0.3,-0.1 0.5,-0.2 0.5,-0.3 0,-0.1 0.2,-0.2 0.4,-0.2 0.2,0 0.5,-0.1 0.5,-0.3 0.1,-0.1 0.3,-0.3 0.6,-0.3 0.3,0 0.5,-0.1 0.5,-0.3 0,-0.2 0.2,-0.3 0.8,-0.3 0.6,0 0.8,-0.1 0.8,-0.3 0,-0.2 0.2,-0.3 0.8,-0.3 0.6,0 0.8,-0.1 0.8,-0.3 0,-0.2 0.2,-0.3 0.9,-0.3 0.7,0 0.9,-0.1 1,-0.3 0.1,-0.2 0.4,-0.3 1.2,-0.3 0.9,0 1.1,-0.1 1.1,-0.3 0,-0.2 0.3,-0.3 1.5,-0.3 1.2,0 1.5,0 1.5,-0.3 0,-0.2 0.4,-0.3 2.2,-0.3 1.4,0 2.3,-0.1 2.4,-0.2 0.1,-0.1 0.3,-0.2 0.5,-0.3 0.3,-0.1 0.3,-0.1 0.1,-0.2 -0.2,0.8 -0.3,0.7 -0.3,0.6 z"
   id="path3789"
   inkscape:connector-curvature="0"
   style="fill:#33640c" />
	<path
   class="st1"
   d="M 86.5,7.2 C 86.5,7 86.2,7 84.9,7 83.7,7 83.3,6.9 83.2,6.7 83.1,6.5 82.8,6.4 81.8,6.4 81.1,6.4 80.1,6.3 79.5,6.1 79.1,6.1 78,6 77.3,6 76.5,6 75.6,5.9 75.2,5.8 73.4,5.4 58.6,5 55.9,5.3 55.2,5.4 53.9,5.4 53,5.5 52.1,5.5 50.7,5.6 50,5.8 49.2,5.9 48.2,6 47.6,6 47,6 46.5,6.1 46.2,6.2 46,6.3 45.2,6.4 44.5,6.5 42.9,6.7 41.6,7 40.6,7.3 40.2,7.4 39.6,7.5 39.4,7.5 39.2,7.5 38.9,7.6 38.9,7.7 38.8,7.8 38.5,7.9 38,8 37.6,8.1 37,8.2 36.8,8.3 36.6,8.4 36.2,8.5 36,8.5 c -0.2,0 -0.4,0.1 -0.5,0.2 -0.1,0.1 -0.2,0.2 -0.4,0.2 -0.2,0 -0.4,0.1 -0.7,0.2 -3.1,1.3 -5.3,2.5 -6.4,3.3 -0.3,0.3 -0.7,0.5 -0.8,0.5 -0.1,0 -0.2,0.1 -0.2,0.1 0,0.1 -0.2,0.3 -0.5,0.4 -0.9,0.5 -4.3,4.1 -4.3,4.5 0,0.1 -0.2,0.4 -0.4,0.7 -0.2,0.3 -0.5,0.8 -0.6,1 -0.1,0.2 -0.2,0.4 -0.3,0.6 -0.3,0.4 -0.7,1.5 -0.7,1.7 0,0.1 -0.1,0.4 -0.3,0.5 -0.1,0.2 -0.2,0.5 -0.3,0.8 0,0.2 -0.1,0.6 -0.3,0.8 -0.1,0.2 -0.2,0.5 -0.2,0.8 0,0.3 -0.1,0.5 -0.2,0.6 -0.1,0.1 -0.2,0.4 -0.3,0.8 -0.1,0.4 -0.2,0.7 -0.2,0.7 -0.1,0 -0.2,0.4 -0.2,0.7 -0.2,1.3 -0.6,1.9 -1.2,1.8 -0.3,0 -1,-0.2 -1.6,-0.3 -0.6,-0.1 -1.2,-0.3 -1.2,-0.3 -0.1,-0.1 -0.5,-0.2 -0.9,-0.2 -0.4,0 -1,-0.1 -1.3,-0.3 C 11.7,28.2 11.1,28 10.7,28 10.3,28 9.7,27.9 9.3,27.8 8.9,27.7 8.4,27.6 8,27.5 7.7,27.5 7.1,27.4 6.7,27.2 6.3,27.1 5.7,27 5.2,27 H 4.4 v 1 c 0,0.7 -0.1,1.2 -0.3,1.4 -0.2,0.2 -0.2,0.9 -0.2,2.7 v 2.3 l 0.6,0.3 c 0.3,0.2 1,0.3 1.5,0.4 0.5,0.1 0.9,0.2 1,0.2 0.1,0.1 0.7,0.2 1.3,0.2 0.6,0.1 1.2,0.2 1.2,0.3 0.1,0.1 0.5,0.2 0.9,0.2 0.4,0 1.2,0.1 1.6,0.2 0.5,0.1 1.5,0.3 2.2,0.3 2.1,0.2 2.2,0.3 2.4,1.7 0.3,3.3 0.5,5.7 0.7,6 0.1,0.2 0.2,0.7 0.2,1.2 0.1,0.5 0.2,0.9 0.2,1 0.1,0.1 0.2,0.4 0.2,0.8 0.1,0.3 0.2,0.8 0.4,1.1 0.1,0.3 0.2,0.6 0.2,0.7 0,0.2 0.1,0.3 0.2,0.4 0.1,0.1 0.2,0.2 0.2,0.4 0,0.2 0.1,0.4 0.3,0.5 0.1,0.1 0.3,0.3 0.3,0.4 0,0.7 4.2,5.7 4.8,5.7 0.1,0 0.3,0.1 0.4,0.2 0.7,0.6 3.7,2 5,2.3 0.3,0.1 0.7,0.2 0.9,0.3 0.2,0.1 0.7,0.2 1,0.2 0.3,0 1,0.1 1.5,0.3 1.1,0.3 7,0.3 8.3,0 0.5,-0.1 1.3,-0.2 1.8,-0.3 0.5,0 1.1,-0.1 1.5,-0.2 0.4,-0.1 1,-0.2 1.3,-0.2 0.3,0 0.7,-0.1 0.9,-0.3 0.2,-0.1 0.6,-0.2 1,-0.3 0.5,0 0.7,-0.1 0.8,-0.3 0.1,-0.3 0.3,-0.3 1.1,-0.1 0.5,0.1 0.6,0.2 0.4,0.4 -0.2,0.2 -0.1,0.2 0.1,0.2 0.1,0 0.3,-0.1 0.3,-0.3 0,-0.2 0.2,-0.3 0.5,-0.3 0.7,0 0.7,-0.8 0.1,-0.9 -0.6,-0.2 -2.3,0 -2.4,0.3 -0.2,0.6 -11.5,0.6 -11.9,0.2 -0.2,-0.2 -0.6,-0.3 -1.1,-0.3 -0.4,0 -0.9,-0.1 -0.9,-0.2 -0.1,-0.1 -0.5,-0.2 -1,-0.2 -0.7,0 -0.9,-0.1 -0.9,-0.3 0,-0.2 -0.2,-0.3 -0.5,-0.3 -0.3,0 -0.5,-0.1 -0.6,-0.3 -0.1,-0.2 -0.3,-0.3 -0.7,-0.3 -0.4,0 -0.6,-0.1 -0.6,-0.3 0,-0.1 -0.1,-0.3 -0.3,-0.3 -0.2,0 -0.4,-0.1 -0.5,-0.3 -0.1,-0.1 -0.3,-0.3 -0.4,-0.3 -0.1,0 -0.3,-0.1 -0.3,-0.3 -0.1,-0.1 -0.3,-0.3 -0.5,-0.3 -0.3,0 -0.4,-0.1 -0.4,-0.3 0,-0.1 -0.1,-0.3 -0.3,-0.3 -0.1,0 -0.3,-0.1 -0.3,-0.3 0,-0.1 -0.1,-0.3 -0.2,-0.3 -0.2,0 -2.8,-2.6 -2.8,-2.8 0,-0.1 -0.1,-0.2 -0.3,-0.2 -0.2,0 -0.3,-0.2 -0.3,-0.4 0,-0.3 -0.1,-0.4 -0.3,-0.4 -0.2,0 -0.3,-0.2 -0.3,-0.5 0,-0.3 -0.1,-0.5 -0.1,-0.5 C 23.1,47.8 22.6,46.8 22.6,46.4 22.6,46.2 22.5,46 22.3,46 22.1,45.9 22,45.7 22,45.4 22,45.1 21.9,44.7 21.7,44.6 21.5,44.4 21.4,44 21.4,43.5 c 0,-0.5 -0.1,-1 -0.2,-1.1 -0.4,-0.5 -0.4,-10 0,-10.1 0.2,-0.1 0.3,-0.4 0.3,-1.4 0,-1 0.1,-1.4 0.3,-1.6 0.2,-0.2 0.3,-0.6 0.3,-1.1 0,-0.6 0.1,-1 0.3,-1.1 0.1,-0.1 0.3,-0.5 0.3,-0.8 0,-0.3 0.1,-0.7 0.2,-0.7 0.2,-0.1 0.4,-0.9 0.6,-1.9 0,-0.3 0.2,-0.5 0.3,-0.5 0.1,0 0.2,-0.1 0.2,-0.2 0,-0.1 0.1,-0.3 0.3,-0.4 0.1,-0.1 0.3,-0.3 0.3,-0.5 0,-0.2 0.1,-0.3 0.3,-0.3 0.2,0 0.3,-0.2 0.3,-0.5 0,-0.3 0.1,-0.5 0.2,-0.5 0.1,0 1,-0.9 2.1,-1.9 1.1,-1.1 2,-1.9 2.1,-1.9 0.1,0 0.2,-0.1 0.2,-0.2 0,-0.1 0.1,-0.3 0.3,-0.3 0.7,-0.3 1.5,-0.9 1.5,-1.3 0,-0.1 0.2,-0.2 0.5,-0.2 0.3,0 0.5,-0.1 0.5,-0.3 0,-0.2 0.2,-0.3 0.4,-0.3 0.2,0 0.5,-0.1 0.5,-0.2 0.2,-0.3 0.8,-0.6 1.2,-0.6 0.2,0 0.3,-0.1 0.3,-0.3 0,-0.2 0.2,-0.3 0.5,-0.3 0.3,0 0.5,-0.1 0.5,-0.2 0,-0.1 0.3,-0.2 0.7,-0.3 0.4,-0.1 0.7,-0.3 0.8,-0.3 0.1,-0.1 0.3,-0.2 0.5,-0.2 0.2,0 0.5,-0.1 0.5,-0.3 0.1,-0.2 0.3,-0.3 0.7,-0.3 0.4,0 0.6,-0.1 0.7,-0.3 0.1,-0.2 0.3,-0.3 0.8,-0.3 0.5,0 0.7,-0.1 0.8,-0.3 0.1,-0.2 0.1,0.5 0.5,0.5 0.4,0 0.7,-0.1 0.8,-0.3 0.1,-0.2 0.3,-0.3 0.8,-0.3 0.5,0 0.7,-0.1 0.8,-0.3 0.1,-0.2 0.4,-0.3 1,-0.3 0.6,0 0.9,-0.1 1,-0.3 0.1,-0.2 0.4,-0.3 1.2,-0.3 0.9,0 1.1,-0.1 1.1,-0.3 0,0.1 0.2,0.1 1.2,0.1 1,0 1.3,0 1.3,-0.3 0,-0.2 0.3,-0.3 1.5,-0.3 1.2,0 1.5,-0.1 1.6,-0.3 C 54.3,8 54.7,8 56.2,8 57.7,8 58,8 58,7.7 c 0,-0.2 0.4,-0.3 2.9,-0.3 2.4,0 2.9,0 3,-0.3 0.1,-0.4 18.5,-0.4 18.9,0 0.2,0.2 0.7,0.3 2,0.3 1.4,0.1 1.7,0.1 1.7,-0.2 z"
   id="path3791"
   inkscape:connector-curvature="0"
   style="fill:#33640c" />
	<path
   id="path2"
   class="st2"
   d="m 55.3,5.1 c -0.3,0 -1.4,0.1 -2.5,0.2 -1.5,0.1 -1.3,0.1 1.1,0 3.8,-0.1 11.3,-0.1 15.8,0 2.3,0.1 2.9,0.1 1.8,0 C 69.6,5.2 56.3,5 55.3,5.1 m -6,0.5 C 49.2,5.6 48.6,5.7 48,5.8 L 46.8,6 h 1 C 48.3,6 49.3,5.9 49.9,5.8 51,5.6 51,5.6 50.2,5.6 c -0.4,-0.1 -0.9,0 -0.9,0 M 74.7,5.7 C 75.4,5.9 76.5,6 77.3,6 h 1.3 L 77.4,5.9 C 76.8,5.8 75.6,5.7 74.8,5.7 L 73.4,5.6 74.7,5.7 M 45.1,6.2 c -0.3,0.1 -1,0.2 -1.7,0.3 -2.4,0.4 -4.7,1 -3.9,1 0.2,0 0.8,-0.1 1.2,-0.2 C 41.6,7 42.9,6.7 44.6,6.5 46,6.3 47,6 46.1,6 c -0.3,0 -0.7,0.1 -1,0.2 m 34.2,0 c 0.2,0.1 1.2,0.2 2.1,0.2 1.5,0 1.6,0 0.5,-0.1 C 81.3,6.2 80.3,6.1 79.8,6.1 79.1,6 79,6 79.3,6.2 m 4,0.6 c 0,0.1 0.3,0.2 0.8,0.2 h 0.8 L 84.4,6.8 c -0.6,-0.4 -1.3,-0.4 -1.1,0 m 5.4,0.3 c 0.1,0.3 0.2,0.4 0.4,0.2 C 89.3,7.1 89.3,7.1 89,6.9 88.6,6.6 88.5,6.6 88.7,7.1 m -2.2,0.2 c 0,0.1 0.1,0.3 0.3,0.3 0.2,0 0.3,-0.1 0.3,-0.3 C 87.1,7.1 87,7 86.8,7 86.6,7 86.5,7.1 86.5,7.3 M 38.2,7.7 C 38,7.8 37.3,8 36.6,8.2 c -1.3,0.4 -1.9,0.7 -1.4,0.7 0.2,0 0.3,-0.1 0.4,-0.2 0.1,-0.1 0.3,-0.2 0.5,-0.2 0.2,0 0.6,-0.1 0.8,-0.2 C 37.1,8.2 37.7,8 38.1,8 38.5,7.9 38.9,7.8 39,7.7 39,7.5 38.7,7.5 38.2,7.7 M 34,9 c -0.2,0.1 -0.8,0.3 -1.2,0.5 -5.1,2.2 -9,5.3 -11.5,9.3 -0.7,1.2 -0.8,1.4 -0.4,1.1 0.1,-0.1 0.3,-0.3 0.3,-0.4 0,-0.1 0.2,-0.5 0.5,-0.9 0.3,-0.4 0.5,-0.8 0.5,-0.8 0,-0.4 3.4,-4 4.3,-4.5 C 26.8,13.2 27,13 27,13 c 0,-0.1 0.1,-0.1 0.2,-0.1 0.1,0 0.5,-0.2 0.8,-0.5 0.9,-0.7 3,-1.8 5.3,-2.8 1.5,-0.6 1.6,-0.7 1.4,-0.7 -0.2,0 -0.5,0 -0.7,0.1 m 35.6,5.2 c -1.4,0.1 0.4,0.1 4.2,0.1 3.6,0 5.9,0 5.3,-0.1 -1.6,-0.2 -6.2,-0.2 -9.5,0 m 14.1,0 c 0,0.1 0.1,0.1 0.3,0.1 0.2,0 0.3,-0.1 0.3,-0.1 0,-0.1 -0.1,-0.1 -0.3,-0.1 -0.1,0 -0.2,0 -0.3,0.1 m -18.2,0.2 c 0,0 -0.9,0.2 -1.8,0.2 -2.1,0.2 -5.3,0.7 -5.7,0.9 -0.2,0.1 -0.1,0.1 0.3,0.1 0.4,0 1.3,-0.2 2,-0.3 0.7,-0.1 1.5,-0.2 1.8,-0.3 0.3,-0.1 1.3,-0.2 2.3,-0.3 2.1,-0.1 3.4,-0.4 2,-0.4 -0.5,0 -0.9,0.1 -0.9,0.1 m -9.7,1.5 c -0.7,0.3 -0.1,0.2 1,-0.1 l 0.6,-0.2 h -0.5 c -0.3,0.1 -0.7,0.2 -1.1,0.3 m -2.7,0.7 c -1.4,0.4 -1.7,0.6 -1.2,0.6 0.2,0 0.4,-0.1 0.4,-0.2 0.1,-0.1 0.5,-0.2 0.9,-0.3 0.4,-0.1 0.9,-0.2 1,-0.2 0.1,-0.1 0.4,-0.2 0.6,-0.2 l 0.4,-0.1 h -0.4 c -0.2,0 -1,0.2 -1.7,0.4 m -2.6,0.8 C 49,18 48.8,18.2 49,18.2 c 0.2,0 0.5,-0.1 0.8,-0.2 0.3,-0.1 0.8,-0.4 1.1,-0.5 0.4,-0.1 0.5,-0.2 0.3,-0.2 -0.1,-0.1 -0.5,0 -0.7,0.1 m -2.5,1 c -0.3,0.2 -0.3,0.2 -0.2,0.2 0.1,0 0.4,-0.1 0.6,-0.2 0.4,-0.3 0.1,-0.3 -0.4,0 m -1,0.4 c -0.1,0.1 -0.7,0.4 -1.2,0.7 -0.5,0.3 -0.9,0.6 -0.9,0.6 0,0 0.4,-0.1 0.8,-0.3 0.4,-0.2 1,-0.5 1.3,-0.7 0.3,-0.1 0.5,-0.3 0.5,-0.3 0,-0.2 -0.2,-0.1 -0.5,0 m -3.2,1.9 c -2,1.4 -4.2,3.8 -4.9,5.5 -0.2,0.4 -0.4,0.9 -0.5,1.1 -0.1,0.2 -0.1,0.4 -0.1,0.5 0,0 0.2,-0.2 0.3,-0.5 0.4,-1 0.9,-2.1 1.4,-2.8 0.7,-1 3.8,-3.8 4.5,-4.1 0.1,0 0.2,-0.1 0.1,-0.2 0,0 -0.4,0.2 -0.8,0.5 m -23.6,0.4 c -0.2,0.4 -0.4,0.9 -0.4,1 -0.1,0.1 -0.1,0.3 -0.1,0.4 0,0.3 0.5,-0.3 0.5,-0.6 0,-0.1 0.1,-0.5 0.3,-0.8 0.1,-0.3 0.2,-0.6 0.2,-0.7 -0.1,0 -0.3,0.3 -0.5,0.7 m 63.2,0 c -0.1,0.4 0.2,0.7 0.4,0.4 0.2,-0.3 0.1,-0.7 -0.2,-0.7 0,0 -0.1,0.2 -0.2,0.3 m -11.2,0.3 c -3.9,0.3 -10.7,1.6 -8.7,1.6 0.2,0 0.4,0 0.5,-0.1 0.2,-0.2 1.9,-0.5 3.7,-0.7 0.7,-0.1 1.5,-0.2 1.8,-0.3 0.3,-0.1 2,-0.2 3.8,-0.3 1.8,-0.1 3.5,-0.2 3.7,-0.2 0.3,-0.3 -2.5,-0.2 -4.8,0 m 6.3,-0.1 c 0,0.2 0.6,0.3 2,0.4 1,0 1.2,0 1.2,-0.2 0,-0.2 -0.3,-0.3 -1.6,-0.3 -0.9,0 -1.6,0 -1.6,0.1 m -59.1,2.1 c -0.3,0.6 -0.3,0.9 0.1,0.5 0.1,-0.2 0.2,-0.5 0.2,-0.7 -0.1,-0.2 -0.2,-0.1 -0.3,0.2 m 41.8,0.1 c -0.6,0.2 -1,0.5 -0.9,0.5 0.1,0 0.3,0 0.4,-0.1 0.1,-0.1 0.5,-0.2 0.8,-0.3 0.3,-0.1 0.7,-0.2 0.8,-0.3 0.1,-0.1 0.3,-0.2 0.5,-0.2 0.2,0 0.2,-0.1 -0.1,-0.1 -0.3,0 -0.9,0.2 -1.5,0.5 m -2.6,1.1 c -0.5,0.3 -1,0.6 -1.2,0.7 -0.1,0.1 -0.3,0.2 -0.3,0.2 -0.7,0 -4,3.9 -3.6,4.3 0.1,0.1 0.2,-0.2 0.4,-0.5 0.8,-1.8 2.6,-3.5 5.1,-4.7 0.5,-0.3 1,-0.5 1,-0.5 0,-0.2 -0.5,0 -1.4,0.5 m -39.8,0.7 c -0.2,0.5 -0.4,1.2 -0.5,1.5 -0.1,0.2 -0.1,0.5 -0.1,0.7 0,0.1 0.1,0.1 0.1,-0.1 0,-0.2 0.1,-0.4 0.2,-0.5 0.1,-0.1 0.2,-0.4 0.3,-0.7 0.1,-0.3 0.2,-0.7 0.3,-0.8 0.1,-0.1 0.1,-0.4 0.1,-0.6 -0.1,-0.4 -0.2,-0.3 -0.4,0.5 M 6.7,27.2 c 0.2,0.1 0.7,0.2 1.3,0.3 0.8,0.1 0.9,0 0.3,-0.1 C 6.5,27 6.4,27 6.7,27.2 m 2.5,0.5 c 0.2,0.1 0.8,0.2 1.3,0.3 0.9,0 0.9,0 0.4,-0.1 -1.7,-0.4 -2,-0.4 -1.7,-0.2 m 8.6,0.6 c -0.2,0.6 -0.3,0.7 -0.6,0.7 -0.5,0 -2.3,-0.4 -2.7,-0.5 -0.3,-0.1 -0.4,-0.1 -0.3,0.1 0.1,0.1 0.7,0.3 1.3,0.4 0.6,0.1 1.3,0.2 1.6,0.3 0.5,0.1 1.2,-0.9 1,-1.5 0,-0.1 -0.2,0.1 -0.3,0.5 m -5.7,-0.1 c 0.3,0.1 0.8,0.2 1.3,0.2 h 0.8 L 13.5,28.3 C 13.1,28.2 12.6,28.1 12.2,28.1 L 11.6,28 12.1,28.2 M 38,28.7 c -0.1,0.4 -0.2,0.8 -0.1,0.9 0.1,0.1 0.5,-0.9 0.4,-1.3 0,-0.3 -0.1,-0.2 -0.3,0.4 m -0.5,2 c -0.1,0.5 -0.2,1 -0.1,1 0.1,0.1 0.5,-1.2 0.4,-1.6 0,-0.2 -0.1,0 -0.3,0.6 m 15.6,0.2 c -0.1,0.5 -0.4,1.4 -0.5,1.8 -0.1,0.5 -0.3,0.9 -0.4,1 -0.1,0.1 -0.1,0.1 0.1,0.1 0.3,-0.1 0.7,-0.8 0.7,-1.4 0,-0.3 0.1,-0.8 0.3,-1.2 0.1,-0.4 0.2,-0.8 0.2,-0.9 -0.1,-0.2 -0.2,0.1 -0.4,0.6 m -15.9,1.5 c 0,0.8 -0.4,0.9 -1.7,0.7 C 34.9,33 34.2,32.9 34,33 c -0.4,0.1 1.6,0.5 2.4,0.5 0.7,-0.2 1,-0.5 0.8,-1.1 V 32 32.4 m -7.4,0.2 c 0.5,0.1 1.4,0.2 2.1,0.2 h 1.3 l -1,-0.1 c -0.5,-0.1 -1.5,-0.2 -2.1,-0.2 l -1.1,-0.1 0.8,0.2 m 17.9,1 c 0.7,0.1 2,0.2 2.8,0.2 h 1.6 l -1.3,-0.1 c -0.7,-0.1 -2,-0.2 -2.8,-0.2 l -1.5,-0.1 1.2,0.2 M 4.6,34.8 C 5,35 6.4,35.4 8,35.7 8.4,35.8 9,35.9 9.3,36 9.7,36 9.9,36 9.8,35.9 9.7,35.8 9.2,35.7 8.5,35.6 7.9,35.5 7.3,35.4 7.3,35.4 7.3,35.3 6.8,35.2 6.3,35.1 5.8,35 5.2,34.9 5,34.8 4.8,34.7 4.6,34.6 4.5,34.6 c -0.2,-0.1 -0.1,0 0.1,0.2 m 6.1,1.4 c 0.4,0.1 1.3,0.2 1.9,0.3 0.6,0.1 1.8,0.3 2.6,0.4 l 1.4,0.2 0.1,1.6 c 0.3,3.6 0.9,7.9 1,6.3 0,-0.3 -0.1,-0.6 -0.1,-0.8 -0.1,-0.3 -0.4,-2.4 -0.7,-6 C 16.8,36.8 16.6,36.7 14.5,36.5 13.7,36.4 12.7,36.3 12.3,36.2 11.8,36.1 11.1,36 10.7,36 H 9.9 l 0.8,0.2 m 36.5,0.6 c 0.2,0.1 0.7,0.2 1,0.2 0.7,0 0.3,-0.2 -0.8,-0.4 -0.6,-0.1 -0.6,-0.1 -0.2,0.2 m 3.2,0.3 c 1,0 1.8,0.1 1.9,0.3 0.2,0.2 0.2,0.2 0.2,0 -0.1,-0.2 -0.4,-0.3 -1.9,-0.3 h -1.8 1.6 m -21.6,0.6 c 0.2,0.1 0.8,0.2 1.4,0.2 l 1.1,0.1 -1,-0.2 C 29.1,37.5 28.2,37.4 28.8,37.7 M 52.5,38 c 0,0.2 0.1,0.7 0.2,1.2 0.3,1.1 0.8,2.5 0.8,2.2 0,-0.2 -0.1,-0.5 -0.2,-0.8 C 53.2,40.4 53,39.8 53,39.3 52.9,38.8 52.8,38.3 52.7,38 L 52.5,37.6 V 38 m -19.4,0.2 c 0.9,0.1 2,0.1 2.5,0.2 1.2,0 1.4,0.2 1.6,1.7 0.2,1.5 0.6,3.3 0.6,2.6 0,-0.3 -0.1,-0.8 -0.2,-1.2 -0.1,-0.4 -0.2,-1.1 -0.2,-1.6 0,-1.6 -0.1,-1.7 -3.3,-1.7 -2.4,-0.2 -2.5,-0.2 -1,0 m 20.4,3.6 c 0,0.3 0.5,0.8 0.5,0.5 0,-0.1 -0.1,-0.4 -0.3,-0.5 -0.1,-0.1 -0.2,-0.1 -0.2,0 m 0.8,1.4 c 0.6,1 3,2.9 3.3,2.5 0,0 -0.1,-0.2 -0.4,-0.3 C 56.6,45.1 55.5,44.3 55,43.8 54.8,43.6 54.5,43.2 54.3,43 l -0.3,-0.4 0.3,0.6 m -16.5,0.2 c 0,0.2 0.1,0.3 0.2,0.4 0.1,0.1 0.2,0.2 0.2,0.4 0,0.2 0.8,1.9 1.5,3.1 0.3,0.6 1.9,2.2 2.6,2.7 1,0.7 2,1.2 2.1,1.1 0,0 -0.1,-0.2 -0.4,-0.3 C 42.3,50 40.1,47.8 39.2,45.9 39,45.5 38.8,45 38.7,44.8 38.6,44.5 38.5,44.2 38.5,44 38.3,43.6 37.8,43 37.8,43.4 M 67.2,45 c 0,0.3 -0.1,0.3 -0.6,0.3 -0.4,0 -0.7,0.1 -0.7,0.2 -0.1,0.1 -0.4,0.3 -1,0.3 -0.5,0 -1.1,0.2 -1.5,0.3 -0.6,0.2 -0.6,0.2 0.2,0.1 0.4,-0.1 1.3,-0.1 2,-0.1 0.9,0 1.2,-0.1 1.2,-0.2 0,-0.1 0.1,-0.2 0.3,-0.2 0.3,0 0.3,0.3 0,0.4 -0.1,0.1 -0.1,0.1 0.1,0.1 0.1,0 0.4,-0.1 0.7,-0.3 0.2,-0.2 0.5,-0.3 0.6,-0.3 0.4,0 0.3,-0.5 -0.2,-0.6 -0.2,-0.1 -0.5,-0.1 -0.7,-0.2 -0.4,-0.1 -0.4,-0.1 -0.4,0.2 m -49.5,0.8 c 0,0.4 0.9,3.4 1.3,4 0.2,0.3 0.2,0.3 0.2,0 0,-0.2 -0.1,-0.3 -0.2,-0.4 -0.1,-0.1 -0.2,-0.2 -0.2,-0.4 0,-0.2 -0.1,-0.5 -0.2,-0.7 C 18.5,48 18.3,47.6 18.2,47.2 18.1,46.9 18,46.5 18,46.4 17.9,46.3 17.8,46.1 17.7,45.8 v -0.4 0.4 m 40.6,0.3 c 0.3,0.1 0.8,0.2 1.1,0.2 h 0.5 l -0.6,-0.2 c -1.1,-0.3 -1.7,-0.3 -1,0 m -39.1,4.2 c 0,0.3 0.5,0.8 0.5,0.5 0,-0.1 -0.1,-0.4 -0.3,-0.5 -0.1,-0.1 -0.2,-0.1 -0.2,0 m 40,0.1 c 0,0.2 -0.2,0.3 -0.6,0.3 -0.3,0 -0.7,0.1 -0.8,0.3 -0.1,0.1 -0.5,0.3 -0.8,0.3 -0.3,0 -0.8,0.1 -1,0.3 l -0.4,0.3 0.5,-0.1 c 0.3,-0.1 0.8,-0.1 1.2,-0.2 0.4,0 0.8,-0.2 1,-0.3 0.1,-0.1 0.4,-0.2 0.8,-0.1 1.2,0.2 2.5,-0.4 1.4,-0.7 -0.7,-0.4 -1.3,-0.3 -1.3,-0.1 m -39.4,1 c 1,1.8 3.3,4.4 5,5.5 0.9,0.6 2.9,1.7 3,1.6 0,0 -0.4,-0.3 -0.9,-0.6 -1.3,-0.7 -1.7,-0.9 -2,-1.1 -0.1,-0.1 -0.3,-0.2 -0.4,-0.2 -0.3,0 -3.1,-3 -3.9,-4.1 -0.7,-1.2 -1.2,-1.8 -0.8,-1.1 m 25.1,0 c 0.6,0.3 1,0.3 0.5,0 -0.2,-0.1 -0.5,-0.2 -0.7,-0.2 -0.2,0 -0.2,0 0.2,0.2 m 1.7,0.5 c 1.1,0.3 1.7,0.3 0.8,0 -0.4,-0.1 -0.9,-0.2 -1.2,-0.2 -0.3,0 -0.2,0.1 0.4,0.2 m 6.8,0 c -0.9,0.3 -0.2,0.3 1.2,0 l 1,-0.2 h -0.8 c -0.4,0 -1,0.1 -1.4,0.2 m -4.2,0.4 c 0.6,0 1.6,0 2.3,0 0.6,0 0.1,-0.1 -1.1,-0.1 -1.3,0 -1.8,0.1 -1.2,0.1 m -0.4,6 c -0.1,0.2 -0.3,0.3 -0.8,0.3 -0.4,0 -0.8,0.1 -1,0.2 -0.2,0.1 -0.8,0.3 -1.2,0.3 -0.5,0.1 -1,0.2 -1.2,0.3 -0.2,0.1 -0.2,0.2 0.3,0.1 1.4,-0.2 1.9,-0.3 2.3,-0.2 0.2,0.1 0.4,0.2 0.3,0.3 -0.1,0.1 0,0.2 0.1,0.2 0.2,0.1 0.3,-0.5 0.1,-0.7 -0.1,-0.1 0,-0.2 0.4,-0.2 0.4,0 0.6,0.1 0.6,0.3 0,0.1 0.1,0.3 0.2,0.3 0.1,0 0.2,-0.1 0.3,-0.3 0.1,-0.1 0.3,-0.3 0.6,-0.3 0.8,0 1,-0.4 0.2,-0.7 -1,-0.3 -1.1,-0.2 -1.2,0.1 M 28,58.6 c 0.1,0.1 2.6,0.9 2.8,0.9 0.4,0 -0.6,-0.5 -1,-0.5 -0.2,0 -0.6,-0.1 -0.8,-0.3 -0.4,-0.2 -1.2,-0.3 -1,-0.1 m 3.9,1.1 c 0.4,0.1 1,0.2 1.3,0.2 l 0.7,0.1 -0.8,-0.3 c -0.4,-0.1 -1,-0.2 -1.3,-0.2 h -0.6 l 0.7,0.2 m 9.6,0.1 -0.7,0.2 0.8,-0.1 c 0.5,0 1.2,-0.2 1.6,-0.2 L 44,59.6 h -0.8 c -0.6,-0.1 -1.3,0 -1.7,0.2 M 36,60.1 c 0.7,0 1.9,0 2.6,0 0.7,0 0.1,-0.1 -1.3,-0.1 -1.4,0 -2,0.1 -1.3,0.1"
   inkscape:connector-curvature="0"
   style="fill:#679014" />
	<path
   class="st2"
   d="m 5.3,27 c 0.2,0 0.5,0 0.8,0 0.2,0 0,-0.1 -0.4,-0.1 -0.4,0 -0.6,0 -0.4,0.1"
   id="path3794"
   inkscape:connector-curvature="0"
   style="fill:#679014" />
	<path
   class="st2"
   d="m 60.6,46.5 c 0.3,0 0.8,0 1.2,0 0.3,0 0.1,-0.1 -0.5,-0.1 -0.6,0 -1,0 -0.7,0.1"
   id="path3796"
   inkscape:connector-curvature="0"
   style="fill:#679014" />
	<path
   id="path3"
   class="st3"
   d="M 60.2,5 C 61,5 62.3,5 63,5 63.8,5 63.1,4.9 61.5,4.9 60,4.9 59.4,4.9 60.2,5 M 88,6.6 c 0.2,0.2 0.3,0.5 0.3,0.6 0,0.2 0.1,0.3 0.3,0.3 C 89,7.5 88.9,7 88.3,6.6 87.8,6.3 87.8,6.3 88,6.6 m -4.2,7 c 0.1,0.2 0,0.3 -0.2,0.5 -0.2,0.1 -0.2,0.2 -0.1,0.2 0.1,0 0.2,-0.1 0.3,-0.2 C 83.9,14 84,14 84,14 c 0.1,0 0.2,0 0.4,-0.2 0.2,-0.2 0.2,-0.3 0,-0.2 -0.2,0.2 -0.5,0.1 -0.6,0 -0.1,-0.1 -0.2,-0.1 0,0 m -0.7,7.6 c -0.2,0.4 0.3,0.6 0.5,0.2 0.1,-0.1 0,-0.1 -0.1,-0.1 -0.2,0.1 -0.2,0 -0.1,-0.2 0.2,-0.4 -0.1,-0.4 -0.3,0.1 m -6.2,-0.1 c 0.4,0 1.1,0 1.6,0 0.4,0 0.1,-0.1 -0.8,-0.1 -0.9,0.1 -1.3,0.1 -0.8,0.1 m 4.8,0.3 c 0,0.2 0.2,0.3 0.4,0.3 0.3,0 0.4,-0.1 0.3,-0.3 -0.1,-0.1 -0.2,-0.3 -0.4,-0.3 -0.2,0.1 -0.3,0.2 -0.3,0.3 m -15,24.5 c 0,0.2 0.1,0.2 0.3,0.1 0.1,-0.1 0.3,-0.2 0.3,-0.2 0,-0.1 -0.1,-0.1 -0.3,-0.1 -0.2,0 -0.3,0.1 -0.3,0.2 m -8.4,5.2 c -0.1,0.1 -0.4,0.3 -0.6,0.3 -0.3,0.1 -0.3,0.1 0,0.1 0.2,0 0.3,0.1 0.3,0.2 0,0.2 0.4,0.1 0.4,-0.1 0,-0.1 0.1,-0.3 0.2,-0.5 0.1,-0.3 0,-0.4 -0.3,0 m -10.6,8 c 0.1,0.1 0.4,0.3 0.6,0.3 0.2,0 0.4,-0.1 0.4,-0.3 0,-0.3 -0.3,-0.3 -0.4,0 -0.1,0.2 -0.1,0.2 -0.1,0 0,-0.1 -0.2,-0.2 -0.4,-0.2 -0.3,-0.1 -0.3,0 -0.1,0.2 M 47,59.3 c 0.1,0.1 0.2,0.2 0.1,0.3 -0.1,0.1 0,0.2 0.1,0.2 0.1,0 0.2,-0.1 0.2,-0.2 0,-0.2 -0.3,-0.5 -0.5,-0.5 -0.1,0.1 0,0.1 0.1,0.2 m -1.4,0.8 c -0.1,0.2 0,0.3 0.2,0.3 0.2,0 0.3,-0.1 0.3,-0.3 0,-0.1 -0.1,-0.3 -0.2,-0.3 -0.1,0 -0.2,0.1 -0.3,0.3"
   inkscape:connector-curvature="0"
   style="fill:#749c14" />
	<path
   class="st3"
   d="m 55,5.1 c 0.2,0 0.4,0 0.6,0 C 55.8,5.1 55.6,5 55.3,5 55,5 54.9,5.1 55,5.1"
   id="path3799"
   inkscape:connector-curvature="0"
   style="fill:#749c14" />
	<path
   class="st3"
   d="m 67.9,5.1 c 0.2,0 0.4,0 0.6,0 0.2,0 0,-0.1 -0.3,-0.1 -0.4,0 -0.5,0.1 -0.3,0.1"
   id="path3801"
   inkscape:connector-curvature="0"
   style="fill:#749c14" />
	<path
   class="st3"
   d="m 70.7,14.1 c 0.3,0 0.6,0 0.8,0 0.2,0 0,-0.1 -0.5,-0.1 -0.4,0 -0.5,0.1 -0.3,0.1"
   id="path3803"
   inkscape:connector-curvature="0"
   style="fill:#749c14" />
	<path
   class="st3"
   d="m 78.4,14.1 c 0.3,0 0.6,0 0.8,0 0.2,0 0,-0.1 -0.5,-0.1 -0.4,0 -0.6,0.1 -0.3,0.1"
   id="path3805"
   inkscape:connector-curvature="0"
   style="fill:#749c14" />
	<path
   class="st3"
   d="m 16.7,40 c 0,0.3 0,0.5 0.1,0.3 0,-0.2 0,-0.4 0,-0.6 -0.1,-0.2 -0.1,0 -0.1,0.3"
   id="path3807"
   inkscape:connector-curvature="0"
   style="fill:#749c14" />
	<path
   class="st3"
   d="m 34,60.1 c 0.2,0 0.4,0 0.6,0 0.2,0 0,-0.1 -0.3,-0.1 -0.3,0 -0.4,0.1 -0.3,0.1"
   id="path3809"
   inkscape:connector-curvature="0"
   style="fill:#749c14" />
	<path
   id="path4"
   class="st4"
   d="m 54,4.9 c 0,0 -0.8,0.2 -1.6,0.2 L 50.9,5.3 52.6,5.2 C 53.5,5.1 55.3,5.1 56.6,5 L 58.9,4.9 H 56.5 C 55.1,4.8 54,4.9 54,4.9 M 66.8,5 c 5.9,0.3 6.4,0.3 5.1,0.2 C 71.2,5.1 69.2,5 67.5,5 64.3,4.9 64.3,4.9 66.8,5 M 48.3,5.5 c -0.2,0.1 -0.6,0.2 -0.9,0.2 -0.3,0 -0.4,0.1 -0.3,0.1 0.2,0 1,0 1.8,-0.2 1.4,-0.2 1.4,-0.2 0.6,-0.2 -0.5,0 -1.1,0 -1.2,0.1 m 27.4,0.1 c 1,0.1 2,0.2 2.3,0.2 0.9,0 -0.9,-0.3 -2.7,-0.4 L 73.9,5.3 75.7,5.6 M 86,5.8 C 86.2,6 86.8,6 86.8,5.9 86.8,5.8 86.6,5.7 86.4,5.7 86.1,5.7 86,5.7 86,5.8 M 44.3,6.1 c -1,0.3 -0.2,0.3 1.1,0 0.9,-0.2 0.9,-0.2 0.3,-0.2 -0.3,0 -1,0.1 -1.4,0.2 M 79.9,6 C 81.2,6.2 83,6.4 82,6.2 81.6,6.1 80.8,6 80.2,6 79.1,5.9 79.1,5.9 79.9,6 m 7.3,0.4 c 0,0.4 -0.8,0.5 -1.6,0.3 C 85.2,6.6 84.6,6.5 84.2,6.4 83.4,6.3 83.4,6.3 84,6.5 85.2,6.8 85.9,7 86.7,7 c 0.6,0 0.8,0.1 0.7,0.3 -0.1,0.2 0,0.3 0.4,0.3 0.5,0 0.8,-0.5 0.3,-0.8 C 88,6.7 88,6.6 88,6.5 88.1,6.4 88,6.4 87.9,6.4 c -0.1,0.1 -0.2,0 -0.2,-0.1 0,-0.1 -0.2,-0.2 -0.3,-0.2 -0.1,0 -0.2,0.2 -0.2,0.3 m -45,0.1 c -0.3,0.2 0,0.2 0.7,0 l 0.4,-0.1 h -0.4 c -0.3,-0.1 -0.6,0 -0.7,0.1 M 40.4,6.9 C 39.5,7.2 39.9,7.2 41,7 41.6,6.9 41.8,6.8 41.5,6.8 41.1,6.7 40.7,6.8 40.4,6.9 m -2.3,0.6 c -0.1,0.2 0,0.2 0.5,0 0.3,-0.1 0.3,-0.1 0,-0.2 -0.2,0 -0.5,0.1 -0.5,0.2 m -2.9,0.9 c -0.2,0.1 -0.5,0.2 -0.7,0.2 -0.1,0 -0.4,0.1 -0.6,0.3 -0.2,0.2 0,0.1 0.6,-0.1 0.5,-0.2 1.1,-0.4 1.3,-0.5 0.3,-0.1 0.4,-0.1 0.1,-0.1 -0.2,0 -0.5,0.1 -0.7,0.2 m -2.7,1 c -0.2,0.1 -0.8,0.4 -1.2,0.6 -0.4,0.2 -0.8,0.4 -0.9,0.5 -0.1,0.1 2.7,-1.1 2.9,-1.3 0.2,-0.1 -0.4,0 -0.8,0.2 m -3.6,1.9 c -0.6,0.3 -1,0.7 -1,0.7 0,0.1 2,-1.1 2.3,-1.3 0.2,-0.2 -0.4,0.1 -1.3,0.6 m -2.2,1.5 c -1.2,0.9 -2.3,2 -2.3,2.1 0,0.1 0.4,-0.2 0.8,-0.7 0.5,-0.4 1.2,-1.1 1.7,-1.4 0.5,-0.3 0.8,-0.6 0.8,-0.6 0,-0.1 -0.3,0 -1,0.6 m 54.6,0.5 c 0,0.4 -0.5,0.5 -3.7,0.4 -1.8,0 -4.1,0 -5.2,0.1 -1.7,0.1 -1.5,0.1 2.9,0.2 2.6,0.1 5.5,0.2 6.3,0.2 1.6,0.1 2.4,-0.1 2.1,-0.6 -0.2,-0.4 -1.1,-0.2 -1.1,0.2 0,0.3 -0.1,0.3 -0.4,0.3 C 82,14 81.7,14 81.6,14 c -0.3,0 -0.3,-0.3 0.1,-0.5 0.5,-0.2 0.4,-0.5 0,-0.5 -0.2,0.1 -0.4,0.2 -0.4,0.3 m -15.8,0.9 c -0.7,0.1 -1.3,0.2 -1.3,0.2 -0.1,0.1 0.3,0.1 0.9,0 0.6,-0.1 2,-0.2 3.2,-0.2 l 2.2,-0.1 h -1.8 c -1.1,0 -2.5,0 -3.2,0.1 m -5,0.6 c -0.3,0.2 0.1,0.2 0.9,0 l 0.5,-0.1 h -0.6 c -0.3,0 -0.7,0 -0.8,0.1 m -2.7,0.5 c -0.4,0.1 -0.9,0.2 -1.1,0.2 -0.5,0 -1.6,0.3 -1.5,0.4 0,0 0.4,0 0.7,-0.1 0.7,-0.2 3,-0.6 3.7,-0.8 0.2,0 0.1,-0.1 -0.3,-0.1 -0.4,0.1 -1.1,0.2 -1.5,0.4 M 23,16.1 c -0.7,0.8 -2.1,2.9 -2,3 0,0 0.4,-0.5 0.9,-1.2 0.4,-0.7 1,-1.4 1.1,-1.5 0.3,-0.3 0.7,-0.9 0.6,-0.9 0,0 -0.3,0.3 -0.6,0.6 m 28.8,0.7 c -0.5,0.3 -0.3,0.3 0.6,0 0.5,-0.2 0.6,-0.2 0.3,-0.2 -0.3,-0.1 -0.6,0 -0.9,0.2 m -1.5,0.5 c -0.3,0.2 -0.3,0.2 -0.2,0.2 0.1,0 0.3,-0.1 0.4,-0.1 0.1,-0.1 0.3,-0.2 0.5,-0.2 l 0.3,-0.1 H 51 c -0.1,-0.1 -0.4,0 -0.7,0.2 m -1.2,0.4 c -0.4,0.3 -0.2,0.3 0.4,0 0.3,-0.1 0.4,-0.2 0.2,-0.3 -0.2,0.1 -0.4,0.2 -0.6,0.3 m -1.7,0.7 c -0.5,0.2 -0.9,0.5 -0.8,0.5 0,0 0.3,0 0.5,-0.2 0.3,-0.1 0.7,-0.3 1.1,-0.5 0.3,-0.1 0.5,-0.3 0.3,-0.3 -0.1,0.1 -0.6,0.3 -1.1,0.5 m -2.5,1.3 c -0.6,0.4 -1.2,0.8 -1.3,0.9 -0.1,0.1 -0.5,0.4 -1,0.8 -1,0.8 -2.2,2 -2.5,2.5 -0.1,0.2 0.3,-0.2 0.9,-0.8 1.1,-1.2 2.8,-2.6 4.5,-3.5 0.5,-0.3 0.8,-0.5 0.7,-0.5 0,-0.1 -0.6,0.2 -1.3,0.6 M 20.7,19.5 C 20.4,20 20,21 20,21.1 c 0,0 0.3,-0.3 0.5,-0.8 0.5,-1 0.5,-1.2 0.2,-0.8 m 60.7,1.1 c 0.1,0.2 -0.1,0.3 -0.9,0.3 -1.6,0.2 -1.6,0.2 0.1,0.2 1.2,0 1.6,0.1 1.7,0.3 0.1,0.4 0.7,0.3 0.7,-0.1 0,-0.5 -0.6,-0.9 -1.2,-0.9 -0.3,-0.1 -0.4,0 -0.4,0.2 m -9.1,0.6 c -0.3,0.1 0.5,0.1 1.7,0 1.2,0 2.2,-0.1 2.2,-0.1 0.1,-0.2 -3.5,-0.1 -3.9,0.1 m -4.5,0.5 c -0.3,0.2 0.1,0.2 0.9,0 l 0.5,-0.1 h -0.6 c -0.3,-0.1 -0.6,0 -0.8,0.1 M 65.5,22 c -0.3,0.1 -0.5,0.2 -0.5,0.3 0,0.1 0.2,0 0.5,0 0.3,-0.1 0.8,-0.2 1.2,-0.2 L 67.5,22 h -0.7 c -0.4,-0.1 -1,-0.1 -1.3,0 m -2.1,0.6 c -0.4,0.2 -0.4,0.2 -0.1,0.1 0.2,-0.1 0.7,-0.2 1,-0.2 0.6,-0.1 0.6,-0.1 0.1,-0.1 -0.3,0 -0.7,0.1 -1,0.2 M 19.2,23.2 C 19.1,23.5 19,23.8 19,24 c 0,0.2 0.1,0 0.2,-0.4 0.3,-0.7 0.2,-1.1 0,-0.4 M 61.9,23 c -0.7,0.3 -0.3,0.3 0.4,0.1 0.4,-0.1 0.5,-0.2 0.3,-0.2 -0.2,0 -0.5,0 -0.7,0.1 m -2,0.8 C 59.4,24 59,24.2 59,24.3 c 0,0 0.4,-0.1 0.9,-0.3 0.5,-0.2 0.9,-0.4 1.1,-0.5 0.2,-0.1 0.2,-0.1 0,-0.1 -0.1,0 -0.7,0.1 -1.1,0.4 m -41.2,1 c -0.1,0.2 -0.2,0.6 -0.2,0.7 0,0.1 0.1,0 0.2,-0.4 0.3,-0.8 0.3,-1 0,-0.3 M 58.2,24.6 C 58,24.7 58,24.8 58,24.8 c 0.1,0 0.3,-0.1 0.5,-0.2 0.2,-0.1 0.2,-0.2 0.2,-0.2 -0.1,-0.1 -0.3,0 -0.5,0.2 M 39.3,25 c -0.4,0.6 -0.7,1.2 -0.6,1.2 0,0 0.3,-0.3 0.5,-0.7 0.5,-0.7 0.6,-1.1 0.1,-0.5 m 17.7,0.3 -0.6,0.5 0.7,-0.4 c 0.4,-0.2 0.7,-0.5 0.7,-0.5 0,-0.2 -0.3,0 -0.8,0.4 M 18.2,26.4 C 18.1,26.6 18,27 18,27.1 c 0,0.1 0.1,-0.1 0.3,-0.5 0.1,-0.4 0.2,-0.8 0.2,-0.8 -0.1,0.1 -0.2,0.3 -0.3,0.6 m 37.4,0.1 c -0.8,0.7 -1.6,1.7 -1.9,2.5 -0.5,1.2 -0.8,1.9 -0.8,2.1 0,0.1 0.2,-0.1 0.3,-0.6 0.6,-1.7 1,-2.3 2.3,-3.7 1,-1.1 1.1,-1.2 0.1,-0.3 M 5.2,26.6 c -0.2,0 -0.5,0.2 -0.6,0.3 -0.2,0.3 -0.2,0.3 0.1,0.1 0.2,-0.1 0.6,-0.2 1,-0.2 0.4,0 0.7,0 0.7,0 0.1,-0.1 -0.8,-0.2 -1.2,-0.2 m 33.2,0.3 c -0.3,0.6 -0.2,0.9 0.1,0.4 0.1,-0.3 0.2,-0.6 0.2,-0.6 0,0 -0.2,0 -0.3,0.2 M 7.3,27.1 c 0.4,0.1 0.9,0.2 1.2,0.2 0.3,0 0.1,-0.1 -0.4,-0.2 -1.1,-0.3 -1.7,-0.3 -0.8,0 m 2.2,0.4 c 0.6,0.2 1.1,0.2 0.8,0 -0.1,-0.1 -0.5,-0.2 -0.8,-0.1 -0.4,0 -0.4,0 0,0.1 m 1.8,0.3 c 0.4,0.1 0.9,0.2 1.3,0.3 0.4,0.1 0.5,0.1 0.3,-0.1 -0.1,-0.1 -0.7,-0.2 -1.3,-0.3 -0.8,0 -0.9,0 -0.3,0.1 m 26.6,0.7 c -0.3,0.9 -0.2,1.2 0.1,0.4 0.1,-0.4 0.2,-0.8 0.2,-0.9 -0.1,-0.1 -0.2,0.1 -0.3,0.5 M 14.1,28.4 c 1.2,0.3 1.4,0.3 1.1,0.1 -0.1,-0.1 -0.7,-0.2 -1.2,-0.2 l -0.9,-0.1 1,0.2 m 3.4,0.1 c 0,0.2 -0.2,0.3 -0.5,0.3 H 16.5 L 17,29 c 0.4,0.1 0.8,-0.2 0.5,-0.5 0.1,-0.2 0,-0.1 0,0 m 19.9,1.6 c -0.3,1.3 -0.3,1.6 0,0.8 0.1,-0.4 0.2,-0.9 0.2,-1.1 0,-0.1 -0.1,0 -0.2,0.3 m 15.3,1.8 c 0,0.1 -0.1,0.5 -0.2,1 -0.1,0.4 -0.2,0.8 -0.1,0.7 0.2,-0.1 0.6,-1.6 0.5,-1.7 -0.2,-0.1 -0.2,-0.1 -0.2,0 m -23.1,0.4 c 0.7,0.1 1.8,0.2 2.4,0.2 l 1.1,0.1 -1.2,-0.2 c -0.6,-0.1 -1.7,-0.2 -2.4,-0.2 h -1.3 l 1.4,0.1 m 7.4,0.2 c -0.1,0.4 -0.1,0.4 -1.7,0.3 -1.5,-0.1 -1.5,-0.1 -0.5,0.1 0.7,0.1 1.3,0.2 1.5,0.2 0.4,0.1 0.9,-0.3 0.9,-0.7 -0.1,-0.3 -0.1,-0.3 -0.2,0.1 m 11.2,0.8 c 0.5,0.1 1.6,0.2 2.4,0.2 1.3,0.1 1.4,0.1 0.5,-0.1 C 49.6,33.3 47,33.1 48.2,33.3 M 4.6,35 c 0.3,0.2 0.6,0.4 0.9,0.4 0.5,0 0.5,0 -0.1,-0.1 C 5.1,35.2 4.6,35.1 4.5,34.9 4.4,34.7 4.4,34.8 4.6,35 m 1.7,0.5 c 0.1,0.1 0.3,0.2 0.6,0.2 0.4,0 0.4,0 0.1,-0.2 -0.5,-0.2 -0.9,-0.2 -0.7,0 M 8.7,36 c 0.1,0.1 0.4,0.2 0.7,0.1 H 9.8 L 9.3,36 c -0.6,-0.2 -1,-0.2 -0.6,0 m 1.8,0.4 c 1.4,0.3 2.2,0.3 1.3,0.1 -0.5,-0.1 -1.1,-0.2 -1.4,-0.2 -0.6,-0.1 -0.6,-0.1 0.1,0.1 m 3.2,0.5 c 0.4,0.1 1.1,0.2 1.6,0.2 0.8,0.1 0.8,0.1 -0.3,-0.2 -0.6,-0.1 -1.3,-0.2 -1.6,-0.2 -0.4,0 -0.3,0 0.3,0.2 m 33.1,-0.1 c 0,0.2 0.7,0.4 1.2,0.3 C 48.3,37 48.2,37 47.8,37 47.5,37 47.1,36.9 47,36.8 c -0.1,-0.2 -0.2,-0.2 -0.2,0 m -30.2,1.6 c 0,0.7 0,1 0.1,0.6 0,-0.4 0,-1 0,-1.3 -0.1,-0.3 -0.1,0 -0.1,0.7 m 34.1,-1.1 c 0.8,0 1.5,0.1 1.6,0.3 0.1,0.1 0.1,0.1 0.1,0 -0.2,-0.3 -0.5,-0.4 -1.7,-0.3 l -1.4,-0.1 1.4,0.1 m -22.4,0.3 c 0,0.2 1.1,0.6 1.8,0.6 h 0.8 L 30,38 c -0.5,-0.1 -1.1,-0.2 -1.3,-0.3 -0.2,-0.1 -0.4,-0.2 -0.4,-0.1 m 24.1,0.7 c 0,0.3 0.1,0.8 0.2,1.2 0.3,0.6 0.3,0.6 -0.1,-1.1 l -0.1,-0.7 v 0.6 m -19.7,0 c 0.4,0.1 1.5,0.2 2.4,0.3 1.6,0.1 1.6,0.1 1.7,0.6 0.3,1.2 0.4,1.4 0.3,0.6 -0.1,-1.1 -0.2,-1.2 -2.3,-1.4 -2.2,-0.3 -3.3,-0.3 -2.1,-0.1 m 20.1,2.2 c 0,0.2 0.1,0.5 0.2,0.8 0.3,0.6 0.3,0.3 0,-0.5 0,-0.3 -0.2,-0.4 -0.2,-0.3 m -36.1,0.8 c 0,0.5 0.1,1 0.1,1.2 0.2,0.5 0.2,-0.2 0,-1.3 l -0.1,-0.8 v 0.9 m 20.5,0.3 c 0,0.3 0.1,0.6 0.2,0.6 0.1,0.1 0.2,0.3 0.2,0.5 0,0.2 0,0.3 0.1,0.2 0,-0.1 0,-0.6 -0.2,-1 -0.3,-0.7 -0.3,-0.8 -0.3,-0.3 m 16.1,0.3 c 0,0.7 2.8,3.9 3.1,3.6 0,0 -0.2,-0.3 -0.5,-0.5 -0.9,-0.7 -1.2,-1.1 -1.9,-2.2 -0.4,-0.6 -0.7,-1 -0.7,-0.9 m -36.2,2 c 0,0.6 0.1,1.2 0.3,1.3 0.2,0.3 0.2,0.2 0.1,-0.2 -0.1,-0.3 -0.2,-0.9 -0.3,-1.3 l -0.2,-0.8 0.1,1 m 20.6,-0.5 c 0,0.2 0.1,0.5 0.2,0.8 0.3,0.6 0.3,0.3 0,-0.5 -0.1,-0.4 -0.2,-0.5 -0.2,-0.3 m 0.5,1.4 c 0,0.1 0.1,0.4 0.2,0.6 0.3,0.4 0.3,0.1 0,-0.4 -0.1,-0.2 -0.2,-0.3 -0.2,-0.2 m 18.6,0.9 c 0.3,0.3 2,0.8 2.4,0.8 0.2,0 0,-0.1 -0.5,-0.3 -0.5,-0.1 -1.1,-0.4 -1.4,-0.5 -0.6,-0.2 -0.8,-0.3 -0.5,0 m -39.2,0.6 c 0,0.4 0.2,0.8 0.3,0.9 0.2,0.1 0.2,0.1 0.1,-0.1 -0.1,-0.2 -0.2,-0.6 -0.3,-0.9 -0.2,-0.6 -0.2,-0.6 -0.1,0.1 m 21.1,-0.4 c -0.1,0.7 2.6,3.9 3.9,4.6 0.8,0.5 0.8,0.3 -0.1,-0.3 -1.2,-0.8 -2.2,-2 -3.6,-4.1 -0.1,-0.2 -0.2,-0.3 -0.2,-0.2 m 25.8,0.3 c -0.1,0.1 -0.5,0.2 -0.8,0.2 -0.4,0 -0.5,0 -0.2,0.1 0.2,0 0.4,0.2 0.5,0.4 0.1,0.4 0.3,0.4 1.4,-0.1 0.8,-0.3 0.9,-0.5 0.5,-0.7 C 65.2,46 64.8,46 64.5,46.2 m -1.9,1.1 c -0.2,0.2 -0.1,0.3 0.3,0.3 0.6,-0.1 0.6,-0.1 0.5,-0.2 -0.1,-0.3 -0.6,-0.3 -0.8,-0.1 M 18,47.7 c 0,0.3 0.3,1.2 0.4,1.1 0,0 0,-0.4 -0.2,-0.7 C 18.1,47.7 18,47.5 18,47.7 m 25.6,3.4 c 0.2,0.1 0.5,0.3 0.8,0.4 0.2,0.1 0.5,0.2 0.5,0.3 0,0.1 0.2,0.1 0.4,0.1 0.2,0 -0.2,-0.2 -0.7,-0.5 -1.1,-0.6 -1.5,-0.7 -1,-0.3 m 14.8,0.2 c -0.1,0.2 0,0.3 0.4,0.3 0.3,0 0.5,-0.1 0.5,-0.3 0,-0.1 -0.2,-0.3 -0.4,-0.3 -0.2,0 -0.4,0.1 -0.5,0.3 m -38.9,0 c 0,0.4 1.6,2.6 2.6,3.6 l 1.1,1.1 -1,-1.1 c -0.6,-0.6 -1.4,-1.7 -1.9,-2.4 -0.4,-0.8 -0.8,-1.3 -0.8,-1.2 m 36.8,0.4 C 55.7,51.9 55.7,52 56,52 c 0.3,0 0.4,0.1 0.3,0.3 -0.1,0.3 0.5,0.3 0.7,0 0.1,-0.1 0.4,-0.3 0.7,-0.3 0.4,0 0.5,-0.1 0.4,-0.3 -0.3,-0.4 -1.1,-0.4 -1.8,0 m -10,0.4 c 0.4,0.1 0.9,0.2 1.1,0.2 0.3,0 0.1,-0.1 -0.4,-0.2 -1.2,-0.3 -1.6,-0.3 -0.7,0 m 7.6,0 c -0.8,0.2 -0.8,0.2 -0.3,0.2 0.3,0 0.9,-0.1 1.3,-0.2 0.9,-0.3 0.2,-0.3 -1,0 m -4.4,0.4 c 0.5,0 1.3,0 1.8,0 0.5,0 0.1,-0.1 -0.9,-0.1 -1,0 -1.4,0 -0.9,0.1 m 5.4,0.2 c -0.1,0.4 0.3,0.4 0.8,0.1 0.3,-0.2 0.3,-0.2 -0.2,-0.3 -0.4,-0.1 -0.5,0 -0.6,0.2 m -1.4,0.6 c 0,0.2 0.1,0.2 0.4,0.2 0.2,-0.1 0.4,-0.1 0.5,-0.1 0.4,0 0,-0.3 -0.4,-0.3 -0.3,-0.1 -0.5,0 -0.5,0.2 m -30.2,2.6 c 0,0.2 1.3,1.1 2,1.5 0.6,0.3 0.4,0.1 -0.3,-0.4 -0.4,-0.2 -0.9,-0.6 -1.2,-0.9 -0.3,-0.1 -0.5,-0.3 -0.5,-0.2 m 3.8,2.5 c 0.2,0.1 0.5,0.3 0.8,0.4 0.2,0.1 0.5,0.2 0.5,0.3 0.1,0.1 0.3,0.1 0.5,0.1 0.2,0 -0.1,-0.2 -0.8,-0.5 -1.3,-0.6 -1.5,-0.6 -1,-0.3 m 2.7,1 c 0.3,0.1 0.7,0.2 0.9,0.2 0.2,0 0.1,-0.1 -0.3,-0.2 -0.9,-0.3 -1.3,-0.3 -0.6,0 m 15.7,-0.1 c -0.1,0.1 -0.5,0.2 -0.8,0.2 -0.5,0 -0.5,0 -0.1,0.2 0.2,0.1 0.3,0.3 0.3,0.4 -0.1,0.1 0,0.2 0.2,0.2 0.2,0 0.4,-0.1 0.4,-0.3 0.1,-0.1 0.2,-0.3 0.3,-0.3 0.2,0 0.2,-0.1 0.2,-0.3 -0.1,-0.2 0,-0.3 0.1,-0.3 0.1,0 0.2,0.1 0.2,0.3 0,0.3 0.4,0.3 0.6,0.1 C 47.3,59.2 46,59 45.5,59.3 m -13.7,0.6 c 0.3,0.1 0.9,0.2 1.3,0.2 h 0.8 L 33.2,60 c -0.4,-0.1 -1,-0.2 -1.3,-0.2 l -0.6,-0.1 0.5,0.2 M 43,59.8 C 42.9,59.9 42.4,60 41.8,60 l -1.1,0.1 h 1 c 1,0 2.8,-0.4 1.9,-0.4 -0.4,0 -0.6,0 -0.6,0.1 m -7,0.5 c 0.8,0 2,0 2.7,0 0.7,0 0.1,-0.1 -1.4,-0.1 -1.5,0 -2.1,0.1 -1.3,0.1 m 7.5,0.2 c -0.1,0.4 0.2,0.4 0.7,0.1 0.3,-0.1 0.3,-0.2 0.1,-0.3 -0.4,-0.2 -0.8,-0.1 -0.8,0.2 M 41.7,61 c -0.3,0.3 -0.3,0.3 0.3,0.3 0.5,0 1,-0.2 0.8,-0.4 C 42.6,60.7 42,60.7 41.7,61 m -1.9,0.6 c 0,0.2 0.2,0.3 1,0.1 0,0 0,-0.1 -0.2,-0.2 -0.3,-0.2 -0.8,-0.2 -0.8,0.1"
   inkscape:connector-curvature="0"
   style="fill:#7c9c14" />
	<path
   class="st4"
   d="m 62.6,14.6 c 0.3,0 0.8,0 1,0 0.3,0 0,-0.1 -0.5,-0.1 -0.5,0 -0.8,0.1 -0.5,0.1"
   id="path3812"
   inkscape:connector-curvature="0"
   style="fill:#7c9c14" />
	<path
   class="st4"
   d="m 77,21 c 0.3,0 0.8,0 1.2,0 0.4,0 0.1,-0.1 -0.5,-0.1 -0.8,0 -1,0 -0.7,0.1"
   id="path3814"
   inkscape:connector-curvature="0"
   style="fill:#7c9c14" />
	<path
   class="st4"
   d="m 70,21.5 c 0.3,0 0.8,0 1.2,0 0.4,0 0.1,-0.1 -0.5,-0.1 -0.8,0 -1,0 -0.7,0.1"
   id="path3816"
   inkscape:connector-curvature="0"
   style="fill:#7c9c14" />
	<path
   class="st4"
   d="m 19.7,21.8 c -0.1,0.2 -0.2,0.5 -0.1,0.6 0.1,0.2 0.1,0.2 0.1,-0.1 0,-0.2 0.1,-0.4 0.2,-0.5 0.1,-0.1 0.2,-0.2 0.1,-0.3 -0.1,-0.1 -0.2,0.1 -0.3,0.3"
   id="path3818"
   inkscape:connector-curvature="0"
   style="fill:#7c9c14" />
	<path
   class="st4"
   d="m 15.7,28.8 c 0.2,0 0.4,0 0.6,0 0.2,0 0,-0.1 -0.3,-0.1 -0.3,0 -0.5,0 -0.3,0.1"
   id="path3820"
   inkscape:connector-curvature="0"
   style="fill:#7c9c14" />
	<path
   class="st4"
   d="m 7.5,35.8 c 0.2,0 0.4,0 0.6,0 0.2,0 0,-0.1 -0.3,-0.1 -0.3,0 -0.4,0 -0.3,0.1"
   id="path3822"
   inkscape:connector-curvature="0"
   style="fill:#7c9c14" />
	<path
   class="st4"
   d="m 60.9,46.6 c 0.3,0 0.6,0 0.8,0 0.2,0 0,-0.1 -0.5,-0.1 -0.4,0 -0.6,0.1 -0.3,0.1"
   id="path3824"
   inkscape:connector-curvature="0"
   style="fill:#7c9c14" />
	<path
   class="st4"
   d="m 18.5,49.2 c 0,0.1 0.1,0.4 0.2,0.6 0.3,0.3 0.3,0.3 0.1,0 -0.1,-0.2 -0.2,-0.4 -0.2,-0.6 -0.1,-0.2 -0.1,-0.2 -0.1,0"
   id="path3826"
   inkscape:connector-curvature="0"
   style="fill:#7c9c14" />
</g>
</svg>