<svg xmlns="http://www.w3.org/2000/svg" viewBox="0 0 29 30.6" width="29" height="30.6"><path d="M19.1 12.8c-.6-.5-1.1-1.3-1.1-2.1 0-.3.1-.8.2-1.1 0-.2.1-.2.2-.3.9-.2 1.3-.2 1.4-.3.2-.4.3-.9.3-.9l-7-2.2s.4 1.1.7 1.2L17 8.5s-1.6.4-2.5.6l-.2.1s.3.6.9.9c.6-.2 1.7-.4 1.7-.4-1.5 3-4.7 5-8.1 5H7.6c-.4 0-.5.3-.2.5.6.3 1.1.9 1.3 1.5.1.4-.1.7-.4.9-.6.5-2.2 1.6-3.7 2.8-.2-.3-.4-.7-.5-1C2.7 16.3 2 11.9 2 6.1v-.2L14 2l12 3.9V6c0 2.1-.1 4.1-.3 5.8v.2h2v-.1c.2-1.8.3-3.7.3-5.8V4.5L14 0 0 4.5V6c0 6.1.7 10.7 2.2 14.1.2.5.5 1 .7 1.4-1.2.9-2.2 1.6-2.2 1.6l.6 1L9 18.6c4.1-2.8 9-4.3 14-4.3h2.4c-.3 1.9-.8 3.6-1.4 5-.7 1.6-1.6 3-2.8 4.4-.9 1.1-2 2-3.2 2.8-2 1.4-3.8 2-3.9 2.1-.2-.1-1.9-.7-3.9-2.1-1.3-.9-2.4-1.8-3.3-2.9-.3-.3-.6-.7-.9-1.1l-.1-.1-1.6 1.2.1.1c.4.5.7.9 1 1.3 1 1.2 2.2 2.2 3.5 3.1 2.2 1.5 4.1 2.2 4.4 2.3 0 0 .4.1.5.2h.2c.2 0 .5-.2.5-.2.4-.1 2.2-.8 4.4-2.3 1.3-.9 2.5-2 3.5-3.1 1.3-1.5 2.3-3.1 3.1-4.9.7-1.6 1.3-3.5 1.6-5.8h1.7c.1-.4.2-1.1.2-1.1h-6.2c-2.3-.1-3.1 0-3.7-.4z" fill="#007c97"></path></svg>