<svg xmlns="http://www.w3.org/2000/svg" viewBox="0 0 237.16 164.33"><defs><style>.cls-1{fill:#14697f;}</style></defs><title>资源 2</title><g id="图层_2" data-name="图层 2"><g id="图层_1-2" data-name="图层 1"><path class="cls-1" d="M93.49,1.11c20.43-3.2,40.07,1.05,59.65,6.16A66,66,0,0,0,164,9.07c3.18.29,3.84,1.85,3.48,4.65-.7,5.54-3.29,8.31-8.8,9.16-1.65.25-3.3.47-4.94.76-8.71,1.51-9.83,3.26-7.56,11.69a51.87,51.87,0,0,0,6.1,14.16c4.1,6.53,10,10.1,17.74,10.36q30.47,1,60.94,2a20.57,20.57,0,0,1,6.24,1c-5.21,2.63-10.35,4.93-16.26,5-22,.29-44.07.27-65.76,4.15-26.47,4.73-51.3,14-73.2,30.11q-36.61,27-72.3,55.14c-3,2.33-6.06,4.51-9.5,7.06-.7-7.39,1.21-12,7.2-16.34C27.91,133.13,45.81,115.11,64,97.51c5-4.86,3.76-10-3.05-12.73C56.2,82.86,51.16,81.65,46.3,80c-2.15-.74-4.4-1.44-6.2-3.35,1-1.17,2.18-.68,3.14-.52,15.21,2.57,29.41-1,43.25-7C100.83,63,113.79,54.59,126,45.05c6.67-5.19,8.19-12.17,6.32-20.15-.92-3.92-2.88-5.61-7.17-4.47C119.45,22,113.62,22.77,109,17.56a20.49,20.49,0,0,1-1.34-2c4-.89,7.66-1.61,11.27-2.53,2.07-.52,4.87-1,4.82-3.56-.06-2.92-2.93-3.93-5.39-4.35a103.4,103.4,0,0,0-15.94-1c-8-.12-16,1.31-23.81-1.34.32-2.08,2-1.18,3.06-1.26C85.59,1.21,89.56,1.88,93.49,1.11Z"/></g></g></svg>