<?xml version="1.0" encoding="UTF-8" standalone="no"?>
<!-- Generator: Adobe Illustrator 14.0.0, SVG Export Plug-In . SVG Version: 6.00 Build 43363)  -->

<svg
   xmlns:dc="http://purl.org/dc/elements/1.1/"
   xmlns:cc="http://creativecommons.org/ns#"
   xmlns:rdf="http://www.w3.org/1999/02/22-rdf-syntax-ns#"
   xmlns:svg="http://www.w3.org/2000/svg"
   xmlns="http://www.w3.org/2000/svg"
   xmlns:sodipodi="http://sodipodi.sourceforge.net/DTD/sodipodi-0.dtd"
   xmlns:inkscape="http://www.inkscape.org/namespaces/inkscape"
   version="1.1"
   id="Layer_1"
   x="0px"
   y="0px"
   width="304.92029"
   height="304.91922"
   viewBox="0 0 304.92029 304.91922"
   enable-background="new 0 0 612 792"
   xml:space="preserve"
   sodipodi:docname="digitalocean.svg"
   inkscape:version="0.92.3 (2405546, 2018-03-11)"><metadata
   id="metadata78"><rdf:RDF><cc:Work
       rdf:about=""><dc:format>image/svg+xml</dc:format><dc:type
         rdf:resource="http://purl.org/dc/dcmitype/StillImage" /><dc:title></dc:title></cc:Work></rdf:RDF></metadata><defs
   id="defs76" /><sodipodi:namedview
   pagecolor="#ffffff"
   bordercolor="#666666"
   borderopacity="1"
   objecttolerance="10"
   gridtolerance="10"
   guidetolerance="10"
   inkscape:pageopacity="0"
   inkscape:pageshadow="2"
   inkscape:window-width="1600"
   inkscape:window-height="848"
   id="namedview74"
   showgrid="false"
   fit-margin-top="0"
   fit-margin-left="0"
   fit-margin-right="0"
   fit-margin-bottom="0"
   inkscape:zoom="0.2979798"
   inkscape:cx="152.482"
   inkscape:cy="76.932"
   inkscape:window-x="-8"
   inkscape:window-y="-8"
   inkscape:window-maximized="1"
   inkscape:current-layer="Layer_1" />
<g
   id="XMLID_229_"
   transform="translate(-153.518,-168.01278)">
	<g
   id="XMLID_690_">
		<g
   id="XMLID_691_">
			<g
   id="g68">
				<g
   id="XMLID_44_">
					<g
   id="XMLID_48_">
						<path
   id="XMLID_49_"
   d="m 306,472.932 v -59.125 c 62.583,0 111.163,-62.064 87.132,-127.932 -8.816,-24.203 -28.353,-43.739 -52.729,-52.556 -65.868,-23.858 -127.933,24.549 -127.933,87.132 v 0 h -58.952 c 0,-99.752 96.468,-177.549 201.062,-144.875 45.641,14.349 82.118,50.654 96.295,96.295 C 483.549,376.464 405.753,472.932 306,472.932 Z"
   inkscape:connector-curvature="0"
   style="fill:#0080ff" />
					</g>
					<polygon
   id="XMLID_47_"
   points="247.221,355.2 247.221,355.2 306.173,355.2 306.173,355.2 306.173,414.152 247.221,414.152 "
   style="fill:#0080ff" />
					<polygon
   id="XMLID_46_"
   points="202.099,459.274 202.099,414.152 247.221,414.152 247.221,459.274 202.099,459.274 "
   style="fill:#0080ff" />
					<path
   id="XMLID_45_"
   d="m 202.099,414.152 h -37.861 v 0 -37.861 0 h 37.861 v 0 z"
   inkscape:connector-curvature="0"
   style="fill:#0080ff" />
				</g>
			</g>
		</g>
	</g>
</g>
</svg>