<?xml version="1.0" encoding="utf-8"?>
<!-- Generator: Adobe Illustrator 14.0.0, SVG Export Plug-In . SVG Version: 6.00 Build 43363)  -->
<!DOCTYPE svg PUBLIC "-//W3C//DTD SVG 1.1//EN" "http://www.w3.org/Graphics/SVG/1.1/DTD/svg11.dtd">
<svg version="1.1" id="Layer_1" xmlns="http://www.w3.org/2000/svg" xmlns:xlink="http://www.w3.org/1999/xlink" x="0px" y="0px"
	 width="612px" height="792px" viewBox="0 0 612 792" enable-background="new 0 0 612 792" xml:space="preserve">
<g id="XMLID_229_">
	<g id="XMLID_690_">
		<g id="XMLID_691_">
			<g>
				<g id="XMLID_44_">
					<g id="XMLID_48_">
						<path id="XMLID_49_" fill="#0080FF" d="M306,472.932v-59.125c62.583,0,111.163-62.064,87.132-127.932
							c-8.816-24.203-28.353-43.739-52.729-52.556c-65.868-23.858-127.933,24.549-127.933,87.132l0,0h-58.952
							c0-99.752,96.468-177.549,201.062-144.875c45.641,14.349,82.118,50.654,96.295,96.295
							C483.549,376.464,405.753,472.932,306,472.932z"/>
					</g>
					<polygon id="XMLID_47_" fill="#0080FF" points="306.173,414.152 247.221,414.152 247.221,355.2 247.221,355.2 306.173,355.2 
						306.173,355.2 					"/>
					<polygon id="XMLID_46_" fill="#0080FF" points="247.221,459.274 202.099,459.274 202.099,459.274 202.099,414.152 
						247.221,414.152 					"/>
					<path id="XMLID_45_" fill="#0080FF" d="M202.099,414.152h-37.861l0,0v-37.861l0,0h37.861l0,0V414.152z"/>
				</g>
			</g>
		</g>
	</g>
</g>
</svg>
