<svg xmlns="http://www.w3.org/2000/svg" stroke-miterlimit="1.414" width="480" height="480" clip-rule="evenodd" fill-rule="evenodd" stroke-linejoin="round"><g clip-path="url(#prefix__prefix__a)"><circle cx="240" cy="240" r="240" fill="#1a5ec6"/><path d="M295.77 96.601c-7.908 0-15.815.416-23.306 2.08v77.408c-10.82-4.162-23.305-6.243-39.952-6.243-59.096 0-107.372 40.369-107.372 105.291 0 66.587 44.114 103.21 109.037 103.21 32.045 0 64.922-8.74 85.314-19.56V98.681c-7.907-1.664-16.23-2.08-23.721-2.08zm-62.426 240.545c-35.79 0-60.344-24.138-60.344-62.841 0-38.288 26.218-62.842 61.177-62.842 14.149 0 27.051 1.665 38.287 8.74v110.701c-12.485 4.577-25.386 6.658-39.12 6.242z" fill="#fff" fill-rule="nonzero"/></g></svg>