<svg width="117" height="33" xmlns="http://www.w3.org/2000/svg"><g fill="none"><path d="M0 22.93h6c5 0 9.43-2.92 9.43-8.34 0-6.13-4.52-8.43-9.93-8.43H0v16.77zM3.69 9.57h2.19c3.12 0 5.76 1.54 5.76 4.84 0 3.81-2.58 5.12-6 5.12H3.69V9.57zm12.59 7.6c0 3.68 2.84 6 6.39 6s6.4-2.37 6.4-6-2.84-6-6.4-6c-3.56 0-6.39 2.37-6.39 6m3.55 0a2.69 2.69 0 0 1 2.46-2.91h.38a2.69 2.69 0 0 1 2.84 2.91 2.7 2.7 0 0 1-2.84 2.92 2.69 2.69 0 0 1-2.84-2.92m20.74-4.49a5.76 5.76 0 0 0-4.1-1.54c-3.56 0-6.39 2.37-6.39 6s2.84 6 6.39 6a5.76 5.76 0 0 0 4.1-1.54l-2.35-2.47a2.27 2.27 0 0 1-1.73.88 2.69 2.69 0 0 1-2.84-2.92 2.69 2.69 0 0 1 2.84-2.91 2.19 2.19 0 0 1 1.73.88l2.35-2.46m12.13-1.14h-3.56v5.73c0 1.5-.28 2.94-2.13 2.94-1.85 0-1.84-1.73-1.84-3v-5.67h-3.56v6.3c0 3.08.66 5.45 4.27 5.45a3.72 3.72 0 0 0 3.36-1.85v1.56h3.46V11.39" fill="#005CB9"/><path fill="#000" d="M53.61 21.94h5.63v1.16h-5.63zm8.25 0h5.63v1.16h-5.63zm8.26 0h5.63v1.16h-5.63zm8.25 0H84v1.16h-5.63zm8.25 0h5.63v1.16h-5.63zm8.25 0h5.63v1.16h-5.63zm8.25 0h5.63v1.16h-5.63zm8.25 0H117v1.16h-5.63z"/><path d="M85.07 20.22c-.61-.61 5.56-5.54 7.42-5.29-.71 2.14-6.81 5.9-7.42 5.29m7.26 2.05a34.7 34.7 0 0 0 3.18-7.66c0-1.39-1.26-2.12-2.62-2.12-4.47 0-11.68 7.62-13.2 7.62-1.73 0 .92-3.65.92-5.08 0-.95-.85-1.93-1.53-1.93-1.32 0-5.49 4-8.22 4.88a6.14 6.14 0 0 0 .92-2.74c0-4.88-13.83-3-13.83-5.76 0-2.46 8.65-6.7 13.72-6.7.71 0 5.38.31 5.38 1.93 0 .61-1 .81-1 1.42 0 .61.51.71 1.12.71a1.65 1.65 0 0 0 1.52-1.83c0-4.14-3.6-5-6.5-5-7.49 0-16.36 6.5-16.36 9.45 0 3.86 12.6 3.15 12.6 6.61 0 4.16-13.51 7.92-13.51 8.94 0 1.02.72.92 1.53.92 5.49 0 19.91-9.15 21.13-10.37.1 2.13-.8 4.16-.8 5.07 0 .91.7 2.15 1.73 2.15s2.54-1.53 4.78-2.74c-.1.71.51 1.83 1.32 1.83 1.73 0 7-4.27 8-5a12.05 12.05 0 0 1-2.2 5 6.54 6.54 0 0 0-1.73-.22c-2.1 0-7.9 6.14-7.9 9 0 1.12.61 2.24 1.73 2.24 1.55 0 7.15-4.61 9.22-9.31.91.1 2.39.78 2.39.06s-1-1.2-1.78-1.4M83 30.46c-.36 0-.58-.16-.58-1 0-2.61 5.44-6.31 7.33-6.31-1.1 2.47-5.75 7.31-6.75 7.31m-1.76-23a1.27 1.27 0 1 1 2.54 0 1.27 1.27 0 0 1-2.54 0m17 9.85c-.71.92-2.54 3-2.54 3.86 0 .86.41 1.32 1 1.32 1.52 0 6.5-6 8.84-6 1.73 0-1.11 6.2 2.65 6.2 1.36 0 5.91-3 5.91-4.75 0-.31-.32-.84-.73-.84-.24 0-3.35 3.76-4.67 3.76-1.12 0 0-2.33 0-3.86 0-1.53-.25-2.95-1.83-2.95-2.13 0-5.19 2.74-5.89 3.15a2.71 2.71 0 0 0 .41-1.32 2.05 2.05 0 0 0-1.83-1.73c-.7 0-4.46 1.93-4.46 4.4 0 .61 2.23-1.55 3.14-1.24" fill="#000"/></g></svg>