<svg xmlns="http://www.w3.org/2000/svg" xmlns:xlink="http://www.w3.org/1999/xlink" width="1022" height="710.755"><defs><linearGradient x1=".087" y1=".879" x2=".74" y2=".159" id="prefix__a"><stop stop-color="#EAEAE9" offset="0%"/><stop stop-color="#EAEAE9" offset="100%"/></linearGradient><linearGradient x1=".74" y1=".159" x2=".087" y2=".879" id="prefix__b"><stop stop-color="#E45784" offset="0%"/><stop stop-color="#BF3C6B" offset="100%"/></linearGradient><linearGradient xlink:href="#prefix__a" id="prefix__d" x1="70.885" y1="714.417" x2="601.569" y2="129.049" gradientTransform="scale(1.22332 .81745)" gradientUnits="userSpaceOnUse"/><linearGradient xlink:href="#prefix__a" id="prefix__c" x1="70.885" y1="714.417" x2="601.569" y2="129.049" gradientTransform="scale(1.22332 .81745)" gradientUnits="userSpaceOnUse"/><linearGradient xlink:href="#prefix__b" id="prefix__f" x1="595.226" y1="127.688" x2="70.137" y2="706.884" gradientTransform="scale(1.23635 .80883)" gradientUnits="userSpaceOnUse"/><linearGradient xlink:href="#prefix__b" id="prefix__e" x1="595.226" y1="127.688" x2="70.137" y2="706.884" gradientTransform="scale(1.23635 .80883)" gradientUnits="userSpaceOnUse"/></defs><g fill="none" fill-rule="evenodd"><path d="M848.355 254.848c-10.99-4.86-22.814-8.162-34.54-11.094-6.912-1.729-9.4-4.977-10.535-11.612-15.316-89.655-62.36-157.716-144.978-201.03-29.683-15.56-61.675-24.378-95.078-28.45-3.955-.48-7.806-1.755-11.706-2.662h-37.39C508.048 1.181 502 2.52 495.891 3.517c-108.65 17.745-182.516 77.067-221.93 177.345-2.559 6.51-5.055 9.733-13.13 9.25C130.71 182.319 21.845 269.1 2.453 395.68 1.86 399.539.827 403.333 0 407.158v40.168c1.991 9.766 3.904 19.545 5.988 29.291 20.786 97.116 105.581 173.506 206.234 185.78 56.416 6.88 109.452-5.49 160.698-27.406 3.367-1.44 6.33-4.851 8.368-8.026 67.184-104.71 161.907-172.36 285.763-198.2 110.588-23.073 215.874-6.72 314.317 48.554 3.472 1.948 6.988 3.826 12.227 6.69 0-12.754 1.327-24.253-.21-35.376-12.45-90.079-59.416-155.914-145.03-193.785z" fill="url(#prefix__d)" transform="translate(27.873 23.227)"/><path d="M848.355 249.501c-10.99-4.758-22.814-7.99-34.54-10.86-6.912-1.693-9.4-4.873-10.535-11.37-15.316-87.773-62.36-154.406-144.978-196.812-29.683-15.233-61.675-23.867-95.078-27.853-3.955-.47-7.806-1.718-11.706-2.606h-37.39C508.048 1.157 502 2.467 495.891 3.443c-108.65 17.373-182.516 75.45-221.93 173.625-2.559 6.372-5.055 9.529-13.13 9.055C130.71 178.494 21.845 263.455 2.453 387.38 1.86 391.157.827 394.87 0 398.616v39.325c1.991 9.562 3.904 19.136 5.988 28.677C26.774 561.696 111.57 636.484 212.222 648.5c56.416 6.735 109.452-5.375 160.698-26.83 3.367-1.41 6.33-4.75 8.368-7.859C448.472 511.3 543.195 445.068 667.051 419.77c110.588-22.588 215.874-6.578 314.317 47.536 3.472 1.907 6.988 3.747 12.227 6.55 0-12.486 1.327-23.744-.21-34.634-12.45-88.189-59.416-152.643-145.03-189.72z" fill="url(#prefix__f)"/><path d="M373.56 187.108c-1.46 8.142-7.245 12.647-14.84 12.647-4.557 0-8.062-1.502-10.75-4.158-4.031-4.043-4.206-8.143-4.206-16.747s.175-12.704 4.206-16.747c2.688-2.656 6.193-4.158 10.75-4.158 7.654 0 13.38 4.505 14.84 12.647h-6.427c-.935-4.215-3.797-7.103-8.413-7.103-2.512 0-4.615.924-6.134 2.541-2.104 2.194-2.513 4.678-2.513 12.82s.41 10.626 2.513 12.82c1.519 1.617 3.622 2.54 6.134 2.54 4.616 0 7.537-2.887 8.53-7.102zm37.917 12.3h-6.31v-17.96h-16.884v17.96h-6.31v-41.116h6.31v17.555h16.884v-17.555h6.31zm37.45 0h-26.583v-41.116h26.583v5.601h-20.273v12.012h17.293v5.544h-17.293v12.358h20.273zm36.924-12.3c-1.46 8.142-7.245 12.647-14.84 12.647-4.557 0-8.062-1.502-10.75-4.158-4.031-4.043-4.207-8.143-4.207-16.747s.176-12.704 4.207-16.747c2.688-2.656 6.193-4.158 10.75-4.158 7.654 0 13.38 4.505 14.84 12.647h-6.427c-.935-4.215-3.797-7.103-8.413-7.103-2.512 0-4.615.924-6.134 2.541-2.104 2.194-2.513 4.678-2.513 12.82s.41 10.626 2.513 12.82c1.519 1.617 3.622 2.54 6.134 2.54 4.616 0 7.537-2.887 8.53-7.102zm40.838 12.3h-7.42l-11.685-20.27-7.01 8.316v11.954h-6.31v-41.116h6.31v20.673l17-20.673h7.713l-13.496 16.111zm49.135-28.643c0 7.161-5.2 12.416-13.321 12.416h-9.465v16.227h-6.31v-41.116h15.775c8.12 0 13.32 5.313 13.32 12.473zm-6.31 0c0-4.388-2.921-6.872-7.362-6.872h-9.114v13.744h9.114c4.44 0 7.362-2.54 7.362-6.872zm42.357 8.085c0 8.604-.117 12.704-4.206 16.747-2.688 2.656-6.193 4.158-10.75 4.158s-8.063-1.502-10.75-4.158c-4.09-4.043-4.207-8.143-4.207-16.747s.117-12.704 4.207-16.747c2.687-2.656 6.193-4.158 10.75-4.158s8.062 1.502 10.75 4.158c4.09 4.043 4.206 8.143 4.206 16.747zm-6.31 0c0-8.142-.35-10.683-2.453-12.82-1.578-1.617-3.681-2.54-6.193-2.54-2.513 0-4.616.923-6.193 2.54-2.045 2.194-2.454 4.678-2.454 12.82s.409 10.568 2.454 12.762c1.577 1.617 3.68 2.599 6.193 2.599 2.512 0 4.615-.982 6.193-2.599 2.103-2.136 2.453-4.62 2.453-12.762zm21.968 20.558h-6.31v-41.116h6.31zm42.182 0h-5.784l-19.221-28.931v28.931h-6.31v-41.116h5.784l19.221 28.874v-28.874h6.31zm36.398-35.515h-11.451v35.515h-6.31v-35.515h-11.45v-5.601h29.211zM222 341.11c-.176 9.954-3.34 18.747-9.491 24.056-4.922 4.148-11.074 6.47-19.335 6.47-9.843 0-16.698-3.484-21.443-8.627-8.261-8.959-9.14-19.08-9.14-51.764 0-32.684.879-42.804 9.14-51.763 4.746-5.143 11.6-8.627 21.443-8.627 8.789 0 14.94 2.488 19.862 6.968 5.8 5.309 8.788 13.77 8.964 23.393h-14.94c-.176-4.977-1.055-9.955-4.043-13.439-1.933-2.322-5.097-4.147-9.843-4.147-4.921 0-8.26 1.825-10.37 4.48-4.394 5.64-5.097 15.097-5.097 43.135 0 28.04.703 37.496 5.097 43.137 2.11 2.654 5.449 4.48 10.37 4.48 4.746 0 7.91-1.826 9.843-4.148 2.813-3.484 3.867-8.628 4.043-13.605zm43.766 29.2c-7.734 0-14.237-.996-19.686-5.31-4.921-3.816-8.085-9.789-8.085-19.245v-93.573h14.237v93.075c0 8.461 4.218 12.94 13.534 12.94zm61.87-42.971c0 17.42-.879 29.531-6.503 36.334-4.57 5.807-11.25 7.963-19.335 7.963s-14.588-2.156-19.158-7.963c-5.625-6.803-6.68-18.914-6.68-36.334s1.055-29.532 6.68-36.334c4.57-5.807 11.073-7.964 19.158-7.964 8.086 0 14.765 2.157 19.335 7.964 5.624 6.802 6.503 18.913 6.503 36.334zm-14.237 0c0-15.43-.176-24.223-3.515-28.537-1.758-2.322-4.746-3.65-8.086-3.65s-6.152 1.328-7.91 3.65c-3.339 4.314-3.69 13.107-3.69 28.537s.351 24.222 3.69 28.536c1.758 2.323 4.57 3.65 7.91 3.65s6.328-1.327 8.086-3.65c3.34-4.314 3.515-13.107 3.515-28.536zm80.853 42.97h-13.71v-6.636c-1.23 1.99-3.691 4.147-5.625 5.309-2.812 1.659-6.151 2.654-9.843 2.654-6.855 0-11.6-2.156-15.467-6.304-3.691-3.816-5.449-8.462-5.449-17.752v-63.212h14.237v63.212c0 7.963 4.922 11.945 10.898 11.945s10.722-3.982 10.722-11.945v-63.212h14.237zm68.021 0h-13.885v-6.636c-.879 1.659-3.867 4.48-5.449 5.309-2.988 1.659-6.327 2.654-9.843 2.654-6.327 0-11.073-1.99-15.116-6.47-5.8-6.305-6.679-17.918-6.679-37.827 0-19.91.879-31.523 6.68-37.994 3.69-4.147 8.436-6.304 15.115-6.304 3.691 0 6.855.83 9.843 2.489 1.758.995 3.691 2.986 5.097 4.81v-38.158h14.238zm-14.237-23.393v-39.32c0-4.646-1.23-7.632-3.515-9.79-1.933-1.824-4.394-2.654-7.382-2.654-3.34 0-5.976 1.328-7.734 3.484-3.164 3.65-3.691 10.95-3.691 28.703 0 17.752.527 25.052 3.691 28.702 1.758 2.157 4.394 3.484 7.734 3.484 2.988 0 5.449-.83 7.382-2.655 2.285-2.156 3.515-5.309 3.515-9.954zm92.102-4.977c-.176 19.743-12.655 29.697-29.001 29.697-9.843 0-16.698-3.65-21.444-8.627-8.085-8.461-9.14-19.08-9.14-51.764 0-32.684 1.055-43.302 9.14-51.763 4.746-4.977 11.6-8.627 21.444-8.627 8.788 0 15.467 2.82 20.213 7.3 5.8 5.475 8.437 13.77 8.612 23.227h-14.94c-.175-7.964-2.285-17.752-13.885-17.752-4.922 0-8.261 1.825-10.37 4.48-4.395 5.64-5.098 15.097-5.098 43.135 0 28.04.703 37.496 5.097 43.137 2.11 2.654 5.45 4.48 10.37 4.48 8.789 0 13.886-6.803 13.886-16.426v-23.725h-13.885v-11.78h29.001zm67.846 28.37h-13.71v-6.636c-1.23 1.99-3.69 4.147-5.624 5.309-2.812 1.659-6.152 2.654-9.843 2.654-6.855 0-11.6-2.156-15.468-6.304-3.69-3.816-5.448-8.462-5.448-17.752v-63.212h14.237v63.212c0 7.963 4.921 11.945 10.897 11.945s10.722-3.982 10.722-11.945v-63.212h14.237zm66.616 0h-13.534v-7.632c-1.406 2.323-3.515 4.48-5.273 5.807-2.812 1.991-5.8 3.152-10.722 3.152-6.679 0-11.425-1.99-15.643-6.47-3.515-3.816-5.8-10.286-5.8-19.246 0-7.963 2.812-14.931 8.085-19.41 4.57-3.817 9.843-5.808 19.334-5.808h9.316v-13.604c0-7.964-3.691-12.278-10.722-12.278-3.164 0-5.273 1.162-7.03 2.82-2.461 2.49-3.34 5.31-3.34 9.955h-14.237c0-6.636 1.582-13.106 7.03-18.25 4.043-3.815 10.546-6.304 17.577-6.304 7.382 0 13.534 1.99 17.753 5.973 4.394 4.313 7.206 10.12 7.206 18.913zm-14.237-23.89V330.49h-8.085c-4.395 0-7.383.664-10.195 3.152-2.636 2.323-4.218 7.134-4.218 11.78 0 8.959 3.69 14.434 11.073 14.434 6.855 0 11.425-5.475 11.425-13.439zm68.549-50.437h-4.218c-9.668 0-16.523 5.973-16.523 15.761v58.566h-14.237v-85.94h13.71v9.124c1.406-2.323 4.043-4.645 6.328-6.138 4.218-2.82 9.14-4.314 14.94-4.314zm60.815 74.327h-13.885v-6.636c-.88 1.659-3.867 4.48-5.45 5.309-2.987 1.659-6.327 2.654-9.842 2.654-6.328 0-11.073-1.99-15.116-6.47-5.8-6.305-6.68-17.918-6.68-37.827 0-19.91.88-31.523 6.68-37.994 3.691-4.147 8.437-6.304 15.116-6.304 3.691 0 6.855.83 9.843 2.489 1.758.995 3.691 2.986 5.097 4.81v-38.158h14.237zm-14.237-23.393v-39.32c0-4.646-1.23-7.632-3.515-9.79-1.934-1.824-4.394-2.654-7.382-2.654-3.34 0-5.976 1.328-7.734 3.484-3.164 3.65-3.691 10.95-3.691 28.703 0 17.752.527 25.052 3.69 28.702 1.759 2.157 4.395 3.484 7.735 3.484 2.988 0 5.448-.83 7.382-2.655 2.285-2.156 3.515-5.309 3.515-9.954zM552.81 709.407V549.511h33.565c13.041 0 22.933 3.593 29.676 10.78 6.743 7.186 10.115 17.366 10.115 30.542v74.782c0 14.972-3.594 26.013-10.782 33.125-7.187 7.111-17.524 10.667-31.01 10.667zm22.673-138.337v116.778h10.448c6.372 0 10.892-1.61 13.56-4.828 2.667-3.22 4-8.272 4-15.159v-77.028c0-6.289-1.259-11.154-3.778-14.598-2.52-3.443-7.114-5.165-13.782-5.165zm68.688 62.656c0-4.641.297-8.908.89-12.8.592-3.893 1.704-7.337 3.334-10.331 2.667-4.94 6.483-8.908 11.448-11.902 4.964-2.995 11.003-4.492 18.117-4.492 7.113 0 13.152 1.497 18.116 4.492 4.965 2.994 8.781 6.961 11.448 11.902 1.63 2.994 2.742 6.438 3.335 10.33.593 3.893.89 8.16.89 12.801v37.504c0 4.64-.297 8.908-.89 12.8-.593 3.893-1.704 7.336-3.335 10.33-2.667 4.941-6.483 8.909-11.448 11.903-4.964 2.994-11.003 4.492-18.116 4.492-7.114 0-13.153-1.498-18.117-4.492-4.965-2.994-8.78-6.962-11.448-11.902-1.63-2.995-2.742-6.438-3.335-10.33-.592-3.893-.889-8.16-.889-12.801zm22.674 41.097c0 4.342 1 7.598 3.001 9.769 2 2.17 4.705 3.256 8.114 3.256 3.408 0 6.113-1.085 8.113-3.256 2-2.171 3.001-5.427 3.001-9.77v-44.69c0-4.341-1-7.597-3-9.768-2.001-2.171-4.706-3.256-8.114-3.256-3.409 0-6.113 1.085-8.114 3.256-2 2.17-3.001 5.427-3.001 9.769zm61.575 34.584V595.55h22.674v11.004h.444c2.371-3.594 5.224-6.55 8.559-8.871 3.334-2.32 7.595-3.48 12.781-3.48 4.89 0 8.966 1.197 12.226 3.592 3.26 2.396 5.928 5.016 8.003 7.86 2.816-3.144 5.928-5.839 9.336-8.084 3.409-2.246 8.151-3.369 14.227-3.369 2.816 0 5.705.487 8.67 1.46 2.963.973 5.63 2.582 8.002 4.828 2.371 2.246 4.298 5.128 5.78 8.646 1.481 3.519 2.222 7.823 2.222 12.913v87.36h-22.673v-78.826c0-4.192-.964-7.486-2.89-9.881-1.927-2.396-4.668-3.593-8.225-3.593-4.298 0-7.262 1.347-8.892 4.042s-2.445 6.587-2.445 11.678v76.58h-22.674v-78.826c0-4.192-.963-7.486-2.89-9.881-1.926-2.396-4.668-3.593-8.224-3.593-4.298 0-7.262 1.347-8.892 4.042s-2.445 6.587-2.445 11.678v76.58zm197.173-48.283H880.69v15.495c0 3.594 1 6.363 3.001 8.31 2 1.946 4.705 2.92 8.114 2.92 4.297 0 7.15-1.273 8.558-3.819 1.408-2.545 2.26-5.09 2.556-7.635h22.674c0 10.03-3.038 18.115-9.114 24.254-2.964 3.144-6.52 5.614-10.67 7.41-4.15 1.797-8.817 2.696-14.004 2.696-7.114 0-13.152-1.498-18.117-4.492-4.965-2.994-8.78-6.962-11.448-11.902-1.63-2.995-2.742-6.438-3.334-10.33-.593-3.893-.89-8.16-.89-12.801v-37.504c0-4.641.297-8.908.89-12.8.592-3.893 1.704-7.337 3.334-10.331 2.667-4.94 6.483-8.908 11.448-11.902 4.965-2.995 11.003-4.492 18.117-4.492 5.187 0 9.892.898 14.115 2.695 4.224 1.797 7.818 4.267 10.782 7.41 5.927 6.738 8.891 15.197 8.891 25.378zm-44.903-17.966h22.23v-13.025c0-4.342-1-7.598-3.002-9.77-2-2.17-4.705-3.255-8.113-3.255-3.409 0-6.113 1.085-8.114 3.256-2 2.17-3 5.427-3 9.769zm68.022 66.25l25.786-67.148-.445-.45c-.741.6-1.89 1.086-3.446 1.46-1.556.375-3.593.562-6.113.562-4 0-7.706-.973-11.114-2.92-3.409-1.946-6.076-4.416-8.003-7.41a19.697 19.697 0 0 1-2.445-4.829c-.593-1.722-1.037-3.93-1.334-6.625-.444-2.695-.74-6.1-.889-10.218-.148-4.117-.222-9.32-.222-15.608 0-5.24.074-9.544.222-12.913.148-3.368.445-6.25.89-8.646.296-2.245.777-4.192 1.444-5.839.667-1.647 1.52-3.368 2.557-5.165 2.963-4.94 6.928-8.758 11.892-11.453 4.965-2.695 10.559-4.042 16.783-4.042 6.224 0 11.782 1.384 16.672 4.154 4.89 2.77 8.818 6.55 11.782 11.341a57.81 57.81 0 0 1 2.667 5.165c.741 1.647 1.334 3.594 1.779 5.84.296 2.395.518 5.277.666 8.645.149 3.369.223 7.673.223 12.913 0 4.94-.074 9.02-.223 12.24-.148 3.218-.37 5.95-.666 8.196-.445 2.396-.927 4.53-1.445 6.4a90.224 90.224 0 0 1-1.89 5.952l-29.787 80.397zm14.449-97.241c0 3.443 1.111 6.213 3.334 8.31 2.223 2.095 4.816 3.143 7.78 3.143 2.964 0 5.558-1.048 7.78-3.144 2.223-2.096 3.335-4.866 3.335-8.309v-29.644c0-3.443-1.112-6.213-3.335-8.309-2.222-2.096-4.816-3.144-7.78-3.144-2.964 0-5.557 1.048-7.78 3.144s-3.334 4.866-3.334 8.31z" fill="#000"/></g></svg>