<svg xmlns="http://www.w3.org/2000/svg" version="1.1" id="prefix__svg15" width="40" height="40"><defs id="prefix__defs4"><style id="style2">.prefix__cls-2{fill:#fff}</style></defs><g id="prefix__g13"><g id="prefix__Layer_1" data-name="Layer 1"><rect width="40" height="40" rx="6.39" id="prefix__rect6" x="0" y="0" fill="#2ea238"/><path class="prefix__cls-2" d="M15.41 32.49c-5.48 0-8.58-3.42-8.58-9 0-5.38 2.87-9.09 8.18-9.09a10.1 10.1 0 0 1 2.84.42V6.55h3.58v24.7a13.77 13.77 0 0 1-6.02 1.24zm2.44-15a8.08 8.08 0 0 0-2.51-.39c-3.23 0-4.92 2.68-4.92 6.36 0 3.84 1.73 6.16 4.92 6.16a6.67 6.67 0 0 0 2.51-.46z" id="prefix__path8" fill="#fff"/><path class="prefix__cls-2" d="M33.91 17.31a7.48 7.48 0 0 0-1.79-.2 7.57 7.57 0 0 0-2.77.46v14.56H25.8V15.45a18.41 18.41 0 0 1 6.81-1.24 11.28 11.28 0 0 1 2 .13z" id="prefix__path10" fill="#fff"/></g></g></svg>