<?xml version="1.0" encoding="iso-8859-1"?>
<!-- Generator: Adobe Illustrator 19.0.0, SVG Export Plug-In . SVG Version: 6.00 Build 0)  -->
<svg version="1.1" id="Layer_1" xmlns="http://www.w3.org/2000/svg" xmlns:xlink="http://www.w3.org/1999/xlink" x="0px" y="0px"
	 viewBox="0 0 291.319 291.319" style="enable-background:new 0 0 291.319 291.319;" xml:space="preserve">
<g>
	<path style="fill:#3D9AE8;" d="M145.659,0c80.44,0,145.66,65.219,145.66,145.66c0,80.45-65.219,145.659-145.66,145.659
		S0,226.109,0,145.66C0,65.219,65.219,0,145.659,0z"/>
	<path style="fill:#FFFFFF;" d="M54.631,154.672l53.557,33.729l37.48-30.161l-54.003-32.173L54.631,154.672z M108.179,63.717
		l-53.548,33.72l37.034,28.631l54.003-32.173C145.669,93.896,108.179,63.717,108.179,63.717z M236.697,97.437l-53.557-33.72
		l-37.48,30.17l54.003,32.173C199.663,126.059,236.697,97.437,236.697,97.437z M145.66,158.241l37.48,30.161l53.557-33.729
		l-37.034-28.613C199.663,126.059,145.659,158.241,145.66,158.241z M145.623,181.983l-38.254,26.401l-16.368-8.913v19.09
		l54.622,27.238l54.613-27.238v-19.09l-16.368,8.913L145.623,181.983z"/>
</g>
<g>
</g>
<g>
</g>
<g>
</g>
<g>
</g>
<g>
</g>
<g>
</g>
<g>
</g>
<g>
</g>
<g>
</g>
<g>
</g>
<g>
</g>
<g>
</g>
<g>
</g>
<g>
</g>
<g>
</g>
</svg>
