<svg xmlns="http://www.w3.org/2000/svg" viewBox="0 0 291.319 291.319"><path d="M145.659 0c80.44 0 145.66 65.219 145.66 145.66 0 80.45-65.219 145.659-145.66 145.659S0 226.109 0 145.66C0 65.219 65.219 0 145.659 0z" fill="#3d9ae8"></path><path d="M54.631 154.672l53.557 33.729 37.48-30.161-54.003-32.173-37.034 28.605zm53.548-90.955l-53.548 33.72 37.034 28.631 54.003-32.173-37.489-30.178zm128.518 33.72l-53.557-33.72-37.48 30.17 54.003 32.173 37.034-28.623zm-91.037 60.804l37.48 30.161 53.557-33.729-37.034-28.613-54.003 32.181zm-.037 23.742l-38.254 26.401-16.368-8.913v19.09l54.622 27.238 54.613-27.238v-19.09l-16.368 8.913-38.245-26.401z" fill="#fff"></path></svg>