<svg xmlns="http://www.w3.org/2000/svg" width="1000" height="1000" viewBox="0 0 1000 1000"><path fill-rule="evenodd" clip-rule="evenodd" d="M500.006 1C224.852 1 1 224.855 1 500.014s223.852 499.011 499.006 499.011c275.156 0 499.007-223.852 499.007-499.011C999.014 224.855 775.162 1 500.006 1zm0 933.393c-239.516 0-434.374-194.862-434.374-434.379 0-239.52 194.858-434.381 434.374-434.381 239.513 0 434.375 194.862 434.375 434.381 0 239.516-194.861 434.379-434.375 434.379zm169.533-579.932h3.938v-19.076h7.098v-3.368h-18.117v3.368h7.082v19.076zm17.318-17.342h.072l6.225 17.342h3.207l6.223-17.342h.088v17.342h3.699v-22.443h-5.436l-6.016 17.554h-.104l-6.162-17.554h-5.525v22.443h3.729v-17.342zm-113.33-5.12H328.041l-37.247 59.858h245.204l37.529-59.858zm50.168.571L473.624 571.533H307.16l38.405-59.909h99.771l38.112-59.88H252.794l-38.104 59.88h54.641l-75.812 119.611h316.389l116.86-184.295 42.609 64.684h-38.42l-36.385 59.909h113.773l39.506 59.702h72.576L623.695 332.57z"></path></svg>