<svg xmlns="http://www.w3.org/2000/svg" width="121.774" height="35.663"><g clip-path="url(#prefix__clip0)" transform="translate(0 -.014)"><path d="M0 18.104h37.244v-6.342H0zm0-9.566h6.732V6.362h30.512V.014H0zM6.732 21.3H0v8.547h37.244v-6.344H6.732v-2.203zm84.525 0h-6.73v8.547h37.242v-6.344H91.254c.003-.594.003-2.203.003-2.203zm-30.364 1.523C60.094 21.44 47.721.014 47.721.014H40.4l20.494 35.664L81.373.014h-7.328L60.893 22.821zM84.531.014v8.524h6.729V6.362h30.514V.014zm0 18.09h37.241v-6.342H84.531z"/></g><defs id="prefix__defs9"><clipPath id="prefix__clip0"><path id="prefix__rect6" fill="#fff" d="M0 0h130v50.039H0z"/></clipPath></defs></svg>