<svg xmlns="http://www.w3.org/2000/svg" viewBox="0 0 512.002 512.002"><g fill="#8dc63f"><path d="M460.755 92.904c0-32.759-48.689-36.489-48.689-36.489l-114.32-7.345s-2.374-31.626-25.533-42.585C259.226.271 218.9-.406 181.056.16c-8.701.111-15.703 7.226-15.703 15.927v72.747c0 11.861-9.6 21.463-21.463 21.463H74.864c-18.07 0-32.193 7.006-32.193 21.917s21.236 174.87 50.606 204.124c16.944 16.947 120.76 30.051 142.677 30.051s14.57-65.072 20.673-65.072c6.096 0 12.764 37.397 47.22 46.095 34.451 8.695 80.427 7.228 82.801 32.193 3.164 32.872 6.1 75.462-15.251 78.397l-48.126 2.031c-14.23 0-12.537-39.086-9.6-39.086 4.861 0 8.922-.109 12.199-.109 5.424-.113 9.83-4.516 10.054-9.943l.906-20.333c.224-5.871-4.407-10.842-10.279-10.842-21.014-.341-65.637 3.838-68.004 43.378-2.941 47.445 5.084 69.702 10.957 74.556 5.869 4.861 16.043 14.348 108.559 14.348 130.588-.002 82.692-386.339 82.692-419.098zm-63.377 157.583c-3.273 3.05-17.396-8.924-28.576-8.924-11.187 0-20.787 9.148-23.723 5.651-2.826-3.393 2.596-31.183 23.723-31.183 21.119 0 31.852 31.405 28.576 34.456z"></path><path d="M125.588 13.377l-57.16 58.74c-4.519 4.63-1.244 12.31 5.193 12.31h57.163a7.205 7.205 0 0 0 7.233-7.226V18.459c.104-6.552-7.799-9.829-12.429-5.082z"></path></g></svg>