<?xml version="1.0" encoding="iso-8859-1"?>
<!-- Generator: Adobe Illustrator 19.0.0, SVG Export Plug-In . SVG Version: 6.00 Build 0)  -->
<svg version="1.1" id="Layer_1" xmlns="http://www.w3.org/2000/svg" xmlns:xlink="http://www.w3.org/1999/xlink" x="0px" y="0px"
	 viewBox="0 0 512.002 512.002" style="enable-background:new 0 0 512.002 512.002;" xml:space="preserve">
<g>
	<path style="fill:#8DC63F;" d="M460.755,92.904c0-32.759-48.689-36.489-48.689-36.489L297.746,49.07
		c0,0-2.374-31.626-25.533-42.585C259.226,0.271,218.9-0.406,181.056,0.16c-8.701,0.111-15.703,7.226-15.703,15.927v72.747
		c0,11.861-9.6,21.463-21.463,21.463H74.864c-18.07,0-32.193,7.006-32.193,21.917s21.236,174.87,50.606,204.124
		c16.944,16.947,120.76,30.051,142.677,30.051s14.57-65.072,20.673-65.072c6.096,0,12.764,37.397,47.22,46.095
		c34.451,8.695,80.427,7.228,82.801,32.193c3.164,32.872,6.1,75.462-15.251,78.397l-48.126,2.031c-14.23,0-12.537-39.086-9.6-39.086
		c4.861,0,8.922-0.109,12.199-0.109c5.424-0.113,9.83-4.516,10.054-9.943l0.906-20.333c0.224-5.871-4.407-10.842-10.279-10.842
		c-21.014-0.341-65.637,3.838-68.004,43.378c-2.941,47.445,5.084,69.702,10.957,74.556c5.869,4.861,16.043,14.348,108.559,14.348
		C508.651,512,460.755,125.663,460.755,92.904L460.755,92.904z M397.378,250.487c-3.273,3.05-17.396-8.924-28.576-8.924
		c-11.187,0-20.787,9.148-23.723,5.651c-2.826-3.393,2.596-31.183,23.723-31.183C389.921,216.031,400.654,247.436,397.378,250.487
		L397.378,250.487z"/>
	<path style="fill:#8DC63F;" d="M125.588,13.377l-57.16,58.74c-4.519,4.63-1.244,12.31,5.193,12.31h57.163
		c4.07,0,7.233-3.273,7.233-7.226V18.459C138.121,11.907,130.218,8.63,125.588,13.377L125.588,13.377z"/>
</g>
<g>
</g>
<g>
</g>
<g>
</g>
<g>
</g>
<g>
</g>
<g>
</g>
<g>
</g>
<g>
</g>
<g>
</g>
<g>
</g>
<g>
</g>
<g>
</g>
<g>
</g>
<g>
</g>
<g>
</g>
</svg>
