<svg xmlns="http://www.w3.org/2000/svg" width="137.11" height="160.578" viewBox="0 0 102.856 120.612"><title>Evernote_Lockup_Primary_RGB</title><path fill="none" d="M-51.646-51.27h649.92v223.16h-649.92z"></path><path d="M31.924 26.98a6.71 6.71 0 0 1-1.32 4.5c-1.3 1.21-3.33 1.31-4.5 1.31h-12.8a67 67 0 0 0-7.4.2 10.49 10.49 0 0 0-2.3.7c-.15.06-.2 0-.1-.1l29.22-29.7c.1-.1.16-.06.1.1a10.49 10.49 0 0 0-.7 2.3 67 67 0 0 0-.2 7.4zm27.15 89.81a15.24 15.24 0 0 1-5.89-6.9 15.08 15.08 0 0 1 14.14-20.63 4.48 4.48 0 0 1 4.47 4.53 4.56 4.56 0 0 1-2.33 3.93 5.62 5.62 0 0 1-1.7.58 7.25 7.25 0 0 0-3.29 1.08 4.45 4.45 0 0 0-1.78 3.51 5.52 5.52 0 0 0 1.6 3.9 9.52 9.52 0 0 0 6.8 2.8 12.29 12.29 0 0 0 12.3-12.3c0-6.1-4.1-11.5-9.5-13.9a18.65 18.65 0 0 0-3.3-1c-1.5-.3-2.9-.5-3-.5-4.2-.5-14.7-3.8-15.4-13.1 0 0-3.1 14-9.3 17.8a10.22 10.22 0 0 1-2.3.8 13.44 13.44 0 0 1-2.2.3c-10.1.6-20.8-2.6-28.2-10.2 0 0-5-4.1-7.6-15.6-.6-2.8-1.8-7.8-2.5-12.5-.3-1.7-.4-3-.5-4.2 0-4.85 3-8.2 6.75-8.67h20.38c3.5 0 5.5-.9 6.8-2.1 1.7-1.6 2.1-3.9 2.1-6.6V7.34v-.59c.47-3.74 3.82-6.75 8.67-6.75h2.4a23.83 23.83 0 0 1 3.31.25 23.42 23.42 0 0 1 2.69.55c6.1 1.52 7.4 7.7 7.4 7.7l17.3 3c5.5 1 19.1 1.9 21.7 15.6 6.1 32.6 2.4 64.2 2.1 64.2-4.3 30.8-29.9 29.3-29.9 29.3a22.22 22.22 0 0 1-12.22-3.81zm23.05-65.57c-3.31-.34-6.12 1-7.15 3.52a2.6 2.6 0 0 0-.28 1.4.81.81 0 0 0 .51.49 22.59 22.59 0 0 0 6.12 1.23c2.89.35 4.92.54 6.23.26a.81.81 0 0 0 .61-.36 2.5 2.5 0 0 0 .06-1.43c-.43-2.68-2.81-4.62-6.1-5.07z" fill="#00a82d"></path></svg>