<svg xmlns="http://www.w3.org/2000/svg" viewBox="0 0 320.7 512.001" width="320.7" height="512.001"><path d="M248.224 215.456V87.873C248.224 39.342 208.883 0 160.351 0 111.82 0 72.478 39.342 72.478 87.873v127.584h36.367V85.924c0-28.446 23.06-51.506 51.506-51.506s51.506 23.06 51.506 51.506v129.532z" fill="#3494d0"></path><circle cx="160.35" cy="351.65" r="160.35" fill="#ebebec"></circle><path d="M320.694 351.648c0 88.561-71.782 160.353-160.343 160.353-9.778 0-19.35-.878-28.653-2.561 74.89-13.506 131.7-79.01 131.7-157.793 0-78.772-56.81-144.277-131.7-157.782a160.82 160.82 0 0 1 28.653-2.561c88.562.001 160.343 71.794 160.343 160.344z" fill="#d7d8d9"></path><path d="M143.642 363.369l-8.316 28.122c-.845 2.859 2.448 5.14 4.827 3.342l23.477-17.738c1.388-1.049 3.045-1.645 4.771-1.864 6.518-.827 12.647-4.489 16.385-10.635 5.861-9.636 3.51-22.422-5.394-29.345-10.264-7.98-24.974-5.621-32.275 4.923-3.761 5.431-4.792 11.937-3.398 17.899.409 1.752.433 3.571-.077 5.296z" fill="#3494d0"></path><path d="M184.781 364.596a22.39 22.39 0 0 1-16.376 10.635c-1.735.217-3.387.816-4.77 1.869l-23.477 17.731c-2.379 1.797-5.672-.484-4.826-3.343l5.164-17.454 18.493-13.97c1.384-1.053 3.036-1.652 4.77-1.869a22.393 22.393 0 0 0 16.376-10.635 22.12 22.12 0 0 0 3.026-8.56c5.679 7.197 6.545 17.512 1.62 25.596z" fill="#0e80ad"></path><path d="M160.351 263.462a7.737 7.737 0 0 1-7.737-7.737v-33.366a7.737 7.737 0 0 1 15.474 0v33.366a7.737 7.737 0 0 1-7.737 7.737zm0 230.761a7.737 7.737 0 0 1-7.737-7.737V453.12a7.737 7.737 0 0 1 15.474 0v33.366a7.737 7.737 0 0 1-7.737 7.737zm-49.342-217.536a7.733 7.733 0 0 1-6.707-3.87l-16.683-28.896a7.736 7.736 0 0 1 2.832-10.569 7.737 7.737 0 0 1 10.569 2.832l16.683 28.896a7.736 7.736 0 0 1-6.694 11.607zM226.39 476.532a7.733 7.733 0 0 1-6.707-3.87L203 443.766a7.737 7.737 0 0 1 13.401-7.737l16.683 28.896a7.736 7.736 0 0 1-6.694 11.607zM74.869 312.813a7.693 7.693 0 0 1-3.861-1.038l-28.896-16.684a7.737 7.737 0 0 1-2.832-10.569 7.736 7.736 0 0 1 10.569-2.832l28.896 16.684a7.737 7.737 0 0 1-3.876 14.439zm199.846 115.38a7.693 7.693 0 0 1-3.861-1.038l-28.896-16.683a7.736 7.736 0 0 1-2.832-10.569 7.736 7.736 0 0 1 10.569-2.832l28.896 16.683a7.736 7.736 0 0 1 2.832 10.569 7.738 7.738 0 0 1-6.708 3.87zM61.654 362.16H28.287a7.737 7.737 0 0 1 0-15.474h33.367a7.737 7.737 0 0 1 0 15.474zm230.761 0h-33.367a7.737 7.737 0 0 1 0-15.474h33.367a7.737 7.737 0 0 1 0 15.474zM45.988 428.193a7.733 7.733 0 0 1-6.707-3.87 7.736 7.736 0 0 1 2.832-10.569l28.896-16.683a7.737 7.737 0 0 1 7.737 13.401L49.85 427.155a7.702 7.702 0 0 1-3.862 1.038zm199.844-115.38a7.737 7.737 0 0 1-3.875-14.439l28.896-16.684a7.737 7.737 0 1 1 7.737 13.401l-28.896 16.684a7.704 7.704 0 0 1-3.862 1.038zM94.312 476.532a7.693 7.693 0 0 1-3.861-1.038 7.736 7.736 0 0 1-2.832-10.569l16.683-28.896a7.736 7.736 0 0 1 10.569-2.832 7.736 7.736 0 0 1 2.832 10.569l-16.683 28.896a7.735 7.735 0 0 1-6.708 3.87zm115.38-199.845a7.693 7.693 0 0 1-3.861-1.038 7.736 7.736 0 0 1-2.832-10.569l16.683-28.896a7.736 7.736 0 0 1 10.569-2.832 7.736 7.736 0 0 1 2.832 10.569L216.4 272.817a7.735 7.735 0 0 1-6.708 3.87z" fill="#f07b52"></path></svg>