<svg height="512pt" viewBox="0 0 512 512" width="512pt" xmlns="http://www.w3.org/2000/svg"><path d="m512 121v376c0 8.398438-6.597656 15-15 15h-361c-8.402344 0-15-6.601562-15-15v-482c0-8.402344 6.597656-15 15-15h256zm0 0" fill="#deecf1"/><path d="m512 121v376c0 8.398438-6.597656 15-15 15h-180v-512h75zm0 0" fill="#c6e2e7"/><g fill="#a8d3d8"><path d="m392 106v-106h15c3.984375 0 7.792969 1.582031 10.605469 4.394531l90 91c2.8125 2.8125 4.394531 6.621094 4.394531 10.605469v15h-105c-8.285156 0-15-6.714844-15-15zm0 0"/><path d="m362 106c0 8.398438-6.597656 15-15 15h-151c-8.402344 0-15-6.601562-15-15 0-8.402344 6.597656-15 15-15h151c8.402344 0 15 6.597656 15 15zm0 0"/><path d="m452 167c0 8.398438-6.597656 15-15 15h-241c-8.402344 0-15-6.601562-15-15 0-8.402344 6.597656-15 15-15h241c8.402344 0 15 6.597656 15 15zm0 0"/><path d="m452 227c0 8.398438-6.597656 15-15 15h-241c-8.402344 0-15-6.601562-15-15 0-8.402344 6.597656-15 15-15h241c8.402344 0 15 6.597656 15 15zm0 0"/></g><path d="m347 121h-30v-30h30c8.402344 0 15 6.597656 15 15 0 8.398438-6.597656 15-15 15zm0 0" fill="#8ebac5"/><path d="m452 227c0 8.398438-6.597656 15-15 15h-120v-30h120c8.402344 0 15 6.597656 15 15zm0 0" fill="#8ebac5"/><path d="m437 182h-120v-30h120c8.402344 0 15 6.597656 15 15 0 8.398438-6.597656 15-15 15zm0 0" fill="#8ebac5"/><path d="m200.800781 302c-17.101562-36.300781-54-60-94.800781-60-57.898438 0-106 47.101562-106 105s48.101562 105 106 105c40.800781 0 77.699219-23.699219 94.800781-60h176.199219v-90zm-124.828125 60c-8.285156 0-15-6.714844-15-15s6.714844-15 15-15 15 6.714844 15 15-6.714844 15-15 15zm0 0" fill="#fdbf00"/><path d="m317 302h60v90h-60zm0 0" fill="#ff9f00"/><path d="m377 422c-8.289062 0-15-6.710938-15-15v-120c0-8.289062 6.710938-15 15-15s15 6.710938 15 15v120c0 8.289062-6.710938 15-15 15zm0 0" fill="#392e6e"/></svg>