<svg xmlns="http://www.w3.org/2000/svg" width="243.595" height="138.46" viewBox="0 0 64.451 36.634"><path d="M11.023.333c-.353.53-.74.212 11.96 9.984 6.878 5.292 11.535 8.678 11.994 8.643.846-.035 24.06-17.956 23.918-18.486-.106-.529-47.554-.67-47.872-.14z"></path><path d="M9.083 17.02v14.217l1.87.247c3.386.388 10.689.211 13.617-.318 6.49-1.235 12.1-3.669 19.614-8.537 7.338-4.727 11.183-6.491 14.605-6.632l1.623-.07.106-6.386c.035-3.528-.035-6.42-.212-6.42-.176 0-5.538 4.62-11.924 10.265C41.997 19.031 36.423 23.9 36 24.181c-.53.353-1.059.423-1.658.212-.741-.247-23.001-19.65-24.166-21.061-.282-.318-.6-.565-.776-.565-.176 0-.317 6.315-.317 14.253zM61.294 16.455c0 .141.494.741 1.058 1.306 1.306 1.27 1.34 1.658.106 1.375l-.952-.247.776.988c.917 1.164.952 1.623.247 2.999-.776 1.517-.106 1.305 1.023-.282 1.2-1.729 1.2-3.21 0-4.622-.988-1.164-2.258-2.046-2.258-1.517z"></path><path d="M57.766 19.524c-.67.247-4.022 1.976-7.408 3.846-9.455 5.186-15.84 7.796-22.578 9.242-3.28.706-12.912.918-16.651.389l-2.046-.283v1.235c0 .811.247 1.517.705 1.976.706.705 1.165.705 24.871.705h24.2l.883-.882.846-.846-.07-7.867c-.106-7.585-.141-7.867-.812-7.938-.388-.035-1.27.141-1.94.423zM.122 26.016c.424.458 4.48 1.94 6.42 2.328.883.176 1.165.106 1.341-.353.141-.317.141-.635.07-.705-.07-.106-1.41-.389-2.962-.67a249.307 249.307 0 0 1-4.022-.777c-.953-.176-1.129-.141-.847.177zM3.968 30.531c.635.67 4.374 1.87 4.586 1.517.388-.6-.106-.952-1.658-1.2a62.202 62.202 0 0 1-2.4-.458c-.599-.141-.775-.07-.528.141z"></path></svg>