<svg xmlns="http://www.w3.org/2000/svg" width="241.787" height="130.9" viewBox="0 0 63.973 34.634" version="1.1"><g transform="translate(-13.37 -154.195)"><g transform="matrix(.26458 0 0 .26458 -72.01 134.007)"><path d="M464.4 161c-3.6 3.6-9.5 3.6-13.1 0l-86.2-76.1v114.4c0 4.4 3.5 7.9 7.9 7.9h169c4.3 0 7.9-3.5 7.9-7.9V85.5L464.4 161" class="st0" fill="#302f62"></path><g><path d="M365.1 173.4c-7.5-.7-14.9-1.7-22.2-3.1-7.1-1.4-14.4-3.1-20.2-7.7 2.4 1.8 4.7 3.6 7.2 5.1 4.6 2.8 9.7 5.1 14.9 6.9 6.6 2.2 13.4 3.7 20.3 4.7z" class="st1" fill="#ffb316"></path><path d="M543.4 76.4c-.1 0-.6-.1-.7-.1h-170c-.9.1-1.6.8-1.6 1.7 0 .5.2.9.5 1.2l79.7 61.6c4.4 4.4 8.6 4.5 13.1 0l79.8-61.7c.2-.3.4-.7.4-1 0-.8-.6-1.4-1.2-1.7" class="st0" fill="#302f62"></path><path d="M550.7 166.3c5.3-3.8 11.1-12.9 6.5-19-6.6-8.7-22.2.6-28.9 4.3-28 15.4-55.4 31.2-86.8 39.1-8.8 2.2-17.8 3.9-26.8 4.7-18.8 1.6-38.3 1.1-56.4-4.7-4.8-1.6-9.6-3.6-13.9-6.2-2.4-1.4-4.6-3-6.8-4.7 5.4 4.1 12.3 5.7 19 7 12.5 2.4 25.4 3.5 38.2 3.8 11.5.2 23-1.4 34.1-4.2 10.7-2.6 21.1-6.4 31-10.9 5.7-2.6 11.3-5.6 16.8-8.7 19.1-11 36.5-26.3 58.4-31.8 6-1.5 12.6-2.6 18.5-.3 8.3 3.1 14.4 13.4 8.6 21.2-3.1 4-6.9 7.2-11.5 10.4" class="st1" fill="#ffb316"></path></g></g></g><style id="style10" type="text/css"> .st0 {fill: #302f62} .st1 {fill: #ffb316}</style></svg>