<svg xmlns="http://www.w3.org/2000/svg" width="30.927" height="25.976"><path d="M17.89 0a.368.368 0 0 0-.241.09l-1.944 1.372a.369.369 0 0 1-.483 0L13.278.09A.368.368 0 0 0 13.036 0H4.45a.37.37 0 0 0-.268.115A15.248 15.248 0 0 0 0 10.555c-.034 8.38 6.804 15.302 15.241 15.42 8.642.12 15.685-6.802 15.685-15.358 0-4.062-1.588-7.755-4.181-10.502A.369.369 0 0 0 26.478 0zm7.716 10.777c0 5.778-4.89 10.492-10.775 10.183-5.247-.276-9.28-4.598-9.461-9.815-.094-2.692.794-5.167 2.435-7.032a.36.36 0 0 0-.018-.493L4.754.664l10.278 7.312c.268.214.65.214.919 0L26.224.664 23.136 3.62a.36.36 0 0 0-.02.493c1.569 1.781 2.49 4.111 2.49 6.664z" fill="#ff5959" fill-rule="evenodd"/></svg>