<?xml version="1.0" encoding="UTF-8" standalone="no"?>
<svg
   xmlns:dc="http://purl.org/dc/elements/1.1/"
   xmlns:cc="http://creativecommons.org/ns#"
   xmlns:rdf="http://www.w3.org/1999/02/22-rdf-syntax-ns#"
   xmlns:svg="http://www.w3.org/2000/svg"
   xmlns="http://www.w3.org/2000/svg"
   xml:space="preserve"
   id="logo"
   height="31.727629"
   width="19.667629"
   version="1.1"><metadata
     id="metadata4466"><rdf:RDF><cc:Work
         rdf:about=""><dc:format>image/svg+xml</dc:format><dc:type
           rdf:resource="http://purl.org/dc/dcmitype/StillImage" /><dc:title></dc:title></cc:Work></rdf:RDF></metadata><defs
     id="defs4464" /><path
     d="m 9.7207355,0 c -1.21889,0 -2.364451,0.475629 -3.226562,1.337891 -0.862105,0.861828 -1.335938,2.007344 -1.335938,3.226563 0,1.219217 0.473746,2.366687 1.335938,3.228515 0.861937,0.862262 2.007672,1.335938 3.226562,1.335938 1.2192405,0 2.3664925,-0.473676 3.2285155,-1.335938 0.86185,-0.861828 1.335937,-2.008863 1.335937,-3.228515 0,-1.219219 -0.473827,-2.3643 -1.335937,-3.226563 C 12.087488,0.476064 10.939976,0 9.7207355,0 Z m 0,3.222657 c 0.3584135,0 0.6960875,0.141335 0.9492185,0.394531 0.253371,0.253633 0.392578,0.589005 0.392578,0.947266 0,0.358478 -0.139382,0.696239 -0.392578,0.949218 -0.253306,0.253633 -0.590805,0.392578 -0.9492185,0.392578 -0.357976,0 -0.694049,-0.139381 -0.947265,-0.392578 -0.253285,-0.253415 -0.392579,-0.590756 -0.392579,-0.949218 0,-0.358261 0.139294,-0.693851 0.392579,-0.947266 0.253216,-0.253414 0.589289,-0.394531 0.947265,-0.394531 z M 1.9336263,6.976563 c -0.3807853,0.0083 -0.7634377,0.126562 -1.09765631,0.363281 -0.8915918,0.6306 -1.1037259,1.864274 -0.4726563,2.75586 1.30369641,1.842313 2.88638481,3.204319 4.70507781,4.046874 0.357213,0.165622 0.722174,0.311752 1.095703,0.4375 -1.54476,1.115505 -3.2155513,2.678814 -4.0156245,4.822266 -0.830578,2.224437 -0.8197116,4.632273 0.029297,6.78125 0.8145992,2.061619 2.3225345,3.737346 4.2460935,4.720703 2.14302,1.095689 4.8708815,1.097888 7.2968745,0.0059 2.545959,-1.145905 4.207303,-3.243713 4.443359,-5.613282 0.247781,-2.494035 -0.947861,-4.715542 -3.046874,-5.658203 -2.174038,-0.976394 -4.627,-0.27901 -6.2480465,1.775391 -0.676783,0.857259 -0.531003,2.100825 0.326171,2.777344 0.8575185,0.676867 2.1027775,0.531087 2.7792965,-0.326172 0.481707,-0.610327 1.035276,-0.835559 1.521485,-0.617188 0.414402,0.18618 0.82554,0.719786 0.732422,1.658203 -0.0928,0.928975 -0.909772,1.848604 -2.13086,2.398438 -1.321366,0.594315 -2.8051585,0.623811 -3.8730465,0.07813 -1.065862,-0.545071 -1.906497,-1.486486 -2.367187,-2.652344 -0.346018,-0.875119 -0.626188,-2.271232 -0.002,-3.945312 0.468847,-1.255676 1.649887,-2.4413 3.71875,-3.728516 0.8781625,-0.546787 1.8199345,-1.056072 2.7304685,-1.548828 1.05007,-0.568367 2.045912,-1.106636 2.919921,-1.683594 1.555376,-0.850625 2.923303,-2.10244 4.074219,-3.728515 0.631076,-0.891585 0.418776,-2.12526 -0.472656,-2.75586 -0.891671,-0.631252 -2.124865,-0.420708 -2.75586,0.470703 -0.774577,1.09523 -1.631612,1.908061 -2.607421,2.46875 -0.08997,0.05166 -0.181339,0.100778 -0.273438,0.148438 -0.08488,0.04401 -0.171128,0.08684 -0.257812,0.126953 -0.911117,0.4223 -1.926532,0.64256 -3.0996095,0.677734 C 8.6587385,11.197287 7.6438725,10.97508 6.7324075,10.55278 5.5321195,9.996396 4.5043795,9.099853 3.5917825,7.810592 3.1974685,7.25346 2.5682212,6.962719 1.9335794,6.976608 Z m 30.1093747,3.701172 c 9e-6,0.0026 -0.002,0.0052 -0.002,0.0078 l 0.0039,-0.0039 c -4.35e-4,-5.37e-4 -0.0015,-0.0034 -0.002,-0.0039 z m -1.291016,5.347656 c -6.69e-4,0.02344 -3.42e-4,0.04688 -0.002,0.07031 0.01361,0.05272 0.02755,0.105464 0.04102,0.158203 3.31e-4,-0.0385 0.0047,-0.07672 0.0059,-0.115235 -0.01726,-0.03504 -0.02934,-0.07625 -0.04492,-0.113281 z m 11.263672,0.263672 c -0.0072,0.03987 -0.01609,0.0793 -0.02344,0.119141 0.0081,-0.0034 0.01727,-0.0045 0.02539,-0.0078 -0.0015,-0.03714 6.34e-4,-0.07418 -0.002,-0.111328 z m 0.837891,5.068359 c 0.01676,0.01469 0.01178,0.01196 0.03516,0.03125 0.006,0.005 0.02964,0.0086 0.02344,0.0039 -0.01796,-0.01366 -0.03902,-0.02385 -0.05859,-0.03516 z m 17.509765,0.291016 c -1.13e-4,0.01156 1.84e-4,0.02228 0,0.0332 0.0014,0.0018 0.0025,0.0041 0.0039,0.0059 -9.92e-4,-0.01322 -0.0028,-0.02634 -0.0039,-0.03906 z m 45.404297,0.283203 c -0.0655,0.05384 -0.1314,0.09469 -0.19727,0.142578 0.0501,-0.0026 0.10029,-0.0032 0.15039,-0.0059 0.0165,-0.04527 0.0306,-0.09135 0.0469,-0.136719 z m -69.222656,0.28125 c -0.09606,0.03267 -0.192196,0.05892 -0.28711,0.05664 -0.0019,0.0052 -0.004,0.0104 -0.0059,0.01563 0.08545,-0.0056 0.175668,-0.01787 0.263672,-0.03125 0.01118,-0.01016 0.02387,-0.01749 0.03516,-0.02734 -0.0017,-0.0047 -0.0041,-0.0091 -0.0059,-0.01367 z m -7.142578,1.601563 c 0.0015,0.0029 0.0044,0.0049 0.0059,0.0078 0.01273,0.02457 0.02331,0.05027 0.0332,0.07617 0.0046,-0.0011 0.0061,-0.01435 0.01172,-0.01172 0.11696,0.05523 0.211377,0.146329 0.304687,0.238281 -0.0016,-0.0071 -0.0023,-0.01438 -0.0039,-0.02148 -0.119722,-0.08915 -0.236189,-0.187946 -0.351562,-0.289062 z m 6.853515,1.419921 c -0.03111,0.01483 -0.05225,0.02283 -0.08984,0.04102 0.01443,0.0029 0.0245,0.01483 0.03711,0.02148 0.01573,-0.01878 0.03324,-0.0358 0.04883,-0.05469 0.0014,-0.0026 0.0025,-0.0052 0.0039,-0.0078 z"
     style="fill:#231f20;fill-opacity:1;fill-rule:nonzero;stroke:none"
     id="gandi" /></svg>