<svg xmlns="http://www.w3.org/2000/svg" width="19.668" height="31.727" viewBox="0 0 19.668 31.727"><path fill="#231F20" d="M9.72 0a4.534 4.534 0 0 0-3.226 1.338c-.862.862-1.336 2.007-1.336 3.226s.474 2.367 1.336 3.229A4.532 4.532 0 0 0 9.72 9.129c1.22 0 2.367-.474 3.229-1.336a4.536 4.536 0 0 0 1.336-3.229 4.535 4.535 0 0 0-1.336-3.227A4.54 4.54 0 0 0 9.72 0zm0 3.223c.358 0 .696.141.949.395.254.253.393.589.393.947s-.139.696-.393.949a1.335 1.335 0 0 1-.949.393 1.337 1.337 0 0 1-1.339-1.343c0-.359.14-.694.393-.947s.589-.394.946-.394zm9.579 6.873a1.977 1.977 0 0 0-.473-2.756 1.976 1.976 0 0 0-2.756.471c-.774 1.095-1.632 1.908-2.607 2.469a6.01 6.01 0 0 1-.273.148 6.165 6.165 0 0 1-.258.127c-.911.422-1.927.643-3.1.678-1.173-.035-2.188-.257-3.1-.68-1.2-.556-2.227-1.453-3.14-2.742a1.973 1.973 0 0 0-1.659-.834 1.976 1.976 0 0 0-1.57 3.119c1.304 1.842 2.887 3.204 4.705 4.047.357.166.723.312 1.096.438-1.545 1.116-3.215 2.678-4.016 4.823-.83 2.225-.819 4.632.029 6.781.814 2.061 2.323 3.736 4.246 4.721 2.144 1.096 4.871 1.098 7.297.006 2.546-1.146 4.208-3.244 4.443-5.613.248-2.494-.947-4.716-3.047-5.658-2.174-.977-4.627-.279-6.248 1.775a1.978 1.978 0 1 0 3.105 2.451c.482-.611 1.035-.836 1.521-.617.415.186.826.719.732 1.658-.093.929-.909 1.848-2.131 2.398-1.321.594-2.805.623-3.873.078-1.065-.545-1.906-1.486-2.367-2.652-.346-.875-.626-2.271-.002-3.945.469-1.256 1.65-2.441 3.719-3.729.878-.547 1.82-1.057 2.73-1.549"></path></svg>