<?xml version="1.0" encoding="utf-8"?>
<!-- Generator: Adobe Illustrator 14.0.0, SVG Export Plug-In . SVG Version: 6.00 Build 43363)  -->
<!DOCTYPE svg PUBLIC "-//W3C//DTD SVG 1.1//EN" "http://www.w3.org/Graphics/SVG/1.1/DTD/svg11.dtd">
<svg version="1.1"
	 id="logo" xmlns:dc="http://purl.org/dc/elements/1.1/" xmlns:rdf="http://www.w3.org/1999/02/22-rdf-syntax-ns#" xmlns:cc="http://creativecommons.org/ns#" xmlns:svg="http://www.w3.org/2000/svg"
	 xmlns="http://www.w3.org/2000/svg" xmlns:xlink="http://www.w3.org/1999/xlink" x="0px" y="0px" width="19.668px"
	 height="31.727px" viewBox="0 0 19.668 31.727" enable-background="new 0 0 19.668 31.727" xml:space="preserve">
<path id="gandi" fill="#231F20" d="M9.72,0C8.502,0,7.356,0.476,6.494,1.338C5.632,2.2,5.158,3.345,5.158,4.564
	s0.474,2.367,1.336,3.229C7.356,8.655,8.502,9.129,9.72,9.129c1.22,0,2.367-0.474,3.229-1.336c0.862-0.862,1.336-2.009,1.336-3.229
	c0-1.219-0.474-2.364-1.336-3.227C12.088,0.476,10.94,0,9.72,0z M9.72,3.223c0.358,0,0.696,0.141,0.949,0.395
	c0.254,0.253,0.393,0.589,0.393,0.947s-0.139,0.696-0.393,0.949c-0.253,0.253-0.591,0.393-0.949,0.393
	c-0.357,0-0.693-0.139-0.947-0.393C8.52,5.26,8.381,4.923,8.381,4.564s0.14-0.694,0.393-0.947C9.027,3.364,9.363,3.223,9.72,3.223z
	 M19.299,10.096c0.631-0.892,0.419-2.125-0.473-2.756c-0.892-0.631-2.125-0.421-2.756,0.471c-0.774,1.095-1.632,1.908-2.607,2.469
	c-0.09,0.052-0.181,0.101-0.273,0.148c-0.085,0.044-0.171,0.087-0.258,0.127c-0.911,0.422-1.927,0.643-3.1,0.678
	c-1.173-0.035-2.188-0.257-3.1-0.68C5.532,9.997,4.505,9.1,3.592,7.811C3.197,7.253,2.568,6.963,1.933,6.977l0,0
	C1.552,6.985,1.171,7.103,0.836,7.34c-0.892,0.63-1.104,1.864-0.473,2.756c1.304,1.842,2.887,3.204,4.705,4.047
	c0.357,0.166,0.723,0.312,1.096,0.438c-1.545,1.116-3.215,2.678-4.016,4.823c-0.83,2.225-0.819,4.632,0.029,6.781
	c0.814,2.061,2.323,3.736,4.246,4.721c2.144,1.096,4.871,1.098,7.297,0.006c2.546-1.146,4.208-3.244,4.443-5.613
	c0.248-2.494-0.947-4.716-3.047-5.658c-2.174-0.977-4.627-0.279-6.248,1.775c-0.677,0.857-0.53,2.101,0.326,2.777
	c0.857,0.676,2.104,0.531,2.779-0.326c0.482-0.611,1.035-0.836,1.521-0.617c0.415,0.186,0.826,0.719,0.732,1.658
	c-0.093,0.929-0.909,1.848-2.131,2.398c-1.321,0.594-2.805,0.623-3.873,0.078c-1.065-0.545-1.906-1.486-2.367-2.652
	c-0.346-0.875-0.626-2.271-0.002-3.945c0.469-1.256,1.65-2.441,3.719-3.729c0.878-0.547,1.82-1.057,2.73-1.549"/>
</svg>
