<svg xmlns="http://www.w3.org/2000/svg" version="1.1" id="图层_1" x="0" y="0" viewBox="0 0 256.3 256.2" xml:space="preserve" width="256.3" height="256.2"><style type="text/css" id="style639">.st8{fill:#257883}.st17{fill:#2b858a}.st19{fill:#298188}.st27{fill:#369b98}.st29{fill:#247681}.st32{fill:#1a6375}.st36{fill:#1b6476}.st38{fill:#2c868b}.st43{fill:#267b84}.st44{fill:#1b6577}.st48{fill:#359997}.st49{fill:#2a8289}.st50{fill:#237480}.st51{fill:#206f7d}.st52{fill:#308e90}.st53{fill:#2a8389}.st55{fill:#22727f}.st56{fill:#22737f}.st57{fill:#2d888c}.st59{fill:#1f6d7c}.st60{fill:#21717e}.st61{fill:#369a98}.st62{fill:#359896}.st65{fill:#2d898d}.st66{fill:#2e8b8e}.st67{fill:#2e8a8e}.st69{fill:#2f8d8f}.st72{fill:#1e6b7a}.st73{fill:#308f91}.st74{fill:#329293}.st75{fill:#339494}.st76{fill:#319192}.st77{fill:#319091}.st78{fill:#fdfdfd}.st79{fill:#fcfdfd}.st82{fill:#1c6677}.st83{fill:#1e6a7a}.st85{fill:#1f6c7b}.st87{fill:#1c6778}.st88{fill:#206e7c}.st89{fill:#21707d}.st94{fill:#329393}.st101{fill:#fefefe}.st102{fill:#297f87}.st108{fill:#1f6b7b}.st109{fill:#1e6979}.st110{fill:#216e7d}.st111{fill:#216f7d}.st112{fill:#22717e}.st113{fill:#25707f}.st114{fill:#236d7c}.st115{fill:#257581}.st116{fill:#236e7d}.st121{fill:#2f8b8f}.st122{fill:#2d888d}.st123{fill:#2b848a}.st124{fill:#2d878c}.st125{fill:#2b8189}.st126{fill:#318e91}.st127{fill:#2a7b85}.st128{fill:#2f898e}.st129{fill:#369595}</style><g id="g1259" transform="translate(-184.9 -258.9)"><g id="g1257"><path d="M275 259h7c8.2 3 14.6 8.9 21.7 13.7 17.9 12.2 35.7 24.6 53.5 36.9 26.4 18.2 52.8 36.6 79.2 54.8 1.9 1.3 3.1 3 4.5 4.5v5c-2 1.2-3.4 0-5-1-26.3-18.3-52.6-36.6-79-54.6-6.8-4.7-13.4-9.7-20.6-13.9-1.1-.3-2.1-1-2.8-1.9-3.9-5.4-9.6-8.3-15.4-11-13-9.4-26.4-18.3-39.6-27.4-1.6-1.2-4.5-1.9-3.5-5.1z" id="path641" fill="#1a6275"></path><path d="M312 515h-9c-8.5-3.2-15.2-9.3-22.6-14.3-17.1-11.7-34.1-23.6-51.1-35.3-13.5-9.3-26.9-18.8-40.5-27.9-1.7-1.2-3-2.6-3.8-4.4v-6c2.4-1.3 4.1.4 5.8 1.6 26.8 18.4 53.5 36.9 80.2 55.4 12.3 8.5 24.6 16.9 36.8 25.5 1.9 1.2 4.9 2.1 4.2 5.4z" id="path643" fill="#39a19c"></path><path d="M441 332v6c-2.5 1.9-4.3.1-6.2-1.2-22.4-15.2-44.6-30.8-67-46.2l-38.1-26.4c-1.8-1.3-4.3-2.2-3.7-5.2h10c11.8 5.8 21.9 14.2 32.7 21.5 22.7 15.5 45.3 31.2 67.8 46.9 1.9 1.3 3.4 2.7 4.5 4.6z" id="path645" fill="#165a70"></path><path d="M185 443v-6c2.5-2 4.1.4 5.6 1.5 16.4 11.2 32.7 22.6 49.1 33.9 15.8 10.9 31.6 21.9 47.5 32.8 3 2.1 5.9 4.3 8.9 6.4 1.2.8 2.7 1.5 1.9 3.5h-9c-9.6-3.7-17.2-10.5-25.5-16.2-24.2-16.6-48.3-33.3-72.4-50.1-2.4-1.7-4.8-3.1-6.1-5.8z" id="path647" fill="#3aa39d"></path><path d="M441 467v6c-2.1 1.2-3.8.1-5.5-1-24.6-16.8-49-33.7-73.4-50.7-4.1-2.8-7.4-6.7-12.4-8-1.1-.4-2.1-.9-3.1-1.5-.4-.2-.8-.4-1.2-.7-.2-.1-.4-.3-.6-.4-.6-.4-1.1-.8-1.6-1.3-.4-.3-.6-.7-.9-1.1-6.1-4.8-13.2-8-19.1-12.9-2-1.7-4.6-2.8-4.8-5.9 0-.5.2-1 .4-1.4.4-.7.9-1.2 1.5-1.7 1.5-1.1 3.2-1.7 5-1 8.6 7.5 18.4 13.4 27.8 19.8 28.2 19.4 56.1 39.1 84.5 58.3 1.4.9 2.2 2.4 3.4 3.5z" id="path649" fill="#277d85"></path><path d="M287 259h6c7.2 1.9 12.8 6.9 18.7 11 30.8 21.5 61.8 42.7 92.7 64.2 11 7.6 22.1 15.1 33 22.9 1.6 1.1 2.4 2.7 3.7 4v5c-2.4 1.1-3.8-.9-5.3-1.9-32.8-22.8-65.7-45.4-98.5-68.2-15.5-10.8-31-21.5-46.6-32.2-1.6-1.2-4.3-1.9-3.7-4.8z" id="path651" fill="#196073"></path><path d="M185 414v-5c2.1-1.1 3.5.5 4.9 1.5 18.5 13 37.1 25.7 55.6 38.6 9.2 6.5 18.4 13.1 27.9 19.2 20.6 13.3 40 28.4 60.5 41.9 1.7 1.1 4.2 1.9 3.1 4.8h-6c-10-3.9-18-11.1-26.7-17-32.4-22.2-64.6-44.7-96.9-66.9-6-4.1-12.2-8-17.9-12.5-1.8-1.4-3.2-2.9-4.5-4.6z" id="path653" fill="#379d99"></path><path d="M306 259h7c9.8 3.3 17.1 10.5 25.5 16.1 17.2 11.5 34.1 23.5 51.1 35.2L437 343c1.8 1.3 3.1 3 4 4.9v5c-2.1 1.2-3.5-.4-4.9-1.3-14.1-9.6-28.1-19.3-42.1-29l-63.3-43.8c-7.3-5.1-14.7-10.1-22-15.3-1.5-.9-3.7-1.8-2.7-4.5z" id="path655" fill="#175d72"></path><path class="st8" d="M441 451v6c-1.8 1.1-3.1.1-4.5-.9-21.7-14.7-43.1-29.9-64.8-44.7-11.9-8.2-23.7-16.5-35.7-24.6-1.9-1.3-4.1-2.4-3.9-5.2.9-2.7 2.8-3.8 5.5-3.5 33.1 22.9 66.2 45.8 99.4 68.6 1.8 1.1 2.7 2.9 4 4.3z" id="path657" fill="#257883"></path><path d="M441 361c-7.6-3.4-13.9-9-20.8-13.6-20.5-13.9-40.7-28.1-61-42.3-22.1-15.4-44.1-30.7-66.2-46.1h6c9.9 2.7 17.1 9.9 25.2 15.4 32.2 22 64.1 44.4 96.3 66.5 5.2 3.5 10.4 7 15.5 10.7 2.1 1.5 3.8 3.2 5 5.4v4z" id="path659" fill="#185f73"></path><path d="M312 515c-13.8-9.6-27.5-19.3-41.3-28.8-28.6-19.8-57.2-39.5-85.7-59.2v-5c2.5-1.2 4.1.7 5.8 1.9 32.6 22.6 65.3 45 97.8 67.6 8.8 6.2 17.8 12.1 26.5 18.4 1.8 1.3 3.9 2.2 2.9 5-2 .1-4 .1-6 .1z" id="path661" fill="#39a09b"></path><path d="M185 414c7.4 3.8 14 9 20.8 13.6 20.5 14 40.8 28.2 61.1 42.3 20.6 14.3 41.3 28.6 61.9 43 .8.6 1.4 1.4 2.1 2.1h-6c-9.8-3.2-17.3-10.4-25.5-16-17.1-11.6-34.1-23.5-51.1-35.3-19.4-13.5-38.9-26.9-58.4-40.3-2.1-1.5-3.8-3.2-5-5.4.1-1.3.1-2.7.1-4z" id="path663" fill="#389e9a"></path><path d="M441 357c-13.6-9.3-27.2-18.5-40.7-27.9-33.3-22.9-66.5-45.9-99.7-68.9-.5-.4-1-.9-1.5-1.3h7c7.8 6.8 16.6 12.1 25.1 18 35.1 24.4 70.3 48.5 105.5 72.8 1.5 1 2.9 2.2 4.4 3.2-.1 1.4-.1 2.8-.1 4.1z" id="path665" fill="#185e72"></path><path d="M185 418c15 10.2 30 20.3 44.9 30.6 17 11.7 33.8 23.5 50.8 35.2 14.1 9.7 28.2 19.4 42.2 29.2.8.6 1.4 1.4 2.1 2h-7c-2.5-3.7-6.6-5.5-10.1-8-35.1-24.3-70.2-48.5-105.4-72.7-5.9-4.1-11.7-8.2-17.5-12.3v-4z" id="path667" fill="#389f9b"></path><path d="M337 515c-4.7-5.3-11.1-8.4-16.8-12.4-22.3-15.7-44.8-31.1-67.2-46.6-22.7-15.7-45.4-31.4-68.1-47v-3c2.1-1.3 3.8-.1 5.5 1 16.8 11.2 33.2 23 49.8 34.3 9.6 6.5 19 13.3 28.7 19.6 3.1 2 5.3 5.7 9.6 5.7 6.4 3.7 12.5 7.8 18.2 12.5.5 1.2.9 2.4 2.2 3.2 14 8.7 27.2 18.6 40.8 27.8 1.7 1.1 4 2 3.3 4.8-2 .1-4 .1-6 .1z" id="path669" fill="#379c99"></path><path d="M326 259c14.6 10.2 29.2 20.3 43.8 30.5 21.9 15.2 43.7 30.3 65.6 45.4 1.8 1.2 3.4 2.7 5.6 3.1v5c-2.3 2-4.2.1-5.8-1-36.4-25.4-73-50.7-109.6-75.8-2.3-1.6-6.1-2.9-4.6-7.2h5z" id="path671" fill="#165b70"></path><path d="M287 259c10.6 7.5 21.1 15.1 31.7 22.4 38.4 26.6 76.9 53.1 115.4 79.6 2.3 1.6 4.6 3.3 6.9 4.9v3c-9.8-5.4-18.5-12.3-27.7-18.5-21.6-14.7-43-29.7-64.4-44.5-21.6-15-43.2-29.9-64.8-44.9-.8-.6-1.4-1.4-2.1-2h5z" id="path673" fill="#196174"></path><path class="st17" d="M185 324v-6c1.8-1.1 3.1-.1 4.5.9 20.7 14.1 41.2 28.4 61.7 42.7 10.7 7.5 21.7 14.6 32.2 22.4.3 3-1.4 4.4-3.9 5.1-2.2 0-4-1-5.9-2.3-28.1-19.4-56.1-38.9-84.2-58.2-1.9-1.2-3-3-4.4-4.6z" id="path675" fill="#2b858a"></path><path d="M321 259c1.3 2.9 3.9 4.5 6.3 6.2 35.1 24.2 70.2 48.4 105.3 72.5 2.7 1.9 5 4.5 8.4 5.3v5c-41.8-28.9-83.6-57.8-125.5-86.7-.9-.6-1.7-1.5-2.5-2.3h8z" id="path677" fill="#175c71"></path><path class="st19" d="M441 479v6l-1.2.9c-2.2.7-3.8-.7-5.4-1.8-21.9-14.8-43.4-30-65.2-44.9-2.3-1.6-4.3-3.7-6.7-5.2-1.9-2.9-3.5-5.9-2.1-9.6 3-2.2 5 .3 7 1.7 14.1 9.4 27.9 19.2 41.8 28.8 9 6.2 18 12.5 27 18.6 2.1 1.4 3.5 3.3 4.8 5.5z" id="path679" fill="#298188"></path><path d="M441 479c-12.6-7.5-24.2-16.4-36.3-24.6-14.7-9.9-29.2-20.2-43.8-30.4-5.4-2.9-9.7-6.7-11.3-12.8 7 2.2 12.1 7.4 18 11.3 17.4 11.6 34.4 23.7 51.7 35.6 7.2 5 14.5 9.9 21.8 14.9-.1 2-.1 4-.1 6z" id="path681" fill="#287f87"></path><path d="M441 323v5c-2.4 1.9-4.1-.2-5.7-1.3-30.2-21.1-60.6-42.1-91-63-1.5-1.1-4.4-1.6-3.3-4.7h8c12.4 4.6 22 13.5 32.7 20.7 17.4 11.6 34.4 23.8 51.8 35.6 3 2.1 5.9 4.2 7.5 7.7z" id="path683" fill="#15586f"></path><path d="M284 515h-8c-9.6-2.5-16.7-9.2-24.6-14.6-20.3-13.9-40.4-27.9-60.6-41.8-2.6-1.8-4.6-3.7-5.8-6.5v-5c2.5-2 4 .4 5.6 1.5 19.9 13.6 39.6 27.3 59.4 41 10.4 7.2 20.7 14.5 31.1 21.5 1.4.7 3.6 1.4 2.9 3.9z" id="path685" fill="#3ba59e"></path><path d="M441 323c-13.7-9.4-27.5-18.7-41.1-28.1-15.9-10.9-31.7-22-47.5-33-1.2-.8-2.6-1.5-3.4-2.9h8c4.4 1.3 8 4 11.6 6.6 22.9 15.8 45.7 31.9 68.8 47.4 1.5 1 2.8 2.4 3.6 4v6z" id="path687" fill="#14576e"></path><path d="M185 452c29.7 20.5 59.4 40.9 89.1 61.4.7.5 1.3 1 1.9 1.6h-9c-9.5-4.3-17.3-11.1-25.8-16.8-12.1-8.2-24.1-16.6-36.1-24.9-5.3-3.7-10.5-7.6-16-11-1.7-1.1-3.1-2.5-4.1-4.3v-6z" id="path689" fill="#3ba69f"></path><path d="M439.5 283.3c-2.5-7.6-5.9-14.3-13.5-17.8-3.4-1.5-7.8-3-10.8-5.6-1.2-.2-2.4-.6-3.6-.9-.2 0-.4-.1-.6-.1h-15c-1 2.9 1.2 3.8 2.9 5 12.3 8.4 24.5 16.9 36.8 25.4 1.5 1 2.8 1.8 4.5.7.2-.5.3-1 .3-1.5 0-1.3-.1-2.6-.2-3.8-.3-.3-.6-.8-.8-1.4z" id="path691" fill="#12526b"></path><path d="M441 309v5c-1.9 1.7-3.1-.1-4.3-1-24.6-16.9-49.3-33.9-73.8-51-1-.7-2.6-1.2-1.9-3h8c8.1 2 14 7.9 20.7 12.4 15.4 10.3 30.5 21.1 45.7 31.5 2.3 1.6 4.6 3.3 5.6 6.1z" id="path693" fill="#14556d"></path><path class="st27" d="M278.1 467.8c-2.6 1.8-4-.8-5.5-1.8-27.1-18.6-54.1-37.3-81.2-56-2-1.4-4.2-2.6-6.4-3.9v-5c1.8-1.1 3.1-.1 4.5.9l75 51.9c1.9 1.3 3.9 2.6 6.2 2.9 3.8 2.8 7.5 5.6 7.4 11z" id="path695" fill="#369b98"></path><path d="M263 515h-8c-8.9-3.1-15.8-9.6-23.5-14.7-13.8-9.2-27.3-18.8-40.9-28.2-2.3-1.6-4.6-3.3-5.6-6.1v-5c2.4-1.8 3.8.5 5.2 1.5 16.5 11.4 32.9 22.7 49.4 34.1 6.9 4.8 13.8 9.7 20.8 14.4 1.4.9 3.4 1.5 2.6 4z" id="path697" fill="#3ca8a0"></path><path class="st29" d="M441 451c-9.8-5.4-18.5-12.3-27.7-18.5-17.2-11.6-34.2-23.6-51.3-35.4-7.1-4.9-14.2-9.9-21.3-14.8-1.2-.9-2.6-1.6-2.8-3.3 0-2.1 1.4-2.5 3.1-2.5 28.3 19.5 56.7 38.9 84.9 58.6 5.3 3.7 11.2 6.5 15.1 12v3.9z" id="path699" fill="#247681"></path><path d="M441 467c-10.7-5.4-20-13.1-29.9-19.7-16.1-10.8-32-22.1-47.9-33.2-11.7-8.1-23.4-16.3-35.2-24.4-1.4-.9-2.9-1.8-3-3.7-.3-1.4.7-1.7 1.7-1.9 5.8 2.5 10.7 6.6 15.8 10.2 17.1 11.8 34.1 23.6 51.2 35.4 14.5 10 28.8 20.2 43.5 29.9 1.7 1.1 3 2.6 3.9 4.4-.1 1-.1 2-.1 3z" id="path701" fill="#267c85"></path><path d="M441 440v5c-2.4.7-3.6-1.4-5.1-2.5-30.2-20.9-60.4-41.8-90.7-62.6-1.1-.7-2.3-1.3-3-2.6-.1-.5-.1-1 0-1.5.2-.8.7-1.4 1.3-1.9.9-.6 1.9-.9 2.9-.6 25.7 17.6 51.3 35.3 76.9 53.2 6.1 4.3 13.1 7.4 17.7 13.5z" id="path703" fill="#237580"></path><path class="st32" d="M336.8 303.1c6.8 2.6 12.1 7.5 18 11.5 21.6 14.6 43 29.7 64.5 44.5 7.2 5 14.5 9.9 21.8 14.9v4c-1.8 1.1-3 .2-4.5-.8-18.2-12.5-36.4-25.1-54.5-37.7-14.7-10.2-29.6-20.3-44.3-30.7-1.5-1.7-2.5-3.5-1-5.7z" id="path705" fill="#1a6375"></path><path d="M236 259h11c6.4 2.2 11.4 6.7 16.9 10.4 9.9 6.7 19.7 13.5 29.4 20.4 1.6 1.1 3.8 1.3 5 3.1-.1 3.9-2.8 5.3-6 6.3-1.9 0-3.4-1-4.9-2.1-16.3-11.3-32.7-22.5-48.9-34-1.4-1-3.5-1.6-2.5-4.1z" id="path707" fill="#1d6879"></path><path d="M226 510.4c-11.9-8.1-23.7-16.4-35.6-24.5-1.4-.9-2.9-2.5-4.8-.7v.1c.1.8.1 1.7 0 2.5 0 .5.1 1.1.2 1.6.9 1.8 2.1 3.5 2.9 5.4 1.4 3 2.2 6 4.6 8.4 3.5 3.6 8.1 6 12.3 8.9.1 0 .2.1.4.1 2.6.7 5.3 1.4 7.6 2.6.5.1.9.1 1.4.2h14c.8-2.6-1.4-3.5-3-4.6z" id="path709" fill="#3eaba2"></path><path d="M185 308v-6c3.1-1.6 5.1.7 7.1 2.2 18.7 12.9 37.5 25.8 56.2 38.8 1.8 1.2 3.4 2.7 5.6 3.2 3.2 3.5 6.9 6.6 7 11.9-1.8 3-3.9 1-5.5-.1-5.1-3.4-10.2-6.8-15.2-10.4-11.5-8.4-23.4-16.2-35-24.4-5.7-4-11.2-8.3-17.2-11.8-1.4-.9-1.9-2.4-3-3.4z" id="path711" fill="#298088"></path><path class="st36" d="M339 308l96.9 66.9c1.6 1.1 3.4 2.1 5.1 3.1v4c-1.5.9-2.8.4-4.1-.5-23.1-16.2-46.5-32-69.5-48.3-9.1-6.4-18.4-12.5-27.5-18.9-.5-.3-.8-.6-1.2-1.1-1-1.8-1.5-3.6.3-5.2z" id="path713" fill="#1b6476"></path><path d="M298 515c-6.4-6.1-14.1-10.4-21.3-15.4-29-20.3-58.2-40.2-87.3-60.3-1.3-.9-2.9-1.5-4.4-2.3v-4c38.5 26.6 77 53.1 115.4 79.7.9.6 1.7 1.5 2.6 2.3h-5z" id="path715" fill="#3aa29d"></path><path class="st38" d="M185 324c9.8 5.4 18.5 12.3 27.7 18.5 17.2 11.6 34.2 23.6 51.3 35.4 4.9 3.4 9.9 6.7 14.9 10 .8 1.6-.3 2.4-1.4 3.1-1.9.6-3.4 0-5.1-1.1-27.6-19.2-55.3-38.2-82.9-57.4-1.8-1.3-3.4-2.7-4.5-4.6V324z" id="path717" fill="#2c868b"></path><path d="M341 259c5.3 5.2 11.8 8.5 17.8 12.7 26 18.3 52.1 36.2 78.3 54.3 1.2.8 2.6 1.3 4 2v4c-13.6-9.3-27.1-18.5-40.7-27.8-20.4-14-40.8-28.1-61.2-42.1-1.3-.9-2.4-1.8-3.2-3.1h5z" id="path719" fill="#15596f"></path><path d="M284 515l-47.1-32.7c-16.4-11.4-32.8-22.7-49.2-34-.8-.5-1.8-.8-2.7-1.2v-4c13.6 9.3 27.2 18.5 40.7 27.8 20.4 14 40.8 28.1 61.2 42.1.8.6 1.4 1.4 2.1 2h-5z" id="path721" fill="#3ba49e"></path><path d="M376 259h9c5.8 1.9 10.2 6.1 15.1 9.4 12.5 8.4 24.8 17.2 37.3 25.6 1.5 1 2.7 2.4 3.6 4v6c-1.8 1.6-3.4.5-4.9-.6-19.2-13.2-38.3-26.5-57.4-39.8-1.5-1-3.7-1.9-2.7-4.6z" id="path723" fill="#13546c"></path><path d="M249 515h-9c-8-2.4-13.9-8.3-20.6-12.7-10.2-6.8-20.3-13.9-30.3-20.9-1.7-1.2-3.1-2.5-4-4.3v-6c1.9-1.6 3.4-.5 4.9.6 18.8 12.9 37.4 25.9 56.1 38.8 1.4 1 3.7 1.8 2.9 4.5z" id="path725" fill="#3da9a1"></path><path class="st43" d="M441 464c-36.3-25-72.7-50-109-75-1.8-1.2-3.4-2.7-5-4.1-.2-2.2 1.3-2.5 3-2.7 35.7 24.9 71.5 49.6 107.4 74.2 1.8 1.2 2.7 2.8 3.7 4.5-.1 1.1-.1 2.1-.1 3.1z" id="path727" fill="#267b84"></path><path class="st44" d="M341 313c20.7 14.4 41.5 28.8 62.2 43.1 12.6 8.7 25.2 17.3 37.8 25.9v4c-2.5 1.3-4.1-.7-5.7-1.8a12926 12926 0 0 1-60.4-41.8c-1.1-.8-2.2-1.5-3.4-2-3-2.4-5.5-5.6-9.4-6.7-6-4.3-12.3-8.4-18.3-12.7-1.6-1.2-3.3-2.2-4-4.2-.3-1.6.2-2.8 1.2-3.8z" id="path729" fill="#1b6577"></path><path d="M441 461c-16-11.1-31.9-22.2-47.9-33.3L334 386.9c-1.5-1-2.6-2.5-4-3.7.4-1.6 1.3-2.1 2.9-1.6 4 5.6 10.4 8.2 15.7 12 29.2 20.5 58.7 40.6 88.1 60.9 1.4.9 2.8 1.7 4.3 2.6v3.9z" id="path731" fill="#267a83"></path><path d="M185 297v-8c.4-.3.8-.4 1.3-.2 5.1 5.7 11.9 9.3 18.1 13.6 16.1 11.3 32.4 22.2 48.4 33.7.8.6 1.8 1 2.2 2 .7 1.9.3 3.6-1.2 5-2.2 1.3-4.2.3-6-.9-19.7-13.4-39.4-27-58.9-40.7-1.8-1.2-2.5-3.1-3.9-4.5z" id="path733" fill="#277d86"></path><path d="M185 297c8 3.8 14.7 9.6 21.9 14.5 15.4 10.4 30.6 21 45.9 31.5 1.4 1.2 1.4 2.5.2 3.8-2.4 1.8-3.7-.6-5.1-1.6-20-13.8-39.9-27.7-59.9-41.5-1-.7-2-1.1-3-1.7v-5z" id="path735" fill="#287e86"></path><path class="st48" d="M185 397v-4c2.1-1 3.5.4 4.9 1.4 21.9 15.2 44 30.1 65.8 45.5 3.2 2.3 6.6 4.5 10.3 6.1 1.7 1.3 2.5 3.1 3 5.1.1.8.1 1.5-.1 2.3-.2.5-.5.9-1 1.1-1.7.7-2.7-.3-4-1.2-24.6-16.7-48.9-34-73.5-50.7-2.3-1.4-4.5-2.9-5.4-5.6z" id="path737" fill="#359997"></path><path class="st19" d="M185 308c10.1 5.1 18.8 12.4 28 18.7 4.8 3.3 9.7 6.3 14.3 9.8 9.2 7 18.9 13.3 28.5 19.8 1.2.8 2.4 2.6 4.3 1.3 4-.4 5.5 3.1 7.8 5.2.4.4.8.9 1.2 1.3.3.2.5.5.8.8.3.2.5.5.8.7l.4.4c.3.2.5.5.7.7.1.1.2.2.4.3.3.2.5.4.8.6l.4.3c.3.2.5.4.8.6.3.2.5.3.8.5.3.1.5.3.8.5l.4.3c.3.1.5.3.8.5.3.1.6.3.8.5.4.2.8.5 1.2.7.3.1.6.3.8.5.3.1.6.3.8.5l.4.3c.4.2.8.5 1.2.7.3.1.6.2.9.4.5.2.9.3 1.4.5.3.1.7.2 1 .4.5.2 1 .4 1.5.7.4.1.7.3 1 .6.5.3 1 .8 1.3 1.3.2.4.4.8.5 1.2v.7c-.1.2-.1.4-.2.7-.2.4-.5.8-.8 1.2-.2.2-.4.3-.6.5-.4.3-.9.4-1.4.5-.5.1-1 0-1.5-.1-14.8-9.7-29.2-20-43.8-30.1-17-11.7-34-23.6-51-35.3-2.2-1.5-4.4-2.9-5.5-5.5V308z" id="path739" fill="#298188"></path><path class="st49" d="M185 311l97.8 67.5c1.2.8 2.3 1.9 3.4 2.9-.1.8-.7 1.3-1.4 1.6-1.9.3-3.5-.5-5-1.6-30.3-21.1-60.8-42.1-91.2-63.1-1.4-1-2.5-2.2-3.6-3.4V311z" id="path741" fill="#2a8289"></path><path class="st50" d="M441 440c-9.7-5.4-18.4-12.3-27.6-18.5-17.5-11.8-34.7-23.8-51.9-36-5.2-3.7-11.1-6.6-15.4-11.6-.3-2.2 1.3-2.5 2.9-2.6 28.9 20 57.7 40.1 86.8 59.9 2.2 1.5 4.3 3.1 5.4 5.7-.2 1.1-.2 2.1-.2 3.1z" id="path743" fill="#237480"></path><path class="st51" d="M441 419v4c-1.2 1.1-2.3.7-3.6-.1-13.8-9.4-27.6-18.9-41.3-28.4-11.6-8-23.2-16-34.7-24.1-1.7-1.2-3.9-2-4.3-4.5.3-2.1 1.4-3.3 3.5-3.5 12.8 8.2 25.1 17.2 37.7 25.8 12.7 8.7 25.4 17.5 38.1 26.3 1.9 1.3 3.5 2.6 4.6 4.5z" id="path745" fill="#206f7d"></path><path class="st52" d="M185 356v-4c2.1-1.7 3.3.1 4.7 1.1 14.9 9.9 29.5 20.4 44.3 30.4 10.1 6.9 20.2 14 30.3 20.9 1.1.8 2.3 1.4 2.7 2.8.2 1.4-.1 2.6-1.3 3.4-2.2 1.3-3.9-.1-5.5-1.2-21-14.5-42.1-28.9-63-43.6-4.1-3-9.4-4.9-12.2-9.8z" id="path747" fill="#308e90"></path><path class="st53" d="M185 315c8.6 4 15.8 10.3 23.7 15.5 17.2 11.6 34.2 23.5 51.2 35.4 6.4 4.4 12.8 9 19.2 13.4 1.9 1.3 3.7 2.8 6.3 2.8 0 1.4-.6 2.3-2.2 1.9-6-1.7-10.6-6.1-15.6-9.4-17.4-11.8-34.7-23.9-52-35.9-10.1-7-19.9-14.4-30.5-20.7-.1-1-.1-2-.1-3z" id="path749" fill="#2a8389"></path><path d="M185 389v-4c2.3-1 3.7.6 5.3 1.7 23.3 16 46.5 32.3 69.9 48.2 1.5 1 2.8 2.3 3.7 4-.6 4.6-2 5.3-6 2.5-10.4-7.1-20.7-14.2-31-21.3-12.1-8.3-24.1-16.9-36.3-25-2.4-1.7-4.6-3.3-5.6-6.1z" id="path751" fill="#349796"></path><path class="st55" d="M441 430v3c-1.5 1.3-2.6.5-3.9-.4-27.7-19.3-55.7-38.4-83.3-57.8-1.4-1-3.4-1.7-3.4-4 .4-1.8 1.7-2.5 3.4-2.6 12.6 7.6 24.3 16.5 36.5 24.8 15.5 10.5 30.8 21.3 46.2 31.9 1.8 1.4 3.6 2.8 4.5 5.1z" id="path753" fill="#22727f"></path><path class="st56" d="M351 370.9c13.4 9.4 26.9 18.9 40.3 28.2 15.7 10.9 31.3 21.7 47 32.6.8.5 1.8.8 2.7 1.2v4c-29.5-20.5-59.1-40.9-88.6-61.4-1.3-.9-3-1.6-3.4-3.5.3-.9.9-1.4 2-1.1z" id="path755" fill="#22737f"></path><path class="st57" d="M185 335v-4c2.4-1.2 3.8 1 5.2 2 27.5 19.2 55.3 38 82.7 57.3.8.6 1.9.7 2.5 1.7.4 1.8-.3 3-1.8 3.8-5.7-.1-9.2-4.4-13.2-7.2-16-11.1-32-22.1-47.9-33.2-7.9-5.5-15.8-11-23.7-16.4-1.7-1.1-2.9-2.4-3.8-4z" id="path757" fill="#2d888c"></path><path d="M275.1 392c-2 .1-3.5-.9-5-2l-81.6-56.4c-1.2-.8-2.4-1.8-3.6-2.7v-3c15.2 10.4 30.5 20.8 45.7 31.2 14.4 9.9 28.7 19.9 43 29.8.9.6 2.2.7 3.3 1 .5 1.7-.3 2.2-1.8 2.1z" id="path759" fill="#2c878c"></path><path class="st59" d="M441 412v4c-1.9 1.2-3.1-.3-4.4-1.2-23.5-16.1-47-32.5-70.5-48.6-1.9-1.3-4.1-2.5-4-5.3.3-1.4 1.2-2.2 2.6-2.5 9.4 5 17.7 11.6 26.4 17.6 15.1 10.5 30.4 20.8 45.4 31.5 1.8 1.3 3.5 2.5 4.5 4.5z" id="path761" fill="#1f6d7c"></path><path class="st60" d="M441 430c-28-19.3-56-38.7-84-58-1.3-.9-2.4-1.8-3.1-3.2-.2-1.6.7-2.2 2.1-2.3 23.3 15.8 46.4 31.8 69.4 48 5.2 3.7 11.3 6.4 15.5 11.5.1 1.3.1 2.7.1 4z" id="path763" fill="#21717e"></path><path class="st61" d="M185 397c20.8 14.4 41.7 28.9 62.5 43.3 6.8 4.7 13.2 10 20.6 13.6.9-.3 1.5.3 2 .9.3.5.5 1.1.5 1.7 0 .4-.2.8-.4 1.1-1.9 1.6-3.1-.2-4.3-1-25.8-17.8-51.6-35.7-77.5-53.5-1.1-.8-2.3-1.3-3.4-2V397z" id="path765" fill="#369a98"></path><path class="st62" d="M185 389c17.3 12 34.6 24 52 36 7.2 5 14.4 10.1 21.7 15 1.5 1 3.8 3.5 4.3-1 .3-.1.5-.1.8-.2 3 2.2 3.6 4.8 1.4 7.9-4 .2-6.4-3-9.2-4.9-23.7-16.2-47.3-32.5-70.9-48.8-.1-1.3-.1-2.7-.1-4z" id="path767" fill="#359896"></path><path d="M262.9 439c-9.9-7-19.8-14-29.8-20.9C217.1 407 201 396 185 385v-3c2.1-1.8 3.7-.2 5.3.9 21.6 15 43.3 29.9 64.8 44.9 2.6 1.8 5.2 3.2 8.3 3.3 2.1 2.7 2.3 5.4-.4 7.8z" id="path769" fill="#349695"></path><path d="M376 259c6.1 5.7 13.4 9.8 20.1 14.6 14 9.9 28.1 19.5 42.2 29.3.8.5 1.8.8 2.7 1.2v5c-24-16.7-48-33.3-72-50 2.3-.1 4.7-.1 7-.1z" id="path771" fill="#13556d"></path><path class="st65" d="M185 335c14.1 9.6 28.2 19.3 42.3 28.8 15.2 10.3 29.9 21.4 45.6 31.1.6.7.2 1.3-.2 2-.4.4-.8.6-1.2.8-.5.1-1 .2-1.5.1-8.8-4.3-16.4-10.6-24.4-16.1-13-8.9-26-17.8-38.8-26.8-6-4.2-12.1-8.1-17.9-12.5-1.6-1.2-2.9-2.6-3.8-4.5-.1-.9-.1-1.9-.1-2.9z" id="path773" fill="#2d898d"></path><path class="st66" d="M185 345v-3c1.8-1.5 2.9-.2 4.3.8 25.6 17.5 51 35.4 76.6 52.9 1.5 1 3.3 1.6 4.5 3.1.5 1 .3 2-.3 2.9-.3.4-.8.7-1.2 1-.5.2-1 .3-1.5.3-7.1-3-12.8-8.1-19.1-12.4-17.2-11.8-34.4-23.6-51.4-35.5-4.2-3-9.3-5.1-11.9-10.1z" id="path775" fill="#2e8b8e"></path><path class="st67" d="M270.1 399c-2.8-.3-4.8-2.1-7-3.6-25.2-17.4-50.3-34.8-75.4-52.1-.8-.5-1.8-.8-2.7-1.2v-4l81.6 56.4c1.5 1 3.1 2 4.6 3 .3.8.3 1.6-1.1 1.5z" id="path777" fill="#2e8a8e"></path><path d="M262.1 430.7c-.3 3.9-2.3 2.2-3.9 1.1-10.8-7.4-21.5-14.9-32.3-22.4-12.7-8.8-25.4-17.5-38.2-26.2-.8-.5-1.8-.8-2.7-1.2v-4c2.4-1.9 4.1.2 5.7 1.3 16.6 11.8 33.4 23.1 50 34.8 7.1 5 14.7 9.5 21.3 15.3.3.4.3.8.1 1.3z" id="path779" fill="#339695"></path><path class="st69" d="M185 345c25.9 18 51.8 35.9 77.8 53.9 1.8 1.2 3.6 2.3 5.4 3.5.8 1.3.6 2.4-.8 3.2-5.6-1-9.5-5.2-13.9-8.2-20.9-14.4-41.7-28.8-62.6-43.2-2.2-1.5-4.5-2.8-6-5.1.1-1.4.1-2.8.1-4.1z" id="path781" fill="#2f8d8f"></path><path d="M185 374v-4c3.2-1.2 5 1.4 7 2.8 17.2 12.1 34.5 23.9 51.8 35.8 4.6 3.2 9.4 6.2 13.9 9.6 1.7 1.3 3.2 1.5 5 1.2.5.2.9.4 1.3.9 1.4 2.5 1 4.7-.9 6.7-2.2 1.6-3.9 0-5.4-1.1-21.2-15-42.7-29.6-64-44.5-3.3-2.1-6.9-3.8-8.7-7.4z" id="path783" fill="#329494"></path><path d="M249 515c-10.3-7.3-20.5-14.7-30.9-21.9-9.7-6.8-19.4-13.4-29.2-20.1-1.2-.8-2.6-1.3-4-2v-5c22.6 15.6 45.3 31.3 67.9 47 .8.6 1.4 1.4 2.1 2H249z" id="path785" fill="#3da8a0"></path><path class="st72" d="M441 405v3c-2.1 1.8-3.7.2-5.3-.9-22-15.4-44.1-30.7-66.3-45.9-1.7-1.2-3.4-2.2-3.6-4.5.1-1.8 1-2.9 2.8-3.3 7.7 4.3 14.6 9.6 21.8 14.6 12 8.2 23.9 16.6 35.9 24.8 3.7 2.5 7.1 5.4 11 7.7 1.8 1.1 2.8 2.7 3.7 4.5z" id="path787" fill="#1e6b7a"></path><path class="st73" d="M185 356c14.5 8.9 28 19.1 42 28.6 11.8 8 23.5 16.2 35.3 24.3.8.5 1.8.8 2.7 1.2 1.1 1.2.9 2.4-.2 3.5-2.1 1.5-3.8.1-5.4-1-20-13.9-40.1-27.7-60.1-41.6-3.1-2.2-6.2-4.4-9.5-6.4-2.2-1.4-3.8-3.1-4.8-5.5V356z" id="path789" fill="#308f91"></path><path class="st74" d="M262 420c-.3 3.8-2.1 1.9-3.6.9-24.4-17-48.9-33.9-73.4-50.9v-3c2.2-1.9 3.9 0 5.3 1 23.1 16.2 46.4 32.1 69.5 48.2 1.4.9 3.2 1.6 2.2 3.8z" id="path791" fill="#329293"></path><path class="st75" d="M185 374c15.2 10.4 30.4 20.7 45.6 31.2 10.5 7.2 21 14.6 31.5 21.8.8 1 .8 2 0 3-2.7-.6-4.6-2.5-6.8-4l-67.2-46.5c-.9-.6-2.1-1-3.1-1.5v-4z" id="path793" fill="#339494"></path><path class="st76" d="M262 420c-5-5-11.3-8.1-16.9-12.1-18.6-13.2-37.4-26-56.1-38.8-1.2-.8-2.6-1.3-4-2v-4c2.1-1.2 3.4.3 4.9 1.3 22.5 15.4 44.8 31 67.2 46.5 2.4 1.7 5 3 7.5 4.5.7 2.1.3 3.7-1.8 4.7-.2-.1-.5-.1-.8-.1z" id="path795" fill="#319192"></path><path class="st77" d="M263.8 415c-2.8 1.7-4.4-.8-6.1-2l-69.6-48.3c-1-.7-2-1.1-3.1-1.7v-4c17.2 11.9 34.3 23.8 51.5 35.7 7.3 5.1 14.7 10.2 22 15.3 1.8 1.2 3.4 2.7 5.6 3.1.5.7.4 1.3-.3 1.9z" id="path797" fill="#319091"></path><path class="st78" d="M412.5 515c1.9-1.3 4.1-2 6.3-2.7 3.4-1.1 6.2-2.5 8.9-4.9 6.2-5.3 11.9-11.9 13.2-20.1 0-.2.1-.4.2-.6v-1.8c-.3.1-.6.1-.9 0-.5.4-.9.8-1.4 1.3-.5.6-.8 1.4-1 2.2l-.3 1.2c-.2.7-.6 1.5-.9 2.2-.9 1.1-1.2 2.6-1.8 3.9-.3.8-.9 1.4-1.2 2.1-.2.7-.7 1.3-1.3 1.8-.3.2-.6.5-.8.8-.2.3-.5.6-.7.9-.5.5-1.1 1-1.6 1.6-.6.8-1.4 1.4-2.1 2.1-.5.7-1.2 1.1-1.8 1.6-.7.5-1.5.8-2.2 1.2-1.5 1.6-3.7 1.5-5.4 2.5-.9.7-1.9 1.1-3.1 1.2-1.4.4-2.7 1-3.7 2.1 0 0-.1.2-.1.5-.1.3.1.5.3.8.4.1.9.1 1.4.1z" id="path799" fill="#fdfdfd"></path><path class="st78" d="M215.1 259.2c-.7.2-1.5.2-2.4-.1h-.2c-.8 1.1-2.1 1.9-3.8 1.9-1.2 0-2.3.2-3.4.4-.4.5-1 .9-1.5 1.2-.6.8-1.4 1.4-2.5 1.6-.5.6-1.1 1.1-1.8 1.5-.5.3-1.1.5-1.6.6-1.3 1.7-2.6 3.2-4.4 4.4-.1.1-.3.2-.4.3-3.1 5-5.3 11-8.1 16.1v2c.3-.1.6-.2.9-.2.4-.1.8-.3 1.2-.6.6-.9.8-1.9 1.3-2.9.2-1 .6-1.9 1.2-2.8.8-1.2 1-2.7 1.8-3.9.7-1.1.9-2.4 1.7-3.3.7-.8 1.3-1.6 2.1-2.3.5-.6 1.1-1.3 1.7-1.8.4-.4.9-.8 1.3-1.3.8-1 1.8-1.6 2.6-2.5 1-.7 2-1.4 3-1.9.8-.2 1.6-.5 2.2-1 .9-.6 1.9-.9 2.9-1.3 1.6-.7 3.3-1.2 5-1.9.8-.6 1.5-1.1 1.2-2.2z" id="path801" fill="#fdfdfd"></path><path class="st79" d="M415.2 260c-1.4-.3-2.8-.7-4.2-1.1.9 1.3 2.4.9 3.6 1.3.5.1 1 .3 1.5.5-.3-.2-.6-.5-.9-.7z" id="path803" fill="#fcfdfd"></path><path class="st79" d="M439.5 283.3c-2.5-7.6-5.9-14.3-13.5-17.8-.3-.1-.6-.3-.9-.4 8.3 5.6 14.1 14.3 15.1 23.5.1.9.4 1 .9.2v-3.3c-.7-.4-1.3-1.2-1.6-2.2z" id="path805" fill="#fcfdfd"></path><path d="M209.5 513c-13-5-21.4-13.9-23.6-28-.1-.1-.3-.2-.4-.3.3 1.4.2 2.7 0 4.1 1 2 2.2 3.9 3.2 6 1.4 3 2.2 6 4.6 8.4 3.5 3.6 8.1 6 12.3 8.9.1 0 .2.1.4.1 2.7.8 5.4 1.4 7.8 2.7h1.2c-1.8-.6-3.7-1.2-5.5-1.9z" id="path807" fill="#fdfefd"></path><path d="M441 397v4c-1.5.9-2.7.4-4.1-.5-21.8-15.2-43.8-30.1-65.5-45.5-.8-.6-1.6-1.2-2.1-2.1-.4-1.8.5-3 2.1-3.7 3-.4 4.9 1.8 7 3.3 19.4 13.3 38.7 26.7 58 40.1 1.8 1.2 3.3 2.7 4.6 4.4z" id="path809" fill="#1d6979"></path><path class="st82" d="M372.2 339c9.1 6.1 18.3 12.2 27.3 18.3 13.9 9.5 27.7 19.1 41.5 28.7v4c-1.9 1.1-3.3-.2-4.5-1.1-20.5-14.4-41.2-28.4-61.8-42.8-1.1-.8-2.1-1.6-2.9-2.8-.6-1.5-1-3 .4-4.3z" id="path811" fill="#1c6677"></path><path class="st83" d="M369.7 352.9c8 4.1 15 9.7 22.4 14.7 16.3 11.1 32.6 22.2 48.9 33.4v4c-22.8-15.7-45.6-31.5-68.4-47.2-1.5-1-3.3-1.8-3.7-3.8-.2-.8.2-1.1.8-1.1z" id="path813" fill="#1e6a7a"></path><path d="M441 397c-6.6-3-12-7.7-17.9-11.7-17.2-11.6-34.2-23.6-51.3-35.4-.8-1.4-.2-2.4.9-3.3 2.1-.9 3.4.5 4.9 1.5 19.5 13.5 39.2 27 58.7 40.5 1.8 1.3 3.4 2.6 4.7 4.3v4.1z" id="path815" fill="#1d6878"></path><path class="st85" d="M366.8 356.6c4.4 5.6 10.9 8.5 16.6 12.5 17.7 12.6 35.7 24.8 53.6 37.2 1.2.8 2.7 1.2 4.1 1.8v4c-13.8-9.4-27.7-18.8-41.5-28.3-10.5-7.2-21-14.5-31.6-21.7-1.3-.9-2.4-1.8-3-3.2-.3-1.6.4-2.2 1.8-2.3z" id="path817" fill="#1f6c7b"></path><path d="M378 515h-8c-7.9-2.8-14-8.6-20.9-13.2-7.7-5.2-15.5-10.1-22.8-15.8-1.2-.9-2.6-1.5-2.9-3.2 0-.5.1-1 .4-1.5 1.6-1.9 3.6-2.3 5.9-1.8 12.2 7.9 23.9 16.4 35.9 24.6 3.3 2.2 6.6 4.4 9.7 6.8 1.4 1 3.5 1.6 2.7 4.1z" id="path819" fill="#349795"></path><path class="st87" d="M441 393c-9.6-4.7-17.7-11.6-26.6-17.5-14-9.2-27.6-19-41.4-28.5-1.2-1.4-1.3-2.7.2-4 22.6 15.7 45.2 31.3 67.8 47v3z" id="path821" fill="#1c6778"></path><path class="st88" d="M363 360.9c4.3 6.3 11.3 9.2 17.2 13.4 19.1 13.6 38.5 26.7 57.8 40 1 .7 2 1.1 3.1 1.7v3c-14.1-8.5-27.1-18.6-40.8-27.6-11.9-7.9-23.5-16.2-35.2-24.4-1.6-1.1-3.6-1.9-4.1-4.1-.2-1.6.4-2.2 2-2z" id="path823" fill="#206e7c"></path><path class="st89" d="M441 426c-11.7-6.9-22.5-15.2-33.7-22.9-16.5-11.4-33-22.8-49.4-34.3-.7-.5-1.2-1.1-1.8-1.7.1-1.1.8-1.5 1.9-1.5 8.9 6.3 17.8 12.8 26.7 19 18.1 12.6 36.3 25.1 54.5 37.6.5.4 1.2.4 1.9.7-.1 1.1-.1 2.1-.1 3.1z" id="path825" fill="#21707d"></path><path class="st29" d="M342.9 375.9c.4 2 2.2 2.8 3.7 3.8 30.1 20.8 60.3 41.5 90.4 62.3 1.4.9 2.7 2 4 3v2c-14.8-10.1-29.7-20.2-44.5-30.4-17.1-11.8-34.2-23.7-51.3-35.5-1.6-1.1-3.6-1.8-4.2-4-.2-1.8.8-1.6 1.9-1.2z" id="path827" fill="#247681"></path><path d="M185 349c14 8.3 26.9 18.3 40.5 27.4 14 9.3 27.7 19.1 41.5 28.6.8 1.1.7 1.9-.9 2-13-8.9-26.1-17.8-39.1-26.5-14-9.4-27.4-19.8-42-28.5v-3z" id="path829" fill="#2f8d90"></path><path class="st72" d="M225 259h5c9.2 2.9 16.1 9.7 23.9 14.9 11.3 7.5 22.3 15.4 33.5 23.1 1.2.8 2.7 1.5 3.2 3 .2 1.8-.5 3-2.1 3.7-5.4-.6-9-4.7-13.1-7.5-15.7-10.8-31.5-21.4-47-32.5-1.5-1.1-4.4-1.6-3.4-4.7z" id="path831" fill="#1e6b7a"></path><path d="M343 515c-15.1-10.5-30.2-21-45.3-31.6-1-.7-3.9-1-1.6-3.4 4.1-2.5 7.7-.5 11.2 1.5 1.6 3.1 4.3 5 7 6.8 10.9 7.3 21.6 15.1 32.5 22.4 1.5 1 3.9 1.6 3.2 4.3h-7z" id="path833" fill="#369c98"></path><path d="M361 259c18.8 13.1 37.6 26.2 56.5 39.3 7.8 5.4 15.1 11.4 23.5 15.7v3c-12.7-7.5-24.5-16.5-36.7-24.9-15.5-10.6-30.8-21.4-46.2-32.1-.4-.3-.7-.7-1.1-1h4z" id="path835" fill="#14566e"></path><path class="st88" d="M286.7 308.2c-.2-.6-.6-1.1-1.2-1.5-20.6-13.9-40.9-28.2-61.3-42.3-1.5-1-4-1.5-3.6-4.2-.1-.5-.3-.9-.6-1.2h-4.3c-.4.2-.8.3-1.3.3l-1.5.9c-3.3 3.4.7 4.2 2.2 5.3 21.3 14.8 42.8 29.4 64 44.3 1.8 1.3 3.7 3.1 6.3 1.7 1.1-.8 1.6-1.9 1.3-3.3z" id="path837" fill="#206e7c"></path><path class="st85" d="M220 260v-1h5c6.7 6.2 14.7 10.7 22.1 15.9 13.5 9.6 27.3 18.7 41 28.1.8 1.1.4 1.9-.5 2.7-2.1 1.2-3.8.1-5.5-1.1-19.6-13.7-39.4-27.2-59.1-40.9-1.3-1-3-1.6-3-3.7z" id="path839" fill="#1f6c7b"></path><path d="M263 515c-3.9-4.9-9.7-7.4-14.7-10.9-19.9-14.1-40.1-27.8-60.2-41.6-.9-.6-2.1-1-3.1-1.5v-3c14 8.3 26.9 18.3 40.4 27.3 12.5 8.4 24.8 17.2 37.2 25.8 1.6 1.1 3.5 2 4.4 3.9h-4z" id="path841" fill="#3ca79f"></path><path class="st77" d="M411.2 514.1c-.2.3-.2.6-.2.9h-6c-7.6-2-13-7.5-19.3-11.7-12.4-8.4-24.8-16.9-37-25.6-1.8-1.3-3.7-2.3-3.4-4.9.6-1.7 1.8-2.4 3.6-2.3 17.7 12.5 35.6 24.5 53.3 37 3 2 6.4 3.8 9 6.6z" id="path843" fill="#319091"></path><path class="st83" d="M290.1 300c-5.9-2.2-10.4-6.6-15.4-10-15-10.2-29.8-20.7-44.7-31h6c6.1 5.7 13.4 9.8 20.1 14.5 11.8 8.3 23.8 16.3 35.8 24.4.5 1.8-.3 2.2-1.8 2.1z" id="path845" fill="#1e6a7a"></path><path class="st76" d="M346 473c2.6 3.4 6.2 5.4 9.6 7.7 16.4 11.4 32.9 22.8 49.4 34.3h-6c-8.6-3.7-15.6-9.8-23.3-14.9-10.3-6.9-20.4-14.1-30.6-21.1-1.6-1.1-3.1-2-2.8-4.2.7-1.8 1.8-2.6 3.7-1.8z" id="path847" fill="#319192"></path><path class="st74" d="M343 475c5.3 5 11.8 8.5 17.7 12.7 12 8.6 24.1 16.8 36.2 25.2.8.6 1.4 1.4 2.1 2h-5c-9.6-3.6-17-10.7-25.4-16.1-8.6-5.6-16.8-11.7-25.3-17.4-1.7-1.2-4-1.9-4-4.6.7-1.8 1.8-2.6 3.7-1.8z" id="path849" fill="#329293"></path><path class="st48" d="M361 515h-6c-7.2-2.2-12.6-7.3-18.6-11.3-7.4-5-14.8-10.1-22-15.3-2-1.4-5.1-2.5-3.3-6.1 1.3-1.1 2.9-1.3 4.5-1 11.1 7.2 21.8 14.9 32.7 22.5 3.5 2.4 7.2 4.7 10.6 7.3 1.4 1 3 1.8 2.1 3.9z" id="path851" fill="#359997"></path><path class="st94" d="M339.9 476.8c11.2 7.8 22.3 15.6 33.5 23.5 6.9 4.9 14.1 9.3 20.6 14.8h-5c-8.2-2.3-14.2-8.4-21-12.9-9.5-6.3-18.8-13-28.2-19.4-1.8-1.2-3.8-2.2-3.2-5 .9-1.3 1.9-1.8 3.3-1z" id="path853" fill="#329393"></path><path d="M440.1 288.7l.9.3v9c-14.4-9.8-28.8-19.7-43.2-29.5-4.4-3-8.9-5.7-12.8-9.5h5c7 2.4 12.5 7.4 18.5 11.4 9.2 6.2 18.3 12.5 27.4 18.9 1.3 1 2.5 1.7 4 .5 0-.3.1-.7.2-1.1z" id="path855" fill="#13536c"></path><path d="M232 511.1c-9.8-7.1-19.9-13.9-29.9-20.7-5.6-3.9-10.9-8.4-17.1-11.4v4.2c.2.5.4.9.5 1.4 0 .1.1.3.1.4l.3-.1c14.5 9.8 29.1 19.4 43.1 30.1h6c.5-2.4-1.6-2.9-3-3.9z" id="path857" fill="#3eaaa2"></path><path d="M378 515c-13.4-9.4-26.8-18.7-40.2-28.1-2.7-1.9-5.2-4-7.9-6 .4-2.9 2.4-3 4.7-2.6 8.3 7.4 18 12.7 26.9 19.3 6.4 4.7 13.2 8.8 19.4 13.6 1.3 1 3 1.7 2.1 3.8h-5z" id="path859" fill="#339595"></path><path class="st75" d="M383 515c-6.5-6.3-14.5-10.5-21.7-15.8-7.4-5.4-15.1-10.3-22.6-15.6-1.5-1.1-4.3-1.7-3.6-4.6.4-.9.9-1.5 2-.9 6.5 6.3 14.6 10.4 21.8 15.7 9.9 7.3 20.1 14.2 30.2 21.2H383z" id="path861" fill="#339494"></path><path d="M439.8 289.9c.7 4.1-1.1 3.3-3.4 1.7-13.1-9-26.3-18-39.4-27.2-2.4-1.7-5.3-2.9-7-5.5h6c3.7 4.7 9.2 7 13.9 10.3 9.8 7.2 19.9 13.9 29.9 20.7z" id="path863" fill="#12536b"></path><path class="st87" d="M298 293c-1.7 0-3.2-.2-4.7-1.2-14.7-10.3-29.4-20.5-44.1-30.7-.8-.6-1.4-1.4-2.1-2h5c7.1 1.9 12.2 7 18.1 10.9 8.6 5.8 17.1 11.8 25.7 17.7 1.6 1.1 3.5 2 3.7 4.3-.3.7-.7 1.3-1.6 1z" id="path865" fill="#1c6778"></path><path class="st82" d="M299.4 292.2c-15.8-11.1-31.6-22.1-47.4-33.2h6c11 4.7 19.7 12.8 29.6 19.2 5.8 3.8 11.8 7.2 16.8 12.2-1 2.6-2.6 3.2-5 1.8z" id="path867" fill="#1c6677"></path><path d="M235 515c-14.4-10.1-28.8-20.1-43.3-30.2-2.5-1.7-4.9-3.4-6.7-5.8v-2c15.2 10.4 30.5 20.8 45.7 31.3 3.2 2.2 6.2 4.5 9.3 6.7h-5z" id="path869" fill="#3daaa1"></path><path class="st32" d="M275 259c5.4 5 11.8 8.5 17.7 12.8 8.6 6.2 17.5 12.1 26.3 18.1-2.3 2.9-5.1 1.1-7.7.8-12.7-8.8-25.3-17.7-38.1-26.3-1.8-1.2-4.4-2.3-3.2-5.4h5z" id="path871" fill="#1a6375"></path><path class="st44" d="M304.3 290.1c-2.3 0-4.1-1.3-5.8-2.5-12.9-8.9-25.9-17.9-38.8-26.9-.7-.5-1.1-1.2-1.7-1.8h6c8.6 3.7 15.6 10 23.3 15 7.1 4.6 13.7 10 21 14.2.7.4.9.9.8 1.6-1.4 2-3 2-4.8.4z" id="path873" fill="#1b6577"></path><path class="st36" d="M309.3 289.1c-2.4.1-4.5-.9-6.5-2.2-11.9-8.3-23.7-16.5-35.6-24.8-1.3-.9-2.4-1.8-3.2-3.1h6c1.2 2.1 3.1 3.4 5 4.7 11 7.5 22 15.1 33 22.7 1.1.7 2 1.7 2.9 2.6-.4.5-1 .5-1.6.1z" id="path875" fill="#1b6476"></path><path class="st62" d="M361 515c-5.4-5-11.8-8.5-17.7-12.7-9-6.6-18.2-12.8-27.3-19.1 2.4-2.9 5-3.7 8-1v.8c4.1 4.9 9.9 7.5 14.9 11.1 8.3 6 16.9 11.5 25.1 17.6 1.2.9 2.9 1.2 2 3.3h-5z" id="path877" fill="#359896"></path><path class="st61" d="M311 483.1c3.7 4.6 8.9 7.2 13.6 10.6 10 7.2 20.3 14.2 30.4 21.3h-5c-12.5-8.7-25.1-17.4-37.6-26.1-1.9-1.3-3.8-2.7-5.6-4.1-1.3-1-.7-1.6.5-1.9 1.3-1.1 2.5-1.1 3.7.2z" id="path879" fill="#369a98"></path><path d="M366 515c-6.5-6.3-14.6-10.4-21.8-15.8-6.1-4.6-12.6-8.6-18.9-13.1-.9-.6-3.9-.8-1.4-3.1 15.6 10.3 31.2 20.6 46 32H366z" id="path881" fill="#349896"></path><path class="st101" d="M309.3 289.1c.6 0 1.2-.1 1.7-.1 2.7.3 5.3.6 8 .9 7.5 2.2 13.3 6.8 17.8 13.2.8 1.6 1.5 3.3 2.3 4.9.4 1.7.7 3.3 1.1 5 .2 3 1.4 5.8 1.4 8.8.1 1.3 0 2.5-.4 3.8-.1.5-.3.9-.5 1.3-.4.8-.8 1.5-1.1 2.3-.2.6-.5 1.1-.8 1.6-.1.4-.3.7-.5 1-.2.3-.4.7-.6 1l-.6.9c-.3.4-.7.8-1 1.2-.2.3-.4.5-.7.8l-.4.4c-.2.3-.5.5-.7.7l-.4.4c-.2.3-.5.5-.7.7 0 0-.4.3-.4.4-.2.3-.5.5-.7.7l-.4.3c-.2.2-.5.4-.7.7l-.4.4c-.2.3-.5.5-.7.7l-1.2.9c-.3.2-.6.4-.9.5-.4.3-.9.5-1.4.7-.3.2-.6.3-.9.4-.4.3-.9.5-1.4.7-.3.2-.7.3-1 .4-.7.3-1.4.5-2.2.7-.4.1-.8.2-1.2.4-.8.5-1.6.7-2.5.7-1.2 0-2.4.3-3.5.6-2 .1-4 0-6-.6-1-.1-1.9-.5-2.8-.8-.7-.2-1.4-.3-2.1-.4-.7-.2-1.4-.4-2-.7-3.8-2.3-7.6-4.5-10.8-7.7-.7-2.5-3-4-4.2-6.2-.2-.4-.3-.9-.4-1.3-.4-.9-1-1.7-1.2-2.6-.2-1.3-.6-2.5-.7-3.7.1-3.6-.3-7.2.5-10.7.3-.5.6-.9 1-1.4l.9-3c-.6-1.4.4-2.2 1.2-3 .3-.7.7-1.3 1-2 .7-1 1.4-2 2-3l1.8-2.1c2-1.7 4.1-3.3 6.1-5 .5-.3.9-.5 1.4-.8 1.6-.7 3.3-1.4 4.9-2 1.7-.1 3.4 0 5-1z" id="path883" fill="#fefefe"></path><path class="st101" d="M311 483.1c-1.2-.1-2.5-.2-3.7-.2-3.7-1-7.5-1.9-11.2-2.9-6.5-3.2-12.6-7.3-18-12.2-2.6-3.4-5.2-6.8-7.9-10.2 0-.3-.1-.5-.3-.6-.3-.4-.7-.8-.8-1.3-.3-.6-.6-1.2-.9-1.7-.1-.3-.3-.6-.4-1-.2-.4-.6-.8-.7-1.3-.3-1.8-.9-3.5-2-5l-2.1-7.8c0-2.8-.1-5.6-.9-8.2.2-.3.2-.5 0-.7v-3c.3-2.3.5-4.7.8-7 .3-1.7.6-3.3.9-5 .1-.7.2-1.3.3-2 .9-.8.9-1.9.9-3 .9-.8 1-1.9 1.1-3 .7-.5.9-1.2.9-2 .4-.9.8-1.8 1.3-2.6h-.1c.1-.6.4-.9.8-1.3.4-.7.8-1.3 1.1-2 .4-.6.7-1.2 1.1-1.7h-.1c.1-.6.5-.9 1-1.3.3-.4.5-.7.8-1.1.8-1 1.5-1.9 2.3-2.9l1.8-2.1c.6-.7 1.3-1.3 1.9-2 1.4-1.3 2.8-2.6 4.2-4 .7-.6 1.5-1.3 2.2-1.9.3-.2.6-.5.9-.7.3-.2.6-.4.9-.7.4-.2.7-.4.9-.8.4-.3.7-.7 1.2-.9l-.1.1c.3-.4.3-.8-.1-1.1-.5-.6-1.4-.4-2-.9l-.4-.2h-.4c-.4-.2-.8-.4-1.2-.7-.3-.1-.6-.2-1-.3-.6-.6-1.5-.3-2.1-1-.6-.5-1.5-.4-2-1h.1c-.3-.3-.7-.5-1-.7-.2-.3-.5-.4-.8-.3-.5-.2-.8-.5-1.2-.8l-.2-.2h-.3c-.7-.1-1.1-.5-1.5-1l.1.1c-.4-.2-.7-.6-1.2-.9h-.1c-.4-.7-1.5-.4-1.8-1.2l.1.1c-.5-.2-.8-.6-1.2-1-.3-.3-.7-.6-1.1-.9l-.1-.1c-.2-.3-.5-.6-.8-.7-.1-.3-.3-.4-.6-.4-.7-.1-1.1-.5-1.3-1.2-2.3-2.3-4.6-4.7-6.9-7-2.3-3.7-5.4-6.8-7.1-10.8-.1-1.3-.1-2.5-.2-3.8.5-1.6.9-3.3 1.4-4.9-.3-1.2.1-2.2.9-3.1.9-.7 1.5-1.7 2.5-2.4 1.2-.8 2.3-1.9 3.8-2.2 1.8-.1 3.5.2 5.3-.2 4.7.6 7.9 3.6 11 6.9.5.5.9 1 1.2 1.5.2.3.4.6.6 1l.6.9c.1.1.2.3.3.4.2.3.4.5.6.8l.3.4c.2.2.4.5.6.7 0 0 .3.4.3.3.2.2.5.4.7.7l.3.3c.3.2.5.4.7.6 0 0 .3.3.4.3.3.2.5.4.7.6l.4.3c.3.2.5.3.8.5.3.2.6.4.8.6.3.2.5.4.8.6l.4.3c.3.2.5.4.8.6l.4.3c.3.1.6.3.8.5.3.1.6.3.9.5.3.1.6.3.9.5.3.1.6.3.9.5.3.1.6.3.9.5.3.1.6.3.9.5.5.2.9.4 1.4.6.4.1.7.2 1 .3.6.2 1.1.3 1.6.5l1.2.3c.9.2 1.7.4 2.5.8 4.8 2.1 9.7 2.5 14.7 1.3.7-.1 1.4-.3 2-.5.4-.1.9-.2 1.3-.3 1-.1 2.1-.2 3.1-.4 1 0 1.9-.2 2.8-.7.3-.2.7-.3 1.1-.4.7-.2 1.4-.3 2.1-.7.5-.2 1-.5 1.4-.8.3-.2.6-.3.9-.5.5-.2.9-.4 1.4-.6.3-.2.6-.3.9-.4.4-.2.9-.5 1.3-.7.5-.2.8-.6 1.2-.9.2-.3.5-.5.8-.7l.9-.6c.6-.3 1.2-.7 1.8-1.1.2-.3.5-.5.7-.7.2-.3.5-.5.8-.7.1-.1.3-.2.4-.3.2-.3.5-.5.7-.7l.4-.4c.2-.3.5-.5.7-.8.1-.1.2-.3.4-.4.2-.3.5-.5.8-.7.6-.4 1.1-1 1.3-1.7.1-.4.3-.7.5-1 .2-.4.4-.7.7-1 .1-.2.3-.3.4-.5.2-.3.5-.6.8-.9.6-.5 1.3-1 1.7-1.7.2-.4.4-.7.7-1.1l.9-.9c.3-.3.7-.5 1.1-.8.6-.4 1.2-.6 1.9-.7.9-.4 1.7-.8 2.8-.7 1.6.6 3.4.7 5.1 1.2 4.1 1.1 7.1 3.5 9.2 7.1.3 1.3.7 2.7 1 4-.1 1.3-.1 2.7-.2 4-.4 1-.8 1.9-1.2 2.9-.7 1-1.3 2-2 3-.3.3-.5.7-.8 1-1.1.6-1.8 1.5-2.2 2.7-.6.7-1.2 1.5-1.9 2.2-.7.7-1.3 1.4-2 2.1l-2 2c-1 .9-2 1.9-3.1 2.8-.6.5-1.3 1-1.9 1.5-.7.5-1.4 1.1-2.1 1.6l-3 2.1c-.7.4-1.3.8-2 1.2l-3 1.8c-.7.4-1.4.8-2 1.2-.4.2-.7.5-1.1.8-.6.4-1.3.8-1.9 1.1-1.2.3-2.3.8-3.1 1.8-1.9.5-3.6 1.5-5.1 2.7-1 .5-1.9 1-2.9 1.6-1 .6-2 1.2-3 1.7-.7.4-1.3.7-2 1.1-1.6.3-2.8 1.1-4 2.1-.4.3-.8.6-1.3.8-.3-.1-.5 0-.7.3-.4 1-.7 2-1.6 2.7-.4.4-.9.8-1.4 1.1-.3.2-.6.4-1 .6-.3.2-.6.4-1 .5-.3.2-.7.3-1 .4-.3.1-.6.3-1 .5-.3.2-.6.5-.9.7-.4.4-.9.7-1.4 1.1-.8.5-1.6 1.1-2.5 1.7-.3.2-.7.4-1.1.5-.2.1-.3.2-.5.3-.3.2-.6.5-.9.7-.4.4-.8.8-1.3 1.1-.3.2-.7.4-1 .5-.7.4-1.1 1-1.5 1.5-.2.3-.5.6-.8.8l-.4.4c-.3.3-.6.5-.9.7-.2.1-.3.2-.5.3-.6.4-1 1.1-1.5 1.6-.3.3-.6.5-.8.7-.1.1-.3.2-.4.4-.5.5-.9 1.1-1.3 1.7-.3.4-.6.9-.9 1.3l-.6.9c-.3.5-.6 1-.8 1.5-.3 1.4-1.2 2.6-1.8 3.9-.5 1-.5 2.1-.7 3.2-.5 1.8-1.2 3.5-.8 5.4-.3 1.2-.2 2.4-.1 3.6-.2 1.2-.1 2.4.1 3.5-.2 2.1.8 3.9 1.7 5.7.4 1.3.4 2.8 1.3 4 .3.5.5 1 .9 1.4.3.2.5.5.7.8.2.3.4.5.6.8.1.1.2.3.3.4.2.3.4.5.6.8.2.2.4.5.5.8.2.2.4.5.5.8l.3.4c.2.2.4.4.6.7l.3.3c.3.2.5.4.7.6l.4.3c.3.1.5.3.8.5.3.1.6.3.8.5.3.1.6.3.8.5l.4.3c.3.2.6.3.9.5.3.2.6.3.9.5.3.1.6.3.9.5.2.1.3.2.5.2l1.5.6c.4.1.8.2 1.1.3.8.2 1.5.6 2.3.9 2.8 1.9 5.6.4 8.4 0 1.6.2 3.1-.2 4.5-.9.9-.1 1.6-.5 2.4-.9 1-.2 2-.4 2.9-1 .8-.6 1.8-.7 2.5-1.4.4-.4.9-.6 1.3-1 .3-.3.5-.5.8-.7.2-.3.5-.5.8-.7l.4-.4c.2-.3.5-.6.7-.8.1-.2.3-.3.4-.5.2-.3.5-.6.8-.9 1.4-.9 1.9-2.3 1.9-3.9.6-2.1 1-4.2.1-6.3-.2-.3-.4-.7-.5-1-.1-.2-.2-.3-.2-.5-.2-.3-.4-.6-.5-.8l-.3-.4c-.2-.2-.5-.4-.7-.6l-.4-.2c-.3-.1-.7-.2-1-.3h-1.2c-.4.1-.7.2-1.1.2-.3.2-.6.3-.9.4-.3.2-.5.4-.8.6-.2.3-.5.5-.7.7-.2.3-.5.5-.8.8-.5.6-1.2 1.1-1.8 1.6-1.5 1.4-3.1 2.5-5.1 3.2-1.1.4-2.3.7-3.5.8-.8 0-1.5 0-2.3-.2-4.6-.8-8.5-2.7-10.8-7-2.2-2.8-1.6-6-1.2-9.1-.1-1.2 0-2.5.7-3.5.2-.4.4-.8.5-1.3l.6-1.2c.1-.2.2-.4.4-.6.2-.4.5-.7.8-1 .6-.5 1.2-1.1 1.8-1.7.2-.3.5-.6.8-.9.3-.3.6-.5.8-.8.4-.4.8-.8 1.3-1.1.3-.2.6-.5.9-.6l.9-.6c.1-.1.3-.2.4-.3.4-.3.9-.6 1.4-.8l.9-.6c.3-.3.6-.5.9-.7.5-.3 1-.6 1.5-.8.5-.3 1-.7 1.5-1 .4-.3.8-.5 1.2-.7.6-.3 1.3-.6 2-.7 2.1.2 4-.8 6.1-.6 3.3 0 6.6-.1 10 .1 1.8.8 3.8 1.1 5.1 2.7l-.1-.1c.8.2 1.7.1 2.2.9l-.1-.1c.4.2.8.5 1.1.7.9.5 1.8.9 2.6 1.4 4.6 3.6 8.3 7.9 11.3 12.8 1 3 2 6 2.9 9 1 1.1 1.4 2.5 1.9 3.9-.3 3.1-.3 6.2.1 9.2-.5 1.5-.9 2.9-1.1 4.5-.5 1.1-.9 2.2-1.2 3.3-.3.8-.8 1.6-1.1 2.4-.4.7-.7 1.5-1.1 2.3-.5.7-.8 1.5-1.3 2.2-.7.8-1.3 1.7-1.9 2.5-1.3 1.4-2.1 3.4-3.8 4.4-.8.7-1.6 1.5-2.4 2.2-.9.7-1.9 1.2-3 .9-1 .7-2 1.5-2.9 2.2-1 .7-2 1.3-3 2-1 .6-2.1 1.2-3.1 1.7s-1.9.9-2.9 1.4c-.7.3-1.3.6-2 .9-1.8.3-3.5.8-5 1.8-2 .4-4 .9-6 1.3-2.7.3-5.3.6-8 1-1 .3-2.6.3-4.3.3z" id="path885" fill="#fefefe"></path><path class="st102" d="M316 391l3-1.8c6 5.7 13.2 9.7 19.9 14.5 1.8 1.3 4.2 2.1 4.9 4.7-1.6-.5-3.3-1-4.9-1.4-3.4-.9-6.8-.2-10.2-.4-7.9-.6-13.2-5.5-18.1-11-.1-.5 0-1 .3-1.4.5-.6 1.5-.4 1.9-1.2l-.1.1c.4-.2.8-.5 1.1-.8.1-.3.3-.4.6-.3.8-.2 1.2-.6 1.6-1z" id="path887" fill="#297f87"></path><path class="st102" d="M346 409.1c-.8-.1-1.7-.1-2.2-.9.8 0 1.6.2 2.2.9z" id="path889" fill="#297f87"></path><path class="st102" d="M347 409.8c-.4-.2-.8-.5-1.1-.7.3.2.7.4 1.1.7z" id="path891" fill="#297f87"></path><path class="st102" d="M319.7 388.9c.4-.3.8-.5 1.3-.8-.4.3-.9.6-1.3.8z" id="path893" fill="#297f87"></path><path class="st49" d="M364.2 437c-.1-1.3-.2-2.6-.3-4 22.4 15.4 44.7 30.9 67.1 46.2 3 2 5.6 4.7 9.2 5.8-.1.7-.2 1.3-.3 2-.4.7-.4 1.5-.7 2.2l.1-.1c-1.9 1.5-3.5.2-4.9-.8-16.6-11.4-33.3-22.8-49.8-34.4-6.6-4.6-13.7-8.6-19.6-14.2-.6-.8-.4-1.8-.8-2.7z" id="path895" fill="#2a8289"></path><path class="st29" d="M342.9 376c.4-.3.7-.5 1.1-.8-.4.2-.7.5-1.1.8z" id="path897" fill="#247681"></path><path class="st87" d="M354 333.8c-.1.3-.2.4-.5.3-.8.1-1.3.5-1.4 1.2l.2-.1c-5.2 1.3-11.1-2.3-13.5-8.3l.3-.9c.8-.9 0-2.2.9-3.1.1-3.3.1-6.6.2-9.9h.9c0 1.3.1 2.7.1 4 1.7 4.5 6.2 5.7 9.3 8.5 2.4 2.1 6.3 2.6 6.8 6.6l-2.1.9c-.4.3-.8.6-1.2.8z" id="path899" fill="#1c6778"></path><path class="st82" d="M357.3 332.1c-4.3-3-8.6-6.1-13-8.9-2.3-1.5-3.5-3.4-3.1-6.2 7.3 4.9 14.6 9.9 21.9 14.8-2 .1-3.9.2-5.8.3z" id="path901" fill="#1c6677"></path><path d="M255.8 335.9l-1.5 2.1c-3.2-.7-5.4-3.1-8-4.9-18.7-12.9-37.5-25.8-56.2-38.8-2.1-1.4-4.4-2.6-4.2-5.7-.2-.3-.1-.5.1-.8 4.5-.5 7.2 3 10.3 5.1 16.3 11.4 32.8 22.7 49.1 34 3.7 2.8 8.2 4.6 10.4 9z" id="path903" fill="#277c85"></path><path class="st61" d="M267.1 451.7c.2.4.5.9.7 1.3-.2-.5-.5-.9-.7-1.3z" id="path905" fill="#369a98"></path><path class="st49" d="M287 377.2c.7.3 1.3.6 2 .9-.7-.4-1.3-.7-2-.9z" id="path907" fill="#2a8289"></path><path class="st49" d="M272.1 368.8l1.8 1.2-1.8-1.2z" id="path909" fill="#2a8289"></path><path class="st49" d="M280 373.9c.7.3 1.4.7 2 1-.6-.3-1.3-.6-2-1z" id="path911" fill="#2a8289"></path><path class="st49" d="M282 375c.7.3 1.4.7 2.1 1-.7-.4-1.4-.7-2.1-1z" id="path913" fill="#2a8289"></path><path class="st49" d="M289 378c.3.1.5.2.8.3-.2.3-.5.5-.7.8-.1-.4-.1-.7-.1-1.1z" id="path915" fill="#2a8289"></path><path class="st49" d="M289.1 379l-1.2.9c.5-.2.9-.5 1.2-.9z" id="path917" fill="#2a8289"></path><path class="st49" d="M288 380c-.3.3-.6.5-.9.8.3-.3.6-.6.9-.8z" id="path919" fill="#2a8289"></path><path class="st49" d="M267.1 364.7c.4.4.9.8 1.3 1.2-.4-.4-.9-.8-1.3-1.2z" id="path921" fill="#2a8289"></path><path class="st49" d="M274 370.1c.4.3.8.6 1.1.9-.4-.3-.7-.6-1.1-.9z" id="path923" fill="#2a8289"></path><path class="st49" d="M275 370.9c.5.3 1 .7 1.5 1-.5-.3-1-.7-1.5-1z" id="path925" fill="#2a8289"></path><path class="st49" d="M277 372.1c.4.3.8.5 1.2.8-.4-.2-.8-.5-1.2-.8z" id="path927" fill="#2a8289"></path><path class="st49" d="M271 368c.4.3.8.6 1.2 1-.4-.4-.8-.7-1.2-1z" id="path929" fill="#2a8289"></path><path class="st49" d="M279 373.3c.3.2.7.5 1 .7-.3-.3-.6-.5-1-.7z" id="path931" fill="#2a8289"></path><path class="st49" d="M270 367.1c.4.3.7.6 1.1.9-.4-.3-.8-.6-1.1-.9z" id="path933" fill="#2a8289"></path><path class="st49" d="M269.1 366.3c.3.2.6.5.8.7-.3-.2-.6-.4-.8-.7z" id="path935" fill="#2a8289"></path><path class="st49" d="M285 376.2c.4.2.8.4 1.2.7-.4-.2-.8-.4-1.2-.7z" id="path937" fill="#2a8289"></path><path class="st27" d="M269.1 455.7c.3.4.5.9.8 1.3-.3-.5-.5-.9-.8-1.3z" id="path939" fill="#369b98"></path><path class="st67" d="M272.1 396c-.3.4-.6.8-1 1.3.4-.4.7-.9 1-1.3z" id="path941" fill="#2e8a8e"></path><path class="st69" d="M269 401c-.3.4-.5.9-.8 1.3.2-.4.5-.9.8-1.3z" id="path943" fill="#2f8d8f"></path><path class="st17" d="M364.2 437c.3.7.6 1.3.8 2 2.1 3.8 6.1 5.5 9.5 7.9 19.9 13.8 39.7 27.5 59.6 41.2 1.6 1.1 3.6 1.8 4.1 4-.2 1.9-1.1 3.5-2.3 4.9-1.8.9-3.2-.1-4.6-1.1-21.3-14.9-42.8-29.5-64.1-44.4-1.7-1.2-3.9-2.1-3.4-4.9.1-3.2.3-6.4.4-9.6z" id="path945" fill="#2b858a"></path><path class="st69" d="M353 467c1.3-1.6 2.7-3.2 4-4.8 22.2 14.9 43.8 30.5 66 45.3.6.4 1 .9 1.1 1.6-1.7 1.6-3.6 2.7-6 3-2.9.4-5.1-1-7.3-2.5-18.5-12.7-37-25.5-55.5-38.3-1.4-1-3.1-1.9-2.3-4.3z" id="path947" fill="#2f8d8f"></path><path class="st38" d="M363.8 446.6c9.3 6.6 18.6 13.3 27.9 19.8 14.7 10.2 29.4 20.4 44.1 30.5-.4.7-.8 1.3-1.2 2-2.8 2.3-4.7-.2-6.6-1.5-17.5-12-35-24.1-52.4-36.2-3.7-2.6-7.5-4.9-11-7.7-1-.8-1.6-1.6-1.9-2.8.3-1.3.1-2.8 1.1-4.1z" id="path949" fill="#2c868b"></path><path class="st52" d="M415.4 513.1c.4 0 .8 0 1.2-.1l.9-.3c.3-.1.5-.3.7-.6-14.5-8.8-28.1-19-42.1-28.6-7.8-5.4-16-10.2-23.1-16.5l-2 2c-1.7 2.7.7 3.6 2.2 4.6l54.3 37.5c2.4 1.7 4.9 2.9 7.9 2z" id="path951" fill="#308e90"></path><path class="st57" d="M360.9 455.7c.2-.6.5-1.3.7-1.9 1.7-.9 3-.2 4.5.8 21 14.4 41.8 29.1 62.8 43.4 1.6 1.1 2.9 2.2 3.1 4.2-.6.7-1.2 1.3-1.8 2-2.9.9-4.7-1.3-6.6-2.6-19.9-13.8-39.8-27.5-59.6-41.3-1.5-1.2-3.6-2-3.1-4.6z" id="path953" fill="#2d888c"></path><path class="st53" d="M438.2 492.1c-12.8-8.6-25.7-17.2-38.4-26-10.4-7.1-20.7-14.5-31.1-21.7-2-1.4-3.8-2.7-3.7-5.5 14.1 9.6 28.3 19.2 42.3 28.9 8.9 6.1 17.7 12.3 26.6 18.4 1.6 1.1 3.5 1.9 5.2 2.8 0 1.2 0 2.3-.9 3.1z" id="path955" fill="#2a8389"></path><path d="M432.1 502.2c-17.4-12.1-34.8-24.2-52.3-36.3-6-4.1-11.7-8.8-18.2-12.1.4-1 .7-2 1.1-2.9 12.2 8.3 24.4 16.6 36.6 25 9.9 6.8 19.7 13.6 29.6 20.4 1.7 1.2 3.4 2.8 5.8 2.7-.5.7-1.1 1.4-1.6 2-.4.4-.9.6-1 1.2z" id="path957" fill="#2c888c"></path><path class="st66" d="M424.2 509.1c-4.8-1.2-8.4-4.6-12.3-7.2-17.1-11.7-34.1-23.5-51.1-35.3-1.6-1.1-3.5-2.1-3.7-4.3.6-.9 1.2-1.7 1.8-2.6 21 15 42.4 29.3 63.5 44.2 1.5 1.1 3.8 1.6 3.6 4.2-.7.2-1.2.6-1.8 1z" id="path959" fill="#2e8b8e"></path><path class="st65" d="M360.9 455.7c7.8 5.6 15.6 11.3 23.5 16.8 15.3 10.6 30.7 21.1 46 31.6-.4.9-1.1 1.6-2.1 2-1.9.9-3.2-.4-4.5-1.3-20.3-14.2-40.9-28-61.1-42.4-1.7-1.2-3.3-2.3-2.8-4.7.3-.6.6-1.3 1-2z" id="path961" fill="#2d898d"></path><path class="st67" d="M359.9 457.7c1.4 2.9 4.3 4.2 6.7 5.9 20.5 14.2 41.1 28.3 61.7 42.5-.5.9-1.3 1.6-2.3 1.9-20.2-13.9-40.5-27.9-60.7-41.9-2.5-1.7-5.7-3-6.4-6.5.3-.6.6-1.2 1-1.9z" id="path963" fill="#2e8a8e"></path><path class="st73" d="M351 469c2.1 4.3 6.7 5.8 10.2 8.3 16.1 11.4 32.5 22.5 48.7 33.6 1.7 1.1 3.3 2.2 5.5 2.2-1.2 1.1-2.7 1-4.2 1-7.3-1.9-12.4-7.4-18.4-11.4-13.4-8.8-26.5-18.2-39.7-27.3-1.7-1.2-3.9-2-4.2-4.6l2.1-1.8z" id="path965" fill="#308f91"></path><path class="st53" d="M439.2 489.2c.2-.7.5-1.5.7-2.2.1.9 0 1.6-.7 2.2z" id="path967" fill="#2a8389"></path><path d="M276.9 339c-2.7-3.2-5.5-6.3-9.9-7.2-3.2-.8-6.1-2.3-8.9-4.2-20.8-14.2-41.4-28.7-62.3-42.9-2.6-1.8-5.4-3.4-6.1-6.8.5-1.4 1.2-2.8 2.4-3.7 4.3 1.5 7.7 4.5 11.3 7 33.1 23.2 66.6 45.8 99.7 69.1 3.3 2.3 6.4 5.5 11.1 4.9 1.4.6 3.3.2 4.1 2-5.9 1.7-11.6.4-17.3-1.2-.7-.5-1.6-.5-2.4-.8h-.4l-.3-.2c-.6-.6-1.5-.4-2.2-.9h-.4l-.4-.2c-.4-.3-.8-.6-1.3-.7-.3.1-.5 0-.7-.3-.4-.3-.8-.6-1.3-.7-.3.1-.5 0-.7-.3-.4-.2-.7-.5-1.1-.8l.1.1c-.4-.7-1.4-.5-1.9-1.2h-.1c-.4-.3-.7-.7-1.1-.9l.1.1c-.3-.5-.7-.9-1.3-1-.4 0-.6-.2-.7-.5-.4-.1-.6-.3-.7-.7l-.2-.1c-.4-.2-.7-.5-.9-.9l-.1-.1c-.4-.3-.7-.6-1-.9-.4-.3-.7-.6-1-1v-.1c-.4-.3-.7-.6-.9-1l-.1-.1c-.4-.2-.7-.5-.9-.9l-.1-.2c-.4-.1-.6-.3-.7-.7-.3-.1-.5-.4-.5-.7 0-.6-.4-1-.9-1.3z" id="path969" fill="#247782"></path><path class="st8" d="M189.6 277.9c-.1.2-.2.3-.4.5-.5 1-.9 2-1.4 3 0 .2 0 .3-.1.5-.7 2.6 1.3 3.5 2.9 4.6 21.2 14.8 42.6 29.4 63.7 44.2 2.1 1.5 4.2 2.6 6.9 1.6 1.9-.1 3.7-.2 5.6-.3-25.1-18.9-51.4-36.1-77.2-54.1z" id="path971" fill="#257883"></path><path d="M318.3 357.1c-1.8-.1-3.5-.1-5.3-.2-22.2-15-44.2-30.5-66.3-45.7-16.4-11.3-32.7-22.7-49.1-33.9-2-1.3-4.7-2.2-3.7-5.6.6-.7 1.3-1.4 1.9-2.1 8.6 4.7 16.3 10.8 24.3 16.3 17 11.6 33.9 23.3 50.7 35.1 6.9 4.8 14 9.5 20.6 14.8 3.2 2.9 6.6 5.4 10.5 7.3.3.4.6.7.9 1 5.2 1.9 9.8 4.7 14.2 8 1.5 1.1 3.5 2.1 2.9 4.6-.5.3-1.1.4-1.6.4z" id="path973" fill="#237581"></path><path class="st29" d="M193.9 271.8c4.6 6.2 11.7 9.2 17.8 13.5 32.3 22.6 64.8 44.9 97.3 67.3 1.7 1.1 3.3 2.3 4 4.3-2.5.2-4.4-1.2-6.3-2.5-33.6-23.3-67.3-46.6-100.8-69.9-4.7-3.3-10.3-5.4-13.8-10.4.2-1.1.9-1.8 1.8-2.3z" id="path975" fill="#247681"></path><path class="st56" d="M285 323.9c.8.9 1 1.9 1 3.1.6.5.4 1.4.9 2 .2.3.3.6.5.9-2.2 2.6-3.9.4-5.5-.8-16.9-11.7-33.8-23.4-50.8-35-10.4-7.1-20.6-14.5-31.1-21.5-1.3-.9-3.5-1.5-3.1-3.9.8-1.2 1.8-2.1 3.2-2.6 3.7.8 6.4 3.4 9.4 5.5 24.4 16.9 48.8 33.9 73.3 50.6.7.5 1.2 1.5 2.2 1.7z" id="path977" fill="#22737f"></path><path class="st55" d="M285 323.9c-1.9 1.6-3.1-.3-4.3-1.1-26.1-18-52.2-36.1-78.3-54.2-.9-.6-1.6-1.7-2.4-2.5.8-1 1.7-1.7 3-2 14.7 9 28.4 19.4 42.7 29 11.1 7.5 22.1 15.2 33.1 22.9.9.6 1.8 1.6 3.1.6.5-.7.6-1.6.7-2.4.3-1.2.6-2.4 2.3-2.2 0 4 .1 8 .1 11.9z" id="path979" fill="#22727f"></path><path class="st51" d="M282.2 309.9c-22.5-15.5-45-31-67.5-46.6-1-.7-2.6-1.2-1.8-3-.8 0-1.6.1-2.3.3-.2.1-.5.2-.8.3-.7.3-1.3.6-2 1-.9 2.1.6 3 2 3.9 4.7 3.1 9.3 6.4 13.9 9.6 17.8 12.1 35.6 24.2 53.1 36.7 2 1.4 3.9 3.7 7 2.8.3-1 .7-1.9 1-2.9.1-.3.1-.7.1-.9-.9-.4-1.9-.7-2.7-1.2z" id="path981" fill="#206f7d"></path><path class="st60" d="M283.8 317.9c.1 4-1.9 2-3.3 1.1-7-4.7-14.1-9.5-21-14.3-17.4-12-34.7-24-52.1-36.1-1.7-1.2-4-1.9-4.4-4.5.7-.4 1.3-.7 2-1.1 4.3.7 7.2 3.9 10.5 6.2 21.6 14.8 43.2 29.6 64.6 44.6 1.6 1.2 3 2.2 3.7 4.1z" id="path983" fill="#21717e"></path><path class="st50" d="M196.9 268.7c9.1 6.4 18.1 13 27.2 19.3 18.4 12.8 36.9 25.5 55.4 38.2 2.4 1.7 4.6 4 7.9 3.7 1.4 2 2.7 4 4.1 6-5.4-1.2-9.3-5.1-13.6-8-25.8-17.7-51.4-35.5-77.1-53.3-1.9-1.3-3.8-2.7-4.9-4.8.3-.5.6-.8 1-1.1z" id="path985" fill="#237480"></path><path d="M254.7 328.8c-17.9-12.4-35.9-24.7-53.7-37.3-4.4-3.1-9.4-5.6-13.1-9.8-.2.1-.3.3-.4.4-.2.3-.3.7-.5 1-.1.5-.2 1-.2 1.6-.6 2.1 1.1 2.9 2.4 3.8 21.3 14.6 42.5 29.4 63.7 44.1 1.5 1 2.9 2.3 4.9 1.3 1.2-.6 2.3-1.2 3.5-1.8-2.6-.3-4.6-1.9-6.6-3.3z" id="path987" fill="#267a84"></path><path class="st43" d="M186.9 284.7c7 5.9 14.8 10.7 22.2 15.8 16.2 11.2 32.5 22.3 48.8 33.4-.7.7-1.4 1.3-2.1 2-15.2-10.4-30.4-20.8-45.6-31.3-8.1-5.5-16.1-11.1-24.2-16.7-.1-1.1-.1-2.3.9-3.2z" id="path989" fill="#267b84"></path><path class="st89" d="M283.8 317.9c-26.3-18.3-52.5-36.5-78.8-54.8.8-.9 1.8-1.2 2.9-1.3 4.3 4.7 10.1 7.5 15.2 11.2 20.1 14.2 40.5 28 60.7 41.9v3z" id="path991" fill="#21707d"></path><path class="st59" d="M287 305l-1.2 3c-7.4-2.8-13.2-8.2-19.6-12.6-15.7-10.6-31.2-21.4-46.7-32.1-1-.7-2.8-1-2.2-2.7.1-.4 1.8-.4 2.7-.6 14 9.6 28 19.1 42 28.7 6.9 4.7 13.7 9.5 20.5 14.3 1.4.9 2.8 1.8 4.5 2z" id="path993" fill="#1f6d7c"></path><path class="st108" d="M308.7 324.1c-.3.1-.6 0-.8-.3-.4-.2-.7-.5-.9-.8-.3-.3-.7-.6-.9-1v-.1c-.7-.4-.4-1.4-1-1.9-.2-.1-.3-.3-.2-.6-.5-1.6-.6-3.1 0-4.7.4-2.5 1.8-4 4.2-4.7.8-1 2.1-.2 2.9-.9h1c.7.4 1.6.4 2.3.7.3-.1.5 0 .6.2.4.3.7.7 1.2.8l-.1-.1c.2.5.6.9 1.2 1.1l-.1-.1c.1.6.5.9.9 1.2.3.3.5.7.7 1 .1.6.2 1.2.4 1.8.5.9.5 1.7 0 2.6.1 2-.7 3.5-2.4 4.6-.1.4-.3.6-.7.7-.3.1-.6.3-.9.4-.3.3-.7.5-1.1.7-1.7.6-3.4.6-5.1.1-.4-.2-.7-.6-1.2-.7z" id="path995" fill="#1f6b7b"></path><path class="st55" d="M320 356.9L302 344c.4-.4.9-.5 1.4-.2.5.1 1.1.2 1.6.3.7.4 1.6.4 2.3.7l6.6.3c4.7 1 7.9 4.5 11.9 6.8 1.2.7 2 1.8 1.2 3.3-.8.8-1.9.8-2.9.8-.9.7-2.2.1-3.2.8-.2.1-.6.1-.9.1z" id="path997" fill="#22727f"></path><path class="st108" d="M347.7 341c-.6.7-1.2 1.3-1.8 2-.3.3-.6.7-1 1l-1 1-1 1c-.3.3-.6.7-1 .9l-.1.1c-5.3.7-10.7-2.9-11.9-7.9.3-.3.6-.6 1-.9l.1-.1c.2-.4.5-.7.9-.9l.1-.1c.2-.4.5-.7.9-.9l.1-.1c.2-.4.5-.7.9-1 .3-.4.6-.7.9-1.1l.9-1.2c5.4.9 9 4.1 12 8.2z" id="path999" fill="#1f6b7b"></path><path class="st109" d="M347.7 341c-4.8-1.5-8.7-4.5-11.9-8.3 0-.3.1-.6.4-.7.2-.4.5-.7.7-1.1v.1c.7-.5.5-1.5 1.1-2.1.3-.7.5-1.3.8-2 4.4 2.9 8.3 6.7 13.5 8.3-.7.9-1.5 1.9-2.2 2.8-.4.4-.8.7-1 1.2l.1-.2c-.6.3-1 .7-1.1 1.4.1.3-.1.5-.4.6z" id="path1001" fill="#1e6979"></path><path class="st110" d="M330 339c3.8 2.9 7.6 5.8 11.9 7.9-.6 1.1-1.5 1.7-2.7 2.1-.5.2-.8.6-1.2.9-6.1 1.2-10.6-1-13.3-6.4 0-.5.1-.9.3-1.4.2-.3.4-.3.8-.3.5-.2.8-.5 1.2-.8.1-.3.3-.3.5-.2.7-.1 1.1-.5 1.5-1 .3-.2.7-.5 1-.8z" id="path1003" fill="#216e7d"></path><path class="st111" d="M325 343c3.8 3.2 7.8 6.1 12.9 7-.6.4-1.2.7-1.7 1.1-.4.2-.8.5-1.2.8-.1.3-.3.4-.6.3-.6.1-1 .4-1.4.8l-.2.3h-.3c-5.7.4-10.9-2.6-13.1-7.6.1-.5.3-1 .7-1.4.3-.2.6-.3.9-.2.6-.6 1.4-.4 2-.8.2-.2.5-.3.8-.2.4-.5.8-.5 1.2-.1z" id="path1005" fill="#216f7d"></path><path class="st112" d="M320 345c3.2 4.1 7.5 6.6 12.4 8.1-.5.8-1.3.9-2.2 1-.7.4-1.6.3-2.3.9-.2.3-.5.4-.9.3-3.9-3.9-9.3-6-13.1-10.2 1.2-.1 2.3-.2 3.5-.3 1-.2 1.8-.5 2.6.2z" id="path1007" fill="#22717e"></path><path class="st113" d="M304.9 314.7v4.7c-1.1-1.5-1.1-3.1 0-4.7z" id="path1009" fill="#25707f"></path><path class="st109" d="M340 322.9c.1 1.1-.1 2.2-.9 3.1-.1-1.2.1-2.2.9-3.1z" id="path1011" fill="#1e6979"></path><path class="st114" d="M312 309.2c-1 .3-2 .6-2.9.9.8-1 1.8-1.2 2.9-.9z" id="path1013" fill="#236d7c"></path><path class="st55" d="M320 345c-.8 0-1.7-.1-2.5-.1.7-.7 1.6-.8 2.5-.7v.8z" id="path1015" fill="#22727f"></path><path class="st115" d="M307.4 344.9c-.8-.2-1.6-.5-2.3-.7.7.2 1.5.5 2.3.7z" id="path1017" fill="#257581"></path><path class="st112" d="M323 343.1c-.7.3-1.4.6-2 .8.6-.2 1.3-.5 2-.8z" id="path1019" fill="#22717e"></path><path class="st108" d="M338 328.9c-.4.7-.7 1.4-1.1 2.1.4-.7.7-1.4 1.1-2.1z" id="path1021" fill="#1f6b7b"></path><path class="st50" d="M286.9 329c-.3-.7-.6-1.3-.9-2 .3.7.6 1.3.9 2z" id="path1023" fill="#237480"></path><path class="st113" d="M305 320c.3.6.7 1.3 1 1.9-.7-.4-1-1-1-1.9z" id="path1025" fill="#25707f"></path><path class="st114" d="M320.1 318.4v-2.6c.6.8.6 1.7 0 2.6z" id="path1027" fill="#236d7c"></path><path class="st114" d="M315.4 309.9c-.8-.2-1.6-.5-2.3-.7.8-.2 1.6-.1 2.3.7z" id="path1029" fill="#236d7c"></path><path class="st115" d="M303.4 343.9c-.5.1-.9.1-1.4.2v-.8c.5.1.9.3 1.4.6z" id="path1031" fill="#257581"></path><path class="st112" d="M325 343c-.4 0-.8-.1-1.2-.1.4-.2.8-.5 1.2-.7v.8z" id="path1033" fill="#22717e"></path><path class="st111" d="M327 341.1c-.4.3-.8.5-1.2.8.4-.2.8-.5 1.2-.8z" id="path1035" fill="#216f7d"></path><path class="st111" d="M329 339.9c-.5.3-1 .7-1.5 1 .5-.3 1-.7 1.5-1z" id="path1037" fill="#216f7d"></path><path class="st110" d="M331 338.1c-.3.3-.7.6-1 .9.4-.3.7-.6 1-.9z" id="path1039" fill="#216e7d"></path><path class="st110" d="M332.1 337.2l-.9.9c.2-.4.5-.6.9-.9z" id="path1041" fill="#216e7d"></path><path class="st116" d="M333 336.1l-.9.9c.4-.3.7-.6.9-.9z" id="path1043" fill="#236e7d"></path><path class="st116" d="M334 335c-.3.3-.6.7-.9 1 .3-.3.6-.6.9-1z" id="path1045" fill="#236e7d"></path><path class="st116" d="M335 333.9c-.3.4-.6.7-.9 1.1.3-.4.6-.7.9-1.1z" id="path1047" fill="#236e7d"></path><path class="st108" d="M337 330.9c-.2.4-.5.7-.7 1.1.2-.4.4-.7.7-1.1z" id="path1049" fill="#1f6b7b"></path><path class="st113" d="M315 324.7c.4-.2.7-.4 1.1-.7-.3.3-.7.5-1.1.7z" id="path1051" fill="#25707f"></path><path class="st113" d="M308.7 324.1c.4.2.8.5 1.2.7-.3-.2-.8-.5-1.2-.7z" id="path1053" fill="#25707f"></path><path class="st113" d="M317 323.6c.2-.2.5-.4.7-.7-.2.3-.4.5-.7.7z" id="path1055" fill="#25707f"></path><path class="st113" d="M307 323c.3.3.6.5.9.8-.2-.3-.6-.6-.9-.8z" id="path1057" fill="#25707f"></path><path class="st113" d="M306.1 322c.3.3.6.7.9 1-.3-.4-.6-.7-.9-1z" id="path1059" fill="#25707f"></path><path class="st114" d="M319.7 314c-.2-.3-.5-.7-.7-1 .3.3.5.6.7 1z" id="path1061" fill="#236d7c"></path><path class="st114" d="M319.1 313l-.9-1.2c.2.4.5.8.9 1.2z" id="path1063" fill="#236d7c"></path><path class="st114" d="M318.3 311.9c-.4-.4-.8-.7-1.2-1.1.4.4.8.7 1.2 1.1z" id="path1065" fill="#236d7c"></path><path class="st114" d="M317.2 310.9c-.4-.3-.8-.5-1.2-.8.4.3.8.5 1.2.8z" id="path1067" fill="#236d7c"></path><path class="st74" d="M289 440c-1.2-1.8-1.7-3.9-1.8-6 1.7-1.6 3.2-.3 4.5.6 10.3 7 20.4 14.2 30.7 21.2.4.3.6.8.7 1.3-1.4 1.1-3 1.2-4.7 1.1-2.3.9-4.8.6-6.8-.5-8.6-4.6-16.8-9.5-22.6-17.7z" id="path1069" fill="#329293"></path><path d="M321 439c1.6-1.1 3.3-2.2 4.9-3.4 5.1 1.5 8.8 5.3 13.1 8.3-.2 2.1-1.3 3.7-2.9 5-.3.4-.7.6-1 1.1-.4.3-.7.6-1.1 1-.4.3-.7.6-1.1.9-.6.8-1.6.4-2.4.8-.7.1-1.3 0-1.9-.2-.8-.3-1.4-.9-2.1-1.2-.5-.3-1-.6-1.5-1s-1-.7-1.5-1c-.8-.6-1.5-1.4-2.5-1.8-.4-.2-.7-.4-1-.6-.3-.2-.6-.4-.9-.7-.3-.2-.6-.5-.9-.7-.1-.1-.3-.2-.4-.4-.3-.2-.6-.4-.8-.7l-.9-.6c-.3-.2-.6-.4-.9-.7l-.4-.4c-.4-.4-.8-.9-1-1.5-.1-.4-.1-.8 0-1.2.3-.3.6-.6 1-.6.6-.1 1.2.2 1.8.4h1.1c.9-.5 2.3 0 3.3-.8z" id="path1071" fill="#2f8c8f"></path><path d="M316.4 439.9c-.8.1-1.6.2-2.4.2-.3.2-.3.4-.3.6.1.2.2.3.2.3.5.6 1.5.4 2 1l1 1c.5.6 1.5.4 2 1l1 1c.3.3.7.6 1 1 1.3.7 2.7 1.3 4 2 .3.4.7.6 1 1l1 1c.5.6 1.5.4 2 1l1 1c.4.4 1.1.5 1.3 1.1-.8 1.1-1.9 1.7-3.3 1.9-4-.5-6.6-3.6-9.7-5.6-8.5-5.6-16.7-11.6-25.3-17.2-2.4-1.6-5-3.3-6.1-6.2-.1-2.1-.2-4.2 1-6.1 5.8 5 12.4 8.9 18.1 14 2.9 3.3 6.3 5.2 10.5 6z" id="path1073" fill="#318f91"></path><path d="M287 426l39 27c.8.6 1.4 1.4 2.1 2.1-.6.9-1.6 1.1-2.6 1.1-4.9-.1-8-3.8-11.6-6.2-7.7-5.2-15.2-10.6-22.9-15.8-1.7-1.1-3-2.5-4.1-4.3-.5-1.3-.4-2.6.1-3.9z" id="path1075" fill="#309091"></path><path class="st49" d="M311 395c5.7 3.7 11.3 7.3 17 11 .7.3.7.6 0 .8-1.8.4-3.6.8-5.5 1.3-.6 0-1.1.4-1.5.8-.2.2-.5.3-.8.2-4 .2-14.2-5.5-15.6-8.7-.3-.8-.3-1.6.4-2.3h.1c.2-.3.5-.6.9-.7 1.1-1.1 2.2-2.1 3.8-2.4.4-.4.8-.4 1.2 0z" id="path1077" fill="#2a8289"></path><path class="st77" d="M286.9 430c13.3 8.1 25.6 17.5 38.5 26.2-.6.8-1.5.9-2.4.8-9-3.7-16-10.5-24.1-15.6-3.9-2.5-7.4-5.5-11.7-7.4-.1-1.3-.2-2.7-.3-4z" id="path1079" fill="#319091"></path><path class="st65" d="M338.9 444c-6.3.3-9.5-4.3-13.1-8.3.5-.6 1-1.2 1.5-1.7 0-.4.2-.6.6-.6.1-.3.3-.4.6-.4.7-.1 1.1-.5 1.5-.9.6-.5 1.5-.4 2-.9 1-.4 2.1-.3 3.1.1.4.2.7.5 1.1.7l-.1-.1c.3.5.6.9 1.2 1l-.2-.2c.1.6.5.9 1 1.2l-.1-.1c.3.4.5.7.7 1.1 1.6 3.1 1.8 6.1.2 9.1z" id="path1081" fill="#2d898d"></path><path d="M306.1 433.8c-.6.7-1.4.9-2.2.4-4.8-3.3-9.5-6.6-14.3-9.9-1.6-1.1-1.6-2.8-1.7-4.4-.1-1.1 0-2.2.9-3.1 2.4-.6 4.1.9 5.9 2.1 3.2 2.1 6.2 4.5 10.1 5.1-.2 3.4-.1 6.7 1.3 9.8z" id="path1083" fill="#308d90"></path><path class="st94" d="M289 440c7.3 5.2 14.7 10.4 21.9 15.6 2.3 1.6 4.7 2.5 7.4 2.4-3.5 1.3-7 1-10.4-.2-.7-.5-1.6-.4-2.3-.8h-.4l-.3-.2c-.5-.5-1.5-.3-1.9-.9-.4-.4-.9-.8-1.5-.8-.3.1-.5 0-.6-.3-.4-.3-.7-.5-1.1-.8l.1.1c-.3-.5-.7-.9-1.4-1-.3 0-.6-.2-.7-.5-.4-.1-.6-.4-.8-.7l-.1-.1c-.4-.2-.7-.5-.9-.9l-.1-.1c-.4-.2-.7-.5-.9-.9l-.1-.1c-.4-.1-.6-.4-.7-.8-.3-.1-.4-.3-.4-.6-.1-.6-.5-1.1-1-1.4l.1.1c-.2-.5-.6-.8-.9-1.2v-.1c-.7-.5-.4-1.4-1.1-1.9-1.1-1-1.7-2.3-1.9-3.9z" id="path1085" fill="#329393"></path><path class="st121" d="M304.9 424c-1 2.1-2 3.1-4.4 1.3-3.8-2.9-8.1-5.1-11.5-8.5.1-1.9 1-3.4 2.2-4.8.4-.3.8-.5 1.3-.6 5.9 1.3 10.4 4.7 13.7 9.7-.5 1-.9 1.9-1.3 2.9z" id="path1087" fill="#2f8b8f"></path><path class="st122" d="M306.1 421.1c-5.4-2-9.3-6.2-14.1-9.1-.3-.2-.4-.5-.3-.7.1-.3.1-.4.2-.4l-.1.1c.8-.3.5-1.4 1.2-1.8.3-1 .9-1.8 1.9-2.2 6.2 1.3 10.5 5.6 15.2 9.3-.8.9-1.7 1.9-2.5 2.8-.1.4-.4.6-.7.8l-.1.1c-.1.4-.6.7-.7 1.1z" id="path1089" fill="#2d888d"></path><path class="st38" d="M316.9 411c-.6.4-1.1.7-1.7 1.1-.4.2-.8.6-1.2.9-.2.3-.5.6-.9.8-.1.3-.3.4-.6.4-2.1.8-4 .7-5.9-.8-2.2-1.6-4.6-3.2-6.9-4.6-1.8-1.2-3-2.6-1.7-4.9l-.1.1c.5-.3.8-.6 1.1-1.1l-.1.1c.4-.2.7-.7 1.1-1 .7-.6 1.3-1.1 2-1.7 5.2 3.1 11.1 5.4 14.9 10.7z" id="path1091" fill="#2c868b"></path><path class="st123" d="M316.9 411c-5.6-2.6-11.3-5.2-14.9-10.7.1-.3.3-.4.6-.4.6-.1 1-.5 1.4-1 .4-.3.7-.5 1.1-.8 4 5.1 9.8 7.8 15.2 11-.6.3-1.3.7-1.9 1-.5.2-.9.5-1.3.8z" id="path1093" fill="#2b848a"></path><path class="st124" d="M297.9 403.9c3.2 5.8 8.7 8.3 14.6 10.3-.3.3-.7.6-1 1-.7.1-1.2.5-1.4 1.2h.1c-5.9-1.7-10.4-5.9-15.2-9.3.5-.2.8-.7 1-1.1.3-1.1 1-1.8 1.9-2.1z" id="path1095" fill="#2d878c"></path><path class="st125" d="M328 406.8v-.8c3.7.3 7.4-.9 11 .9-3.7 0-7.3-.1-11-.1z" id="path1097" fill="#2b8189"></path><path class="st126" d="M321 439c-1 .9-2.2.9-3.5.9 1-.8 2.3-.9 3.5-.9z" id="path1099" fill="#318e91"></path><path class="st126" d="M331.3 453.1c-.4-.4-.9-.8-1.3-1.1h2.9c-.5.4-1.1.8-1.6 1.1z" id="path1101" fill="#318e91"></path><path class="st115" d="M321 356.8c.9-.8 2-.9 3.2-.8-.9.9-2 1-3.2.8z" id="path1103" fill="#257581"></path><path class="st127" d="M295.8 354.1c.7.3 1.5.6 2.2.9-.9 0-1.7-.1-2.2-.9z" id="path1105" fill="#2a7b85"></path><path class="st128" d="M332 431.1c-.7.3-1.4.6-2 .9.4-.8 1.1-1 2-.9z" id="path1107" fill="#2f898e"></path><path class="st121" d="M293.1 409.2l-1.2 1.8c.3-.6.7-1.2 1.2-1.8z" id="path1109" fill="#2f8b8f"></path><path class="st125" d="M313 392.9c-.6.4-1.3.8-1.9 1.2.6-.5 1.2-.9 1.9-1.2z" id="path1111" fill="#2b8189"></path><path class="st129" d="M290.9 444c.4.6.7 1.3 1.1 1.9-.3-.6-.7-1.2-1.1-1.9z" id="path1113" fill="#369595"></path><path class="st129" d="M303 456c.6.3 1.3.6 1.9.9-.7.1-1.4-.3-1.9-.9z" id="path1115" fill="#369595"></path><path class="st129" d="M305.7 457.1c.8.3 1.5.5 2.3.8-.9.1-1.7-.1-2.3-.8z" id="path1117" fill="#369595"></path><path class="st127" d="M298.6 355.1c.8.3 1.6.5 2.4.8-.9.1-1.8 0-2.4-.8z" id="path1119" fill="#2a7b85"></path><path class="st127" d="M288.1 350c.6.4 1.2.8 1.9 1.2-.7-.5-1.3-.9-1.9-1.2z" id="path1121" fill="#2a7b85"></path><path class="st55" d="M328 355c.8-.3 1.5-.6 2.3-.9-.6.8-1.4.9-2.3.9z" id="path1123" fill="#22727f"></path><path class="st127" d="M286.9 349.1c.4.3.8.6 1.1.9-.4-.4-.7-.7-1.1-.9z" id="path1125" fill="#2a7b85"></path><path class="st127" d="M285.7 348.1c.4.3.9.7 1.3 1-.5-.3-.9-.7-1.3-1z" id="path1127" fill="#2a7b85"></path><path class="st123" d="M321 408.8c.5-.2 1-.5 1.5-.8-.5.3-1 .6-1.5.8z" id="path1129" fill="#2b848a"></path><path class="st127" d="M284.2 346.9l.7.7-.7-.7z" id="path1131" fill="#2a7b85"></path><path class="st38" d="M317 410.9c.4-.3.9-.5 1.3-.8-.4.3-.9.5-1.3.8z" id="path1133" fill="#2c868b"></path><path class="st121" d="M291.9 410.9c0 .4.1.7.1 1.1h-.9c.3-.4.5-.7.8-1.1z" id="path1135" fill="#2f8b8f"></path><path class="st110" d="M342 346.9c.3-.3.7-.6 1-.9-.4.3-.7.6-1 .9z" id="path1137" fill="#216e7d"></path><path class="st127" d="M283.1 346l.9.9c-.3-.4-.6-.7-.9-.9z" id="path1139" fill="#2a7b85"></path><path class="st124" d="M314 412.9l1.2-.9-1.2.9z" id="path1141" fill="#2d878c"></path><path class="st124" d="M313 413.7c.3-.3.6-.5.9-.8-.3.3-.6.6-.9.8z" id="path1143" fill="#2d878c"></path><path class="st116" d="M343 346c.3-.3.7-.6 1-1-.3.3-.7.6-1 1z" id="path1145" fill="#236e7d"></path><path class="st122" d="M310.1 416.3c.5-.4.9-.8 1.4-1.2-.5.4-1 .8-1.4 1.2z" id="path1147" fill="#2d888d"></path><path class="st127" d="M282.1 345c.3.3.6.6 1 .9-.4-.3-.7-.6-1-.9z" id="path1149" fill="#2a7b85"></path><path class="st121" d="M307 419.9c.2-.3.5-.6.7-.8-.3.2-.5.5-.7.8z" id="path1151" fill="#2f8b8f"></path><path class="st116" d="M344 345l1-1-1 1z" id="path1153" fill="#236e7d"></path><path class="st121" d="M306 421.1l.9-1.2c-.3.5-.6.8-.9 1.2z" id="path1155" fill="#2f8b8f"></path><path class="st127" d="M281.1 344l1 1-1-1z" id="path1157" fill="#2a7b85"></path><path class="st116" d="M345 344c.3-.3.6-.7 1-1-.4.3-.7.7-1 1z" id="path1159" fill="#236e7d"></path><path class="st127" d="M280.1 343c.3.3.6.6.9 1-.3-.4-.6-.7-.9-1z" id="path1161" fill="#2a7b85"></path><path class="st128" d="M336.1 432c-.4-.2-.7-.5-1.1-.7.4.2.8.4 1.1.7z" id="path1163" fill="#2f898e"></path><path class="st128" d="M330 432l-1.5.9 1.5-.9z" id="path1165" fill="#2f898e"></path><path class="st128" d="M337.3 432.9c-.4-.3-.8-.7-1.2-1 .3.3.7.7 1.2 1z" id="path1167" fill="#2f898e"></path><path class="st127" d="M279.2 341.9l.9.9c-.3-.2-.6-.5-.9-.9z" id="path1169" fill="#2a7b85"></path><path class="st128" d="M338.1 434c-.3-.4-.7-.8-1-1.2.3.3.7.8 1 1.2z" id="path1171" fill="#2f898e"></path><path class="st127" d="M278.4 341.1c.3.2.5.4.7.7l-.7-.7z" id="path1173" fill="#2a7b85"></path><path class="st128" d="M338.8 435c-.2-.4-.5-.7-.7-1.1.2.3.4.7.7 1.1z" id="path1175" fill="#2f898e"></path><path class="st108" d="M348.1 340.4c.4-.5.7-.9 1.1-1.4-.4.5-.7 1-1.1 1.4z" id="path1177" fill="#1f6b7b"></path><path class="st127" d="M276.9 339c.3.4.7.9 1 1.3-.3-.4-.7-.8-1-1.3z" id="path1179" fill="#2a7b85"></path><path class="st108" d="M349.1 339.2c.3-.4.6-.8 1-1.2-.4.4-.7.8-1 1.2z" id="path1181" fill="#1f6b7b"></path><path class="st127" d="M293.7 353.1c.4.2.9.5 1.3.7-.5-.2-.9-.4-1.3-.7z" id="path1183" fill="#2a7b85"></path><path class="st112" d="M333 352.9c.5-.3.9-.5 1.4-.8-.5.3-.9.5-1.4.8z" id="path1185" fill="#22717e"></path><path class="st129" d="M292.1 446l.9 1.2-.9-1.2z" id="path1187" fill="#369595"></path><path class="st109" d="M352.1 335.3c.5-.4 1-.8 1.4-1.2-.4.4-.9.8-1.4 1.2z" id="path1189" fill="#1e6979"></path><path class="st129" d="M292.8 447c.3.5.7.9 1 1.4-.3-.4-.6-.9-1-1.4z" id="path1191" fill="#369595"></path><path class="st129" d="M294.3 449.1c.2.3.5.5.7.8-.2-.3-.4-.6-.7-.8z" id="path1193" fill="#369595"></path><path class="st126" d="M335 450.1c.3-.4.7-.7 1-1.1-.3.4-.6.7-1 1.1z" id="path1195" fill="#318e91"></path><path class="st129" d="M295.2 450l.9.9c-.4-.3-.6-.6-.9-.9z" id="path1197" fill="#369595"></path><path class="st127" d="M291.7 352.1c.4.2.9.5 1.3.7-.5-.2-.9-.4-1.3-.7z" id="path1199" fill="#2a7b85"></path><path class="st126" d="M334 451c.4-.3.7-.7 1.1-1-.4.4-.7.7-1.1 1z" id="path1201" fill="#318e91"></path><path class="st129" d="M296.1 451l.9.9c-.3-.4-.6-.6-.9-.9z" id="path1203" fill="#369595"></path><path class="st126" d="M333 451.9c.4-.3.7-.6 1.1-.9-.4.3-.8.6-1.1.9z" id="path1205" fill="#318e91"></path><path class="st109" d="M354 333.8c.4-.3.8-.5 1.1-.8-.3.3-.7.6-1.1.8z" id="path1207" fill="#1e6979"></path><path class="st129" d="M297.2 451.9c.3.2.5.5.8.7-.3-.2-.6-.4-.8-.7z" id="path1209" fill="#369595"></path><path class="st128" d="M327.9 433.3l-.6.6c.1-.3.3-.5.6-.6z" id="path1211" fill="#2f898e"></path><path class="st129" d="M298.6 453.1c.5.3.9.7 1.4 1-.5-.3-.9-.7-1.4-1z" id="path1213" fill="#369595"></path><path class="st129" d="M299.9 454c.4.3.7.5 1.1.8-.4-.2-.7-.5-1.1-.8z" id="path1215" fill="#369595"></path><path class="st112" d="M335 351.9c.4-.3.8-.5 1.2-.8-.4.2-.8.5-1.2.8z" id="path1217" fill="#22717e"></path><path class="st129" d="M301.5 455.1c.5.3 1 .6 1.5.8-.5-.2-1-.5-1.5-.8z" id="path1219" fill="#369595"></path><path class="st127" d="M289.9 351.1c.4.3.7.5 1.1.8-.4-.3-.8-.6-1.1-.8z" id="path1221" fill="#2a7b85"></path><path class="st125" d="M316 391c-.5.3-1 .6-1.4.9.5-.3.9-.6 1.4-.9z" id="path1223" fill="#2b8189"></path><path class="st125" d="M314 392.2c-.4.3-.7.5-1.1.8.3-.3.7-.6 1.1-.8z" id="path1225" fill="#2b8189"></path><path class="st125" d="M311 395c-.4 0-.8-.1-1.3-.1.4-.3.9-.6 1.3-.9v1z" id="path1227" fill="#2b8189"></path><path class="st111" d="M338 350l1.2-.9-1.2.9z" id="path1229" fill="#216f7d"></path><path class="st123" d="M306 397.3c-.3.2-.6.5-.9.7.3-.2.6-.4.9-.7z" id="path1231" fill="#2b848a"></path><path class="st38" d="M304 398.9c-.5.3-.9.7-1.4 1 .5-.4.9-.7 1.4-1z" id="path1233" fill="#2c868b"></path><path class="st124" d="M300 402c-.4.3-.7.7-1.1 1 .4-.4.7-.7 1.1-1z" id="path1235" fill="#2d878c"></path><path class="st124" d="M299 402.9l-1.1 1.1c.3-.4.7-.7 1.1-1.1z" id="path1237" fill="#2d878c"></path><path class="st122" d="M295.9 405.8c-.3.4-.7.8-1 1.1.4-.3.7-.7 1-1.1z" id="path1239" fill="#2d888d"></path><path class="st126" d="M316 442c-.7-.3-1.3-.7-2-1 .7.3 1.3.7 2 1z" id="path1241" fill="#318e91"></path><path class="st126" d="M319 444c-.7-.3-1.3-.7-2-1 .7.3 1.3.7 2 1z" id="path1243" fill="#318e91"></path><path class="st126" d="M329 451c-.7-.3-1.3-.7-2-1 .7.3 1.3.7 2 1z" id="path1245" fill="#318e91"></path><path class="st126" d="M314 441c-.1-.2-.2-.4-.2-.6 0-.1.2-.2.3-.2-.1.2-.1.5-.1.8z" id="path1247" fill="#318e91"></path><path class="st126" d="M317 443l-1-1 1 1z" id="path1249" fill="#318e91"></path><path class="st126" d="M320 445l-1-1 1 1z" id="path1251" fill="#318e91"></path><path class="st126" d="M321 446l-1-1 1 1z" id="path1253" fill="#318e91"></path><path class="st126" d="M326 449l-1-1 1 1z" id="path1255" fill="#318e91"></path></g></g></svg>