<svg width="210" height="194" viewBox="0 0 210 194" xmlns="http://www.w3.org/2000/svg"><title>Group</title><g fill="none" fill-rule="evenodd"><path d="M105.061 193.655l38.64-118.921h-77.28l38.64 118.921z" fill="#E24329"></path><path d="M105.061 193.655L66.421 74.734H12.268l92.793 118.92z" fill="#FC6D26"></path><path d="M12.268 74.734L.526 110.874a8 8 0 0 0 2.907 8.943l101.628 73.838-92.793-118.92z" fill="#FCA326"></path><path d="M12.268 74.734h54.153L43.148 3.11c-1.197-3.686-6.41-3.685-7.608 0L12.27 74.734z" fill="#E24329"></path><path d="M105.061 193.655l38.64-118.921h54.153l-92.793 118.92z" fill="#FC6D26"></path><path d="M197.854 74.734l11.742 36.14a8 8 0 0 1-2.906 8.943l-101.629 73.838 92.793-118.92z" fill="#FCA326"></path><path d="M197.854 74.734h-54.153L166.974 3.11c1.197-3.686 6.411-3.685 7.608 0l23.272 71.625z" fill="#E24329"></path></g></svg>