<svg xmlns="http://www.w3.org/2000/svg" viewBox="0 0 512 390.035" width="512" height="390.035"><g fill="#f2f2f2"><path d="M484.973 61.825l-32.685 328.209H59.712L33.379 68.177 256 192.819z"></path><path d="M473.886 0L256 204.676 38.114 0H256z"></path></g><path d="M59.712 94.51v295.524H24.139C10.812 390.034 0 379.223 0 365.895V50.984l39 1.063z" fill="#f14336"></path><path d="M512 50.984v314.912c0 13.327-10.812 24.139-24.152 24.139h-35.56V94.51l19.692-46.525z" fill="#d32e2a"></path><path d="M512 24.139v26.845L452.288 94.51 256 237.578 59.712 94.51 0 50.984V24.139C0 10.812 10.812 0 24.139 0h13.975L256 158.809 473.886 0h13.962C501.188 0 512 10.811 512 24.139z" fill="#f14336"></path><path d="M59.712 94.51L0 85.252V50.984z" fill="#d32e2a"></path></svg>