<svg xmlns="http://www.w3.org/2000/svg" version="1.1" id="Layer_1" x="0" y="0" viewBox="0 0 68.2 101.8" xml:space="preserve" width="68.2" height="101.8"><style type="text/css" id="style51">.st0{fill:#c0bfbd}.st1{fill:#45b035}.st2{fill:#8a8985}.st3{fill:#eb7500}.st4{fill:#23201f}.st5{fill:#fff}.st6{fill:#009d42}</style><g id="XMLID_1_" transform="translate(-46.7 -197.7)"><g id="XMLID_30_"><g id="XMLID_123_"><g id="XMLID_132_"><path id="XMLID_133_" class="st0" d="M227.5 527.9l4.8-5.9h4.3l-5.4 6 5.7 8.1h-4.5l-3.2-5.5-1.8 1.6v3.9H224V517h3.4c0-.1-.3 11.3.1 10.9z" fill="#c0bfbd"></path></g><path id="XMLID_130_" class="st0" d="M193.3 522.8l-1.2 2.4c-1.4-.7-2.4-1-3.4-1-1.1 0-1.8.5-1.8 1.4 0 .7.5 1.1 1.7 1.4l1.7.4c1.7.4 2.3.9 2.8 1.6.5.7.8 1.4.8 2.4 0 2.9-2.4 4.8-5.9 4.8-1.7 0-3.6-.5-5.6-1.6l1.3-2.7c1.1.7 3 1.6 4.6 1.6 1 0 1.8-.7 1.8-1.6 0-.9-.7-1.4-2.1-1.7l-1.6-.3c-.9-.2-2.1-.8-2.5-1.4-.5-.6-.8-1.6-.8-2.5 0-2.7 2.1-4.5 5.4-4.5 2 0 3.5.7 4.8 1.3z" fill="#c0bfbd"></path><path id="XMLID_127_" class="st0" d="M205.8 532.1l1.4 2.2c-1.6 1.3-3.3 1.9-5.2 1.9-4 0-6.6-2.8-6.6-7.2 0-2.5.5-4.1 1.7-5.5 1.1-1.3 2.5-1.9 4.4-1.9 1.6 0 3.1.5 4 1.5 1.3 1.3 1.8 3.2 1.8 6.1v.8h-8v.1c0 2.1 1.1 3.4 2.9 3.4 1.4 0 2.5-.5 3.6-1.4zm-6.4-4.7h4.2v-.2c0-1-.1-1.6-.4-2.1-.4-.5-.9-.8-1.6-.8-1.4 0-2.2 1.1-2.2 3.1z" fill="#c0bfbd"></path><path id="XMLID_124_" class="st0" d="M219.6 532.1l1.4 2.2c-1.6 1.3-3.3 1.9-5.2 1.9-4 0-6.6-2.8-6.6-7.2 0-2.5.5-4.1 1.7-5.5 1.1-1.3 2.5-1.9 4.4-1.9 1.6 0 3.1.5 4 1.5 1.3 1.3 1.8 3.2 1.8 6.1v.8h-8v.1c0 2.1 1.1 3.4 2.9 3.4 1.3 0 2.5-.5 3.6-1.4zm-6.4-4.7h4.2v-.2c0-1-.1-1.6-.4-2.1-.4-.5-.9-.8-1.6-.8-1.4 0-2.2 1.1-2.2 3.1z" fill="#c0bfbd"></path></g></g><g id="XMLID_18_"><path id="XMLID_28_" class="st1" d="M238.7 516.4h1.8v16.3c0 .5.1.9.4 1.2.3.3.7.4 1.2.4.2 0 .4 0 .7-.1.3-.1.5-.1.7-.2l.3 1.5c-.3.1-.8.3-1.2.3-.5.1-.9.1-1.3.1-.8 0-1.5-.2-2-.7-.5-.5-.7-1.1-.7-2v-16.8z" fill="#45b035"></path><path id="XMLID_25_" class="st1" d="M250.8 536.1c-1 0-1.9-.2-2.8-.6-.8-.4-1.6-.9-2.2-1.6-.6-.7-1.1-1.4-1.4-2.3-.3-.9-.5-1.8-.5-2.7 0-1 .2-1.9.5-2.8.3-.9.8-1.6 1.4-2.3.6-.7 1.3-1.2 2.2-1.6.8-.4 1.8-.6 2.7-.6 1 0 1.9.2 2.8.6.8.4 1.6.9 2.2 1.6.6.7 1.1 1.4 1.4 2.3.3.9.5 1.8.5 2.8 0 1-.2 1.9-.5 2.7-.3.9-.8 1.6-1.4 2.3-.6.7-1.3 1.2-2.2 1.6-.8.5-1.7.6-2.7.6zm-5.1-7.1c0 .8.1 1.5.4 2.2.3.7.6 1.3 1.1 1.8.5.5 1 .9 1.6 1.2.6.3 1.3.4 2 .4s1.3-.1 2-.4c.6-.3 1.2-.7 1.6-1.2.5-.5.8-1.1 1.1-1.8.3-.7.4-1.4.4-2.2 0-.8-.1-1.5-.4-2.2-.3-.7-.6-1.3-1.1-1.8-.5-.5-1-.9-1.6-1.2-.6-.3-1.3-.4-2-.4s-1.3.1-1.9.4c-.6.3-1.1.7-1.6 1.2s-.8 1.1-1.1 1.8c-.3.7-.5 1.4-.5 2.2z" fill="#45b035"></path><path id="XMLID_22_" class="st1" d="M265.2 536.1c-1 0-1.8-.2-2.6-.6-.8-.4-1.5-.9-2.1-1.6-.6-.7-1-1.4-1.3-2.3-.3-.9-.5-1.7-.5-2.6 0-1 .2-1.9.5-2.8.3-.9.8-1.7 1.3-2.3.6-.7 1.2-1.2 2-1.6.8-.4 1.7-.6 2.6-.6 1.2 0 2.2.3 3.1.9.9.6 1.6 1.3 2.2 2.3V522h1.6v14c0 1-.2 1.8-.5 2.5-.4.7-.9 1.4-1.5 1.9s-1.3.9-2.2 1.1c-.8.2-1.7.4-2.6.4-1.6 0-2.9-.3-3.9-.9-1-.6-1.8-1.3-2.4-2.3l1.1-.9c.6.9 1.3 1.5 2.2 2 .9.4 1.9.6 2.9.6.7 0 1.3-.1 1.9-.3.6-.2 1.1-.5 1.6-.8.5-.4.8-.8 1.1-1.4.3-.6.4-1.2.4-2v-2.7c-.5.9-1.3 1.6-2.2 2.1-.7.5-1.7.8-2.7.8zm.5-1.6c.5 0 1.1-.1 1.6-.3.5-.2 1-.5 1.4-.8.4-.3.8-.7 1.1-1.1.3-.4.5-.8.6-1.3v-4.3c-.2-.5-.5-1-.8-1.4-.3-.4-.7-.8-1.1-1.1-.4-.3-.9-.5-1.4-.7-.5-.2-1-.3-1.5-.3-.8 0-1.5.2-2.1.5-.6.3-1.1.8-1.6 1.3-.4.5-.8 1.1-1 1.8-.2.7-.3 1.4-.3 2.1 0 .7.1 1.5.4 2.1.3.7.6 1.3 1.1 1.8.5.5 1 .9 1.6 1.2.6.4 1.3.5 2 .5z" fill="#45b035"></path><path id="XMLID_19_" class="st1" d="M281 536.1c-1 0-1.9-.2-2.8-.6-.8-.4-1.6-.9-2.2-1.6-.6-.7-1.1-1.4-1.4-2.3-.3-.9-.5-1.8-.5-2.7 0-1 .2-1.9.5-2.8.3-.9.8-1.6 1.4-2.3.6-.7 1.3-1.2 2.2-1.6.8-.4 1.8-.6 2.7-.6 1 0 1.9.2 2.8.6.8.4 1.6.9 2.2 1.6.6.7 1.1 1.4 1.4 2.3.3.9.5 1.8.5 2.8 0 1-.2 1.9-.5 2.7-.3.9-.8 1.6-1.4 2.3-.6.7-1.3 1.2-2.2 1.6-.8.5-1.7.6-2.7.6zm-5-7.1c0 .8.1 1.5.4 2.2.3.7.6 1.3 1.1 1.8.5.5 1 .9 1.6 1.2.6.3 1.3.4 2 .4s1.3-.1 2-.4c.6-.3 1.2-.7 1.6-1.2.5-.5.8-1.1 1.1-1.8.3-.7.4-1.4.4-2.2 0-.8-.1-1.5-.4-2.2-.3-.7-.6-1.3-1.1-1.8-.5-.5-1-.9-1.6-1.2-.6-.3-1.3-.4-2-.4s-1.3.1-1.9.4c-.6.3-1.1.7-1.6 1.2s-.8 1.1-1.1 1.8c-.4.7-.5 1.4-.5 2.2z" fill="#45b035"></path></g><g id="XMLID_2_"><path id="XMLID_3_" class="st2" d="M291.7 534.6c0 .5-.2 1-.6 1.4-.4.4-.8.6-1.4.6-.5 0-1-.2-1.4-.6-.4-.4-.6-.8-.6-1.4 0-.6.2-1 .6-1.4.4-.4.8-.6 1.4-.6.6 0 1 .2 1.4.6.4.3.6.8.6 1.4z" fill="#8a8985"></path><path id="XMLID_20_" class="st2" d="M293.5 522.3h2.5v2h.1c.4-.7 1-1.3 1.9-1.7.8-.5 1.7-.7 2.6-.7 1.7 0 3 .5 4 1.5.9 1 1.4 2.4 1.4 4.2v8.8h-2.6v-8.7c-.1-2.3-1.2-3.4-3.5-3.4-1.1 0-1.9.4-2.6 1.3-.7.9-1.1 1.9-1.1 3.1v7.8h-2.6v-14.2z" fill="#8a8985"></path><path id="XMLID_23_" class="st2" d="M314.2 536.8c-2.1 0-3.8-.7-5.1-2.1-1.3-1.4-2-3.2-2-5.4 0-2.1.7-3.9 2-5.4 1.3-1.4 3-2.1 5-2.1 2.1 0 3.7.7 5 2 1.2 1.3 1.9 3.2 1.9 5.7v.3h-11.1c0 1.4.5 2.5 1.4 3.3.9.8 1.9 1.3 3.2 1.3 1.7 0 3-.8 4-2.5l2.4 1.1c-.6 1.2-1.5 2.1-2.6 2.8-1.4.7-2.7 1-4.1 1zm-4.2-9.2h8.1c-.1-1-.5-1.8-1.2-2.4-.7-.6-1.7-1-2.9-1-1 0-1.9.3-2.6.9-.7.7-1.2 1.5-1.4 2.5z" fill="#8a8985"></path><path id="XMLID_27_" class="st2" d="M327.3 536.6c-1.1 0-2.1-.4-2.9-1.1-.8-.7-1.1-1.7-1.2-3v-7.9h-2.5v-2.4h2.5V518h2.6v4.3h3.4v2.4h-3.4v7c0 .9.2 1.6.5 1.9.4.3.8.5 1.2.5.2 0 .4 0 .6-.1.2 0 .4-.1.6-.2l.8 2.4c-.5.2-1.3.4-2.2.4z" fill="#8a8985"></path></g></g><g id="XMLID_65_" transform="translate(-46.7 -197.7)"><path id="XMLID_51_" class="st3" d="M75.7 207.6v-.5c0-2.4 2.2-5 2.3-7.7v-.1c0-.5-.4-.8-.7-.9-.3-.2-.7-.2-1.2-.2-1 0-2.3.4-3 1.4-1.1 2.3-2.9 4.8-2.9 7.3 0 .8.2 1.6.7 2.4 1 2.2 2.3 4.1 3.3 6.4.2.4.3.8.3 1.2 0 .7-.3 1.3-.9 2-.2.2-1.3.2-1.9 1.1v.5c0 1 .8 1.6 1.6 1.9.5.2.9.3 1.4.3 1.7 0 3.2-1.1 3.9-2.3.6-1 .8-1.9.8-2.8-.2-3.6-3.4-6.8-3.7-10" fill="#eb7500"></path><path id="XMLID_50_" class="st3" d="M88.8 212c-1.8-2.7-2.1-3.1-3.1-5.1-.2-.5-.7-1.2-.7-2 0-.6.2-1.4 1.2-2.2.5-.5.7-1.2.7-1.9 0-.9-.3-1.8-1-2.4-.7-.5-1.3-.7-1.9-.7-1.2 0-2 1-2.6 2.1-.6 1.2-1 2.6-1.5 4-.2.6-.3 1.1-.3 1.7.1 4.1 4.5 7.3 5.4 11.1.1.4.2.8.2 1.1 0 .9-.3 1.8-.7 2.9-.1.3-.2.6-.2.8 0 1.3 1.1 1.9 2.1 1.9.6 0 1.2-.2 1.6-.7 2.1-2.1 2.9-4 2.9-5.6.1-2-1.1-3.5-2.1-5" fill="#eb7500"></path><path id="XMLID_49_" class="st3" d="M52.5 211.7c-.4-.7-.5-1.6-.5-2.5 0-1.2.2-2.6.2-3.9 0-.7-.1-1.4-.3-2.1-.2-.5-.7-.7-1.2-.7-1.2 0-2.9.9-3.3 2.4-.2 1.8-.7 3.7-.7 5.6 0 1.6.5 3.1 1.8 4.3 2 1.9 4.1 3.4 5.3 5.1.5.7.8 1.2.8 1.8 0 .4-.1.8-.3 1.3-.3.5-1.2 1.8-1.3 2.7v.2c0 .4.4.8.8.8h.1c.5 0 .8-.2 1.2-.2H55.4c2.3 0 3.8-1.8 4.2-3.5.1-.4.1-.8.1-1.1-.2-4.7-5.5-6.8-7.2-10.2" fill="#eb7500"></path><path id="XMLID_48_" class="st3" d="M65.9 210.8c-1.7-2.8-4-5.4-4.3-8.1l.1-.1c.3-.3 1.5-.4 2.3-.7.5-.1 1.1-.4 1.7-.7.5-.3 1.1-.7 1.1-1.4 0-.3-.2-.7-.5-.9-.9-.5-1.9-.8-2.9-.8-3 0-6.2 2-6.9 4.9-.1.5-.2.9-.2 1.3.1 4.3 4.9 7.3 6.1 11.1.2.5.2.9.2 1.4 0 .8-.2 1.7-.5 2.7-.1.2-.1.4-.1.6 0 .5.3 1 .7 1.2.4.2.8.3 1.3.3.9 0 1.9-.3 2.5-1 1-1.3 1.4-2.7 1.4-4 0-2.1-.9-4.1-2-5.8" fill="#eb7500"></path><path id="XMLID_47_" class="st4" fill="#23201f" d="M99 285.4h-.2"></path><path id="XMLID_75_" class="st4" d="M56.5 259.7c0-1 .4-2.2.9-2.9.4-.5.9-1.1 1.6-1.7l.6 2.5c-1.3.6-2.3 1.3-3.1 2.1m54.9-14c-2-1.1-4.7-1.7-7.6-1.7h-.1c-2.7-6.8-6.1-11.8-10.2-15-5.2-4-11.9-6.2-19.3-6.2-3.7 0-7.5.6-11.3 1.6-.3-.7-.5-1.5-.9-2.1-.2-.3-.7-.5-1.1-.2-.3.3-.6.9-.5 1.5.1.5.1 1 .1 1.5-2.1.7-4.2 1.4-6.3 2.3l-1.1.5c-.3.2-.5.5-.4.9l1.3 5.6c-.6.5-1.2 1.1-1.8 1.5-.6.4-.6 1.6-.2 1.7 1 .2 1.9.3 2.8.4l1.4 5.8-.1.2c-.2.4-.4.8-.5 1.1-.3.7.3 1.5.7 1.3.2-.1.3-.2.4-.3l1.5 6.4c-1.3.9-2.2 1.9-2.9 2.7-1 1.3-1.4 2.9-1.4 4.4 0 .9.1 1.7.5 2.5l.1.1c-.4 1-.5 2-.5 3 0 .4 0 .8.1 1.2.2 2.3 1.6 4 3.4 5 1.6.9 3.6 1.3 5.6 1.4l6.2 26.1c.1.2.2.4.5.5l.3.1.4-.1 1.6-.9c1.5-.8 4-2.3 7-4.4 1.1-.8 2-1.1 3.4-1.1 1.1 0 2.3.3 3.7.7 1.8.5 3.9 1 6.3 1.1 1 0 2.1-.1 3.1-.3 2.6-.6 4.8-2.1 5.9-4.3.7-1.4 1.1-3 1.1-4.8 0-.5 0-.9-.1-1.1-.1-2.6-1.4-5.3-2.7-7.9l-.4-.8c-2.2-4.3-2.7-5.9-2.6-6.5v-.1c.5-.4 2.5-1.1 5.1-1.7 1.2-.3 2.3-.6 3.3-.9.5-.2.9-.3 1.4-.6.3-.2.6-.4.8-.7.4-.5.7-1.1.7-1.7 0-1.4-.3-3.9-.9-7 1.5-.3 2.9-.7 4.1-1.3 2-1 3.5-2.6 3.6-4.7 0-2.1-1.5-3.6-3.5-4.7" fill="#23201f"></path><path id="XMLID_44_" class="st5" d="M59.5 243.8c.5-.6 1-1.2 1.6-2l.1-.2c.5-.7 1.1-1.5 1.7-1.5h.1c1.7.2 2.9 1 4.3 2 .4.3.8.5 1.2.8.3.2.5.4.8.5.7.6 1.5 1.1 2.4 1.1h.4c.3 0 .4-.3.6-.6.1-.2.2-.3.3-.5.1-.3-.1-.7-.2-.9l-.1-.1c-.1-.2-.2-.5-.3-.7-.4-.8-.7-1.4-1.3-2.2-.7-.9-1.4-1.8-2-2.7-.4-.5-.7-1-1.1-1.5.9-.7 1.8-1 2.7-1.3.5-.2.9-.3 1.4-.5.4-.1.6-.8.5-1.4-.1-.3-.3-.6-.5-.7-1-.1-2-.3-3.1-.8-.6-.1-1.1-.1-1.7-.1-.8 0-1.5 0-2.2-.3-.3-.2-.5-.7-.6-1.2l-.1-.4c-.1-.3-.2-.5-.2-.8l-.1-.3c3.6-.9 7-1.3 10.2-1.3 6.7 0 12.7 1.9 17.3 5.5 3.4 2.6 6.3 6.9 8.7 12.6-1.6.3-3 .7-4.1 1.2-1.4.7-2.5 1.7-3.1 2.8h-.6c-.6 0-1.2.1-1.6.2-.9-4-5.1-6.9-10.1-6.9-5.2 0-9.6 3.3-10.2 7.7-3.7.2-6.8.7-9.4 1.8z" fill="#fff"></path><path id="XMLID_43_" class="st5" d="M56.3 230c1.1-.5 2.2-.9 3.2-1.2-.1.4-.3.9-.4 1.3-.1.2-.3.3-.5.5l-.2.2v.4c-.5.4-1 .7-1.6 1.2z" fill="#fff"></path><path id="XMLID_42_" class="st5" d="M61.9 253.6c2.2-1 5.1-1.5 8.9-1.7 1 4 5.2 6.8 10 6.8 5.1 0 9.5-3.2 10.1-7.5.6-.1 1.2-.2 1.5-.2h.1c.2 1.9 1.5 3.5 3.6 4.5 2 1 4.7 1.5 7.7 1.5h.4c.5 2.5.8 4.8.9 6.2-.6.3-2.1.7-3.3 1h-.1c-2.6.7-5.5 1.4-6.9 2.6-2.3 2-.2 6 2 10.3 1 2 1.9 3.8 2.4 5.4-4.8-.7-7.9-1.9-10.6-4.1-2.5-2.1-4.6-5.1-7.1-8.6-.3-.4-.8-.7-1.3-.7-.3 0-.6.1-.9.3-.3.2-.6.6-.7 1-.1.4 0 .8.3 1.2l.1.2c2.5 3.6 4.6 6.6 7.5 9 3.1 2.6 7 4.1 12.2 4.8.3 0 .6.1.9.1 0 1.9-.6 5-4.6 5.9-.7.2-1.5.2-2.3.2-1.8 0-3.7-.4-5.4-.9-1.7-.4-3.3-.9-4.9-.9-1.9 0-3.5.5-5.2 1.7-.9.6-3 2.1-5.5 3.5z" fill="#fff"></path><path id="XMLID_41_" class="st5" d="M62.4 270.4c-1.4-.2-2.6-.5-3.5-1-1.3-.8-2-1.7-2.1-3v-1c0-1.6.3-2.5 1.2-3.5.5-.5 1.2-1.1 2.1-1.6z" fill="#fff"></path><path id="XMLID_38_" class="st6" d="M103.8 254.3c-2.5 0-4.9-.5-6.4-1.3-1.4-.7-2.2-1.6-2.2-2.6s.7-1.8 2.2-2.6c1-.5 2.4-.9 4.1-1.1.9-.1 1.6-.2 2.4-.2h.8c2.2.1 4.2.6 5.6 1.3 1.6.9 2.2 1.8 2.2 2.5 0 .6-.5 1.6-2.2 2.5-.9.5-2.1.8-3.4 1.1-1.2.3-2.2.4-3.1.4z" fill="#009d42"></path><path id="XMLID_36_" class="st6" d="M80.8 256c-2 0-4-.7-5.5-1.8-1.4-1.1-2.1-2.6-2.1-4.1 0-1.5.7-3 2.1-4.1 1.4-1.1 3.4-1.8 5.5-1.8 2 0 4 .7 5.5 1.8 1.4 1.1 2.1 2.6 2.1 4.1 0 1.5-.7 3-2.1 4.1-1.5 1.1-3.5 1.8-5.5 1.8" fill="#009d42"></path><path id="XMLID_35_" d="M58.2 242.6c.2-.8.4-1.6.5-2.3 0-.3.1-.6.1-.9.1-.4.1-.8.2-1.1.1-.3.2-.5.3-.8l.3-.6c.2-.5.2-1-.1-1.3-.2-.1-.4-.2-.6-.2-.4 0-.8.2-1 .3l-.3.1-.2.1c-.5.1-.9.2-1.4.2-.4 0-.7 0-1.1-.1.2-.3.5-.5.8-.6l.4-.2c.3-.2.7-.3 1-.5.2-.1.6-.4.9-.6l.3-.1c.2-.1.3-.1.4-.3l.3-.3c.3-.3.6-.6.8-1 .7-1 .9-2.3 1.2-3.4 0-.2.1-.4.1-.6.1-.4.2-.9.4-1.4.1.3.3.7.4 1.1.3.7.5 1.4.7 2.2.3.9.5 1.8.9 2.7 0 .1.1.2.3.2h.2l.1.1.1.2.2-.1c.4-.4.9-.4 1.4-.4h1.6c.2 0 .4 0 .6.2-.2.1-.5.3-.7.4-.7.4-1.3.7-2 .9-.2.2-.5.6-.6 1 0 .3 0 .6.2.8.1.3.3.4.5.5l.3.3c1.3 1.3 2.5 2.7 3.6 4.5-.1 0-.3-.2-.5-.3l-.1-.1c-.8-.6-1.6-1.1-2.3-1.5-.9-.5-1.8-1-2.6-1.8-.2-.2-.5-.3-.7-.3-.6 0-1.1.6-1.7 1.3-.3.3-.6.7-.8.9-.6.6-1.2 1.2-1.7 1.9-.1.2-.3.3-.4.5l-.2.2c.2-.1.1 0-.1.2z" fill="#fee200"></path></g></svg>