<?xml version="1.0" encoding="UTF-8" standalone="no"?>
<!-- Generator: Adobe Illustrator 23.0.1, SVG Export Plug-In . SVG Version: 6.00 Build 0)  -->

<svg
   xmlns:dc="http://purl.org/dc/elements/1.1/"
   xmlns:cc="http://creativecommons.org/ns#"
   xmlns:rdf="http://www.w3.org/1999/02/22-rdf-syntax-ns#"
   xmlns:svg="http://www.w3.org/2000/svg"
   xmlns="http://www.w3.org/2000/svg"
   xmlns:sodipodi="http://sodipodi.sourceforge.net/DTD/sodipodi-0.dtd"
   xmlns:inkscape="http://www.inkscape.org/namespaces/inkscape"
   version="1.1"
   id="图层_1"
   x="0px"
   y="0px"
   viewBox="0 0 550.21008 548.20013"
   xml:space="preserve"
   sodipodi:docname="Hurricane_Electric_logo.svg"
   width="550.21008"
   height="548.20013"
   inkscape:version="0.92.4 (5da689c313, 2019-01-14)"><metadata
   id="metadata94"><rdf:RDF><cc:Work
       rdf:about=""><dc:format>image/svg+xml</dc:format><dc:type
         rdf:resource="http://purl.org/dc/dcmitype/StillImage" /><dc:title></dc:title></cc:Work></rdf:RDF></metadata><defs
   id="defs92" /><sodipodi:namedview
   pagecolor="#ffffff"
   bordercolor="#666666"
   borderopacity="1"
   objecttolerance="10"
   gridtolerance="10"
   guidetolerance="10"
   inkscape:pageopacity="0"
   inkscape:pageshadow="2"
   inkscape:window-width="1920"
   inkscape:window-height="1017"
   id="namedview90"
   showgrid="false"
   fit-margin-top="0"
   fit-margin-left="0"
   fit-margin-right="0"
   fit-margin-bottom="0"
   inkscape:zoom="1.0555556"
   inkscape:cx="274.10011"
   inkscape:cy="275.10011"
   inkscape:window-x="-8"
   inkscape:window-y="-8"
   inkscape:window-maximized="1"
   inkscape:current-layer="图层_1" />
<style
   type="text/css"
   id="style53">
	.st0{fill:#00226E;}
	.st1{fill:#FCFCFC;}
	.st2{fill:#8A87B4;}
	.st3{fill:#565A95;}
	.st4{fill:#5A5C95;}
	.st5{fill:#8A86B4;}
	.st6{fill:#575A95;}
	.st7{fill:#8B86B4;}
	.st8{fill:#8986B4;}
	.st9{fill:#565A94;}
	.st10{fill:#5A5C96;}
</style>
<g
   id="g87"
   transform="translate(-31.899892,-122.9)">
	<path
   class="st0"
   d="m 298,123 c 5.33,0 10.67,0 16,0 2,0.82 4,0.82 6,0 2,0 4,0 6,0 10.53,1.17 21.13,1.51 31.6,3.52 20.88,4.01 40.97,10.37 60.39,18.99 23.93,10.62 45.74,24.56 65.74,41.37 27.24,22.9 48.85,50.31 65.54,81.7 15.5,29.16 25.31,60.13 29.43,92.84 1.93,15.34 2.62,30.76 1.89,46.29 -0.67,14.34 -2.01,28.53 -4.77,42.61 -8.9,45.4 -28.28,85.83 -57.46,121.63 -22.7,27.86 -50.08,50.03 -81.61,67.18 -29.59,16.1 -60.98,26.57 -94.48,30.58 -5.41,0.65 -10.9,0.3 -16.28,1.29 -2,0 -4,0 -6,0 -2,-0.82 -4,-0.82 -6,0 -5.33,0 -10.67,0 -16,0 -1.92,-1.08 -4,-0.25 -5.99,-0.51 -1.99,0.26 -4.08,-0.57 -6.01,0.51 -0.67,0 -1.33,0 -2,0 -11.52,-1.35 -23.1,-1.9 -34.51,-4.38 C 202.6,656.43 161.04,635.78 124.81,604.29 96.75,579.9 74.8,550.86 58.41,517.62 45.34,491.12 36.98,463.11 33.21,433.78 c -0.63,-4.9 -0.08,-9.91 -1.22,-14.78 0,-0.67 0,-1.33 0,-2 1.08,-1.92 0.25,-4 0.51,-5.99 -0.26,-1.99 0.57,-4.08 -0.51,-6.01 0,-5.33 0,-10.67 0,-16 1.08,-1.92 0.25,-4 0.51,-5.99 -0.26,-1.99 0.57,-4.08 -0.51,-6.01 0,-0.67 0,-1.33 0,-2 1.44,-9.66 1.58,-19.43 3.41,-29.1 7.49,-39.61 22.95,-75.77 46.23,-108.56 27.07,-38.11 61.83,-67.34 103.74,-87.92 26.51,-13.02 54.45,-21.61 83.83,-25.21 4.9,-0.6 9.92,-0.08 14.79,-1.22 0.67,0 1.33,0 2,0 1.92,1.08 4,0.25 5.99,0.51 2.01,-0.25 4.1,0.58 6.02,-0.5 z"
   id="path55"
   inkscape:connector-curvature="0"
   style="fill:#00226e" />
	<path
   class="st1"
   d="m 326,671 c 3.37,-2.16 7.29,-1.32 10.91,-1.73 C 458.71,655.48 557.85,561.39 576.02,440.71 589.88,348.66 563.86,268.53 498.38,202.41 451.7,155.26 394.23,129.55 327.95,124 c -0.8,-0.07 -1.7,0.1 -1.95,-1 83.96,0 167.92,0.02 251.88,-0.08 3.16,0 4.23,0.29 4.23,3.95 -0.12,180.08 -0.12,360.16 0,540.25 0,3.67 -1.06,3.96 -4.23,3.95 C 493.92,670.98 409.96,671 326,671 Z"
   id="path57"
   inkscape:connector-curvature="0"
   style="fill:#fcfcfc" />
	<path
   class="st1"
   d="m 284,123 c -5.21,2.37 -10.91,1.78 -16.36,2.66 -93.11,14.98 -161.73,64.33 -205.98,147.37 -16.2,30.41 -25.01,63.25 -28.48,97.53 -0.15,1.48 0.73,3.38 -1.18,4.44 0,-82.67 0.03,-165.33 -0.1,-248 -0.01,-3.42 0.67,-4.1 4.1,-4.1 82.67,0.13 165.33,0.1 248,0.1 z"
   id="path59"
   inkscape:connector-curvature="0"
   style="fill:#fcfcfc" />
	<path
   class="st1"
   d="m 32,419 c 2.35,5.37 1.92,11.21 2.72,16.82 16.65,117.91 108.13,211.64 226.04,231.37 6.55,1.1 13.19,1.7 19.77,2.68 1.16,0.17 2.77,-0.59 3.48,1.13 -82.67,0 -165.33,-0.03 -248,0.1 -3.42,0.01 -4.1,-0.67 -4.1,-4.1 C 32.03,584.33 32,501.67 32,419 Z"
   id="path61"
   inkscape:connector-curvature="0"
   style="fill:#fcfcfc" />
	<path
   class="st2"
   d="m 291.88,123.8 c -1.98,-0.1 -4.16,1.22 -5.88,-0.8 2,0 4,0 6,0 0.35,0.23 0.45,0.43 0.3,0.59 -0.13,0.14 -0.27,0.21 -0.42,0.21 z"
   id="path63"
   inkscape:connector-curvature="0"
   style="fill:#8a87b4" />
	<path
   class="st3"
   d="m 291.88,123.8 c 0.03,-0.27 0.07,-0.53 0.12,-0.8 2,0 4,0 6,0 -1.84,1.8 -4.04,0.82 -6.12,0.8 z"
   id="path65"
   inkscape:connector-curvature="0"
   style="fill:#565a95" />
	<path
   class="st4"
   d="m 320,123 c -2,1.56 -4,1.54 -6,0 2,0 4,0 6,0 z"
   id="path67"
   inkscape:connector-curvature="0"
   style="fill:#5a5c95" />
	<path
   class="st5"
   d="m 32,377 c 2.01,1.72 0.7,3.9 0.8,5.88 -0.19,0.57 -0.46,0.58 -0.8,0.12 0,-2 0,-4 0,-6 z"
   id="path69"
   inkscape:connector-curvature="0"
   style="fill:#8a86b4" />
	<path
   class="st3"
   d="m 32,383 c 0.26,-0.08 0.53,-0.12 0.8,-0.12 0.02,2.08 1,4.28 -0.8,6.12 0,-2 0,-4 0,-6 z"
   id="path71"
   inkscape:connector-curvature="0"
   style="fill:#565a95" />
	<path
   class="st6"
   d="m 32,405 c 1.81,1.84 0.82,4.04 0.79,6.12 -0.31,0.31 -0.58,0.27 -0.79,-0.12 0,-2 0,-4 0,-6 z"
   id="path73"
   inkscape:connector-curvature="0"
   style="fill:#575a95" />
	<path
   class="st7"
   d="m 32,411 c 0.26,0.09 0.52,0.12 0.79,0.11 -0.08,1.99 1.22,4.16 -0.79,5.89 0,-2 0,-4 0,-6 z"
   id="path75"
   inkscape:connector-curvature="0"
   style="fill:#8b86b4" />
	<path
   class="st8"
   d="m 286,671 c 1.72,-2.01 3.9,-0.7 5.89,-0.8 0.4,0.13 0.55,0.29 0.45,0.48 -0.11,0.21 -0.22,0.32 -0.34,0.32 -2,0 -4,0 -6,0 z"
   id="path77"
   inkscape:connector-curvature="0"
   style="fill:#8986b4" />
	<path
   class="st9"
   d="m 292,671 c -0.04,-0.27 -0.08,-0.53 -0.11,-0.8 2.08,-0.02 4.28,-1 6.11,0.8 -2,0 -4,0 -6,0 z"
   id="path79"
   inkscape:connector-curvature="0"
   style="fill:#565a94" />
	<path
   class="st10"
   d="m 314,671 c 2,-1.55 4,-1.55 6,0 -2,0 -4,0 -6,0 z"
   id="path81"
   inkscape:connector-curvature="0"
   style="fill:#5a5c96" />
	<path
   class="st1"
   d="M 305.6,634.55 C 173.97,634.49 67.9,527.74 68.58,394.86 69.25,264.75 175.67,158.45 307.87,159.51 439.72,160.57 544.78,268.76 543.24,399.88 541.74,528.45 437.19,634.39 305.6,634.55 Z"
   id="path83"
   inkscape:connector-curvature="0"
   style="fill:#fcfcfc" />
	<path
   d="m 361.27,532 c -23.5,0 -46.99,0.03 -70.49,-0.06 -1.72,-0.01 -4.46,1.49 -4.61,-2.48 -0.15,-3.98 2.38,-3.11 4.58,-3.2 2.49,-0.1 5.02,-0.01 7.47,-0.4 10.18,-1.6 14.83,-6.71 15.62,-16.93 0.14,-1.82 0.15,-3.66 0.16,-5.49 0.01,-49.66 -0.05,-99.32 0.11,-148.97 0.01,-4 -1.12,-4.83 -4.92,-4.81 -26.83,0.17 -53.66,0.19 -80.48,-0.02 -4.06,-0.03 -4.82,1.19 -4.78,4.95 0.2,19.99 0.18,39.99 0.11,59.99 -0.05,14.99 4.44,21.6 23.06,22.3 1.47,0.05 3.16,-0.24 4.34,0.39 1.24,0.66 0.56,2.44 0.5,3.71 -0.11,2.19 -1.93,1.39 -3.06,1.39 -25.66,0.04 -51.32,0.02 -76.99,0.06 -2.14,0 -3.33,-0.27 -3.37,-2.91 -0.05,-2.94 1.63,-2.7 3.52,-2.66 1.67,0.04 3.33,0.06 5,0 12.31,-0.49 18.29,-6.15 18.92,-18.46 1.42,-27.64 0.52,-55.3 0.59,-82.95 0.05,-20.65 0.3,-41.3 -0.39,-61.95 -0.42,-12.56 -7.01,-16.99 -19.06,-18.46 -1.81,-0.22 -3.67,-0.1 -5.49,-0.02 -1.86,0.09 -3.16,-0.02 -3.07,-2.54 0.09,-2.23 0.55,-3.27 3.07,-3.26 25.83,0.07 51.66,0.08 77.49,-0.01 2.62,-0.01 2.87,1.11 2.97,3.27 0.12,2.54 -1.18,2.62 -3.04,2.54 -5.7,-0.25 -11.24,0.18 -16.51,2.88 -4.2,2.15 -6.82,5.31 -7.49,9.9 -0.55,3.78 -0.97,7.61 -0.99,11.42 -0.1,18.66 0.03,37.33 -0.12,55.99 -0.02,3.01 0.62,3.89 3.79,3.88 27.49,-0.14 54.99,-0.1 82.48,-0.05 2.39,0 3.92,0.08 3.88,-3.25 -0.2,-19.16 -0.27,-38.33 -0.1,-57.49 0.15,-16.54 -4.93,-23.04 -24.02,-23.36 -1.43,-0.02 -3.85,1.38 -4.01,-1.95 -0.13,-2.61 0.35,-3.81 3.43,-3.8 25.49,0.12 50.99,0.1 76.49,0.03 2.43,-0.01 3.57,0.45 3.6,3.25 0.04,3.06 -1.81,2.57 -3.58,2.52 -4.69,-0.14 -9.25,0.3 -13.74,1.94 -6.39,2.34 -9.65,6.82 -10.08,13.46 -1.4,21.8 -0.34,43.63 -0.75,65.45 -0.07,3.6 2.12,3.01 4.24,3.01 28.16,0 56.32,0.11 84.48,-0.12 4.36,-0.04 5.68,1.11 5.76,5.39 0.21,10.98 0.9,21.95 1.32,32.92 0.06,1.53 1.49,3.91 -1.85,3.96 -2.47,0.03 -4.93,0.58 -5.38,-3.27 -0.52,-4.45 -2,-8.74 -3.67,-12.92 -3.19,-7.98 -9.12,-12.56 -17.53,-13.77 -13.76,-1.97 -27.61,-0.77 -41.43,-1.02 -7.5,-0.14 -15,0.06 -22.49,-0.07 -2.34,-0.04 -3.13,0.56 -3.12,3.02 0.09,23.16 0.08,46.32 0.02,69.49 -0.01,2.33 0.66,3.22 3.11,3.19 14.82,-0.21 29.66,0.06 44.46,-0.51 15.45,-0.6 21.17,-6.73 23.5,-23.53 0.18,-1.33 -0.74,-3.48 1.23,-3.83 2,-0.35 4.8,-1.33 4.78,2.78 -0.1,20.5 -0.06,40.99 -0.02,61.49 0,1.89 -0.14,3.16 -2.59,3.15 -2.11,-0.02 -3.36,-0.26 -3.59,-2.78 -0.29,-3.14 -0.99,-6.24 -1.64,-9.34 -2.01,-9.52 -7.51,-14.71 -17.24,-16.05 -13.27,-1.83 -26.62,-0.65 -39.93,-0.86 -12.02,-0.18 -12.05,-0.04 -12.02,12.1 0.06,20.32 0.08,40.65 0.3,60.97 0.08,7.57 2.89,10.94 10.45,11.2 18.63,0.63 37.31,1.32 55.9,-0.8 10.03,-1.14 17.42,-7.01 23.6,-14.59 4.43,-5.43 8.18,-11.32 11.55,-17.46 0.48,-0.87 0.97,-1.74 1.43,-2.63 1.47,-2.85 4.31,-2.06 6.19,-1.5 2.49,0.75 0.4,2.78 -0.04,4.09 -4.62,13.7 -9.44,27.33 -13.96,41.06 -0.9,2.75 -2.14,3.45 -4.91,3.43 C 408.6,531.95 384.94,532 361.27,532 Z"
   id="path85"
   inkscape:connector-curvature="0" />
</g>
</svg>