<svg xmlns="http://www.w3.org/2000/svg" viewBox="0 0 283.81 283.02" width="283.81" height="283.02"><path d="M192.751 282.81c-23.5 0-46.99.03-70.49-.06-1.72-.01-4.46 1.49-4.61-2.48-.15-3.98 2.38-3.11 4.58-3.2 2.49-.1 5.02-.01 7.47-.4 10.18-1.6 14.83-6.71 15.62-16.93.14-1.82.15-3.66.16-5.49.01-49.66-.05-99.32.11-148.97.01-4-1.12-4.83-4.92-4.81-26.83.17-53.66.19-80.48-.02-4.06-.03-4.82 1.19-4.78 4.95.2 19.99.18 39.99.11 59.99-.05 14.99 4.44 21.6 23.06 22.3 1.47.05 3.16-.24 4.34.39 1.24.66.56 2.44.5 3.71-.11 2.19-1.93 1.39-3.06 1.39-25.66.04-51.32.02-76.99.06-2.14 0-3.33-.27-3.37-2.91-.05-2.94 1.63-2.7 3.52-2.66 1.67.04 3.33.06 5 0 12.31-.49 18.29-6.15 18.92-18.46 1.42-27.64.52-55.3.59-82.95.05-20.65.3-41.3-.39-61.95-.42-12.56-7.01-16.99-19.06-18.46-1.81-.22-3.67-.1-5.49-.02-1.86.09-3.16-.02-3.07-2.54.09-2.23.55-3.27 3.07-3.26 25.83.07 51.66.08 77.49-.01 2.62-.01 2.87 1.11 2.97 3.27.12 2.54-1.18 2.62-3.04 2.54-5.7-.25-11.24.18-16.51 2.88-4.2 2.15-6.82 5.31-7.49 9.9-.55 3.78-.97 7.61-.99 11.42-.1 18.66.03 37.33-.12 55.99-.02 3.01.62 3.89 3.79 3.88 27.49-.14 54.99-.1 82.48-.05 2.39 0 3.92.08 3.88-3.25-.2-19.16-.27-38.33-.1-57.49.15-16.54-4.93-23.04-24.02-23.36-1.43-.02-3.85 1.38-4.01-1.95-.13-2.61.35-3.81 3.43-3.8 25.49.12 50.99.1 76.49.03 2.43-.01 3.57.45 3.6 3.25.04 3.06-1.81 2.57-3.58 2.52-4.69-.14-9.25.3-13.74 1.94-6.39 2.34-9.65 6.82-10.08 13.46-1.4 21.8-.34 43.63-.75 65.45-.07 3.6 2.12 3.01 4.24 3.01 28.16 0 56.32.11 84.48-.12 4.36-.04 5.68 1.11 5.76 5.39.21 10.98.9 21.95 1.32 32.92.06 1.53 1.49 3.91-1.85 3.96-2.47.03-4.93.58-5.38-3.27-.52-4.45-2-8.74-3.67-12.92-3.19-7.98-9.12-12.56-17.53-13.77-13.76-1.97-27.61-.77-41.43-1.02-7.5-.14-15 .06-22.49-.07-2.34-.04-3.13.56-3.12 3.02.09 23.16.08 46.32.02 69.49-.01 2.33.66 3.22 3.11 3.19 14.82-.21 29.66.06 44.46-.51 15.45-.6 21.17-6.73 23.5-23.53.18-1.33-.74-3.48 1.23-3.83 2-.35 4.8-1.33 4.78 2.78-.1 20.5-.06 40.99-.02 61.49 0 1.89-.14 3.16-2.59 3.15-2.11-.02-3.36-.26-3.59-2.78-.29-3.14-.99-6.24-1.64-9.34-2.01-9.52-7.51-14.71-17.24-16.05-13.27-1.83-26.62-.65-39.93-.86-12.02-.18-12.05-.04-12.02 12.1.06 20.32.08 40.65.3 60.97.08 7.57 2.89 10.94 10.45 11.2 18.63.63 37.31 1.32 55.9-.8 10.03-1.14 17.42-7.01 23.6-14.59 4.43-5.43 8.18-11.32 11.55-17.46.48-.87.97-1.74 1.43-2.63 1.47-2.85 4.31-2.06 6.19-1.5 2.49.75.4 2.78-.04 4.09-4.62 13.7-9.44 27.33-13.96 41.06-.9 2.75-2.14 3.45-4.91 3.43-23.62-.09-47.28-.04-70.95-.04z"></path></svg>