<svg xmlns="http://www.w3.org/2000/svg" version="1.1" x="0" y="0" xml:space="preserve" width="35.9" height="40"><style type="text/css" id="style2">.prefix__st0{fill:#430098}</style><g id="prefix__Page-1"><g id="prefix__main" transform="translate(-25 -23)"><g id="prefix__nav" transform="translate(25 23)"><path class="prefix__st0" d="M32.3 0H3.6C1.6 0 0 1.6 0 3.6v32.8c0 2 1.6 3.6 3.6 3.6h28.7c2 0 3.6-1.6 3.6-3.6V3.6c0-2-1.6-3.6-3.6-3.6zm1.6 36.4c0 .9-.7 1.6-1.6 1.6H3.6c-.9 0-1.6-.7-1.6-1.6V3.6C2 2.7 2.7 2 3.6 2h28.7c.9 0 1.6.7 1.6 1.6z" id="prefix__path4" fill="#430098"/><path class="prefix__st0" id="prefix__polygon6" fill="#430098" d="M9 26v8l4.5-4z"/><path class="prefix__st0" d="M20.4 16c-2.7 0-5.5.7-7.5 1.4V6h-4v17.3l2.8-1.3s4.6-2.1 8.6-2.1c2 0 2.5 1.1 2.5 2.1v12h4V22c.1-.3.1-2.5-1.6-4.2-.8-.8-2.3-1.8-4.8-1.8z" id="prefix__path8" fill="#430098"/><path class="prefix__st0" d="M19.9 12.5h4c1.8-2.1 2.7-4.2 3-6.5h-4c-.4 2.3-1.4 4.4-3 6.5z" id="prefix__path10" fill="#430098"/></g></g></g></svg>