<?xml version="1.0" encoding="utf-8"?>
<!-- Generator: Adobe Illustrator 15.1.0, SVG Export Plug-In . SVG Version: 6.00 Build 0)  -->
<!DOCTYPE svg PUBLIC "-//W3C//DTD SVG 1.0//EN" "http://www.w3.org/TR/2001/REC-SVG-20010904/DTD/svg10.dtd">
<svg version="1.0" id="Ebene_1" xmlns="http://www.w3.org/2000/svg" xmlns:xlink="http://www.w3.org/1999/xlink" x="0px" y="0px"
	 width="597.226px" height="116.177px" viewBox="0 0 597.226 116.177" enable-background="new 0 0 597.226 116.177"
	 xml:space="preserve">
<g>
	<path fill="#D20C39" d="M499.927,55.242l-53.572-0.016V43.675l42.949-0.002c2.25,0,4.099-1.846,4.106-4.095l0.025-7.816
		c0.012-2.25-1.827-4.097-4.079-4.097l-43.002-0.017V16.088l53.569-0.004c2.251,0,4.088-1.842,4.088-4.095V4.115
		c0-2.249-1.837-4.09-4.088-4.09h-65.762c-2.25,0-4.09,1.841-4.09,4.09v63.068c0,2.251,1.84,4.091,4.09,4.091h65.757
		c2.254,0,4.089-1.84,4.093-4.091l0.006-7.855C504.018,57.082,502.179,55.242,499.927,55.242z"/>
	<path fill="#D20C39" d="M73.75,0.077h-8.154c-2.25,0-4.09,1.843-4.09,4.088l-0.01,23.379H16.483L16.468,4.089
		C16.468,1.842,14.622,0,12.374,0H4.11C1.86,0,0.019,1.842,0.019,4.089v63.212c0,2.249,1.841,4.093,4.091,4.093h8.264
		c2.248,0,4.095-1.844,4.095-4.093l0.007-23.733h45.021l0.01,23.733c0,2.249,1.84,4.084,4.09,4.08l8.154-0.012
		c2.256-0.005,4.095-1.848,4.095-4.104V4.165C77.845,1.92,76.006,0.077,73.75,0.077z"/>
	<path fill="#D20C39" d="M158.491,55.242l-53.572-0.004V43.693l42.951-0.021c2.248,0,4.095-1.846,4.104-4.095l0.022-7.816
		c0.009-2.25-1.823-4.097-4.075-4.097l-43.003-0.011V16.092l53.566-0.008c2.254,0,4.094-1.842,4.094-4.095V4.115
		c0-2.249-1.84-4.09-4.094-4.09H92.726c-2.251,0-4.094,1.841-4.094,4.09v63.068c0,2.251,1.843,4.091,4.094,4.091h65.754
		c2.254,0,4.091-1.84,4.099-4.091v-7.855C162.583,57.082,160.741,55.242,158.491,55.242z"/>
	<path fill="#D20C39" d="M243.51,0.109H175.4c-2.254,0-4.091,1.839-4.091,4.088v7.866c0,2.252,1.837,4.09,4.091,4.09h25.924
		l-0.004,51.098c0,2.253,1.837,4.092,4.089,4.092h8.772c2.252,0,4.089-1.839,4.089-4.092l0.009-51.098h25.23
		c2.254,0,4.091-1.838,4.091-4.09V4.198C247.602,1.949,245.764,0.109,243.51,0.109z"/>
	<path fill="#D20C39" d="M573.534,45.368c4.465-1.063,8.802-2.768,11.744-6.319c0.037-0.041,0.075-0.065,0.112-0.107
		c3.571-4.325,5.394-9.495,5.394-15.372c0-4.915-1.23-9.296-3.653-13.009c-4.091-6.368-9.825-9.792-17.04-10.173
		c-0.037-0.004-3.521-0.094-3.521-0.094c-2.244-0.066-5.929-0.124-8.179-0.127l-40.569-0.079c-2.256-0.006-4.091,1.835-4.091,4.084
		v63.112c0,2.254,1.835,4.093,4.091,4.093h7.74c2.254,0,4.095-1.839,4.095-4.093l-0.021-20.572l19.051-0.029
		c2.257,0,5.376,1.319,6.938,2.941l18.7,18.774c1.562,1.615,4.156,2.938,6.401,2.938l14.356,0.004c2.245,0,2.793-1.309,1.212-2.909
		C596.293,68.431,574.076,45.921,573.534,45.368z M568.321,30.68L529.688,30.7V16.17l38.633-0.026c3.307,0,6.003,2.706,6.003,6.01
		v0.955c0.005,0.136,0.037,0.247,0.037,0.385c0,0.12-0.028,0.232-0.037,0.352v0.831C574.324,27.977,571.627,30.68,568.321,30.68z"/>
	<path fill="#D20C39" d="M328.772,55c0,0-44.823-0.009-45.615-0.009l44.938-39.483c1.691-1.486,3.056-4.537,3.048-6.79l-0.005-4.554
		c-0.008-2.245-1.861-4.088-4.104-4.088h-66.585c-2.25,0-4.093,1.843-4.093,4.088v7.916c0,2.25,1.843,4.086,4.093,4.086
		c0,0,42.142-0.008,42.922-0.008c-0.546,0.475-44.685,39.179-44.685,39.179c-1.691,1.489-3.072,4.545-3.077,6.793v5.154
		c0,2.249,1.843,4.089,4.089,4.089h69.075c2.25,0,4.09-1.84,4.09-4.089v-8.192C332.862,56.839,331.022,55,328.772,55z"/>
</g>
<path fill="#D20C39" d="M499.927,55.242l-53.572-0.016V43.675l42.949-0.002c2.25,0,4.099-1.846,4.106-4.095l0.025-7.816
	c0.012-2.25-1.827-4.097-4.079-4.097l-43.002-0.017V16.088l53.569-0.004c2.251,0,4.088-1.842,4.088-4.095V4.115
	c0-2.249-1.837-4.09-4.088-4.09h-65.762c-2.25,0-4.09,1.841-4.09,4.09v63.068c0,2.251,1.84,4.091,4.09,4.091h65.757
	c2.254,0,4.089-1.84,4.093-4.091l0.006-7.855C504.018,57.082,502.179,55.242,499.927,55.242z"/>
<path fill="#D20C39" d="M73.75,0.077h-8.154c-2.25,0-4.09,1.843-4.09,4.088l-0.01,23.379H16.483L16.468,4.089
	C16.468,1.842,14.622,0,12.374,0H4.11C1.86,0,0.019,1.842,0.019,4.089v63.212c0,2.249,1.841,4.093,4.091,4.093h8.264
	c2.248,0,4.095-1.844,4.095-4.093l0.007-23.733h45.021l0.01,23.733c0,2.249,1.84,4.084,4.09,4.08l8.154-0.012
	c2.256-0.005,4.095-1.848,4.095-4.104V4.165C77.845,1.92,76.006,0.077,73.75,0.077z"/>
<path fill="#D20C39" d="M158.491,55.242l-53.572-0.004V43.693l42.951-0.021c2.248,0,4.095-1.846,4.104-4.095l0.022-7.816
	c0.009-2.25-1.823-4.097-4.075-4.097l-43.003-0.011V16.092l53.566-0.008c2.254,0,4.094-1.842,4.094-4.095V4.115
	c0-2.249-1.84-4.09-4.094-4.09H92.726c-2.251,0-4.094,1.841-4.094,4.09v63.068c0,2.251,1.843,4.091,4.094,4.091h65.754
	c2.254,0,4.091-1.84,4.099-4.091v-7.855C162.583,57.082,160.741,55.242,158.491,55.242z"/>
<path fill="#D20C39" d="M243.51,0.109H175.4c-2.254,0-4.091,1.839-4.091,4.088v7.866c0,2.252,1.837,4.09,4.091,4.09h25.924
	l-0.004,51.098c0,2.253,1.837,4.092,4.089,4.092h8.772c2.252,0,4.089-1.839,4.089-4.092l0.009-51.098h25.23
	c2.254,0,4.091-1.838,4.091-4.09V4.198C247.602,1.949,245.764,0.109,243.51,0.109z"/>
<path fill="#D20C39" d="M573.534,45.368c4.465-1.063,8.802-2.768,11.744-6.319c0.037-0.041,0.075-0.065,0.112-0.107
	c3.571-4.325,5.394-9.495,5.394-15.372c0-4.915-1.23-9.296-3.653-13.009c-4.091-6.368-9.825-9.792-17.04-10.173
	c-0.037-0.004-3.521-0.094-3.521-0.094c-2.244-0.066-5.929-0.124-8.179-0.127l-40.569-0.079c-2.256-0.006-4.091,1.835-4.091,4.084
	v63.112c0,2.254,1.835,4.093,4.091,4.093h7.74c2.254,0,4.095-1.839,4.095-4.093l-0.021-20.572l19.051-0.029
	c2.257,0,5.376,1.319,6.938,2.941l18.7,18.774c1.562,1.615,4.156,2.938,6.401,2.938l14.356,0.004c2.245,0,2.793-1.309,1.212-2.909
	C596.293,68.431,574.076,45.921,573.534,45.368z M568.321,30.68L529.688,30.7V16.17l38.633-0.026c3.307,0,6.003,2.706,6.003,6.01
	v0.955c0.005,0.136,0.037,0.247,0.037,0.385c0,0.12-0.028,0.232-0.037,0.352v0.831C574.324,27.977,571.627,30.68,568.321,30.68z"/>
<path fill="#D20C39" d="M328.772,55c0,0-44.823-0.009-45.615-0.009l44.938-39.483c1.691-1.486,3.056-4.537,3.048-6.79l-0.005-4.554
	c-0.008-2.245-1.861-4.088-4.104-4.088h-66.585c-2.25,0-4.093,1.843-4.093,4.088v7.916c0,2.25,1.843,4.086,4.093,4.086
	c0,0,42.142-0.008,42.922-0.008c-0.546,0.475-44.685,39.179-44.685,39.179c-1.691,1.489-3.072,4.545-3.077,6.793v5.154
	c0,2.249,1.843,4.089,4.089,4.089h69.075c2.25,0,4.09-1.84,4.09-4.089v-8.192C332.862,56.839,331.022,55,328.772,55z"/>
<rect y="111.987" fill="#575756" width="332.886" height="3.899"/>
<rect x="538.286" y="111.972" fill="#575756" width="58.94" height="3.899"/>
<path fill="#575756" d="M351.134,88.696c-6.919,0-9.872,3.089-9.872,10.32v6.84c0,7.234,2.953,10.32,9.872,10.32h14.402
	c6.92,0,9.87-3.086,9.87-10.32v-6.84c0-7.231-2.95-10.32-9.87-10.32H351.134z M346.564,107.136V97.74c0-3.138,1.377-4.36,4.914-4.36
	h13.718c3.536,0,4.913,1.223,4.913,4.36v9.396c0,3.141-1.377,4.363-4.913,4.363h-13.718
	C347.941,111.499,346.564,110.276,346.564,107.136z"/>
<path fill="#575756" d="M409.625,88.977c0,0,0,17.061,0,20.683c-2.798-2.686-21.563-20.683-21.563-20.683h-6.382v26.923h5.296
	c0,0,0-17.063,0-20.683c2.799,2.686,21.564,20.683,21.564,20.683h6.383V88.977H409.625z"/>
<path fill="#575756" d="M421.853,88.977v26.923h24.712v-4.677c0,0-17.685,0-19.414,0c0-1.753,0-22.246,0-22.246H421.853z"/>
<rect x="450.799" y="88.977" fill="#575756" width="5.297" height="26.923"/>
<path fill="#575756" d="M491.075,88.977c0,0,0,17.061,0,20.683c-2.795-2.686-21.559-20.683-21.559-20.683h-6.385v26.923h5.301
	c0,0,0-17.063,0-20.683c2.797,2.686,21.559,20.683,21.559,20.683h6.387V88.977H491.075z"/>
<path fill="#575756" d="M503.303,88.977v26.923h26.612v-4.677c0,0-19.567,0-21.314,0c0-1.331,0-5.491,0-6.822
	c1.739,0,20.349,0,20.349,0v-4.684c0,0-18.609,0-20.349,0c0-1.279,0-4.781,0-6.061c1.745,0,21.176,0,21.176,0v-4.68H503.303z"/>
<path fill="#D20C39" d="M420.615,24.953c-0.011-0.439-0.007-0.964,0.005-1.537c-0.008-4.895-1.238-9.256-3.653-12.956
	c-4.091-6.368-9.965-10.016-17.181-10.396c-0.037-0.004-54.315,0.013-54.315,0.013c-2.249,0-4.099,1.843-4.099,4.088v63.101
	c0,2.256,1.85,4.091,4.099,4.091l8.66,0.008c2.224,0,4.047-1.802,4.088-4.022l0.002-51.188l32.225-0.002l0.66,0.002h1.842
	c6.004,0,10.913,4.911,10.913,10.917v1.885c0.002,0.037,0.008,0.078,0.008,0.107c0,1.101,0,2.008-0.006,2.018v36.171
	c0,2.248,1.846,4.088,4.097,4.088h8.567c2.254,0,4.093-1.84,4.093-4.088V39.901l-0.004-7.263V24.953z"/>
</svg>
