<svg version="1.0" xmlns="http://www.w3.org/2000/svg" width="597.226" height="116.177" viewBox="0 0 597.226 116.177"><g fill="#D20C39"><path d="M499.927 55.242l-53.572-.016V43.675l42.949-.002c2.25 0 4.099-1.846 4.106-4.095l.025-7.816a4.089 4.089 0 0 0-4.079-4.097l-43.002-.017v-11.56l53.569-.004a4.101 4.101 0 0 0 4.088-4.095V4.115a4.1 4.1 0 0 0-4.088-4.09h-65.762a4.102 4.102 0 0 0-4.09 4.09v63.068a4.102 4.102 0 0 0 4.09 4.091h65.757a4.104 4.104 0 0 0 4.093-4.091l.006-7.855a4.099 4.099 0 0 0-4.09-4.086zM73.75.077h-8.154a4.103 4.103 0 0 0-4.09 4.088l-.01 23.379H16.483l-.015-23.455C16.468 1.842 14.622 0 12.374 0H4.11A4.103 4.103 0 0 0 .019 4.089v63.212a4.105 4.105 0 0 0 4.091 4.093h8.264c2.248 0 4.095-1.844 4.095-4.093l.007-23.733h45.021l.01 23.733a4.09 4.09 0 0 0 4.09 4.08l8.154-.012a4.113 4.113 0 0 0 4.095-4.104v-63.1A4.105 4.105 0 0 0 73.75.077zM158.491 55.242l-53.572-.004V43.693l42.951-.021c2.248 0 4.095-1.846 4.104-4.095l.022-7.816a4.087 4.087 0 0 0-4.075-4.097l-43.003-.011V16.092l53.566-.008a4.105 4.105 0 0 0 4.094-4.095V4.115c0-2.249-1.84-4.09-4.094-4.09H92.726a4.105 4.105 0 0 0-4.094 4.09v63.068a4.104 4.104 0 0 0 4.094 4.091h65.754a4.112 4.112 0 0 0 4.099-4.091v-7.855c.004-2.246-1.838-4.086-4.088-4.086zM243.51.109H175.4a4.099 4.099 0 0 0-4.091 4.088v7.866a4.098 4.098 0 0 0 4.091 4.09h25.924l-.004 51.098a4.099 4.099 0 0 0 4.089 4.092h8.772a4.099 4.099 0 0 0 4.089-4.092l.009-51.098h25.23a4.098 4.098 0 0 0 4.091-4.09V4.198a4.097 4.097 0 0 0-4.09-4.089zM573.534 45.368c4.465-1.063 8.802-2.768 11.744-6.319.037-.041.075-.065.112-.107 3.571-4.325 5.394-9.495 5.394-15.372 0-4.915-1.23-9.296-3.653-13.009-4.091-6.368-9.825-9.792-17.04-10.173-.037-.004-3.521-.094-3.521-.094a353.564 353.564 0 0 0-8.179-.127L517.822.088a4.09 4.09 0 0 0-4.091 4.084v63.112a4.098 4.098 0 0 0 4.091 4.093h7.74a4.103 4.103 0 0 0 4.095-4.093l-.021-20.572 19.051-.029c2.257 0 5.376 1.319 6.938 2.941l18.7 18.774c1.562 1.615 4.156 2.938 6.401 2.938l14.356.004c2.245 0 2.793-1.309 1.212-2.909-.001 0-22.218-22.51-22.76-23.063zm-5.213-14.688l-38.633.02V16.17l38.633-.026c3.307 0 6.003 2.706 6.003 6.01v.955c.005.136.037.247.037.385 0 .12-.028.232-.037.352v.831c0 3.3-2.697 6.003-6.003 6.003zM328.772 55l-45.615-.009 44.938-39.483c1.691-1.486 3.056-4.537 3.048-6.79l-.005-4.554c-.008-2.245-1.861-4.088-4.104-4.088h-66.585c-2.25 0-4.093 1.843-4.093 4.088v7.916c0 2.25 1.843 4.086 4.093 4.086l42.922-.008c-.546.475-44.685 39.179-44.685 39.179-1.691 1.489-3.072 4.545-3.077 6.793v5.154a4.103 4.103 0 0 0 4.089 4.089h69.075c2.25 0 4.09-1.84 4.09-4.089v-8.192A4.103 4.103 0 0 0 328.772 55z"></path></g><path fill="#D20C39" d="M499.927 55.242l-53.572-.016V43.675l42.949-.002c2.25 0 4.099-1.846 4.106-4.095l.025-7.816a4.089 4.089 0 0 0-4.079-4.097l-43.002-.017v-11.56l53.569-.004a4.101 4.101 0 0 0 4.088-4.095V4.115a4.1 4.1 0 0 0-4.088-4.09h-65.762a4.102 4.102 0 0 0-4.09 4.09v63.068a4.102 4.102 0 0 0 4.09 4.091h65.757a4.104 4.104 0 0 0 4.093-4.091l.006-7.855a4.099 4.099 0 0 0-4.09-4.086zM73.75.077h-8.154a4.103 4.103 0 0 0-4.09 4.088l-.01 23.379H16.483l-.015-23.455C16.468 1.842 14.622 0 12.374 0H4.11A4.103 4.103 0 0 0 .019 4.089v63.212a4.105 4.105 0 0 0 4.091 4.093h8.264c2.248 0 4.095-1.844 4.095-4.093l.007-23.733h45.021l.01 23.733a4.09 4.09 0 0 0 4.09 4.08l8.154-.012a4.113 4.113 0 0 0 4.095-4.104v-63.1A4.105 4.105 0 0 0 73.75.077zM158.491 55.242l-53.572-.004V43.693l42.951-.021c2.248 0 4.095-1.846 4.104-4.095l.022-7.816a4.087 4.087 0 0 0-4.075-4.097l-43.003-.011V16.092l53.566-.008a4.105 4.105 0 0 0 4.094-4.095V4.115c0-2.249-1.84-4.09-4.094-4.09H92.726a4.105 4.105 0 0 0-4.094 4.09v63.068a4.104 4.104 0 0 0 4.094 4.091h65.754a4.112 4.112 0 0 0 4.099-4.091v-7.855c.004-2.246-1.838-4.086-4.088-4.086zM243.51.109H175.4a4.099 4.099 0 0 0-4.091 4.088v7.866a4.098 4.098 0 0 0 4.091 4.09h25.924l-.004 51.098a4.099 4.099 0 0 0 4.089 4.092h8.772a4.099 4.099 0 0 0 4.089-4.092l.009-51.098h25.23a4.098 4.098 0 0 0 4.091-4.09V4.198a4.097 4.097 0 0 0-4.09-4.089zM573.534 45.368c4.465-1.063 8.802-2.768 11.744-6.319.037-.041.075-.065.112-.107 3.571-4.325 5.394-9.495 5.394-15.372 0-4.915-1.23-9.296-3.653-13.009-4.091-6.368-9.825-9.792-17.04-10.173-.037-.004-3.521-.094-3.521-.094a353.564 353.564 0 0 0-8.179-.127L517.822.088a4.09 4.09 0 0 0-4.091 4.084v63.112a4.098 4.098 0 0 0 4.091 4.093h7.74a4.103 4.103 0 0 0 4.095-4.093l-.021-20.572 19.051-.029c2.257 0 5.376 1.319 6.938 2.941l18.7 18.774c1.562 1.615 4.156 2.938 6.401 2.938l14.356.004c2.245 0 2.793-1.309 1.212-2.909-.001 0-22.218-22.51-22.76-23.063zm-5.213-14.688l-38.633.02V16.17l38.633-.026c3.307 0 6.003 2.706 6.003 6.01v.955c.005.136.037.247.037.385 0 .12-.028.232-.037.352v.831c0 3.3-2.697 6.003-6.003 6.003zM328.772 55l-45.615-.009 44.938-39.483c1.691-1.486 3.056-4.537 3.048-6.79l-.005-4.554c-.008-2.245-1.861-4.088-4.104-4.088h-66.585c-2.25 0-4.093 1.843-4.093 4.088v7.916c0 2.25 1.843 4.086 4.093 4.086l42.922-.008c-.546.475-44.685 39.179-44.685 39.179-1.691 1.489-3.072 4.545-3.077 6.793v5.154a4.103 4.103 0 0 0 4.089 4.089h69.075c2.25 0 4.09-1.84 4.09-4.089v-8.192A4.103 4.103 0 0 0 328.772 55z"></path><path fill="#575756" d="M0 111.987h332.886v3.899H0zM538.286 111.972h58.94v3.899h-58.94zM351.134 88.696c-6.919 0-9.872 3.089-9.872 10.32v6.84c0 7.234 2.953 10.32 9.872 10.32h14.402c6.92 0 9.87-3.086 9.87-10.32v-6.84c0-7.231-2.95-10.32-9.87-10.32h-14.402zm-4.57 18.44V97.74c0-3.138 1.377-4.36 4.914-4.36h13.718c3.536 0 4.913 1.223 4.913 4.36v9.396c0 3.141-1.377 4.363-4.913 4.363h-13.718c-3.537 0-4.914-1.223-4.914-4.363zM409.625 88.977v20.683c-2.798-2.686-21.563-20.683-21.563-20.683h-6.382V115.9h5.296V95.217L408.54 115.9h6.383V88.977h-5.298zM421.853 88.977V115.9h24.712v-4.677h-19.414V88.977h-5.298zM450.799 88.977h5.297V115.9h-5.297zM491.075 88.977v20.683a89397.893 89397.893 0 0 0-21.559-20.683h-6.385V115.9h5.301V95.217c2.797 2.686 21.559 20.683 21.559 20.683h6.387V88.977h-5.303zM503.303 88.977V115.9h26.612v-4.677h-21.314v-6.822h20.349v-4.684h-20.349v-6.061h21.176v-4.68h-26.474z"></path><path fill="#D20C39" d="M420.615 24.953c-.011-.439-.007-.964.005-1.537-.008-4.895-1.238-9.256-3.653-12.956C412.876 4.092 407.002.444 399.786.064c-.037-.004-54.315.013-54.315.013-2.249 0-4.099 1.843-4.099 4.088v63.101c0 2.256 1.85 4.091 4.099 4.091l8.66.008c2.224 0 4.047-1.802 4.088-4.022l.002-51.188 32.225-.002.66.002h1.842c6.004 0 10.913 4.911 10.913 10.917v1.885c.002.037.008.078.008.107 0 1.101 0 2.008-.006 2.018v36.171c0 2.248 1.846 4.088 4.097 4.088h8.567a4.1 4.1 0 0 0 4.093-4.088V39.901l-.004-7.263v-7.685z"></path></svg>