<svg width="1027" height="1014" viewBox="0 0 1027 1014" xmlns="http://www.w3.org/2000/svg"><title>H-Red</title><path d="M765.201 820.59c-144.726 0 78.082-820.4 78.082-820.4L694.143 0S633.09 193.09 592.81 407.653h-128.54c3.369-44.12 4.991-88.775 4.252-133.162C462.731-78.738 255.842-13.314 163.227 67.758 75.17 144.824 1.424 291.24 0 403.996c14.027-.683 69.445-.922 69.445-.922s46.083-210.236 190.809-210.236c144.705 0-78.443 820.412-78.443 820.412l149.205.111s77.116-219.636 115.464-464.906l122.745-.705c-7.148 63.469-9.422 133.559-8.374 198.65 5.813 353.23 211.893 277.427 304.508 196.375 92.616-81.071 161.727-252.257 160.873-334.453.114-.093-70.35.57-71.195.553.242 6.49-45.13 211.715-189.836 211.715z" fill="#D0011B" fill-rule="evenodd"></path></svg>