<svg xmlns="http://www.w3.org/2000/svg" width="1280" height="1059.658" viewBox="0 -110.171 1280 1059.658"><path d="M880.284 774.977c-321.05 225.987-711.262 220.048-828.7 53.612-137.921-195.465 9.914-543.037 333.93-764.75 283.627-194.077 685.246-245.064 828.695-53.615 172.285 229.937-12.877 538.765-333.925 764.753zm207.833-671.606C976.297-45.868 663.227-6.122 442.133 145.164 189.556 317.994 74.316 588.931 181.83 741.301c91.544 129.74 395.722 134.373 645.983-41.79 250.268-176.163 394.606-416.9 260.304-596.14z" fill="#f0622f"/><path d="M785.58 292.011c0-80.407-65.17-145.58-145.58-145.58-80.407 0-145.581 65.172-145.581 145.58 0 41.028 16.994 78.065 44.298 104.525-.011-.009-.022-.268-.031-.277l-44.267 296.398h291.16L741.313 396.26c27.287-26.459 44.268-63.235 44.268-104.249z"/></svg>