<?xml version="1.0" encoding="utf-8"?>
<!-- Generator: Adobe Illustrator 16.0.4, SVG Export Plug-In . SVG Version: 6.00 Build 0)  -->
<!DOCTYPE svg PUBLIC "-//W3C//DTD SVG 1.1//EN" "http://www.w3.org/Graphics/SVG/1.1/DTD/svg11.dtd">
<svg version="1.1"
	 id="Layer_1" xmlns:dc="http://purl.org/dc/elements/1.1/" xmlns:cc="http://creativecommons.org/ns#" xmlns:rdf="http://www.w3.org/1999/02/22-rdf-syntax-ns#" xmlns:svg="http://www.w3.org/2000/svg" xmlns:sodipodi="http://sodipodi.sourceforge.net/DTD/sodipodi-0.dtd" xmlns:inkscape="http://www.inkscape.org/namespaces/inkscape" sodipodi:docname="IFTTT_Logo.svg" inkscape:version="0.48.4 r9939"
	 xmlns="http://www.w3.org/2000/svg" xmlns:xlink="http://www.w3.org/1999/xlink" x="0px" y="0px" width="111px" height="50px"
	 viewBox="0 0 111 50" enable-background="new 0 0 111 50" xml:space="preserve">
<sodipodi:namedview  inkscape:cy="-16.712669" inkscape:cx="9.3801495" inkscape:zoom="1.4142136" fit-margin-left="0" fit-margin-top="0" showgrid="false" guidetolerance="10" gridtolerance="10" objecttolerance="10" bordercolor="#666666" pagecolor="#ffffff" borderopacity="1" id="namedview61" inkscape:current-layer="Layer_1" inkscape:window-maximized="1" inkscape:window-y="28" inkscape:window-x="0" fit-margin-bottom="0" fit-margin-right="0" inkscape:window-height="703" inkscape:window-width="1366" inkscape:pageshadow="2" inkscape:pageopacity="0">
	</sodipodi:namedview>
<rect id="rect7" x="14" y="14" fill="#33CCFF" width="7" height="22"/>
<rect id="rect11" x="24" y="30" fill="#33CCFF" width="7" height="6"/>
<rect id="rect15" x="24" y="21" fill="#33CCFF" width="7" height="2"/>
<rect id="rect17" x="24" y="14" width="7" height="7"/>
<rect id="rect19" x="31" y="14" fill="#FF4400" width="9" height="7"/>
<rect id="rect25" x="47" y="21" fill="#33CCFF" width="7" height="15"/>
<rect id="rect27" x="47" y="14" width="7" height="7"/>
<rect id="rect29" x="42" y="14" fill="#FF4400" width="5" height="7"/>
<rect id="rect31" x="54" y="14" fill="#FF4400" width="5" height="7"/>
<rect id="rect37" x="66" y="21" fill="#33CCFF" width="7" height="15"/>
<rect id="rect39" x="66" y="14" width="7" height="7"/>
<rect id="rect41" x="61" y="14" fill="#FF4400" width="5" height="7"/>
<rect id="rect43" x="73" y="14" fill="#FF4400" width="5" height="7"/>
<rect id="rect49" x="85" y="21" fill="#33CCFF" width="7" height="15"/>
<rect id="rect51" x="85" y="14" width="7" height="7"/>
<rect id="rect53" x="80" y="14" fill="#FF4400" width="5" height="7"/>
<rect id="rect55" x="92" y="14" fill="#FF4400" width="5" height="7"/>
<rect id="rect57" x="24" y="23" width="7" height="7"/>
<rect id="rect59" x="31" y="23" fill="#FF4400" width="6" height="7"/>
</svg>
