<svg xmlns="http://www.w3.org/2000/svg" width="164" height="205.297" viewBox="0 0 43.392 54.318"><g stroke-width=".265"><path d="M23.283 54.051c-1.382-.13-2.93-.355-3.44-.498-.99-.28-2.594-1.449-2.338-1.705.085-.085.914-.035 1.842.11.928.146 3.384.347 5.458.447l3.77.182v.726c0 1.135-.44 1.196-5.292.738zm-6.87-1.31c-1.508-.669-4.038-2.113-3.916-2.235.27-.27 3.565 1.062 4.617 1.866 1.35 1.031 1.095 1.165-.702.368zm6.077-1.448c-6.262-.682-9.77-1.418-11.907-2.5-1.32-.668-2.04-1.305-3.953-3.494l-.635-.726 1.434.768c4.289 2.296 14.493 3.53 24.293 2.938 2.708-.164 5.19-.364 5.518-.444.724-.178.794.43.21 1.828-.31.741-.61.988-1.522 1.251-1.092.316-11.36.605-13.438.379zm-3.566-4.773c-4.035-.438-9.835-1.566-10.59-2.058-.591-.387-2.172-3.495-1.91-3.757.091-.092 1.095.077 2.23.376 4.16 1.097 11.467 1.902 17.254 1.902 2.714 0 2.786.066 2.618 2.392-.07.978-.187 1.188-.745 1.342-1.07.295-5.165.204-8.857-.197zM4.816 42.607c-.893-1.017-2.588-4.128-2.24-4.112.552.026 1.687 1.357 2.437 2.856 1.022 2.046.943 2.554-.197 1.256zm15.292-1.377C11.156 40.473 4.67 38.917 2.4 36.98c-.98-.835-1.4-1.893-2.025-5.11l-.18-.925.895.883c2.338 2.306 7.957 3.835 16.77 4.565 4.753.394 16.923.16 20.902-.403 1.601-.226 3.298-.412 3.77-.413l.86-.002-.003 1.522c-.007 2.835-.123 2.942-3.965 3.674-1.696.323-4.2.445-10.187.494-4.365.037-8.473.02-9.128-.035zm-.926-6.894c-2.954-.256-7.993-.963-8.4-1.18-.376-.2-.463-.607-.463-2.17 0-2.768.087-2.833 3.175-2.384 1.382.2 5.111.44 8.286.53 4.485.13 5.858.252 6.152.546.26.26.378.993.378 2.35 0 1.874-.034 1.985-.678 2.23-.629.24-6.013.289-8.45.078zm-13.89-2.313c-2.48-.869-3.806-1.602-4.597-2.542C.094 28.767 0 28.412 0 26.856c0-.989.075-2.176.168-2.637l.167-.838.484.794c.577.95 1.934 1.686 5.122 2.781 2.707.93 2.71.933 2.57 3.86-.086 1.81-.102 1.848-.794 1.829-.388-.011-1.48-.29-2.425-.622zm12.964-6.004c-9.54-.633-17.198-3.141-17.198-5.634 0-.63 1.109-3.998 1.418-4.308.082-.081.441.2.799.626 1.371 1.63 5.367 2.984 11.674 3.956 2.586.399 4.735.49 11.587.493l8.412.003.177.661c.097.364.181 1.376.187 2.25l.01 1.587-1.19.31c-1.382.358-10.811.392-15.876.056zm3.308-7.004c-6.877-.655-14.302-2.233-15.856-3.37-.482-.352-.47-.415.336-1.793 1.282-2.192 1.524-2.44 2.212-2.269.334.084 1.451.452 2.483.82 2.597.923 5.994 1.432 11.883 1.78 3.078.183 5.102.412 5.221.592.107.162.197 1.085.199 2.05.003 1.595-.05 1.77-.591 1.923-.79.224-4.554.394-5.887.267zM3.978 14.16c-.247-.46-.13-.787.747-2.078 1.362-2.006 1.718-2.3 2.15-1.779.275.331.142.691-.78 2.106-1.443 2.215-1.738 2.46-2.117 1.751zm18.247-2.055c-2.531-.155-7.745-.877-9.374-1.299-2.032-.525-4.022-1.541-4.399-2.245-.25-.47-.187-.672.409-1.294 1.152-1.203 2.99-2.423 3.182-2.112.774 1.253 4.876 2.486 9.785 2.941 3.27.304 10.098.136 12.832-.314a93.78 93.78 0 0 1 2.785-.41l1.329-.17 1.11 1.585c1.04 1.482 1.083 1.61.656 1.99-.637.569-2.127.916-5.312 1.238-2.119.214-7.401.282-11.1.172a62.05 62.05 0 0 1-1.903-.082zm-.794-6.079c-1.769-.182-4.762-.916-4.762-1.167 0-.14.744-.731 1.653-1.315 1.28-.82 1.833-1.03 2.448-.926.436.074 2.193.279 3.902.455l3.11.321v2.812l-2.713-.042c-1.491-.023-3.128-.085-3.638-.138zM14.84 3.982l-.599-.637 1.677-.798c2.26-1.076 2.962-1.23 3.368-.741.271.327.221.461-.284.769-.338.205-1.22.749-1.96 1.208-.74.46-1.404.836-1.475.836-.07 0-.398-.287-.727-.637zm8.576-2.016c-1.443-.291-2.514-.724-2.514-1.016 0-.55 3.715-1.106 6.064-.91 1.529.129 2.007.29 2.806.949.725.598.876.849.61 1.017-.438.278-5.535.249-6.966-.04z" fill="#188bba"></path><path d="M23.283 54.051c-1.382-.13-2.93-.355-3.44-.498-.99-.28-2.594-1.449-2.338-1.705.085-.085.914-.035 1.842.11.928.146 3.384.347 5.458.447l3.77.182v.726c0 1.135-.44 1.196-5.292.738zm-6.87-1.31c-1.508-.669-4.038-2.113-3.916-2.235.27-.27 3.565 1.062 4.617 1.866 1.35 1.031 1.095 1.165-.702.368zm2.511-6.22c-4.035-.439-9.835-1.567-10.59-2.06-.591-.386-2.172-3.494-1.91-3.756.091-.092 1.095.077 2.23.376 4.16 1.097 11.467 1.902 17.254 1.902 2.714 0 2.786.066 2.618 2.392-.07.978-.187 1.188-.745 1.342-1.07.295-5.165.204-8.857-.197zM4.816 42.606c-.893-1.017-2.588-4.128-2.24-4.112.552.026 1.687 1.357 2.437 2.856 1.022 2.046.943 2.554-.197 1.256zm14.366-8.27c-2.954-.257-7.993-.964-8.4-1.18-.376-.2-.463-.608-.463-2.171 0-2.768.087-2.833 3.175-2.384 1.382.2 5.111.44 8.286.53 4.485.13 5.858.252 6.152.546.26.26.378.993.378 2.35 0 1.874-.034 1.985-.678 2.23-.629.24-6.013.289-8.45.078zm-13.89-2.314c-2.48-.869-3.806-1.602-4.597-2.542C.094 28.767 0 28.412 0 26.856c0-.989.075-2.176.168-2.637l.167-.838.484.794c.577.95 1.934 1.686 5.122 2.781 2.707.93 2.71.933 2.57 3.86-.086 1.81-.102 1.848-.794 1.829-.388-.011-1.48-.29-2.425-.622zm16.272-13.008c-6.877-.655-14.302-2.233-15.856-3.37-.482-.352-.47-.415.336-1.793 1.282-2.192 1.524-2.44 2.212-2.269.334.084 1.451.452 2.483.82 2.597.923 5.994 1.432 11.883 1.78 3.078.183 5.102.412 5.221.592.107.162.197 1.085.199 2.05.003 1.595-.05 1.77-.591 1.923-.79.224-4.554.394-5.887.267zM3.978 14.16c-.247-.46-.13-.787.747-2.078 1.362-2.006 1.718-2.3 2.15-1.779.275.331.142.691-.78 2.106-1.443 2.215-1.738 2.46-2.117 1.751zM21.43 6.026c-1.769-.182-4.762-.916-4.762-1.167 0-.14.744-.731 1.653-1.315 1.28-.82 1.833-1.03 2.448-.926.436.074 2.193.279 3.902.455l3.11.321v2.812l-2.713-.042c-1.491-.023-3.128-.085-3.638-.138zM14.84 3.982l-.599-.637 1.677-.798c2.26-1.076 2.962-1.23 3.368-.741.271.327.221.461-.284.769-.338.205-1.22.749-1.96 1.208-.74.46-1.404.836-1.475.836-.07 0-.398-.287-.727-.637z" fill="#707075"></path></g></svg>