<svg xmlns="http://www.w3.org/2000/svg" viewBox="0 0 41.786 57.945" width="41.786" height="57.945"><title>资源 3</title><g data-name="图层 2"><g data-name="图层 1"><path d="M34.865 22.505c5.24 0 6.88 2.48 6.51 7.75-.44 6.45.13 13 .4 19.47.1 2.52-.49 4-3.28 4.53a169.27 169.27 0 0 1-32.63 3.69 8.65 8.65 0 0 1-1.41-4.17c-.18-9.57-.21-19.14 0-28.7.13-5.3 4.26-5 7.8-5.37 6-.56 11.93.55 17.88 1a6.79 6.79 0 0 1 4.73 1.8z" fill="#fdc501"></path><path d="M13.175 20.975a18.33 18.33 0 0 1-3.46.17c-3.26-.44-3.85 1.22-3.83 4 .08 10.97-.02 21.9-.02 32.8-4.56-1.14-6.23-3.88-5.8-8.67a126.94 126.94 0 0 0 .57-20.34c-.42-5.81 2-8.19 7.17-8.91a4.33 4.33 0 0 1 4.76-.48 1.32 1.32 0 0 1 .61 1.43z" fill="#d0a125"></path><path d="M34.865 22.505l-4.28-.46a5 5 0 0 1-.94-2.77c-.36-6.88-3.22-12-10.12-14.15a3.71 3.71 0 0 1-.29-3.18c2.63-2.65 5.14.28 7.71.16 7.74 4.81 8.26 12.44 7.92 20.4z" fill="#504f4f"></path><path d="M19.865 2.045v2.91c-4.27 2.37-6.28 5.88-5.71 10.87.18 1.56.11 3.34-1.55 4.39l-4.82-.17c.16-4.28-.73-8.67 1.27-12.77 1.95-.65 2.85-2.56 4.42-3.65 1.91-1.36 3.74-3.36 6.39-1.58z" fill="#575551"></path><path d="M19.865 2.045c-3.31-.14-5.59 1.78-7.35 4.18-1.07 1.44-1.9 2.11-3.5 1 3.47-7.24 10.23-9.18 17.93-5.18-2.35.4-4.68-1-7.08 0z" fill="#a8a8a8"></path><path d="M29.805 43.325c6-2.45 7.23-8.79 3.14-13a11.27 11.27 0 0 0-12.93-2c-4.94 2.51-7.37 8-6.06 14 1.08 4.91 4.54 7.09 9.27 7.69 5.29.66 9.67-1.32 13.79-5.57.36 2.5-.91 3.35-1.86 4.23-5 4.59-14.8 4.95-20 .8-4.94-4-5.77-11.91-1.9-18.22a13.39 13.39 0 0 1 17-5.15c6.78 2.92 9.09 11 4.67 16.61-1.72 2.33-3.8 4.33-7.06 2.51a2.09 2.09 0 0 0-2.3.09c-2.48 1.49-4.87 1.41-6.66-1-2.3-3-1.86-6.29-.14-9.39 1.45-2.6 3.53-4.36 6.83-4.1 1.69.13 2.87 1.78 5.08.93 1.55-.6 1 1.52.86 2.54-.52 2.93-1.11 5.81-1.73 9.03z" fill="#110e01"></path><path d="M28.485 37.045c-.48 3.19-1.17 6.26-4.74 6.88-2.66.42-3.48-1.88-3.36-3.88.18-3.15.8-6.56 4.81-7 2.67-.28 2.91 2.13 3.29 4z" fill="#f9c300"></path></g></g></svg>