<svg xmlns="http://www.w3.org/2000/svg" viewBox="0 0 64.13 64.13"><defs><style>.cls-1{fill:#fefefe;}.cls-2{fill:#fdc501;}.cls-3{fill:#d0a125;}.cls-4{fill:#504f4f;}.cls-5{fill:#575551;}.cls-6{fill:#a8a8a8;}.cls-7{fill:#110e01;}.cls-8{fill:#fdfdfc;}.cls-9{fill:#f9c300;}</style></defs><title>资源 3</title><g id="图层_2" data-name="图层 2"><g id="图层_1-2" data-name="图层 1"><path class="cls-1" d="M.07.07c20.33,0,40.66,0,61-.07,2.5,0,3.08.56,3.06,3.07q-.18,29,0,58c0,2.5-.56,3.08-3.06,3.06q-29-.18-58,0C.57,64.15,0,63.57,0,61.07.12,40.73.07,20.4.07.07Z"/><path class="cls-2" d="M46,25.46c5.24,0,6.88,2.48,6.51,7.75-.44,6.45.13,13,.4,19.47.1,2.52-.49,4-3.28,4.53A169.27,169.27,0,0,1,17,60.9a8.65,8.65,0,0,1-1.41-4.17c-.18-9.57-.21-19.14,0-28.7.13-5.3,4.26-5,7.8-5.37,6-.56,11.93.55,17.88,1A6.79,6.79,0,0,1,46,25.46Z"/><path class="cls-3" d="M24.31,23.93a18.33,18.33,0,0,1-3.46.17c-3.26-.44-3.85,1.22-3.83,4C17.1,39.07,17,50,17,60.9c-4.56-1.14-6.23-3.88-5.8-8.67a126.94,126.94,0,0,0,.57-20.34c-.42-5.81,2-8.19,7.17-8.91a4.33,4.33,0,0,1,4.76-.48A1.32,1.32,0,0,1,24.31,23.93Z"/><path class="cls-4" d="M46,25.46,41.72,25a5,5,0,0,1-.94-2.77c-.36-6.88-3.22-12-10.12-14.15a3.71,3.71,0,0,1-.29-3.18c2.63-2.65,5.14.28,7.71.16C45.82,9.87,46.34,17.5,46,25.46Z"/><path class="cls-5" d="M31,5l0,2.91c-4.27,2.37-6.28,5.88-5.71,10.87.18,1.56.11,3.34-1.55,4.39L18.92,23c.16-4.28-.73-8.67,1.27-12.77,1.95-.65,2.85-2.56,4.42-3.65C26.52,5.22,28.35,3.22,31,5Z"/><path class="cls-6" d="M31,5c-3.31-.14-5.59,1.78-7.35,4.18-1.07,1.44-1.9,2.11-3.5,1C23.62,2.94,30.38,1,38.08,5,35.73,5.4,33.4,4,31,5Z"/><path class="cls-7" d="M40.94,46.28c6-2.45,7.23-8.79,3.14-13a11.27,11.27,0,0,0-12.93-2c-4.94,2.51-7.37,8-6.06,14,1.08,4.91,4.54,7.09,9.27,7.69,5.29.66,9.67-1.32,13.79-5.57.36,2.5-.91,3.35-1.86,4.23-5,4.59-14.8,4.95-20,.8-4.94-4-5.77-11.91-1.9-18.22a13.39,13.39,0,0,1,17-5.15c6.78,2.92,9.09,11,4.67,16.61C44.34,48,42.26,50,39,48.18a2.09,2.09,0,0,0-2.3.09c-2.48,1.49-4.87,1.41-6.66-1-2.3-3-1.86-6.29-.14-9.39,1.45-2.6,3.53-4.36,6.83-4.1,1.69.13,2.87,1.78,5.08.93,1.55-.6,1,1.52.86,2.54C42.15,40.18,41.56,43.06,40.94,46.28Z"/><path class="cls-8" d="M23.81,23.16c0-2.48,0-5,.12-7.45C24.11,10,25.4,8.59,31.07,7.9c6.72,1,9.87,4.32,10.46,11.11.18,2,.13,4,.19,6L24.31,23.93A1.18,1.18,0,0,0,23.81,23.16Z"/><path class="cls-9" d="M39.62,40c-.48,3.19-1.17,6.26-4.74,6.88C32.22,47.3,31.4,45,31.52,43c.18-3.15.8-6.56,4.81-7C39,35.72,39.24,38.13,39.62,40Z"/></g></g></svg>