<svg xmlns="http://www.w3.org/2000/svg" version="1.1" id="Layer_1" x="0" y="0" viewBox="0 0 29 41.093" xml:space="preserve" width="29" height="41.093"><style type="text/css" id="style2">.st4{fill:#ffc600}.st5{fill:#333}.st6{fill:#e5d86d}</style><title id="title4">ico-keeper</title><g id="ico-keeper" transform="translate(-.4 -.107)"><g id="personal-logo-keeper"><g id="keeper-logo-copy-2"><path id="Fill-7" d="M8.4 14.5l.1-6.9s.8-5.9 6.9-5.4c0 0 1.4.4-.2.3-1.6 0-5.3.6-6.2 5.3v6.7h-.6M7.4 6c-1.4 2.8-.6 8.3-.6 8.3h-1c0-7.4.9-8.4.9-8.4.3-.4.5-.4.6-.4-.2-.4-.4-.2-.4-.2C10.2-2.2 17.7.9 17.7.9c1.8.8-2.4.1-2.4.1C10 .9 7.5 7 7.5 7c0-.4-.1-.8-.1-1m11.9-1.9c3.8 2.7 2.3 6.8 2.3 6.8-.5-6.3-5.4-7.3-5.4-7.3-.8-2.3 3.1.5 3.1.5M9.1 8.3c1.2-5.6 5.5-5 5.5-5 6 .6 6.9 7.1 6.9 7.1l.1 5.4c1.1.1 2.1.2 2.9.3h-.1l-.2-6.2s-.9-6.1-5.7-8.2c0 0-.4-.2.1-.3 0 0 4.8 2.2 5.7 8.6l.2 5.3-.1-5.2C24.1 7.7 23.2 6 23.2 6 19.2-1.1 13 .2 13 .2 6 1.4 5.7 8.3 5.7 8.3l-.1 6.2c1.2.1 2.3.1 3.5.2V8.3" fill="#4e4d4d"></path><path id="Fill-8" d="M15.2 2.5c1.6.1.2-.3.2-.3-6.1-.4-6.9 5.5-6.9 5.5l-.1 6.9h.5V7.9c1-4.8 4.7-5.4 6.3-5.4" fill="#676767"></path><path id="Fill-9" fill="#bcbcbc" d="M24.6 16.1v-.8.8"></path><path id="Fill-10" d="M18.7 1.5c-.5.1-.1.3-.1.3 4.8 2.1 5.7 8.2 5.7 8.2l.2 6.2h.2v-.8l-.2-5.3c-1.1-6.5-5.8-8.6-5.8-8.6"></path><path id="Fill-11" d="M24.6 16.1h-.2l-.2-6.2s-.9-6.1-5.7-8.2l-.2-.1s.1-.1.2-.1c0 0 4.8 2.2 5.7 8.6l.2 5.3.2.7" fill="#2a2a2a"></path><path id="Fill-12" class="st4" d="M20.3 18.1c.5.1 1 .3 1.5.6.5.2.9.5 1.3.8.4.3.8.6 1.1 1 .3.4.6.7.9 1.1.3.4.5.8.6 1.2.2.4.3.9.4 1.4.1.5.1 1 .1 1.5v.9c0 .3-.1.5-.1.8-.1.3-.1.5-.2.8-.1.3-.2.5-.3.8-.1.3-.2.5-.4.7-.1.2-.3.5-.4.7-.2.2-.3.4-.5.6-.2.2-.4.4-.6.5-.2.2-.4.3-.6.5l-.6.3c-.2.1-.4.2-.7.2-.2.1-.4.1-.7.1h-.8c-.1 0-.2-.1-.3-.1-.1 0-.2-.1-.2-.1l-.2-.2c-.1-.1-.1-.2-.1-.3 0-.1-.1-.2-.1-.4 0-.1 0-.3-.1-.4-.1.1-.2.3-.3.4l-.3.3c-.1.1-.2.2-.4.3-.1.1-.3.2-.4.3-.1.1-.3.2-.4.2-.1.1-.3.1-.4.2-.1 0-.3.1-.4.1-.1 0-.3 0-.4.1h-.8c-.2 0-.5-.1-.7-.2-.2-.1-.4-.2-.7-.4-.2-.2-.4-.3-.6-.6-.2-.2-.4-.5-.5-.7-.1-.3-.3-.5-.4-.8-.1-.3-.2-.6-.2-.9 0-.3-.1-.6-.1-1 0-.3 0-.6.1-.8 0-.3.1-.6.2-.8.1-.3.2-.5.3-.8.1-.3.2-.5.4-.8.1-.3.3-.5.4-.7.2-.2.3-.4.5-.6.2-.2.4-.4.5-.6.2-.2.4-.3.6-.5.2-.1.4-.3.6-.4l.6-.3c.2-.1.4-.1.6-.1h.6c.3 0 .6.1.9.2.3.1.5.2.8.4.2.2.5.4.7.6.2.2.4.5.6.8l.3-1.5 1.6.1-1.4 7.1c0 .1 0 .2-.1.3v.7l.1.1.1.1.1.1s.1 0 .1.1h.2c.1 0 .2 0 .3-.1.1 0 .2-.1.4-.2.1-.1.2-.2.4-.3.1-.1.3-.2.4-.4l.4-.4c.1-.2.2-.3.4-.5.1-.2.2-.3.3-.5l.3-.6c.1-.2.1-.4.2-.6.1-.2.1-.4.1-.6 0-.2.1-.4.1-.6v-.6c0-.4 0-.8-.1-1.2-.1-.4-.2-.7-.3-1.1-.1-.4-.3-.7-.5-1-.2-.3-.5-.6-.8-.9-.3-.3-.6-.6-.9-.8-.3-.2-.7-.5-1.1-.6-.4-.2-.8-.3-1.2-.4-.4-.1-.9-.2-1.4-.2-.6-.1-1.1-.1-1.7 0-.6.1-1.1.2-1.6.3-.5.2-1 .4-1.5.7-.5.3-.9.6-1.4 1-.4.4-.8.8-1.2 1.3l-.9 1.5c-.2.6-.4 1.1-.5 1.8-.1.6-.2 1.3-.2 1.9 0 .7 0 1.3.2 1.9.1.6.3 1.1.5 1.7.2.5.5 1 .8 1.4.3.4.7.8 1.1 1.1.4.3.9.6 1.4.8.5.2 1 .4 1.6.5.6.1 1.1.2 1.8.2.6 0 1.3 0 1.9-.1.4 0 .8-.1 1.1-.2.4-.1.7-.2 1-.2l.9-.3c.3-.1.6-.3.8-.4.1-.1.2-.1.3-.2.1-.1.2-.1.3-.2.1-.1.2-.1.3-.2.1-.1.2-.2.3-.2l.3-.3.3-.3c.1-.1.2-.2.3-.4.1-.1.2-.2.3-.4l1.5-.1-.3.6c-.1.2-.2.4-.4.6-.1.2-.3.4-.4.6-.2.2-.3.4-.5.6-.2.2-.4.4-.6.5-.2.2-.4.3-.6.5-.2.2-.4.3-.7.4-.2.1-.5.3-.7.4-.2.1-.5.2-.8.3-.3.1-.5.2-.8.3-.3.1-.6.1-.9.2-.3.1-.7.1-1 .1-.8.1-1.5.1-2.2.1-.7 0-1.4-.1-2.1-.2-.7-.1-1.3-.3-1.9-.6-.6-.3-1.2-.6-1.7-1s-1-.8-1.4-1.3c-.4-.5-.7-1.1-1-1.7-.3-.8-.5-1.5-.7-2.2-.1-.7-.2-1.4-.2-2.2V28c0-.5 0-1.1.1-1.6l.3-1.5c.1-.5.3-1 .5-1.4.3-.5.5-.9.8-1.4l.9-1.2c.3-.4.6-.7 1-1 .3-.3.7-.6 1.1-.8.4-.2.7-.4 1.1-.6.4-.2.8-.3 1.2-.4.4-.1.8-.2 1.3-.2.4-.1.9-.1 1.3-.1s.9 0 1.4.1c.5 0 1 .1 1.5.2zm9.1 19.6c0-.3-.3-21-.3-21s-1.6-.2-4.4-.6h-.1c-.9-.1-1.8-.2-2.9-.3-3.4-.4-7.7-.8-12.6-1.1-1.1-.1-2.3-.1-3.5-.2h-.8s-.1-.1-.4 0h-.1l-.4 26.6h.4c.1.1 17.9-.8 25.1-3.4z" fill="#ffc600"></path><path id="Fill-13" class="st4" d="M20 25.1c-.1-.2-.1-.3-.2-.5s-.2-.3-.3-.4c-.1-.1-.2-.3-.3-.4-.1-.1-.2-.2-.4-.3-.1-.1-.3-.1-.4-.2-.2 0-.3-.1-.5-.1s-.4 0-.6.1c-.2.1-.4.1-.6.3-.2.1-.4.3-.6.5-.2.2-.4.4-.6.7-.2.3-.3.5-.5.8-.1.3-.3.6-.3.9-.1.3-.2.6-.2.9 0 .3-.1.6-.1 1v.6c0 .2.1.4.1.6.1.2.1.3.2.5s.2.3.3.4c.1.1.2.3.3.4.1.1.2.2.4.2.1.1.3.1.4.1h.5c.2 0 .5-.1.7-.1l.6-.3c.2-.1.4-.3.6-.5.2-.2.4-.4.6-.7.2-.3.3-.5.5-.8.1-.3.2-.6.3-.8.1-.3.1-.6.2-.9 0-.3.1-.6.1-.9v-.6c-.1-.2-.2-.4-.2-.5" fill="#ffc600"></path><path id="Fill-14" class="st5" d="M6.7 5.9s-.9 1-.9 8.4h1S6 8.8 7.4 6c0-.2-.1-.4-.1-.5-.1 0-.3 0-.6.4" fill="#333"></path><path id="Fill-15" class="st5" d="M16.3 3.6s4.9 1 5.4 7.3c0 0 1.5-4.1-2.3-6.8-.1 0-4-2.8-3.1-.5" fill="#333"></path><path id="Fill-16" class="st6" d="M26 27.2c-.1.3-.1.5-.2.8-.1.3-.2.5-.3.8-.1.3-.2.5-.4.7-.1.2-.3.5-.4.7-.2.2-.3.4-.5.6-.2.2-.4.4-.6.5-.2.2-.4.3-.6.5l-.6.3c-.2.1-.4.2-.7.2-.2.1-.4.1-.7.1h-.8c-.1 0-.2-.1-.3-.1-.1 0-.2-.1-.2-.1l-.2-.2c-.1-.1-.1-.2-.1-.3 0-.1-.1-.2-.1-.4 0-.1 0-.3-.1-.4-.1.1-.2.3-.3.4l-.3.3c-.1.1-.2.2-.4.3-.1.1-.3.2-.4.3-.1.1-.3.2-.4.2-.1.1-.3.1-.4.2-.1 0-.3.1-.4.1-.1 0-.3 0-.4.1h-.8c-.2 0-.5-.1-.7-.2-.2-.1-.4-.2-.7-.4-.2-.2-.4-.3-.6-.6-.2-.2-.4-.5-.5-.7-.1-.3-.3-.5-.4-.8-.1-.3-.2-.6-.2-.9 0-.3-.1-.6-.1-.9 0 .3 0 .7.1 1 0 .3.1.6.2.9.1.3.2.5.4.8.1.3.3.5.5.7l.6.6c.2.2.4.3.7.4.2.1.5.2.7.2.2 0 .5.1.8 0 .1 0 .3 0 .4-.1.1 0 .3-.1.4-.1.1 0 .3-.1.4-.2.1-.1.3-.1.4-.2.1-.1.3-.2.4-.3.1-.1.2-.2.4-.3l.3-.3c.1-.1.2-.2.3-.4 0 .2 0 .3.1.4 0 .1.1.2.1.4 0 .1.1.2.1.3.1.1.1.2.2.2.1.1.1.1.2.1s.2.1.3.1h.8c.2 0 .5 0 .7-.1.2-.1.4-.1.7-.2l.6-.3c.2-.1.4-.3.6-.5.2-.2.4-.4.6-.5.2-.2.3-.4.5-.6.2-.2.3-.4.4-.7.1-.2.3-.5.4-.7.1-.3.2-.5.3-.8.1-.3.2-.5.2-.9.1-.2.1-.4.1-.7v-.8.7c0 .3 0 .6-.1.8" fill="#e5d86d"></path><path id="Fill-17" class="st6" d="M21.1 29.7v.5-.1-.2-.2s0-.1.1-.2l1.4-7.1-1.4 7c0 .1-.1.2-.1.3" fill="#e5d86d"></path><path id="Fill-18" class="st6" d="M24.8 24.4c-.1-.4-.2-.7-.3-1.1-.1-.4-.3-.7-.5-1-.2-.3-.5-.6-.8-.9-.3-.3-.6-.6-.9-.8-.3-.2-.7-.5-1.1-.6-.4-.2-.8-.3-1.2-.4-.4-.1-.9-.2-1.4-.2-.6-.1-1.1-.1-1.7 0-.6.1-1.1.2-1.6.3-.5.2-1 .4-1.5.7-.5.3-.9.6-1.4 1-.4.4-.8.8-1.2 1.3l-.9 1.5c-.2.6-.4 1.1-.5 1.8-.1.6-.2 1.3-.2 2 0-.7.1-1.3.2-1.9.1-.6.3-1.2.5-1.8.2-.6.5-1.1.9-1.5.3-.5.7-.9 1.2-1.3.4-.4.9-.7 1.4-1 .5-.3 1-.5 1.5-.7.5-.2 1-.3 1.6-.3h1.7c.5 0 .9.1 1.4.2.4.1.8.3 1.2.4.4.2.7.4 1.1.6.3.2.7.5.9.8.3.3.5.6.8.9.2.3.4.7.5 1 .2.3.3.7.3 1 .1.5.1.8.1 1.2v-.1c.1-.3 0-.7-.1-1.1" fill="#e5d86d"></path><path id="Fill-19" class="st6" d="M20 25c-.1-.2-.1-.3-.2-.5s-.2-.3-.3-.4c-.1-.1-.2-.3-.3-.4-.1-.1-.2-.2-.4-.3-.1-.1-.3-.1-.4-.2-.2 0-.3-.1-.5-.1s-.4 0-.6.1c-.2.1-.4.1-.6.3-.2.1-.4.3-.6.5-.2.2-.4.4-.6.7-.2.3-.3.5-.5.8-.1.3-.3.6-.3.9-.1.3-.2.6-.2.9 0 .3-.1.7-.1 1 0-.3 0-.7.1-1 0-.3.1-.6.2-.9l.3-.9c.1-.3.3-.6.5-.8.2-.3.4-.5.6-.7.2-.2.4-.3.6-.5l.6-.3c.2-.1.4-.1.6-.1.2 0 .3 0 .5.1.2 0 .3.1.4.2.1.1.3.2.4.3.1.1.2.2.3.4.1.1.2.3.3.4.1.2.1.4.2.5.1.2.1.4.1.6v0c0-.3-.1-.4-.1-.6" fill="#e5d86d"></path><path id="Fill-20" class="st6" d="M26 33.1c-.1.2-.3.4-.4.6-.2.2-.3.4-.5.6-.2.2-.4.4-.6.5-.2.2-.4.3-.6.5-.2.2-.4.3-.7.4-.2.1-.5.2-.7.4-.2.1-.5.2-.8.3-.3.1-.5.2-.8.3-.3.1-.6.1-.9.2-.3.1-.7.1-1 .1h-2.3c-.7 0-1.4-.1-2.1-.2-.7-.1-1.3-.3-1.9-.6-.6-.3-1.2-.6-1.7-1s-1-.8-1.4-1.3c-.4-.5-.7-1.1-1-1.7-.3-.6-.5-1.3-.6-1.9-.1-.7-.2-1.4-.2-2.2 0 .8.1 1.5.2 2.2.1.7.3 1.3.6 1.9.3.6.6 1.1 1 1.7.4.5.9.9 1.4 1.3.5.4 1.1.7 1.7 1 .6.3 1.2.5 1.9.6.7.1 1.4.2 2.1.2.7 0 1.4 0 2.2-.1.3 0 .7-.1 1-.1.3-.1.6-.1.9-.2.3-.1.6-.2.8-.3.3-.1.5-.2.8-.3.2-.1.5-.2.7-.4.2-.1.5-.3.7-.4.2-.2.4-.3.6-.5.2-.2.4-.4.6-.5.2-.2.4-.4.5-.6.2-.1.4-.3.5-.5.1-.1.2-.3.4-.5l.3-.6c-.1.2-.2.4-.3.5-.1.2-.3.4-.4.6" fill="#e5d86d"></path><path id="Fill-21" d="M20.1 26.2c0 .3 0 .6-.1.9 0 .3-.1.6-.2.9-.1.3-.2.6-.3.8-.1.3-.3.5-.5.8-.2.3-.4.5-.6.7-.2.2-.4.4-.6.5l-.6.3c-.2.1-.5.1-.7.1H16c-.1 0-.3-.1-.4-.1-.1-.1-.3-.1-.4-.2-.1-.1-.2-.2-.3-.4-.1-.1-.2-.3-.3-.4-.1-.2-.1-.3-.2-.5s-.1-.4-.1-.6v-.6c0-.3 0-.7.1-1 0-.3.1-.6.2-.9l.3-.9c.1-.3.3-.6.5-.8.2-.3.4-.5.6-.7.2-.2.4-.3.6-.5l.6-.3c.2-.1.4-.1.6-.1.2 0 .3 0 .5.1.2 0 .3.1.4.2.1.1.3.2.4.3.1.1.2.2.3.4.1.1.2.3.3.4.1.2.1.3.2.5s.1.4.1.5c.1.1.1.3.1.6zm-1.4-8.4c-.5-.1-.9-.1-1.4-.1-.4 0-.9 0-1.3.1s-.9.1-1.3.2-.8.3-1.2.4c-.4.2-.8.4-1.1.6-.4.2-.7.5-1.1.8-.3.3-.7.6-1 1L9.4 22c-.2.6-.4 1-.6 1.5-.2.5-.4.9-.5 1.4L8 26.4c-.1.5-.1 1-.1 1.6v.1c0 .8.1 1.5.2 2.2.1.7.3 1.3.6 1.9.3.6.6 1.1 1 1.7.4.5.9.9 1.4 1.3.5.4 1.1.7 1.7 1 .6.3 1.2.5 1.9.6.7.1 1.4.2 2.1.2.7 0 1.4 0 2.2-.1.3 0 .7-.1 1-.1.3-.1.6-.1.9-.2.3-.1.6-.2.8-.3.3-.1.5-.2.8-.3.2-.1.5-.2.7-.4.2-.1.5-.3.7-.4.2-.2.4-.3.6-.5.2-.2.4-.4.6-.5.2-.2.4-.4.5-.6.2-.2.3-.4.4-.6.1-.2.2-.4.4-.6.1-.2.2-.4.3-.5l-1.5.1c-.1.1-.2.2-.3.4-.1.1-.2.2-.3.4l-.3.3-.3.3c-.1.1-.2.2-.3.2-.1.1-.2.2-.3.2-.1.1-.2.1-.3.2-.1.1-.2.1-.3.2-.3.2-.5.3-.8.4l-.9.3c-.3.1-.7.2-1 .2-.4.1-.7.1-1.1.2-.7.1-1.3.1-1.9.1-.6 0-1.2-.1-1.8-.2-.6-.1-1.1-.3-1.6-.5s-1-.5-1.4-.8c-.4-.3-.8-.7-1.1-1.1-.3-.4-.6-.9-.8-1.4-.2-.5-.4-1.1-.5-1.7-.1-.6-.2-1.2-.2-1.9s.1-1.3.2-2c.1-.6.3-1.2.5-1.8.2-.6.5-1.1.9-1.5.3-.5.7-.9 1.2-1.3.4-.4.9-.7 1.4-1 .5-.3 1-.5 1.5-.7.5-.2 1-.3 1.6-.3h1.7c.5 0 .9.1 1.4.2.4.1.8.3 1.2.4.4.2.7.4 1.1.6.3.2.7.5.9.8.3.3.5.6.8.9.2.3.4.7.5 1 .1.4.3.7.3 1.1.1.4.1.8.1 1.2v.7c0 .2 0 .4-.1.6 0 .2-.1.4-.1.6-.1.2-.1.4-.2.6l-.3.6c-.1.2-.2.4-.3.5-.1.2-.2.3-.4.5-.1.2-.3.3-.4.4l-.4.4c-.1.1-.3.2-.4.3-.1.1-.2.1-.4.2-.1 0-.2.1-.3.1h-.2s-.1 0-.1-.1l-.1-.1-.1-.1-.1-.1V30.2 30v-.2c0-.1 0-.2.1-.3l1.4-7-1.6-.2-.3 1.5c-.2-.3-.4-.6-.6-.8-.2-.2-.4-.4-.7-.6-.2-.2-.5-.3-.8-.4-.3-.1-.6-.2-.9-.2h-.6c-.2 0-.4.1-.6.1-.2.1-.4.1-.6.3-.2.1-.4.2-.6.4-.2.1-.4.3-.6.5-.2.2-.4.4-.5.6-.2.2-.3.4-.5.6-.2.2-.3.5-.4.7-.1.3-.3.5-.4.8-.1.3-.2.5-.3.8-.1.3-.1.5-.2.8 0 .3-.1.6-.1.8 0 .3 0 .6.1.9 0 .3.1.6.2.9.1.3.2.5.4.8.1.3.3.5.5.7l.6.6c.2.2.4.3.7.4.2.1.5.2.7.2.2 0 .5.1.8 0 .1 0 .3 0 .4-.1.1 0 .3-.1.4-.1.1 0 .3-.1.4-.2.1-.1.3-.1.4-.2.1-.1.3-.2.4-.3.1-.1.2-.2.4-.3l.3-.3c.1-.1.2-.2.3-.4 0 .2 0 .3.1.4 0 .1.1.2.1.4 0 .1.1.2.1.3.1.1.1.2.2.2.1.1.1.1.2.1s.2.1.3.1h.8c.2 0 .5 0 .7-.1.2-.1.4-.1.7-.2l.6-.3c.2-.1.4-.3.6-.5.2-.2.4-.4.6-.5.2-.2.3-.4.5-.6.2-.2.3-.4.4-.7.1-.2.3-.5.4-.7.1-.3.2-.5.3-.8.1-.3.2-.5.2-.8.1-.3.1-.5.1-.8V25.5c0-.5-.1-1-.1-1.5-.1-.5-.2-.9-.4-1.4l-.6-1.2c-.3-.4-.5-.8-.9-1.1-.3-.4-.7-.7-1.1-1-.4-.3-.8-.6-1.3-.8-.5-.2-.9-.4-1.5-.6-.5.1-1 0-1.6-.1z"></path><path id="Fill-22" d="M15.3 1s4.2.6 2.4-.1c0 0-7.5-3.2-10.8 4.4 0 0 .2-.2.4.2 0 .1.1.3.1.5v1c.1 0 2.6-6.1 7.9-6" fill="#b3b3b3"></path><path id="Fill-23" d="M4 41.2l.4-26.7c-.1 0-.3.1-.5.2l-3 1.4-.5 22.8s3.5 2.2 3.6 2.3" fill="#fdc80a"></path><path id="Fill-24" d="M4.3 14.5c-.1 0-.3.1-.5.2l-3 1.4-.4 22.8s3.5 2.3 3.6 2.3l.3-26.7" fill="#cf9f24"></path></g></g></g></svg>