<svg xmlns="http://www.w3.org/2000/svg" width="1000.119" height="955"><path d="M861.499 848.682l-102.035-53.816-102.035 53.816 19.485-113.999-82.549-80.732 114.081-16.641 51.018-103.708L810.48 637.31l114.081 16.641-82.549 80.732L861.5 848.682zm-596.42-409.229l-71.961 370.11c-9.13 28.263-21.59 48.412-48.168 48.479-26.644 0-48.317-21.73-48.317-48.479v-485.97c0-26.734 21.673-48.48 48.317-48.48h177.56V145.437c0-26.733 21.673-48.479 48.317-48.479H629.31c26.644 0 48.317 21.746 48.317 48.479v129.677h177.559c26.644 0 48.317 21.745 48.317 48.478v50.425H349.136s-72.044.615-84.057 65.436zM774.26 178.155v-32.718C774.26 65.237 709.225 0 629.31 0H370.826c-79.932 0-144.95 65.237-144.95 145.437v32.718H144.95C65.02 178.155 0 243.393 0 323.592v485.971C0 889.763 65.019 955 144.95 955h710.236c79.915 0 144.933-65.237 144.933-145.437v-485.97c0-80.2-65.018-145.438-144.933-145.438H774.26z" fill="#71ba05"/></svg>