<?xml version="1.0" encoding="iso-8859-1"?>
<!-- Generator: Adobe Illustrator 19.0.0, SVG Export Plug-In . SVG Version: 6.00 Build 0)  -->
<svg version="1.1" id="Capa_1" xmlns="http://www.w3.org/2000/svg" xmlns:xlink="http://www.w3.org/1999/xlink" x="0px" y="0px"
	 viewBox="0 0 512 512" style="enable-background:new 0 0 512 512;" xml:space="preserve">
<polygon style="fill:#6BBF32;" points="283.389,312.972 291.039,433.382 447.609,312.251 451.919,203.894 "/>
<polygon style="fill:#88D652;" points="267.759,66.832 148.589,116.938 213.589,493.297 291.039,433.382 "/>
<polygon style="fill:#3C8819;" points="148.589,116.938 61.919,66.842 143.169,443.201 213.589,493.297 "/>
<path d="M377.191,166.974l-100.156,45.36l-6.985,127.169l87.344-56.535l-1.538,81.284l-80.29,62.117l30.952,14.029l155.796-120.533
	l5.062-127.191L377.191,166.974z M432.897,304.648l-46.589,36.044l1.465-77.388l48.007-31.073L432.897,304.648z"/>
<path style="fill:#383838;" d="M304.221,404.2l-5.296-83.387l0,0L282.223,57.844L182.146,0L44.623,57.809l85.12,394.275L213.968,512
	l92.551-71.603L304.221,404.2L304.221,404.2z M254.133,88.865l5.798,91.288l-77.813,42.757l-16.71-96.749L254.133,88.865z
	 M83.734,96.796l51.274,29.636l15.465,89.545l-47.297-29.123L83.734,96.796z M111.961,227.543l45.331,27.912l14.624,84.674
	l-41.56-27.38L111.961,227.543z M156.604,434.329l-17.194-79.641l39.517,26.034l13.682,79.221L156.604,434.329z M187.524,254.22
	l74.51-40.942l5.834,91.853l-64.356,41.656L187.524,254.22z M224.129,466.164l-15.059-87.19l60.98-39.47l5.517,86.865
	L224.129,466.164z"/>
<g>
</g>
<g>
</g>
<g>
</g>
<g>
</g>
<g>
</g>
<g>
</g>
<g>
</g>
<g>
</g>
<g>
</g>
<g>
</g>
<g>
</g>
<g>
</g>
<g>
</g>
<g>
</g>
<g>
</g>
</svg>
