<svg xmlns="http://www.w3.org/2000/svg" width="69" height="69" viewBox="0 0 69 69"><path d="M56.9 37v16.6c0 .7-.4 1.1-1 1.3l-.7.1h-4a8 8 0 0 1-1.3 0c-.4-.1-.7-.3-.9-.5l-.2-1V39.8l-.2-4a6.5 6.5 0 0 0-1-3.1 4.3 4.3 0 0 0-3-1.8h-.7l-.8-.1h-.6l-.4.1a6.5 6.5 0 0 0-2.5 1c-1.3.9-2 2.2-2.3 3.9a43 43 0 0 0-.3 5.7v11.9c0 .3 0 .6-.2.9-.2.4-.5.6-.9.7l-1.6.1h-4.2c-.4 0-.7-.2-.9-.4-.3-.4-.4-.9-.4-1.5V27.5l.1-1c0-.4.1-.7.3-1l.4-.2.5-.2H35l.8.1c.2.2.4.3.5.6l.3.8v.4l.1.3.2.4s.2 0 .3.2c.4 0 .7-.1 1-.5l.9-.8c1-.7 2.2-1.4 3.5-1.8a5 5 0 0 1 1-.2 16.8 16.8 0 0 0 1.8-.3h.4c2.3 0 4.3.3 5.8 1a8.5 8.5 0 0 1 4.3 4.6 147.2 147.2 0 0 1 .8 3.2v.5l.2 1.6zm-34 17.4c-.2.3-.6.5-1.1.6l-.9.1h-4.3l-1.2-.1c-.4 0-.7-.2-1-.4-.1-.2-.3-.5-.3-.8V16c0-.7 0-1.3.2-1.6.1-.2.4-.4.7-.5h.4l.2-.1h6.2c.4 0 .7.2 1 .5l.2 1V53c.1.6 0 1-.2 1.4zM34.5 0a34.5 34.5 0 1 0 0 69 34.5 34.5 0 0 0 0-69" fill="#231f20"></path></svg>