<svg xmlns="http://www.w3.org/2000/svg" viewBox="0 0 181.8 181.6" width="181.8" height="181.6"><path d="M90.9 0C40.7 0 0 40.7 0 90.8c0 50.1 40.7 90.8 90.9 90.8s90.9-40.7 90.9-90.8C181.9 40.6 141.1 0 90.9 0zM76.6 135c2.5.8 3.7 2.1 3.7 3.9v11.3c-1.5 1.5-2.8 2.1-3.9 2.1H42.6c-2.4-.9-3.4-1.8-3-2.8-.1-3.8-.1-7.6-.2-11.3.3-2.5 1.3-3.5 3-3h7V52.3h-6.7c-1.8.3-2.9-1.2-3.1-4.5-.1-3.5-.1-7.1-.2-10.6-.4-2.3 1-3.7 4.1-4.3 10.2 0 20.3-.1 30.5-.1 4.7 1.1 6.7 3.1 6.2 6 .1 3.5.2 6.9.2 10.4-.8 2.5-2.8 3.4-3.7 3.5-2.1-.1-2.1 0-6.2-.1v82.5c2.1-.1 4.1-.1 6.1-.1zm71 14.4c-.3 1.9-1.5 2.9-3.4 2.9h-11.7c-1.6-.1-2.4-1.3-2.5-3.5-.1-19.3-.2-38.6-.2-57.9-.9-4.8-3.4-7.4-7.5-7.8-8.5.8-12.9 5.5-13.3 14.2v49.3c-.3 4.1-2.5 4.8-4.2 5.7H93.3c-2.3-.3-3.5-1.6-3.6-3.7V72.2c.2-2.6 1.5-4 3.8-4.4h8.6c3.3-.2 5 2.7 5.1 8.7 4.3-6.2 10.6-9.9 19.1-10.9 12.1-.1 19.2 4.8 21.4 14.9v68.9z" fill="#003f90"></path></svg>