<svg xmlns="http://www.w3.org/2000/svg" version="1.1" id="prefix__Layer_2" x="0" y="0" xml:space="preserve" width="388.794" height="589.7"><style type="text/css" id="style2">.prefix__st0{fill:#fe9000}</style><g id="prefix__g26" transform="translate(-27.006 -31.3)"><path class="prefix__st0" id="prefix__rect4" fill="#fe9000" d="M308 476h29v145h-29z"/><path class="prefix__st0" id="prefix__rect6" fill="#fe9000" d="M307 31.3h29v145h-29z"/><path transform="rotate(18.414 252.668 537.395)" class="prefix__st0" id="prefix__rect8" fill="#fe9000" d="M238.1 464.9h29v145h-29z"/><path transform="rotate(35.982 190.41 505.59)" class="prefix__st0" id="prefix__rect10" fill="#fe9000" d="M175.9 433.1h29v145h-29z"/><path transform="rotate(54.422 141.28 455.754)" class="prefix__st0" id="prefix__rect12" fill="#fe9000" d="M126.8 383.2h29v145h-29z"/><path transform="rotate(71.953 110.232 393.829)" class="prefix__st0" id="prefix__rect14" fill="#fe9000" d="M95.7 321.3h29v145h-29z"/><path transform="rotate(90 99.506 325.5)" class="prefix__st0" id="prefix__rect16" fill="#fe9000" d="M85 253h29v145H85z"/><path transform="scale(-1) rotate(-72.038 -354.04 150.881)" class="prefix__st0" id="prefix__rect18" fill="#fe9000" d="M95.2 184.9h29v145h-29z"/><path transform="rotate(126.256 141.261 194.852)" class="prefix__st0" id="prefix__rect20" fill="#fe9000" d="M126.8 122.4h29v145h-29z"/><path transform="rotate(-18.132 252.604 114.418)" class="prefix__st0" id="prefix__rect22" fill="#fe9000" d="M238.1 41.9h29v145h-29z"/><path transform="rotate(-36.293 191.108 145.094)" class="prefix__st0" id="prefix__rect24" fill="#fe9000" d="M176.6 72.6h29v145h-29z"/></g><path d="M348.994 307.3c-.8-20.3-1.5-44.5-1.5-69.3h-.5c-5.5 21.5-12.5 45.5-19 65.3l-20.5 65.8h-29.8l-18-65.3c-5.5-19.8-11-43.5-15.3-65.8h-.4c-.8 22.8-1.8 48.8-2.8 69.8l-3.3 64h-35.3l10.8-168.5h50.8l16.5 56.3c5.5 19.5 10.5 40.5 14.3 60.3h1c4.5-19.5 10.3-41.8 16-60.5l17.8-56h50l9 168.5h-37z" id="prefix__path28"/></svg>