<svg xmlns="http://www.w3.org/2000/svg" width="256" height="256" viewBox="0 0 256 256"><path d="M128 105.85c12.24 0 22.15 9.92 22.15 22.15 0 12.24-9.91 22.15-22.15 22.15-12.24 0-22.15-9.92-22.15-22.15 0-12.23 9.91-22.15 22.15-22.15zM52.51 128c0-41.69 33.8-75.49 75.49-75.49s75.49 33.8 75.49 75.49c0 2.76-.15 5.48-.44 8.16-.57 7.36 4.83 12.97 12.14 12.97 12.41 0 13.73-16 13.73-21.13 0-55.74-45.18-100.92-100.92-100.92S27.08 72.26 27.08 128 72.26 228.92 128 228.92c29.6 0 56.22-12.74 74.69-33.04l20.74 17.43C200 239.5 165.92 256 128 256 57.31 256 0 198.69 0 128S57.31 0 128 0s128 57.31 128 128c0 28.42-13.53 51.49-40.71 51.49-11.96 0-19.23-5.48-23.2-11.6-13.33 21.37-37.04 35.6-64.09 35.6-41.69 0-75.49-33.8-75.49-75.49zM128 79.59c-26.74 0-48.41 21.67-48.41 48.41 0 26.74 21.67 48.41 48.41 48.41 26.73 0 48.41-21.67 48.41-48.41 0-26.74-21.68-48.41-48.41-48.41z" fill="#AF252A"></path></svg>