<svg xmlns="http://www.w3.org/2000/svg" viewBox="0 0 391.363 415.391" width="391.363" height="415.391"><path d="M294.463 196.296c3-.4 5.9-.4 8.6 0 1.5-3.5 1.8-9.7.4-16.3-2.1-9.9-4.9-15.9-10.6-14.9-5.8.9-6 8.1-3.9 18 1.1 5.5 3.2 10.3 5.5 13.2zM244.863 204.196c4.1 1.8 6.7 3 7.7 2 .6-.7.4-1.9-.5-3.5-2-3.3-6.2-6.7-10.7-8.6-9.1-3.9-20-2.6-28.3 3.4-2.8 2-5.4 4.8-5 6.5.1.6.5 1 1.5 1.1 2.3.3 10.2-3.8 19.4-4.3 6.4-.5 11.7 1.6 15.9 3.4zM236.563 208.896c-5.4.8-8.4 2.6-10.3 4.3-1.6 1.4-2.6 3-2.6 4.1 0 .5.2.8.4 1 .2.2.5.3.9.3 1.2 0 3.9-1.1 3.9-1.1 7.5-2.7 12.4-2.4 17.3-1.8 2.7.3 4 .5 4.6-.5.2-.3.4-.8-.2-1.7-1.2-2-6.6-5.5-14-4.6zM277.663 226.296c3.7 1.8 7.7 1.1 9-1.6 1.3-2.7-.6-6.3-4.2-8.1-3.7-1.8-7.7-1.1-9 1.6-1.3 2.7.6 6.3 4.2 8.1zM301.163 205.796c-3-.1-5.4 3.2-5.5 7.3-.1 4.1 2.3 7.4 5.3 7.5 3 .1 5.4-3.2 5.5-7.3 0-4.1-2.3-7.5-5.3-7.5zM101.763 279.196c-.7-.9-2-.6-3.1-.4-.8.2-1.8.4-2.8.4-2.2 0-4-1-5.1-2.6-1.4-2.1-1.3-5.2.2-8.7.2-.5.4-1 .7-1.6 2.4-5.3 6.4-14.3 1.9-22.8-3.4-6.4-8.9-10.4-15.5-11.2-6.3-.8-12.9 1.5-17 6.1-6.6 7.2-7.6 17.1-6.3 20.6.5 1.3 1.2 1.6 1.7 1.7 1.1.2 2.8-.7 3.8-3.4.1-.2.2-.5.3-.9.5-1.5 1.3-4.2 2.7-6.4 1.7-2.7 4.3-4.5 7.4-5.1 3.2-.7 6.4-.1 9.1 1.7 4.6 3 6.4 8.7 4.4 14-1 2.8-2.7 8.1-2.3 12.5.7 8.8 6.2 12.4 11.1 12.8 4.8.2 8.1-2.5 8.9-4.4.5-1.3.1-2-.1-2.3z"></path><path d="M376.063 262.996c-.2-.6-1.4-4.9-3-10.1-1.6-5.2-3.3-8.8-3.3-8.8 6.5-9.7 6.6-18.4 5.7-23.4-.9-6.1-3.5-11.3-8.6-16.7-5.1-5.4-15.6-10.9-30.3-15-1.7-.5-7.2-2-7.7-2.1 0-.3-.4-18.2-.7-25.9-.2-5.6-.7-14.2-3.4-22.8-3.2-11.6-8.8-21.7-15.8-28.2 19.2-20 31.3-41.9 31.2-60.8-.1-36.3-44.6-47.2-99.5-24.5-.1 0-11.5 4.9-11.6 4.9-.1-.1-21-20.6-21.3-20.9-62.5-54.5-258.1 162.9-195.6 215.7l13.7 11.6c-3.5 9.2-4.9 19.7-3.8 31 1.5 14.5 9 28.5 21.1 39.2 11.5 10.2 26.7 16.7 41.4 16.7 24.3 56.1 79.9 90.5 145.1 92.4 69.9 2.1 128.7-30.7 153.3-89.7 1.6-4.1 8.4-22.8 8.4-39.2 0-16.5-9.3-23.4-15.3-23.4zm-286.1 44.2c-2.1.4-4.3.5-6.5.5-21.1-.6-43.9-19.6-46.2-42.1-2.5-24.9 10.2-44.1 32.8-48.7 2.7-.5 6-.9 9.5-.7 12.6.7 31.3 10.4 35.5 37.9 3.7 24.4-2.3 49.2-25.1 53.1zm-23.6-105.3c-14 2.7-26.4 10.7-34 21.7-4.5-3.8-12.9-11.1-14.4-13.9-12.1-22.9 13.2-67.5 30.8-92.7 43.6-62.2 111.9-109.4 143.6-100.8 5.1 1.5 22.2 21.2 22.2 21.2s-31.6 17.5-60.9 42c-39.6 30.4-69.4 74.6-87.3 122.5zm221.7 96c.5-.2.8-.7.7-1.2-.1-.6-.6-1.1-1.3-1 0 0-33.1 4.9-64.4-6.5 3.4-11.1 12.5-7.1 26.1-6 24.7 1.5 46.8-2.1 63.1-6.8 14.2-4.1 32.8-12.1 47.2-23.5 4.9 10.7 6.6 22.5 6.6 22.5s3.8-.7 6.9 1.3c3 1.8 5.2 5.6 3.7 15.5-3 18.4-10.9 33.3-24 47.1-8 8.6-17.7 16.1-28.8 21.5-5.9 3.1-12.2 5.8-18.8 8-49.6 16.2-100.3-1.6-116.6-39.8-1.3-2.9-2.4-5.9-3.3-9-7-25.2-1.1-55.4 17.4-74.4 1.1-1.2 2.3-2.6 2.3-4.4 0-1.5-1-3.1-1.8-4.2-6.5-9.4-28.9-25.4-24.4-56.3 3.2-22.2 22.7-37.9 40.8-37 1.5.1 3.1.2 4.6.3 7.9.5 14.7 1.5 21.2 1.7 10.8.5 20.6-1.1 32.1-10.7 3.9-3.2 7-6 12.3-6.9.6-.1 1.9-.6 4.7-.5 2.8.1 5.5.9 7.9 2.5 9.2 6.1 10.6 21 11 31.9.3 6.2 1 21.3 1.3 25.6.6 9.9 3.2 11.3 8.4 13 3 1 5.7 1.7 9.7 2.8 12.2 3.4 19.5 6.9 24.1 11.4 2.7 2.8 4 5.8 4.4 8.6 1.4 10.5-8.2 23.5-33.6 35.3-27.8 12.9-61.6 16.2-84.9 13.6-1.8-.2-8.1-.9-8.2-.9-18.6-2.5-29.3 21.6-18.1 38.1 7.2 10.6 26.9 17.6 46.5 17.6 45.1 0 79.7-19.2 92.6-35.9.4-.5.4-.6 1-1.5.6-1 .1-1.5-.7-.9-10.5 7.2-57.3 35.8-107.3 27.2 0 0-6.1-1-11.6-3.2-4.4-1.7-13.6-6-14.8-15.4 40.6 12.3 66 .5 66 .5zm-63.9-7.6zm-77.2-173.6c15.5-17.9 34.6-33.5 51.7-42.2.6-.3 1.2.3.9.9-1.4 2.5-4 7.7-4.8 11.7-.1.6.5 1.1 1.1.7 10.6-7.3 29.1-15 45.4-16 .7 0 1 .9.5 1.3-2.5 1.9-5.2 4.5-7.1 7.2-.3.5 0 1.1.5 1.1 11.4.1 27.5 4.1 37.9 9.9.7.4.2 1.8-.6 1.6-15.8-3.6-41.8-6.4-68.7.2-24.1 5.9-42.4 14.9-55.8 24.7-.8.4-1.6-.5-1-1.1z"></path></svg>