<svg xmlns="http://www.w3.org/2000/svg" version="1.1" id="prefix__svg8" width="178.2" height="178.2"><style id="style2">.prefix__prefix__st0{fill:#4264fb}</style><path class="prefix__prefix__st0" d="M89.1 0C39.9 0 0 39.9 0 89.1c0 49.2 39.9 89.1 89.1 89.1 49.2 0 89.1-39.9 89.1-89.1C178.2 39.9 138.3 0 89.1 0zm42.3 111c-30.5 30.5-84.8 20.7-84.8 20.7s-9.8-54.3 20.7-84.8c8.5-8.4 19.7-12.5 31-12.3 11.4.3 22.9 4.8 31.7 13.7C147.7 66 148.3 94 131.4 111z" id="prefix__path4" fill="#4264fb"/><path class="prefix__prefix__st0" d="M99.3 52.2l-8.7 18-17.9 8.7 17.9 8.7 8.7 18 8.8-18 17.9-8.7-17.9-8.7z" id="prefix__path6" fill="#4264fb"/></svg>