<?xml version="1.0" encoding="UTF-8" standalone="no"?>
<!-- Generator: Adobe Illustrator 18.1.0, SVG Export Plug-In . SVG Version: 6.00 Build 0)  -->

<svg
   xmlns:dc="http://purl.org/dc/elements/1.1/"
   xmlns:cc="http://creativecommons.org/ns#"
   xmlns:rdf="http://www.w3.org/1999/02/22-rdf-syntax-ns#"
   xmlns:svg="http://www.w3.org/2000/svg"
   xmlns="http://www.w3.org/2000/svg"
   xmlns:sodipodi="http://sodipodi.sourceforge.net/DTD/sodipodi-0.dtd"
   xmlns:inkscape="http://www.inkscape.org/namespaces/inkscape"
   version="1.1"
   id="Layer_1"
   x="0px"
   y="0px"
   viewBox="0 0 361.39999 361.39998"
   enable-background="new 0 0 1190.6 841.9"
   xml:space="preserve"
   inkscape:version="0.92.3 (2405546, 2018-03-11)"
   sodipodi:docname="mega.svg"
   width="361.39999"
   height="361.39999"><metadata
     id="metadata19"><rdf:RDF><cc:Work
         rdf:about=""><dc:format>image/svg+xml</dc:format><dc:type
           rdf:resource="http://purl.org/dc/dcmitype/StillImage" /><dc:title></dc:title></cc:Work></rdf:RDF></metadata><defs
     id="defs17" /><sodipodi:namedview
     pagecolor="#ffffff"
     bordercolor="#666666"
     borderopacity="1"
     objecttolerance="10"
     gridtolerance="10"
     guidetolerance="10"
     inkscape:pageopacity="0"
     inkscape:pageshadow="2"
     inkscape:window-width="1366"
     inkscape:window-height="715"
     id="namedview15"
     showgrid="false"
     fit-margin-top="0"
     fit-margin-left="0"
     fit-margin-right="0"
     fit-margin-bottom="0"
     inkscape:zoom="0.56063664"
     inkscape:cx="622.30311"
     inkscape:cy="184.72738"
     inkscape:window-x="-8"
     inkscape:window-y="-8"
     inkscape:window-maximized="1"
     inkscape:current-layer="Layer_1" /><path
     d="M 180.7,0 C 80.9,0 0,80.9 0,180.7 c 0,99.8 80.9,180.7 180.7,180.7 99.8,0 180.7,-80.9 180.7,-180.7 C 361.4,80.9 280.5,0 180.7,0 Z m 93.8,244.6 c 0,3.1 -2.5,5.6 -5.6,5.6 h -23.6 c -3.1,0 -5.6,-2.5 -5.6,-5.6 v -72.7 c 0,-0.6 -0.7,-0.9 -1.2,-0.5 l -50,50 c -4.3,4.3 -11.4,4.3 -15.7,0 l -50,-50 c -0.4,-0.4 -1.2,-0.1 -1.2,0.5 v 72.7 c 0,3.1 -2.5,5.6 -5.6,5.6 H 92.4 c -3.1,0 -5.6,-2.5 -5.6,-5.6 V 116.8 c 0,-3.1 2.5,-5.6 5.6,-5.6 h 16.2 c 2.9,0 5.8,1.2 7.9,3.3 l 62.2,62.2 c 1.1,1.1 2.8,1.1 3.9,0 l 62.2,-62.2 c 2.1,-2.1 4.9,-3.3 7.9,-3.3 h 16.2 c 3.1,0 5.6,2.5 5.6,5.6 z"
     id="path3"
     inkscape:connector-curvature="0"
     style="fill:#d9272e" /></svg>