<svg xmlns="http://www.w3.org/2000/svg" height="77" width="190.667"><defs><clipPath id="prefix__a" clipPathUnits="userSpaceOnUse"><path d="M0 0h143v57.75H0z"/></clipPath><linearGradient id="prefix__b" spreadMethod="pad" gradientTransform="rotate(95 160.83 114.87) scale(131.1147)" gradientUnits="userSpaceOnUse" y2="0" x2="1" y1="0" x1="0"><stop offset="0" stop-color="#a1d73c"/><stop offset=".165" stop-color="#a1d73c"/><stop offset="1" stop-color="#56ba32"/></linearGradient><clipPath id="prefix__c" clipPathUnits="userSpaceOnUse"><path d="M0 57.75h143V0H0z"/></clipPath></defs><g clip-path="url(#prefix__a)" transform="matrix(1.33333 0 0 -1.33333 0 77)"><path d="M0 0h143v57.75H0z" fill="url(#prefix__b)"/></g><g clip-path="url(#prefix__c)" transform="matrix(1.33333 0 0 -1.33333 0 77)"><path d="M41.31 23.263c-.083.036-.703.388-1.624.388-1.247 0-2.11-.826-2.11-1.94 0-1.084.825-1.943 2.11-1.943.907 0 1.538.341 1.623.386v-1.956c-.243-.064-.903-.258-1.758-.258-2.172 0-4.073 1.422-4.073 3.77 0 2.172 1.722 3.765 4.073 3.765.903 0 1.573-.21 1.758-.262zM21.186 23.263c-.078.036-.697.388-1.619.388-1.25 0-2.114-.826-2.114-1.94 0-1.084.825-1.943 2.114-1.943.906 0 1.537.341 1.619.386v-1.956c-.24-.064-.899-.258-1.761-.258-2.167 0-4.065 1.422-4.065 3.77 0 2.172 1.72 3.765 4.065 3.765.913 0 1.578-.21 1.761-.262zM47.37 23.622c-1.143 0-1.991-.856-1.991-1.912 0-1.06.848-1.916 1.99-1.916 1.145 0 1.996.855 1.996 1.916 0 1.056-.851 1.912-1.995 1.912m4.036-1.912c0-2.082-1.686-3.77-4.036-3.77-2.348 0-4.031 1.688-4.031 3.77 0 2.077 1.683 3.765 4.03 3.765 2.35 0 4.037-1.688 4.037-3.765M33.073 23.693c-.026.008-.84.221-1.506.221-.772 0-1.192-.245-1.192-.598 0-.442.565-.595.88-.693l.536-.158c1.25-.38 1.82-1.197 1.82-2.083 0-1.828-1.688-2.442-3.162-2.442-1.027 0-1.982.181-2.081.198v1.675c.17-.04.978-.27 1.82-.27.957 0 1.4.266 1.4.682 0 .367-.38.577-.861.722-.116.036-.29.09-.413.126-1.072.324-1.966.925-1.966 2.127 0 1.364 1.069 2.275 2.848 2.275.937 0 1.82-.214 1.877-.229zM13.314 33.165c0 .5-.428.908-.958.908-.522 0-.954-.408-.954-.908v-1.909c0-.504.432-.91.954-.91.53 0 .958.406.958.91zM18.571 35.673c0 .5-.428.906-.954.906-.53 0-.96-.406-.96-.906v-4.416c0-.505.43-.911.96-.911.526 0 .954.406.954.911zM23.827 39.101c0 .504-.426.91-.955.91-.526 0-.958-.406-.958-.91v-9.66c0-.504.432-.913.958-.913.53 0 .955.41.955.912zM29.085 35.673c0 .5-.428.906-.953.906-.53 0-.958-.406-.958-.906v-4.416c0-.505.428-.911.958-.911.525 0 .953.406.953.911zM34.337 33.165c0 .5-.425.908-.951.908-.528 0-.958-.408-.958-.908v-1.909c0-.504.43-.91.958-.91.526 0 .95.406.95.91zM39.598 35.673c0 .5-.427.906-.955.906-.526 0-.953-.406-.953-.906v-4.416c0-.505.427-.911.953-.911.528 0 .955.406.955.911zM44.856 39.101c0 .504-.424.91-.956.91-.522 0-.953-.406-.953-.91v-9.66c0-.504.431-.913.953-.913.532 0 .956.41.956.912zM50.118 35.673c0 .5-.43.906-.97.906-.523 0-.954-.406-.954-.906v-4.416c0-.505.43-.911.954-.911.54 0 .97.406.97.911zM55.366 33.165c0 .5-.43.908-.956.908-.528 0-.954-.408-.954-.908v-1.909c0-.504.426-.91.954-.91.526 0 .956.406.956.91zM25.765 18.069h-1.931v7.276h1.931zM75.414 18.062l-5.959 14.016V18.062h-1.251V33.66h1.888l6.027-14.298 5.686 14.298h1.82V18.062h-1.228V31.97l-5.619-13.908zM96.783 21.139c-.57-2.06-2.39-3.4-4.914-3.4-3.206 0-5.618 2.099-5.618 5.956 0 3.856 2.342 5.956 5.39 5.956 3.027 0 5.347-1.95 5.347-6.24h-9.485c.114-3.203 2.023-4.677 4.389-4.677 1.775 0 3.139.912 3.594 2.405zm-9.257 3.25h8.187c-.158 2.882-1.865 4.309-4.071 4.309-2.16 0-3.89-1.492-4.116-4.31M99.857 18.062v11.265h1.001l.183-2.167c.636 1.711 1.841 2.491 3.32 2.491a4.4 4.4 0 0 0 1.228-.174V28.33c-.41.11-.819.197-1.296.197-1.729 0-3.208-1.605-3.208-4.31v-6.154zM107.135 26.403c.181 1.926 1.98 3.248 4.595 3.248 2.64 0 4.39-1.407 4.39-3.704v-7.885h-1.002l-.18 1.862c-.73-1.167-2.07-2.185-4.186-2.185-2.298 0-3.958 1.189-3.958 3.182 0 1.928 1.228 3.098 4.548 3.618l3.55.563v.975c0 1.625-1.206 2.621-3.23 2.621-1.888 0-3.095-.929-3.254-2.295zm7.756-4.333v2.102l-3.184-.52c-2.821-.455-3.64-1.3-3.64-2.645 0-1.515 1.229-2.273 3.004-2.273 1.887 0 3.82 1.364 3.82 3.336M119.267 18.062V33.66h1.228v-8.923l5.664 4.591h1.661l-6.075-4.919 6.824-6.346h-1.659l-6.415 5.957v-5.957zM130.119 33.659h1.479v-1.602h-1.479zm.112-4.332h1.228V18.062h-1.228z" fill="#fff"/></g></svg>