<svg xmlns="http://www.w3.org/2000/svg" xmlns:xlink="http://www.w3.org/1999/xlink" version="1.1" id="Layer_1" x="0" y="0" viewBox="0 0 404 760.895" xml:space="preserve" width="404" height="760.895"><style type="text/css" id="style2">.st2,.st7{fill-rule:evenodd;clip-rule:evenodd;fill:#407db8}.st7{fill:#88bce8}.st8{fill:#fff}</style><g id="g51" transform="translate(0 -.105)"><g id="g22"><path class="st2" d="M286.2 742.5l-.1-21.6h37l.1 21.6c0 10.2-8.3 18.5-18.5 18.5s-18.5-8.3-18.5-18.5z" id="path16" clip-rule="evenodd" fill="#407db8" fill-rule="evenodd"></path><path class="st2" d="M183.5 742.5l-.1-21.6h37l.1 21.6c0 10.2-8.3 18.5-18.5 18.5s-18.5-8.3-18.5-18.5z" id="path18" clip-rule="evenodd" fill="#407db8" fill-rule="evenodd"></path><path class="st2" d="M80.8 742.5l-.1-21.6h37l.1 21.6c0 10.2-8.3 18.5-18.5 18.5s-18.5-8.3-18.5-18.5z" id="path20" clip-rule="evenodd" fill="#407db8" fill-rule="evenodd"></path></g><path class="st2" d="M358.7 697.7L341.8 726h-281l-15.6-28.3z" id="path24" clip-rule="evenodd" fill="#407db8" fill-rule="evenodd"></path><linearGradient id="SVGID_1_" gradientUnits="userSpaceOnUse" x1="14.801" y1="262.634" x2="389.169" y2="262.634"><stop offset="0" id="stop26" stop-color="#f9ac1a"></stop><stop offset="1" id="stop28" stop-color="#f9c51a"></stop></linearGradient><path d="M14.8 525.3V198.5h.1c.6-89.8 72.9-163.6 166-173.4 4.9-1.2 8.4-4.4 9.8-6.9 2.7-5.2 5.7-11 7.6-15.7 1.2-2.8 6.3-3.6 7.7.1 1.8 4.8 4.9 10.4 7.6 15.6 1.3 2.5 4.3 5.7 9.7 6.9 93 9.9 165.3 83.6 165.9 173.4h.1v326.8z" id="path31" clip-rule="evenodd" fill="url(#SVGID_1_)" fill-rule="evenodd"></path><g id="g43"><defs id="defs34"><path id="SVGID_5_" d="M14.8 525.3V198.5h.1c.6-89.8 72.9-163.6 166-173.4 4.9-1.2 8.4-4.4 9.8-6.9 2.7-5.2 5.7-11 7.6-15.7 1.2-2.8 6.3-3.6 7.7.1 1.8 4.8 4.9 10.4 7.6 15.6 1.3 2.5 4.3 5.7 9.7 6.9 93 9.9 165.3 83.6 165.9 173.4h.1v326.8z"></path></defs><clipPath id="SVGID_2_"><use xlink:href="#SVGID_5_" id="use36" x="0" y="0" width="100%" height="100%" overflow="visible"></use></clipPath><g clip-path="url(#SVGID_2_)" id="g41"><path d="M316.2 406.6c-22.6 0-29.5 8.9-29.5 25.3 0 28 34.6 61.2 34.6 112.6 0 37.4-22.2 68.7-70.5 68.7h-22.5v-45.8h10.1c17.7 0 23.8-10.3 23.8-27.1 0-37.8-20.9-72.4-20.9-100.9 0-29 9.5-42.5 44.2-49.9-34.6-7.5-44.2-30-44.2-58.9 0-28 20.9-51.4 20.9-89.7 0-16.8-8.7-30.2-29.4-30.2h-19.9v-35.1c52.1-26.7 95.4 20.8 95.4 55.9 0 50.9-21.5 90.2-21.5 118.3 0 15.9 7 23 29.5 23h15.4v34h-15.5zm-125-196h-18.1c-20.7 0-29.4 13.4-29.4 30.2 0 38.3 20.9 61.7 20.9 89.7 0 29-11.4 51.5-46 58.9 34.6 7.5 46 21 46 49.9 0 28.5-20.9 63.1-20.9 100.9 0 16.8 6 27.1 23.8 27.1h10.1v45.8H155c-48.3 0-70.5-31.3-70.5-68.7 0-51.4 34.6-84.6 34.6-112.6 0-16.4-5.8-25.3-28.3-25.3H72.3v-34h18.5c22.6 0 28.3-7.1 28.3-23 0-28-21.5-67.3-21.5-118.3 0-34.8 42.1-81.6 93.5-56.6v36z" id="path39" clip-rule="evenodd" fill="#162331" fill-rule="evenodd"></path></g></g><path d="M384.2 546.8c-2 5.8-2.8 12.6-3.1 18.3v117.7c0 10.2-8.3 18.5-18.5 18.5H41.4c-10.2 0-18.5-8.3-18.5-18.5V565.4v-.4c-.3-5.6-1.1-12.3-3.1-18.1C15.2 533.7 0 528.4 0 528.4l1-7.2h402l1 7.2s-15.3 5.2-19.8 18.4z" id="path45" clip-rule="evenodd" fill="#5592c8" fill-rule="evenodd"></path><path class="st7" d="M381 612.6H256c-7.8 0-14.2-6.4-14.2-14.2 0-7.9 6.4-14.2 14.2-14.2h125z" id="path47" clip-rule="evenodd" fill="#88bce8" fill-rule="evenodd"></path><path class="st7" d="M22.9 584.2h125c7.8 0 14.2 6.4 14.2 14.2 0 7.9-6.4 14.2-14.2 14.2h-125z" id="path49" clip-rule="evenodd" fill="#88bce8" fill-rule="evenodd"></path></g><g id="g83" transform="translate(0 -.105)"><path class="st8" d="M648.3 672.5h-37.9l-9.1 27.7h-20.2l38-107.9h20.5l38 107.9h-20.2zm-19-61.6s-2.4 10.6-4.6 16.7l-9.6 28.9h28.3l-9.6-28.9c-2-6.1-4.3-16.7-4.3-16.7z" id="path53" fill="#fff"></path><path class="st8" d="M733.8 592.2h21l21.1 53.4c2.4 6.4 5.5 15.8 5.5 15.8h.3s2.9-9.4 5.3-15.8l21.1-53.4h21l8.7 107.9h-19.5l-4.6-60.4c-.5-7.1-.2-16.7-.2-16.7h-.3s-3.2 10.5-5.8 16.7l-17.5 41.8h-17.2l-17.3-41.8c-2.6-6.2-5.9-16.9-5.9-16.9h-.3s.3 9.7-.2 16.9l-4.6 60.4H725z" id="path55" fill="#fff"></path><path class="st8" d="M892.5 620.8c23.7 0 42.7 16.9 42.7 40.6 0 23.9-19 40.6-42.6 40.6-23.7 0-42.7-16.7-42.7-40.6 0-23.8 19-40.6 42.6-40.6zm.2 64.7c12.5 0 23-9.7 23-24.2 0-14.3-10.5-24.2-23-24.2-12.6 0-23.1 9.9-23.1 24.2-.1 14.5 10.4 24.2 23.1 24.2z" id="path57" fill="#fff"></path><path class="st8" d="M950.7 622.6h18.5v9c0 2.9-.3 5.3-.3 5.3h.3c3.3-6.5 11.9-16.1 27.5-16.1 17.2 0 26.9 9 26.9 29.5v49.9h-19.2v-45.9c0-9.4-2.4-15.8-12.3-15.8-10.3 0-17.9 6.5-20.8 15.8-1.1 3.2-1.4 6.7-1.4 10.3v35.6h-19.3v-77.6z" id="path59" fill="#fff"></path><path class="st8" d="M1073.2 715.6c11.9 0 21.9-5 21.9-18.8v-4.6c0-1.8.3-4.1.3-4.1h-.3c-4.6 6.8-11.2 10.5-21.6 10.5-22.2 0-34.8-17.9-34.8-39.2 0-21.3 12-38.6 34.4-38.6 16.9 0 23 9.9 23 9.9h.5s-.2-.9-.2-2.1v-5.9h18.1v72.8c0 26.6-20.7 36.6-40.9 36.6-9.7 0-20.1-2.7-27.5-6.7l5.8-14.7c-.1-.1 9.6 4.9 21.3 4.9zm22.4-56.1c0-17.6-8.7-22.3-19.2-22.3-11.7 0-18.2 8.5-18.2 21.6 0 13.5 7 23.6 19.5 23.6 9.2-.1 17.9-5.4 17.9-22.9z" id="path61" fill="#fff"></path><path class="st8" d="M1169.4 620.8c23.7 0 42.7 16.9 42.7 40.6 0 23.9-19 40.6-42.6 40.6-23.7 0-42.7-16.7-42.7-40.6.1-23.8 19.1-40.6 42.6-40.6zm.2 64.7c12.5 0 23-9.7 23-24.2 0-14.3-10.5-24.2-23-24.2-12.6 0-23.1 9.9-23.1 24.2 0 14.5 10.5 24.2 23.1 24.2z" id="path63" fill="#fff"></path><path class="st8" d="M1227.6 592.2h36.8c33.3 0 55 19.8 55 53.8s-21.7 54.1-55 54.1h-36.8zm35.8 91c21.9 0 35.9-12.9 35.9-37.2 0-24-14.3-36.9-35.9-36.9h-16.1v74.2h16.1z" id="path65" fill="#fff"></path><path class="st8" d="M1333.9 592.2h38.6c19.5 0 33.3 10 33.3 27.8 0 10-4.9 18.7-13.1 23.1v.3c11.9 3.5 17.5 14.4 17.5 25.4 0 21.6-17.3 31.3-37.2 31.3h-39.1zm38.6 44.1c8.5 0 13.4-6.1 13.4-13.8 0-7.8-4.6-13.4-13.7-13.4h-18.7v27.2zm2 46.9c10 0 15.7-6.5 15.7-15.7 0-9-5.8-15.5-15.7-15.5h-21v31.2z" id="path67" fill="#fff"></path><path class="st8" d="M1516.4 590.4c26.3 0 39.8 14.7 39.8 14.7l-9.4 14.6s-12.3-11.4-29.5-11.4c-22.8 0-36.2 17-36.2 37.1 0 20.5 13.8 38.6 36.3 38.6 18.7 0 31.3-13.7 31.3-13.7l10.3 14.1s-14.9 17.5-42.4 17.5c-33 0-55.8-24.5-55.8-56.2.1-31.3 23.8-55.3 55.6-55.3z" id="path69" fill="#fff"></path><path class="st8" d="M1610.9 620.8c23.7 0 42.7 16.9 42.7 40.6 0 23.9-19 40.6-42.6 40.6-23.7 0-42.7-16.7-42.7-40.6.1-23.8 19.1-40.6 42.6-40.6zm.2 64.7c12.5 0 23-9.7 23-24.2 0-14.3-10.5-24.2-23-24.2-12.6 0-23.1 9.9-23.1 24.2 0 14.5 10.5 24.2 23.1 24.2z" id="path71" fill="#fff"></path><path class="st8" d="M1666.1 622.6h18.5v9c0 2.9-.3 5.3-.3 5.3h.3c3.8-7.6 13.1-16.1 25.2-16.1 11.9 0 19.5 5.5 22.6 16h.3c4.3-8.4 14.3-16 26.5-16 16.1 0 25.4 9.1 25.4 29.5v49.9h-19.3V654c0-8.8-1.7-15.5-10.6-15.5-9.9 0-16.4 7.9-18.7 17.6-.8 3-.9 6.4-.9 10v34.1h-19.3V654c0-8.4-1.4-15.5-10.5-15.5-10 0-16.6 7.9-19 17.8-.8 2.9-.9 6.4-.9 9.9v34.1h-19.3z" id="path73" fill="#fff"></path><path class="st8" d="M1801.8 622.6h17.6v5.6c0 2.9-.3 5.3-.3 5.3h.3s6.7-12.8 24.9-12.8c21 0 34.4 16.6 34.4 40.6 0 24.6-15 40.6-35.4 40.6-15.4 0-22.2-10.6-22.2-10.6h-.3s.3 2.7.3 6.7v32.5h-19.3zm38 63.1c10.6 0 19.5-8.7 19.5-24 0-14.7-7.9-24.3-19.3-24.3-10 0-19.5 7.3-19.5 24.5 0 11.9 6.6 23.8 19.3 23.8z" id="path75" fill="#fff"></path><path class="st8" d="M1934.1 651.5h2.6v-1.1c0-10.2-6.4-13.7-14.9-13.7-11.1 0-21.3 7.5-21.3 7.5l-7.3-13.8s12-9.6 30.4-9.6c20.4 0 32.2 11.3 32.2 30.9v48.5H1938v-6.4c0-3 .3-5.5.3-5.5h-.3c.2 0-5.9 13.7-23.6 13.7-13.8 0-26.3-8.7-26.3-24.2 0-24.7 33.3-26.3 46-26.3zm-14.8 35.4c10.2 0 17.5-10.9 17.5-20.4v-1.8h-3.3c-9.9 0-25.8 1.4-25.8 12.2-.1 5.1 3.7 10 11.6 10z" id="path77" fill="#fff"></path><path class="st8" d="M1972.8 622.6h18.5v9c0 2.9-.3 5.3-.3 5.3h.3c3.3-6.5 11.9-16.1 27.5-16.1 17.2 0 26.9 9 26.9 29.5v49.9h-19.2v-45.9c0-9.4-2.4-15.8-12.3-15.8-10.3 0-17.9 6.5-20.8 15.8-1.1 3.2-1.4 6.7-1.4 10.3v35.6h-19.3v-77.6z" id="path79" fill="#fff"></path><path class="st8" d="M2061.9 712.6s4.3 3.2 8.7 3.2c5.3 0 10.5-3.2 13.4-10l2.9-6.8-32.7-76.3h21.7l16.3 44.7c1.5 4.1 2.9 10.5 2.9 10.5h.3s1.2-6.1 2.6-10.2l15.2-45h21.1l-34.7 89.2c-5.5 14.1-16.3 20.2-28 20.2-9.3 0-16.1-5-16.1-5z" id="path81" fill="#fff"></path></g></svg>