<svg xmlns="http://www.w3.org/2000/svg" viewBox="0 0 48.13 48.13"><defs><style>.cls-1{fill:#214099;}.cls-2{fill:#f2f3f8;}.cls-3{fill:#f6f6fa;}.cls-4{fill:#e5e5f2;}.cls-5{fill:#606ab0;}.cls-6{fill:#8c92c6;}.cls-7{fill:#939ac9;}.cls-8{fill:#f1f1f8;}.cls-9{fill:#7a81bd;}.cls-10{fill:#5466ae;}.cls-11{fill:#374ea0;}.cls-12{fill:#b0b3d9;}.cls-13{fill:#cccee5;}.cls-14{fill:#fefefe;}</style></defs><title>资源 4</title><g id="图层_2" data-name="图层 2"><g id="图层_1-2" data-name="图层 1"><path class="cls-1" d="M25,49c-7.16,0-14.33-.11-21.5.07-2.15,0-2.58-.42-2.56-2.57q.18-21.49,0-43C.92,1.36,1.35.92,3.5.94q21.49.18,43,0c2.14,0,2.58.41,2.56,2.56q-.18,21.49,0,43c0,2.14-.4,2.62-2.56,2.57C39.34,48.89,32.17,49,25,49Z" transform="translate(-0.94 -0.94)"/><path class="cls-2" d="M24.91,45.88l-2.7-.08a4.16,4.16,0,0,1-1.64-3.49c.1-9.48-.57-19,.37-28.45.92-1.81,2.39-2.19,4.22-1.64,2.28,1.22,2.31,3.4,2.32,5.57q0,11.37,0,22.74C27.47,42.72,27.44,44.9,24.91,45.88Z" transform="translate(-0.94 -0.94)"/><path class="cls-3" d="M19,11c.19-.26.39-.52.58-.8C25.11,2.1,25.1,2.1,31,10c1.13,3.55-1.52,3.09-3.52,3.32a9.39,9.39,0,0,1-1.73-.46,7.87,7.87,0,0,0-4.17-.12C20.3,12.92,18.94,12.84,19,11Z" transform="translate(-0.94 -0.94)"/><path class="cls-4" d="M20.81,45.8c-2.07.12-1.86-1.38-1.86-2.67q.11-15,.24-30.07c1.81-1,2.14.18,2.3,1.6,0,8.79,0,17.59,0,26.39C21.45,42.63,22.11,44.37,20.81,45.8Z" transform="translate(-0.94 -0.94)"/><path class="cls-5" d="M27,12.13c1.29-.78,4,1.23,4-2.1,1.78,1.57,1.09,3.69,1.11,5.58.08,8.41.06,16.81,0,25.22,0,1.75.46,3.67-1.13,5.1a7.18,7.18,0,0,1-1-1.37c-.89-7.22-.19-14.46-.41-21.69a31.93,31.93,0,0,0-.37-5.38,8.76,8.76,0,0,0-.77-1.92,12.27,12.27,0,0,0-1.17-1.44,3.53,3.53,0,0,1-.64-1A1.17,1.17,0,0,1,27,12.13Z" transform="translate(-0.94 -0.94)"/><path class="cls-6" d="M24.91,45.88a125.13,125.13,0,0,0,0-32.81,1,1,0,0,1,.93-.56,2,2,0,0,1,1.12.27l.09.49a4.11,4.11,0,0,1,1.1,1.53c.7,9.1.19,18.22.29,27.34a4.62,4.62,0,0,1-1.29,3.64Z" transform="translate(-0.94 -0.94)"/><path class="cls-7" d="M31,45a5.14,5.14,0,0,1,0,1l-2.11-.13a3.66,3.66,0,0,1-.73-1.66c-.17-9.78-.19-19.56,0-29.34a4,4,0,0,1,.76-1.65l2,1A219.06,219.06,0,0,0,31,45Z" transform="translate(-0.94 -0.94)"/><path class="cls-8" d="M28.74,44.88c0,.31.06.61.1.92l-1.67,0V14.1c.7-.32,1.12-.1,1.28.65C28.72,24.79,28.16,34.84,28.74,44.88Z" transform="translate(-0.94 -0.94)"/><path class="cls-9" d="M20.81,45.8,21.11,14c.25-.36.51-.36.76,0q.18,15.92.34,31.84Z" transform="translate(-0.94 -0.94)"/><path class="cls-10" d="M21.87,14l-.38,0-.38,0-1.92-.9c-1-.59-1-1.29-.22-2.07,2.06,2.16,4.77.32,7.05,1.14q.46.21.33.45c-.09.17-.18.26-.28.26l-1.14.23C23.85,13.16,22.68,12.93,21.87,14Z" transform="translate(-0.94 -0.94)"/><path class="cls-11" d="M26.07,12.84c0-.24,0-.47-.05-.71a1.06,1.06,0,0,1,.95,0c0,.22,0,.44,0,.66l-.45.11Z" transform="translate(-0.94 -0.94)"/><path class="cls-12" d="M31,45a103.58,103.58,0,0,1-.09-30.85Z" transform="translate(-0.94 -0.94)"/><path class="cls-13" d="M28,14.11l-.43,0h-.44a4.7,4.7,0,0,1-.1-.83l1.8-.12a6.16,6.16,0,0,1,0,1Q28.44,14.86,28,14.11Z" transform="translate(-0.94 -0.94)"/><path class="cls-14" d="M28,14.11a3.14,3.14,0,0,1,.81,0q-.06,15.38-.11,30.77C27.09,34.66,28.4,24.36,28,14.11Z" transform="translate(-0.94 -0.94)"/></g></g></svg>