<svg xmlns="http://www.w3.org/2000/svg" viewBox="0 0 48.121 48.134" width="48.121" height="48.134"><title>资源 4</title><g data-name="图层 2"><g data-name="图层 1"><path d="M24.06 48.06c-7.16 0-14.33-.11-21.5.07-2.15 0-2.58-.42-2.56-2.57q.18-21.49 0-43C-.02.42.41-.02 2.56 0q21.49.18 43 0c2.14 0 2.58.41 2.56 2.56q-.18 21.49 0 43c0 2.14-.4 2.62-2.56 2.57-7.16-.18-14.33-.07-21.5-.07z" fill="#214099"></path><path d="M23.97 44.94l-2.7-.08a4.16 4.16 0 0 1-1.64-3.49c.1-9.48-.57-19 .37-28.45.92-1.81 2.39-2.19 4.22-1.64 2.28 1.22 2.31 3.4 2.32 5.57v22.74c-.01 2.19-.04 4.37-2.57 5.35z" fill="#f2f3f8"></path><path d="M18.06 10.06c.19-.26.39-.52.58-.8 5.53-8.1 5.52-8.1 11.42-.2 1.13 3.55-1.52 3.09-3.52 3.32a9.39 9.39 0 0 1-1.73-.46 7.87 7.87 0 0 0-4.17-.12c-1.28.18-2.64.1-2.58-1.74z" fill="#f6f6fa"></path><path d="M19.87 44.86c-2.07.12-1.86-1.38-1.86-2.67q.11-15 .24-30.07c1.81-1 2.14.18 2.3 1.6v26.39c-.04 1.58.62 3.32-.68 4.75z" fill="#e5e5f2"></path><path d="M26.06 11.19c1.29-.78 4 1.23 4-2.1 1.78 1.57 1.09 3.69 1.11 5.58.08 8.41.06 16.81 0 25.22 0 1.75.46 3.67-1.13 5.1a7.18 7.18 0 0 1-1-1.37c-.89-7.22-.19-14.46-.41-21.69a31.93 31.93 0 0 0-.37-5.38 8.76 8.76 0 0 0-.77-1.92 12.27 12.27 0 0 0-1.17-1.44 3.53 3.53 0 0 1-.64-1 1.17 1.17 0 0 1 .38-1z" fill="#606ab0"></path><path d="M23.97 44.94a125.13 125.13 0 0 0 0-32.81 1 1 0 0 1 .93-.56 2 2 0 0 1 1.12.27l.09.49a4.11 4.11 0 0 1 1.1 1.53c.7 9.1.19 18.22.29 27.34a4.62 4.62 0 0 1-1.29 3.64z" fill="#8c92c6"></path><path d="M30.06 44.06a5.14 5.14 0 0 1 0 1l-2.11-.13a3.66 3.66 0 0 1-.73-1.66c-.17-9.78-.19-19.56 0-29.34a4 4 0 0 1 .76-1.65l2 1a219.06 219.06 0 0 0 .08 30.78z" fill="#939ac9"></path><path d="M27.8 43.94c0 .31.06.61.1.92h-1.67v-31.7c.7-.32 1.12-.1 1.28.65.27 10.04-.29 20.09.29 30.13z" fill="#f1f1f8"></path><path d="M19.87 44.86l.3-31.8c.25-.36.51-.36.76 0q.18 15.92.34 31.84z" fill="#7a81bd"></path><path d="M20.93 13.06h-.76l-1.92-.9c-1-.59-1-1.29-.22-2.07 2.06 2.16 4.77.32 7.05 1.14q.46.21.33.45c-.09.17-.18.26-.28.26l-1.14.23c-1.08.05-2.25-.18-3.06.89z" fill="#5466ae"></path><path d="M25.13 11.9c0-.24 0-.47-.05-.71a1.06 1.06 0 0 1 .95 0v.66l-.45.11z" fill="#374ea0"></path><path d="M30.06 44.06a103.58 103.58 0 0 1-.09-30.85z" fill="#b0b3d9"></path><path d="M27.06 13.17h-.87a4.7 4.7 0 0 1-.1-.83l1.8-.12a6.16 6.16 0 0 1 0 1q-.39.7-.83-.05z" fill="#cccee5"></path><path d="M27.06 13.17a3.14 3.14 0 0 1 .81 0q-.06 15.38-.11 30.77c-1.61-10.22-.3-20.52-.7-30.77z" fill="#fefefe"></path></g></g></svg>