<?xml version="1.0" encoding="UTF-8" standalone="no"?>
<svg
   xmlns:dc="http://purl.org/dc/elements/1.1/"
   xmlns:cc="http://creativecommons.org/ns#"
   xmlns:rdf="http://www.w3.org/1999/02/22-rdf-syntax-ns#"
   xmlns:svg="http://www.w3.org/2000/svg"
   xmlns="http://www.w3.org/2000/svg"
   xmlns:xlink="http://www.w3.org/1999/xlink"
   xmlns:sodipodi="http://sodipodi.sourceforge.net/DTD/sodipodi-0.dtd"
   xmlns:inkscape="http://www.inkscape.org/namespaces/inkscape"
   viewBox="0 0 84.048904 46.59486"
   version="1.1"
   id="svg120"
   sodipodi:docname="Namecheap_Logo.svg"
   width="84.048904"
   height="46.59486"
   inkscape:version="0.92.3 (2405546, 2018-03-11)">
  <metadata
     id="metadata124">
    <rdf:RDF>
      <cc:Work
         rdf:about="">
        <dc:format>image/svg+xml</dc:format>
        <dc:type
           rdf:resource="http://purl.org/dc/dcmitype/StillImage" />
        <dc:title>cn-logo</dc:title>
      </cc:Work>
    </rdf:RDF>
  </metadata>
  <sodipodi:namedview
     pagecolor="#ffffff"
     bordercolor="#666666"
     borderopacity="1"
     objecttolerance="10"
     gridtolerance="10"
     guidetolerance="10"
     inkscape:pageopacity="0"
     inkscape:pageshadow="2"
     inkscape:window-width="1366"
     inkscape:window-height="715"
     id="namedview122"
     showgrid="false"
     fit-margin-top="0"
     fit-margin-left="0"
     fit-margin-right="0"
     fit-margin-bottom="0"
     inkscape:zoom="4.6937984"
     inkscape:cx="47.185877"
     inkscape:cy="23.309859"
     inkscape:window-x="-8"
     inkscape:window-y="-8"
     inkscape:window-maximized="1"
     inkscape:current-layer="svg120" />
  <defs
     id="defs88">
    <linearGradient
       id="a"
       x1="59.990002"
       y1="44.16"
       x2="80.010002"
       y2="1.23"
       gradientUnits="userSpaceOnUse">
      <stop
         offset="0"
         stop-color="#d4202c"
         id="stop68" />
      <stop
         offset="0.1"
         stop-color="#dc3d29"
         stop-opacity="0.79"
         id="stop70" />
      <stop
         offset="0.2"
         stop-color="#e45926"
         stop-opacity="0.58"
         id="stop72" />
      <stop
         offset="0.32"
         stop-color="#ea7123"
         stop-opacity="0.4"
         id="stop74" />
      <stop
         offset="0.43"
         stop-color="#f08521"
         stop-opacity="0.25"
         id="stop76" />
      <stop
         offset="0.55"
         stop-color="#f4941f"
         stop-opacity="0.14"
         id="stop78" />
      <stop
         offset="0.68"
         stop-color="#f79f1e"
         stop-opacity="0.06"
         id="stop80" />
      <stop
         offset="0.82"
         stop-color="#f8a51d"
         stop-opacity="0.02"
         id="stop82" />
      <stop
         offset="1"
         stop-color="#f9a71d"
         stop-opacity="0"
         id="stop84" />
    </linearGradient>
    <linearGradient
       id="b"
       x1="1777.48"
       y1="1048.76"
       x2="1797.5"
       y2="1005.83"
       gradientTransform="rotate(180,901.26223,525.945)"
       xlink:href="#a" />
    <linearGradient
       inkscape:collect="always"
       xlink:href="#a"
       id="linearGradient126"
       gradientUnits="userSpaceOnUse"
       x1="59.990002"
       y1="44.16"
       x2="80.010002"
       y2="1.23"
       gradientTransform="translate(-0.97554671,-0.71)" />
  </defs>
  <title
     id="title90">cn-logo</title>
  <path
     d="m 76.194453,0 a 7.87,7.87 0 0 0 -6.88,4.05 l -0.16,0.33 -6.13,12.16 -7.8,15.37 5.11,10.07 0.28,0.55 a 8,8 0 0 0 3.41,3.23 8.05,8.05 0 0 0 3.41,-3.23 l 0.28,-0.55 15.31,-30.21 0.37,-0.73 a 7.86,7.86 0 0 0 -7.19,-11 z"
     id="path92"
     inkscape:connector-curvature="0"
     style="fill:#ff5100" />
  <path
     d="m 28.874453,14.63 -5.1,-10 -0.28,-0.55 a 7.89,7.89 0 0 0 -3.4,-3.22 7.92,7.92 0 0 0 -3.4,3.21 l -0.29,0.56 -15.3299997,30.18 -0.37000001,0.72 a 7.86,7.86 0 0 0 14.05999971,7 l 0.17,-0.32 6.17,-12.16 7.79,-15.36 z"
     id="path94"
     inkscape:connector-curvature="0"
     style="fill:#ff5100" />
  <path
     d="m 76.174453,0 a 7.86,7.86 0 0 0 -6.87,4.05 l -0.17,0.33 -6.17,12.16 -7.81,15.37 5.12,10.07 0.28,0.55 a 7.94,7.94 0 0 0 3.41,3.23 7.94,7.94 0 0 0 3.41,-3.23 l 0.29,-0.55 15.36,-30.21 0.36,-0.73 a 7.86,7.86 0 0 0 -7.19,-11 z"
     id="path96"
     inkscape:connector-curvature="0"
     style="fill:url(#linearGradient126)" />
  <path
     d="m 7.8844533,46.58 a 7.86,7.86 0 0 0 6.8699997,-4 l 0.17,-0.33 6.18,-12.16 7.8,-15.37 -5.11,-10.12 -0.28,-0.55 a 8,8 0 0 0 -3.42,-3.23 8,8 0 0 0 -3.41,3.23 l -0.28,0.55 -15.3799997,30.21 -0.37000001,0.73 a 7.86,7.86 0 0 0 7.19000001,11 z"
     id="path98"
     inkscape:connector-curvature="0"
     style="fill:url(#b)" />
  <path
     d="m 28.874453,14.63 -5.1,-10 -0.28,-0.55 a 7.94,7.94 0 0 0 -3.41,-3.23 8.31,8.31 0 0 1 1.49,-0.56 8.16,8.16 0 0 1 2,-0.25 h 10.68 a 7.92,7.92 0 0 1 6.86,4 l 0.28,0.55 13.81,27.36 5.09,10 0.28,0.55 a 8,8 0 0 0 3.45,3.26 8.05,8.05 0 0 1 -3.47,0.81 h -10.74 a 7.91,7.91 0 0 1 -6.85,-4 l -0.29,-0.55 z"
     id="path100"
     inkscape:connector-curvature="0"
     style="fill:#ff8c44" />
</svg>
