<svg xmlns="http://www.w3.org/2000/svg" width="224.1" height="38.8"><path d="M219.9 3C217 1 212.7.1 207.1.1h-14.8L186.8 30h-19.4l1.2-6.8h11.7l1.4-7.6H170l1.3-6.8h12.1L185 0h-24.5l-5.2 28.4h-9L151.5.1h-12.8l-5.2 28.4h-8.8L129.9.1h-12.8L111.6 30H92l1.2-6.8H105l1.4-7.6H94.7l1.2-6.8h12.2l1.6-8.8H33.4l-4.3 23.7L20.4.1H7.1L0 38.8h12.7L17 14.4l8.4 24.4h45.5l5.5-29.9h7.1L78 38.8h119.6l3.5-18.9 5.6 18.9h12.7l-5.8-15.4 1.3-.3c2.9-.6 5.2-2 6.8-4 1.6-2 2.4-4.7 2.4-7.8-.1-3.7-1.4-6.4-4.2-8.3zM59.8 30H40.4l1.3-6.8h12.2l1.4-7.7H43.2l1.2-6.7h19.4zm149.7-13c-1.3.9-3.1 1.3-5.7 1.3h-2.5l1.9-10.4h1.8c2.1 0 3.6.3 4.7 1 .8.5 1.8 1.6 1.8 3.6.1 2.5-1 3.8-2 4.5z" fill="#8dc640"/></svg>