<svg xmlns="http://www.w3.org/2000/svg" width="237.534" height="40.081"><g fill="#8dc640"><path d="M209.486 16.896c-1.274.888-3.123 1.327-5.653 1.327H201.324l1.924-10.391h1.845c2.1 0 3.634.338 4.691 1.024.826.538 1.805 1.603 1.805 3.624 0 2.435-1.139 3.745-2.103 4.416M59.814 29.937H40.397l1.255-6.792h12.179l1.384-7.65H43.153l1.166-6.722h19.383zM219.946 2.943C217.091.986 212.771 0 207.107 0h-14.834l-5.514 29.938h-19.432l1.246-6.792h11.707l1.392-7.629-11.7.021 1.253-6.763h12.056l1.604-8.774h-24.49l-5.234 28.401h-8.98L151.453.001H138.65l-5.234 28.401h-8.756L129.937.001h-12.79l-5.528 29.938h-19.57l1.233-6.792h11.76l1.385-7.585-11.742-.011 1.247-6.776h12.19l1.596-8.774H33.421l-4.343 23.725L20.426 0H7.147L0 38.717h12.681l4.325-24.377 8.397 24.377h45.452L76.38 8.774h7.112l-5.528 29.943h119.598l3.464-18.903 5.615 18.903h12.688l-5.813-15.445 1.327-.287c2.924-.626 5.213-1.975 6.801-3.996 1.591-2.04 2.399-4.659 2.399-7.805.001-3.664-1.337-6.358-4.097-8.241M230.402 34.138l1.728-.09c.366-.017.655-.072.857-.159a.9.9 0 0 0 .453-.39.974.974 0 0 0 .132-.553.921.921 0 0 0-.349-.698c-.218-.175-.554-.247-1.005-.226l-1.923.098zm-.639 3.438l-.311-6.09 2.702-.136c.54-.028.953.006 1.242.102.29.094.523.276.707.545.183.268.285.566.298.902.025.432-.098.802-.362 1.114-.264.309-.685.52-1.264.63.217.094.386.184.5.277.247.204.483.464.709.778l1.136 1.604-1.004.051-.87-1.226a11.36 11.36 0 0 0-.624-.811 1.821 1.821 0 0 0-.43-.385 1.237 1.237 0 0 0-.374-.145 2.495 2.495 0 0 0-.451-.005l-.93.047.134 2.707z"/><path d="M227.125 34.629a4.69 4.69 0 0 1 1.211-3.402 4.724 4.724 0 0 1 8.224 2.92c.004.08.009.165.009.242a4.737 4.737 0 0 1-4.485 4.719 4.733 4.733 0 0 1-4.959-4.479m4.426-5.926a5.666 5.666 0 0 0-3.932 1.872 5.66 5.66 0 0 0-1.46 4.107 5.705 5.705 0 0 0 5.977 5.392c3.13-.162 5.552-2.843 5.39-5.975v-.003a5.696 5.696 0 0 0-5.975-5.393"/></g></svg>