<svg xmlns="http://www.w3.org/2000/svg" height="512pt" viewBox="-73 0 365.258 512" width="487.01"><path d="M110.297 98.469c-8.285 0-15-6.696-15-14.95 0-24.39 7.785-45.425 22.52-60.828C131.812 8.06 150.858 0 171.444 0c8.285 0 15 6.691 15 14.95 0 8.253-6.715 14.945-15 14.945-31.707 0-46.152 27.796-46.152 53.625.004 8.253-6.715 14.949-14.996 14.949zm0 0" fill="#804111"></path><path d="M171.445 0c-20.586 0-39.632 8.059-53.629 22.691a76.15 76.15 0 0 0-8.187 10.215v65.528c.223.011.441.035.664.035 8.285 0 15-6.696 15-14.95 0-25.824 14.445-53.62 46.152-53.62 8.285 0 15-6.696 15-14.95S179.73 0 171.445 0zm0 0" fill="#62320d"></path><path d="M248.438 233.152c-8.282 0-15 6.696-15 14.95H-14.18c0-8.254-6.715-14.95-15-14.95s-15 6.696-15 14.95v130.62c0 58.997 81.328 105.548 129.805 128.048 7.516 3.488 15.762 5.23 24.004 5.23 8.246 0 16.492-1.742 24.008-5.23 48.476-22.5 129.8-69.051 129.8-128.047V248.102c0-8.254-6.714-14.95-15-14.95zm0 0" fill="#ff9f00"></path><path d="M248.438 233.152c-8.282 0-15 6.696-15 14.95h-123.81V512c8.247 0 16.493-1.742 24.009-5.23 48.476-22.5 129.8-69.051 129.8-128.047V248.102c0-8.254-6.714-14.95-15-14.95zm0 0" fill="#f77e00"></path><path d="M126.277 68.57H92.984C1.461 68.57-73 142.773-73 233.984v.23c0 15.9 12.98 28.837 28.937 28.837H263.32c15.957 0 28.938-12.938 28.938-28.836v-.23c0-91.212-74.457-165.415-165.98-165.415zm0 0" fill="#9c5015"></path><path d="M126.277 68.57H109.63v194.48H263.32c15.957 0 28.938-12.937 28.938-28.835v-.23c0-91.212-74.457-165.415-165.98-165.415zm0 0" fill="#804111"></path></svg>