<svg xmlns="http://www.w3.org/2000/svg" version="1.1" id="图层_1" x="0" y="0" viewBox="0 0 172.311 187.971" xml:space="preserve" width="172.311" height="187.971"><style type="text/css" id="style295">.st0{fill:#fefefe}.st1{fill:#ab3724}.st2{fill:#ab3725}.st4{fill:#ab3825}.st5{fill:#ab3927}.st6{fill:#ab3826}.st10{fill:#ab3926}.st11{fill:#d49b91}.st18{fill:#ad3d2a}.st19{fill:#ad3e2b}.st28{fill:#f9f2f1}.st36{fill:#e3beb8}.st57{fill:#f8efee}.st64{fill:#f7ecea}.st70{fill:#faf4f2}.st72{fill:#f7eeec}.st74{fill:#fdfdfd}</style><g id="g571" transform="translate(-220.7 -303.03)"><g id="g569"><path class="st1" d="M294.3 367.1h19.6v28.6H291c0-3.9-.5-7.9.2-11.7.7-3.6.2-7.2 1-10.5.5-2.1-.2-5 2.1-6.4z" id="path299" fill="#ab3724"></path><path class="st1" d="M290.8 398.1h23v27.8h-20.5c-.9-.9.4-2.8-1.4-3.4 0-2.7.6-5.5-.1-8-1.5-5.3-.3-10.7-1-16.4z" id="path301" fill="#ab3724"></path><path class="st2" d="M269.4 425.2c-1.6-9.3-3.1-18.1-2.2-27.1h20.4c.4.7 1.4 1 1.4 2v.5c-.7 7.9 1.1 15.7 1 23.6v1.9h-10.4c-3.4 0-6.6-2-10.2-.9z" id="path303" fill="#ab3725"></path><path d="M270.9 368.1h19.6c-.5 4.6-1.3 9.1-1.5 13.7-.3 4.6-.1 9.3-.1 14.1h-21.7c-1.4-4.7.4-9.4.7-14.2.4-4.7 1.5-9.3 3-13.6z" id="path305" fill="#aa3724"></path><path class="st1" d="M243 395.8c-.2-8.9 2.2-17.1 4-25.8 3.7.5 6.9-1.3 10.5-1.1 3.3.2 6.8.8 10.4-.6.3 4.2-1.4 8.5-2.1 12.7-.8 4.6-.5 9.1-.9 13.6l-1.2 1.2z" id="path307" fill="#ab3724"></path><path class="st4" d="M266.9 425.1c-3.1-.5-5.9.1-8.8-.9-3-1-6.5-.2-10.1-.2-3.3-8.3-4-16.9-5.1-25.8h20.9l1.2 1.2c-2.5 2 .4 3.9.2 6-.3 2.1.2 4.4-.1 6.5-.4 2.4 1.4 4.4 1 6.6-.6 2.2 1.2 3.9.8 6.6z" id="path309" fill="#ab3825"></path><path class="st2" d="M220.8 395.8c1.5-8 1.4-15.9 4.1-23.8 3.5.5 6.6-1.5 10.1-1 3.3.5 6.4-.8 9.7-1.3-1.7 8.8-4.3 17.1-3.6 26.1z" id="path311" fill="#ab3725"></path><path class="st4" d="M245.1 423.2c-4-.7-7.5.3-11.1-1-3-1.1-6.8.7-9.7-1.5-2.2-7.3-2.4-14.9-3.6-22.6h20.2c-.3 4.3.3 8.5 1.2 12.7.8 4 1 8.1 3 12.4z" id="path313" fill="#ab3825"></path><path class="st1" d="M225.2 424.3c3.6-1.3 6.9 1 10.4.7 3.5-.3 6.7.8 10 1.2 3 6.9 5.7 14 10.2 20.5-6.9 1.3-13.7-.8-20.7-.8-3.9-6.9-7.4-14-9.9-21.6z" id="path315" fill="#ab3724"></path><path class="st2" d="M226.5 370c-.8-1-.6-1.9-.3-2.8 2.6-7.2 5.5-14.2 9.9-20.2 3.5 0 6.7-.2 9.8.1 3.1.3 5.8-2.1 9.2-.6-4.2 6.6-7 13.8-9.6 21.4-2.9.9-6.3-.3-9.6 1-2.8 1-6.4-.6-9.4 1.1z" id="path317" fill="#ab3725"></path><path class="st2" d="M236.5 448.3c7.5 1.8 14.6-.7 21.7 2.5 3.7 7.2 10.1 13.3 15.7 21.2-6.1-1.8-11.3-.5-16-1-8.8-6.1-15.3-13.8-21.4-22.7z" id="path319" fill="#ab3725"></path><path class="st5" d="M331 426h-15v-27c4.9-1 9.9-.3 14.4-.5 1.4 1.1 1.9 2.2 2 3.4.4 7 .4 14 0 21-.1 1.2-.6 2.2-1.4 3.1z" id="path321" fill="#ab3927"></path><path class="st1" d="M269 365.8c-7.3.6-13.9 2-20.8 1 2.5-7.1 6.2-13.8 9.8-20.4 1.5-.7 2.8-.2 4.1-.3 3-.3 6.1.5 9.1-.9 1.3-.6 3.2-.1 5.2-.1-3.2 7-5.8 13.7-7.4 20.7z" id="path323" fill="#ab3724"></path><path class="st4" d="M295.2 448.8c-6.5.9-12-2-18-.5-1.5-3.5-3.1-6.7-4.2-10-1.1-3.2-1.8-6.5-2.8-10.1-.1.2-.1.1 0 0s.3-.2.4-.2h20c1.6 6.9 2.6 13.8 4.6 20.8z" id="path325" fill="#ab3825"></path><path class="st4" d="M256.9 343.9c-5.8-.4-11.2 1-16.7 1.1h-1.9c.5-3.2 2-5.7 19.2-21.9 2.5-.5 5 .1 7.6-.9 2.3-.9 5.2-.2 8.2-.2-6.3 7.2-11.9 14.2-16.4 21.9z" id="path327" fill="#ab3825"></path><path class="st4" d="M313.8 448.9h-15.9c-2.6-6.1-3.3-12.8-4.6-19.8.4-.9 1.8-1.8 2.8-1.1 2 1.4 4.1.8 6.1.9 3.8.1 7.6 0 11.6 0z" id="path329" fill="#ab3825"></path><path class="st2" d="M313.8 364.9h-20.5c1.3-6.6 2.6-13.2 4-19.8h16.5z" id="path331" fill="#ab3725"></path><path class="st4" d="M290.8 365c-3.1 0-6.1-.7-8.6.2-3.4 1.2-6.8.5-10.1.8-.3 0-.6-.2-.8-.3 2.6-6.8 3.7-14.3 8-20.6H295c.2 3.4-1.7 6.5-2 9.9-.4 3.2-1.4 6.4-2.2 10z" id="path333" fill="#ab3825"></path><path class="st0" d="M387 412c-1.4 2-1.4 4.5-1.9 6.7-.4 2-1.4 3.5-2 4.9-1.5.6-2.6.7-3.5-.4-1 .6-2.3.6-3.1 1.8-.4-.3-.7-.6-1.1-.9-.6.2-.7 1.1-1.5.9-2.9-1.4-6.1.3-9-1-.3-.1-.5-.2-.9-.3 1.2-1 .9-2.4.9-3.7.2-2.1 1.1-.8 1.6-.3.8.8 1.3 2 2.7 1.7 1.9-.8 1.4-2.6 1.2-3.9-.5-5.3 1.5-10.9-1.2-16-.5-.1-.9-.3-1.3-.5s-.8-.6-1-1v-1c5.4-1.1 10.8-.2 16.2-.5 1.1 0 2.2-.1 3.3.2 1 .4.8 1.6 1.5 2.3v3.8c0 .7-.1 1.3-1 1.2-.7 2-.7 4 .1 6z" id="path335" fill="#fefefe"></path><path class="st4" d="M267.7 427c1.3 7.4 4.4 13.8 6.7 20.8h-15.2c-4.3-6.5-8.1-13.5-10.4-21.3 3.4-1.7 6.3.5 9.2.5 3.2-.1 6.3 0 9.7 0z" id="path337" fill="#ab3825"></path><path class="st2" d="M277.1 342.9c-6.1.2-11.6-.6-17.2 1 4.9-8.1 10.4-15.3 16.2-21.8 4.1-.4 8 .5 12.1-.8-3.4 7.5-7.9 14.1-11.1 21.6z" id="path339" fill="#ab3725"></path><path class="st1" d="M302 471.9h-11.4c-4.9-6.2-8.4-13.2-12-20.7 3-.4 5.8-.2 8.5-.2h8.4c1.5 3.5 2.5 7.1 3.3 10.7.7 3.5 3.3 6.3 3.2 10.2z" id="path341" fill="#ab3724"></path><path class="st6" d="M292.4 321.1h9.3c.9 2.2-.8 3.9-1.2 5.8-1 4-2.9 7.8-3.6 12-.2 1.4-.9 3-2.3 4.1h-14.3c.5-3.9 8.2-17.8 12.1-21.9z" id="path343" fill="#ab3826"></path><path class="st0" d="M366 323c1.3.5 2-.9 3.3-1 .3.2.7.5 1.3.9.3.1.4-.6 1-.8 1.4 1.4 2.9 2.8 4.3 4.3 1.5 1.5 3.5 2.5 4.5 4.5 2.6.2 2.9 2.7 4.2 4.1 1.4 1.5 2.6 3.4 5.1 4.1.7.7-.2 2.3 1.1 3.3.7.5 2.7 0 2.1 2-1.2 1.3-2 0-2.4-.4-1.3-.2-1.6.5-2.1.9-.3-.3-.7-.6-1-.9-.3.3-.7.6-1 .9-.4-.3-.8-.7-1-.9-1.3-.4-1.6 1.3-2.7.9-.5-.3-1-.7-1.3-.9-1.3-.4-1.5 1-2.4.9-.8.1-1-.7-1.5-1-.8 1.2-1.9 1.1-3.4.8-1.5-3-3.4-5.8-5.9-8.4-.8-.9-1.7-2.7-1.2-4.4 1-.3 1.6 0 1.8 1.4.1-2.4-.1-4.4-.3-7.3 0-.9-2.9-.9-2.5-3z" id="path345" fill="#fefefe"></path><path class="st6" d="M277.3 472c-5.6-7-11.9-13.5-16.7-21.8h14.1c1.4.9 2.5 2.5 3.2 4.3 2.4 5.9 5.7 11.3 9.3 16.8-1.6 1.2-3.3.5-4.8.6-1.6.2-3.2.1-5.1.1z" id="path347" fill="#ab3826"></path><path d="M316.1 471.8v-20.7h15.6c.8 1.6 0 3-.5 4.7-1.6 5.3-3.4 10.5-5.3 16z" id="path349" fill="#ab3a27"></path><path d="M316.2 321.1h8.2c1.8.9 2.5 2.7 3.1 4.8 1.5 5.2 3.2 10.3 4.9 15.9-2.9.4-5.6.1-8.1.2h-8.1z" id="path351" fill="#ac3a27"></path><path class="st4" d="M313.8 471.9h-9c-2.3-6.7-4.6-13.5-7-20.7 2.7-.4 5.3-.1 7.9-.2h8.1z" id="path353" fill="#ab3825"></path><path class="st4" d="M299.5 343l-1.1-1.1c2-7.1 3.7-14.1 7-20.7h8.5V342c-4.5.5-9.1-.3-13.6.5-.4-.1-.6.3-.8.5z" id="path355" fill="#ab3825"></path><path d="M331 426v-27h-15c-.1-1 .6-1 1.3-1h22.9c-.8 3.7 1 7.3-1.2 10.7-.2.2 0 .7 0 1 .4 5.4-.4 10.7-1.4 16.4-2-.1-4.3-.1-6.6-.1z" id="path357" fill="#c37163"></path><path class="st10" d="M317 345h12c3.1 6.4 1.5 12.7.8 19.1-4.8.6-8.7.4-13.2.2.1-6.6-.6-12.9.4-19.3z" id="path359" fill="#ab3926"></path><path class="st0" d="M377 367h-5c-2.2-1.6-5.2.8-7.2-1.5 0-.5.3-1 .8-1.3.4-.3.9-.5 1.4-.6 2.6-3.3 2.5-11.6-.1-16.2 1.6-1.7 3.4-1 5.2-.5 1.1-.2 1.3 1.7 2.7.7.7 3.9 2.7 7 4.6 10.1 1.7 2.8 2.9 5.8 2.7 9.2-1.8.8-3.4.9-5.1.1z" id="path361" fill="#fefefe"></path><path class="st11" d="M338 322c1.8-.2 2.3.9 3.1 2.3 3.4 6 6.8 12.1 9.8 18.5h-15.6c-.1 0-.2-.5-.3-.8 2.1-3.8 1.3-8 1.5-12 .2-2.7-.6-5.6 1.5-8z" id="path363" fill="#d49b91"></path><path d="M317 345v18.9c1.9 0 3.8.1 5.8.1h6.2v-19h3.5l1.5 1.5c0 2 .4 4 .8 6 .5 2 1.8 3.8 1.2 6.1-.5 2.1 1.8 3.8.7 6.2h-20.8v-18.5c.1-.7.1-1.4 1.1-1.3z" id="path365" fill="#bb5f4f"></path><path d="M356 442c.2 2.4-2.2 3.7-2.1 6.2-3.1-1.1-5.5 1-8.3.8-2.6-.2-5.3 0-7.9-.1-.7 0-1.8.4-1.8-1 .6-.5 1.2-.9 2-1.1.5-.1 1-.2 1.5-.2.8-.1 1.5-.1 2.3-.1 1.5-.1 3 0 4.8-1.1 1.8-3.7.7-8.1.8-12.3.1-1.8-.8-3.6.5-5.3h4c1.7-.7 3.3-1 4.7.7 1.2 3 .5 6 .2 9-.1 1.7-1.4 2.9-.7 4.5z" id="path367" fill="#eed9d4"></path><path d="M348 428c1.5 4 .9 8.2 1 12.4v6.3c-2.5 2.3-5.4.9-8 1.3-1.1-6.3.4-12.7-1-19-.1-.9.5-1 1.2-1z" id="path369" fill="#d59d93"></path><path class="st5" d="M293 474.3c3.6 1.4 7.1.4 10.7.8 1.7 5.1 4.6 9.7 6.3 14.8.1.2-.2.6-.3 1.1-1.6-.1-3-2-5-.7-4-5.3-8.6-9.9-11.7-16z" id="path371" fill="#ab3927"></path><path d="M261.1 473.4c2.7-1.4 5 .7 7.6.6 2.7-.1 5.3 0 7.9 0l3.9 3.9c1.4 1.4 2.7 2.9 4.3 4.2 1.2 1 1.2 3.2 3.6 3.2-2.8 1.7-5.1.2-6.8-.6-3.3-1.5-6.8-3-10-4.8-3.3-1.8-6.4-3.7-9.6-5.6-.4-.1-.7-.6-.9-.9z" id="path373" fill="#ac3b29"></path><path d="M338 322v19.6c-1.1.7-2.1.3-3 .4-.3-.1-.8-.2-.8-.4-.5-4-2.2-7.7-3.1-11.6-.3-1.4-1.6-2.5-1.1-4 .6-1.4-.6-3.4 1.4-4.4 2.2.1 4.4-.6 6.6.4z" id="path375" fill="#bc6050"></path><path class="st10" d="M304.5 304c1.8-.1 3.7.5 5.5-.8-2.2 5.3-4.8 10.1-6.3 15.6H293c3.8-4.9 7.5-9.7 11.5-14.8z" id="path377" fill="#ab3926"></path><path d="M280 318.8c3.7-5.1 9-8.2 13.2-12.4.8-.8 2.3-1.7 3.9-1.4.8.1 1.7.1 2.4-.1.5-.1.7-.9 1.6-.6-.9 3.4-4.1 4.6-5.6 7.4-1.3 2.4-3.2 4.6-5.3 7.2-2.9-.1-6.5-.1-10.2-.1z" id="path379" fill="#ac3b28"></path><path class="st18" d="M295.8 489.1c-6.2-4-10.5-9.7-15.9-14.6 1.4-.9 2.9-.4 4.2-.5 1.5-.1 3 0 4.8 0 4 5.1 8 10.3 12.4 15.9-2.3.4-3.9-1.9-5.5-.8z" id="path381" fill="#ad3d2a"></path><path class="st19" d="M261.5 320c8.2-4.9 15.8-9.3 24.3-11.8.4.6.4 1.2-.2 1.7-2.6 2.6-5.2 5.1-7.7 7.7-1.7 1.7-3.6 2.5-6 2.4-3.3-.1-6.5 0-10.4 0z" id="path383" fill="#ad3e2b"></path><path d="M361 460c-.5 2.6-2.2 4.7-3.1 7-.8 2-2.8 3.4-4.2 5h-5.6c-.2-.3-.3-.5-.3-.8.1-.3.1-.4.2-.4.4-.3.8-.5 1.2-.7.7-.2 1.3-.4 2-.5 3.5-2 2.4-5.4 2.5-8.3.1-2.1.3-4.2-.7-6.2-.1-2 1.3-3.3 2.1-5h5.9c.9 3.2.3 6.6 0 9.9z" id="path385" fill="#f1e0dd"></path><path d="M330 484c0 .8.1 1.6-.7 2.2-1 1-2.4 1.8-2.5 3.4-1.1.9-2.7-.3-3.7.7-1.1 1.1-2 .3-3.4.6 2.6-5.7 4.9-10.9 7.3-16.1 1.2-.7 2.3-.7 3.4.1 1.6 3.3 1.3 6.2-.4 9.1z" id="path387" fill="#b04432"></path><path d="M325.3 318.9h-9.1v-15.7c1-.3 1.4-.3 1.9.8 2 4.3 4.4 8.4 5.9 13 .2.6.6 1 1.3 1.9z" id="path389" fill="#ae3f2d"></path><path class="st18" d="M314 318.9h-7.6c-1.2-1.6-.1-2.9.7-4 2.4-3.5 2.1-8.4 6.5-11.5.9 2.8.4 5.2.5 7.5 0 2.6-.1 5.1-.1 8z" id="path391" fill="#ad3d2a"></path><path class="st19" d="M316.1 490.8v-15.6c2.4-.4 5 0 8-.3-1.5 6-4.7 10.9-8 15.9z" id="path393" fill="#ad3e2b"></path><path d="M313.9 475.1v15.3c-4-4.7-4.7-10.5-7.9-15.3 2.7-.2 5.3-.2 7.9 0z" id="path395" fill="#ad3d2b"></path><path class="st19" d="M329 319h-1.6c-2.4-4.7-3.7-9.9-7.2-14.8h6c.7.1.1 2.4 1.7 2.8 2.8 3.8 3.7 7.8 1.1 12z" id="path397" fill="#ad3e2b"></path><path d="M353 455h1.8c.5 2 .2 4.1.2 6.2v6.2c-1.3 1.4-1.3 4.1-4 3.6-1.1-3.3.5-6.8-1-10-.1-2.6 2.1-4 3-6z" id="path399" fill="#eacdc8"></path><path d="M329 319v-3.5c0-1.5-.2-3 0-4.5.3-1.6-1.5-2.5-1-4.1 3.2 2.3 5.1 5.6 7 9 .7 1 .8 2 0 3-2 .1-4 .1-6 .1z" id="path401" fill="#b75544"></path><path d="M354 312c2.5.7 5 1.6 7 3.4-.3.4-.6.7-.9 1 1.2.6 2.3 1.8 3.1 3.3h-7.8c-.3-.6-1.3-.8-1.3-1.8-.5-1.9-1.4-3.9-.1-5.9z" id="path403" fill="#f2e2df"></path><path d="M340 429c1-.1 1.2 1 2 1.4 0 4.8-.1 9.7.1 14.6 0 1.3-.9 1.9-1.1 3h-2c-1.4-3.6 1.1-7.5-1-11 .5-2.1 1.4-4.2 1.1-6.5-.1-.5 1-.7.9-1.5z" id="path405" fill="#cc877c"></path><path class="st28" d="M361 460c-.3-.1-.8-.2-.8-.3-.1-2.7-.2-5.4-.2-8.1 0-.5 1.1-.7 1-1.5.7 0 1.4.1 2.1-.6.8-.8 1.6-.9 1.9.6.4.8-.2 1.2-.6 1.6-.5-.4 0 1.1-.2.4 2.3 0 1.8 1.7 1.9 3-.9 2.4-2.6 4.1-5.1 4.9z" id="path407" fill="#f9f2f1"></path><path d="M369 423h-3v-3.8c-.9 0-1 .4-1 .8-1.9-.4-.8-1.7-.8-2.7.5-.6 1.2-.2 1.8-.3 1.2-2.4 0-5.2.8-7.7 1.3-3-1.1-6.5 1.2-9.3h1c2.7 3.7 1.3 8 1.4 12 0 3.7 1.2 7.6-1.4 11z" id="path409" fill="#fcf9f8"></path><path d="M361 396h-3c-.9-.6-1.6-1.3-1.2-2.5l.6-1.5c.5-5.1 0-10.2.3-15.3.1-1.8-.5-4.1 2.3-4.6.9 1.2 1.1 2.6 1 4-.2 1.6.1 3.2.9 4.7.2 1.2.1 2.5.2 3.7.3 3.8.8 7.8-1.1 11.5z" id="path411" fill="#f5e8e6"></path><path d="M366 323c.7 2.1 2.6.4 3.8 1.3v9.7c-1.3-.4-1.6-1.9-2.8-1.9-1.4-.6-2.4-1.6-3-3 0-2-.8-4.2 1-6 .3-.1.7-.1 1-.1z" id="path413" fill="#fcf9f9"></path><path class="st11" d="M342 390c.5-5.3-1.7-10.5-1-15.8-1.3-1.8-1-3.9-1-5.8 1.1-.7 2.1-.3 3-.4 2.7 6.8 1.4 13.8.8 20.7-.1.9-.8 1.4-1.8 1.3z" id="path415" fill="#d49b91"></path><path d="M350 477c.2-1.4 1.7-1.8 2.4-3h6.6c1 1.9.1 3.5-1 5l-6 3c-1.4-1.8-.2-3.4.3-5-.8.5-1.5.7-2.3 0z" id="path417" fill="#f0dcd9"></path><path d="M330 484v-9c1.9-1 3.8-.2 5.7-.5.7 1.9-.2 3.1-.7 4.5-1.2 2.1-2.9 3.8-5 5z" id="path419" fill="#bb5d4e"></path><path d="M352 368h3c.6.7 1.1 1.6 1.2 2.6.3 6.6.1 13.2.1 19.8 0 2-.1 4-1.4 5.7h-3c-.3-.4-.4-.9-.3-1.4.2-.7.5-1.4.8-2.1.3-7 .6-14-.2-21-.3-.4-.5-.9-.7-1.4-.2-.8-.1-1.6.5-2.2z" id="path421" fill="#ecd5d1"></path><path d="M342 390c1.4 0 1-1 1-1.8V368h1c1.1 1.2 1.3 2.6 1.4 4.1.1 6.6.1 13.2 0 19.8 0 1.5-.3 2.9-1.4 4.1-1.7-.4-2.1-1.6-2-3.2.1-.9 0-1.9 0-2.8z" id="path423" fill="#d69e95"></path><path class="st36" d="M350 477c1 .1 1.9 0 2.5-1 1.8 2.1-.7 4-.5 6-1.7.5-3 2.2-5 2-1-.8-1.1-1.9-1-3 1-1.7 2.3-3 4-4z" id="path425" fill="#e3beb8"></path><path d="M360 372c-1.4 0-1 1.1-1 1.8v18.4c0 .7.4 1.8-1 1.8-1.6-1.8-1.3-4-1.4-6.1-.1-5.8.3-11.6-.3-17.3-.2-1 .1-1.8.7-2.6h3z" id="path427" fill="#f3e4e1"></path><path d="M342 311c1.4.3 2 1.7 3 2.5.9.7 1.8 2.4 2.5 2.3 2-.3 1 2.4 2.6 2.2-1.8 3.2-4.6.9-6.9 1.3-2-2.6-2.3-5.3-1.2-8.3z" id="path429" fill="#d9a59d"></path><path d="M357 368v2c.8 8 .8 16 0 24 .3.7.7 1.3 1 2h-2c-1.1-6.7-.2-13.5-.5-20.2-.1-1.9.5-4-.5-5.8v-2z" id="path431" fill="#f0ddda"></path><path d="M352 368v2c1.6 8.3 1.6 16.7 0 25v1h-3c-.4-.5-.4-1-.2-1.5l.6-1.5c.5-6.3.1-12.5.2-18.8 0-2.1-.2-4.3 1.4-6.1.3-.1.7-.1 1-.1z" id="path433" fill="#e7c7c2"></path><path d="M372 347h-3.8c-.7 0-1.3.1-1.2 1 2.4 5.7 2.4 11.3 0 17h-1c-2.3-3-1.1-6.6-1.4-9.9-.2-1.9.1-3.9-.3-5.8-.3-1.5-1.8-2.6-1.3-4.3 2.9.1 5.7 1.5 8.7 1.2.1 0 .2.5.3.8z" id="path435" fill="#fbf7f7"></path><path d="M346 368h1c.9 1 1.3 2.3 1.3 3.6.1 6.9.1 13.8 0 20.7 0 1.3-.5 2.6-1.3 3.6h-1c-1.6-2.1-1.1-4.5-.9-6.8.3-6.9-1.3-14.1.9-21.1z" id="path437" fill="#ddafa7"></path><path d="M349 395v1h-1c-.8-9.3-.8-18.7 0-28h1c2 4.5.9 9.2.9 13.7s1.1 9-.9 13.3z" id="path439" fill="#e1b9b2"></path><path d="M348 368v28h-1v-28z" id="path441" fill="#dfb4ad"></path><path d="M346 368v28h-1c-.8-9.3-.8-18.7 0-28z" id="path443" fill="#daa8a0"></path><path d="M345 368v28h-1v-28z" id="path445" fill="#d8a39a"></path><path d="M354 312c0 .5-.2 1.2 0 1.4 1.8 1.6.9 3.1 0 4.6-1.5-1.5-4-1.8-5-4 .2-1.4.6-2.7 1-4 1.3.7 2.7 1.3 4 2z" id="path447" fill="#e8cac5"></path><path class="st36" d="M349 395v-27h1c.8 9 .8 18 0 27z" id="path449" fill="#e3beb8"></path><path d="M350 395v-27h1v24.7c0 .8.7 2.1-1 2.3z" id="path451" fill="#e5c3be"></path><path d="M355 370c1.7.2 1 1.5 1 2.3.1 7.9 0 15.8 0 23.7h-1z" id="path453" fill="#efdbd7"></path><path d="M350 461h1.8c0 3.4 1 6.7-.8 10h-2c-.4-2.3-.8-4.7-1-7 .7-1 1.3-2 2-3z" id="path455" fill="#e6c5bf"></path><path d="M363 345c-.1.6.3 1 .8 1 1.7 0 1.2 1.2 1.2 2 1 5.1.3 10.3.4 15.4-.2.6-.7.9-1.3.8-3-4.6-.7-9.7-1.7-14.5-.2-.7-.6-1.3-1.1-1.9-.6-.9-1.9-1.4-1.4-2.9 1.1.1 2.1.1 3.1.1z" id="path457" fill="#faf3f2"></path><path d="M360 345c-.1.9.6.9 1.2 1 .5.1.9.4.8 1 1.8 3.9.9 7.9.6 11.5-1.5.8-1.9-.4-2.6-.5-1.9-.5-.6-2-1-3 1.3-2.1 1-4.3.3-6.5-.3-.3-.6-.5-.9-.8-.8-.5-1.8-.9-2.4-1.7-.1-.9.5-1 1.2-1z" id="path459" fill="#f7edeb"></path><path d="M342 311c-.5 1.5 1.3 2.5 1 4-.2 1.3 0 2.6 0 4-1 .7-2 .7-3 0v-1c-.8-2.7-2.3-5.3 0-8 .8.2 1.9-.5 2 1z" id="path461" fill="#ce8c81"></path><path d="M363 348c1.3 0 1 1 1 1.7V364c-.3.3-.7.3-1 0-2.2-.2-2.8-.8-3-3 1.9-1 2.6-2.5 2.6-4.8-.1-2.7-.6-5.5.4-8.2z" id="path463" fill="#f9f2f0"></path><path d="M338 437c1-.1 1.1 1.1 2 1.3 0 2.3-.2 4.6.1 6.8.1 1.3-.9 1.9-1.1 3h-1c-1.8-1.4.2-3.5-1-5-.5-2.2 1.5-4 1-6.1z" id="path465" fill="#cb867a"></path><path d="M356 429c.1-.9-.5-1-1.2-1H352c-.1-.6.3-1 .8-1h8.7c-1.2 2.1-1.6 3.8-1.6 5.7 0 .1-.5.2-.8.3-.8.4-1.2-.1-1.6-.6-.6-1.1-.3-2.6-1.5-3.4z" id="path467" fill="#f4e8e4"></path><path class="st57" d="M363 348v13.8c-1.2-.1-1.9-1.2-3-.8v-3c.1-.3.2-.6.3-.8 1.3 0 .1 1.5 1.4 1.7.6-3.9.1-7.9.3-11.9.7 0 1 .3 1 1z" id="path469" fill="#f8efee"></path><path d="M363 384c.9-.1 1 .5 1 1.2v5.8c-1.2 1.5.2 3.5-1 5h-1c-.4-4.1-1.8-8.2 1-12z" id="path471" fill="#fbf5f6"></path><path d="M348 471v1h-5.2c1.2-1.9 2.2-3.5 3.2-5 3 .2 3.1 1.8 2 4z" id="path473" fill="#e0b5af"></path><path d="M335 479c.1-1.2-.4-2.6 1.3-3.7-2.2-.6-4.3-.2-6.3-.3h-3c.1-.3.2-.8.4-.8 3.6-.4 7.1-.1 11.1-.2-1 2.4-2.5 3.5-3.5 5z" id="path475" fill="#c98073"></path><path d="M358 479c0-.9-.3-2 1.3-2.3-.6-.5-.9-.8-1.3-1.1.3-.6 1.2-.8 1-1.6 1.7.2 3.6-.7 4.9 1.5-1.9 1.2-3.9 2.3-5.9 3.5z" id="path477" fill="#f8f1ef"></path><path d="M384 399h-17c0-1.3 1-1 1.8-1H384c.3.2.4.4.3.7-.1.2-.2.3-.3.3z" id="path479" fill="#faf5f3"></path><path d="M350 310c-.1 1 .1 1.9 1 2.5-.3 1-2.2-.1-2 1.5-2.1-1.1-3.3-3-5.1-4.5 2.3-1.6 4 1.3 6.1.5z" id="path481" fill="#e2bcb6"></path><path class="st64" d="M363 384c-.2 1.1-1.2 1.8-1.1 3.1.2 3 .1 6 .1 8.9h-1c.2-.6-.4-.8-.7-1.2 1.3-3.6.4-7.2.7-10.8.9-.4.1-2.6 2-2z" id="path483" fill="#f7ecea"></path><path d="M348 471c.1-1.7.2-3.4-2-4 1-.8.3-2.7 2-3-.1 1.3 1.1.8 1.9 1.4 0 1.8.5 3.8-.9 5.6z" id="path485" fill="#e1b8b1"></path><path d="M356 346c1 .4 2.5-.9 3 1 1 1 1.1 2.3.7 3.6-.3.8-.9 1.2-1.7 1.4-1.7-.4-2.1-1.6-2-3.2.1-.9 0-1.9 0-2.8z" id="path487" fill="#f4e6e3"></path><path d="M356 429h2v3c-.7 1.3.3 2.7 0 4-.4 1 .9 2.5-1 3-.3.4-.7.4-1 0z" id="path489" fill="#f1e1dd"></path><path d="M340 310v8c-1-1.3-2-2.7-3-4 1.2-1.9-.4-4.2 1-6h2z" id="path491" fill="#cd897e"></path><path d="M346 481c1.9.5.6 2 1 3-1.5.7-3 1.4-5.1 2.5.4-3.2 2.3-4.3 4.1-5.5z" id="path493" fill="#daa9a1"></path><path class="st70" d="M363 364h2c.3.2.4.4.3.7-.1.2-.2.3-.3.3-.1 1 .6 1 1.3 1h4.9c.5 0 .9.4.8 1h-9.5c-1.7-1.5.7-1.9.5-3z" id="path495" fill="#faf4f2"></path><path d="M338 308c-.2 2 2 3.6.8 5.7-.5.5-1.2.2-1.8.3-1.5-.1-.8-1.2-1-2-.6-1.2-.3-2.6-.5-3.8 0-.5.2-.8.5-1.2.8.2 1.9-.5 2 1z" id="path497" fill="#c67a6d"></path><path class="st72" d="M340 319h8.8c.7 0 1.3-.1 1.2-1h1.5c.6.4.7 1 .4 1.7-.1.1-.2.3-.3.3-3.8-.3-7.7.7-11.5-.5-.1 0-.1-.3-.1-.5z" id="path499" fill="#f7eeec"></path><path d="M358 352c0-.7.3-1 1-1 1.2-1.1-.1-2.9 1-4 .6-.1 1 .3 1 .7v8.1c-1.7.1-.4-1.4-1.4-1.6-.6 0-.7.3-.6.8-1.9-.5-.6-2-1-3z" id="path501" fill="#f6ebe9"></path><path class="st28" d="M365 323v4.8c0 .7-.1 1.3-1 1.2-1.7-.3-1-2.2-2-3 .6-.6.2-1.5.6-2.1.4-.4 1-.5 1.4-.9z" id="path503" fill="#f9f2f1"></path><path class="st74" d="M368 400v8.8c0 .7-.1 1.3-1 1.2-.6-.1-.6-.7-1-1-.5-1.3.9-1.9 1-3-.8-2-.8-4 0-6z" id="path505" fill="#fdfdfd"></path><path class="st11" d="M338 322h-7c-.5.6-1.1 1.1-2 1-.3-.1-.7-.2-.8-.3-.2-.4-.1-.9-.2-1.7h9.2c.5 0 .9.4.8 1z" id="path507" fill="#d49b91"></path><path d="M366 450h2.5c.9 1.1.4 2.4.4 3.6-.7.4-.9 1.4-1.9 1.4-2-1.3-1.1-3.2-1-5z" id="path509" fill="#fdfbfb"></path><path d="M366 450c0 1.2 2.6 2.3-.1 3.4.4.6 1.2.8 1.1 1.6h-1c-1.8-.2-.6-1.8-1.1-2.6-.4-.8-1.6 0-1.9-1 .3-.9 2.1.1 1.9-1.4z" id="path511" fill="#fbf6f6"></path><path d="M366 409c.7 0 1 .3 1 1v8c-.5-.3-.8-.4-1-.5-.1-.1 0-.3 0-.5z" id="path513" fill="#fefdfd"></path><path d="M365 424h7.8c.7 0 1.3.1 1.2 1h-7.8c-.6 0-1.3-.1-1.2-1z" id="path515" fill="#f9f3f1"></path><path d="M334 310c-1.1-1.4-2.4-2.8-3.3-4.2 1.8-2 2.2.4 3.3.2.8 1.3 1.2 2.7 0 4z" id="path517" fill="#bd6455"></path><path d="M363 382c-.6-.1-.9.3-1 .8-.1.7-.1 1.3-1 1.2v-4c-.4-1 .1-1.2 1-1 1.9.5.6 2 1 3z" id="path519" fill="#fbf5f5"></path><path d="M337 443c.9-.1 1 .5 1 1.2v3.8h-2c-.5-1.8 1.2-3.2 1-5z" id="path521" fill="#c47466"></path><path d="M358 436c-1.4-1.3-1.4-2.7 0-4 0 .7.3 1 1 1-.4 1 .9 2.5-1 3z" id="path523" fill="#f2e2de"></path><path class="st64" d="M362 379c-.7 0-1 .3-1 1-1.4-1.3-1.4-2.7 0-4 1.9.5.6 2 1 3z" id="path525" fill="#f7ecea"></path><path d="M334 310v-4c.7.3 1.3.7 2 1v1c.8 2.1.1 2.8-2 2z" id="path527" fill="#bf695b"></path><path d="M329 323c.1-1.5 1.2-.8 2-1v2.8c0 .7-.1 1.2-1 1.2-.1-1.1-1.5-1.7-1-3z" id="path529" fill="#b34d3c"></path><path d="M334 310h2v-2c1.8.6 1.1 1.8.6 2.9-.2.4-.4.8-.6 1.1-1.1-.2-1.8-.9-2-2z" id="path531" fill="#c47366"></path><path d="M377 367h5c.5-.1.8.1.9 1h-5.1c-.5 0-.9-.4-.8-1z" id="path533" fill="#f8f1ee"></path><path d="M387 412c-1.4-1.9-1.4-4.1 0-6z" id="path535" fill="#f6ede9"></path><path d="M367 400v6c-1.4-1.9-1.4-4.1 0-6z" id="path537" fill="#f9f1ee"></path><path class="st70" d="M384 399v-1h4v3c-1.6.2-.5-1.7-1.6-2z" id="path539" fill="#faf4f2"></path><path d="M356 439h1c.5 1.3-.9 1.9-1 3-1.4-1-1.4-2 0-3z" id="path541" fill="#f1dedb"></path><path d="M335 319v-3c1.1.3 2 1 2 2.3-.3 1.1-1.3.6-2 .7z" id="path543" fill="#ca8377"></path><path class="st72" d="M363 396v-3.8c0-.7.1-1.3 1-1.2v3.8c0 .7-.1 1.3-1 1.2z" id="path545" fill="#f7eeec"></path><path class="st57" d="M363 324c-.2.8.5 1.9-1 2-.3-.7-.7-1.3-1-2 .2-.3.6-.5 1-.6.4.1.7.3 1 .6z" id="path547" fill="#f8efee"></path><path class="st28" d="M362 324h-1c-.3-.1-.5-.2-.9-.3.4-.8.9-1.5 1.9-1.7.3.3.4.6.5 1 0 .4-.2.8-.5 1z" id="path549" fill="#f9f2f1"></path><path d="M362 324v-1c.3-.4.7-.4 1 0h1c0 .7-.3 1-1 1z" id="path551" fill="#fbf7f6"></path><path d="M363 323h-1v-1c.7 0 1 .3 1 1z" id="path553" fill="#f5eae6"></path><path class="st74" d="M369 423v-23h2.9c.2 7.5 0 15.1.1 22.5-1 .8-2.1.4-3 .5z" id="path555" fill="#fdfdfd"></path><path d="M367 365v-17h2.9c.1 2.7 0 5.5.1 8.3v8.3c-1 .7-2.1.3-3 .4z" id="path557" fill="#fcfafa"></path><path d="M365 365v-17c1.3 0 1 1 1 1.8V365z" id="path559" fill="#fbf6f5"></path><path d="M357 394v-24c1.4 0 1 1 1 1.8V394z" id="path561" fill="#f2e1dd"></path><path d="M352 395v-25h1c.8 8 .8 16 0 24 0 .7-.3 1-1 1z" id="path563" fill="#e9cdc8"></path><path d="M353 394v-24c.6-.1 1 .3 1 .8v22.4c0 .5-.4.9-1 .8z" id="path565" fill="#ebd1cd"></path><path d="M360 347v5.9c-1.5-.3-.8-1.3-1-1.9v-4z" id="path567" fill="#f4e8e6"></path></g></g></svg>