<svg xmlns="http://www.w3.org/2000/svg" width="72.75" height="79.88" viewBox="0 0 72.75 79.88"><path d="M33.389 15.812a90.641 90.641 0 0 1 2.659-8.197c.581-.003 1.174-.004 1.778-.004l1.224.003v8.169h-.197c-1.886 0-3.71.01-5.464.029zm-7.842.146a71.917 71.917 0 0 1 4.62-8.279 433.49 433.49 0 0 1 3.74-.05 93.306 93.306 0 0 0-2.598 8.209c-1.95.03-3.88.07-5.762.12zm13.504 36.083a362.701 362.701 0 0 1-8.138-.114 88.093 88.093 0 0 1-.799-11.04h8.937zm-2.962 19.842a89.755 89.755 0 0 1-2.739-8.198c1.78.02 3.631.029 5.547.029h.153v8.169l-1.301.003c-.563 0-1.117-.001-1.66-.003zM54.825 16.02a534.387 534.387 0 0 0-5.782-.14 92.552 92.552 0 0 0-2.587-8.193c1.226.021 2.482.046 3.775.078a71.53 71.53 0 0 1 4.594 8.255zm-7.863-.176c-2.028-.03-4-.049-5.912-.057V7.621c1.056.007 2.143.018 3.26.033a90.87 90.87 0 0 1 2.652 8.19zm21.593 10.753a330.104 330.104 0 0 0-7.883-.556 65.155 65.155 0 0 0-2.724-7.916c2.219.081 4.469.177 6.713.287 1.602 2.695 2.907 5.44 3.894 8.185zm-49.839 24.82a318.494 318.494 0 0 1-7.481-.523c-1.042-3.321-1.628-6.681-1.749-10.007h8.159a52.873 52.873 0 0 0 1.071 10.53zm33.508-12.53a93.133 93.133 0 0 0-.831-11.255c2.666.083 5.204.19 7.709.325a54.656 54.656 0 0 1 1.557 10.931h-8.435zM21.799 61.424a428.903 428.903 0 0 1-5.835-.241c-1.65-2.717-2.999-5.476-4.021-8.227 2.361.187 4.784.351 7.231.491a55.877 55.877 0 0 0 2.625 7.977zm5.461 10.331c-1.189-.03-2.294-.064-3.313-.101-2.564-2.785-4.805-5.605-6.682-8.408 1.765.078 3.574.148 5.404.208a64.798 64.798 0 0 0 4.591 8.301zM9.47 38.886c.066-3.423.62-6.871 1.649-10.273 2.583-.211 5.278-.398 8.04-.558a56.59 56.59 0 0 0-1.478 10.831zm2.333-12.334c.995-2.758 2.313-5.518 3.928-8.227 2.164-.106 4.407-.197 6.693-.273a64.997 64.997 0 0 0-2.749 7.971c-2.679.149-5.317.327-7.872.529zm5.224-10.29c1.908-2.899 4.147-5.72 6.676-8.409 1.228-.045 2.582-.087 4.063-.123a73.224 73.224 0 0 0-4.454 8.292c-2.137.067-4.242.148-6.285.24zm4.755 9.649a63.733 63.733 0 0 1 2.845-7.926 480.69 480.69 0 0 1 6.17-.137 96.985 96.985 0 0 0-1.554 7.767c-2.514.074-5.015.173-7.461.296zm9.495-.352c.421-2.604.953-5.2 1.586-7.742 1.915-.022 3.914-.035 5.99-.035h.197v7.673c-2.595.009-5.201.044-7.773.104zm17.788.006a367.77 367.77 0 0 0-8.015-.108v-7.669c2.076.008 4.223.03 6.436.065.63 2.53 1.16 5.116 1.579 7.712zM41.05 40.887h9.178a87.77 87.77 0 0 1-.798 11.035c-2.778.072-5.589.112-8.38.119zm-10.932-2a91.16 91.16 0 0 1 .859-11.319c2.658-.066 5.366-.103 8.073-.111v11.43zm-10.435 0c.14-3.622.663-7.296 1.561-10.946a358.96 358.96 0 0 1 7.706-.316 93.041 93.041 0 0 0-.832 11.263h-8.435zm19.258 22.828c-2.125 0-4.171-.013-6.129-.036a87.627 87.627 0 0 1-1.603-7.743 361.3 361.3 0 0 0 7.84.105v7.674zm10.669-.109a90.649 90.649 0 0 0 1.558-7.732c2.679-.082 5.332-.192 7.914-.329a54.543 54.543 0 0 1-2.711 7.884c-2.223.071-4.489.131-6.761.177zm-20.724-9.735a362.64 362.64 0 0 1-8.102-.339 50.786 50.786 0 0 1-1.139-10.646h8.468c.034 3.68.293 7.364.773 10.985zm1.857 9.778a465.665 465.665 0 0 1-6.742-.154 54.11 54.11 0 0 1-2.735-7.934c2.638.135 5.29.242 7.911.319.406 2.61.932 5.215 1.566 7.769zM7.374 16.828a39.976 39.976 0 0 1 8.167-8.545c.661-.052 2.457-.183 5.348-.315-2.397 2.704-4.514 5.524-6.314 8.413-3.193.164-5.629.33-7.201.447zM2.018 27.503a39.747 39.747 0 0 1 3.959-8.557c.995-.084 3.522-.284 7.371-.497-1.54 2.732-2.79 5.509-3.726 8.284-3.498.302-6.087.588-7.604.77zM18.677 6.077a39.31 39.31 0 0 1 7.963-3.879 69.639 69.639 0 0 0-3.826 3.688c-1.635.063-3.016.13-4.137.191zm12.849-.421C33.586 2.699 35.253.784 35.86.113c.427-.044.863-.082 1.309-.113a72.983 72.983 0 0 0-2.494 5.622c-1.093.008-2.143.02-3.149.034zm-5.793.128c2.844-2.778 5.109-4.504 5.725-4.96.47-.103.94-.197 1.412-.283a69.159 69.159 0 0 0-3.795 5.158c-1.188.025-2.302.053-3.342.085zM.063 38.886a40.034 40.034 0 0 1 1.338-9.293c1.13-.143 3.734-.453 7.582-.796a39.853 39.853 0 0 0-1.513 10.09H.063zm33.88 32.983a412.99 412.99 0 0 1-4.229-.06 63.683 63.683 0 0 1-4.788-8.287c2.091.059 4.215.104 6.342.135a91.66 91.66 0 0 0 2.675 8.212zm2.892-66.257A68.256 68.256 0 0 1 39.05.708v4.905s-1.869-.002-2.215-.001zm-3.986 73.617a39.496 39.496 0 0 1-1.345-.27 98.133 98.133 0 0 1-5.576-5.24c.859.025 1.767.049 2.723.069a78.954 78.954 0 0 0 4.198 5.441zm20.281-7.575a64.538 64.538 0 0 0 4.559-8.271c1.777-.063 3.588-.137 5.428-.222-1.864 2.795-4.09 5.606-6.637 8.383-1.137.042-2.254.078-3.35.11zm8.499-20.258a52.789 52.789 0 0 0 1.067-10.51h8.159c-.12 3.313-.702 6.655-1.734 9.96a335.16 335.16 0 0 1-7.492.55zM41.05 63.71c1.924-.008 3.909-.026 5.95-.059a89.964 89.964 0 0 1-2.731 8.191c-1.102.014-2.175.024-3.219.031zm0-58.088V.239c.513.99 1.423 2.841 2.47 5.406-.841-.01-1.664-.017-2.47-.023zm13.672.27a579.76 579.76 0 0 0-3.394-.101A69.79 69.79 0 0 0 47.515.594c.495.094.987.196 1.475.308.742.554 2.964 2.274 5.732 4.99zm-5.852-.159a553.24 553.24 0 0 0-3.184-.059A72.8 72.8 0 0 0 43.182.019c.444.034.887.076 1.326.125.633.702 2.312 2.641 4.362 5.589zm12.67.418c-1.328-.058-2.63-.11-3.906-.158a69.48 69.48 0 0 0-3.769-3.648 39.497 39.497 0 0 1 7.675 3.806zm11.21 10.71a512.364 512.364 0 0 0-6.931-.396c-1.791-2.886-3.896-5.701-6.274-8.396 1.635.066 3.31.141 5.029.225a40.047 40.047 0 0 1 8.176 8.567zM53.096 77.659c.896-.846 1.37-1.285 1.684-1.576.622-.577.622-.576 1.962-1.936l.631-.64c1.018-.049 2.172-.076 3.355-.104l1.464-.036c-2.653 1.684-5.749 3.145-9.096 4.292zM9.028 50.709c-3.886-.35-6.606-.684-7.783-.837A40.122 40.122 0 0 1 0 40.886h7.424a39.85 39.85 0 0 0 1.604 9.823zm4.525 10.35a215.109 215.109 0 0 1-7.806-.567A39.78 39.78 0 0 1 1.9 51.993c1.559.182 4.257.476 7.837.784.964 2.766 2.243 5.543 3.816 8.282zm7.621 10.485a202.1 202.1 0 0 1-5.593-.313c-3.401-2.69-6.268-5.621-8.394-8.574 1.666.124 4.278.302 7.631.473 1.776 2.801 3.907 5.622 6.356 8.414zm6.243 6.194a40.313 40.313 0 0 1-8.798-4.316c1.186.063 2.666.134 4.43.201 1.293 1.359 2.806 2.742 4.368 4.115zm11.605 1.071a275.871 275.871 0 0 1-2.149-4.918c.255.001 1.684 0 2.149-.001zm-1.716 1.013a61.625 61.625 0 0 1-1.455-.117 79.847 79.847 0 0 1-4.72-5.823c1.136.018 2.33.031 3.582.04a104.705 104.705 0 0 0 2.593 5.9zm3.745-5.947c.782-.005 1.58-.013 2.395-.022-.74 1.71-1.745 3.873-2.395 5.256zm1.865 6.005c.766-1.643 1.97-4.262 2.716-6.057 1.18-.019 2.389-.041 3.631-.068a75.49 75.49 0 0 1-4.763 5.978c-.532.059-1.06.108-1.584.147z" fill="#ab3623"></path></svg>