<svg xmlns="http://www.w3.org/2000/svg" version="1.1" id="图层_1" x="0" y="0" viewBox="0 0 122.442 154.806" xml:space="preserve" width="122.442" height="154.806"><style type="text/css" id="style225"></style><g id="g239" transform="translate(-246.36 -320.288)"><g id="g237"><path d="M344 466.8c-.3 3.6-3.2 4.3-5.5 5.2-7.8 2.8-15.9 3.6-24.1 2.8-35.8-3.2-63.6-30.9-67.4-66.7-2.9-27.5 4.3-52.8 16.6-76.9.1-.1.2-.3.3-.4 8.1-13.6 14-13.9 23.5-1.5 3.2 4.2 6.5 8.4 9.8 12.7 7.1 9.3 7.5 18.2 1.2 28.1-8.3 13.1-13.3 27.2-13.2 42.8.1 32.3 21.7 53.5 53.9 52.9 1.5-.2 3.2-.6 4.9 1z" id="path229" fill="#4f0598"></path><path d="M354.3 455.9c-1.6 3.3-4.5 3.6-7 4.1-23.5 5-47.4-12.1-51.3-36.8-2.8-17.7 1.7-34 9.8-49.5.8-1.5 1.8-2.8 3-4 2.8-2.9 5.8-3.2 8.5 0 3.4 4.1 6.8 8.2 9.8 12.6 3.3 5 2.5 10.1-.6 15-5.9 9.3-8.8 19.3-7.6 30.4 1.8 16.3 13.8 27.2 30.2 27.4 1.6.1 3.3-.3 5.2.8z" id="path231" fill="#690598"></path><path d="M336.8 396.9c3.6 2.4 5.9 5.9 7.9 9.5 1.5 2.7.5 5.4-1.1 8-3.2 5.2-4.9 10.9-3.9 17.2 1.4 9 7.1 14.2 16.1 14.8 1 .1 1.9.1 3.3.2-1 2.4-2.9 2.4-4.5 2.7-14.8 2.3-27.7-9.1-28.3-25.2-.3-8.2 2-15.8 5.8-23 .8-1.9 1.9-3.6 4.7-4.2z" id="path233" fill="#850699"></path><path d="M347.6 428.8c0-7.1 4.6-12.8 10.4-12.9 5.5-.1 10.7 5.7 10.8 12.1.1 6.7-5.2 13.1-11 13.2-5.7 0-10.1-5.4-10.2-12.4z" id="path235" fill="#990699"></path></g></g></svg>