<svg xmlns="http://www.w3.org/2000/svg" width="128" height="46.452" viewBox="0 0 128 46.452"><path d="M16.372 11.106c-1.998 0-3.712.524-5.2 1.615-.889.65-1.768 1.838-2.511 2.889l-1.014-4.218-5.659.007a.568.568 0 0 0-.566.571v2.142c0 .32.253.571.573.571l3.147-.007s.775 2.78 1.264 4.738c-.659 1.189-1.299 2.214-1.849 3.275C1.429 28.726 0 32.896 0 37.456c0 5.457 2.397 8.996 5.968 8.996 4.137 0 6.604-3.708 6.604-10.126 0-.123-.009-.543-.021-.787.993.497 2.374.909 3.564.909 4.587 0 8.381-3.033 9.184-7.212.332-1.722.466-3.288.466-5.411 0-2.272-.244-4.244-.712-5.859-1.278-4.359-4.439-6.86-8.681-6.86zM5.968 43.287c-1.756 0-2.675-2.935-2.675-5.831 0-3.678 1.06-7.75 4.262-13.927.937 4.293 1.719 9.602 1.719 12.797 0 2.095-.318 6.961-3.307 6.961zm16.094-14.674c-.504 2.629-3.051 4.648-6.056 4.648-1.26 0-2.557-.436-3.692-.817-.469-4.035-1.515-8.98-2.455-12.836.601-1.074 1.035-1.861 2.081-3.119 1.515-1.835 3.014-2.195 4.432-2.195 3.474 0 4.915 2.55 5.518 4.601.265.905.58 2.49.58 4.931 0 1.924-.116 3.27-.408 4.787zM127.82 31.537l-1.673-1.355a.548.548 0 0 0-.775.032h-.002c-.538.652-1.561 1.719-1.685 1.842-.599.582-1.419 1.053-2.317 1.053-1.58 0-2.623-.476-2.623-3.286V14.686h5.385a.577.577 0 0 0 .573-.576v-2.149a.576.576 0 0 0-.573-.571h-4.215v-.004h-1.17l-.009-6.191a.574.574 0 0 0-.571-.566h-2.144a.572.572 0 0 0-.571.576v6.182h-2.599a.576.576 0 0 0-.573.571v2.149c0 .318.26.576.573.576h2.599v11.325c-.747.854-2.856 3.1-3.849 4.091-.202.202-.406.385-.612.561-1.1.928-2.269 1.514-3.684 1.957-1.701.536-3.158.681-5.367.678-3.343-.005-4.975-2.246-4.975-2.246.285-.294 4.091-4.117 4.091-4.117 3.152-3.252 5.672-6.345 6.193-6.945 0 0 .662-.679 1.195-1.672 1.167-2.177 1.184-4.468-.808-6.059-.951-.759-2.659-1.254-5.613-1.182-4.407.107-8.74 2.665-9.626 7.171-.245 1.248-.477 2.657-.477 5.327 0 .661.004 1.483.039 2.043.063 1.25.194 2.377.415 3.545.1.524.282.894.473 1.566-.459.579-.941 1.12-1.614 1.672-.512.42-1.345.567-1.776.567l-.149.005c-1.193 0-1.944-.668-2.89-1.675l-.163-.169c-.468-.496-3.854-4.829-6.364-8.07l5.597-5.934 3.116-3.297a.576.576 0 0 0-.021-.809L87.02 11.54a.577.577 0 0 0-.812.021l-.414.438-.003-.004-8.357 8.855-1.886 1.995L75.546.573A.571.571 0 0 0 74.975 0h-1.6v.002h-.549a.571.571 0 0 0-.571.573V26.326c-.281.299-1.773 1.91-2.861 3.1-.947 1.026-2.218 2.304-3.678 3.065-1.125.585-1.778.775-4.611.775-2.954 0-5.496-2.042-5.995-4.653-.295-1.52-.406-2.866-.406-4.789 0-2.051.148-3.745.434-5.031.571-2.545 3.047-4.501 5.968-4.501 2.272 0 4.144 1.007 5.056 2.487.07.118.225.295.383.341.181.056.32.007.448-.051l1.91-1.023c.162-.084.267-.241.267-.469a.547.547 0 0 0-.067-.253l-.118-.244c-1.497-2.487-4.441-3.977-7.878-3.977-4.455 0-8.342 2.931-9.244 6.966-.339 1.527-.518 3.464-.518 5.755 0 2.121.137 3.692.466 5.411.084.441.313 1.088.464 1.505 0 0-.438.591-1.302 1.399-1.14 1.06-2.33.928-2.893.811-.947-.196-1.331-1.086-1.357-2.054l.007-11.441c0-4.908-3.815-8.335-9.3-8.335-2.873 0-5.669 1.211-7.476 3.239-.295.33-.552.698-.77 1.098 0 0-.074.176-.074.274 0 .23.135.42.327.515v.007l1.842.979h.002a.545.545 0 0 0 .269.076c.197 0 .36-.104.462-.253 0 0 .137-.211.394-.499 1.197-1.341 3.074-2.248 5.024-2.248 3.659 0 5.891 2.088 5.891 5.147l-.002.744-3.156.007c-11.08 0-11.94 7.077-11.94 9.247 0 1.706.587 3.283 1.696 4.569 1.74 2.019 3.918 2.434 5.904 2.434 1.787 0 3.932-.784 5.551-1.801.807-.51 1.561-1.248 2.242-2.042.518 2.251 2.374 3.83 4.508 3.843 1.664.01 2.629-.302 3.996-1.221.432-.291 1.296-1.021 1.925-1.793 1.745 1.942 4.194 3.007 7.076 3.007 2.926 0 4.242-.104 6.11-1.077a12.438 12.438 0 0 0 2.972-2.202 40.27 40.27 0 0 0 2.053-2.297l-.009 4.849c0 .318.258.573.578.573h2.151a.57.57 0 0 0 .571-.573v-8.189l2.041-2.105c2.273 2.903 5.715 7.291 6.276 7.96l.153.165c.993 1.06 2.522 2.904 5.227 2.904.111 0 1.032.013 1.686-.271 1.915-.829 3.272-2.313 3.68-2.754.282.279.777.789 1.103 1.035 1.81 1.407 3.992 1.999 6.616 1.996 2.453-.003 4.164-.101 5.916-.694 1.455-.493 3.949-1.942 5.372-3.365.466-.469 1.234-1.197 1.854-1.945.2 3.942 2.093 6.003 6.008 6.003 2.234 0 3.454-1.247 4.184-1.952.097-.095 2.203-2.202 2.203-2.202a.561.561 0 0 0 .134-.355.603.603 0 0 0-.18-.417zm-84.551-5.21c0 3.406-3.678 6.717-6.996 6.717-2.432 0-3.378-.612-3.861-1.17a3.562 3.562 0 0 1-.896-2.42c0-3.838 3.072-5.952 8.646-5.952l3.107-.005zm52.282 1.495s-.227-1.361-.263-3.256c-.014-.732.005-1.517.029-2.415.022-.798.151-1.95.266-2.731.283-1.924 1.18-2.996 2.23-3.841 1.162-.936 2.843-1.469 5.38-1.46 2.432.009 2.798 1.513 2.379 2.344-1.067 2.117-3.75 4.541-6.455 7.487z" fill="#394c63"></path></svg>