<svg xmlns="http://www.w3.org/2000/svg" version="1.1" id="图层_1" x="0" y="0" viewBox="0 0 192.1 138.322" xml:space="preserve" width="192.1" height="138.322"><style type="text/css" id="style105">.st1{fill:#617585}.st6{fill:#82919e}.st7{fill:#e5e8eb}.st10{fill:#6e808f}.st11{fill:#6d7f8e}.st12{fill:#eceef0}.st18{fill:#c5ccd2}.st21{fill:#96a3ae}.st23{fill:#7e8e9b}</style><g id="g191" transform="translate(-211 -327.093)"><g id="g189"><path class="st1" d="M394.1 384.9c2.2 1.2 3.7 2.9 4.9 5 1.6 2.9 2.5 6.1 4 9v8c-2.2 6.1-4.3 12.3-10 16.2-4.5 1.6-4.9 1.4-4.9-3.2-.1-10.6-.1-21.3 0-31.9 0-5 .9-5.4 6-3.1z" id="path109" fill="#617585"></path><path class="st1" d="M217.9 421.1c-.3-.3-.6-.6-.9-1-2.6-3.7-4.1-8-5.9-12.1v-9c2.7-4.8 3.5-10.8 9-13.8 1.4-.8 2.6-2.3 4.5-1.4 2.1 1 1.5 3.1 1.5 4.9.1 10.1.1 20.2 0 30.3 0 1.8.6 4-1.2 5.1-1.9 1.2-3.2-1-4.8-1.7-.8-.4-1.5-1-2.2-1.3z" id="path111" fill="#617585"></path><path d="M217.9 421.1c2.6-.5 4.8 3.7 6.5 1.9 1.4-1.5.6-5 .6-7.7v-27.4c0-3.7-.9-4.5-4.3-2.3-3.6 2.3-5.5 5.6-6.9 9.4-.6 1.5-.3 3.9-2.8 4.1v-4c2.4-.9 2.2-3.5 3.4-5.2 1.7-2.4 3.6-4.4 6-5.8 4.4-2.5 6.4-1.5 6.4 3.6 0 10.1.1 20.3 0 30.4 0 2.3 1.4 5.6-1.6 6.7-3.1 1.1-5.5-1.1-7.3-3.7z" id="path113" fill="#8493a0"></path><path d="M394 422c3.4-3.5 5.9-7.6 7-12.4.3-1.2.9-2.1 2.1-2.6v5c-3.2 2.9-3.6 8-7.8 10.1-.5.4-1 .3-1.3-.1z" id="path115" fill="#80909d"></path><path d="M211 408c3 3.5 4.3 7.9 5.9 12.1-3.6-1.5-3-6.1-5.9-8.1v-4z" id="path117" fill="#81919e"></path><path d="M403 399c-3.2-2.2-3.2-5.8-4-9 2.5.7 1.5 4.3 4 5v4z" id="path119" fill="#98a4b0"></path><path class="st6" d="M362.2 358.9c8.3 5.4 14 13 18.7 21.6 1.1 1.9 1.1 4.1 1 6.3 0 11-.4 22 .1 33 .3 6.6-2.3 11.7-6.1 16.4-14.6 18.6-33.7 28.6-57.5 29.1-8.2.1-16.3.2-24.5 0-21.8-.7-39.7-9.6-53.8-26.2-.6-.8-1.4-1.4-2.1-2.1-.8-.7-.6-1.4.1-2 2.2-.2 3.3 1.4 4.4 2.8 14.6 16.7 33.3 24.5 55.1 24.9 11.4.2 22.9.9 34.3-1.8 17.7-4.1 32.3-13 42.8-28.1 2.6-3.8 4-7.9 3.9-12.6-.2-9.6-.6-19.3.1-29 .6-9.2-3.4-15.9-9.2-22.2-3-3.2-7.1-5.5-8.8-9.9.6-.6 1-.6 1.5-.2z" id="path121" fill="#82919e"></path><path class="st7" d="M237.9 435c.1.6.1 1.3.2 1.9-4.8-4-7.8-9.1-8-15.2-.4-11.5 0-23-.2-34.4-.1-4.5 2.1-8.1 4.3-11.5 11.2-17.2 27.1-27.4 47.1-32 14.7-3.4 29.5-1.8 44.2-1.4 8 .3 16.7 2 23.5 7.7-4.3 1.6-7.6-1.6-11.3-2.4-6.6-1.5-13.2-3.4-20-3.2-12.1.3-24.2-1.2-36.2 1.9-1.4.4-2.9.6-4.3 1.2-14.7 4.7-27.3 12.6-37 24.9-4.7 5.3-7.3 11.2-6.9 18.5.5 9.8.1 19.6.1 29.4 0 2.7.3 5.3 1.4 7.8.3.4.5.9.8 1.3.7 1.7 1.7 3.3 2.4 5.1-.1 0-.1.2-.1.4z" id="path123" fill="#e5e8eb"></path><path d="M275.9 347c5-3.2 10.8-3.6 16.2-3.7 13.4-.2 26.9-1.4 40.2 1.5 5.7 1.3 11 3.7 16.5 5.2 4.5 2.8 9.6 4.7 13.3 8.8-.4.1-.9.1-1.3.2-1.8.5-3.2-.6-4.6-1.5-13.8-8.8-29.1-11.7-45.1-12.1-10.1-.3-20.2.5-30.2 2.3-1.6.3-3.4.8-5-.7z" id="path125" fill="#919eaa"></path><path d="M394 422c.4 0 .8.1 1.2.1-.9 1.5-2.5 2.2-4.1 2.7-2.5.8-4.2.1-4.2-3 .1-11.8 0-23.6 0-35.5 0-1.3-.2-2.9 1.4-3.3 2.2-.5 4.3-.4 5.6 1.9-4.2-1.7-5.3-.2-5.2 4.1.3 9.9.1 19.9.1 29.8.2 5.5.2 5.5 5.2 3.2z" id="path127" fill="#8e9ca8"></path><path class="st10" d="M234.3 328.8c2.5-.2 4.3.9 4.5 3.5.2 2.7-4 6.5-7.1 6.6-2.5.1-4.2-1.1-4.4-3.7-.3-2.8 3.7-6.3 7-6.4z" id="path129" fill="#6e808f"></path><path class="st11" d="M240.9 341.1c0 .3.1.5.1.8 1.8 2.8 4.5 4.8 6.7 7.3 1.1 1.2 2.8 2 2.6 4-1.4 2-2.2 4.8-5.6 3.8-2.8-3.9-5-8.2-7.5-12.3-.7-1.2-1.3-2.5-.3-3.7 1.2-1.1 2.7-1.1 4 .1z" id="path131" fill="#6d7f8e"></path><path class="st12" d="M383.8 340c-4.4.1-9.9-4.3-9.4-7.8.4-2.9 2.5-5 5.8-5.1 3.9-.2 8.9 4.2 8.7 7.9-.1 3-1.5 5.3-5.1 5z" id="path133" fill="#eceef0"></path><path class="st12" d="M367 357c-4.1-2.5-5.1-4.9-1.1-8.7 2.4-2.3 4.3-5.3 7-7.5 1.9-1.5 4.2-3.2 6.1.2-.3.3-.7.6-1.1.9-4.5 1.7-7.1 5.7-10.3 8.9-1.6 1.6-.3 3.4 0 5.1-.1.4-.3.8-.6 1.1z" id="path135" fill="#eceef0"></path><path d="M240.9 341.1c-3.3-.4-5 .2-2.7 3.9 2.4 3.9 4.6 7.9 6.9 11.9-.3.5-.8.6-1.2.2-2.5-4-5.1-8-7.4-12.1-.9-1.6-1.3-3.5.6-4.9 1.7-1.2 3.1-1.2 3.8 1z" id="path137" fill="#d8dde0"></path><path d="M377.8 341.1c.4 0 .8-.1 1.2-.1-.1 6.7-4.9 11.1-8 16.2-1 1.6-2.7.4-4.1-.2 0-.4.1-.8.1-1.2 3.7-1.2 4.8-4.6 6.5-7.5 1.5-2.4 2.7-4.9 4.3-7.2z" id="path139" fill="#d6dbdf"></path><path d="M250 352.9c-2.4-4.1-7.5-6-8.9-10.9 3.3 3 6.5 6.1 9.8 9.1.6.4.8.9.4 1.6-.4.5-.9.3-1.3.2z" id="path141" fill="#8d9ba7"></path><path class="st7" d="M250 352.9c1-.3.8-1.1.9-1.8 2.4 1.9.5 3.1-.7 4.3-1.7 1.7-3.3 4.1-6.2 1.7.4-.1.8-.1 1.2-.2 2.6-.2 3.4-2.4 4.8-4z" id="path143" fill="#e5e8eb"></path><path d="M275.9 347c12.4-2.1 24.9-3.3 37.5-2.9 17.2.6 33.4 4.5 47.5 14.9 3.8 3.7 8 7.1 11.5 11.1 4.9 5.7 8.4 11.9 7.8 20.3-.8 9.9-.4 20-.1 30 .1 4.6-.9 8.5-3.4 12.1-9 13.5-21.3 22.7-36.7 27.5-20 6.2-40.5 5.7-60.5 1.6-15.2-3.1-28.4-11-38.2-23.7-.9-1.2-1.8-2.4-3.4-2.9-1.1-1.6-1.6-3.6-3-5-1.5-2.3-1.9-4.9-1.9-7.6 0-12.1.1-24.3 0-36.4-.1-6.2 4.1-10.3 7-15.1 9.3-12 21.3-19.9 35.9-23.9z" id="path145" fill="#5e7283"></path><path class="st6" d="M239.9 370.9c0 .3.1.8-.1 1-6.5 7.2-6.2 16-5.9 24.9.2 8 .1 16 0 24 0 3.2.2 6.3 1 9.3-2.7-1.9-2.8-4.7-2.8-7.5-.1-12.3-.2-24.5 0-36.8.1-6.1 3.6-10.8 7.8-14.9z" id="path147" fill="#82919e"></path><path class="st6" d="M234.9 430.1c2.2 1 2.8 2.9 3 5-1.8-1.2-2.7-2.9-3-5z" id="path149" fill="#82919e"></path><path class="st11" d="M387.2 334.1c.2 2.9-.9 4.4-3.3 4.6-3 .4-7-3.3-7.1-6.3-.1-2.5 1.1-3.6 3.6-3.6 3.8.2 6 2.1 6.8 5.3z" id="path151" fill="#6d7f8e"></path><path d="M377.8 341.1c-.6 5.9-4.9 10-7.5 14.9-.7 1.3-2.1-.2-3.2-.2-2.8-2.4-2.6-4.7.3-6.7 3.6-2.5 4.9-8 10.4-8z" id="path153" fill="#6b7d8d"></path><path class="st18" d="M288 447.1c-10.5-1.7-20.8-3.9-29.8-10.1-4.4-9.3-5.8-19.1-5.5-29.2.2-6.9 1.6-13.7 3.9-20.3 1-2.9 2.2-6 6.3-5.7.6.8.3 1.6-.1 2.3-9 15.8-7.4 32.2-2.9 48.7.8 3 3.4 4.4 6.1 5.5 8.5 3.6 17.4 5.4 26.5 6.4 3.4.4 3.4.4 4.3 2.8-3-.1-6 .4-8.8-.4z" id="path155" fill="#c5ccd2"></path><path d="M341 376c3.8 1.4 7.7 2.7 11.5 4.3 7.3 3.1 8.4 10.2 9.2 16.5 1.4 11.2 1.9 22.6-1.6 33.8-1 3.1-2.4 5.8-4.2 8.4-.8.6-1.5.6-2.2-.1.4-3.9 3.1-6.9 3.9-10.6 2.6-11.4 2.5-22.6.4-34-1.4-7.2-5.1-11.6-12.1-13.5-2-.6-4.3-.9-5.4-3.2 0-.6.1-1.1.5-1.6z" id="path157" fill="#7d8d9a"></path><path class="st10" d="M263 382c-7 1.4-6.6 7.8-7.7 12.5-3.4 14.3-1.9 28.5 2.9 42.4-2.9-.8-2.2-3.5-2.8-5.4-3.3-11-5-22.1-2-33.6 1-3.6 1.2-7.4 2.6-11 1.4-3.8 3.6-6.6 8-6.9.3.3.3.6.3 1-.3.6-.7.9-1.3 1z" id="path159" fill="#6e808f"></path><path d="M264 381.1V380c1.2-1.1 2.7-1.3 4.1-2 8.2-2.2 16.3-4.6 24.9-5.1 10-.7 20.1-.7 30.1 0 2.3.4 4.6.7 6.9 1.1.3.6.2 1.1-.4 1.5-2 1.1-4.2 1-6.3.8-18.5-1.8-36.7-1.3-54.5 4.9-1.6.6-3.2 1.1-4.8-.1z" id="path161" fill="#919faa"></path><path class="st21" d="M288 447.1c3 0 6.1-.1 9.1-.1 1.4-1.4 3.1-1.1 4.8-.9 3.8.9 7.5.9 11.3 0 1.4-.3 2.9-.5 4.3-.4 3.2.5 6.7-1 9.6 1.5-13.1 2.6-26.1 2.4-39.1-.1z" id="path163" fill="#96a3ae"></path><path d="M353.8 438.9c.7 0 1.5.1 2.2.1-5.9 3.5-12.1 6.2-19.1 6.9-.3-.5-.3-1 0-1.5 5.4-2.5 10.6-5.8 16.9-5.5z" id="path165" fill="#738493"></path><path class="st23" d="M323 373h-30.1c6.7-2 13.7-.6 20.5-.8 3.2-.2 6.6-1.1 9.6.8z" id="path167" fill="#7e8e9b"></path><path class="st23" d="M330 375v-1c3.9-.6 7.4 1 11 2v1.1c-4.2 2-7.8.7-11-2.1z" id="path169" fill="#7e8e9b"></path><path class="st18" d="M327.1 447.1c-3.4 0-6.7-.1-10.1-.1 0-1 .6-1.7 1.4-1.8 4.7-.5 9.4-2.2 14.2-.8 1.3 1.3.4 1.8-.9 2-.9.2-1.9-.1-2.7.5-.7.1-1.3.1-1.9.2z" id="path171" fill="#c5ccd2"></path><path class="st21" d="M329 447c1.3-.7 2.7-1.3 4-2 1.3-1.1 2.6-1.1 3.9-.1v1.1c-2.7.1-5.1 1.6-7.9 1z" id="path173" fill="#96a3ae"></path><path class="st10" d="M268.1 378.1a6.94 6.94 0 0 1-4.1 2c.8-1.9 2.3-2.2 4.1-2z" id="path175" fill="#6e808f"></path><path d="M336.9 444.9c-1.3 0-2.6.1-3.9.1-5.4.4-10.8.7-16 1.9-1.3 0-2.6 0-4 .1-3.7.8-7.3.8-11 0-1.6 0-3.3-.1-4.9-.1-8.2-1.8-16.7-1.9-24.7-4.8-.8-.3-1.6-.5-2.4-.7-13.5-2.6-13.6-13.8-14.7-23.8-.9-8-.4-16.2 1.6-24.2 1.1-4.5 2.7-8.4 6.1-11.5.3-.3.7-.6 1.1-.9 4.4-1.3 8.7-2.9 13.2-3.9 15.3-3.5 30.7-4.2 46.3-2.3 2.1.3 4.3.1 6.4.1 3.7.7 7.1 2.3 11 2.2 2.9 2.2 6.5 2.4 9.6 3.9 3.7 1.7 6.3 3.9 7.5 8 4.1 14.3 4.1 28.5 0 42.8-.8 2.8-2.2 5.2-4.3 7.1-5.6 2-11.2 4-16.9 6z" id="path177" fill="#fefefe"></path><path class="st18" d="M302 447h11c-3.7 1.5-7.3 1.4-11 0z" id="path179" fill="#c5ccd2"></path><path d="M264 410.8c0-5.7.7-11.3 3.1-16.5 1.8-4 4.2-4.3 6.9-.9 10.4 13.2 20.7 26.4 31 39.6.9 1.1 2.5 2.2 1.8 3.8-.9 2-2.9 1.1-4.5 1.1-8.3 0-16.4-1.9-24.4-3.9-10.3-2.6-13.1-10.1-13.9-19.3-.1-1.2 0-2.6 0-3.9z" id="path181" fill="#7bdae3"></path><path d="M323 436.9c-11.8-15-23.7-29.9-35.3-45-1.2-1.6-4.8-3.9-1.4-6 2.5-1.6 6.2-2.2 8.9 1.3 9.4 12.2 19 24.3 28.6 36.4 1.4 1.8 2.9 3.6 4.3 5.5.8 2.1 4.4 3.1 3.2 5.6-1.3 2.9-4.8 2.2-7.4 2.8-.3 0-.6-.3-.9-.6z" id="path183" fill="#7cdbe3"></path><path d="M323 436.9c8-1.2 8-1.2 4.9-7.9 1.1 1 2.4 1.8 3.3 2.9 2.6 2.9 2.1 4.6-1.9 5.1-1.9.2-4.2 2.4-6.3-.1z" id="path185" fill="#cbf0f3"></path><path d="M266.8 404.1v13.7h-.5v-13.5c.2 0 .3-.1.5-.2z" id="path187" fill="#75d9e2"></path></g></g></svg>