<?xml version="1.0" encoding="UTF-8" standalone="no"?>
<!-- Generator: Adobe Illustrator 22.1.0, SVG Export Plug-In . SVG Version: 6.00 Build 0)  -->

<svg
   xmlns:dc="http://purl.org/dc/elements/1.1/"
   xmlns:cc="http://creativecommons.org/ns#"
   xmlns:rdf="http://www.w3.org/1999/02/22-rdf-syntax-ns#"
   xmlns:svg="http://www.w3.org/2000/svg"
   xmlns="http://www.w3.org/2000/svg"
   xmlns:sodipodi="http://sodipodi.sourceforge.net/DTD/sodipodi-0.dtd"
   xmlns:inkscape="http://www.inkscape.org/namespaces/inkscape"
   version="1.1"
   id="Layer_1"
   x="0px"
   y="0px"
   viewBox="0 0 48 30"
   xml:space="preserve"
   width="48"
   height="30"
   sodipodi:docname="pcloud.svg"
   inkscape:version="0.92.4 (5da689c313, 2019-01-14)"><metadata
   id="metadata50"><rdf:RDF><cc:Work
       rdf:about=""><dc:format>image/svg+xml</dc:format><dc:type
         rdf:resource="http://purl.org/dc/dcmitype/StillImage" /><dc:title></dc:title></cc:Work></rdf:RDF></metadata><defs
   id="defs48" /><sodipodi:namedview
   pagecolor="#ffffff"
   bordercolor="#666666"
   borderopacity="1"
   objecttolerance="10"
   gridtolerance="10"
   guidetolerance="10"
   inkscape:pageopacity="0"
   inkscape:pageshadow="2"
   inkscape:window-width="1920"
   inkscape:window-height="1017"
   id="namedview46"
   showgrid="false"
   fit-margin-top="0"
   fit-margin-left="0"
   fit-margin-right="0"
   fit-margin-bottom="0"
   inkscape:zoom="17.416667"
   inkscape:cx="24"
   inkscape:cy="15"
   inkscape:window-x="-8"
   inkscape:window-y="-8"
   inkscape:window-maximized="1"
   inkscape:current-layer="Layer_1" />
<g
   id="g31"
   transform="translate(0,-9)">
</g>
<path
   style="fill:#00bcd4"
   d="M 9,15 C 9,15 8.742,14.039 8.742,12.711 8.742,11.118 9.073,8.747 10,7.11 4.36,7.847 0,12.658 0,18.5 0,24.851 5.149,30 11.5,30 17.851,30 40,30 40,30 V 15 Z"
   id="path33"
   inkscape:connector-curvature="0" />
<circle
   style="fill:#00bcd4"
   cx="24"
   cy="15"
   r="15"
   id="circle35" />
<path
   style="fill:#ffffff"
   d="M 24,27 C 17.383,27 12,21.617 12,15 12,8.383 17.383,3 24,3 30.617,3 36,8.383 36,15 36,21.617 30.617,27 24,27 Z M 24,5 C 18.486,5 14,9.486 14,15 14,20.514 18.486,25 24,25 29.514,25 34,20.514 34,15 34,9.486 29.514,5 24,5 Z"
   id="path37"
   inkscape:connector-curvature="0" />
<path
   style="fill:#ffffff"
   d="M 20.5,22 C 19.671,22 19,21.328 19,20.5 v -10 C 19,9.672 19.671,9 20.5,9 h 5 c 2.481,0 4.5,2.019 4.5,4.5 0,2.481 -2.019,4.5 -4.5,4.5 H 22 v 2.5 C 22,21.328 21.329,22 20.5,22 Z M 22,15 h 3.5 C 26.327,15 27,14.327 27,13.5 27,12.673 26.327,12 25.5,12 H 22 Z"
   id="path39"
   inkscape:connector-curvature="0" />
<path
   style="fill:#00bcd4"
   d="M 45,13.5 C 45,9.91 42.09,7 38.5,7 38.289,7 38.206,6.98 38,7 c 0.028,0.053 -0.002,-0.003 0,0 0.929,1.637 1.258,4.117 1.258,5.711 C 39.258,14.039 39,15 39,15 v 4.975 c 3.355,-0.256 6,-3.054 6,-6.475 z"
   id="path41"
   inkscape:connector-curvature="0" />
<path
   style="fill:#00bcd4"
   d="M 45.551,16.25 C 44.665,18.165 42.544,19 41.962,19 40.919,19 39,19 39,19 v 11 c 0.317,-0.023 0.646,0 1,0 4.418,0 8,-3.582 8,-8 0,-2.26 -0.941,-4.297 -2.449,-5.75 z"
   id="path43"
   inkscape:connector-curvature="0" />
</svg>