<svg xmlns="http://www.w3.org/2000/svg" viewBox="0 0 48 30" width="48" height="30"><path d="M9 15s-.258-.961-.258-2.289c0-1.593.331-3.964 1.258-5.601-5.64.737-10 5.548-10 11.39C0 24.851 5.149 30 11.5 30H40V15z" fill="#00bcd4"></path><circle cx="24" cy="15" r="15" fill="#00bcd4"></circle><path d="M24 27c-6.617 0-12-5.383-12-12S17.383 3 24 3s12 5.383 12 12-5.383 12-12 12zm0-22c-5.514 0-10 4.486-10 10s4.486 10 10 10 10-4.486 10-10S29.514 5 24 5z" fill="#fff"></path><path d="M20.5 22a1.5 1.5 0 0 1-1.5-1.5v-10A1.5 1.5 0 0 1 20.5 9h5c2.481 0 4.5 2.019 4.5 4.5S27.981 18 25.5 18H22v2.5a1.5 1.5 0 0 1-1.5 1.5zm1.5-7h3.5c.827 0 1.5-.673 1.5-1.5s-.673-1.5-1.5-1.5H22z" fill="#fff"></path><path d="M45 13.5A6.5 6.5 0 0 0 38.5 7c-.211 0-.294-.02-.5 0 .028.053-.002-.003 0 0 .929 1.637 1.258 4.117 1.258 5.711C39.258 14.039 39 15 39 15v4.975a6.497 6.497 0 0 0 6-6.475z" fill="#00bcd4"></path><path d="M45.551 16.25c-.886 1.915-3.007 2.75-3.589 2.75H39v11c.317-.023.646 0 1 0a8 8 0 0 0 8-8 7.96 7.96 0 0 0-2.449-5.75z" fill="#00bcd4"></path></svg>