<svg xmlns="http://www.w3.org/2000/svg" xmlns:xlink="http://www.w3.org/1999/xlink" version="1.1" id="图层_1" x="0" y="0" viewBox="0 0 141 140.6" xml:space="preserve" width="141" height="140.6"><style type="text/css" id="style2">.st1{fill:#cc6fff}.st2{fill:#b227ff}</style><g id="g30" transform="translate(-225.7 -104.9)"><g id="g18"><defs id="defs5"><path id="SVGID_1_" d="M349.7 245.9h-107c-9.4 0-17-7.6-17-17v-107c0-9.4 7.6-17 17-17h107c9.4 0 17 7.6 17 17v107c0 9.4-7.6 17-17 17z"></path></defs><clipPath id="SVGID_2_"><use xlink:href="#SVGID_1_" id="use7" x="0" y="0" width="100%" height="100%" overflow="visible"></use></clipPath><g clip-path="url(#SVGID_2_)" id="g16"><path class="st1" d="M251.7 240.9l-22.8-106.2c-.4-1.9-3.3-1.6-3.3.3v110.4H248c2.4.1 4.2-2.1 3.7-4.5z" id="path10" fill="#cc6fff"></path><path class="st1" d="M305.5 245.5h60.4v-38.9c0-2.4-2.6-3.8-4.6-2.4l-56.7 38.1c-1.5.9-.8 3.2.9 3.2z" id="path12" fill="#cc6fff"></path><path class="st1" d="M366.7 155.1v-50.3h-86.2c-3.5 0-4.8 4.7-1.7 6.5l82.7 46.8c2.3 1.3 5.2-.3 5.2-3z" id="path14" fill="#cc6fff"></path></g></g><path class="st2" d="M266.4 241.1l10.9-8.1c.8-.6 1.1-1.7.6-2.6l-4.5-9c-.4-.9-.2-2 .6-2.6l21.2-16.5c.9-.7 1.1-1.9.4-2.9l-8.8-12.8c-.7-1-2-1.2-3-.5l-28 20.5c-.7.5-1 1.4-.8 2.2l8 31c.5 1.6 2.2 2.2 3.4 1.3z" id="path20" fill="#b227ff"></path><path class="st2" d="M309.2 220.2L295 230.3c-1.2.8-2.8.6-3.6-.6l-4.8-6.7c-.8-1.2-.6-2.8.6-3.6l14.1-10.1c1.2-.8 2.8-.6 3.6.6l4.8 6.7c.9 1.2.6 2.8-.5 3.6z" id="path22" fill="#b227ff"></path><path class="st2" d="M319.7 216.1l-14.1-17.6c-.9-1.1-.7-2.7.4-3.6l6.4-5.1c1.1-.9 2.7-.7 3.6.4l14.1 17.6c.9 1.1.7 2.7-.4 3.6l-6.4 5.1c-1.1.9-2.7.7-3.6-.4z" id="path24" fill="#b227ff"></path><path class="st2" d="M334.2 194.7l-27.4-36c-1.2-1.5-.9-3.7.5-4.9l5.7-4.8c1.1-1 2.8-1.1 4.1-.4l44.1 24.5c2.3 1.3 2.5 4.5.4 6.1l-22.4 16.3c-1.6 1.1-3.8.8-5-.8z" id="path26" fill="#b227ff"></path><path class="st2" d="M239.2 116l18.7 73.6c.6 2.5 3.7 3.6 5.7 1.9l21.4-16.9c1.2-1 3-1 4.3-.1l1 .7c1.4.9 3.2.8 4.4-.2l5.1-4.4c1.5-1.3 1.7-3.4.5-4.9L289.7 152c-1.2-1.5-1-3.7.5-4.9l3.2-2.8c1.8-1.6 1.6-4.4-.4-5.7l-44.4-29.1c-4.8-3.3-10.8 1-9.4 6.5z" id="path28" fill="#b227ff"></path></g></svg>