<svg xmlns="http://www.w3.org/2000/svg" xmlns:xlink="http://www.w3.org/1999/xlink" width="575.026" height="540.709"><defs><linearGradient id="prefix__b"><stop offset="0" stop-color="#669"/><stop offset="1" stop-color="#fff"/></linearGradient><linearGradient id="prefix__a"><stop offset="0" stop-color="#f90"/><stop offset="1" stop-color="#fff"/></linearGradient><linearGradient xlink:href="#prefix__a" id="prefix__g" x1="962.807" y1="487.914" x2="239.323" y2="-422.628" gradientUnits="userSpaceOnUse"/><linearGradient xlink:href="#prefix__b" id="prefix__c" x1="996.753" y1="572.643" x2="-635.195" y2="-1226.594" gradientUnits="userSpaceOnUse"/><linearGradient xlink:href="#prefix__a" id="prefix__h" gradientUnits="userSpaceOnUse" x1="962.807" y1="487.914" x2="239.323" y2="-422.628"/><linearGradient xlink:href="#prefix__a" id="prefix__i" gradientUnits="userSpaceOnUse" x1="962.807" y1="487.914" x2="239.323" y2="-422.628"/><linearGradient xlink:href="#prefix__a" id="prefix__j" gradientUnits="userSpaceOnUse" x1="962.807" y1="487.914" x2="239.323" y2="-422.628"/><linearGradient xlink:href="#prefix__a" id="prefix__k" gradientUnits="userSpaceOnUse" x1="962.807" y1="487.914" x2="239.323" y2="-422.628"/><linearGradient xlink:href="#prefix__b" id="prefix__d" gradientUnits="userSpaceOnUse" x1="996.753" y1="572.643" x2="-635.195" y2="-1226.594"/><linearGradient xlink:href="#prefix__b" id="prefix__e" gradientUnits="userSpaceOnUse" x1="996.753" y1="572.643" x2="-635.195" y2="-1226.594"/><linearGradient xlink:href="#prefix__b" id="prefix__f" gradientUnits="userSpaceOnUse" x1="996.753" y1="572.643" x2="-635.195" y2="-1226.594"/></defs><g fill-opacity="0" stroke="#000" stroke-width="3.834" stroke-linejoin="round" stroke-opacity=".851" fill="none"><path d="M552.694 387.276c10.718-1.278 17.603-3.578 20.415-6.898L465.167 393.65h-.767L26.986 446.735h-.256c.512 22.97 10.464 40.575 30.624 53.594 5.365 3.564 10.974 6.375 16.082 8.164 4.588-5.366 10.21-9.698 16.586-13.273h.255c57.17-34.699 142.142-40.066 254.43-16.584l1.274.511c12.255 2.55 24.25 5.609 35.733 8.931 3.565.51 6.376-.257 8.676-2.301 4.076-3.066 9.186-5.352 16.072-7.141v-.256h0c17.873-32.155 42.62-55.894 73.242-71.199 21.183-10.72 45.431-17.357 72.99-19.905zM149.735 88.44c-.255-.256-.51-.51-1.01-.51-.513 0-.768 0-1.022.254-.257.256-.51.768-.767 1.277l-20.415 331.493v.256h0c.256-.256.51-.256.51-.256s.257-.252.511-.252c.77 0 1.268 0 2.033.252l20.671-331.493c0-.256-.254-.765-.51-1.021zM322.001 6.523c-.256-.257-.512-.768-1.02-.768-.513 0-.769.511-1.278.511a1.952 1.952 0 0 0-.513 1.277L297.5 400.286h2.043c.254 0 .254 0 .511-.259v-.246h.512l21.181-382.03h0v-.511-.256h.256l-.256-.255h.256l-.256-.257c0-.254 0-.254.256-.511-.256 0-.256 0-.256-.257h0v-.252h.256c-.256 0-.256 0-.256-.257h.256l.255-7.653c-.002-.51-.002-.764-.257-1.019z"/><g><path d="M371.252 245.388l-1.277-2.299-55.127-97.236c26.547 55.128 36.243 138.066 29.092 249.076l104.632-12.764zM290.357 396.972l25.001-383.053c-36.487 139.854-94.424 270.257-174.297 391.473zM120.645 414.065h0l21.947-323.581L26.73 423.764zM322.757 16.219h0l-.246.254h0v.257h0v.255h0v.256h0v.511l-.255.257h.255v.254h0v.256h0l26.794 44.396-2.813-4.075h0c18.883 55.369 26.803 114.84 23.738 177.611h0v.251l.254.256c.257.512.768.766 1.021 1.277 0 0 0 .256.256.512l24.75 43.642c.253.256.253.511.253 1.023h.257c.511.251.511.508 1.021.765 37.767 33.178 80.64 55.627 127.86 67.366l11.478 18.628c.504 0 1.017 0 1.271.509.256-.254.256-.509.512-.509z"/></g></g><path d="M369.62 241.443l1.278 2.3z"/><g transform="translate(-423.998 -65.796)" fill="url(#prefix__c)"><path d="M976.338 451.426c10.718-1.278 17.603-3.578 20.415-6.898L888.81 457.8h-.767L450.63 510.885h-.256c.512 22.97 10.464 40.575 30.624 53.594 5.365 3.564 10.974 6.375 16.082 8.164 4.588-5.366 10.21-9.698 16.586-13.273h.255c57.169-34.7 142.142-40.066 254.429-16.584l1.275.51c12.255 2.55 24.25 5.61 35.733 8.932 3.565.51 6.376-.257 8.676-2.301 4.076-3.066 9.186-5.352 16.072-7.141v-.256c17.873-32.155 42.62-55.894 73.242-71.2 21.183-10.72 45.43-17.356 72.99-19.904z" fill="url(#prefix__d)"/><path d="M573.379 152.59c-.255-.256-.511-.51-1.011-.51-.512 0-.767 0-1.021.254-.257.256-.511.768-.767 1.277l-20.415 331.493v.256c.256-.256.51-.256.51-.256s.257-.252.51-.252c.77 0 1.269 0 2.034.252l20.67-331.493c0-.256-.253-.765-.51-1.021z" fill="url(#prefix__e)"/><path d="M745.645 70.673c-.256-.257-.512-.768-1.021-.768-.512 0-.768.51-1.277.51a1.952 1.952 0 0 0-.513 1.278l-21.69 392.743h2.043c.254 0 .254 0 .51-.26v-.245h.513L745.39 81.9v-.511-.256h.257l-.256-.255h.256l-.256-.257c0-.254 0-.254.256-.511-.256 0-.256 0-.256-.257v-.252h.256c-.256 0-.256 0-.256-.257h.256l.255-7.653c-.002-.51-.002-.764-.257-1.02z" fill="url(#prefix__f)"/></g><path d="M322.157 14.06v.257h.246z"/><path fill="none" d="M464.812 392.004h-.766M369.62 241.443l1.278 2.3"/><g fill="none" stroke="#00002b" stroke-width="1.2" stroke-linecap="round" stroke-linejoin="round"><path d="M192.51 516.288c-5.352-2.045-11.228-3.323-17.347-3.834-12.51-.767-27.56 4.088-45.177 14.552C112.38 537.47 91.2 541.802 65.94 539.514M124.888 514.243c-28.834 13.785-50.016 16.084-63.033 7.4-13.273-8.934-33.69-6.634-61.247 6.385M349.972 490.261C228.5 465.25 140.962 471.114 87.37 508.123M426.524 502.247c-5.354-2.034-11.23-3.31-17.351-3.819-12.506-1.022-27.557 3.82-45.171 14.282-17.607 10.72-38.791 14.81-64.048 12.763"/></g><g><g transform="translate(-423.998 -65.796)" fill="url(#prefix__g)"><path d="M794.896 309.538l-1.277-2.3-55.127-97.235c26.547 55.128 36.243 138.066 29.092 249.076l104.632-12.764z" fill="url(#prefix__h)"/><path d="M714 461.122l25.002-383.053c-36.487 139.854-94.424 270.257-174.297 391.473z" fill="url(#prefix__i)"/><path d="M544.289 478.215l21.947-323.581-115.862 333.28z" fill="url(#prefix__j)"/><path d="M746.4 80.369l-.245.254V81.9l-.255.258h.255v.51l26.794 44.396-2.813-4.075c18.883 55.369 26.803 114.84 23.738 177.61v.252l.254.256c.257.512.768.766 1.02 1.277 0 0 0 .256.257.512l24.749 43.642c.254.256.254.51.254 1.023h.257c.51.25.51.508 1.02.765 37.768 33.178 80.64 55.627 127.86 67.366l11.479 18.628c.504 0 1.017 0 1.27.509.257-.254.257-.51.513-.51z" fill="url(#prefix__k)"/></g></g><g fill="none" stroke="#000" stroke-width="2.9" stroke-linecap="round" stroke-linejoin="round"><path d="M250.01 29.589c-7.626-4.833-15.728-3.585-23.829 3.735-7.165-7.32-14.797-8.568-22.58-3.735M232.723 3.423c-7.788-4.67-15.421-2.963-23.204 5.606-7.632-8.569-15.422-10.277-23.21-5.606" stroke-width="1.769841"/><g stroke-opacity=".481"><path d="M249.69 30.81c-7.626-4.834-15.728-3.585-23.829 3.734-7.164-7.32-14.797-8.568-22.58-3.735M232.404 4.644c-7.789-4.67-15.422-2.963-23.204 5.605-7.633-8.568-15.422-10.276-23.21-5.605" stroke-width="1.769841"/></g></g></svg>