<svg xmlns="http://www.w3.org/2000/svg" version="1.1" id="图层_1" x="0" y="0" viewBox="0 0 226.563 193.351" xml:space="preserve" width="226.563" height="193.351"><style type="text/css" id="style143">.st0{fill:#6a3906}.st1{fill:#fff}</style><g id="g163" transform="translate(-40.595 -.049)"><path class="st0" d="M83.7 38.8z" id="path145" fill="#6a3906"></path><path class="st0" d="M264.3 57.1c-1.5-1.6-5.6-4.9-12.9-2.2-1.1.4-2 .7-2.8 1C233.5 23.7 201.6 2 166.2.2c-30.8-1.7-59.7 11-79.4 34.8-.2.2-.3.3-.4.5-.8 1-1.6 2-2.4 3.1-.1.1-.1.2-.2.2-.1.1-.2.3-.3.4-.7 1-1.5 2-2.2 3.1-2.5-2.1-5.6-3.5-8.9-4.1-5.1-.9-10.2.2-14.4 3.2-4.9 3.4-7.8 8.9-8.1 14.7-.4.2-.7.5-1.1.7-4.2 2.9-7 7.3-7.9 12.4-.9 5.1.2 10.2 3.2 14.4 2.9 4.2 7.4 7 12.4 7.9 2.8.5 5.5.4 8.2-.3 0 .9-.1 1.8-.1 2.7v6c0 1.4.1 2.8.2 4.2l.2 1.9c.1.7.1 1.4.2 2.1 1.1 9.3 3.5 18.3 7.1 26.7-3.7 3.6-5.5 8.6-4.8 13.8.4 3.1 1.6 5.9 3.5 8.3l.2.3 12 14.7c2.8 3.4 6.7 5.5 11 6 3.8.4 7.5-.5 10.6-2.6 16.3 11.7 36.2 18.1 56.3 18.1h2.5c17.7-.5 34.7-5.7 49.6-15.2 5.4 3.6 12.5 3.7 18.1 0 .5-.3.9-.6 1.4-1 .5-.4 1-.9 1.5-1.4l13.3-14c3-3.2 4.6-7.3 4.5-11.7-.1-3.9-1.6-7.6-4.2-10.5 7.8-15.8 11.2-33.5 9.6-51.3-.1-1.3-.3-2.7-.4-4.1 3.8-3.9 6.5-7.5 8-10.8 3.9-8.7 1.8-13.6-.7-16.3z" id="path147" fill="#6a3906"></path><path class="st1" d="M225.1 165.7c-.9.9-.8 2.4.1 3.2l1.8 1.7c.3-.2.7-.5.9-.8l1.9-2 .4-.4-2-1.8c-.8-.9-2.2-.8-3.1.1z" id="path149" fill="#fff"></path><path class="st1" d="M81.9 151.9c1-.8 1.2-2.2.4-3.2-.8-1-2.2-1.2-3.2-.4l-2 1.5-.4.3c-.2-.4-.4-.8-.5-1.2.3.9.7 1.8 1.3 2.5l.2.3 1.7 2.1.3-.2c.1-.1 2.2-1.7 2.2-1.7z" id="path151" fill="#fff"></path><path class="st1" d="M77.3 74.9c2.1-10.6 6.9-19.4 12.6-24.2 3.6-3.1 7.5-4.5 11.3-3.8 9.7 1.9 14.8 17.6 11.3 35s-14.2 29.9-23.9 28c-6.8-1.4-11.3-9.5-12.2-20.2-.4-4.6-.2-9.6.9-14.8zm11.5 45.6c12.6 2.5 26.4-13.7 30.9-36.1 4.5-22.5-2.1-42.7-14.6-45.3-2.6-.5-5.2-.2-7.9.8-.2.1-.3.1-.5.2-2.1.9-4.2 2.2-6.3 3.9-8.7 11.6-14.6 25.5-16.7 40.8-.4 3.2-.7 6.4-.8 9.6 1.2 13.8 7.1 24.3 15.9 26.1z" id="path153" fill="#fff"></path><path d="M254.4 62.8c-4.2 1.5-7.4 2.5-11.2 1.7-12.4-31.4-42.3-54.1-77.3-55.9-29.6-1.5-55.9 11.4-73 32.2-.8.9-1.6 1.9-2.3 2.9-.1.1-.1.2-.2.2 2-1.7 4.1-3 6.3-3.9.2-.1.3-.1.5-.2 2.6-1 5.3-1.3 7.9-.8 12.6 2.5 19.1 22.8 14.6 45.3-4.5 22.5-18.3 38.7-30.9 36.1-8.8-1.7-14.7-12.2-15.8-26v5.1c0 1.3.1 2.6.2 3.9 0 .6.1 1.2.2 1.7.1.6.1 1.3.2 1.9 1.2 10 4 19.5 8.2 28.2.5 1.1.3 2.4-.7 3.2l-2.4 2c-2.2 1.8-3.2 4.5-2.8 7.2.1.4.2.9.3 1.3v.1c.1.4.3.8.5 1.2l.4-.3 2-1.5c1-.8 2.4-.6 3.2.4.8 1 .6 2.4-.4 3.2l-2.1 1.6-.3.2 10.3 12.6c2.7 3.4 7.8 3.9 11.1 1.2l2.2-1.8c1-.8 2.3-.8 3.3 0 15.6 12.4 35.5 19.6 57 19 18.2-.5 34.9-6.4 48.7-16.2 1-.7 2.4-.6 3.3.2l1.4 1.4c2.7 2.6 6.8 2.8 9.8.9.2-.1.3-.2.5-.3l-1.8-1.7c-.9-.9-1-2.3-.1-3.2.9-.9 2.3-1 3.2-.1l2 1.8 11-11.6c3-3.2 2.9-8.2-.3-11.2l-2.3-2.2c-.9-.8-1-2.1-.5-3.2 8.2-14.8 12.3-32.1 10.7-50.4-.2-2.6-.6-5.3-1-7.8 2.6-2.4 7.5-7.2 9.3-11.3 2-4.5 2.5-9.1-2.9-7.1z" id="path155" fill="#ff9a75"></path><path d="M79 85.2c-.2-3-.1-6.2.6-9.6 1.4-6.9 4.5-12.6 8.2-15.8 2.3-2 4.9-3 7.4-2.5 6.3 1.3 9.6 11.5 7.4 22.8-2.3 11.3-9.2 19.5-15.6 18.2-4.4-.8-7.4-6.1-8-13.1zm9.6 24.7c9.7 1.9 20.4-10.6 23.9-28s-1.6-33.1-11.3-35c-3.8-.8-7.7.7-11.3 3.8-5.6 4.8-10.5 13.6-12.6 24.2-1 5.2-1.3 10.2-.9 14.8.8 10.7 5.4 18.8 12.2 20.2z" id="path157" fill="#ff574d"></path><path d="M102.6 80.2c2.3-11.3-1-21.5-7.4-22.8-2.5-.5-5 .5-7.4 2.5-3.7 3.1-6.8 8.8-8.2 15.8-.6 3.3-.8 6.5-.6 9.5.6 7 3.5 12.3 8 13.2 6.4 1.3 13.3-6.9 15.6-18.2z" id="path159" fill="#ffdbc7"></path><path class="st1" d="M90.7 65.7c-4.2-1.5-6.1 1.5-11.1.1-1.2-.4-1.9-1.1-2.7-1.3 3.4-3.6 3.9-9.2.9-13.5-3.4-4.9-10.1-6-15-2.6-4.4 3.1-5.7 8.8-3.5 13.5-2 .1-4 .7-5.8 1.9-4.9 3.4-6 10.1-2.6 15s10.1 6 15 2.6c1.5-1.1 2.7-2.5 3.4-4.1 3 5.6 8.8 9.4 14.6 9.7 4.6.2 7.6-1.3 9.9-4.5 3.2-4.1.9-15.4-3.1-16.8z" id="path161" fill="#fff"></path></g></svg>