<svg width="329.67" height="116.61" viewBox="0 0 197.8 69.967" xmlns="http://www.w3.org/2000/svg"><path d="M-3.633 0h202v70h-202z"></path><path d="M184.05 10.15h-72.121c-2.244.252-3.478 1.624-3.696 4.128v41.445c.215 2.501 1.447 3.868 3.676 4.129h72.158c2.23-.261 3.461-1.629 3.677-4.129V14.278c-.217-2.504-1.452-3.876-3.694-4.128" fill="#f7971d"></path><path d="M180.44 29.451c-1.224-1.352-2.868-2.22-4.659-2.619a8.269 8.269 0 0 0-1.751-.262c-2.368-.215-5.41.732-6.824 1.919l.343-9.704h-5.759v30.044h5.35v-1.655c1.233.993 3.213 2.146 6.229 2.146.118 0 .23-.001.339-.003.078.002.157.003.235.003 2.528 0 4.677-1.004 6.445-3.012 1.769-2.01 2.654-4.87 2.654-8.586 0-3.594-.868-6.35-2.602-8.271m-4.642 13.691c-.894 1.086-1.977 1.628-3.248 1.628-1.654 0-2.979-.765-3.976-2.295-.71-1.079-1.066-2.745-1.066-5 0-2.186.458-3.815 1.373-4.887.916-1.072 2.063-1.609 3.443-1.609 1.408 0 2.562.55 3.464 1.649.901 1.1 1.353 2.894 1.353 5.379 0 2.338-.448 4.048-1.343 5.135m-23.289-6.897c0 3.115-.143 5.072-.43 5.872-.287.799-.82 1.469-1.599 2.007-.778.541-1.66.81-2.643.81-.861 0-1.572-.201-2.132-.604s-.947-.95-1.158-1.64c-.212-.69-.317-2.564-.317-5.626v-10h-5.758v13.772c0 2.049.259 3.654.778 4.816.519 1.161 1.359 2.063 2.52 2.705 1.162.642 2.473.963 3.935.963.219 0 .436-.008.651-.023.01 0 .011 0 .017-.002 3.665-.106 5.574-1.768 6.546-2.864v2.397h5.348V27.064h-5.758zm-18.79-7.049c-.54-.764-1.342-1.393-2.407-1.885-.964-.445-2.033-.686-3.209-.729l-.058-.004c-2.427-.129-5.531.579-6.98 1.973v-9.766h-5.758v30.043h5.758V37.927c0-1.831.175-3.215.523-4.15.349-.937.898-1.637 1.65-2.102.751-.463 1.604-.696 2.562-.696.832 0 1.527.181 2.079.543.553.362.94.851 1.158 1.465.218.616.328 2.063.328 4.344v11.497h5.758V36.061c0-1.953-.1-3.395-.298-4.323a6.815 6.815 0 0 0-1.106-2.542"></path><path d="M101.25 30.514a6.705 6.705 0 0 0-1.184-2.544c-.569-.747-1.406-1.362-2.513-1.843s-2.328-.721-3.665-.721c-2.423-.138-6.356.787-7.544 2.669v-2.153h-5.626v22.892h6.057V38.447c0-2.558.155-4.312.464-5.26.308-.949.88-1.71 1.714-2.285.833-.575 1.774-.863 2.823-.863.819 0 1.52.203 2.102.604.582.402 1.003.967 1.261 1.692.259.727.388 2.325.388 4.796v11.683h6.057V34.588c0-1.768-.111-3.126-.334-4.074m-28.861-5.021c-1.792.229-3.505 1.675-4.255 2.596v-2.166h-5.626v22.892h6.057v-7.07c0-3.895.169-6.452.507-7.674.337-1.222.801-2.065 1.39-2.533.589-.467 1.308-.701 2.156-.701.876 0 1.824.33 2.845.991l1.876-5.281c-1.279-.761-2.609-1.141-3.988-1.141-.333 0-.653.03-.962.087m-24.704-.088c-2.242 0-4.272.495-6.089 1.488-1.819.99-3.223 2.427-4.215 4.31-.991 1.883-1.487 3.83-1.487 5.842 0 2.63.496 4.861 1.487 6.692.992 1.834 2.439 3.224 4.344 4.171a13.3 13.3 0 0 0 6.003 1.424c3.391 0 6.204-1.139 8.439-3.417s3.352-5.148 3.352-8.613c0-3.433-1.106-6.275-3.319-8.524-2.214-2.248-5.052-3.373-8.515-3.373m3.999 17.18c-1.071 1.207-2.397 1.811-3.978 1.811s-2.91-.604-3.987-1.811c-1.078-1.208-1.617-2.947-1.617-5.217s.539-4.01 1.617-5.217c1.077-1.206 2.406-1.81 3.987-1.81s2.907.604 3.978 1.81c1.07 1.207 1.606 2.933 1.606 5.174 0 2.3-.536 4.052-1.606 5.26M28.215 17.688c-1.178-.317-3.707-.475-7.587-.475H10.389v31.601h6.38v-11.92h4.16c2.889 0 5.095-.151 6.618-.453 1.122-.244 2.224-.744 3.309-1.498s1.979-1.792 2.684-3.115c.704-1.321 1.056-2.953 1.056-4.893 0-2.515-.611-4.566-1.832-6.155-1.222-1.587-2.738-2.619-4.549-3.092m-.916 11.791c-.481.705-1.145 1.222-1.993 1.552s-2.531.495-5.045.495h-3.492v-8.967h3.083c2.299 0 3.83.072 4.591.216 1.035.187 1.89.654 2.566 1.401.674.747 1.013 1.695 1.013 2.845 0 .934-.242 1.754-.723 2.458" fill="#fff"></path></svg>