<?xml version="1.0" encoding="UTF-8" standalone="no"?>
<!-- Generator: Adobe Illustrator 21.0.0, SVG Export Plug-In . SVG Version: 6.00 Build 0)  -->

<svg
   xmlns:dc="http://purl.org/dc/elements/1.1/"
   xmlns:cc="http://creativecommons.org/ns#"
   xmlns:rdf="http://www.w3.org/1999/02/22-rdf-syntax-ns#"
   xmlns:svg="http://www.w3.org/2000/svg"
   xmlns="http://www.w3.org/2000/svg"
   xmlns:sodipodi="http://sodipodi.sourceforge.net/DTD/sodipodi-0.dtd"
   xmlns:inkscape="http://www.inkscape.org/namespaces/inkscape"
   version="1.1"
   id="图层_1"
   x="0px"
   y="0px"
   viewBox="0 0 192.8 103.7"
   xml:space="preserve"
   sodipodi:docname="presse_logo_print_ohne_claim.svg"
   width="192.8"
   height="103.7"
   inkscape:version="0.92.3 (2405546, 2018-03-11)"><metadata
   id="metadata78"><rdf:RDF><cc:Work
       rdf:about=""><dc:format>image/svg+xml</dc:format><dc:type
         rdf:resource="http://purl.org/dc/dcmitype/StillImage" /><dc:title></dc:title></cc:Work></rdf:RDF></metadata><defs
   id="defs76" /><sodipodi:namedview
   pagecolor="#ffffff"
   bordercolor="#666666"
   borderopacity="1"
   objecttolerance="10"
   gridtolerance="10"
   guidetolerance="10"
   inkscape:pageopacity="0"
   inkscape:pageshadow="2"
   inkscape:window-width="1366"
   inkscape:window-height="715"
   id="namedview74"
   showgrid="false"
   fit-margin-top="0"
   fit-margin-left="0"
   fit-margin-right="0"
   fit-margin-bottom="0"
   inkscape:zoom="0.67424242"
   inkscape:cx="95.8"
   inkscape:cy="51.9"
   inkscape:window-x="-8"
   inkscape:window-y="-8"
   inkscape:window-maximized="1"
   inkscape:current-layer="图层_1" />
<style
   type="text/css"
   id="style45">
	.st0{fill:#FEFEFE;}
	.st1{fill:#B5E05E;}
	.st2{fill:#EF925B;}
</style>
<g
   id="g71"
   transform="translate(-210.2,-344.2)">
	<g
   id="g69">
		<path
   class="st0"
   d="m 306.6,344.2 c 31.8,0 63.5,0 95.3,0 0.9,0 1.1,0.2 1.1,1.1 0,33.8 0,67.7 0,101.5 0,0.9 -0.2,1.1 -1.1,1.1 -63.5,0 -127,0 -190.6,0 -0.9,0 -1.1,-0.2 -1.1,-1.1 0,-33.8 0,-67.7 0,-101.5 0,-0.9 0.2,-1.1 1.1,-1.1 31.8,0 63.5,0 95.3,0 z"
   id="path47"
   inkscape:connector-curvature="0"
   style="fill:#fefefe" />
		<path
   class="st1"
   d="m 244.1,445.8 c 0.8,-2.9 1.5,-5.7 2.2,-8.6 1.3,-5.2 2.7,-10.4 4.1,-15.5 0.3,-0.9 0.1,-1.3 -0.9,-1.1 -0.3,0 -0.6,0 -0.8,0.1 -3.3,0.5 -3.3,0.5 -4.1,3.7 -1.8,6.8 -3.5,13.5 -5.3,20.3 -0.2,0.9 -0.6,1.2 -1.5,1.2 -2,-0.1 -4,0 -6,0 -0.8,0 -0.9,-0.2 -0.7,-1 1.9,-7.2 3.8,-14.4 5.7,-21.7 0.3,-1.1 0,-1.3 -1,-1.1 -0.4,0.1 -0.7,0.2 -1.1,0.1 -2.7,-0.4 -3.3,1.2 -3.8,3.4 -1.5,6.4 -3.3,12.7 -4.9,19 -0.2,0.9 -0.6,1.3 -1.6,1.3 -3.8,-0.1 -7.6,-0.1 -11.4,0 -0.9,0 -1.2,-0.2 -1.2,-1.1 0,-32.6 0,-65.3 0,-97.9 0,-0.8 0.2,-1.2 1.1,-1.1 0.3,0 0.6,0 0.8,0 62,0 124,0 186,0 2,0 1.7,-0.2 1.7,1.7 0,32.3 0,64.6 0,96.8 0,1.7 0.2,1.5 -1.6,1.5 -45.9,0 -91.8,0 -137.6,0 -1.1,0 -1.5,-0.3 -1.6,-1.4 -0.1,-1.9 -0.3,-3.8 -0.6,-5.7 -0.2,-1.1 0.2,-1.5 1.3,-1.5 1.2,0 2.4,-0.3 3.5,-0.7 4.3,-1.4 6.4,-4.6 6.1,-9.1 -0.4,-6.2 -4.7,-8.4 -10.6,-7.9 -2.3,0.2 -4.6,0.5 -6.9,0.6 -0.9,0.1 -1.2,0.4 -1.1,1.3 0.5,4.2 0.9,8.5 1.3,12.7 0.4,3.5 0.7,7.1 1.1,10.6 0.1,0.8 -0.2,1.1 -1,1.1 -3,-0.1 -6.2,0 -9.6,0 z"
   id="path49"
   inkscape:connector-curvature="0"
   style="fill:#b5e05e" />
		<path
   class="st1"
   d="m 265.2,428.4 c 0,2.2 -1.2,3.4 -3.6,3.9 -2,0.4 -2,0.4 -2.2,-1.6 -0.2,-1.8 -0.4,-3.6 -0.6,-5.5 -0.1,-0.5 0,-0.8 0.7,-0.8 0.5,0 1,-0.1 1.6,-0.1 2.5,-0.1 4.1,1.4 4.1,4.1 z"
   id="path51"
   inkscape:connector-curvature="0"
   style="fill:#b5e05e" />
		<path
   class="st0"
   d="m 381.8,423.1 c 0.1,2.9 -0.4,5.5 -1.7,7.8 -2.2,3.7 -5.7,5.1 -9.7,5.4 -6.3,0.4 -10.4,-2.5 -12.3,-8.6 -1,-3.3 -1.3,-6.7 -0.7,-10.2 0.8,-5.1 4.2,-8.4 9.3,-9.3 3.2,-0.5 6.3,-0.5 9.2,1.3 3.3,2 4.7,5.1 5.5,8.7 0.3,1.7 0.6,3.4 0.4,4.9 z"
   id="path53"
   inkscape:connector-curvature="0"
   style="fill:#fefefe" />
		<path
   class="st0"
   d="m 273.6,430.1 c 0,-3.8 0.6,-7 2.9,-9.6 2.3,-2.6 5.3,-3.6 8.5,-3.7 6.8,-0.4 11,2.8 12.6,9.5 0.8,3.1 0.9,6.2 0.4,9.3 -0.8,5 -4.3,8.4 -9.5,9.3 -2.1,0.3 -4.1,0.4 -6.2,-0.1 -4.6,-1.2 -6.8,-4.6 -8,-8.8 -0.5,-2.2 -0.8,-4.3 -0.7,-5.9 z"
   id="path55"
   inkscape:connector-curvature="0"
   style="fill:#fefefe" />
		<path
   class="st0"
   d="m 341.7,439.1 c -1.3,0.7 -1.4,-0.4 -1.5,-1.4 -0.4,-4.3 -0.8,-8.6 -1.3,-12.9 -0.4,-3.7 -0.7,-7.3 -1.1,-10.9 0,-0.4 0,-0.8 -0.1,-1.2 -0.1,-0.6 0.2,-0.8 0.8,-0.9 4.2,-0.4 8.5,-0.9 12.7,-1.2 2.1,-0.2 2.1,-0.1 2.3,1.9 0.4,3 0.6,2.7 -2.3,2.9 -2.2,0.2 -4.4,0.5 -6.7,0.7 -0.5,0 -0.7,0.2 -0.6,0.7 0.2,1.5 0.3,3 0.5,4.5 0,0.6 0.3,0.8 0.8,0.7 2.5,-0.3 5,-0.5 7.5,-0.8 0.7,-0.1 1,0 1.1,0.8 0.1,1.1 0.2,2.1 0.4,3.2 0.1,0.7 -0.4,0.8 -0.8,0.8 -2.3,0.2 -4.7,0.6 -7,0.7 -1.1,0.1 -1.4,0.6 -1.2,1.6 0.2,1.5 0.4,3.1 0.5,4.6 0.1,0.7 0.3,0.9 1.1,0.9 2.7,-0.3 5.4,-0.6 8.1,-0.9 0.6,-0.1 1,0 1,0.8 0,0.9 0,1.9 0.3,2.7 0.3,1.1 -0.2,1.4 -1.1,1.5 -4.5,0.3 -8.9,0.7 -13.4,1.2 z"
   id="path57"
   inkscape:connector-curvature="0"
   style="fill:#fefefe" />
		<path
   class="st0"
   d="m 307.1,442.7 c -1.7,0.1 -3.3,-0.2 -4.9,-0.7 -0.7,-0.2 -1,-0.6 -1,-1.3 -0.1,-1.1 -0.1,-2.2 -0.3,-3.2 -0.3,-1.3 0.3,-1.2 1.2,-0.8 1.8,0.7 3.6,1.1 5.5,1.1 0.6,0 1.1,-0.1 1.7,-0.2 1.2,-0.2 2.2,-0.8 2.4,-2.1 0.2,-1.4 -0.3,-2.4 -1.4,-3.2 -1.2,-0.8 -2.5,-1.3 -3.8,-1.8 -1.1,-0.5 -2.3,-1 -3.3,-1.7 -2.9,-2 -3.9,-4.9 -3.3,-8.3 0.6,-3.4 2.9,-5.2 6.2,-5.9 2.9,-0.6 5.8,-0.3 8.6,0.6 0.7,0.2 0.8,0.5 0.6,1.1 -0.3,0.9 -0.6,1.9 -0.9,2.9 -0.2,0.7 -0.5,1 -1.3,0.7 -1.7,-0.6 -3.4,-1 -5.3,-0.6 -1.1,0.2 -1.9,0.8 -2.2,2 -0.3,1.2 0,2.3 1.1,3.1 0.9,0.7 1.9,1.1 2.9,1.5 1,0.4 2.1,0.9 3.1,1.4 3.9,1.9 5.2,4.5 4.9,8.2 -0.3,3.8 -3,6.2 -7,6.9 -1.3,0.2 -2.4,0.3 -3.5,0.3 z"
   id="path59"
   inkscape:connector-curvature="0"
   style="fill:#fefefe" />
		<path
   class="st0"
   d="m 315.8,415 c -0.3,-0.8 0.3,-1 1,-1.1 4.2,-0.4 8.5,-0.8 12.7,-1.3 1.6,-0.2 3.2,-0.3 4.8,-0.5 0.6,-0.1 1,0 1,0.8 0.1,1.1 0.2,2.1 0.4,3.2 0.1,0.6 -0.1,0.8 -0.8,0.9 -1.6,0.1 -3.2,0.4 -4.9,0.5 -0.8,0.1 -1.1,0.4 -1,1.3 0.5,4.4 0.9,8.7 1.3,13.1 0.3,2.5 0.5,5 0.8,7.5 0.1,0.6 -0.2,0.8 -0.7,0.8 -1.5,0.1 -2.9,0.3 -4.4,0.5 -0.6,0.1 -0.7,-0.2 -0.8,-0.7 -0.6,-6.6 -1.3,-13.3 -1.9,-19.9 -0.2,-1.8 -0.1,-1.8 -1.9,-1.7 -1.4,0.1 -2.7,0.3 -4,0.4 -0.8,0.1 -1.3,0 -1.3,-1 0,-0.9 -0.2,-1.8 -0.3,-2.8 z"
   id="path61"
   inkscape:connector-curvature="0"
   style="fill:#fefefe" />
		<path
   class="st2"
   d="m 388.3,434.7 c -2.1,0 -3.1,-1.1 -3.1,-3.3 0,-2 1.3,-3.1 3.5,-3.1 1.9,0 3.1,1.4 3.1,3.4 0,1.8 -1.4,3 -3.5,3 z"
   id="path63"
   inkscape:connector-curvature="0"
   style="fill:#ef925b" />
		<path
   class="st1"
   d="m 363.1,420.8 c 0,-1.3 0.1,-2.5 0.5,-3.7 0.9,-2.7 2.6,-4 5.6,-4.1 2.4,-0.1 4.1,1.2 5.1,3.3 1.6,3.5 2,7.2 1,11 -0.6,2.3 -2.1,3.6 -4.4,4 -2.4,0.4 -4.4,-0.2 -5.8,-2.4 -1.6,-2.5 -1.9,-5.3 -2,-8.1 z"
   id="path65"
   inkscape:connector-curvature="0"
   style="fill:#b5e05e" />
		<path
   class="st1"
   d="m 292.3,432.2 c 0,1.3 -0.1,2.6 -0.5,3.8 -0.6,2.2 -2.1,3.6 -4.4,4 -2.4,0.4 -4.5,-0.2 -5.8,-2.4 -2.2,-3.9 -2.7,-8.1 -1.3,-12.3 0.8,-2.4 2.7,-3.4 5.2,-3.6 2.4,-0.1 4.1,1 5.2,3 1,1.8 1.6,4.5 1.6,7.5 z"
   id="path67"
   inkscape:connector-curvature="0"
   style="fill:#b5e05e" />
	</g>
</g>
</svg>