<svg xmlns="http://www.w3.org/2000/svg" viewBox="0 0 508.8 508.8" width="508.8" height="508.8"><title>presearch_logo</title><linearGradient id="a" gradientUnits="userSpaceOnUse" x1="1016.117" y1="-441.976" x2="1016.117" y2="-390.276" gradientTransform="matrix(6.1155 0 0 -6.1155 -6000.9 -2290.098)"><stop offset="0" stop-color="#26445f"></stop><stop offset="1" stop-color="#1090c1"></stop></linearGradient><path d="M300.3 130.9c-9.2-10.4-20.2-19-32.4-25.1-12.8-6.7-26.9-9.8-41-9.8H96.6v316.2h83.2v-96.6h49.5c14.1 0 28.1-3.1 41-9.2 12.2-6.1 22.6-14.1 31.8-24.5 8.6-10.4 15.9-22.6 20.2-35.5 4.9-12.8 7.3-26.9 7.3-41 0-13.5-2.4-26.9-8-39.8-4.8-12.1-12.2-24.3-21.3-34.7zm-62.4 101.5c-3.7 4.3-8.6 7.3-14.1 7.3h-44v-67.3H222c6.1.6 11.6 3.1 15.3 7.3 4.9 4.9 8 13.5 8 26.9-.1 13.6-3.1 21.5-7.4 25.8z" fill="url(#a)"></path><linearGradient id="b" gradientUnits="userSpaceOnUse" x1="1022.867" y1="-457.676" x2="1022.867" y2="-374.476" gradientTransform="matrix(6.1155 0 0 -6.1155 -6000.9 -2290.098)"><stop offset="0" stop-color="#26445f"></stop><stop offset="1" stop-color="#1090c1"></stop></linearGradient><path d="M0 508.8h508.8V0H0zM59.3 59.3h389.6v389.6H59.3z" fill="url(#b)"></path><path d="M217.1 352.9h195.1v59.9H217.1z" fill="#f37021"></path></svg>