<?xml version="1.0" encoding="UTF-8" standalone="no"?>
<!-- Generator: Adobe Illustrator 21.0.0, SVG Export Plug-In . SVG Version: 6.00 Build 0)  -->

<svg
   xmlns:dc="http://purl.org/dc/elements/1.1/"
   xmlns:cc="http://creativecommons.org/ns#"
   xmlns:rdf="http://www.w3.org/1999/02/22-rdf-syntax-ns#"
   xmlns:svg="http://www.w3.org/2000/svg"
   xmlns="http://www.w3.org/2000/svg"
   xmlns:sodipodi="http://sodipodi.sourceforge.net/DTD/sodipodi-0.dtd"
   xmlns:inkscape="http://www.inkscape.org/namespaces/inkscape"
   version="1.1"
   id="Layer_1"
   x="0px"
   y="0px"
   viewBox="0 0 508.79999 508.79999"
   xml:space="preserve"
   sodipodi:docname="presearch.svg"
   width="508.79999"
   height="508.79999"
   inkscape:version="0.92.3 (2405546, 2018-03-11)"><metadata
   id="metadata69"><rdf:RDF><cc:Work
       rdf:about=""><dc:format>image/svg+xml</dc:format><dc:type
         rdf:resource="http://purl.org/dc/dcmitype/StillImage" /><dc:title>presearch_logo</dc:title></cc:Work></rdf:RDF></metadata><defs
   id="defs67" /><sodipodi:namedview
   pagecolor="#ffffff"
   bordercolor="#666666"
   borderopacity="1"
   objecttolerance="10"
   gridtolerance="10"
   guidetolerance="10"
   inkscape:pageopacity="0"
   inkscape:pageshadow="2"
   inkscape:window-width="1366"
   inkscape:window-height="715"
   id="namedview65"
   showgrid="false"
   fit-margin-top="0"
   fit-margin-left="0"
   fit-margin-right="0"
   fit-margin-bottom="0"
   inkscape:zoom="0.6675088"
   inkscape:cx="317.40635"
   inkscape:cy="258.74852"
   inkscape:window-x="-8"
   inkscape:window-y="-8"
   inkscape:window-maximized="1"
   inkscape:current-layer="Layer_1" />
<style
   type="text/css"
   id="style44">
	.st0{fill:url(#SVGID_1_);}
	.st1{fill:url(#SVGID_2_);}
	.st2{fill:#F37021;}
</style>
<title
   id="title46">presearch_logo</title>
<linearGradient
   id="SVGID_1_"
   gradientUnits="userSpaceOnUse"
   x1="1016.1171"
   y1="-441.97629"
   x2="1016.1171"
   y2="-390.2764"
   gradientTransform="matrix(6.1155,0,0,-6.1155,-6000.8999,-2290.098)">
	<stop
   offset="0"
   style="stop-color:#26445F"
   id="stop48" />
	<stop
   offset="1"
   style="stop-color:#1090C1"
   id="stop50" />
</linearGradient>
<path
   class="st0"
   d="m 300.3,130.9 c -9.2,-10.4 -20.2,-19 -32.4,-25.1 C 255.1,99.1 241,96 226.9,96 H 96.6 v 316.2 h 83.2 v -96.6 h 49.5 c 14.1,0 28.1,-3.1 41,-9.2 12.2,-6.1 22.6,-14.1 31.8,-24.5 8.6,-10.4 15.9,-22.6 20.2,-35.5 4.9,-12.8 7.3,-26.9 7.3,-41 0,-13.5 -2.4,-26.9 -8,-39.8 -4.8,-12.1 -12.2,-24.3 -21.3,-34.7 z m -62.4,101.5 c -3.7,4.3 -8.6,7.3 -14.1,7.3 h -44 V 172.4 H 222 c 6.1,0.6 11.6,3.1 15.3,7.3 4.9,4.9 8,13.5 8,26.9 -0.1,13.6 -3.1,21.5 -7.4,25.8 z"
   id="path53"
   inkscape:connector-curvature="0"
   style="fill:url(#SVGID_1_)" />
<linearGradient
   id="SVGID_2_"
   gradientUnits="userSpaceOnUse"
   x1="1022.8671"
   y1="-457.6763"
   x2="1022.8671"
   y2="-374.47629"
   gradientTransform="matrix(6.1155,0,0,-6.1155,-6000.8999,-2290.098)">
	<stop
   offset="0"
   style="stop-color:#26445F"
   id="stop55" />
	<stop
   offset="1"
   style="stop-color:#1090C1"
   id="stop57" />
</linearGradient>
<path
   class="st1"
   d="M 0,508.8 H 508.8 V 0 H 0 Z M 59.3,59.3 H 448.9 V 448.9 H 59.3 Z"
   id="path60"
   inkscape:connector-curvature="0"
   style="fill:url(#SVGID_2_)" />
<path
   class="st2"
   d="m 217.1,352.9 h 195.1 v 59.9 H 217.1 Z"
   id="path62"
   inkscape:connector-curvature="0"
   style="fill:#f37021" />
</svg>