<svg xmlns="http://www.w3.org/2000/svg" id="Layer_1" data-name="Layer 1" viewBox="0 0 350 350" version="1.1" width="350" height="350"><defs id="defs4"><style id="style2">.cls-1{fill:#2d8eff}</style></defs><path class="cls-1" d="M125.73 215.38h32.71a63 63 0 0 0 27.06-6 68 68 0 0 0 21-16.16 75 75 0 0 0 13.33-23.42 76.44 76.44 0 0 0 4.84-27.06 66.16 66.16 0 0 0-5.25-26.25 80.79 80.79 0 0 0-14.13-23 70.91 70.91 0 0 0-21.41-16.55 58 58 0 0 0-27-6.47h-86v208.72h54.92zm0-94.5h27.83a15 15 0 0 1 10.1 4.85c3.23 3.23 5.25 8.89 5.25 17.77 0 8.88-2 14.13-4.85 17-2.42 2.83-5.65 4.85-9.28 4.85h-29.05z" id="path8" fill="#2d8eff"></path><path class="cls-1" d="M0 20.1v309.8A20.1 20.1 0 0 0 20.1 350h309.8a20.1 20.1 0 0 0 20.1-20.1V20.1A20.1 20.1 0 0 0 329.9 0H20.1A20.1 20.1 0 0 0 0 20.1zm288.67 288.67H60.91a20.1 20.1 0 0 1-20.11-20.1V60.91a20.1 20.1 0 0 1 20.11-20.1h227.76a20.1 20.1 0 0 1 20.1 20.1v227.76a20.1 20.1 0 0 1-20.1 20.1z" id="path10" fill="#2d8eff"></path><path class="cls-1" id="rect12" fill="#2d8eff" d="M150.36 240.02h128.83v39.58H150.36z"></path></svg>