<svg xmlns="http://www.w3.org/2000/svg" width="192.2" height="192.2"><path d="M.1 161.1v-131c1.5-6.2 2.1-12.5 6.6-17.8C12.6 5.6 19.3 1.2 28.2.6c1-.1 2 .3 2.8-.5h130c6.5 1.3 13.2 1.8 18.8 6.6 6.9 6 11.3 12.8 11.7 22 0 .8-.1 1.7.5 2.3v130c-1.3 6.5-1.8 13.2-6.6 18.8-6 6.9-12.8 11.3-22 11.7-.8 0-1.7-.1-2.3.5h-131c-6.2-1.5-12.5-2.1-17.8-6.6-6.7-5.9-11.1-12.6-11.7-21.5-.1-.9.3-2-.5-2.8z" fill="#fe2d36"/><path d="M56 96.2c0-18.2.1-36.3-.1-54.5-.1-4.1 1.2-5 5-4.9 15.3.6 30.7-1.2 45.9 1.2 25.9 4.1 39 24.1 32.4 49.6-4.5 17.7-17.5 25.4-34.3 28.4-6.8 1.2-13.6 1.2-20.4 1-3.3-.1-4.3.9-4.3 4.2.2 10-.1 20 .2 30 .1 3.9-1.2 4.9-4.8 4.7-5.1-.3-10.3-.2-15.5 0-3.3.1-4.3-.9-4.2-4.2.2-18.6.1-37.1.1-55.5z" fill="#fefefe"/><path d="M54.9 39.2V154h-.5V39.2h.5z" fill="#fe2a34"/><path d="M58.2 35.3H97v.5H58.2v-.5z" fill="#fe2a33"/><path d="M81.9 120.1v32.8h-.4v-32.6c.1-.1.3-.1.4-.2z" fill="#fe2933"/><path d="M89.9 56.9c3.8 0 7.6.1 11.4 1.1 9.3 2.5 14.2 8.5 14.4 17.9.3 9.7-4.4 16.5-13.2 19.5-6.5 2.2-13.2 1.6-19.8 1.7-2.2 0-2.3-1.3-2.3-3 0-11.3.1-22.7 0-34 0-2.8 1.2-3.5 3.6-3.3 1.9.2 3.9.1 5.9.1z" fill="#fe2d36"/><path d="M81.4 94.7V60.1h.5v34.6h-.5z" fill="#fe2933"/></svg>