<svg xmlns="http://www.w3.org/2000/svg" version="1.1" id="Ebene_1" x="0" y="0" viewBox="0 0 45.2 63.402" xml:space="preserve" width="45.2" height="63.402"><style type="text/css" id="style25">.st0{fill:#4f5065}</style><g id="g31" transform="translate(-52.4 -39.798)"><path class="st0" d="M75 39.8s-18.7-.6-22.6 20.1V74s.2 1.5 4.4 4.6c4.3 3.1 15.3 11.7 18.2 11.7 2.9 0 13.9-8.7 18.2-11.7 4.3-3.1 4.4-4.6 4.4-4.6V60C93.7 39.2 75 39.8 75 39.8zm12.8 27.9H62.2V60C64.8 49.7 75 49.5 75 49.5s10.2.2 12.8 10.5z" id="path27" fill="#4f5065"></path><path class="st0" d="M75 93.6s-2.9-.3-5.2-1.9c-2.3-1.6-17.4-12.4-17.4-12.4v21.4s.1 2.5 2.9 2.5h39.4c2.7 0 2.9-2.5 2.9-2.5V79.4S82.5 90.2 80.2 91.8c-2.3 1.5-5.2 1.8-5.2 1.8z" id="path29" fill="#4f5065"></path></g></svg>