<svg xmlns="http://www.w3.org/2000/svg" width="137.244" height="119.04"><g font-weight="400" letter-spacing="0" word-spacing="0" font-family="Helion"><g style="line-height:125%;-inkscape-font-specification:Helion" clip-path="url(#prefix__prefix__a)" transform="matrix(-.23853 0 0 .23853 134.53 1.637)" font-size="144"><path d="M276.304 226.623L466.892 17.021C459.5 9.628 450.888 3.819 441.058-.405c-9.83-4.225-20.392-6.377-31.684-6.459-11.993.092-22.98 2.468-32.963 7.129-9.982 4.661-18.655 11.059-26.017 19.193l-74.09 80.915L202.7 19.458c-7.627-8.134-16.502-14.532-26.627-19.193-10.124-4.661-21.071-7.037-32.84-7.129-11.293.082-21.854 2.234-31.684 6.459-9.83 4.224-18.442 10.033-25.835 17.426l190.594 209.597"/></g><g transform="matrix(.23853 0 0 -.23853 2.714 117.402)" clip-path="url(#prefix__prefix__a)" style="line-height:125%;-inkscape-font-specification:Helion" font-size="144"><path d="M276.304 226.623L466.892 17.021C459.5 9.628 450.888 3.819 441.058-.405c-9.83-4.225-20.392-6.377-31.684-6.459-11.993.092-22.98 2.468-32.963 7.129-9.982 4.661-18.655 11.059-26.017 19.193l-74.09 80.915L202.7 19.458c-7.627-8.134-16.502-14.532-26.627-19.193-10.124-4.661-21.071-7.037-32.84-7.129-11.293.082-21.854 2.234-31.684 6.459-9.83 4.224-18.442 10.033-25.835 17.426l190.594 209.597"/></g><path style="line-height:125%;-inkscape-font-specification:Helion" d="M64.798 59.52L30.553 21.966a22.136 22.136 0 0 0-6.954-5.013c-2.644-1.217-5.503-1.838-8.577-1.862-2.95.021-5.707.584-8.275 1.687A21.387 21.387 0 0 0 0 21.33l34.754 38.192L0 97.713a20.927 20.927 0 0 0 6.747 4.662c2.568 1.117 5.326 1.684 8.275 1.703 3.082-.024 5.957-.645 8.625-1.862s4.97-2.888 6.906-5.013L64.798 59.52m7.647 0l34.245-37.554a22.136 22.136 0 0 1 6.954-5.013c2.645-1.217 5.504-1.838 8.578-1.862 2.949.021 5.707.584 8.275 1.687a21.387 21.387 0 0 1 6.747 4.551l-34.755 38.192 34.755 38.192a20.926 20.926 0 0 1-6.747 4.662c-2.568 1.117-5.326 1.684-8.275 1.703-3.082-.024-5.957-.645-8.625-1.862a21.072 21.072 0 0 1-6.907-5.013L72.445 59.52" font-size="1059.613" fill="#e57000"/></g></svg>