<svg xmlns="http://www.w3.org/2000/svg" version="1.1" id="prefix__Layer_3" x="0" y="0" xml:space="preserve" width="154.467" height="155.082"><style type="text/css" id="style2"></style><g id="prefix__g8" transform="translate(-123.514 -314.748)"><path d="M277.5 318.3c-.8-.4-.5-.9-.5-.9-1.1-4.9-4.7-1.7-5.5-.7-.8 1-1.8 1.3-1.8 1.3-11.4-1.2-12.4 2.1-12.7 2.5-.2.4-.7.8-.7.8-4.6 1-5.5 4.2-5.5 4.2-.4 1.6-1.5.8-1.5.8-3.7-2.3-7.8-1.9-7.8-1.9-10.6 1.6-11.9 10.2-11.9 10.2-2.9 13.9 18.5 32.7 18.5 32.7s8 7.2 7 12.8c-1 5.7-7 5.2-7 5.2 1.4-2 1.2-5.9 1.2-5.9-.7-12.1-9.1-14.6-13.5-14.2-4.4.4-4.4 3.1-4.4 3.1.1 3 2.9 2.8 2.9 2.8 5.4.6 8.1 5 7.6 9s-2.2 1.9-2.2 1.9c-7.2-9.3-12.6-10.8-14-10.7-1.4.1-1.2-.8-1.2-.8-1.3-12.6-13.2-18.8-14.4-18.9-1.2-.1-1.1-1.1-1.2-1.8-.1-.7-.8-2.8-.8-2.8s-5.2-13.4-20.2-11.7c-15.1 1.8-17.1 19.1-17.6 20.4-.5 1.4-5.4 23.1-5.4 23.1-.2 1.3-1.3 6.1-4.7 6-3.4-.1-1.9-6.3-1.9-6.3s2.3-9.4-3.6-11.4c-5.9-2.1-9.4 2.9-9.7 4.7-.4 1.9-.9.9-.9.9-.6-1.8-2.6-3.6-7.6-4.4-5-.8-6.4-2.6-6.4-2.6-3.6-4.5-5.2 1.1-5.2 1.1-.2.5 0 0-.5.1s-.8 1.1-.8 1.1c-.6 2.9 2.1 3 3.6 3.1 1.5.1 2.5 1.5 2.5 1.5 5.2 11.3 9.9 8.4 9.9 8.4 2.7 2.8 6.9 2 7.7 1.9.8-.1.7.7.7.7 2.2 15.5 19.2 14.6 24.8 6.1 5.5-8.4 7-18.1 8.1-24.5 1.1-6.5.9-10.8 5.1-15.6 4.2-4.8 9.1-1.3 10.1-.4s-.5 1.2-.5 1.2c-5.9 2.2-9.6 7.4-10.5 12.7-.9 5.4 2.5 11.2 5.9 10.6 3.5-.5 2.6-2.5 1.8-4.4-.8-1.9-.7-4.4-.7-4.4.4-5.4 4.2-6.5 5.6-7.1 1.5-.6 1.4.5 1.4.5-3.2 7-1.1 17.4-1.1 17.4.6 1.5-.3 1.7-.3 1.7-11.6 8.9-9.9 21.4-9.9 21.4-6 2.7-7.9 10.6-7.9 10.6-1 9.7.9 17.1 10.4 21.9 9.5 4.8 37.9-3.5 37.9-3.5 2.4-1.1 9.9-2 10.4 1.7.4 3.7-5.7 4.2-5.7 4.2-8.3.5-8.2 7.5-8.2 7.5.7 8.2 8.2 6.9 9.1 7 .8.1.3.6.3.6-2.7 2.7-.7 7.6.1 11.4.8 3.8-.3 4.6-.3 4.6-3 3.9 1.5 4.9 2 4.6.5-.3.8.1.8.1 4.8 1.6 3.5-3.1 3.2-4-.3-.9.4-3.5.4-3.5 5.7-7 4.6-11.2 4-11.5-.5-.2-.5-1-.5-1s1.6-6.1-.9-7c-2.5-.9.7-2.1.7-2.1 5-1.8 9.6-13.8 1-21.5-8.7-7.7-32.2-.3-32.2-.3s-8 2.9-15.2 2c-7.2-1-6.7-6.5-5.9-8.6.7-2 1.3-.8 1.3-.8 1.2 2.4 5.5 4.1 5.5 4.1 7.6 3.2 13.7-.9 13.7-.9 5-2.2 5.5-8.8 3.3-9.9-2.2-1.2-3.3.6-3.3.6-3.7 4.8-9.1 4.6-12 2.5-2.9-2-1.1-2.8-1.1-2.8 14.9-2 17.6-7.6 17.6-7.6 1.1-.9 1.5 0 1.5 0 10 4.3 19.9-.8 21.4-1.6s3.1.2 3.1.2c9 2.2 16.2 1.3 23.5-9.1 7.4-10.4-4.4-22.7-4.1-22.6.3.1-19.1-21.9-19.1-21.9-4.5-6.8 1-10.1 5.4-4.3s7.8 4.7 7.8 4.7c9.9-1.3 6-11 5.1-11.7-.9-.7-.5-1.1-.5-1.1 5.2.8 9.7-5.1 10.7-6.5 1-1.3 2-1.2 2-1.2 5.9 1.5 5.1-3.4 4.4-3.8zM198.8 394s3.6-7.4 9-6.8c0 0 .9 4.2-9 6.8zm12.3-18.9c-3.3-1.8-1.8-11.1-1.8-11.1 5.7 8.7 1.8 11.1 1.8 11.1zm9 8.4c3.7-2 9.7 4.7 9.7 4.7-10.3-.4-9.7-4.7-9.7-4.7z" id="prefix__path4" fill="#66b933"/><path d="M272.9 319.4c.6-.4 1.2-2.1 1.2-2.1-.5 1.1-2.7 2.5-2.7 2.5l-2.7.8c-9.2-1-9.6 1.4-10 1.9-.4.5-1.1 1.1-1.1 1.1-2.1.1-4.4 1.7-4.8 4.2-.5 2.5 1.9 5.7 1.9 5.7.3 1.8-1.3.5-1.3.5-1.8-3.8-7.7-6.3-7.7-6.3-7.6-1.5-13.4 1.8-13.6 11.4-.2 9.6 16.2 24.1 16.2 24.1 8.2 6.4 9.4 13.6 9.4 13.6 3.3 11.4-10.8 11.4-10.8 11.4-2.3.2-2.1-.4-2.1-.4s4.6-9.3 0-15.6c-4.7-6.3-10-3.3-10-3.3s2.1-1.1 7.4 3.7c5.4 4.8.7 12 0 13.1-.7 1.1-1.5.7-1.5.7s-5.2-4.5-9-8.8c-3.8-4.4-10-3.9-10-3.9 1.8-13.4-15-20.7-15-20.7-1.7-14.9-15.7-14.8-15.7-14.8-14.5-.6-17 14.7-17 14.7s-4.9 18-5.2 20.9c-.3 2.9-2.7 15.2-8.9 14-6.2-1.2-4.7-8.6-4-10.7.7-2.1 1.1-6.7-2.9-7.5-4-.8-6.2 4.6-6.2 4.6s-.7 2.1-2.4 2.3c-1.6.2-2-1.4-2-1.4.3-4-10.2-4.3-10.2-4.3l-2.8-1.7c-.7-.4-1.6-2-1.6-2-.1.7.3 1.7.3 1.7-.4-.1-1.7.4-1.7.4 1 0 2.8.8 2.8.8l2.5 1.7c.3 2.5 3.1 5.2 3.1 5.2 3 3.5 4.1 2.2 5 2.3.9.1 1.2.6 1.2.6.9 1.6 3.6 1.6 3.6 1.6 4-.1 4.4-3.4 5.6-5.2 1.2-1.8 1.4.2 1.1 1.1-.3.9-1.2 4.6-1.2 4.6-.8 1.6 1 12.9 10.8 12.1 9.8-.8 10.8-8.9 13.4-13.4 2.5-4.6 2.7-11.1 4.6-19.6 1.9-8.5 4.5-11.6 4.5-11.6 6.7-10 15-1 16.4.9 1.4 1.9.1 2.2.1 2.2-8.2 1.1-11.8 5.9-12.6 11.9-.8 6.1 3.5 7.2 3.5 7.2s-4.8-7.2.7-12.5 10-3 10-3 .2.9-1.4 8.7c-1.6 7.8.8 12.1.8 12.1 1 2.2-.4 2.5-.4 2.5-12.6 7.7-10.3 18.1-10.5 20-.1 1.8-2.1 2.6-2.1 2.6-7.7 5.5-6.1 14.5-6.1 14.5 1.6 14.1 12.7 14.7 20.3 14.4 7.6-.3 27.3-5.5 27.3-5.5 1.5-.8 11.4-2 11.6 4.2.2 6.1-5.9 6.8-5.9 6.8-.1 0-8.4-.4-8.1 5.1.3 5.5 6.5 5.3 8 5 1.5-.3 3.1 2.2 1.4 3.5-1.7 1.3-1.5 3.2-1.5 3.2-.4 3.2 2 7.6 2 7.6l-.4 3.7c-.5 1.7-1.2 2.6-1.2 2.6.8-.3 1.4-1 1.4-1 0 .5.9 1.3.9 1.3-.7-1.3-.4-3.3-.4-3.3l.5-3.2c6.7-6.5 3.6-10 3.6-10s-1.2-.5-.3-1.8c.9-1.3.5-3.4.5-3.4-.6-3.5-6.9-3-6.9-3s-1.2-.1-1.3-1c-.1-.9 1.3-.9 1.3-.9h2s3.5-.5 7.6-3.8c4.2-3.3 1.9-11.2 1.9-11.2-2.7-7.2-12.7-7.8-20.8-7.2-8 .6-16.9 4.9-23.8 5.3-6.9.4-11.5-1-12.9-5.2-1.4-4.2.7-9.1 1.8-10.9 1.2-1.8 1.4-.5 1.4-.5s5.1 7.4 12.1 7.3c7-.1 8.9-4.9 8.9-4.9 1.6-3.1-.3-1.9-.3-1.9-1 1.6-4.5 4.3-8.5 4.4-4 .1-6.7-2.8-6.7-2.8-4-3.5-2.4-5.2-2.4-5.2s.6-1.2 7.9-2.5c7.3-1.3 11.3-5.9 12.1-7 .8-1.2 1.8-.1 1.8-.1 9.8 6.5 22.5-1 23-1.7.5-.6.7-.2.7-.2 6.1 4.5 19 2.5 23.4-8.9 4.4-11.4-8.7-22.4-8.7-22.4s-9.9-11.9-14.7-17c-4.8-5.1-1.3-10.1-1.3-10.1 4.7-4.4 9.9 2.6 9.9 2.6 2.1 3.7 5 4.7 8 3.2 2.9-1.5 2.8-5.5.4-8.4-2.4-2.9 1.1-4.2 1.1-4.2 2 .5 2.7.3 2.7.3 3.9-.5 7.7-6.3 7.7-6.3l2.8-1.1c.8-.1 3.1-.3 3.1-.3.3-.5-1.9-.7-1.9-.7zm-62.3 69.5c-.9 4.4-16.1 9.5-16.1 9.5s2.6-12.9 13.3-13.8c0 0 3.7 0 2.8 4.3zm.6-11.4c-7.4-.4-4.2-19-4.2-19 4.9 2.5 7.5 10.4 7.5 10.4 1.8 9.2-3.3 8.6-3.3 8.6zm6.8 4.7c4.8-6.6 17.9 7.7 17.9 7.7-20.7 3.3-17.9-7.7-17.9-7.7z" id="prefix__path6"/></g></svg>