<svg xmlns="http://www.w3.org/2000/svg" version="1.1" x="0" y="0" viewBox="0 0 171 171" xml:space="preserve" id="svg58" width="171" height="171"><style type="text/css" id="style38">.st3{display:inline;fill:none;stroke:#d8d8d8;stroke-width:.5;stroke-miterlimit:10}</style><g id="Artwork" transform="translate(-85.4 -85.4)"><g id="g44"><circle cx="170.9" cy="170.9" r="85.5" id="circle40" fill="#ff4500"></circle><path d="M227.9 170.9c0-6.9-5.6-12.5-12.5-12.5-3.4 0-6.4 1.3-8.6 3.5-8.5-6.1-20.3-10.1-33.3-10.6l5.7-26.7 18.5 3.9c.2 4.7 4.1 8.5 8.9 8.5 4.9 0 8.9-4 8.9-8.9s-4-8.9-8.9-8.9c-3.5 0-6.5 2-7.9 5l-20.7-4.4c-.6-.1-1.2 0-1.7.3s-.8.8-1 1.4l-6.3 29.8c-13.3.4-25.2 4.3-33.8 10.6-2.2-2.1-5.3-3.5-8.6-3.5-6.9 0-12.5 5.6-12.5 12.5 0 5.1 3 9.4 7.4 11.4-.2 1.2-.3 2.5-.3 3.8 0 19.2 22.3 34.7 49.9 34.7 27.6 0 49.9-15.5 49.9-34.7 0-1.3-.1-2.5-.3-3.7 4.1-2 7.2-6.4 7.2-11.5zm-85.5 8.9c0-4.9 4-8.9 8.9-8.9s8.9 4 8.9 8.9-4 8.9-8.9 8.9-8.9-4-8.9-8.9zm49.7 23.5c-6.1 6.1-17.7 6.5-21.1 6.5-3.4 0-15.1-.5-21.1-6.5-.9-.9-.9-2.4 0-3.3.9-.9 2.4-.9 3.3 0 3.8 3.8 12 5.2 17.9 5.2 5.9 0 14-1.4 17.9-5.2.9-.9 2.4-.9 3.3 0 .7 1 .7 2.4-.2 3.3zm-1.6-14.6c-4.9 0-8.9-4-8.9-8.9s4-8.9 8.9-8.9 8.9 4 8.9 8.9-4 8.9-8.9 8.9z" id="path42" fill="#fff"></path></g></g></svg>