<svg xmlns="http://www.w3.org/2000/svg" viewBox="0 0 514.24 514.24"><g fill="#fafafa"><path d="M192 289.121l-16-.032v.032zM336 289.121h16l-16-.032z"></path></g><path d="M514.24 241.121c0-35.296-28.704-64-64-64-14.112 0-27.52 4.608-38.464 12.96-35.712-24.8-82.496-39.584-132.256-43.328l26.848-62.976 78.112 18.24c2.496 24.16 22.72 43.104 47.52 43.104 26.464 0 48-21.536 48-48s-21.536-48-48-48c-16.768 0-31.52 8.672-40.096 21.76l-91.296-21.344c-7.744-1.76-15.328 2.176-18.4 9.312l-37.12 87.04c-53.728 1.856-104.928 16.992-143.584 43.36C90.976 181.441 77.92 177.121 64 177.121c-35.296 0-64 28.704-64 64 0 23.392 12.768 44.544 32.352 55.392-.256 2.816-.352 5.696-.352 8.608 0 88.224 100.48 160 224 160 123.488 0 224-71.776 224-160 0-2.496-.096-4.96-.256-7.424 20.864-10.624 34.496-32.288 34.496-56.576z" fill="#ff9800"></path><g fill="#fafafa"><circle cx="432" cy="97.121" r="16"></circle><circle cx="176" cy="289.121" r="32"></circle><path d="M329.888 395.265c-22.08 15.968-48 23.968-73.888 23.968s-51.808-8-73.888-23.968c-7.168-5.184-8.768-15.2-3.584-22.336s15.2-8.736 22.336-3.584c32.992 23.84 77.28 23.904 110.272 0 7.136-5.152 17.12-3.616 22.336 3.584 5.184 7.168 3.552 17.152-3.584 22.336z"></path><circle cx="336" cy="289.121" r="32"></circle></g></svg>