<svg width="96" height="96" xmlns="http://www.w3.org/2000/svg"><defs><linearGradient id="prefix__a" x1="194.95" x2="412.45" y1="501.53" y2="719.03" gradientTransform="matrix(.32564 0 0 -.32075 -50.898 255.15)" gradientUnits="userSpaceOnUse"><stop stop-color="#25316A" offset="0"/><stop stop-color="#293269" offset=".061"/><stop stop-color="#343468" offset=".122"/><stop stop-color="#453764" offset=".183"/><stop stop-color="#5B3C60" offset=".245"/><stop stop-color="#764459" offset=".306"/><stop stop-color="#964D4F" offset=".368"/><stop stop-color="#BF5A3D" offset=".429"/><stop stop-color="#F36C21" offset=".487"/><stop stop-color="#9C9C9C" offset="1"/></linearGradient></defs><path class="prefix__st1" d="M72.847 40.478V14.112L48-.001 23.153 14.112v26.366L0 53.629v28.258L24.847 96 48 82.849 71.153 96 96 81.887V53.629zM48 52.634L28.233 41.408 48 30.182l19.767 11.226zm-21.427-8.307L46.34 55.553v22.452L26.573 66.779zm23.153 11.226l19.767-11.226v22.452L49.726 78.005zM26.573 16.037l21.46-12.188 21.46 12.188V38.52l-21.46-12.188-21.46 12.188zM3.42 79.962v-24.41l19.767-11.225v24.377l21.493 12.22-19.799 11.259zm89.194 0L71.154 92.15 51.355 80.892 72.848 68.67V44.294L92.615 55.52z" fill="url(#prefix__a)"/></svg>