<svg xmlns="http://www.w3.org/2000/svg" xmlns:xlink="http://www.w3.org/1999/xlink" width="17.727" height="23.482" viewBox="0 0 4.69 6.213"><defs><clipPath id="prefix__a"><path d="M37.75 41H47v14h-9.25zm0 0"/></clipPath><clipPath id="prefix__b"><path d="M42 38h8.508v8H42zm0 0"/></clipPath></defs><path d="M1.989 4.795l-.04.017c-.258.088-.627.216-.965.369-.017.008-.032.032-.032.032-.008.016-.016.031-.025.056-.04.088-.088.216-.111.265l-.017.041v.015l.009.008h.008l.04-.016c.096-.04.208-.112.33-.168h.007c.233-.113.498-.233.65-.314 0 0 .026-.016.04-.04l.122-.242v-.015c-.008-.008-.016-.008-.016-.008zm0 0" fill="#1ecc97"/><g clip-path="url(#prefix__a)" transform="matrix(.35278 0 0 .35278 -13.202 -13.288)"><path d="M40.371 50.23c.047-.09.274-.5.32-.613v-.023a41.212 41.212 0 0 1 5.286-7.723l.043-.07c.023-.024.023-.043 0-.067-.02-.023-.043-.047-.067-.023l-.09.023c-1.324.18-2.691.434-4.011.75-.137.047-.227.114-.227.137a44.61 44.61 0 0 0-2.828 3.762c-.043.066-.043.226-.043.226s.226 1.688.547 2.938c-.797 2.281-1.504 5.289-1.504 5.289v.043c.023.023.023.023.043.023h.457c.023 0 .047-.023.07-.047l.02-.09c.457-1.253.98-2.484 1.574-3.69.113-.274.41-.845.41-.845zm0 0" fill="#1ecc97"/></g><path d="M3.25 1.66v-.032c0-.008-.008-.016-.016-.025-.008 0-.015 0-.023.009l-.017.025A14.566 14.566 0 0 0 1.09 4.852l-.017.031c0 .009 0 .017.008.025.009.007.009.007.017.007h.008l.024-.007c.474-.193.956-.37 1.438-.507a.093.093 0 0 0 .065-.057c.208-.409.699-1.205.699-1.205.016-.016.008-.049.008-.049s-.08-.948-.088-1.43zm0 0" fill="#1ecc97"/><g clip-path="url(#prefix__b)" transform="matrix(.35278 0 0 .35278 -13.202 -13.288)"><path d="M49.71 38.5c-.339-.297-.82-.434-1.593-.457-.683-.023-1.527.137-2.46.434a.867.867 0 0 0-.34.226 46.137 46.137 0 0 0-2.735 2.8l-.07.071c-.024.024-.024.047 0 .067.023.023.047.046.07.023l.09-.023a46.314 46.314 0 0 1 4.215-.68c.09 0 .183.02.25.09.07.066.113.16.113.25-.02 1.39.023 2.781.16 4.125v.09a.05.05 0 0 0 .047.046h.023c.02 0 .043 0 .043-.023l.047-.07a39.529 39.529 0 0 1 2.528-3.235c.093-.113.136-.183.136-.297.32-1.777-.136-3.097-.523-3.437zm0 0" fill="#1ecc97"/></g><use height="100%" width="100%" xlink:href="#prefix__c" x="50.697" y="55.013" transform="matrix(.35278 0 0 .35278 -13.202 -13.288)" fill="#1ecc97"/><use height="100%" width="100%" xlink:href="#prefix__d" x="48.778" y="70.023" transform="matrix(.35278 0 0 .35278 -13.202 -13.288)" fill="#1e1e1e"/><use height="100%" width="100%" xlink:href="#prefix__d" x="79.524" y="70.023" transform="matrix(.35278 0 0 .35278 -13.202 -13.288)" fill="#1e1e1e"/><use height="100%" width="100%" xlink:href="#prefix__d" x="96.556" y="70.023" transform="matrix(.35278 0 0 .35278 -13.202 -13.288)" fill="#1e1e1e"/><use height="100%" width="100%" xlink:href="#prefix__d" x="125.322" y="70.023" transform="matrix(.35278 0 0 .35278 -13.202 -13.288)" fill="#1e1e1e"/><use height="100%" width="100%" xlink:href="#prefix__d" x="149.56" y="70.023" transform="matrix(.35278 0 0 .35278 -13.202 -13.288)" fill="#1e1e1e"/><use height="100%" width="100%" xlink:href="#prefix__d" x="164.294" y="70.023" transform="matrix(.35278 0 0 .35278 -13.202 -13.288)" fill="#1e1e1e"/><use height="100%" width="100%" xlink:href="#prefix__d" x="691.107" y="70.023" transform="matrix(.35278 0 0 .35278 -13.202 -13.288)" fill="#1e1e1e"/><use height="100%" width="100%" xlink:href="#prefix__d" x="702.562" y="70.023" transform="matrix(.35278 0 0 .35278 -13.202 -13.288)" fill="#1e1e1e"/><use height="100%" width="100%" xlink:href="#prefix__e" x="608.067" y="83.532" transform="matrix(.35278 0 0 .35278 -13.202 -13.288)" fill="#1e1e1e"/><use height="100%" width="100%" xlink:href="#prefix__d" x="654.973" y="83.532" transform="matrix(.35278 0 0 .35278 -13.202 -13.288)" fill="#1e1e1e"/><use height="100%" width="100%" xlink:href="#prefix__d" x="692.718" y="83.532" transform="matrix(.35278 0 0 .35278 -13.202 -13.288)" fill="#1e1e1e"/><use height="100%" width="100%" xlink:href="#prefix__d" x="649.235" y="97.042" transform="matrix(.35278 0 0 .35278 -13.202 -13.288)" fill="#1e1e1e"/><use height="100%" width="100%" xlink:href="#prefix__d" x="682.973" y="97.042" transform="matrix(.35278 0 0 .35278 -13.202 -13.288)" fill="#1e1e1e"/><use height="100%" width="100%" xlink:href="#prefix__d" x="710.207" y="97.042" transform="matrix(.35278 0 0 .35278 -13.202 -13.288)" fill="#1e1e1e"/><use height="100%" width="100%" xlink:href="#prefix__d" x="724.941" y="97.042" transform="matrix(.35278 0 0 .35278 -13.202 -13.288)" fill="#1e1e1e"/><use height="100%" width="100%" xlink:href="#prefix__f" x="104.408" y="168.341" transform="matrix(.35278 0 0 .35278 -13.202 -13.288)" fill="#1ecc97"/><use height="100%" width="100%" xlink:href="#prefix__g" x="63.062" y="199.113" transform="matrix(.35278 0 0 .35278 -13.202 -13.288)" fill="#1e1e1e"/><use height="100%" width="100%" xlink:href="#prefix__g" x="107.243" y="199.113" transform="matrix(.35278 0 0 .35278 -13.202 -13.288)" fill="#1e1e1e"/><use height="100%" width="100%" xlink:href="#prefix__g" x="68.945" y="226.132" transform="matrix(.35278 0 0 .35278 -13.202 -13.288)" fill="#1e1e1e"/><use height="100%" width="100%" xlink:href="#prefix__h" x="94.816" y="253.15" transform="matrix(.35278 0 0 .35278 -13.202 -13.288)" fill="#1e1e1e"/><use height="100%" width="100%" xlink:href="#prefix__f" x="98.369" y="304.936" transform="matrix(.35278 0 0 .35278 -13.202 -13.288)" fill="#1ecc97"/><use height="100%" width="100%" xlink:href="#prefix__f" x="130.24" y="304.936" transform="matrix(.35278 0 0 .35278 -13.202 -13.288)" fill="#1ecc97"/><use height="100%" width="100%" xlink:href="#prefix__i" x="263.171" y="310.94" transform="matrix(.35278 0 0 .35278 -13.202 -13.288)" fill="#1e1e1e"/><use height="100%" width="100%" xlink:href="#prefix__i" x="349.071" y="310.94" transform="matrix(.35278 0 0 .35278 -13.202 -13.288)" fill="#1e1e1e"/><use height="100%" width="100%" xlink:href="#prefix__i" x="363.735" y="310.94" transform="matrix(.35278 0 0 .35278 -13.202 -13.288)" fill="#1e1e1e"/><use height="100%" width="100%" xlink:href="#prefix__g" x="83.705" y="347.716" transform="matrix(.35278 0 0 .35278 -13.202 -13.288)" fill="#1e1e1e"/><use height="100%" width="100%" xlink:href="#prefix__g" x="107.05" y="374.735" transform="matrix(.35278 0 0 .35278 -13.202 -13.288)" fill="#1e1e1e"/><use height="100%" width="100%" xlink:href="#prefix__g" x="80.823" y="401.754" transform="matrix(.35278 0 0 .35278 -13.202 -13.288)" fill="#1e1e1e"/><use height="100%" width="100%" xlink:href="#prefix__f" x="531.785" y="157.834" transform="matrix(.35278 0 0 .35278 -13.202 -13.288)" fill="#1ecc97"/><use height="100%" width="100%" xlink:href="#prefix__j" x="51.913" y="560.864" transform="matrix(.35278 0 0 .35278 -13.202 -13.288)" fill="#575757"/><use height="100%" width="100%" xlink:href="#prefix__j" x="89.798" y="560.864" transform="matrix(.35278 0 0 .35278 -13.202 -13.288)" fill="#575757"/><use height="100%" width="100%" xlink:href="#prefix__j" x="108.102" y="560.864" transform="matrix(.35278 0 0 .35278 -13.202 -13.288)" fill="#575757"/><use height="100%" width="100%" xlink:href="#prefix__j" x="118.969" y="560.864" transform="matrix(.35278 0 0 .35278 -13.202 -13.288)" fill="#575757"/><use height="100%" width="100%" xlink:href="#prefix__j" x="157.645" y="560.864" transform="matrix(.35278 0 0 .35278 -13.202 -13.288)" fill="#575757"/><use height="100%" width="100%" xlink:href="#prefix__j" x="164.214" y="560.864" transform="matrix(.35278 0 0 .35278 -13.202 -13.288)" fill="#575757"/><use height="100%" width="100%" xlink:href="#prefix__j" x="177.767" y="560.864" transform="matrix(.35278 0 0 .35278 -13.202 -13.288)" fill="#575757"/><use height="100%" width="100%" xlink:href="#prefix__j" x="209.99" y="560.864" transform="matrix(.35278 0 0 .35278 -13.202 -13.288)" fill="#575757"/><use height="100%" width="100%" xlink:href="#prefix__j" x="219.151" y="560.864" transform="matrix(.35278 0 0 .35278 -13.202 -13.288)" fill="#575757"/><use height="100%" width="100%" xlink:href="#prefix__j" x="227.672" y="560.864" transform="matrix(.35278 0 0 .35278 -13.202 -13.288)" fill="#575757"/><use height="100%" width="100%" xlink:href="#prefix__j" x="253.753" y="560.864" transform="matrix(.35278 0 0 .35278 -13.202 -13.288)" fill="#575757"/><use height="100%" width="100%" xlink:href="#prefix__j" x="276.975" y="560.864" transform="matrix(.35278 0 0 .35278 -13.202 -13.288)" fill="#575757"/><use height="100%" width="100%" xlink:href="#prefix__j" x="290.552" y="560.864" transform="matrix(.35278 0 0 .35278 -13.202 -13.288)" fill="#575757"/><use height="100%" width="100%" xlink:href="#prefix__j" x="311.317" y="560.864" transform="matrix(.35278 0 0 .35278 -13.202 -13.288)" fill="#575757"/><use height="100%" width="100%" xlink:href="#prefix__j" x="334.024" y="560.864" transform="matrix(.35278 0 0 .35278 -13.202 -13.288)" fill="#575757"/><use height="100%" width="100%" xlink:href="#prefix__j" x="349.266" y="560.864" transform="matrix(.35278 0 0 .35278 -13.202 -13.288)" fill="#575757"/><use height="100%" width="100%" xlink:href="#prefix__j" x="385.777" y="560.864" transform="matrix(.35278 0 0 .35278 -13.202 -13.288)" fill="#575757"/><use height="100%" width="100%" xlink:href="#prefix__j" x="425.008" y="560.864" transform="matrix(.35278 0 0 .35278 -13.202 -13.288)" fill="#575757"/><use height="100%" width="100%" xlink:href="#prefix__j" x="449.702" y="560.864" transform="matrix(.35278 0 0 .35278 -13.202 -13.288)" fill="#575757"/><use height="100%" width="100%" xlink:href="#prefix__j" x="479.133" y="560.864" transform="matrix(.35278 0 0 .35278 -13.202 -13.288)" fill="#575757"/><use height="100%" width="100%" xlink:href="#prefix__j" x="489.434" y="560.864" transform="matrix(.35278 0 0 .35278 -13.202 -13.288)" fill="#575757"/><use height="100%" width="100%" xlink:href="#prefix__j" x="548.837" y="560.864" transform="matrix(.35278 0 0 .35278 -13.202 -13.288)" fill="#575757"/><use height="100%" width="100%" xlink:href="#prefix__j" x="557.997" y="560.864" transform="matrix(.35278 0 0 .35278 -13.202 -13.288)" fill="#575757"/><use height="100%" width="100%" xlink:href="#prefix__j" x="571.574" y="560.864" transform="matrix(.35278 0 0 .35278 -13.202 -13.288)" fill="#575757"/><use height="100%" width="100%" xlink:href="#prefix__j" x="587.622" y="560.864" transform="matrix(.35278 0 0 .35278 -13.202 -13.288)" fill="#575757"/><use height="100%" width="100%" xlink:href="#prefix__j" x="602.863" y="560.864" transform="matrix(.35278 0 0 .35278 -13.202 -13.288)" fill="#575757"/><use height="100%" width="100%" xlink:href="#prefix__j" x="616.417" y="560.864" transform="matrix(.35278 0 0 .35278 -13.202 -13.288)" fill="#575757"/><use height="100%" width="100%" xlink:href="#prefix__j" x="625.577" y="560.864" transform="matrix(.35278 0 0 .35278 -13.202 -13.288)" fill="#575757"/><use height="100%" width="100%" xlink:href="#prefix__j" x="639.154" y="560.864" transform="matrix(.35278 0 0 .35278 -13.202 -13.288)" fill="#575757"/><use height="100%" width="100%" xlink:href="#prefix__j" x="680.806" y="560.864" transform="matrix(.35278 0 0 .35278 -13.202 -13.288)" fill="#575757"/><use height="100%" width="100%" xlink:href="#prefix__j" x="710.609" y="560.864" transform="matrix(.35278 0 0 .35278 -13.202 -13.288)" fill="#575757"/><use height="100%" width="100%" xlink:href="#prefix__j" x="741.929" y="560.864" transform="matrix(.35278 0 0 .35278 -13.202 -13.288)" fill="#575757"/><use height="100%" width="100%" xlink:href="#prefix__j" x="56.214" y="569.12" transform="matrix(.35278 0 0 .35278 -13.202 -13.288)" fill="#575757"/><use height="100%" width="100%" xlink:href="#prefix__j" x="87.344" y="569.12" transform="matrix(.35278 0 0 .35278 -13.202 -13.288)" fill="#575757"/><use height="100%" width="100%" xlink:href="#prefix__j" x="118.664" y="569.12" transform="matrix(.35278 0 0 .35278 -13.202 -13.288)" fill="#575757"/><use height="100%" width="100%" xlink:href="#prefix__j" x="129.5" y="569.12" transform="matrix(.35278 0 0 .35278 -13.202 -13.288)" fill="#575757"/><use height="100%" width="100%" xlink:href="#prefix__j" x="147.287" y="569.12" transform="matrix(.35278 0 0 .35278 -13.202 -13.288)" fill="#575757"/><use height="100%" width="100%" xlink:href="#prefix__j" x="177.1" y="569.12" transform="matrix(.35278 0 0 .35278 -13.202 -13.288)" fill="#575757"/><use height="100%" width="100%" xlink:href="#prefix__j" x="202.264" y="569.12" transform="matrix(.35278 0 0 .35278 -13.202 -13.288)" fill="#575757"/><use height="100%" width="100%" xlink:href="#prefix__j" x="213.131" y="569.12" transform="matrix(.35278 0 0 .35278 -13.202 -13.288)" fill="#575757"/><use height="100%" width="100%" xlink:href="#prefix__j" x="243.811" y="569.12" transform="matrix(.35278 0 0 .35278 -13.202 -13.288)" fill="#575757"/><use height="100%" width="100%" xlink:href="#prefix__j" x="252.971" y="569.12" transform="matrix(.35278 0 0 .35278 -13.202 -13.288)" fill="#575757"/><use height="100%" width="100%" xlink:href="#prefix__j" x="266.548" y="569.12" transform="matrix(.35278 0 0 .35278 -13.202 -13.288)" fill="#575757"/><use height="100%" width="100%" xlink:href="#prefix__j" x="287.762" y="569.12" transform="matrix(.35278 0 0 .35278 -13.202 -13.288)" fill="#575757"/><use height="100%" width="100%" xlink:href="#prefix__j" x="321.244" y="569.12" transform="matrix(.35278 0 0 .35278 -13.202 -13.288)" fill="#575757"/><use height="100%" width="100%" xlink:href="#prefix__j" x="339.031" y="569.12" transform="matrix(.35278 0 0 .35278 -13.202 -13.288)" fill="#575757"/><use height="100%" width="100%" xlink:href="#prefix__j" x="371.048" y="569.12" transform="matrix(.35278 0 0 .35278 -13.202 -13.288)" fill="#575757"/><use height="100%" width="100%" xlink:href="#prefix__j" x="394.54" y="569.12" transform="matrix(.35278 0 0 .35278 -13.202 -13.288)" fill="#575757"/><use height="100%" width="100%" xlink:href="#prefix__j" x="425.427" y="569.12" transform="matrix(.35278 0 0 .35278 -13.202 -13.288)" fill="#575757"/><use height="100%" width="100%" xlink:href="#prefix__j" x="443.214" y="569.12" transform="matrix(.35278 0 0 .35278 -13.202 -13.288)" fill="#575757"/><use height="100%" width="100%" xlink:href="#prefix__j" x="473.027" y="569.12" transform="matrix(.35278 0 0 .35278 -13.202 -13.288)" fill="#575757"/><use height="100%" width="100%" xlink:href="#prefix__j" x="503.846" y="569.12" transform="matrix(.35278 0 0 .35278 -13.202 -13.288)" fill="#575757"/><use height="100%" width="100%" xlink:href="#prefix__k" x="522.203" y="569.12" transform="matrix(.35278 0 0 .35278 -13.202 -13.288)" fill="#1e1e1e"/><use height="100%" width="100%" xlink:href="#prefix__k" x="564.914" y="569.12" transform="matrix(.35278 0 0 .35278 -13.202 -13.288)" fill="#1e1e1e"/><use height="100%" width="100%" xlink:href="#prefix__k" x="593.418" y="569.12" transform="matrix(.35278 0 0 .35278 -13.202 -13.288)" fill="#1e1e1e"/><use height="100%" width="100%" xlink:href="#prefix__k" x="605.492" y="569.12" transform="matrix(.35278 0 0 .35278 -13.202 -13.288)" fill="#1e1e1e"/><use height="100%" width="100%" xlink:href="#prefix__k" x="640.985" y="569.12" transform="matrix(.35278 0 0 .35278 -13.202 -13.288)" fill="#1e1e1e"/><use height="100%" width="100%" xlink:href="#prefix__k" x="654.592" y="569.12" transform="matrix(.35278 0 0 .35278 -13.202 -13.288)" fill="#1e1e1e"/><use height="100%" width="100%" xlink:href="#prefix__k" x="685.107" y="569.12" transform="matrix(.35278 0 0 .35278 -13.202 -13.288)" fill="#1e1e1e"/><use height="100%" width="100%" xlink:href="#prefix__k" x="699.98" y="569.12" transform="matrix(.35278 0 0 .35278 -13.202 -13.288)" fill="#1e1e1e"/></svg>