<svg xmlns="http://www.w3.org/2000/svg" viewBox="0 0 300 300" height="300" width="300"><path d="M251.517 1C277.737 1 299 22.259 299 48.487v203.03c0 26.22-21.263 47.483-47.483 47.483H48.487C22.263 299 1 277.737 1 251.517V48.487C1 22.26 22.263 1 48.487 1h203.03z" fill="#fffc00"></path><path d="M151.095 252.332c-.564 0-1.114-.018-1.67-.044-.353.03-.72.044-1.088.044-12.932 0-21.232-5.866-29.261-11.543-5.542-3.916-10.774-7.614-16.936-8.64a54.6 54.6 0 0 0-8.89-.748c-5.215 0-9.323.804-12.326 1.39-1.822.358-3.396.664-4.593.664-1.25 0-2.6-.27-3.19-2.281-.512-1.744-.88-3.427-1.238-5.062-.917-4.195-1.569-6.779-3.326-7.05-20.511-3.168-26.385-7.49-27.692-10.555a3.907 3.907 0 0 1-.315-1.31 2.305 2.305 0 0 1 1.932-2.41c31.53-5.191 45.669-37.42 46.259-38.789.013-.035.03-.074.048-.109 1.932-3.912 2.308-7.308 1.128-10.092-2.164-5.096-9.222-7.338-13.895-8.82-1.14-.363-2.224-.703-3.08-1.044-9.324-3.685-10.097-7.465-9.73-9.393.625-3.287 5.013-5.577 8.566-5.577.97 0 1.827.175 2.549.512 4.195 1.962 7.972 2.958 11.237 2.958 4.506 0 6.472-1.892 6.713-2.141-.118-2.133-.258-4.362-.402-6.665-.94-14.904-2.107-33.432 2.613-44.004 14.135-31.692 44.11-34.157 52.96-34.157.227 0 3.88-.04 3.88-.04h.525c8.868 0 38.912 2.466 53.056 34.18 4.716 10.576 3.549 29.117 2.609 44.012l-.04.651a682.032 682.032 0 0 0-.362 6.018c.227.232 2.037 1.972 6.119 2.129h.004c3.108-.118 6.674-1.11 10.59-2.941 1.145-.538 2.422-.652 3.287-.652 1.329 0 2.67.258 3.785.721l.07.031c3.164 1.123 5.24 3.34 5.284 5.66.044 2.185-1.626 5.468-9.803 8.698-.848.336-1.932.677-3.082 1.044-4.676 1.482-11.73 3.724-13.894 8.82-1.18 2.784-.804 6.176 1.128 10.088.017.04.035.074.052.113.586 1.368 14.712 33.589 46.26 38.786a2.314 2.314 0 0 1 1.93 2.408 3.897 3.897 0 0 1-.323 1.32c-1.302 3.042-7.167 7.36-27.683 10.529-1.679.257-2.33 2.443-3.33 7.023-.363 1.665-.73 3.304-1.238 5.027-.437 1.494-1.368 2.194-2.937 2.194h-.253c-1.088 0-2.631-.197-4.59-.582-3.474-.677-7.368-1.302-12.325-1.302-2.893 0-5.887.249-8.898.747-6.154 1.027-11.381 4.716-16.915 8.628-8.042 5.69-16.342 11.556-29.279 11.556" fill="#fff"></path><path d="M151.872 49.738c8.396 0 37.317 2.255 50.945 32.81 4.488 10.057 3.339 28.283 2.417 42.924a618.285 618.285 0 0 0-.402 6.727l-.053.922.62.69c.246.276 2.58 2.715 7.767 2.916l.088.004.083-.004c3.43-.131 7.295-1.193 11.495-3.16.612-.289 1.438-.429 2.307-.429.993 0 2.046.184 2.916.551l.13.053c2.2.769 3.755 2.224 3.781 3.54.014.747-.546 3.422-8.343 6.503-.765.302-1.77.621-2.933.988-5.074 1.613-12.74 4.043-15.323 10.118-1.451 3.431-1.058 7.474 1.184 12.02.922 2.146 15.402 34.781 48.007 40.153a1.524 1.524 0 0 1-.135.524c-.55 1.303-4.065 5.796-25.918 9.165-3.422.53-4.257 4.362-5.232 8.82-.345 1.591-.708 3.2-1.197 4.865-.149.503-.175.533-.717.533h-.258c-.966 0-2.443-.2-4.148-.533-3.099-.608-7.342-1.35-12.766-1.35-3.025 0-6.146.266-9.275.782-6.687 1.114-12.129 4.96-17.89 9.03-7.73 5.472-15.73 11.123-27.928 11.123-.528 0-1.049-.018-1.573-.044l-.136-.004-.14.009c-.297.026-.598.039-.908.039-12.199 0-20.197-5.651-27.929-11.12-5.76-4.073-11.202-7.919-17.885-9.033a57.257 57.257 0 0 0-9.274-.783c-5.424 0-9.668.827-12.771 1.434-1.705.337-3.178.62-4.148.62-.787 0-.804-.043-.97-.616-.49-1.665-.853-3.317-1.198-4.908-.975-4.458-1.818-8.313-5.232-8.842-21.857-3.374-25.367-7.876-25.922-9.174a1.548 1.548 0 0 1-.131-.533c32.6-5.371 47.085-38.003 48.007-40.157 2.238-4.546 2.636-8.584 1.18-12.015-2.578-6.08-10.244-8.51-15.323-10.123-1.163-.367-2.168-.686-2.929-.988-6.59-2.605-8.614-5.223-8.308-6.813.345-1.832 3.523-3.694 6.294-3.694.62 0 1.167.096 1.569.289 4.501 2.106 8.614 3.177 12.216 3.177 5.664 0 8.19-2.635 8.457-2.937l.616-.686-.052-.918c-.114-2.15-.258-4.397-.402-6.718-.923-14.646-2.072-32.858 2.417-42.92 13.575-30.441 42.351-32.788 50.848-32.788.21 0 3.903-.035 3.903-.035.157-.004.323-.004.502-.004m0-4.62h-.555s-3.57.035-3.855.035c-9.195 0-40.363 2.565-55.065 35.529-4.948 11.093-3.764 29.93-2.81 45.066.113 1.783.23 3.636.331 5.428-.76.42-2.15.944-4.335.944-2.92 0-6.368-.918-10.254-2.74-1.031-.481-2.22-.726-3.531-.726-4.55 0-9.992 2.994-10.835 7.452-.612 3.213.826 7.898 11.15 11.976.93.371 2.05.725 3.234 1.097 4.265 1.355 10.712 3.4 12.465 7.522.904 2.137.542 4.886-1.075 8.164-.035.074-.07.149-.101.227-.568 1.32-14.213 32.426-44.51 37.413a4.626 4.626 0 0 0-3.864 4.821c.039.704.205 1.399.49 2.076 2.276 5.315 11.865 9.213 29.33 11.923.586.787 1.194 3.575 1.565 5.276.363 1.678.739 3.404 1.276 5.231.525 1.792 1.893 3.934 5.407 3.934 1.42 0 3.099-.328 5.035-.708 2.91-.568 6.897-1.346 11.884-1.346 2.766 0 5.634.24 8.518.716 5.634.94 10.424 4.327 15.966 8.243 7.942 5.617 16.936 11.972 30.604 11.972.375 0 .751-.01 1.127-.04.442.022 1.019.04 1.63.04 13.672 0 22.667-6.355 30.6-11.967 5.554-3.925 10.34-7.308 15.974-8.248a52.481 52.481 0 0 1 8.519-.716c4.76 0 8.522.603 11.879 1.258 2.107.416 3.798.625 5.035.625h.258c2.596 0 4.427-1.372 5.153-3.859.529-1.788.905-3.47 1.276-5.175.372-1.696.975-4.471 1.556-5.258 17.47-2.71 27.059-6.6 29.331-11.892a6.21 6.21 0 0 0 .499-2.09 4.62 4.62 0 0 0-3.864-4.816c-30.31-4.996-43.947-36.097-44.51-37.417a2.559 2.559 0 0 0-.106-.223c-1.617-3.282-1.975-6.027-1.07-8.164 1.748-4.122 8.195-6.167 12.46-7.518 1.194-.38 2.312-.738 3.235-1.101 7.557-2.985 11.346-6.648 11.267-10.892-.065-3.335-2.662-6.307-6.787-7.78l-.014-.004c-1.385-.577-3.033-.892-4.646-.892-1.105 0-2.74.149-4.27.866-3.592 1.682-6.822 2.6-9.606 2.723-1.85-.083-3.055-.551-3.746-.931.087-1.534.188-3.117.288-4.769l.04-.642c.957-15.145 2.141-34-2.806-45.097-14.712-32.98-45.945-35.546-55.167-35.546" fill="#030303"></path></svg>