<svg xmlns="http://www.w3.org/2000/svg" width="24" height="24" viewBox="0 0 128 128"><path fill="#f47c20" d="M53.046 7.895c-.436 0-.877.211-1.202.435L.491 59.683c-.654.765-.654 1.966 0 2.624l48.619 48.619c.329.33.876.546 1.312.546.44 0 .877-.217 1.202-.435l7.321-7.431c.654-.765.654-1.966 0-2.624L20.812 62.744a2.44 2.44 0 0 1 0-3.495l48.189-48.294c.654-.654.653-1.425.435-1.969a1.724 1.724 0 0 0-1.643-1.091zm24.693 8.412c-.547 0-.983.217-1.312.546l-7.426 7.426c-.658.765-.658 1.966 0 2.624l38.238 38.244c.547.44.766 1.094.766 1.748 0 .658-.326 1.312-.766 1.748l-48.294 48.294c-.658.658-.653 1.417-.435 1.968a1.726 1.726 0 0 0 1.637 1.092v.11H74.79c.547 0 .981-.217 1.306-.546l51.359-51.353a1.8 1.8 0 0 0 .546-1.312c0-.543-.217-.987-.546-1.312L78.941 16.96c-.325-.325-.655-.65-1.202-.65zM61.053 33.185c-.655-.071-1.311.44-1.231 1.26.765 11.8-14.097 14.748-14.097 33.21v.11c0 11.256 8.523 20.437 19.014 20.437 10.487 0 19.009-9.18 19.009-20.437v-.11c0-5.244-1.965-10.267-3.931-13.981-.436-.765-1.53-.438-1.422.214 3.607 15.953-5.353 25.79-5.353 13.551 0-20.868-7.43-30.379-11.362-33.982a1.145 1.145 0 0 0-.627-.273z"></path></svg>