<svg xmlns="http://www.w3.org/2000/svg" version="1.1" id="prefix___x32_-Color_Gray__x2B__Orange" x="0" y="0" xml:space="preserve" width="63.4" height="129.3"><style type="text/css" id="style2"></style><g id="prefix__g8" transform="translate(-336.4 -.3)"><g id="prefix__g6"><path d="M389.4 50.7c-6.7 5-8 13.9-8.2 19.9-10.6-12.2 19.5-48.1-14.7-70.3 21.2 27.4-30.1 54.3-30.1 94.7 0 15.8 9.9 29.8 31.6 34.6 21.3-4.5 31.8-18.8 31.8-34.6 0-23.5-14.7-31.4-10.4-44.3zm-21.3 66c-11.6 0-21-9.4-21-21s9.4-21 21-21 21 9.4 21 21-9.4 21-21 21z" id="prefix__path4" fill="#fa6423"/></g></g></svg>