<?xml version="1.0" encoding="UTF-8" standalone="no"?>
<!-- Generator: Adobe Illustrator 23.0.1, SVG Export Plug-In . SVG Version: 6.00 Build 0)  -->

<svg
   xmlns:dc="http://purl.org/dc/elements/1.1/"
   xmlns:cc="http://creativecommons.org/ns#"
   xmlns:rdf="http://www.w3.org/1999/02/22-rdf-syntax-ns#"
   xmlns:svg="http://www.w3.org/2000/svg"
   xmlns="http://www.w3.org/2000/svg"
   xmlns:sodipodi="http://sodipodi.sourceforge.net/DTD/sodipodi-0.dtd"
   xmlns:inkscape="http://www.inkscape.org/namespaces/inkscape"
   version="1.1"
   id="Ebene_1"
   x="0px"
   y="0px"
   viewBox="0 0 896.80001 212.9"
   xml:space="preserve"
   sodipodi:docname="stackfield.svg"
   width="896.79999"
   height="212.89999"
   inkscape:version="0.92.4 (5da689c313, 2019-01-14)"><metadata
   id="metadata31"><rdf:RDF><cc:Work
       rdf:about=""><dc:format>image/svg+xml</dc:format><dc:type
         rdf:resource="http://purl.org/dc/dcmitype/StillImage" /><dc:title></dc:title></cc:Work></rdf:RDF></metadata><defs
   id="defs29" /><sodipodi:namedview
   pagecolor="#ffffff"
   bordercolor="#666666"
   borderopacity="1"
   objecttolerance="10"
   gridtolerance="10"
   guidetolerance="10"
   inkscape:pageopacity="0"
   inkscape:pageshadow="2"
   inkscape:window-width="1920"
   inkscape:window-height="1017"
   id="namedview27"
   showgrid="false"
   fit-margin-top="0"
   fit-margin-left="0"
   fit-margin-right="0"
   fit-margin-bottom="0"
   inkscape:zoom="0.38705777"
   inkscape:cx="446.24999"
   inkscape:cy="106.5"
   inkscape:window-x="-8"
   inkscape:window-y="-8"
   inkscape:window-maximized="1"
   inkscape:current-layer="Ebene_1" />
<style
   type="text/css"
   id="style2">
	.st0{fill:#006BB6;}
	.st1{fill:#FFFFFF;}
</style>
<rect
   x="0"
   y="0"
   class="st0"
   width="896.79999"
   height="212.89999"
   id="rect4"
   style="fill:#006bb6" />
<path
   class="st1"
   d="m 77.800001,176.9 c -7.5,0 -14.1,-0.7 -19.6,-2 -5.5,-1.3 -10.1,-3.3 -13.8,-6 -3.7,-2.7 -6.5,-6 -8.4,-10 -1.9,-4 -3.1,-8.8 -3.4,-14.2 h 26.1 c 0.2,5.1 1.8,9 4.8,11.6 3,2.7 7.7,4 14.2,4 5.5,0 9.7,-1 12.6,-3.1 2.9,-2.1 4.4,-5.1 4.4,-9 0,-2 -0.4,-3.6 -1.3,-4.9 -0.9,-1.3 -2.2,-2.3 -4.1,-3.3 -1.9,-0.9 -4.2,-1.8 -7.1,-2.6 -2.9,-0.8 -6.3,-1.7 -10.4,-2.7 -4.8,-1.2 -9.5,-2.5 -13.9,-3.9 -4.4,-1.4 -8.3,-3.3 -11.7,-5.6 -3.4,-2.3 -6.1,-5.2 -8,-8.8 -2,-3.5 -3,-8.1 -3,-13.7 0,-4.4 0.9,-8.4 2.7,-12.2 1.8,-3.8 4.5,-7 8,-9.7 3.5,-2.7 7.9,-4.8 13,-6.4 5.1,-1.5 11,-2.3 17.7,-2.3 14.1,0 24.499999,2.5 31.299999,7.5 6.8,5 10.4,12.3 10.6,21.8 H 93.600001 c -0.2,-4.1 -1.7,-7.3 -4.6,-9.4 -2.9,-2.2 -7,-3.3 -12.2,-3.3 -4.4,0 -8.1,0.9 -10.9,2.7 -2.8,1.8 -4.2,4.5 -4.2,7.9 0,1.8 0.3,3.2 0.8,4.4 0.6,1.2 1.6,2.2 3.2,3.1 1.5,0.9 3.8,1.8 6.6,2.7 2.9,0.8 6.6,1.8 11.3,3 6.2,1.5 11.6,3 16.3,4.5 4.699999,1.6 8.599999,3.5 11.699999,5.9 3.1,2.3 5.5,5.2 7.1,8.7 1.6,3.4 2.4,7.7 2.4,12.9 0,4.7 -0.9,9 -2.6,12.9 -1.7,3.9 -4.3,7.3 -7.9,10.2 -3.6,2.9 -8.1,5.1 -13.599999,6.7 -5.1,1.8 -11.7,2.6 -19.2,2.6"
   id="path6"
   inkscape:connector-curvature="0"
   style="fill:#ffffff" />
<path
   class="st1"
   d="m 182.6,175.4 c -4.2,1 -9.3,1.4 -15.4,1.4 -7.4,0 -13.1,-1 -17.2,-2.9 -4.1,-1.9 -7,-4.7 -8.9,-8.3 -1.9,-3.6 -3,-7.9 -3.4,-12.9 -0.4,-5 -0.5,-10.7 -0.5,-16.9 V 97.1 h -13 V 76.6 h 13 V 41.5 l 28.2,-5.2 v 40.3 h 16.2 V 97.1 H 165.4 V 141 c 0,3.1 0.2,5.7 0.7,7.7 0.4,2 1.1,3.6 1.8,4.7 0.8,1.1 1.8,1.9 2.9,2.3 1.2,0.4 2.4,0.7 3.9,0.7 2.7,0 5.3,-0.2 7.9,-0.7 z"
   id="path8"
   inkscape:connector-curvature="0"
   style="fill:#ffffff" />
<path
   class="st1"
   d="m 259.6,165.9 c -4.4,3.8 -9.4,6.6 -14.7,8.3 -5.4,1.7 -11.5,2.6 -18.5,2.6 -5,0 -9.6,-0.6 -13.8,-1.8 -4.2,-1.2 -7.8,-3 -10.9,-5.4 -3.1,-2.4 -5.4,-5.4 -7.1,-9 -1.7,-3.6 -2.6,-7.7 -2.6,-12.5 0,-11.7 4.9,-20.3 14.6,-25.8 9.7,-5.6 24.5,-8.3 44.3,-8.3 h 8.2 c 0,-1.6 0,-3.3 -0.1,-5.1 0,-1.8 -0.2,-3.4 -0.4,-4.7 -0.5,-4.7 -2.1,-8.2 -4.8,-10.5 -2.7,-2.3 -7,-3.5 -13,-3.5 -6.2,0 -10.8,1.2 -13.9,3.6 -3.1,2.4 -4.6,5.8 -4.6,10.4 h -26.1 c 1.4,-20.2 16.6,-30.3 45.6,-30.3 4,0 7.5,0.1 10.7,0.4 3.2,0.2 6.1,0.7 8.8,1.3 2.7,0.6 5.1,1.4 7.4,2.3 2.3,0.9 4.6,2.1 6.8,3.5 2.1,1.4 3.9,2.9 5.4,4.6 1.5,1.7 2.8,3.8 3.8,6.1 1,2.4 1.8,5.1 2.3,8.2 0.5,3.1 0.7,6.7 0.7,10.7 v 63.7 h -28 v -8.8 z M 259,130.1 h -9.2 c -9.7,0 -17,1.2 -21.8,3.6 -4.8,2.4 -7.3,6.6 -7.3,12.4 0,4.5 1.5,7.9 4.5,10 3,2.1 6.9,3.2 11.6,3.2 4.5,0 8.8,-0.9 12.7,-2.8 3.9,-1.9 7.1,-4.3 9.5,-7.2 z"
   id="path10"
   inkscape:connector-curvature="0"
   style="fill:#ffffff" />
<path
   class="st1"
   d="m 346.1,176.9 c -7.8,0 -14.8,-1.2 -21,-3.5 -6.2,-2.3 -11.4,-5.6 -15.7,-10 -4.3,-4.4 -7.6,-9.7 -9.9,-16.1 -2.3,-6.4 -3.5,-13.7 -3.5,-21.9 0,-8.2 1.1,-15.4 3.5,-21.8 2.3,-6.4 5.6,-11.7 10,-16.1 4.4,-4.4 9.7,-7.8 15.9,-10.1 6.2,-2.3 13.3,-3.5 21.1,-3.5 12.6,0 22.7,3 30.3,9.1 7.5,6 12,14.8 13.2,26.3 h -25.8 c -0.6,-4.5 -2.5,-8.1 -5.5,-10.8 -3.1,-2.7 -7.1,-4 -12.1,-4 -6.4,0 -11.6,2.5 -15.4,7.4 -3.9,5 -5.8,12.8 -5.8,23.5 0,10.6 1.9,18.5 5.8,23.5 3.9,5 9,7.5 15.4,7.5 5,0 9.1,-1.3 12.1,-4.1 3.1,-2.7 4.9,-6.3 5.5,-10.8 H 390 c -1.6,11.4 -6.1,20.1 -13.5,26.2 -7.4,6.1 -17.5,9.2 -30.4,9.2"
   id="path12"
   inkscape:connector-curvature="0"
   style="fill:#ffffff" />
<polygon
   class="st1"
   points="479.9,223.4 479.6,268.7 451.2,268.9 451.2,133.6 479.8,128.4 479.8,218.6 511,170.4 546,170.4 509.3,219.5 543.7,268.9 508.8,268.9 "
   id="polygon14"
   style="fill:#ffffff"
   transform="translate(-49.799999,-92)" />
<path
   class="st1"
   d="m 541.6,98.9 v 78 H 513 v -78 H 498.8 V 78.4 H 513 v -6.9 c 0,-11.9 2.7,-20.6 8.1,-26.1 5.4,-5.5 13.7,-8.3 24.8,-8.3 3.5,0 6.6,0.2 9.5,0.5 2.8,0.4 5.5,0.9 7.9,1.5 v 20.7 c -1.8,-0.2 -3.6,-0.5 -5.4,-0.7 -1.8,-0.2 -3.7,-0.3 -5.8,-0.3 -3.8,0 -6.5,1 -8.1,3.1 -1.6,2.1 -2.4,5.5 -2.4,10.2 v 6.2 h 17.3 v 20.5 h -17.3 z"
   id="path16"
   inkscape:connector-curvature="0"
   style="fill:#ffffff" />
<path
   class="st1"
   d="M 601.4,62.4 H 572.8 V 39.8 h 28.6 z m 0,114.5 H 572.8 V 78.4 h 28.6 z"
   id="path18"
   inkscape:connector-curvature="0"
   style="fill:#ffffff" />
<path
   class="st1"
   d="m 664.9,176.9 c -8.3,0 -15.6,-1.2 -22,-3.5 -6.4,-2.4 -11.9,-5.8 -16.3,-10.2 -4.4,-4.4 -7.7,-9.9 -10,-16.2 -2.3,-6.4 -3.4,-13.6 -3.4,-21.7 0,-8.2 1.1,-15.5 3.5,-21.9 2.3,-6.5 5.6,-11.9 9.9,-16.4 4.3,-4.5 9.6,-7.9 15.8,-10.3 6.2,-2.4 13.3,-3.5 21.3,-3.5 7.7,0 14.6,1.1 20.8,3.4 6.2,2.2 11.4,5.5 15.7,9.9 4.3,4.3 7.6,9.7 9.9,16.1 2.3,6.4 3.5,13.7 3.5,21.9 v 7 h -71 c 0.1,5 0.7,9.2 1.8,12.7 1.1,3.5 2.7,6.4 4.7,8.7 2,2.3 4.3,4 7,5 2.7,1 5.6,1.6 8.9,1.6 5.3,0 9.7,-1.1 13.1,-3.4 3.4,-2.2 5.7,-5.9 6.9,-10.9 h 26.7 c -1,5.2 -2.8,9.8 -5.5,13.8 -2.7,4 -6.1,7.3 -10.1,10 -4,2.7 -8.7,4.7 -13.9,6.1 -5.4,1.1 -11.1,1.8 -17.3,1.8 m 20.2,-62.6 c -0.6,-8.5 -2.8,-14.8 -6.4,-18.8 -3.6,-4 -8.6,-6.1 -15.1,-6.1 -5.9,0 -10.7,2.2 -14.6,6.6 -3.9,4.4 -6,10.5 -6.4,18.3 z"
   id="path20"
   inkscape:connector-curvature="0"
   style="fill:#ffffff" />
<polygon
   class="st1"
   points="775.9,134.5 804.5,129.3 804.5,268.9 775.9,268.9 "
   id="polygon22"
   style="fill:#ffffff"
   transform="translate(-49.799999,-92)" />
<path
   class="st1"
   d="m 833.6,162.6 c -4,4.6 -8.4,8.1 -13.3,10.6 -4.9,2.5 -10.2,3.7 -16,3.7 -6.4,0 -12.1,-1.2 -17,-3.5 -4.9,-2.3 -9.1,-5.6 -12.4,-10 -3.3,-4.4 -5.9,-9.7 -7.6,-16 -1.7,-6.3 -2.6,-13.4 -2.6,-21.3 0,-7.8 1,-14.9 2.9,-21.3 1.9,-6.4 4.6,-11.9 8.2,-16.5 3.6,-4.6 7.9,-8.1 13,-10.6 5.1,-2.5 10.9,-3.8 17.3,-3.8 5.7,0 10.7,0.8 15,2.3 4.2,1.5 8.1,3.9 11.5,7.3 V 41.2 L 861.1,36 v 138.8 h -27.5 z m -1,-60.3 c -2.8,-2.5 -5.7,-4.5 -8.9,-5.8 -3.1,-1.3 -6.6,-2 -10.4,-2 -6.3,0 -11.1,2.6 -14.4,7.9 -3.3,5.3 -4.9,13.2 -4.9,23.8 0,20.2 6,30.3 18.1,30.3 3.9,0 7.5,-1.2 10.9,-3.5 3.4,-2.3 6.6,-5.5 9.6,-9.6 z"
   id="path24"
   inkscape:connector-curvature="0"
   style="fill:#ffffff" />
</svg>