<svg xmlns="http://www.w3.org/2000/svg" viewBox="0 0 48 48" width="96" height="96"><path d="M42 38c0 2.21-1.79 4-4 4H10c-2.21 0-4-1.79-4-4V10c0-2.21 1.79-4 4-4h28c2.21 0 4 1.79 4 4z" fill="#fff"></path><path d="M18.46 33.645c-.288 0-.562-.055-.823-.141l-.004.02-3.672-1.063c.644 1.879 2.406 3.238 4.5 3.238a4.775 4.775 0 0 0 4.777-4.777 4.775 4.775 0 0 0-4.777-4.777 4.71 4.71 0 0 0-2.996 1.09L19 28.253c.027.008.055.02.086.023l.047.02c1.176.3 2.05 1.36 2.05 2.625a2.722 2.722 0 0 1-2.722 2.723zM30.922 24.3a5.843 5.843 0 0 0 5.84-5.84 5.839 5.839 0 0 0-11.676 0 5.842 5.842 0 0 0 5.836 5.84zm0-9.89a4.053 4.053 0 1 1 .004 8.106 4.053 4.053 0 0 1-.004-8.106z" fill="#455a64"></path><path d="M38 6H10c-2.21 0-4 1.79-4 4v14.496l7.027 2.031c1.286-1.59 3.23-2.625 5.434-2.625.07 0 .137.02.203.02l3.875-5.356c0-.035-.004-.07-.004-.101a8.388 8.388 0 0 1 16.773-.004 8.385 8.385 0 0 1-8.386 8.387c-.043 0-.086-.004-.133-.008l-5.328 3.87c.004.071.02.142.02.212a7.02 7.02 0 0 1-7.02 7.023c-3.594 0-6.52-2.707-6.938-6.187L6 30.156V38c0 2.21 1.79 4 4 4h28c2.21 0 4-1.79 4-4V10c0-2.21-1.79-4-4-4z" fill="#455a64"></path></svg>