<?xml version="1.0" encoding="UTF-8"?>
<svg xmlns="http://www.w3.org/2000/svg" xmlns:xlink="http://www.w3.org/1999/xlink" viewBox="0 0 48 48" version="1.1" width="96px" height="96px">
<g id="surface1">
<path style=" fill:#FFFFFF;" d="M 42 38 C 42 40.210938 40.210938 42 38 42 L 10 42 C 7.789063 42 6 40.210938 6 38 L 6 10 C 6 7.789063 7.789063 6 10 6 L 38 6 C 40.210938 6 42 7.789063 42 10 Z "/>
<path style=" fill:#455A64;" d="M 18.460938 33.644531 C 18.171875 33.644531 17.898438 33.589844 17.636719 33.503906 L 17.632813 33.523438 L 13.960938 32.460938 C 14.605469 34.339844 16.367188 35.699219 18.460938 35.699219 C 21.101563 35.699219 23.238281 33.5625 23.238281 30.921875 C 23.238281 28.28125 21.101563 26.144531 18.460938 26.144531 C 17.320313 26.144531 16.285156 26.5625 15.464844 27.234375 L 19 28.253906 C 19.027344 28.261719 19.054688 28.273438 19.085938 28.277344 L 19.132813 28.296875 C 20.308594 28.597656 21.183594 29.65625 21.183594 30.921875 C 21.183594 32.425781 19.964844 33.644531 18.460938 33.644531 Z "/>
<path style=" fill:#455A64;" d="M 30.921875 24.300781 C 34.144531 24.300781 36.761719 21.683594 36.761719 18.460938 C 36.761719 15.238281 34.144531 12.625 30.921875 12.625 C 27.703125 12.625 25.085938 15.238281 25.085938 18.460938 C 25.085938 21.683594 27.703125 24.300781 30.921875 24.300781 Z M 30.921875 14.410156 C 33.160156 14.410156 34.976563 16.222656 34.976563 18.460938 C 34.976563 20.703125 33.160156 22.515625 30.921875 22.515625 C 28.683594 22.515625 26.871094 20.703125 26.871094 18.460938 C 26.871094 16.222656 28.683594 14.410156 30.921875 14.410156 Z "/>
<path style=" fill:#455A64;" d="M 38 6 L 10 6 C 7.789063 6 6 7.789063 6 10 L 6 24.496094 L 13.027344 26.527344 C 14.3125 24.9375 16.257813 23.902344 18.460938 23.902344 C 18.53125 23.902344 18.597656 23.921875 18.664063 23.921875 L 22.539063 18.566406 C 22.539063 18.53125 22.535156 18.496094 22.535156 18.464844 C 22.535156 13.832031 26.289063 10.074219 30.921875 10.074219 C 35.554688 10.074219 39.308594 13.832031 39.308594 18.460938 C 39.308594 23.09375 35.554688 26.847656 30.921875 26.847656 C 30.878906 26.847656 30.835938 26.84375 30.789063 26.839844 L 25.460938 30.710938 C 25.464844 30.78125 25.480469 30.851563 25.480469 30.921875 C 25.480469 34.800781 22.339844 37.945313 18.460938 37.945313 C 14.867188 37.945313 11.941406 35.238281 11.523438 31.757813 L 6 30.15625 L 6 38 C 6 40.210938 7.789063 42 10 42 L 38 42 C 40.210938 42 42 40.210938 42 38 L 42 10 C 42 7.789063 40.210938 6 38 6 Z "/>
</g>
</svg>
