<svg xmlns="http://www.w3.org/2000/svg" version="1.1" id="svg3104" x="0" y="0" viewBox="0 0 155.363 69.374" xml:space="preserve" width="155.363" height="69.374"><style type="text/css" id="style28">.st0{fill:#a7a5a6}</style><g id="layer1" transform="translate(-313.047 -476.713)"><g id="g3051" transform="matrix(2.98613 0 0 -2.98613 195.281 2130.626)"><g id="g12" transform="translate(39.438 541.665)"><path id="path14" class="st0" d="M0 0l3.4.3c.2-1.2.6-2 1.3-2.6.7-.5 1.5-.7 2.6-.7s2 .2 2.6.7c.6.5.9 1.1.9 1.7 0 .4-.1.8-.4 1.1-.2.2-.7.5-1.3.7-.4.2-1.3.4-2.8.8-1.9.5-3.3 1-4 1.7C1.2 4.7.7 5.9.7 7.3c0 .9.2 1.8.8 2.5.5.8 1.2 1.4 2.2 1.8 1 .4 2.1.6 3.5.6 2.2 0 3.9-.5 5-1.5s1.7-2.3 1.8-3.9l-3.6-.1c-.2.9-.5 1.5-1 1.9-.6.5-1.4.7-2.3.7-1 0-1.8-.2-2.4-.6-.4-.3-.6-.7-.6-1.1 0-.4.2-.8.5-1.1.4-.4 1.5-.8 3.3-1.2 1.7-.4 3-.8 3.8-1.3.8-.4 1.5-1 1.9-1.8.5-.7.7-1.7.7-2.8 0-1-.3-2-.8-2.9-.5-.9-1.4-1.5-2.4-2-1-.4-2.3-.6-3.8-.6-2.3 0-4 .5-5.2 1.6C.9-3.5.2-2 0 0" fill="#a7a5a6"></path></g><g id="g16" transform="translate(53.333 548.733)"><path id="path18" class="st0" d="M0 0h3.6l3.1-9.1 3 9.1h3.5L8.6-12.3l-.8-2.3c-.3-.8-.6-1.3-.8-1.7-.3-.4-.6-.7-.9-1-.4-.2-.8-.4-1.3-.6-.6-.1-1.1-.2-1.8-.2-.6 0-1.3.1-1.9.2l-.3 2.7c.5-.1 1-.2 1.4-.2.8 0 1.4.2 1.7.7.4.5.7 1.1.9 1.8z" fill="#a7a5a6"></path></g><g id="g20" transform="translate(78.194 535.901)"><path id="path22" class="st0" d="M0 0h-3.4v6.5c0 1.4-.1 2.3-.2 2.7-.1.4-.4.7-.7 1-.3.2-.7.3-1.2.3-.6 0-1.1-.2-1.6-.5s-.8-.7-1-1.3c-.2-.5-.3-1.5-.3-2.9V0h-3.4v12.8h3.1V11c1.1 1.4 2.5 2.1 4.2 2.1.8 0 1.4-.1 2.1-.4.6-.3 1.1-.6 1.4-1 .3-.4.5-.9.7-1.4.2-.6.3-1.4.3-2.3z" fill="#a7a5a6"></path></g><g id="g24" transform="translate(81.666 542.281)"><path id="path26" class="st0" d="M0 0c0-1.3.3-2.3.9-2.9.6-.7 1.4-1 2.2-1 .8 0 1.6.3 2.2 1 .7.6 1 1.6 1 2.9 0 1.3-.3 2.2-.9 2.9-.6.7-1.4 1-2.2 1-.8 0-1.6-.3-2.2-1C.3 2.3 0 1.3 0 0m-3.5.2c0 1.1.3 2.2.8 3.3.6 1.1 1.3 1.9 2.4 2.4 1 .6 2.2.8 3.4.8 1.9 0 3.5-.6 4.8-1.9C9.2 3.5 9.8 2 9.8 0c0-1.9-.6-3.5-1.9-4.8-1.2-1.3-2.8-1.9-4.7-1.9-1.2 0-2.3.3-3.4.8s-1.9 1.3-2.4 2.3c-.6 1.1-.9 2.3-.9 3.8" fill="#a7a5a6"></path></g></g></g></svg>