<?xml version="1.0" encoding="UTF-8" standalone="no"?>
<!-- Generator: Adobe Illustrator 23.0.1, SVG Export Plug-In . SVG Version: 6.00 Build 0)  -->

<svg
   xmlns:dc="http://purl.org/dc/elements/1.1/"
   xmlns:cc="http://creativecommons.org/ns#"
   xmlns:rdf="http://www.w3.org/1999/02/22-rdf-syntax-ns#"
   xmlns:svg="http://www.w3.org/2000/svg"
   xmlns="http://www.w3.org/2000/svg"
   xmlns:sodipodi="http://sodipodi.sourceforge.net/DTD/sodipodi-0.dtd"
   xmlns:inkscape="http://www.inkscape.org/namespaces/inkscape"
   version="1.1"
   id="svg3104"
   x="0px"
   y="0px"
   viewBox="0 0 155.36336 69.373807"
   xml:space="preserve"
   sodipodi:docname="synology.svg"
   width="155.36336"
   height="69.37381"
   inkscape:version="0.92.4 (5da689c313, 2019-01-14)"><metadata
   id="metadata44"><rdf:RDF><cc:Work
       rdf:about=""><dc:format>image/svg+xml</dc:format><dc:type
         rdf:resource="http://purl.org/dc/dcmitype/StillImage" /><dc:title></dc:title></cc:Work></rdf:RDF></metadata><defs
   id="defs42" />
<style
   type="text/css"
   id="style28">
	.st0{fill:#A7A5A6;}
</style>
<sodipodi:namedview
   bordercolor="#666666"
   borderopacity="1.0"
   fit-margin-bottom="0"
   fit-margin-left="0"
   fit-margin-right="0"
   fit-margin-top="0"
   id="base"
   inkscape:current-layer="layer1"
   inkscape:cx="143.98488"
   inkscape:cy="0.64747635"
   inkscape:document-units="px"
   inkscape:pageopacity="0.0"
   inkscape:pageshadow="2"
   inkscape:window-height="1017"
   inkscape:window-maximized="1"
   inkscape:window-width="1920"
   inkscape:window-x="-8"
   inkscape:window-y="-8"
   inkscape:zoom="1.4"
   pagecolor="#ffffff"
   showgrid="false">
	</sodipodi:namedview>
<g
   id="layer1"
   transform="translate(-313.04693,-476.71272)"
   inkscape:groupmode="layer"
   inkscape:label="Layer 1">
	<g
   id="g3051"
   transform="matrix(2.9861316,0,0,-2.9861316,195.28107,2130.6265)">
		<g
   id="g12"
   transform="translate(39.4376,541.665)">
			<path
   id="path14"
   inkscape:connector-curvature="0"
   class="st0"
   d="M 0,0 3.4,0.3 C 3.6,-0.9 4,-1.7 4.7,-2.3 5.4,-2.8 6.2,-3 7.3,-3 c 1.1,0 2,0.2 2.6,0.7 0.6,0.5 0.9,1.1 0.9,1.7 0,0.4 -0.1,0.8 -0.4,1.1 C 10.2,0.7 9.7,1 9.1,1.2 8.7,1.4 7.8,1.6 6.3,2 4.4,2.5 3,3 2.3,3.7 1.2,4.7 0.7,5.9 0.7,7.3 c 0,0.9 0.2,1.8 0.8,2.5 0.5,0.8 1.2,1.4 2.2,1.8 1,0.4 2.1,0.6 3.5,0.6 2.2,0 3.9,-0.5 5,-1.5 1.1,-1 1.7,-2.3 1.8,-3.9 L 10.4,6.7 C 10.2,7.6 9.9,8.2 9.4,8.6 8.8,9.1 8,9.3 7.1,9.3 6.1,9.3 5.3,9.1 4.7,8.7 4.3,8.4 4.1,8 4.1,7.6 4.1,7.2 4.3,6.8 4.6,6.5 5,6.1 6.1,5.7 7.9,5.3 9.6,4.9 10.9,4.5 11.7,4 c 0.8,-0.4 1.5,-1 1.9,-1.8 0.5,-0.7 0.7,-1.7 0.7,-2.8 0,-1 -0.3,-2 -0.8,-2.9 C 13,-4.4 12.1,-5 11.1,-5.5 10.1,-5.9 8.8,-6.1 7.3,-6.1 5,-6.1 3.3,-5.6 2.1,-4.5 0.9,-3.5 0.2,-2 0,0"
   style="fill:#a7a5a6" />
		</g>
		<g
   id="g16"
   transform="translate(53.3329,548.733)">
			<path
   id="path18"
   inkscape:connector-curvature="0"
   class="st0"
   d="m 0,0 h 3.6 l 3.1,-9.1 3,9.1 h 3.5 L 8.6,-12.3 7.8,-14.6 C 7.5,-15.4 7.2,-15.9 7,-16.3 6.7,-16.7 6.4,-17 6.1,-17.3 5.7,-17.5 5.3,-17.7 4.8,-17.9 4.2,-18 3.7,-18.1 3,-18.1 c -0.6,0 -1.3,0.1 -1.9,0.2 l -0.3,2.7 c 0.5,-0.1 1,-0.2 1.4,-0.2 0.8,0 1.4,0.2 1.7,0.7 0.4,0.5 0.7,1.1 0.9,1.8 z"
   style="fill:#a7a5a6" />
		</g>
		<g
   id="g20"
   transform="translate(78.1938,535.901)">
			<path
   id="path22"
   inkscape:connector-curvature="0"
   class="st0"
   d="m 0,0 h -3.4 v 6.5 c 0,1.4 -0.1,2.3 -0.2,2.7 -0.1,0.4 -0.4,0.7 -0.7,1 -0.3,0.2 -0.7,0.3 -1.2,0.3 -0.6,0 -1.1,-0.2 -1.6,-0.5 C -7.6,9.7 -7.9,9.3 -8.1,8.7 -8.3,8.2 -8.4,7.2 -8.4,5.8 V 0 h -3.4 v 12.8 h 3.1 V 11 c 1.1,1.4 2.5,2.1 4.2,2.1 0.8,0 1.4,-0.1 2.1,-0.4 0.6,-0.3 1.1,-0.6 1.4,-1 0.3,-0.4 0.5,-0.9 0.7,-1.4 C -0.1,9.7 0,8.9 0,8 Z"
   style="fill:#a7a5a6" />
		</g>
		<g
   id="g24"
   transform="translate(81.6659,542.281)">
			<path
   id="path26"
   inkscape:connector-curvature="0"
   class="st0"
   d="m 0,0 c 0,-1.3 0.3,-2.3 0.9,-2.9 0.6,-0.7 1.4,-1 2.2,-1 0.8,0 1.6,0.3 2.2,1 0.7,0.6 1,1.6 1,2.9 C 6.3,1.3 6,2.2 5.4,2.9 4.8,3.6 4,3.9 3.2,3.9 2.4,3.9 1.6,3.6 1,2.9 0.3,2.3 0,1.3 0,0 m -3.5,0.2 c 0,1.1 0.3,2.2 0.8,3.3 0.6,1.1 1.3,1.9 2.4,2.4 1,0.6 2.2,0.8 3.4,0.8 C 5,6.7 6.6,6.1 7.9,4.8 9.2,3.5 9.8,2 9.8,0 9.8,-1.9 9.2,-3.5 7.9,-4.8 6.7,-6.1 5.1,-6.7 3.2,-6.7 c -1.2,0 -2.3,0.3 -3.4,0.8 -1.1,0.5 -1.9,1.3 -2.4,2.3 -0.6,1.1 -0.9,2.3 -0.9,3.8"
   style="fill:#a7a5a6" />
		</g>
	</g>
</g>
</svg>