<svg xmlns="http://www.w3.org/2000/svg" width="1024.002" height="1024" viewBox="0 0 1024.002 1024"><defs><linearGradient x1="511.61" y1="1026.9" x2="511.61" gradientUnits="userSpaceOnUse" y2="-.324" id="a" gradientTransform="translate(.001)"><stop offset="0" stop-color="#096fd2"></stop><stop offset="1" stop-color="#0e8ee9"></stop></linearGradient><linearGradient x1="412.95" y1="648.08" x2="412.86" gradientUnits="userSpaceOnUse" y2="376.45" id="b" gradientTransform="translate(.001)"><stop offset="0" stop-color="#096fd2"></stop><stop offset="1" stop-color="#0e8ee9"></stop></linearGradient></defs><path d="M917.001 0h-811.2A107.2 105.8 0 0 0 .001 106.3v811.4a107.2 105.8 0 0 0 106.4 106.3h811.2a107.2 105.8 0 0 0 106.4-106.3V106.3a107.2 105.8 0 0 0-107-106.3zm-405.4 935.4A426.2 420.6 0 0 1 88.701 512a426.2 420.6 0 0 1 422.9-423.4 426.2 420.6 0 0 1 423.2 423.4 426.2 420.6 0 0 1-423.2 423.4z" class="cls-1" fill="url(#a)"></path><path d="M904.201 512l-293.5-135.7 23.58 86.95h-245.2l23.58-86.95-293.5 135.8 293.7 135.7-23.58-86.95h245.2l-23.58 86.95 293.3-135.7" class="cls-1" fill="url(#b)"></path></svg>