<svg xmlns="http://www.w3.org/2000/svg" version="1.1" x="0" y="0" xml:space="preserve" id="prefix__prefix__svg82" width="224" height="45.7"><style type="text/css" id="style2">.prefix__prefix__st1{fill:#fff}</style><path id="prefix__prefix__rect4" d="M0 0h224v45.7H0z" fill="#5d646b" stroke-width=".935"/><g id="prefix__prefix__g22" transform="translate(-14.667)"><path class="prefix__prefix__st1" id="prefix__prefix__polygon6" d="M87.4 20.4H71.7v12.5h17.4v-3.5H75.8v-5.7h11.6z" fill="#fff"/><path class="prefix__prefix__st1" id="prefix__prefix__rect8" d="M71.7 12.7h17.2v3.6H71.7z" fill="#fff"/><path class="prefix__prefix__st1" id="prefix__prefix__polygon10" d="M37.1 32.9h4.2V16.3h7.4v-3.6H29.8v3.6h7.3z" fill="#fff"/><path class="prefix__prefix__st1" id="prefix__prefix__rect12" d="M155.3 12.7h17.2v3.6h-17.2z" fill="#fff"/><path class="prefix__prefix__st1" d="M129.5 21.6c.9-1 1.3-2.1 1.3-3.4 0-.7-.1-1.6-.4-2.1-.3-.7-.9-1.3-1.4-1.7-.7-.4-1.4-.9-2.4-1.1-1.1-.3-2.3-.4-3.6-.4h-10.8v3.6H123c1.1 0 2 .1 2.6.6.6.5.9 1 .9 1.7s-.3 1.3-.9 1.8h-13.4V33h12.4c1.3 0 2.4-.1 3.4-.4 1-.3 1.8-.7 2.4-1.3.7-.6 1.1-1.1 1.4-2 .3-.7.4-1.6.4-2.6 0-1.1-.3-2.1-.7-3-.4-.9-1-1.6-2-2.1zm-2.4 7.1c-.6.4-1.4.7-2.6.7h-8.4v-5.5h8.4c1.1 0 2 .3 2.6.7.6.4.9 1.1.9 2-.1.9-.4 1.5-.9 2.1z" id="prefix__prefix__path14" fill="#fff"/><path class="prefix__prefix__st1" id="prefix__prefix__polygon16" d="M212 12.7l-5.4 7-5.2-7h-5l7.7 10-8.4 10.2h5l5.8-7.2 5.8 7.2h5l-8.2-10.4 7.9-9.8z" fill="#fff"/><path class="prefix__prefix__st1" id="prefix__prefix__polygon18" d="M171 20.4h-15.7v12.5h17.4v-3.5h-13.4v-5.7H171z" fill="#fff"/><path class="prefix__prefix__st1" d="M219.9 12.7h2.6v.4h-1v2.7h-.6v-2.7h-1zm3.2 0h.7l.9 2.4.9-2.4h.7v3.1h-.4v-2.4l-.9 2.4h-.4l-.9-2.4v2.4h-.6z" id="prefix__prefix__path20" fill="#fff"/></g></svg>