<svg xmlns="http://www.w3.org/2000/svg" version="1.1" id="图层_1" x="0" y="0" viewBox="0 0 128.9 128.9" xml:space="preserve" width="128.9" height="128.9"><style type="text/css" id="style40">.st1{fill-rule:evenodd;clip-rule:evenodd;fill:#fff}</style><title id="title42">trello-logo-blue-flat</title><g id="Page-1" transform="translate(-32.2 -23.2)"><g id="Logos" transform="translate(-509 -485)"><g id="Group" transform="translate(-9 1)"><g id="Trello-Logo" transform="translate(468)"><g id="Trello-Logo---Blue---Flat" transform="translate(0 420)"><g id="Logo" transform="translate(50 64)"><g transform="translate(50 1)" id="g55"><g id="Mark" transform="translate(0 35)"><linearGradient id="Board_1_" gradientUnits="userSpaceOnUse" x1="-69.345" y1="446.618" x2="-69.345" y2="445.618" gradientTransform="matrix(128.9062 0 0 -128.9062 8985.662 57559.098)"><stop offset="0" id="stop46" stop-color="#0079bf"></stop><stop offset="1" id="stop48" stop-color="#0079bf"></stop></linearGradient><path id="Board" d="M-1.7-12.8H95c8.9 0 16.1 7.2 16.1 16.1V100c0 8.9-7.2 16.1-16.1 16.1H-1.7c-8.9 0-16.1-7.2-16.1-16.1V3.3c0-8.9 7.2-16.1 16.1-16.1z" clip-rule="evenodd" fill="url(#Board_1_)" fill-rule="evenodd"></path><path id="Right-List" class="st1" d="M62.8 4h23.8c4.3 0 7.7 3.5 7.7 7.7v40.9c0 4.3-3.5 7.7-7.7 7.7H62.8c-4.3 0-7.7-3.5-7.7-7.7V11.7c0-4.3 3.4-7.7 7.7-7.7z" clip-rule="evenodd" fill="#fff" fill-rule="evenodd"></path><path id="Left-List" class="st1" d="M6.7 4h23.8c4.3 0 7.7 3.5 7.7 7.7v73.2c0 4.3-3.5 7.7-7.7 7.7H6.7c-4.3 0-7.7-3.5-7.7-7.7V11.7C-1 7.4 2.4 4 6.7 4z" clip-rule="evenodd" fill="#fff" fill-rule="evenodd"></path></g></g></g></g></g></g></g></g></svg>