<?xml version="1.0" encoding="UTF-8" standalone="no"?>
<!-- Generator: Adobe Illustrator 23.0.1, SVG Export Plug-In . SVG Version: 6.00 Build 0)  -->

<svg
   xmlns:dc="http://purl.org/dc/elements/1.1/"
   xmlns:cc="http://creativecommons.org/ns#"
   xmlns:rdf="http://www.w3.org/1999/02/22-rdf-syntax-ns#"
   xmlns:svg="http://www.w3.org/2000/svg"
   xmlns="http://www.w3.org/2000/svg"
   xmlns:sodipodi="http://sodipodi.sourceforge.net/DTD/sodipodi-0.dtd"
   xmlns:inkscape="http://www.inkscape.org/namespaces/inkscape"
   version="1.1"
   id="图层_1"
   x="0px"
   y="0px"
   viewBox="0 0 128.89999 128.89999"
   xml:space="preserve"
   sodipodi:docname="trello.svg"
   width="128.89999"
   height="128.89999"
   inkscape:version="0.92.4 (5da689c313, 2019-01-14)"><metadata
   id="metadata68"><rdf:RDF><cc:Work
       rdf:about=""><dc:format>image/svg+xml</dc:format><dc:type
         rdf:resource="http://purl.org/dc/dcmitype/StillImage" /><dc:title>trello-logo-blue-flat</dc:title></cc:Work></rdf:RDF></metadata><defs
   id="defs66" /><sodipodi:namedview
   pagecolor="#ffffff"
   bordercolor="#666666"
   borderopacity="1"
   objecttolerance="10"
   gridtolerance="10"
   guidetolerance="10"
   inkscape:pageopacity="0"
   inkscape:pageshadow="2"
   inkscape:window-width="1920"
   inkscape:window-height="1017"
   id="namedview64"
   showgrid="false"
   fit-margin-top="0"
   fit-margin-left="0"
   fit-margin-right="0"
   fit-margin-bottom="0"
   inkscape:zoom="3.0943196"
   inkscape:cx="138.84869"
   inkscape:cy="64.449998"
   inkscape:window-x="-8"
   inkscape:window-y="-8"
   inkscape:window-maximized="1"
   inkscape:current-layer="图层_1" />
<style
   type="text/css"
   id="style40">
	.st0{fill-rule:evenodd;clip-rule:evenodd;fill:url(#Board_1_);}
	.st1{fill-rule:evenodd;clip-rule:evenodd;fill:#FFFFFF;}
</style>
<title
   id="title42">trello-logo-blue-flat</title>
<desc
   id="desc44">Created with Sketch.</desc>
<g
   id="Page-1"
   transform="translate(-32.2,-23.2)">
	<g
   id="Logos"
   transform="translate(-509,-485)">
		<g
   id="Group"
   transform="translate(-9,1)">
			<g
   id="Trello-Logo"
   transform="translate(468)">
				<g
   id="Trello-Logo---Blue---Flat"
   transform="translate(0,420)">
					<g
   id="Logo"
   transform="translate(50,64)">
						<g
   transform="translate(50,1)"
   id="g55">
							<g
   id="Mark"
   transform="translate(0,35)">
								
									<linearGradient
   id="Board_1_"
   gradientUnits="userSpaceOnUse"
   x1="-69.344803"
   y1="446.61841"
   x2="-69.344803"
   y2="445.61841"
   gradientTransform="matrix(128.9062,0,0,-128.9062,8985.6621,57559.098)">
									<stop
   offset="0"
   style="stop-color:#0079BF"
   id="stop46" />
									<stop
   offset="1"
   style="stop-color:#0079BF"
   id="stop48" />
								</linearGradient>
								<path
   id="Board"
   class="st0"
   d="M -1.7,-12.8 H 95 c 8.9,0 16.1,7.2 16.1,16.1 V 100 c 0,8.9 -7.2,16.1 -16.1,16.1 H -1.7 c -8.9,0 -16.1,-7.2 -16.1,-16.1 V 3.3 c 0,-8.9 7.2,-16.1 16.1,-16.1 z"
   inkscape:connector-curvature="0"
   style="clip-rule:evenodd;fill:url(#Board_1_);fill-rule:evenodd" />
								<path
   id="Right-List"
   class="st1"
   d="m 62.8,4 h 23.8 c 4.3,0 7.7,3.5 7.7,7.7 v 40.9 c 0,4.3 -3.5,7.7 -7.7,7.7 H 62.8 c -4.3,0 -7.7,-3.5 -7.7,-7.7 V 11.7 C 55.1,7.4 58.5,4 62.8,4 Z"
   inkscape:connector-curvature="0"
   style="clip-rule:evenodd;fill:#ffffff;fill-rule:evenodd" />
								<path
   id="Left-List"
   class="st1"
   d="m 6.7,4 h 23.8 c 4.3,0 7.7,3.5 7.7,7.7 v 73.2 c 0,4.3 -3.5,7.7 -7.7,7.7 H 6.7 C 2.4,92.6 -1,89.1 -1,84.9 V 11.7 C -1,7.4 2.4,4 6.7,4 Z"
   inkscape:connector-curvature="0"
   style="clip-rule:evenodd;fill:#ffffff;fill-rule:evenodd" />
							</g>
						</g>
					</g>
				</g>
			</g>
		</g>
	</g>
</g>
</svg>