<svg xmlns="http://www.w3.org/2000/svg" width="487" height="487"><path d="M487 382.4c0 57.8-46.8 104.6-104.6 104.6H104.6C46.8 487 0 440.2 0 382.4V104.6C0 46.8 46.8 0 104.6 0h277.8C440.2 0 487 46.8 487 104.6zM243.3 96.9c-77.1 0-140.2 60.2-144.7 136.2h102.3c2.2 0 2.5-2.5 2.5-2.5v-20.4c0-4.2 3.4-7.5 7.5-7.5H277c4.2 0 7.5 3.4 7.5 7.5v66.1c0 4.2-3.4 7.5-7.5 7.5h-66.1c-4.2 0-7.5-3.4-7.5-7.5v-22.6s-.1-2.5-2.4-2.5H98.6c4.9 75.6 67.7 135.5 144.6 135.5 80 0 144.9-64.9 144.9-144.9.1-80-64.8-144.9-144.8-144.9z"/></svg>