<?xml version="1.0" encoding="UTF-8" standalone="no"?>
<!-- Created with Inkscape (http://www.inkscape.org/) -->

<svg
   xmlns:dc="http://purl.org/dc/elements/1.1/"
   xmlns:cc="http://creativecommons.org/ns#"
   xmlns:rdf="http://www.w3.org/1999/02/22-rdf-syntax-ns#"
   xmlns:svg="http://www.w3.org/2000/svg"
   xmlns="http://www.w3.org/2000/svg"
   xmlns:sodipodi="http://sodipodi.sourceforge.net/DTD/sodipodi-0.dtd"
   xmlns:inkscape="http://www.inkscape.org/namespaces/inkscape"
   width="326.54999"
   height="300"
   viewBox="0 0 326.54999 300"
   id="svg2"
   version="1.1"
   inkscape:version="0.92.3 (2405546, 2018-03-11)"
   sodipodi:docname="Ubisoft.svg">
  <defs
     id="defs4" />
  <sodipodi:namedview
     id="base"
     pagecolor="#ffffff"
     bordercolor="#666666"
     borderopacity="1.0"
     inkscape:pageopacity="0.0"
     inkscape:pageshadow="2"
     inkscape:zoom="1.4"
     inkscape:cx="101.76098"
     inkscape:cy="176.7064"
     inkscape:document-units="px"
     inkscape:current-layer="layer1"
     showgrid="false"
     units="px"
     inkscape:window-width="1366"
     inkscape:window-height="715"
     inkscape:window-x="-8"
     inkscape:window-y="-8"
     inkscape:window-maximized="1" />
  <metadata
     id="metadata7">
    <rdf:RDF>
      <cc:Work
         rdf:about="">
        <dc:format>image/svg+xml</dc:format>
        <dc:type
           rdf:resource="http://purl.org/dc/dcmitype/StillImage" />
        <dc:title></dc:title>
      </cc:Work>
    </rdf:RDF>
  </metadata>
  <g
     inkscape:label="Ebene 1"
     inkscape:groupmode="layer"
     id="layer1"
     transform="matrix(0.50225316,0,0,0.50225316,270.90047,-90.115393)">
    <path
       d="m -53.179715,474.928 c -30.302666,68.77733 -92.654665,104.77333 -159.249325,103.94 -127.744,-6.336 -164.904,-153.85866 -79.53334,-207.11866 l 3.756,3.756 c -1.45733,1.912 -6.412,5.92933 -14.39466,21.548 -9.30134,18.98 -12.136,37.89733 -11.036,49.73066 6.64666,103.124 150.91866,124.09733 200.61333,22.15467 63.253328,-139.83733 -104.408,-281.85333 -253.27333,-173.31333 l -3.43733,-3.436 c 39.15599,-61.43733 115.66399,-88.93467 188.73732,-70.56267 C -69.255715,249.56401 -9.2690499,366.116 -53.179715,474.928 Z m -119.437335,-2.21467 c -10.344,14.88934 -27.568,24.64 -47.07199,24.64 -31.636,0 -57.28134,-25.64533 -57.28134,-57.28133 0,-30.23733 23.43067,-55 53.12534,-57.12933 l 0,10e-4 c 18.49333,-0.744 35.72533,9.24934 43.93066,25.45334 8.84533,17.47066 5.608,39.01999 -8.16933,53.55066 5.15466,3.58933 10.31066,7.17733 15.46666,10.76533 z m -199.83999,-37.83066 c -2.76133,22.74933 -1.04,29.85333 -1.04667,32.55733 l -5.05333,1.83867 c -1.91067,-3.74134 -6.764,-16.924 -8.90267,-34.63867 -5.468,-67.63466 40.616,-128.58399 110.77067,-139.92933 64.34133,-9.456 125.85999,30.504 140.27066,86.43733 l -5.068,1.844 c -1.50667,-1.66533 -4.19333,-6.192 -13.91867,-16.04933 -77.59466,-77.952 -199.54932,-42.19867 -217.05199,67.94 z m 368.0093233,-37.508 C -9.0410499,173.85601 -305.92371,90.55201 -420.22304,300.00801 c 5.0516,3.65466 12.03867,8.6 17.09,12.25333 -8.75667,18.39066 -14.5936,37.124 -17.7868,55.796 -2.2208,12.24 -3.38653,24.848 -3.38653,37.72933 0,115.992 94.02933,210.02133 210.02133,210.02133 115.990659,0 210.01999,-94.02933 210.01999,-210.02133 0,-2.81867 -0.072,-5.62 -0.1826667,-8.412"
       style="fill:#000000;fill-opacity:1;fill-rule:nonzero;stroke:none"
       id="path14"
       inkscape:connector-curvature="0" />
  </g>
</svg>
