<svg xmlns="http://www.w3.org/2000/svg" width="210.967" height="219.176" viewBox="0 0 55.818 57.99"><path d="M49.318 39.27c-4.027 9.139-12.312 13.922-21.162 13.811-16.976-.842-21.914-20.445-10.57-27.523l.5.499c-.194.254-.852.788-1.913 2.864-1.236 2.522-1.613 5.036-1.466 6.608.883 13.704 20.055 16.491 26.659 2.944C49.77 19.891 27.49 1.018 7.709 15.442l-.457-.457c5.203-8.164 15.37-11.818 25.08-9.377C47.183 9.321 55.154 24.81 49.319 39.27zm-15.872-.295a7.612 7.612 0 1 1-6.808-11.93c2.458-.098 4.748 1.23 5.839 3.383 1.175 2.322.745 5.185-1.086 7.116l2.055 1.43zM6.89 33.948c-.367 3.023-.138 3.967-.139 4.326l-.671.244c-.254-.497-.9-2.249-1.184-4.603-.726-8.988 5.398-17.087 14.72-18.595 8.55-1.256 16.726 4.054 18.64 11.487l-.673.245c-.2-.221-.557-.823-1.85-2.133C25.424 14.56 9.217 19.311 6.89 33.948zm48.904-4.985C55.184-.74 15.732-11.81.543 16.024c.67.486 1.6 1.143 2.27 1.629A28.33 28.33 0 0 0 .45 25.067 28.065 28.065 0 0 0 0 30.081c0 15.414 12.495 27.91 27.91 27.91 15.413 0 27.908-12.496 27.908-27.91 0-.375-.01-.747-.024-1.118"></path></svg>