<?xml version="1.0" encoding="UTF-8" standalone="no"?>

<svg
	xmlns:svg="http://www.w3.org/2000/svg"
	xmlns="http://www.w3.org/2000/svg"
	version="1.1"
	width="600"
	height="140">

<path id="text"
	d="m 450.2642,47.6439 0,53.18642 c -4e-5,13.54214 6.55995,21.09957 19.67986,21.09957 3.51236,0 6.97315,-0.15506 10.3823,-0.46519 3.40903,-0.31013 6.30162,-0.77527 8.67774,-1.39557 l 0,-72.42523 15.49595,0 0,82.03911 c -4.64886,1.65401 -10.02077,2.84284 -16.1158,3.56643 -6.09513,0.82704 -12.24184,1.2405 -18.44019,1.2405 -11.57036,0 -20.35137,-3.68085 -26.34312,-9.46987 -5.99179,-5.78899 -8.98766,-14.57584 -8.98766,-26.36062 l 0,-51.01555 15.65092,0 m -240.0644,0 0,53.18642 c -4e-5,13.54214 6.55995,21.09957 19.67987,21.09957 3.51235,0 6.97314,-0.15506 10.38229,-0.46519 3.40904,-0.31013 6.30163,-0.77527 8.67774,-1.39557 l 0,-72.42523 15.49596,0 0,82.03911 c -4.64887,1.65401 -10.02078,2.84284 -16.1158,3.56643 -6.09514,0.82704 -12.24185,1.2405 -18.44019,1.2405 -11.57036,0 -20.35138,-3.68085 -26.34313,-9.46987 -5.99178,-5.78899 -8.98766,-14.57584 -8.98766,-26.36062 l 0,-51.01555 15.65092,0 m 176.51846,-27.4427 -13.9725,2.53361 -0.0312,84.57879 c 8e-5,16.22975 8.78318,26.86874 28.10129,26.86878 4.75213,-4e-5 13.96756,-1.29049 19.44272,-2.22081 l -1.84425,-10.94771 c -0.1077,0.43061 -12.32829,1.6703 -18.8488,1.31373 -6.52051,-0.35663 -12.4038,-5.67406 -12.97223,-11.13538 l 0.0312,-51.14139 32.19613,0 0,-12.41782 -32.19613,0 0.0937,-27.4318 z M 118.52132,5.5 l -15.66045,2.53361 0,121.6494 c 9.19425,3.20464 18.95845,4.81699 29.2891,4.81699 1.76844,0 3.48049,-0.0612 5.12638,-0.18767 l 0,-0.0312 C 167.82223,134.4283 183.6309,110.2087 179.5422,82.1027 176.32876,62.27866 159.87544,45.53739 140.62105,45.53739 c -7.64458,0 -13.74064,2.06822 -18.28616,3.72222 -1.38565,0.52381 -2.63952,1.06353 -3.81352,1.62652 l 0,-45.38604 0,-5e-5 -5e-5,0 z m 21.94339,52.61151 c 17.18558,0.84712 24.07086,15.97143 24.60481,30.84124 0.72995,20.3288 -13.45913,34.66708 -32.60696,32.97304 -4.421,-0.39114 -9.08586,-0.55193 -13.94124,-1.68907 l 0,-55.96322 c 2.04516,-1.74484 4.35169,-3.13687 6.9081,-4.16012 3.61577,-1.34388 8.64102,-2.31705 15.03529,-2.00187 z m 160.69652,74.19649 -15.65092,0 0,-81.25273 c 4.75208,-1.6539 10.0207,-2.84273 15.80588,-3.56644 5.88843,-0.82692 11.93185,-1.24042 18.13028,-1.2405 23.14053,8e-5 34.71082,11.52637 34.71094,34.57892 l 0,51.48075 -15.49596,0 0,-53.65162 c -8e-5,-13.23191 -6.40506,-19.84792 -19.21498,-19.84799 -3.4092,7e-5 -6.71499,0.15507 -9.91742,0.46518 -3.20255,0.31014 -5.99182,0.72372 -8.36782,1.24052 l 0,71.79391 M 28.150966,47.6439 l 0,53.18642 c -4e-5,13.54214 6.55995,21.09957 19.67987,21.09957 3.51235,0 6.97314,-0.15506 10.38229,-0.46519 3.40904,-0.31013 6.30162,-0.77527 8.67774,-1.39557 l 0,-72.42523 15.49596,0 0,82.03911 c -4.64887,1.65401 -10.02078,2.84284 -16.11581,3.56643 -6.09513,0.82704 -12.24184,1.2405 -18.44018,1.2405 -11.57037,0 -20.35138,-3.68085 -26.34313,-9.46987 -5.991783,-5.78899 -8.987656,-14.57584 -8.987656,-26.36062 l 0,-51.01555 15.650916,0"
	style="font-size:40px;font-style:normal;font-variant:normal;font-weight:bold;font-stretch:normal;text-align:start;line-height:125%;text-anchor:start;fill:#231f20;fill-opacity:1;stroke:none;font-family:Xenu" />

<g id="logo" transform="matrix(0.73333333,0,0,0.73333333,517.83324,9.8337209)">

<path id="roundel"
	d="M 95.00015,50.000432 C 95.00015,74.852315 74.852463,95 49.999138,95 25.146388,95 4.9998625,74.852315 4.9998625,50.000432 c 0,-24.853612 20.1465255,-45.0004322 44.9992755,-45.0004322 24.853325,0 45.001012,20.1468202 45.001012,45.0004322"
	style="fill:#f47421;fill-opacity:1;fill-rule:nonzero;stroke:none" />

<path id="circle-of-friends"
	d="m 62.295912,28.701087 c 2.873376,1.659372 6.546563,0.675122 8.204788,-2.197388 1.659075,-2.873664 0.675688,-6.546562 -2.197975,-8.205644 -2.873087,-1.658504 -6.545987,-0.674543 -8.205062,2.199121 -1.6585,2.872509 -0.67455,6.545408 2.19825,8.203911 z M 50,67.549813 c -2.641888,0 -5.145512,-0.587374 -7.392837,-1.632816 l -4.174551,7.480879 C 41.919625,75.124499 45.845375,76.10009 50,76.10009 c 2.416175,0 4.7524,-0.334819 6.9726,-0.949614 0.392825,-2.413 1.825625,-4.636944 4.109888,-5.956013 2.280224,-1.316469 4.919225,-1.446933 7.203499,-0.583622 4.4424,-4.368222 7.333101,-10.311246 7.753925,-16.929679 l -8.5624,-0.124687 C 66.689537,60.521517 59.168538,67.549813 50,67.549813 z m 0,-35.099916 c 9.168538,0 16.689537,7.029739 17.477512,15.993631 l 8.5624,-0.124975 C 75.6185,41.700699 72.727812,35.757675 68.284837,31.389741 66.00085,32.252475 63.362137,32.121722 61.081625,30.804963 58.797637,29.486472 57.365137,27.262817 56.972312,24.849528 54.7524,24.235311 52.416175,23.900204 50,23.900204 c -4.154625,0 -8.080075,0.975302 -11.566813,2.702502 l 4.174263,7.480012 C 44.854487,33.037277 47.358112,32.449902 50,32.449902 z M 32.450338,49.999856 c 0,-5.93754 2.950725,-11.181774 7.4624,-14.357351 l -4.392175,-7.357919 c -5.257513,3.512993 -9.168825,8.882784 -10.793275,15.172749 1.897787,1.546802 3.11035,3.902363 3.11035,6.543097 0,2.640447 -1.21285,4.996008 -3.110638,6.542522 1.624163,6.290252 5.535475,11.660045 10.793275,15.173037 l 4.392463,-7.358207 c -4.511675,-3.175289 -7.4624,-8.419523 -7.4624,-14.357928 z m 29.84645,21.298479 c -2.873675,1.659081 -3.857625,5.331691 -2.198838,8.2042 1.659088,2.873663 5.331688,3.858202 8.20535,2.199121 2.8728,-1.658794 3.85705,-5.331691 2.197975,-8.205066 -1.658512,-2.872221 -5.3317,-3.85676 -8.204487,-2.198255 z M 19.400513,43.992755 c -3.31875,0 -6.007975,2.688936 -6.007975,6.007677 0,3.317876 2.689225,6.007102 6.007975,6.007102 3.317587,0 6.0071,-2.689226 6.0071,-6.007102 0,-3.318741 -2.689513,-6.007677 -6.0071,-6.007677"
	style="fill:#ffffff;fill-opacity:1;fill-rule:nonzero;stroke:none" />

</g>
</svg>