<svg xmlns="http://www.w3.org/2000/svg" width="124.004" height="128" viewBox="0 0 124.004 128"><path d="M124.004 21.568V9.856L95.818 26.219v9.899L73.274 84.672l-11.283 7.765V128l24.168-13.909zM61.991 67.115L45.088 27.712V16.576l-.107-.043-16.796 9.685v9.899l22.544 50.688 11.261-5.568z" fill="#1563ff"></path><path d="M107.101 0L78.937 16.469h-.021v11.243L61.991 67.115v13.163L50.73 86.806 28.186 36.118v-9.92l16.924-9.707L16.903 0 0 9.856v12.075l38.058 92.266L61.991 128V93.333l11.283-6.528-.149-.085 22.693-50.603v-9.92l28.186-16.341z" fill="#104eb2"></path></svg>