<svg xmlns="http://www.w3.org/2000/svg" width="96" height="83.2"><path d="M33.4 2.2C32.6.9 31.1 0 29.4 0H4.8C2.1 0 0 2.1 0 4.8c0 .9.3 1.8.7 2.6l5 8 32.7-5.1z" fill="#c9f4ff"/><path d="M38.5 10.2C37.6 8.9 36.1 8 34.4 8H9.8C7.2 8 5 10.1 5 12.8c0 .9.3 1.8.7 2.6l7.1 11.2 32.7-5.1z" fill="#51b9ff"/><path d="M12.8 26.6c-.5-.7-.7-1.6-.7-2.6 0-2.7 2.1-4.8 4.8-4.8h24.6c1.7 0 3.2.9 4.1 2.2l22 34.9c.5.7.7 1.6.7 2.6 0 .9-.3 1.8-.7 2.6L55.3 81c-.9 1.3-2.4 2.2-4.1 2.2-1.7 0-3.2-.9-4.1-2.2zM74.8 37c.8 1.3 2.4 2.2 4.1 2.2 1.7 0 3.2-.9 4.1-2.2l4.2-6.7 8.1-12.8c.5-.7.7-1.6.7-2.6 0-.9-.3-1.8-.7-2.6L88.9 2.2C88 .9 86.5 0 84.8 0H60.2c-2.7 0-4.8 2.1-4.8 4.8 0 .9.3 1.8.7 2.6z" fill="#007bfc"/></svg>