<svg xmlns="http://www.w3.org/2000/svg" viewBox="0 0 95.6 95.6" width="95.6" height="95.6"><path d="M47.8 0c26.4 0 47.8 21.4 47.8 47.8S74.2 95.6 47.8 95.6 0 74.2 0 47.7 21.4 0 47.8 0zm0 9.1c21.4 0 38.8 17.3 38.8 38.8 0 14.2-7.7 26.7-19.2 33.4 2.4-8.4 3.4-17 3-26.9 2.5.7 3.9 1.1 6.4 1.9-2.9-7.3-6-13.9-10.1-20.6-3.6 6.9-8.5 13.4-13.4 18.5l8-.5C54.4 66 44.7 72 32.4 73.7c-2.8-13.9-.7-36.7 15-47.3L49 34c3-4.9 9-11.4 13.5-15.9-7.1-2.8-15.3-3.7-23.3-2.2 1.3 1.1 2.9 2.5 4.2 3.6C25.6 27 15.9 39.3 9.5 53.7c-.3-1.9-.4-3.9-.4-5.8 0-21.5 17.3-38.8 38.7-38.8z" clip-rule="evenodd" fill-rule="evenodd"></path></svg>