<?xml version="1.0" encoding="UTF-8" standalone="no"?>
<!-- Generator: Adobe Illustrator 23.0.1, SVG Export Plug-In . SVG Version: 6.00 Build 0)  -->

<svg
   xmlns:dc="http://purl.org/dc/elements/1.1/"
   xmlns:cc="http://creativecommons.org/ns#"
   xmlns:rdf="http://www.w3.org/1999/02/22-rdf-syntax-ns#"
   xmlns:svg="http://www.w3.org/2000/svg"
   xmlns="http://www.w3.org/2000/svg"
   xmlns:sodipodi="http://sodipodi.sourceforge.net/DTD/sodipodi-0.dtd"
   xmlns:inkscape="http://www.inkscape.org/namespaces/inkscape"
   version="1.1"
   id="Page_1"
   x="0px"
   y="0px"
   viewBox="0 0 95.599998 95.599998"
   xml:space="preserve"
   sodipodi:docname="Wargaming_logo.svg"
   width="95.599998"
   height="95.599998"
   inkscape:version="0.92.4 (5da689c313, 2019-01-14)"><metadata
   id="metadata34"><rdf:RDF><cc:Work
       rdf:about=""><dc:format>image/svg+xml</dc:format><dc:type
         rdf:resource="http://purl.org/dc/dcmitype/StillImage" /><dc:title></dc:title></cc:Work></rdf:RDF></metadata><defs
   id="defs32" /><sodipodi:namedview
   pagecolor="#ffffff"
   bordercolor="#666666"
   borderopacity="1"
   objecttolerance="10"
   gridtolerance="10"
   guidetolerance="10"
   inkscape:pageopacity="0"
   inkscape:pageshadow="2"
   inkscape:window-width="1920"
   inkscape:window-height="1017"
   id="namedview30"
   showgrid="false"
   fit-margin-top="0"
   fit-margin-left="0"
   fit-margin-right="0"
   fit-margin-bottom="0"
   inkscape:zoom="4.1431925"
   inkscape:cx="104.36657"
   inkscape:cy="47.8"
   inkscape:window-x="-8"
   inkscape:window-y="-8"
   inkscape:window-maximized="1"
   inkscape:current-layer="Page_1" />
<style
   type="text/css"
   id="style23">
	.st0{fill-rule:evenodd;clip-rule:evenodd;}
</style>
<g
   id="g27"
   transform="translate(0,-0.2)">
	<path
   class="st0"
   d="M 47.8,0.2 C 74.2,0.2 95.6,21.6 95.6,48 95.6,74.4 74.2,95.8 47.8,95.8 21.4,95.8 0,74.4 0,47.9 0,21.4 21.4,0.2 47.8,0.2 Z m 0,9.1 c 21.4,0 38.8,17.3 38.8,38.8 0,14.2 -7.7,26.7 -19.2,33.4 2.4,-8.4 3.4,-17 3,-26.9 2.5,0.7 3.9,1.1 6.4,1.9 -2.9,-7.3 -6,-13.9 -10.1,-20.6 -3.6,6.9 -8.5,13.4 -13.4,18.5 l 8,-0.5 C 54.4,66.2 44.7,72.2 32.4,73.9 29.6,60 31.7,37.2 47.4,26.6 l 1.6,7.6 c 3,-4.9 9,-11.4 13.5,-15.9 -7.1,-2.8 -15.3,-3.7 -23.3,-2.2 1.3,1.1 2.9,2.5 4.2,3.6 C 25.6,27.2 15.9,39.5 9.5,53.9 9.2,52 9.1,50 9.1,48.1 9.1,26.6 26.4,9.3 47.8,9.3 Z"
   id="path25"
   inkscape:connector-curvature="0"
   style="clip-rule:evenodd;fill-rule:evenodd" />
</g>
</svg>