<svg xmlns="http://www.w3.org/2000/svg" width="135.678" height="135.678" viewBox="0 0 135.678 135.678"><path d="M100.097 113.174V95.592l9.693 8.788a56.185 56.185 0 0 1-9.693 8.794zm-40.619 9.697l28.44-26.884v23.763a55.373 55.373 0 0 1-20.079 3.749 55.82 55.82 0 0 1-8.361-.628zM12.484 73.679l29.882 26.797 30.042-28.212 15.51-14.661v21.625L45.87 118.976c-18.092-7.802-31.252-24.931-33.386-45.297zm23.625-51.544l.019 17.672-9.907-8.884a56.14 56.14 0 0 1 9.888-8.788zm.06 56.425L13.077 57.853a55.285 55.285 0 0 1 6.056-16.928l17.012 15.256zm40.173-65.732L63.778 24.704 48.306 39.378l-.024-23.649a55.385 55.385 0 0 1 19.557-3.55c2.89 0 5.73.222 8.503.649zm46.293 64.812a55.275 55.275 0 0 1-5.836 16.656l-16.702-15.143V57.207zm.521-15.966L93.921 35.169 64.056 63.4 48.347 78.152l-.023-22.005 23.828-22.599 17.769-16.797c17.937 7.783 31.001 24.743 33.235 44.923zm-7.348-41.805C102.995 7.056 85.959 0 67.839 0c-18.121 0-35.157 7.056-47.97 19.869C7.056 32.682 0 49.718 0 67.839s7.056 35.157 19.869 47.97c12.813 12.813 29.849 19.869 47.97 19.869 18.12 0 35.156-7.056 47.969-19.869 12.813-12.813 19.87-29.849 19.87-47.97s-7.057-35.157-19.87-47.97z" fill="#03c736"></path></svg>