<svg xmlns="http://www.w3.org/2000/svg" version="1.0" width="900" height="900"><g stroke-linecap="round" stroke-linejoin="round"><path d="M316.607 181.288a298.235 298.235 0 0 0-84.91 62.924c11.84.228 23.75-.303 35.668-1.642a323.851 323.851 0 0 1 49.242-61.282zm28.153-12.212c25.365-1.197 50.574.531 75.13 5.152 8.474-7.594 16.386-15.715 23.768-24.207-33.044.674-66.42 6.86-98.898 19.055zm-15.579 27.536c-13.105 12.889-24.89 26.863-35.327 41.69 15.834-3.385 31.58-8.265 47.067-14.627l-11.74-27.063zm18.373-7.902l11.615 26.777c14.254-7.088 27.614-15.33 40.073-24.468-17.019-2.214-34.313-3.026-51.688-2.309zm121.49-38.12c-7.87 10.154-16.425 19.86-25.65 28.976 45.24 12.038 87.572 33.792 123.717 63.921a428.636 428.636 0 0 0 36.353-51.263 301.647 301.647 0 0 0-134.42-41.634zM215.03 263.431c-29.58 37.333-49.817 81.147-59.176 127.587 20.742 4.01 41.837 6.533 63.11 7.438 2.108-47.13 14.71-93.162 36.387-134.734a292.82 292.82 0 0 1-40.32-.29zm210.665-67.809c-17.61 14.756-37.186 27.599-58.593 38.156l53.6 123.563c51.96-24.63 96.808-58.532 133.385-98.803-37.17-30.978-81.338-52.505-128.392-62.916zm-146.498 65.591c-24.186 41.853-38.19 89.083-40.38 137.624 54.664-.227 110.157-10.965 163.61-33.365L348.88 242.024c-22.849 9.419-46.229 15.78-69.682 19.189zm341.088-58.164a449.078 449.078 0 0 1-38.221 53.708c30.282 28.656 55.362 63.708 72.955 104.267 3.636 8.38 6.9 16.826 9.763 25.332a594.496 594.496 0 0 0 55.613-66.226c-23.339-48.688-58.303-88.322-100.11-117.081zM152.543 410.713c-6.693 50.225-.743 102.722 19.735 152.764 28.518 3.131 57.376 4.26 86.349 3.215a320.175 320.175 0 0 1-13.688-27.785c-17.022-39.242-25.482-80.079-26.224-120.45-22.3-.929-44.422-3.556-66.172-7.744zM568.96 271.776c-38.445 42.413-85.615 78.084-140.298 103.913l58.996 136.006c60.974-28.2 114.99-65.436 161.176-109.496a301.157 301.157 0 0 0-12.16-33.216c-16.383-37.766-39.648-70.44-67.714-97.207zM238.544 418.78c.824 37.592 8.822 75.62 24.686 112.193a300.989 300.989 0 0 0 17.69 34.497c63.288-4.675 126.855-19.573 188.463-45.644L410.388 383.82c-56.107 23.546-114.415 34.797-171.844 34.96zm490.98-77.607c-17.708 23.575-37.148 45.984-58.285 66.976 13.812 53.395 13.05 108.143-.253 159.458 26.006-18.816 50.576-39.118 73.57-60.798 10.46-53.884 6.22-111.128-15.032-165.636zM181.8 584.485c26.134 52.206 65.819 93.712 112.853 122.113a736.206 736.206 0 0 0 92.825-13.423c-46.588-24.808-87.222-61.107-117.145-107.035a614.169 614.169 0 0 1-88.533-1.655zm472.75-160.308C608.52 466.56 555.306 502.56 495.64 530.1l48.327 111.407c35.564-16.245 69.268-34.87 100.952-55.78.01-.029.023-.055.033-.083 17.6-51.05 21.567-106.814 9.599-161.468zM293.265 584.505c32.033 45.414 75.552 80.01 124.777 101.544 36.23-9.243 72.177-21.392 107.627-36.467l-48.326-111.408c-60.174 25.483-122.203 40.67-184.078 46.33zm442.246-42.638c-23.367 20.321-48.108 39.362-74.227 56.928-16.588 44.806-43.148 85.984-78.135 120.005 75.09-37.125 128.257-102.144 152.362-176.933zM326.52 723.364c70.12 31.632 152.104 36.355 228.877 7.474a324.646 324.646 0 0 1-138.66-23.922 756.794 756.794 0 0 1-90.218 16.448zm305.269-105.712a766.283 766.283 0 0 1-79.838 42.262l18.803 43.347a303.922 303.922 0 0 0 61.035-85.61zm-181.73 80.329a303.93 303.93 0 0 0 102.371 13.297l-18.803-43.348c-27.593 11.74-55.47 21.771-83.568 30.05z" fill="#396"></path><path d="M450 0C296.442 0 160.78 77.047 79.562 194.563l87 50.25C230.185 157.105 333.44 100 450 100c116.56 0 219.815 57.105 283.438 144.813l87-50.25C739.22 77.046 603.558 0 450 0z" fill="#900" stroke-width="10"></path><path d="M32.188 282.75C11.448 334.467 0 390.9 0 450c0 231.504 175.097 422.357 400 447.25V796.375C230.47 772.078 100 626.215 100 450c0-40.892 7.03-80.136 19.938-116.625l-87.75-50.625zM867.813 282.75l-87.75 50.625C792.968 369.864 800 409.108 800 450c0 176.215-130.47 322.078-300 346.375V897.25C724.902 872.357 900 681.504 900 450c0-59.1-11.448-115.533-32.188-167.25z" fill="#069" stroke-width="10"></path></g></svg>