<svg xmlns="http://www.w3.org/2000/svg" viewBox="0 0 511.996 511.996"><g fill="#7b1fa2"><circle cx="377.484" cy="447.996" r="32"></circle><path d="M479.852 41.244c-5.824-5.952-13.696-9.248-22.112-9.248-16.16 0-29.856 12.064-31.776 28.608L377.676 365.5c-1.312 8.416 4.16 16.416 12.512 18.144 1.12.224 2.208.352 3.296.352 7.136 0 13.568-4.736 15.456-11.872l79.2-297.952c.16-.576.288-1.056.352-1.632.64-1.664.96-3.424.992-5.216.224-10.272-3.2-19.52-9.632-26.08zM300.012 3.42A68.13 68.13 0 0 1 278.156.668c-7.936-2.272-16.16 1.632-19.328 9.184l-89.12 214.688-89.6-214.688C76.94 2.3 68.62-1.668 60.78.668c-6.976 2.08-14.208 2.816-21.76 2.752-5.632-.224-10.688 2.464-13.76 7.008s-3.616 10.336-1.44 15.36l113.664 261.504v208.704c0 8.832 7.168 16 16 16h32c8.832 0 16-7.168 16-16l.192-209.152L315.148 25.788c2.144-5.024 1.632-10.816-1.44-15.328-3.04-4.544-8.32-6.848-13.696-7.04z"></path></g></svg>