<svg xmlns="http://www.w3.org/2000/svg" viewBox="0 0 353.85 130.52" width="353.85" height="130.52"><path d="M-89.69-83.63v308.76h537.26V-83.63zm441.5 213H6.07V12.13h345.74z" fill="none"></path><path d="M28.04 129.37V87.39L0 12.13h14.1l20.66 58.05L58.54 0h12.95l-30.5 87.89v41.48z" fill="red"></path><path d="M111.17 129.37h-10.82c-.49-1.8-.98-4.43-1.15-6.56h-.82c-3.61 4.59-8.2 7.71-15.41 7.71-11.81 0-19.84-8.85-19.84-25.09 0-17.71 9.02-28.86 32.14-28.86h1.8v-4.92c0-10.82-3.61-15.41-10.82-15.41-6.56 0-12.13 3.44-16.4 7.21l-2.46-11.31c3.77-3.12 11.31-6.56 19.68-6.56 14.59 0 22.63 6.23 22.63 26.24v38.86c0 7.87.82 14.75 1.47 18.69zm-14.1-43.12h-1.48c-15.91 0-19.35 7.05-19.35 17.71 0 9.51 3.12 15.74 9.67 15.74 4.43 0 8.85-2.95 11.15-6.56V86.25zm41.32 43.12H125.6V46.56h12.79v7.21h.82c2.3-3.12 8.53-8.2 16.23-8.2 10.82 0 16.56 6.07 16.56 18.69v65.11h-12.95V65.42c0-6.23-2.79-8.36-7.71-8.36-5.41 0-10 4.1-12.95 8.2zm46.24-38.21c0-30.66 11.48-45.58 28.04-45.58 3.94 0 8.04 1.31 10.49 3.12V12.13h12.79v117.24h-9.51l-.98-6.56h-.82c-3.61 4.59-8.2 7.71-14.92 7.71-16.23 0-25.09-13.78-25.09-39.36zm38.53-31.15c-2.62-2.62-5.41-3.93-9.67-3.93-10.33 0-15.25 15.58-15.25 32.47 0 19.35 3.61 31.16 12.95 31.16 6.4 0 9.84-3.12 11.97-6.4zm53.13 70.51c-17.05 0-27.55-13.61-27.55-39.02 0-26.56 7.38-45.91 24.92-45.91 13.77 0 22.79 10.33 22.79 38.37v7.05h-34.43c0 18.69 5.25 28.53 15.41 28.53 7.21 0 12.46-3.28 15.74-5.58l2.95 9.84c-5.23 4.09-11.63 6.72-19.83 6.72zm-14.1-50.01h21.15c0-14.1-2.3-24.43-9.67-24.43-7.87-.01-10.66 9.67-11.48 24.43zm89.86-33.78l-15.41 38.7 17.21 43.94h-13.28l-12.79-34.11-12.46 34.11h-12.63l17.22-42.8-15.58-39.85h13.28l10.66 30.01 11.31-30.01h12.47z"></path></svg>