<svg width="290.01" height="100" viewBox="0 0 290.01 100" xmlns="http://www.w3.org/2000/svg"><defs><linearGradient id="a" x2="1" gradientTransform="matrix(0 -164.3 -164.3 0 636.24 170.92)" gradientUnits="userSpaceOnUse"><stop stop-color="#ffe500" offset="0"></stop><stop stop-color="#fcb822" offset="1"></stop></linearGradient><linearGradient id="b" x2="1" gradientTransform="scale(206.6 -206.6) rotate(38.767 1.976 2.243)" gradientUnits="userSpaceOnUse"><stop stop-color="#168ccc" offset="0"></stop><stop stop-color="#00649e" offset="1"></stop></linearGradient><clipPath id="c"><path d="M248.83 206.33l139.83-63.093L325.566.007l-139.83 63.089 63.094 143.24"></path></clipPath><linearGradient id="d" x2="1" gradientTransform="matrix(0 -143.94 -143.94 0 287.19 149.02)" gradientUnits="userSpaceOnUse"><stop stop-color="#25a149" offset="0"></stop><stop stop-color="#008a52" offset="1"></stop></linearGradient><linearGradient id="e" x2="1" gradientTransform="scale(151.476 -151.476) rotate(80.595 .894 -.233)" gradientUnits="userSpaceOnUse"><stop stop-color="#d92231" offset="0"></stop><stop stop-color="#ba2234" offset="1"></stop></linearGradient></defs><path d="M290.005 21.355v68.786l-9.498 9.267V32.142l9.498-10.787" fill="#e79224"></path><path d="M716.52 173.3H555.95V1.36h160.57z" fill="url(#a)" transform="matrix(.3917 0 0 -.3917 0 100.024)"></path><path d="M227.615 21.402l-9.852 10.742h62.895l9.345-10.787-62.39.045" fill="#fef26f"></path><path d="M149.718 24.352l61.867-8.6-5.176 14.834-58.61 9.295.25-10.604 1.67-4.925" fill="#91c9ed"></path><path d="M526.96 177.28l21.881-154.04-155.74-21.883-21.03 148.92 9.094 7.106 145.8 19.893" fill="url(#b)" transform="matrix(.3917 0 0 -.3917 0 100.024)"></path><path d="M211.587 15.75l.048.364 8.023 61.783-4.677 13.023-8.57-60.337" fill="#0b9ad6"></path><g clip-path="url(#c)" transform="matrix(.3917 0 0 -.3917 0 100.024)"><path d="M0 255.36h740.38V.06H0z" fill="url(#d)"></path></g><path d="M91.778 0l5.686 19.204 54.77 24.713-4.604-18.35L91.778 0" fill="#98d0a0"></path><path d="M91.778 0L69.734 52.318 72.75 75.31l24.714-56.106L91.778 0" fill="#68bf6b"></path><path d="M156.3 177.5l23.047-151.58L24.817 1.69-.003 153.56l156.3 23.932" fill="url(#e)" transform="matrix(.3917 0 0 -.3917 0 100.024)"></path><path d="M0 39.87l4.25-21.198 61.116-9.796-4.142 21.62L0 39.872" fill="#ef463d"></path><path d="M65.366 8.876l8.961 59.946-4.075 21.046-9.028-59.372 4.142-21.62" fill="#761116"></path><path d="M196.033 42.146c-.276-1.874-.916-3.303-1.953-4.24-.825-.748-1.862-1.126-3.044-1.124-.302 0-.612.024-.935.071-1.583.228-2.796.962-3.54 2.173-.54.875-.803 1.93-.803 3.145 0 .465.04.955.115 1.469l2.225 15.7-17.54 2.58-2.225-15.702c-.27-1.826-.9-3.24-1.923-4.203-.826-.78-1.857-1.178-3.018-1.176-.275 0-.556.022-.844.065-1.65.237-2.908.957-3.671 2.15-.554.86-.821 1.92-.821 3.154 0 .473.04.974.116 1.502l6.002 40.83c.275 1.878.932 3.304 2.011 4.227.842.72 1.897 1.082 3.106 1.08.33 0 .674-.026 1.028-.079 1.51-.218 2.677-.949 3.38-2.158.504-.86.75-1.893.75-3.075 0-.473-.04-.969-.116-1.488l-2.452-16.132 17.539-2.578 2.454 16.131c.27 1.853.92 3.271 1.984 4.206.846.743 1.89 1.117 3.075 1.115.304 0 .616-.023.938-.07 1.578-.23 2.786-.952 3.508-2.154.52-.857.77-1.896.77-3.094 0-.474-.038-.972-.114-1.496zM124.697 64.73c-2.064 4.861-4.788 8.196-8.16 10.044-1.806.99-3.657 1.48-5.572 1.48-1.664 0-3.38-.372-5.15-1.121-3.834-1.634-6.221-4.26-7.255-7.965a14.574 14.574 0 0 1-.52-3.922c0-2.719.683-5.702 2.06-8.947 2.11-4.976 4.865-8.37 8.238-10.23 1.802-.993 3.654-1.486 5.576-1.486 1.682 0 3.42.377 5.221 1.14 3.809 1.621 6.173 4.253 7.188 7.975a14.63 14.63 0 0 1 .496 3.845c0 2.776-.702 5.84-2.122 9.187zm6-24.44c-2.152-2.269-4.766-4.054-7.831-5.354-3.043-1.292-6.12-1.937-9.22-1.937h-.143c-3.148.021-6.26.722-9.326 2.098v-.002c-3.21 1.398-6.007 3.353-8.38 5.863-2.374 2.51-4.307 5.528-5.8 9.044-1.472 3.475-2.289 6.951-2.44 10.428a26.566 26.566 0 0 0 1.552 10.191c1.115 3.101 2.76 5.786 4.928 8.048 2.168 2.262 4.836 4.063 7.991 5.398 3.019 1.282 6.084 1.924 9.188 1.922h.08c3.131-.014 6.237-.685 9.307-2.004l.002-.001.002-.002a26.586 26.586 0 0 0 8.449-5.93c2.4-2.51 4.341-5.52 5.825-9.015 1.483-3.496 2.291-6.976 2.424-10.438a26.242 26.242 0 0 0-1.632-10.146c-1.165-3.17-2.825-5.893-4.976-8.162zM54.719 80.417c-.477-.57-1.12-.99-1.902-1.264-.805-.281-1.777-.416-2.923-.416-1.08 0-2.313.12-3.705.358l-15.977 2.73c.17-1.23.78-2.848 1.859-4.82 1.204-2.21 2.978-4.863 5.323-7.952l.001-.001 1.845-2.464c.305-.378.73-.934 1.28-1.669 3.655-4.794 5.917-8.698 6.784-11.761.497-1.738.799-3.488.908-5.251.03-.483.043-.962.043-1.437 0-1.263-.103-2.508-.312-3.732-.19-1.115-.465-2.043-.833-2.788-.368-.743-.836-1.308-1.413-1.664-.65-.396-1.566-.564-2.763-.566-.989 0-2.174.12-3.562.356l-18.463 3.16c-2.236.382-3.887 1.04-4.94 2.032-.837.785-1.27 1.803-1.265 2.97 0 .305.028.62.084.947.26 1.568 1.077 2.719 2.395 3.304.778.35 1.718.519 2.815.519.748 0 1.569-.078 2.466-.231l15.453-2.606c.026.273.044.546.044.816a8.29 8.29 0 0 1-.502 2.836c-.459 1.28-1.605 3.108-3.432 5.432-.517.635-1.31 1.623-2.378 2.963-4.167 5.048-7.152 9.352-8.958 12.932l-.001.003v.002c-1.283 2.464-2.173 4.891-2.66 7.28a20.087 20.087 0 0 0-.429 4.016c0 .92.074 1.81.222 2.671.211 1.236.516 2.255.927 3.063.411.804.935 1.405 1.582 1.761.603.327 1.488.456 2.706.46 1.547 0 3.63-.228 6.265-.678l16.752-2.864c2.967-.51 5.03-1.218 6.23-2.203.957-.787 1.453-1.867 1.448-3.14 0-.321-.03-.654-.09-1-.14-.826-.447-1.535-.924-2.104zM40.521 64.917h.001l-.001.001h-.002zm217.611 13.648c-2.41 2.912-5.655 4.357-9.844 4.362-4.217-.005-7.476-1.445-9.899-4.343-2.416-2.9-3.638-6.886-3.64-12.003.002-5.215 1.22-9.261 3.623-12.184 2.409-2.92 5.677-4.371 9.916-4.377 4.19.006 7.433 1.455 9.844 4.377 2.405 2.923 3.625 6.97 3.625 12.184 0 5.093-1.217 9.075-3.625 11.984zM271.06 56.37c-1.245-3.127-3.088-5.93-5.524-8.405-2.332-2.378-4.954-4.173-7.848-5.377-2.898-1.205-6.03-1.807-9.394-1.806-3.387 0-6.55.6-9.47 1.805-2.918 1.205-5.538 3.001-7.848 5.38-2.433 2.449-4.268 5.243-5.486 8.369-1.218 3.129-1.829 6.541-1.829 10.234 0 3.644.612 7.045 1.848 10.194 1.23 3.15 3.055 5.978 5.467 8.475 2.26 2.336 4.853 4.103 7.759 5.295 2.907 1.19 6.098 1.787 9.56 1.787 3.336 0 6.465-.597 9.371-1.787 2.908-1.192 5.535-2.957 7.868-5.291 2.438-2.5 4.28-5.32 5.526-8.46 1.245-3.137 1.868-6.545 1.868-10.213s-.623-7.071-1.868-10.2" fill="#fff"></path></svg>