<svg xmlns="http://www.w3.org/2000/svg" viewBox="0 0 24 24"><radialGradient id="a" cx="14.274" cy="17.259" r="17.243" gradientTransform="matrix(1 0 0 -1 0 24)" gradientUnits="userSpaceOnUse"><stop offset="0" stop-color="#00ccda"></stop><stop offset=".22" stop-color="#0083ff"></stop><stop offset=".261" stop-color="#007af9"></stop><stop offset=".33" stop-color="#0060e8"></stop><stop offset=".333" stop-color="#005fe7"></stop><stop offset=".438" stop-color="#2639ad"></stop><stop offset=".522" stop-color="#401e84"></stop><stop offset=".566" stop-color="#4a1475"></stop></radialGradient><path d="M12 .5c-1.2 0-2.2.6-3.7 1.4S4.9 3.5 1.8 4.2l-.4.1v.4c0 7.2 2.6 12.1 5.2 15.1s5.2 4.2 5.2 4.2h.2l.2-.1s10.4-5.3 10.4-19.2v-.4l-.4-.1c-3.1-.7-5.1-1.6-6.6-2.3C14.2 1.1 13.2.5 12 .5z" fill="url(#a)"></path><radialGradient id="p" cx="62.159" cy="1067.446" r="11.322" gradientTransform="translate(-48.793 -1061.362)" gradientUnits="userSpaceOnUse"><stop offset=".156" stop-color="#ffea00"></stop><stop offset=".231" stop-color="#ffde00"></stop><stop offset=".365" stop-color="#ffbf00"></stop><stop offset=".541" stop-color="#ff8e00"></stop><stop offset=".763" stop-color="#ff272d"></stop><stop offset=".796" stop-color="#f92433"></stop><stop offset=".841" stop-color="#e91c45"></stop><stop offset=".893" stop-color="#cf0e62"></stop><stop offset=".935" stop-color="#b5007f"></stop></radialGradient><path d="M12 0c-1.2 0-2.2.7-3.7 1.4S4.9 3.3 1.8 4l-.4.1v.4c0 7.4 2.6 12.1 5.2 15.1s5.2 4.3 5.2 4.3l.2.1.2-.1s10.4-5.1 10.4-19.4v-.4l-.4-.1c-3.1-.7-5.1-1.8-6.6-2.6C14.2.7 13.2 0 12 0zm0 1c.8 0 1.7.5 3.2 1.3 1.4.7 3.5 1.6 6.4 2.3-.2 13.1-9 18-9.6 18.3-.3-.1-2.4-1.2-4.7-3.9-2.4-2.9-4.8-7.5-4.9-14.4C5.3 3.9 7.3 3 8.8 2.3 10.3 1.5 11.2 1 12 1z" fill="url(#p)"></path><radialGradient id="q" cx="62.864" cy="1076.212" r="11.322" gradientTransform="matrix(1 0 0 .9796 -48.793 -1045.936)" gradientUnits="userSpaceOnUse"><stop offset=".156" stop-color="#ffea00"></stop><stop offset=".231" stop-color="#ffde00"></stop><stop offset=".365" stop-color="#ffbf00"></stop><stop offset=".541" stop-color="#ff8e00"></stop><stop offset=".763" stop-color="#ff272d"></stop><stop offset=".796" stop-color="#f92433"></stop><stop offset=".841" stop-color="#e91c45"></stop><stop offset=".893" stop-color="#cf0e62"></stop><stop offset=".935" stop-color="#b5007f"></stop></radialGradient><path d="M12 .5c-1.2 0-2.2.6-3.7 1.4S4.9 3.5 1.8 4.2l-.4.1v.4c0 7.2 2.6 12.1 5.2 15.1s5.2 4.2 5.2 4.2h.2l.2-.1s10.4-5.3 10.4-19.2v-.4l-.4-.1c-3.1-.7-5.1-1.6-6.6-2.3C14.2 1.1 13.2.5 12 .5zm0 .9c.8 0 1.7.5 3.2 1.3 1.4.7 3.5 1.6 6.4 2.3-.2 12.8-9 17.6-9.6 17.9-.3-.1-2.4-1.2-4.7-3.8C4.9 16.3 2.5 11.8 2.4 5c2.9-.7 4.9-1.6 6.4-2.3s2.4-1.3 3.2-1.3z" fill="url(#q)"></path><linearGradient id="r" gradientUnits="userSpaceOnUse" x1="8.487" y1="11.168" x2="14.76" y2="11.168"><stop offset="0" stop-color="#000f43" stop-opacity=".4"></stop><stop offset=".485" stop-color="#001962" stop-opacity=".173"></stop><stop offset="1" stop-color="#002079" stop-opacity="0"></stop></linearGradient><path d="M14.8 16.3l-1.6-5.1c.8-.5 1.3-1.3 1.3-2.3 0-1.5-1.2-2.8-2.8-2.8S8.9 7.3 8.9 8.8c0 1 .5 1.8 1.3 2.3l-1.6 5.1h6.2z" fill="url(#r)"></path><g><radialGradient id="s" cx="15.818" cy="7.164" r="11.985" gradientTransform="matrix(.9038 .4279 -.4841 1.0226 4.989 -6.93)" gradientUnits="userSpaceOnUse"><stop offset=".156" stop-color="#ffea00"></stop><stop offset=".231" stop-color="#ffde00"></stop><stop offset=".365" stop-color="#ffbf00"></stop><stop offset=".541" stop-color="#ff8e00"></stop><stop offset=".763" stop-color="#ff272d"></stop><stop offset=".796" stop-color="#f92433"></stop><stop offset=".841" stop-color="#e91c45"></stop><stop offset=".893" stop-color="#cf0e62"></stop><stop offset=".935" stop-color="#b5007f"></stop></radialGradient><circle cx="12" cy="8.8" r="2.8" fill="url(#s)"></circle><g><radialGradient id="t" cx="15.818" cy="7.164" r="11.985" gradientTransform="matrix(.9038 .4279 -.4841 1.0226 4.989 -6.93)" gradientUnits="userSpaceOnUse"><stop offset=".156" stop-color="#ffea00"></stop><stop offset=".231" stop-color="#ffde00"></stop><stop offset=".365" stop-color="#ffbf00"></stop><stop offset=".541" stop-color="#ff8e00"></stop><stop offset=".763" stop-color="#ff272d"></stop><stop offset=".796" stop-color="#f92433"></stop><stop offset=".841" stop-color="#e91c45"></stop><stop offset=".893" stop-color="#cf0e62"></stop><stop offset=".935" stop-color="#b5007f"></stop></radialGradient><path fill="url(#t)" d="M12 6.4l-3.1 9.9h6.2z"></path></g></g></svg>