<?xml version="1.0" encoding="utf-8"?>
<!-- Generator: Adobe Illustrator 22.1.0, SVG Export Plug-In . SVG Version: 6.00 Build 0)  -->
<svg version="1.1" id="Firefox_-_Large" xmlns="http://www.w3.org/2000/svg" xmlns:xlink="http://www.w3.org/1999/xlink" x="0px"
	 y="0px" viewBox="0 0 24 24" style="enable-background:new 0 0 24 24;" xml:space="preserve">
<style type="text/css">
	.st0{fill:url(#SVGID_1_);}
	.st1{fill:url(#SVGID_2_);}
	.st2{display:none;fill:url(#_Path__1_);}
	.st3{fill:url(#SVGID_3_);}
	.st4{fill:url(#SVGID_4_);}
	.st5{fill:url(#SVGID_5_);}
	.st6{fill:url(#SVGID_6_);}
	.st7{fill:url(#SVGID_7_);}
	.st8{fill:url(#SVGID_8_);}
	.st9{fill:url(#SVGID_9_);}
	.st10{fill:url(#SVGID_10_);}
	.st11{fill:url(#SVGID_11_);}
	.st12{fill:url(#SVGID_12_);}
	.st13{fill:url(#SVGID_13_);}
	.st14{fill:url(#SVGID_14_);}
	.st15{fill:url(#SVGID_15_);}
	.st16{fill:url(#SVGID_16_);}
</style>
<title>firefox-logo</title>
<g id="surface1_2_">
	<g>
		<radialGradient id="SVGID_1_" cx="14.274" cy="6.7413" r="17.2427" gradientUnits="userSpaceOnUse">
			<stop  offset="0" style="stop-color:#00CCDA"/>
			<stop  offset="0.22" style="stop-color:#0083FF"/>
			<stop  offset="0.261" style="stop-color:#007AF9"/>
			<stop  offset="0.33" style="stop-color:#0060E8"/>
			<stop  offset="0.333" style="stop-color:#005FE7"/>
			<stop  offset="0.438" style="stop-color:#2639AD"/>
			<stop  offset="0.522" style="stop-color:#401E84"/>
			<stop  offset="0.566" style="stop-color:#4A1475"/>
		</radialGradient>
		<path class="st0" d="M12,0.5c-1.2,0-2.2,0.6-3.7,1.4S4.9,3.5,1.8,4.2L1.4,4.3v0.4c0,7.2,2.6,12.1,5.2,15.1s5.2,4.2,5.2,4.2L12,24
			l0.2-0.1c0,0,10.4-5.3,10.4-19.2V4.3l-0.4-0.1c-3.1-0.7-5.1-1.6-6.6-2.3C14.2,1.1,13.2,0.5,12,0.5z"/>
	</g>
</g>
<g>
	
		<radialGradient id="SVGID_2_" cx="-15714.2627" cy="-8330.916" r="6.7906" fx="-15714.6963" fy="-8330.916" gradientTransform="matrix(0.762 3.400000e-02 -5.000000e-02 1.12 11576.1055 9871.7871)" gradientUnits="userSpaceOnUse">
		<stop  offset="4.500000e-02" style="stop-color:#FFEA00"/>
		<stop  offset="0.12" style="stop-color:#FFDE00"/>
		<stop  offset="0.254" style="stop-color:#FFBF00"/>
		<stop  offset="0.429" style="stop-color:#FF8E00"/>
		<stop  offset="0.769" style="stop-color:#FF272D"/>
		<stop  offset="0.872" style="stop-color:#E0255A"/>
		<stop  offset="0.953" style="stop-color:#CC2477"/>
		<stop  offset="1" style="stop-color:#C42482"/>
	</radialGradient>
	<path class="st1" d="M16.3,4.5c-0.4,0.4-0.5,1.4-0.2,2.3c0.4,1,0.9,0.7,1.3,1.7c0.5,1.3,0.2,3,0.2,3s0.6,1.6,0.9-0.1
		C19.5,8.3,16.3,5.3,16.3,4.5z"/>
	
		<radialGradient id="_Path__1_" cx="-8037.2422" cy="-8008.1841" r="11.9166" gradientTransform="matrix(1.225 0 0 1.225 9860.3125 9816.1025)" gradientUnits="userSpaceOnUse">
		<stop  offset="0" style="stop-color:#00CCDA"/>
		<stop  offset="0.22" style="stop-color:#0083FF"/>
		<stop  offset="0.261" style="stop-color:#007AF9"/>
		<stop  offset="0.33" style="stop-color:#0060E8"/>
		<stop  offset="0.333" style="stop-color:#005FE7"/>
		<stop  offset="0.438" style="stop-color:#2639AD"/>
		<stop  offset="0.522" style="stop-color:#401E84"/>
		<stop  offset="0.566" style="stop-color:#4A1475"/>
	</radialGradient>
	<path id="_Path_" class="st2" d="M11.9,17.8c3.7,0,6.7-3,6.7-6.7s-3-6.7-6.7-6.7s-6.7,3-6.7,6.7C5.2,14.8,8.2,17.8,11.9,17.8z"/>
	
		<linearGradient id="SVGID_3_" gradientUnits="userSpaceOnUse" x1="12.8478" y1="322.15" x2="9.9646" y2="312.7184" gradientTransform="matrix(1 0 0 1 0 -308)">
		<stop  offset="0" style="stop-color:#000F43;stop-opacity:0.4"/>
		<stop  offset="0.485" style="stop-color:#001962;stop-opacity:0.173"/>
		<stop  offset="1" style="stop-color:#002079;stop-opacity:0"/>
	</linearGradient>
	<path class="st3" d="M16.9,15.3c-0.1,0.1-0.3,0.2-0.5,0.3c0.2-0.3,0.4-0.6,0.6-0.9c0.1-0.2,0.3-0.3,0.4-0.5
		c0.1-0.1,0.1-0.2,0.2-0.3c0.4-0.7,0.8-1.8,0.8-2.9v0c0,0,0-0.1,0-0.1c0-0.3,0-0.6-0.1-0.8c0,0,0,0,0,0.1c0,0,0,0,0,0
		c0,0,0,0.1,0,0.1c0.1,0.7,0,1.3-0.3,1.8c0,0,0,0,0,0c0.1-0.7,0.2-1.5,0-2.3c0,0-0.1-0.4-0.5-1.5c-0.3-0.7-0.8-1.2-1.2-1.6
		c-0.4-0.5-0.7-0.8-0.9-1c-0.4-0.4-0.6-0.7-0.6-0.9c-0.1,0-0.8-0.8-0.9-0.8c-0.3,0.5-1.3,2.1-0.9,3.5c0.2,0.7,0.8,1.4,1.4,1.7
		c0,0,0.3,0.4,0.5,1.2c0.2,0.8,0.1,1.4-0.2,2.4c-0.4,0.8-1.4,1.6-2.3,1.7c-2,0.2-2.7-1-2.7-1c0.7,0.3,1.5,0.2,1.9-0.1
		c0.5-0.3,0.8-0.5,1-0.4c0.2,0.1,0.4-0.2,0.2-0.4c-0.3-0.4-0.7-0.6-1.2-0.5c-0.5,0.1-0.9,0.5-1.5,0.1c0,0-0.1,0-0.1-0.1
		c0,0,0.1,0,0.1,0c-0.1-0.1-0.3-0.2-0.4-0.3c0,0,0.1,0,0.1,0c-0.6-0.5-0.5-0.8-0.5-1c0-0.2,0.1-0.4,0.3-0.5c0.1,0,0.1,0.1,0.1,0.1
		s0-0.1-0.1-0.1c0,0,0,0,0,0c0.1,0,0.2,0.1,0.3,0.2c0.1,0.1,0.1,0.1,0.1,0.1s0,0,0-0.1c0,0,0-0.1-0.1-0.2h0c0.1,0,0.1,0.1,0.2,0.1
		c0-0.1,0.1-0.2,0.1-0.4c0-0.1,0-0.2,0-0.2c0,0,0-0.1,0.1,0c0,0,0-0.1,0-0.1v0c0-0.2,1-0.6,1.1-0.7c0.1-0.1,0.2-0.2,0.3-0.3
		c0.1-0.1,0.1-0.2,0.1-0.4c0-0.1-0.1-0.2-1-0.3c-0.3,0-0.4-0.2-0.5-0.4c0,0,0-0.1,0-0.1c0,0,0-0.1,0-0.1c0.2-0.5,0.4-0.9,0.8-1.2
		c0,0-0.1,0-0.1,0C11,6,11.2,6,11.2,6c0,0-0.2-0.1-0.3-0.1c-0.2,0-0.2,0-0.3,0.1c0,0,0.2-0.1,0.1-0.1c-0.2,0-0.4,0.1-0.6,0.3
		c0,0,0,0,0-0.1c-0.1,0-0.3,0.2-0.4,0.3c0,0,0-0.1,0-0.1C9.6,6.4,9.5,6.5,9.5,6.6l0,0C8.9,6.3,8.4,6.3,8,6.4c-0.1-0.1-0.1,0-0.3-0.5
		c0,0,0,0,0,0c0-0.1,0,0.1,0,0c-0.3,0.3-0.8,0.6-1,0.8c0,0,0.3-0.1,0,0c-0.1,0-0.1,0.1-0.1,0.6c0,0,0,0.1,0,0.1
		C6.3,7.7,6.2,7.8,6.2,7.9c-0.2,0.4-0.5,1-0.7,2c0.1-0.3,0.2-0.5,0.4-0.8c-0.2,0.5-0.4,1.3-0.4,2.6c0-0.3,0.1-0.5,0.2-0.8
		c0,1,0.1,2.1,0.5,3c0.1,0.3,0.4,0.9,0.8,1.4c1.2,1.3,3,2.1,4.9,2.1C13.8,17.6,15.7,16.7,16.9,15.3z"/>
	
		<radialGradient id="SVGID_4_" cx="-8972.083" cy="-6856.6235" r="4.0196" gradientTransform="matrix(1.219 0.123 -0.123 1.219 10113.2588 9474.5283)" gradientUnits="userSpaceOnUse">
		<stop  offset="3.000000e-03" style="stop-color:#FFEA00"/>
		<stop  offset="0.497" style="stop-color:#FF272D"/>
		<stop  offset="1" style="stop-color:#C42482"/>
	</radialGradient>
	<path class="st4" d="M15.4,16.2c2.5-0.3,3.5-2.8,2.1-2.9C16.3,13.3,14.3,16.4,15.4,16.2z"/>
	
		<radialGradient id="SVGID_5_" cx="-8972.4463" cy="-6860.478" r="6.7123" gradientTransform="matrix(1.219 0.123 -0.123 1.219 10113.2588 9474.5283)" gradientUnits="userSpaceOnUse">
		<stop  offset="3.000000e-03" style="stop-color:#FFE900"/>
		<stop  offset="0.157" style="stop-color:#FFAF0E"/>
		<stop  offset="0.316" style="stop-color:#FF7A1B"/>
		<stop  offset="0.472" style="stop-color:#FF4E26"/>
		<stop  offset="0.621" style="stop-color:#FF2C2E"/>
		<stop  offset="0.762" style="stop-color:#FF1434"/>
		<stop  offset="0.892" style="stop-color:#FF0538"/>
		<stop  offset="1" style="stop-color:#FF0039"/>
	</radialGradient>
	<path class="st5" d="M17.7,12.8c1.7-1,1.2-3.1,1.2-3.1s-0.7,0.8-1.1,2C17.5,12.9,16.7,13.4,17.7,12.8z"/>
	
		<radialGradient id="SVGID_6_" cx="-8971.4971" cy="-6854.2559" r="6.1593" gradientTransform="matrix(1.219 0.123 -0.123 1.219 10113.2588 9474.5283)" gradientUnits="userSpaceOnUse">
		<stop  offset="3.000000e-03" style="stop-color:#FF272D"/>
		<stop  offset="0.497" style="stop-color:#C42482"/>
		<stop  offset="0.986" style="stop-color:#620700"/>
	</radialGradient>
	<path class="st6" d="M12.4,17.5c2.4,0.8,4.4-1.1,3.1-1.7C14.4,15.2,11.3,17.1,12.4,17.5z"/>
	
		<radialGradient id="SVGID_7_" cx="15.4753" cy="317.1026" r="11.7804" fx="15.8967" fy="316.8943" gradientTransform="matrix(1 0 0 1 0 -308)" gradientUnits="userSpaceOnUse">
		<stop  offset="0.156" style="stop-color:#FFEA00"/>
		<stop  offset="0.231" style="stop-color:#FFDE00"/>
		<stop  offset="0.365" style="stop-color:#FFBF00"/>
		<stop  offset="0.541" style="stop-color:#FF8E00"/>
		<stop  offset="0.763" style="stop-color:#FF272D"/>
		<stop  offset="0.796" style="stop-color:#F92433"/>
		<stop  offset="0.841" style="stop-color:#E91C45"/>
		<stop  offset="0.893" style="stop-color:#CF0E62"/>
		<stop  offset="0.935" style="stop-color:#B5007F"/>
	</radialGradient>
	<path class="st7" d="M17.9,13.7c0.1-0.1,0.1-0.3,0.2-0.5c0.4-0.7,0.4-1.2,0.4-1.2c0.2-1.3,0.2-1.8,0.1-2.7
		c-0.1-0.8-0.7-1.9-1.1-2.4c-0.5-0.5-0.1-0.4-0.6-0.8c-0.4-0.5-0.8-0.9-1-1.1c-1.6-1.3-1.5-1.6-1.5-1.6c0,0,0,0,0,0
		c0-0.1,0-0.1,0-0.1s-0.9,0.9-1,2.3c-0.1,0.9,0.2,1.9,0.7,2.5c0.3,0.3,0.6,0.6,0.9,0.9l0,0c0.4,0.5,0.6,1.2,0.6,2
		c0,1.8-1.5,3.3-3.3,3.3c-0.2,0-0.5,0-0.7-0.1c-0.9-0.2-1.4-0.6-1.6-0.9c-0.1-0.2-0.2-0.3-0.2-0.3c0.8,0.3,1.6,0.2,2.1-0.1
		c0.5-0.3,0.8-0.5,1.1-0.4c0.3,0.1,0.5-0.2,0.3-0.4c-0.2-0.3-0.6-0.6-1.3-0.5c-0.5,0.1-1,0.4-1.7,0.1c0,0-0.1,0-0.1-0.1
		c0,0,0.1,0,0.1,0c-0.1-0.1-0.4-0.2-0.4-0.3c0,0,0.1,0,0.1,0c-0.6-0.5-0.6-0.8-0.5-1c0-0.2,0.1-0.4,0.3-0.4c0.1,0,0.2,0.1,0.2,0.1
		s0-0.1-0.1-0.1c0,0,0,0,0,0c0.1,0,0.2,0.1,0.3,0.2c0.1,0.1,0.2,0.1,0.2,0.1s0,0,0-0.1c0,0,0-0.1-0.2-0.2h0c0.1,0,0.1,0.1,0.2,0.1
		c0-0.1,0.1-0.2,0.1-0.4c0-0.1,0-0.2,0-0.2c0,0,0-0.1,0.1,0c0,0,0-0.1,0-0.1v0c0.1-0.2,1.1-0.6,1.2-0.7c0.1-0.1,0.2-0.2,0.3-0.3
		c0.1-0.1,0.1-0.2,0.1-0.4c0-0.1,0-0.1-0.3-0.2c-0.2,0-0.4-0.1-0.9-0.1c-0.3,0-0.5-0.2-0.6-0.4c0,0,0-0.1-0.1-0.1c0,0,0-0.1,0-0.1
		c0.2-0.5,0.5-0.9,0.9-1.1c0,0-0.1,0-0.1,0c0,0,0.2-0.1,0.2-0.1c0,0-0.2-0.1-0.4-0.1c-0.2,0-0.2,0-0.4,0.1c0,0,0.2-0.1,0.2-0.1
		c-0.2,0-0.5,0.1-0.7,0.3c0,0,0,0,0-0.1c-0.1,0-0.4,0.2-0.4,0.3c0,0,0-0.1,0-0.1C9.4,6.2,9.3,6.3,9.2,6.3l0,0C8.6,6.1,8,6.1,7.6,6.2
		C7.5,6.1,7.3,6,7.1,5.5c0,0,0,0.1,0,0C7,5.3,6.9,5,6.9,4.8c0,0-0.2,0.1-0.3,0.4c0,0.1,0,0.1-0.1,0.1c0,0,0-0.1,0-0.1
		c0,0-0.1,0.1-0.1,0.2c0,0.1,0,0.1-0.1,0.2l0,0c0,0,0-0.1,0-0.1C6.3,5.7,6.2,5.8,6.1,6C6.1,6.2,6,6.6,5.9,7.1c0,0,0,0.1,0,0.1
		C5.7,7.4,5.6,7.6,5.6,7.7c-0.3,0.4-0.5,1-0.8,2C4.9,9.4,5,9.2,5.2,8.9C5,9.4,4.7,10.2,4.7,11.5c0.1-0.3,0.1-0.5,0.2-0.8
		c0,0.8,0.1,1.8,0.6,3c0.3,0.7,1,2.1,2.8,3.1l0,0c0,0,0.6,0.4,1.6,0.8c0.1,0,0.2,0.1,0.2,0.1c0,0,0,0-0.1,0c0.7,0.2,1.4,0.3,2.1,0.3
		c2.6,0,3.4-1.1,3.4-1.1s0,0,0,0c0,0,0.1-0.1,0.1-0.1c-0.4,0.4-1.4,0.4-1.7,0.4c0.6-0.2,1-0.3,1.8-0.6c0.1,0,0.2-0.1,0.3-0.1
		c0,0,0,0,0,0c0,0,0,0,0.1,0c0.4-0.2,0.7-0.4,1.1-0.7c0.8-0.6,0.9-1.2,1-1.6c0,0,0,0.1-0.1,0.2c-0.2,0.4-0.6,0.7-1.1,0.9
		c0.2-0.3,0.4-0.6,0.6-0.9C17.7,14.2,17.8,13.9,17.9,13.7z"/>
	
		<radialGradient id="SVGID_8_" cx="14.589" cy="311.1874" r="13.9105" gradientTransform="matrix(1 0 0 1 0 -308)" gradientUnits="userSpaceOnUse">
		<stop  offset="0.279" style="stop-color:#FFEA00"/>
		<stop  offset="0.402" style="stop-color:#FFDD00"/>
		<stop  offset="0.63" style="stop-color:#FFBA00"/>
		<stop  offset="0.856" style="stop-color:#FF9100"/>
		<stop  offset="0.933" style="stop-color:#FF6711"/>
		<stop  offset="0.994" style="stop-color:#FF4A1D"/>
	</radialGradient>
	<path class="st8" d="M17,15.2c0.3-0.3,0.6-0.8,0.8-1.2c0.6-1.2,1.4-3.1,0.7-5.1c-0.5-1.6-1.3-2.5-2.2-3.3c-1.5-1.4-1.9-2-1.9-2.4
		c0,0-1.7,1.9-1,4s2.3,2,3.3,4.1c1.2,2.5-1,5.2-2.8,6c0.1,0,4-0.9,4.2-3.1C18.2,14.1,18.1,14.7,17,15.2z"/>
	
		<linearGradient id="SVGID_9_" gradientUnits="userSpaceOnUse" x1="-8982.3643" y1="-6858.9883" x2="-8978.0811" y2="-6860.0801" gradientTransform="matrix(1.219 0.123 -0.123 1.219 10113.2588 9474.5283)">
		<stop  offset="0" style="stop-color:#C42482;stop-opacity:0.5"/>
		<stop  offset="0.474" style="stop-color:#FF272D;stop-opacity:0.5"/>
		<stop  offset="0.486" style="stop-color:#FF2C2C;stop-opacity:0.513"/>
		<stop  offset="0.675" style="stop-color:#FF7A1A;stop-opacity:0.72"/>
		<stop  offset="0.829" style="stop-color:#FFB20D;stop-opacity:0.871"/>
		<stop  offset="0.942" style="stop-color:#FFD605;stop-opacity:0.964"/>
		<stop  offset="1" style="stop-color:#FFE302"/>
	</linearGradient>
	<path class="st9" d="M11.9,8c0-0.1-0.1-0.2-1.2-0.3c-0.4,0-0.6-0.5-0.7-0.6C9.9,7.4,9.8,7.9,9.9,8.4c0,0.3,0.3,0.7,0.4,0.9
		c0,0,0,0,0,0c0.2-0.2,1.1-0.5,1.2-0.6C11.5,8.6,11.9,8.4,11.9,8z"/>
	
		<linearGradient id="SVGID_10_" gradientUnits="userSpaceOnUse" x1="181.147" y1="-989.5215" x2="180.3251" y2="-991.6278" gradientTransform="matrix(0.995 0.1 -0.1 0.995 -272.326 973.5411)">
		<stop  offset="0" style="stop-color:#891551;stop-opacity:0.6"/>
		<stop  offset="1" style="stop-color:#C42482;stop-opacity:0"/>
	</linearGradient>
	<path class="st10" d="M7.1,5.5C7.1,5.5,7.1,5.6,7.1,5.5C7,5.3,6.9,5,6.9,4.8c0,0-0.2,0.1-0.3,0.4c0,0.1,0,0.1-0.1,0.1
		c0,0,0-0.1,0-0.1c0,0-0.1,0.1-0.1,0.2c0,0.1,0,0.1-0.1,0.2c0,0,0-0.1,0-0.1C6,6.2,5.9,7.2,5.9,7.2c0.8-0.8,1.6-1,1.6-1
		C7.5,6.1,7.3,5.9,7.1,5.5L7.1,5.5z"/>
	
		<linearGradient id="SVGID_11_" gradientUnits="userSpaceOnUse" x1="-138.0772" y1="613.98" x2="-136.6599" y2="615.5898" gradientTransform="matrix(0.995 0.1 -0.1 0.995 206.809 -586.871)">
		<stop  offset="5.000000e-03" style="stop-color:#891551;stop-opacity:0.5"/>
		<stop  offset="0.484" style="stop-color:#FF272D;stop-opacity:0.5"/>
		<stop  offset="1" style="stop-color:#FF272D;stop-opacity:0"/>
	</linearGradient>
	<path class="st11" d="M10,14c-1.1-0.4-2.2-1.1-2.2-2.5C7.8,9.6,9.5,10,9.5,10c-0.1,0-0.2,0.1-0.3,0.3c-0.1,0.2-0.2,0.5,0.2,0.9
		c0.6,0.6-1.1,1.4,1.5,3C11,14.2,10.3,14.1,10,14L10,14z"/>
	
		<linearGradient id="SVGID_12_" gradientUnits="userSpaceOnUse" x1="-135.3944" y1="616.7778" x2="-135.3934" y2="615.6515" gradientTransform="matrix(0.995 0.1 -0.1 0.995 206.809 -586.871)">
		<stop  offset="0" style="stop-color:#C42482"/>
		<stop  offset="8.299999e-02" style="stop-color:#C42482;stop-opacity:0.81"/>
		<stop  offset="0.206" style="stop-color:#C42482;stop-opacity:0.565"/>
		<stop  offset="0.328" style="stop-color:#C42482;stop-opacity:0.362"/>
		<stop  offset="0.447" style="stop-color:#C42482;stop-opacity:0.204"/>
		<stop  offset="0.562" style="stop-color:#C42482;stop-opacity:9.100000e-02"/>
		<stop  offset="0.673" style="stop-color:#C42482;stop-opacity:2.300000e-02"/>
		<stop  offset="0.773" style="stop-color:#C42482;stop-opacity:0"/>
	</linearGradient>
	<path class="st12" d="M9.6,13.1c0.7,0.3,1.6,0.2,2.1-0.1c0.3-0.2,0.8-0.5,1.1-0.4c-0.2-0.1-0.4-0.1-0.6-0.1c0,0-0.1,0-0.1,0
		c-0.1,0-0.2,0-0.2,0c-0.1,0-0.3,0.1-0.4,0.1c0,0,0.1-0.1,0.1-0.1c-0.1,0-0.1,0-0.2,0c-0.1,0-0.1,0-0.1,0c-1.6,0.1-2.9-0.8-2.9-0.8
		C8.2,12,8.8,12.8,9.6,13.1L9.6,13.1z"/>
	
		<linearGradient id="SVGID_13_" gradientUnits="userSpaceOnUse" x1="14.0499" y1="311.7119" x2="18.6534" y2="322.006" gradientTransform="matrix(1 0 0 1 0 -308)">
		<stop  offset="0" style="stop-color:#FFF14F"/>
		<stop  offset="0.268" style="stop-color:#FFEE4C"/>
		<stop  offset="0.452" style="stop-color:#FFE643"/>
		<stop  offset="0.612" style="stop-color:#FFD834"/>
		<stop  offset="0.757" style="stop-color:#FFC41E"/>
		<stop  offset="0.892" style="stop-color:#FFAB02"/>
		<stop  offset="0.902" style="stop-color:#FFA900"/>
		<stop  offset="0.949" style="stop-color:#FFA000"/>
		<stop  offset="1" style="stop-color:#FF9100"/>
	</linearGradient>
	<path class="st13" d="M17,15.2c1.6-1.5,2.4-3.4,2-5.5c0,0,0.1,1.1-0.4,2.2c0.2-1.1,0.3-2.4-0.4-3.8c-0.9-1.8-2.3-2.8-2.8-3.2
		c-0.8-0.6-1.2-1.2-1.2-1.4c-0.2,0.5-1,2.2-0.1,3.7c0.9,1.4,2.2,1.8,3.1,3.1C19,12.7,17,15.2,17,15.2z"/>
	
		<linearGradient id="SVGID_14_" gradientUnits="userSpaceOnUse" x1="14.9592" y1="317.6325" x2="12.7786" y2="323.4874" gradientTransform="matrix(1 0 0 1 0 -308)">
		<stop  offset="0" style="stop-color:#FF8E00"/>
		<stop  offset="4.000000e-02" style="stop-color:#FF8E00;stop-opacity:0.858"/>
		<stop  offset="8.400000e-02" style="stop-color:#FF8E00;stop-opacity:0.729"/>
		<stop  offset="0.13" style="stop-color:#FF8E00;stop-opacity:0.628"/>
		<stop  offset="0.178" style="stop-color:#FF8E00;stop-opacity:0.557"/>
		<stop  offset="0.227" style="stop-color:#FF8E00;stop-opacity:0.514"/>
		<stop  offset="0.282" style="stop-color:#FF8E00;stop-opacity:0.5"/>
		<stop  offset="0.389" style="stop-color:#FF8E00;stop-opacity:0.478"/>
		<stop  offset="0.524" style="stop-color:#FF8E00;stop-opacity:0.416"/>
		<stop  offset="0.676" style="stop-color:#FF8E00;stop-opacity:0.314"/>
		<stop  offset="0.838" style="stop-color:#FF8E00;stop-opacity:0.172"/>
		<stop  offset="1" style="stop-color:#FF8E00;stop-opacity:0"/>
	</linearGradient>
	<path class="st14" d="M16.7,11.2c-0.5-1.1-1.2-1.6-1.9-2.2c0.1,0.1,0.1,0.1,0.1,0.2c0.6,0.6,1.4,2.1,0.8,3.9
		c-1.1,3.5-5.7,1.9-6.2,1.4c0.2,2,3.6,3,5.8,1.7C16.6,15.1,17.6,13.1,16.7,11.2z"/>
</g>
<g id="surface1">
	<g>
		
			<radialGradient id="SVGID_15_" cx="62.1594" cy="-1043.4463" r="11.3218" gradientTransform="matrix(1 0 0 -1 -48.7933 -1037.3623)" gradientUnits="userSpaceOnUse">
			<stop  offset="0.156" style="stop-color:#FFEA00"/>
			<stop  offset="0.231" style="stop-color:#FFDE00"/>
			<stop  offset="0.365" style="stop-color:#FFBF00"/>
			<stop  offset="0.541" style="stop-color:#FF8E00"/>
			<stop  offset="0.763" style="stop-color:#FF272D"/>
			<stop  offset="0.796" style="stop-color:#F92433"/>
			<stop  offset="0.841" style="stop-color:#E91C45"/>
			<stop  offset="0.893" style="stop-color:#CF0E62"/>
			<stop  offset="0.935" style="stop-color:#B5007F"/>
		</radialGradient>
		<path class="st15" d="M12,0c-1.2,0-2.2,0.7-3.7,1.4S4.9,3.3,1.8,4L1.4,4.1v0.4c0,7.4,2.6,12.1,5.2,15.1s5.2,4.3,5.2,4.3L12,24
			l0.2-0.1c0,0,10.4-5.1,10.4-19.4V4.1L22.2,4c-3.1-0.7-5.1-1.8-6.6-2.6C14.2,0.7,13.2,0,12,0z M12,1c0.8,0,1.7,0.5,3.2,1.3
			c1.4,0.7,3.5,1.6,6.4,2.3c-0.2,13.1-9,18-9.6,18.3c-0.3-0.1-2.4-1.2-4.7-3.9c-2.4-2.9-4.8-7.5-4.9-14.4C5.3,3.9,7.3,3,8.8,2.3
			C10.3,1.5,11.2,1,12,1z"/>
	</g>
</g>
<g id="surface1_1_">
	<g>
		
			<radialGradient id="SVGID_16_" cx="62.8641" cy="-1052.2122" r="11.3218" gradientTransform="matrix(1 0 0 -0.9796 -48.7933 -1022.4256)" gradientUnits="userSpaceOnUse">
			<stop  offset="0.156" style="stop-color:#FFEA00"/>
			<stop  offset="0.231" style="stop-color:#FFDE00"/>
			<stop  offset="0.365" style="stop-color:#FFBF00"/>
			<stop  offset="0.541" style="stop-color:#FF8E00"/>
			<stop  offset="0.763" style="stop-color:#FF272D"/>
			<stop  offset="0.796" style="stop-color:#F92433"/>
			<stop  offset="0.841" style="stop-color:#E91C45"/>
			<stop  offset="0.893" style="stop-color:#CF0E62"/>
			<stop  offset="0.935" style="stop-color:#B5007F"/>
		</radialGradient>
		<path class="st16" d="M12,0.5c-1.2,0-2.2,0.6-3.7,1.4S4.9,3.5,1.8,4.2L1.4,4.3v0.4c0,7.2,2.6,12.1,5.2,15.1s5.2,4.2,5.2,4.2L12,24
			l0.2-0.1c0,0,10.4-5.3,10.4-19.2V4.3l-0.4-0.1c-3.1-0.7-5.1-1.6-6.6-2.3C14.2,1.1,13.2,0.5,12,0.5z M12,1.4c0.8,0,1.7,0.5,3.2,1.3
			c1.4,0.7,3.5,1.6,6.4,2.3c-0.2,12.8-9,17.6-9.6,17.9c-0.3-0.1-2.4-1.2-4.7-3.8C4.9,16.3,2.5,11.8,2.4,5c2.9-0.7,4.9-1.6,6.4-2.3
			C10.3,2,11.2,1.4,12,1.4z"/>
	</g>
</g>
</svg>
