<?xml version="1.0" encoding="UTF-8" standalone="no"?>
<!DOCTYPE svg PUBLIC "-//W3C//DTD SVG 1.1//EN" "http://www.w3.org/Graphics/SVG/1.1/DTD/svg11.dtd">
<svg width="100%" height="100%" viewBox="0 0 32 32" version="1.1" xmlns="http://www.w3.org/2000/svg" xmlns:xlink="http://www.w3.org/1999/xlink" xml:space="preserve" xmlns:serif="http://www.serif.com/" style="fill-rule:evenodd;clip-rule:evenodd;stroke-linejoin:round;stroke-miterlimit:1.41421;">
    <path d="M31.359,14.615C31.315,14.326 31.271,14.156 31.271,14.156C31.271,14.156 31.158,14.287 30.971,14.534C30.913,13.846 30.789,13.165 30.6,12.5C30.364,11.669 30.05,10.862 29.663,10.089C29.42,9.576 29.133,9.085 28.807,8.621C28.69,8.446 28.57,8.276 28.448,8.111C27.878,7.18 27.224,6.611 26.467,5.535C25.974,4.709 25.638,3.798 25.476,2.85C25.268,3.421 25.109,4.009 25,4.607C24.223,3.823 23.547,3.266 23.139,2.886C21.126,1.006 21.36,0.031 21.36,0.031C21.36,0.031 17.6,4.228 19.229,8.6C19.791,10.084 20.762,11.378 22.029,12.333C23.605,13.633 25.302,14.656 26.197,17.27C25.477,15.894 24.388,14.746 23.053,13.953C23.455,14.902 23.659,15.923 23.653,16.953C23.65,20.859 20.435,24.072 16.529,24.072C15.995,24.072 15.463,24.012 14.942,23.893C14.328,23.778 13.734,23.576 13.177,23.293C12.347,22.791 11.628,22.126 11.062,21.338L11.052,21.321L11.178,21.367C11.472,21.469 11.773,21.549 12.078,21.608C13.286,21.864 14.546,21.715 15.661,21.185C16.787,20.56 17.469,20.097 18.022,20.28L18.032,20.28C18.572,20.452 18.998,19.928 18.612,19.38C17.946,18.507 16.845,18.077 15.764,18.268C14.637,18.432 13.604,19.233 12.127,18.457C12.032,18.407 11.939,18.353 11.85,18.294C11.75,18.237 12.167,18.381 12.07,18.316C11.747,18.154 11.437,17.969 11.142,17.762C11.12,17.744 11.365,17.832 11.342,17.814C10.959,17.553 10.63,17.221 10.374,16.835C10.109,16.357 10.085,15.78 10.308,15.281C10.445,15.036 10.655,14.839 10.908,14.717C11.099,14.811 11.217,14.882 11.217,14.882C11.217,14.882 11.13,14.722 11.083,14.638C11.1,14.632 11.115,14.638 11.132,14.627C11.299,14.699 11.669,14.887 11.864,15.002C11.997,15.076 12.111,15.178 12.199,15.302C12.287,15.426 12.266,15.269 12.216,15.129C12.147,14.955 12.027,14.807 11.87,14.705L11.886,14.705C12.035,14.781 12.178,14.87 12.312,14.97C12.435,14.686 12.493,14.379 12.482,14.07C12.495,13.9 12.472,13.73 12.413,13.57C12.36,13.47 12.443,13.43 12.536,13.535C12.52,13.453 12.493,13.373 12.457,13.297L12.457,13.289C12.457,13.289 12.51,13.22 12.534,13.195C12.6,13.129 12.672,13.07 12.75,13.019C13.217,12.73 13.707,12.48 14.215,12.272C14.629,12.091 14.972,11.953 15.042,11.913C15.146,11.846 15.244,11.771 15.335,11.688C15.679,11.395 15.913,10.992 15.995,10.548C16.004,10.489 16.01,10.43 16.012,10.37L16.012,10.32L16.012,10.29L16.012,10.278L16.012,10.265C15.952,10.04 15.564,9.871 13.536,9.681C12.822,9.567 12.245,9.027 12.086,8.321L12.086,8.33C12.057,8.404 12.031,8.479 12.005,8.555C12.031,8.48 12.057,8.405 12.086,8.33L12.086,8.314C12.472,7.304 13.167,6.44 14.072,5.848C14.124,5.806 13.864,5.859 13.916,5.816C14.088,5.732 14.265,5.657 14.446,5.592C14.537,5.554 14.056,5.37 13.631,5.415C13.37,5.429 13.114,5.489 12.875,5.593C12.975,5.507 13.275,5.393 13.204,5.393C12.661,5.498 12.139,5.695 11.662,5.976C11.661,5.928 11.671,5.88 11.692,5.836C11.312,5.997 10.98,6.253 10.728,6.58C10.735,6.522 10.739,6.464 10.738,6.406C10.564,6.536 10.405,6.685 10.265,6.85L10.256,6.857C9.137,6.423 7.916,6.319 6.739,6.557L6.729,6.548L6.741,6.548C6.497,6.35 6.286,6.113 6.116,5.848L6.1,5.852L6.081,5.83C6.004,5.716 5.925,5.587 5.844,5.443C5.786,5.343 5.727,5.226 5.668,5.105C5.668,5.097 5.659,5.094 5.655,5.093C5.631,5.093 5.614,5.204 5.594,5.175L5.594,5.169C5.388,4.631 5.292,4.058 5.311,3.482L5.295,3.49C4.964,3.717 4.713,4.045 4.581,4.424C4.52,4.561 4.481,4.636 4.441,4.711C4.441,4.717 4.441,4.701 4.441,4.676C4.45,4.607 4.48,4.465 4.473,4.476C4.466,4.487 4.461,4.495 4.454,4.505C4.355,4.618 4.27,4.743 4.203,4.877C4.142,5 4.092,5.128 4.053,5.259C4.047,5.28 4.053,5.241 4.053,5.195C4.053,5.149 4.062,5.067 4.053,5.084L4.031,5.127C3.598,6.087 3.328,7.113 3.231,8.162C3.205,8.34 3.194,8.52 3.2,8.7L3.2,8.716C2.89,9.053 2.617,9.422 2.383,9.816C1.603,11.134 1.021,12.559 0.656,14.046C0.915,13.479 1.224,12.936 1.581,12.425C0.891,14.176 0.536,16.042 0.536,17.925C0.654,17.374 0.804,16.83 0.986,16.296C0.875,18.52 1.303,20.738 2.234,22.76C3.482,25.564 5.559,27.919 8.185,29.508C9.252,30.231 10.421,30.791 11.653,31.17C11.815,31.229 11.979,31.287 12.147,31.343C12.094,31.322 12.047,31.299 11.994,31.276C13.454,31.714 14.97,31.937 16.494,31.938C21.888,31.938 23.669,29.884 23.833,29.679C24.1,29.438 24.316,29.147 24.47,28.823C24.574,28.78 24.679,28.735 24.785,28.686L24.852,28.656L24.973,28.599C25.786,28.216 26.55,27.737 27.25,27.173C28.299,26.421 29.051,25.323 29.373,24.073C29.564,23.618 29.574,23.107 29.402,22.645C29.457,22.558 29.514,22.464 29.573,22.365C30.731,20.504 31.388,18.374 31.48,16.184L31.48,16.178C31.48,16.119 31.48,16.06 31.48,16.001C31.481,15.536 31.441,15.072 31.359,14.615Z" style="fill:rgb(156,156,156);fill-rule:nonzero;"/>
    <g transform="matrix(0.817989,0,0,0.817989,8.33743,3.97242)">
        <g id="图层1">
            <path d="M8.824,13.6L8.824,12.538L8.822,12.538C8.879,8.321 11.419,4.921 14.54,4.921C17.644,4.921 20.173,8.283 20.257,12.468L20.259,12.468L20.259,13.6L20.89,13.6C21.821,13.6 22.577,14.355 22.577,15.286L22.577,24.886C22.577,25.817 21.821,26.573 20.89,26.573L8.191,26.573C7.26,26.573 6.504,25.817 6.504,24.886L6.504,15.286C6.504,14.355 7.26,13.6 8.191,13.6L8.824,13.6ZM18.879,13.6L18.879,12.468L18.881,12.468C18.797,9.314 16.884,6.788 14.54,6.788C12.196,6.788 10.283,9.314 10.2,12.468L10.204,12.468L10.204,13.6L18.879,13.6Z" style="fill:rgb(221,169,19);"/>
        </g>
    </g>
    <g id="图层2">
        <path d="M12.275,18.53C13.674,19.18 14.675,18.426 15.764,18.268C16.845,18.077 17.946,18.507 18.612,19.38C18.647,19.43 18.675,19.479 18.698,19.528L18.698,20.055C18.583,20.262 18.324,20.373 18.032,20.28L18.022,20.28C17.469,20.097 16.787,20.56 15.661,21.185C14.546,21.715 13.287,21.864 12.08,21.608L12.275,18.53Z" style="fill:rgb(155,155,155);fill-rule:nonzero;"/>
    </g>
</svg>
