<svg xmlns="http://www.w3.org/2000/svg" viewBox="0 0 24 24"><radialGradient id="a" cx="14.274" cy="6.741" r="17.243" gradientUnits="userSpaceOnUse"><stop offset="0" stop-color="#00ccda"></stop><stop offset=".22" stop-color="#0083ff"></stop><stop offset=".261" stop-color="#007af9"></stop><stop offset=".33" stop-color="#0060e8"></stop><stop offset=".333" stop-color="#005fe7"></stop><stop offset=".438" stop-color="#2639ad"></stop><stop offset=".522" stop-color="#401e84"></stop><stop offset=".566" stop-color="#4a1475"></stop></radialGradient><path d="M12 .5c-1.2 0-2.2.6-3.7 1.4S4.9 3.5 1.8 4.2l-.4.1v.4c0 7.2 2.6 12.1 5.2 15.1s5.2 4.2 5.2 4.2h.2l.2-.1s10.4-5.3 10.4-19.2v-.4l-.4-.1c-3.1-.7-5.1-1.6-6.6-2.3C14.2 1.1 13.2.5 12 .5z" fill="url(#a)"></path><radialGradient id="b" cx="-15714.263" cy="-8330.916" r="6.791" fx="-15714.696" fy="-8330.916" gradientTransform="matrix(.762 .034 -.05 1.12 11576.105 9871.787)" gradientUnits="userSpaceOnUse"><stop offset=".045" stop-color="#ffea00"></stop><stop offset=".12" stop-color="#ffde00"></stop><stop offset=".254" stop-color="#ffbf00"></stop><stop offset=".429" stop-color="#ff8e00"></stop><stop offset=".769" stop-color="#ff272d"></stop><stop offset=".872" stop-color="#e0255a"></stop><stop offset=".953" stop-color="#cc2477"></stop><stop offset="1" stop-color="#c42482"></stop></radialGradient><path d="M16.3 4.5c-.4.4-.5 1.4-.2 2.3.4 1 .9.7 1.3 1.7.5 1.3.2 3 .2 3s.6 1.6.9-.1c1-3.1-2.2-6.1-2.2-6.9z" fill="url(#b)"></path><radialGradient id="c" cx="-8037.242" cy="-8008.184" r="11.917" gradientTransform="translate(9860.313 9816.103) scale(1.225)" gradientUnits="userSpaceOnUse"><stop offset="0" stop-color="#00ccda"></stop><stop offset=".22" stop-color="#0083ff"></stop><stop offset=".261" stop-color="#007af9"></stop><stop offset=".33" stop-color="#0060e8"></stop><stop offset=".333" stop-color="#005fe7"></stop><stop offset=".438" stop-color="#2639ad"></stop><stop offset=".522" stop-color="#401e84"></stop><stop offset=".566" stop-color="#4a1475"></stop></radialGradient><linearGradient id="d" gradientUnits="userSpaceOnUse" x1="12.848" y1="322.15" x2="9.965" y2="312.718" gradientTransform="translate(0 -308)"><stop offset="0" stop-color="#000f43" stop-opacity=".4"></stop><stop offset=".485" stop-color="#001962" stop-opacity=".173"></stop><stop offset="1" stop-color="#002079" stop-opacity="0"></stop></linearGradient><path d="M16.9 15.3c-.1.1-.3.2-.5.3l.6-.9c.1-.2.3-.3.4-.5.1-.1.1-.2.2-.3.4-.7.8-1.8.8-2.9v-.1c0-.3 0-.6-.1-.8v.2c.1.7 0 1.3-.3 1.8.1-.7.2-1.5 0-2.3 0 0-.1-.4-.5-1.5-.3-.7-.8-1.2-1.2-1.6-.4-.5-.7-.8-.9-1-.4-.4-.6-.7-.6-.9-.1 0-.8-.8-.9-.8-.3.5-1.3 2.1-.9 3.5.2.7.8 1.4 1.4 1.7 0 0 .3.4.5 1.2.2.8.1 1.4-.2 2.4-.4.8-1.4 1.6-2.3 1.7-2 .2-2.7-1-2.7-1 .7.3 1.5.2 1.9-.1.5-.3.8-.5 1-.4.2.1.4-.2.2-.4-.3-.4-.7-.6-1.2-.5-.5.1-.9.5-1.5.1 0 0-.1 0-.1-.1h.1c-.1-.1-.3-.2-.4-.3h.1c-.6-.5-.5-.8-.5-1 0-.2.1-.4.3-.5.1 0 .1.1.1.1s0-.1-.1-.1c.1 0 .2.1.3.2l.1.1v-.1s0-.1-.1-.2c.1 0 .1.1.2.1 0-.1.1-.2.1-.4v-.2s0-.1.1 0v-.1c0-.2 1-.6 1.1-.7l.3-.3c.1-.1.1-.2.1-.4 0-.1-.1-.2-1-.3-.3 0-.4-.2-.5-.4v-.1-.1c.2-.5.4-.9.8-1.2H11c0-.2.2-.2.2-.2s-.2-.1-.3-.1c-.2 0-.2 0-.3.1 0 0 .2-.1.1-.1-.2 0-.4.1-.6.3v-.1c-.1 0-.3.2-.4.3v-.1c-.1.1-.2.2-.2.3-.6-.3-1.1-.3-1.5-.2-.1-.1-.1 0-.3-.5 0-.1 0 .1 0 0-.3.3-.8.6-1 .8 0 0 .3-.1 0 0-.1 0-.1.1-.1.6v.1c-.3.3-.4.4-.4.5-.2.4-.5 1-.7 2 .1-.3.2-.5.4-.8-.2.5-.4 1.3-.4 2.6 0-.3.1-.5.2-.8 0 1 .1 2.1.5 3 .1.3.4.9.8 1.4 1.2 1.3 3 2.1 4.9 2.1 1.9.2 3.8-.7 5-2.1z" fill="url(#d)"></path><radialGradient id="e" cx="-8972.083" cy="-6856.623" r="4.02" gradientTransform="rotate(5.67 -89234.56 105074.385) scale(1.225)" gradientUnits="userSpaceOnUse"><stop offset=".003" stop-color="#ffea00"></stop><stop offset=".497" stop-color="#ff272d"></stop><stop offset="1" stop-color="#c42482"></stop></radialGradient><path d="M15.4 16.2c2.5-.3 3.5-2.8 2.1-2.9-1.2 0-3.2 3.1-2.1 2.9z" fill="url(#e)"></path><radialGradient id="f" cx="-8972.446" cy="-6860.478" r="6.712" gradientTransform="rotate(5.67 -89234.56 105074.385) scale(1.225)" gradientUnits="userSpaceOnUse"><stop offset=".003" stop-color="#ffe900"></stop><stop offset=".157" stop-color="#ffaf0e"></stop><stop offset=".316" stop-color="#ff7a1b"></stop><stop offset=".472" stop-color="#ff4e26"></stop><stop offset=".621" stop-color="#ff2c2e"></stop><stop offset=".762" stop-color="#ff1434"></stop><stop offset=".892" stop-color="#ff0538"></stop><stop offset="1" stop-color="#ff0039"></stop></radialGradient><path d="M17.7 12.8c1.7-1 1.2-3.1 1.2-3.1s-.7.8-1.1 2c-.3 1.2-1.1 1.7-.1 1.1z" fill="url(#f)"></path><radialGradient id="g" cx="-8971.497" cy="-6854.256" r="6.159" gradientTransform="rotate(5.67 -89234.56 105074.385) scale(1.225)" gradientUnits="userSpaceOnUse"><stop offset=".003" stop-color="#ff272d"></stop><stop offset=".497" stop-color="#c42482"></stop><stop offset=".986" stop-color="#620700"></stop></radialGradient><path d="M12.4 17.5c2.4.8 4.4-1.1 3.1-1.7-1.1-.6-4.2 1.3-3.1 1.7z" fill="url(#g)"></path><radialGradient id="h" cx="15.475" cy="317.103" r="11.78" fx="15.897" fy="316.894" gradientTransform="translate(0 -308)" gradientUnits="userSpaceOnUse"><stop offset=".156" stop-color="#ffea00"></stop><stop offset=".231" stop-color="#ffde00"></stop><stop offset=".365" stop-color="#ffbf00"></stop><stop offset=".541" stop-color="#ff8e00"></stop><stop offset=".763" stop-color="#ff272d"></stop><stop offset=".796" stop-color="#f92433"></stop><stop offset=".841" stop-color="#e91c45"></stop><stop offset=".893" stop-color="#cf0e62"></stop><stop offset=".935" stop-color="#b5007f"></stop></radialGradient><path d="M17.9 13.7c.1-.1.1-.3.2-.5.4-.7.4-1.2.4-1.2.2-1.3.2-1.8.1-2.7-.1-.8-.7-1.9-1.1-2.4-.5-.5-.1-.4-.6-.8-.4-.5-.8-.9-1-1.1-1.6-1.3-1.5-1.6-1.5-1.6v-.1s-.9.9-1 2.3c-.1.9.2 1.9.7 2.5l.9.9c.4.5.6 1.2.6 2 0 1.8-1.5 3.3-3.3 3.3-.2 0-.5 0-.7-.1-.9-.2-1.4-.6-1.6-.9-.1-.2-.2-.3-.2-.3.8.3 1.6.2 2.1-.1.5-.3.8-.5 1.1-.4.3.1.5-.2.3-.4-.2-.3-.6-.6-1.3-.5-.5.1-1 .4-1.7.1 0 0-.1 0-.1-.1h.1c-.1-.1-.4-.2-.4-.3h.1c-.6-.5-.6-.8-.5-1 0-.2.1-.4.3-.4.1 0 .2.1.2.1s0-.1-.1-.1c.1 0 .2.1.3.2.1.1.2.1.2.1v-.1s0-.1-.2-.2c.1 0 .1.1.2.1 0-.1.1-.2.1-.4v-.2s0-.1.1 0v-.1c.1-.2 1.1-.6 1.2-.7l.3-.3c.1-.1.1-.2.1-.4 0-.1 0-.1-.3-.2-.2 0-.4-.1-.9-.1-.3 0-.5-.2-.6-.4 0 0 0-.1-.1-.1V7c.2-.5.5-.9.9-1.1h-.1l.2-.1s-.2-.1-.4-.1-.2 0-.4.1l.2-.1c-.2 0-.5.1-.7.3v-.1c-.1 0-.4.2-.4.3v-.1c-.2.1-.3.2-.4.2-.6-.2-1.2-.2-1.6-.1-.1-.1-.3-.2-.5-.7 0 0 0 .1 0 0-.1-.2-.2-.5-.2-.7 0 0-.2.1-.3.4 0 .1 0 .1-.1.1v-.1s-.1.1-.1.2 0 .1-.1.2v-.1c0 .2-.1.3-.2.5 0 .2-.1.6-.2 1.1v.1c-.2.2-.3.4-.3.5-.3.4-.5 1-.8 2 .1-.3.2-.5.4-.8-.2.5-.5 1.3-.5 2.6.1-.3.1-.5.2-.8 0 .8.1 1.8.6 3 .3.7 1 2.1 2.8 3.1 0 0 .6.4 1.6.8.1 0 .2.1.2.1H10c.7.2 1.4.3 2.1.3 2.6 0 3.4-1.1 3.4-1.1l.1-.1c-.4.4-1.4.4-1.7.4.6-.2 1-.3 1.8-.6.1 0 .2-.1.3-.1h.1c.4-.2.7-.4 1.1-.7.8-.6.9-1.2 1-1.6 0 0 0 .1-.1.2-.2.4-.6.7-1.1.9l.6-.9c.1-.2.2-.5.3-.7z" fill="url(#h)"></path><radialGradient id="i" cx="14.589" cy="311.187" r="13.911" gradientTransform="translate(0 -308)" gradientUnits="userSpaceOnUse"><stop offset=".279" stop-color="#ffea00"></stop><stop offset=".402" stop-color="#fd0"></stop><stop offset=".63" stop-color="#ffba00"></stop><stop offset=".856" stop-color="#ff9100"></stop><stop offset=".933" stop-color="#ff6711"></stop><stop offset=".994" stop-color="#ff4a1d"></stop></radialGradient><path d="M17 15.2c.3-.3.6-.8.8-1.2.6-1.2 1.4-3.1.7-5.1-.5-1.6-1.3-2.5-2.2-3.3-1.5-1.4-1.9-2-1.9-2.4 0 0-1.7 1.9-1 4s2.3 2 3.3 4.1c1.2 2.5-1 5.2-2.8 6 .1 0 4-.9 4.2-3.1.1-.1 0 .5-1.1 1z" fill="url(#i)"></path><linearGradient id="j" gradientUnits="userSpaceOnUse" x1="-8982.364" y1="-6858.988" x2="-8978.081" y2="-6860.08" gradientTransform="rotate(5.67 -89234.56 105074.385) scale(1.225)"><stop offset="0" stop-color="#c42482" stop-opacity=".5"></stop><stop offset=".474" stop-color="#ff272d" stop-opacity=".5"></stop><stop offset=".486" stop-color="#ff2c2c" stop-opacity=".513"></stop><stop offset=".675" stop-color="#ff7a1a" stop-opacity=".72"></stop><stop offset=".829" stop-color="#ffb20d" stop-opacity=".871"></stop><stop offset=".942" stop-color="#ffd605" stop-opacity=".964"></stop><stop offset="1" stop-color="#ffe302"></stop></linearGradient><path d="M11.9 8c0-.1-.1-.2-1.2-.3-.4 0-.6-.5-.7-.6-.1.3-.2.8-.1 1.3 0 .3.3.7.4.9.2-.2 1.1-.5 1.2-.6 0-.1.4-.3.4-.7z" fill="url(#j)"></path><linearGradient id="k" gradientUnits="userSpaceOnUse" x1="181.147" y1="-989.521" x2="180.325" y2="-991.628" gradientTransform="rotate(5.73 -9846.957 -2230.912)"><stop offset="0" stop-color="#891551" stop-opacity=".6"></stop><stop offset="1" stop-color="#c42482" stop-opacity="0"></stop></linearGradient><path d="M7.1 5.5s0 .1 0 0c-.1-.2-.2-.5-.2-.7 0 0-.2.1-.3.4 0 .1 0 .1-.1.1v-.1s-.1.1-.1.2 0 .1-.1.2v-.1c-.3.7-.4 1.7-.4 1.7.8-.8 1.6-1 1.6-1 0-.1-.2-.3-.4-.7z" fill="url(#k)"></path><linearGradient id="l" gradientUnits="userSpaceOnUse" x1="-138.077" y1="613.98" x2="-136.66" y2="615.59" gradientTransform="rotate(5.73 5957.221 1770.229)"><stop offset=".005" stop-color="#891551" stop-opacity=".5"></stop><stop offset=".484" stop-color="#ff272d" stop-opacity=".5"></stop><stop offset="1" stop-color="#ff272d" stop-opacity="0"></stop></linearGradient><path d="M10 14c-1.1-.4-2.2-1.1-2.2-2.5 0-1.9 1.7-1.5 1.7-1.5-.1 0-.2.1-.3.3-.1.2-.2.5.2.9.6.6-1.1 1.4 1.5 3 .1 0-.6-.1-.9-.2z" fill="url(#l)"></path><linearGradient id="m" gradientUnits="userSpaceOnUse" x1="-135.394" y1="616.778" x2="-135.393" y2="615.652" gradientTransform="rotate(5.73 5957.221 1770.229)"><stop offset="0" stop-color="#c42482"></stop><stop offset=".083" stop-color="#c42482" stop-opacity=".81"></stop><stop offset=".206" stop-color="#c42482" stop-opacity=".565"></stop><stop offset=".328" stop-color="#c42482" stop-opacity=".362"></stop><stop offset=".447" stop-color="#c42482" stop-opacity=".204"></stop><stop offset=".562" stop-color="#c42482" stop-opacity=".091"></stop><stop offset=".673" stop-color="#c42482" stop-opacity=".023"></stop><stop offset=".773" stop-color="#c42482" stop-opacity="0"></stop></linearGradient><path d="M9.6 13.1c.7.3 1.6.2 2.1-.1.3-.2.8-.5 1.1-.4-.2-.1-.4-.1-.6-.1H11.9c-.1 0-.3.1-.4.1l.1-.1H11.3c-1.6.1-2.9-.8-2.9-.8-.2.3.4 1.1 1.2 1.4z" fill="url(#m)"></path><linearGradient id="n" gradientUnits="userSpaceOnUse" x1="14.05" y1="311.712" x2="18.653" y2="322.006" gradientTransform="translate(0 -308)"><stop offset="0" stop-color="#fff14f"></stop><stop offset=".268" stop-color="#ffee4c"></stop><stop offset=".452" stop-color="#ffe643"></stop><stop offset=".612" stop-color="#ffd834"></stop><stop offset=".757" stop-color="#ffc41e"></stop><stop offset=".892" stop-color="#ffab02"></stop><stop offset=".902" stop-color="#ffa900"></stop><stop offset=".949" stop-color="#ffa000"></stop><stop offset="1" stop-color="#ff9100"></stop></linearGradient><path d="M17 15.2c1.6-1.5 2.4-3.4 2-5.5 0 0 .1 1.1-.4 2.2.2-1.1.3-2.4-.4-3.8-.9-1.8-2.3-2.8-2.8-3.2-.8-.6-1.2-1.2-1.2-1.4-.2.5-1 2.2-.1 3.7.9 1.4 2.2 1.8 3.1 3.1 1.8 2.4-.2 4.9-.2 4.9z" fill="url(#n)"></path><linearGradient id="o" gradientUnits="userSpaceOnUse" x1="14.959" y1="317.632" x2="12.779" y2="323.487" gradientTransform="translate(0 -308)"><stop offset="0" stop-color="#ff8e00"></stop><stop offset=".04" stop-color="#ff8e00" stop-opacity=".858"></stop><stop offset=".084" stop-color="#ff8e00" stop-opacity=".729"></stop><stop offset=".13" stop-color="#ff8e00" stop-opacity=".628"></stop><stop offset=".178" stop-color="#ff8e00" stop-opacity=".557"></stop><stop offset=".227" stop-color="#ff8e00" stop-opacity=".514"></stop><stop offset=".282" stop-color="#ff8e00" stop-opacity=".5"></stop><stop offset=".389" stop-color="#ff8e00" stop-opacity=".478"></stop><stop offset=".524" stop-color="#ff8e00" stop-opacity=".416"></stop><stop offset=".676" stop-color="#ff8e00" stop-opacity=".314"></stop><stop offset=".838" stop-color="#ff8e00" stop-opacity=".172"></stop><stop offset="1" stop-color="#ff8e00" stop-opacity="0"></stop></linearGradient><path d="M16.7 11.2c-.5-1.1-1.2-1.6-1.9-2.2.1.1.1.1.1.2.6.6 1.4 2.1.8 3.9-1.1 3.5-5.7 1.9-6.2 1.4.2 2 3.6 3 5.8 1.7 1.3-1.1 2.3-3.1 1.4-5z" fill="url(#o)"></path><g><radialGradient id="p" cx="62.159" cy="-1043.446" r="11.322" gradientTransform="matrix(1 0 0 -1 -48.793 -1037.362)" gradientUnits="userSpaceOnUse"><stop offset=".156" stop-color="#ffea00"></stop><stop offset=".231" stop-color="#ffde00"></stop><stop offset=".365" stop-color="#ffbf00"></stop><stop offset=".541" stop-color="#ff8e00"></stop><stop offset=".763" stop-color="#ff272d"></stop><stop offset=".796" stop-color="#f92433"></stop><stop offset=".841" stop-color="#e91c45"></stop><stop offset=".893" stop-color="#cf0e62"></stop><stop offset=".935" stop-color="#b5007f"></stop></radialGradient><path d="M12 0c-1.2 0-2.2.7-3.7 1.4S4.9 3.3 1.8 4l-.4.1v.4c0 7.4 2.6 12.1 5.2 15.1s5.2 4.3 5.2 4.3l.2.1.2-.1s10.4-5.1 10.4-19.4v-.4l-.4-.1c-3.1-.7-5.1-1.8-6.6-2.6C14.2.7 13.2 0 12 0zm0 1c.8 0 1.7.5 3.2 1.3 1.4.7 3.5 1.6 6.4 2.3-.2 13.1-9 18-9.6 18.3-.3-.1-2.4-1.2-4.7-3.9-2.4-2.9-4.8-7.5-4.9-14.4C5.3 3.9 7.3 3 8.8 2.3 10.3 1.5 11.2 1 12 1z" fill="url(#p)"></path></g><g><radialGradient id="q" cx="62.864" cy="-1052.212" r="11.322" gradientTransform="matrix(1 0 0 -.9796 -48.793 -1022.426)" gradientUnits="userSpaceOnUse"><stop offset=".156" stop-color="#ffea00"></stop><stop offset=".231" stop-color="#ffde00"></stop><stop offset=".365" stop-color="#ffbf00"></stop><stop offset=".541" stop-color="#ff8e00"></stop><stop offset=".763" stop-color="#ff272d"></stop><stop offset=".796" stop-color="#f92433"></stop><stop offset=".841" stop-color="#e91c45"></stop><stop offset=".893" stop-color="#cf0e62"></stop><stop offset=".935" stop-color="#b5007f"></stop></radialGradient><path d="M12 .5c-1.2 0-2.2.6-3.7 1.4S4.9 3.5 1.8 4.2l-.4.1v.4c0 7.2 2.6 12.1 5.2 15.1s5.2 4.2 5.2 4.2h.2l.2-.1s10.4-5.3 10.4-19.2v-.4l-.4-.1c-3.1-.7-5.1-1.6-6.6-2.3C14.2 1.1 13.2.5 12 .5zm0 .9c.8 0 1.7.5 3.2 1.3 1.4.7 3.5 1.6 6.4 2.3-.2 12.8-9 17.6-9.6 17.9-.3-.1-2.4-1.2-4.7-3.8C4.9 16.3 2.5 11.8 2.4 5c2.9-.7 4.9-1.6 6.4-2.3 1.5-.7 2.4-1.3 3.2-1.3z" fill="url(#q)"></path></g></svg>