<!-- This Source Code Form is subject to the terms of the Mozilla Public
   - License, v. 2.0. If a copy of the MPL was not distributed with this
   - file, You can obtain one at http://mozilla.org/MPL/2.0/. -->
<svg width="24" height="24" viewBox="0 0 24 24" fill="none" xmlns="http://www.w3.org/2000/svg"><path fill-rule="evenodd" clip-rule="evenodd" d="M3 8a5 5 0 0 1 5-5h8a5 5 0 0 1 5 5v8a5 5 0 0 1-5 5H8a5 5 0 0 1-5-5V8zm5-3a3 3 0 0 0-3 3v8a3 3 0 0 0 3 3h8a3 3 0 0 0 3-3V8a3 3 0 0 0-3-3H8z" fill="#0C0C0D" fill-opacity=".8"></path></svg>