<?xml version="1.0" encoding="utf-8"?>
<!-- Generator: Adobe Illustrator 16.0.0, SVG Export Plug-In . SVG Version: 6.00 Build 0)  -->
<!DOCTYPE svg PUBLIC "-//W3C//DTD SVG 1.1//EN" "http://www.w3.org/Graphics/SVG/1.1/DTD/svg11.dtd">
<svg version="1.1" id="圖層_1" xmlns="http://www.w3.org/2000/svg" xmlns:xlink="http://www.w3.org/1999/xlink" x="0px" y="0px"
	 width="350px" height="350px" viewBox="0 0 350 350" enable-background="new 0 0 350 350" xml:space="preserve">
<g>
	<circle fill="#6C6C6C" cx="178.81" cy="175.401" r="101.335"/>
	<g>
		<g>
			<path fill="#A6A6A6" d="M182.137,29.939C102.353,29.939,37.075,95.217,37.075,175s65.277,145.061,145.062,145.061
				c79.783,0,145.061-65.277,145.061-145.061S261.92,29.939,182.137,29.939z M276.427,175c0,51.859-42.431,94.289-94.29,94.289
				s-94.29-42.43-94.29-94.289c0-51.859,42.431-94.289,94.29-94.289S276.427,123.141,276.427,175z"/>
		</g>
	</g>
	<g>
		<defs>
			<path id="SVGID_1_" d="M287.363,71.599l-37.532,37.532c-17.084-17.453-40.902-28.287-67.254-28.287
				c-51.98,0-94.119,42.138-94.119,94.119c0,51.979,42.139,94.117,94.119,94.117c8.088,0,15.938-1.021,23.428-2.941l53.922,53.922
				l137.948-137.949L287.363,71.599z"/>
		</defs>
		<clipPath id="SVGID_2_">
			<use xlink:href="#SVGID_1_"  overflow="visible"/>
		</clipPath>
		<g clip-path="url(#SVGID_2_)">
			<path fill="#6C6C6C" d="M327.178,175.006c0,79.785-65.277,145.063-145.061,145.063c-79.784,0-145.062-65.277-145.062-145.063
				c0-79.784,65.277-145.062,145.062-145.062C261.9,29.944,327.178,95.222,327.178,175.006z"/>
		</g>
	</g>
	<g>
		<defs>
			<circle id="SVGID_3_" cx="182.355" cy="175.15" r="93.897"/>
		</defs>
		<clipPath id="SVGID_4_">
			<use xlink:href="#SVGID_3_"  overflow="visible"/>
		</clipPath>
		<path clip-path="url(#SVGID_4_)" fill="#484849" d="M228.896,169.884c-2.336-22.938-21.711-40.836-45.264-40.836
			c-25.129,0-45.5,20.371-45.5,45.501c0,14.67,8.44,26.383,17.73,36.031c0,0,0,0.002,0.002,0.002l87.301,96.135L399.76,178.58
			L228.896,169.884z"/>
	</g>
	<g>
		<path fill="#C2C1C1" d="M182.369,65.903c5.697-0.086,9.814-4.243,9.654-9.751c-0.16-5.531-4.356-9.352-10.156-9.248
			c-5.687,0.103-9.621,4.088-9.662,9.788C172.166,61.991,176.58,65.99,182.369,65.903z"/>
		<path fill="#C3C3C3" d="M98.104,100.862c5.256,0.035,9.881-4.47,9.986-9.726c0.1-4.955-4.792-9.955-9.824-10.042
			c-4.984-0.086-10.03,4.823-10.07,9.798C88.154,95.815,93.139,100.829,98.104,100.862z"/>
		<path fill="#C2C1C1" d="M63.637,165.003c-5.506-0.001-9.496,4.159-9.496,9.897c0,5.74,3.988,9.896,9.5,9.898
			c5.508,0.002,9.5-4.158,9.499-9.898C73.139,169.164,69.145,165.004,63.637,165.003z"/>
		<path fill="#BFBEBE" d="M182.301,283.924c-5.792-0.063-10.002,3.889-10.03,9.418c-0.029,5.547,4.138,9.557,9.913,9.539
			c5.557-0.018,9.628-3.809,9.813-9.137C192.184,288.344,187.881,283.984,182.301,283.924z"/>
		<path fill="#C0BFBF" d="M98.617,249.018c-5.049-0.102-10.32,4.752-10.35,9.529c-0.032,5.072,4.744,10.059,9.733,10.16
			c4.972,0.1,10.039-4.834,10.056-9.795C108.073,254.184,103.232,249.109,98.617,249.018z"/>
		<path fill="#757676" d="M266.07,248.967c-4.939,0.027-9.907,5.053-9.866,9.98c0.041,4.936,5.075,9.918,9.983,9.879
			c4.943-0.039,9.904-5.057,9.875-9.988C276.031,253.904,271.006,248.941,266.07,248.967z"/>
	</g>
	<g>
		<path fill="#B1B0B1" d="M313.614,175.402c0-7.053-5.85-12.823-13-12.823H181.718c-7.15,0-13,5.771-13,12.823
			c0,7.051,5.85,12.822,13,12.822h118.896C307.765,188.225,313.614,182.453,313.614,175.402z"/>
	</g>
</g>
</svg>
