<?xml version="1.0" encoding="utf-8"?>
<!-- Generator: Adobe Illustrator 16.0.0, SVG Export Plug-In . SVG Version: 6.00 Build 0)  -->
<!DOCTYPE svg PUBLIC "-//W3C//DTD SVG 1.1//EN" "http://www.w3.org/Graphics/SVG/1.1/DTD/svg11.dtd">
<svg version="1.1" id="圖層_1" xmlns="http://www.w3.org/2000/svg" xmlns:xlink="http://www.w3.org/1999/xlink" x="0px" y="0px"
	 width="165px" height="165px" viewBox="0 0 165 165" enable-background="new 0 0 165 165" xml:space="preserve">
<g>
	<circle fill-rule="evenodd" clip-rule="evenodd" fill="#D32D27" cx="83.5" cy="83.5" r="81.5"/>
	<g>
		<path fill-rule="evenodd" clip-rule="evenodd" fill="#FFFFFF" d="M129.908,46.333l-46.333-17l-46.485,17
			c0,0-0.175,45.537-0.314,52.365c-0.274,13.471,23.393,32.635,46.647,41.26c0.029,0.012,0.055-0.586,0.077-1.676
			c0.021,1.09,0.046,1.688,0.075,1.676c23.255-8.625,46.922-27.789,46.647-41.26C130.083,91.87,129.908,46.333,129.908,46.333z
			 M83.564,132.213c-0.025,0.01-0.046-0.504-0.065-1.439c-0.019,0.936-0.041,1.449-0.066,1.439
			c-19.999-7.416-40.353-23.898-40.117-35.482c0.12-5.872,0.271-45.034,0.271-45.034l39.978-14.62l39.846,14.62
			c0,0,0.151,39.162,0.271,45.034C123.917,108.315,103.563,124.797,83.564,132.213z"/>
		<path fill-rule="evenodd" clip-rule="evenodd" fill="#FFFFFF" d="M121.555,53.229L83.562,39.29l-38.118,13.94
			c0,0-0.144,37.34-0.258,42.939c-0.225,11.047,19.182,26.76,38.251,33.834c0.024,0.008,0.045-0.482,0.063-1.375
			c0.018,0.893,0.038,1.383,0.062,1.375c19.069-7.074,38.476-22.787,38.251-33.834C121.698,90.57,121.555,53.229,121.555,53.229z
			 M61.652,90.896c-3.866,0-7-3.134-7-7s3.134-7,7-7s7,3.134,7,7S65.519,90.896,61.652,90.896z M79.09,90.896c-3.866,0-7-3.134-7-7
			s3.134-7,7-7s7,3.134,7,7S82.956,90.896,79.09,90.896z M96.527,90.896c-3.866,0-7-3.134-7-7s3.134-7,7-7s7,3.134,7,7
			S100.394,90.896,96.527,90.896z M111.34,83.896v1.188v13.375h-2.938V85.083v-1.188V70.521h2.938V83.896z"/>
	</g>
</g>
</svg>
