<?xml version="1.0" encoding="utf-8"?>
<!-- Generator: Adobe Illustrator 16.0.0, SVG Export Plug-In . SVG Version: 6.00 Build 0)  -->
<!DOCTYPE svg PUBLIC "-//W3C//DTD SVG 1.1//EN" "http://www.w3.org/Graphics/SVG/1.1/DTD/svg11.dtd">
<svg version="1.1" id="圖層_2" xmlns="http://www.w3.org/2000/svg" xmlns:xlink="http://www.w3.org/1999/xlink" x="0px" y="0px"
	 width="180px" height="180px" viewBox="0 0 180 180" enable-background="new 0 0 180 180" xml:space="preserve">
<g>
	<path fill="#0078D7" d="M180,168c0,6.6-5.4,12-12,12H12c-6.6,0-12-5.4-12-12V12C0,5.4,5.4,0,12,0h156c6.6,0,12,5.4,12,12V168z"/>
</g>
<path fill="#FFFFFF" d="M69.269,54.634C69.973,43.675,79.028,35,90.125,35c11.108,0,20.17,8.692,20.858,19.666
	c4.73,0.605,9.396,1.411,13.99,2.415c0.011-0.36,0.027-0.719,0.027-1.081c0-19.33-15.614-35-34.876-35
	C70.864,21,55.25,36.67,55.25,56c0,0.345,0.016,0.686,0.026,1.028C59.871,56.032,64.538,55.231,69.269,54.634z"/>
<path fill="#FFFFFF" d="M141.102,67.903c-0.006-0.105-0.266-0.088-0.398-0.132c-15.918-5.206-32.918-8.021-50.578-8.021
	c-0.042,0-0.083,0.001-0.125,0.001s-0.083-0.001-0.125-0.001c-17.66,0-34.661,2.815-50.578,8.021
	c-0.133,0.044-0.393,0.026-0.398,0.132c-3.648,65.722,46.227,88.636,50.977,88.628c0.041,0,0.084-0.004,0.125-0.006
	c0.041,0.002,0.084,0.006,0.125,0.006C94.875,156.539,144.75,133.625,141.102,67.903z M72.5,118c0-8.369,5.878-15.355,13.729-17.082
	c-5.06-1.6-8.729-6.33-8.729-11.918c0-6.904,5.596-12.5,12.5-12.5c6.903,0,12.5,5.596,12.5,12.5c0,5.588-3.669,10.318-8.729,11.918
	c7.851,1.727,13.729,8.713,13.729,17.082C72.5,118,107.5,118,72.5,118z"/>
</svg>
