<svg height="512pt" viewBox="0 0 512 512" width="512pt" xmlns="http://www.w3.org/2000/svg"><path d="m44 44h424v177h-424zm0 0" fill="#fff"/><path d="m44 291h424v177h-424zm0 0" fill="#fff"/><path d="m185.332031 155.332031h-53.320312v-53.320312h53.320312zm0 201.335938h-53.320312v53.320312h53.320312zm201.335938-201.335938h53.320312v-53.320312h-53.320312zm0 0" fill="#e0e0e2"/><path d="m331.429688 99.878906h-30.285157v-30.285156h30.285157zm-60.574219 0v-30.285156h-30.285157v60.570312h30.285157v30.285157h-30.285157v30.289062h60.570313v-30.289062h30.289063v-30.285157h-30.289063v-30.285156zm60.574219 121.144532v-30.289063h-30.285157v30.289063zm90.855468 100.242187h30.285156v-30.289063h-60.570312v60.574219h-30.285156v30.285157h-30.285156v30.285156h-30.289063v30.285156h60.574219v-30.285156h60.570312v30.285156h30.285156v-60.570312h-30.285156zm-181.714844-30.289063v30.289063h30.285157v-30.289063zm60.574219 60.574219h60.570313v-60.574219h-30.285156v30.289063h-60.574219v60.570313h-30.285157v60.570312h30.285157v-30.285156h30.289062zm0 0" fill="#e0e0e2"/><path d="m155.332031 155.332031h-53.320312v-53.320312h53.320312zm0 201.335938h-53.320312v53.320312h53.320312zm201.335938-201.335938h53.320312v-53.320312h-53.320312zm0 0" fill="#787680"/><path d="m7.5 221h497v70h-497zm0 0" fill="#ff7956"/><path d="m301.429688 99.878906h-30.285157v-30.285156h30.285157zm-60.574219 0v-30.285156h-30.285157v60.570312h30.285157v30.285157h-30.285157v30.289062h60.570313v-30.289062h30.289063v-30.285157h-30.289063v-30.285156zm60.574219 121.144532v-30.289063h-30.285157v30.289063zm90.855468 100.242187h30.285156v-30.289063h-60.570312v60.574219h-30.285156v30.285157h-30.285156v30.285156h-30.289063v30.285156h60.574219v-30.285156h60.570312v30.285156h30.285156v-60.570312h-30.285156zm-181.714844-30.289063v30.289063h30.285157v-30.289063zm60.574219 60.574219h60.570313v-60.574219h-30.285156v30.289063h-60.574219v60.570313h-30.285157v60.570312h30.285157v-30.285156h30.289062zm0 0" fill="#787680"/><path d="m44 44h30v177h-30zm0 0" fill="#e0e0e2"/><path d="m44 291h30v177h-30zm0 0" fill="#e0e0e2"/><path d="m102.011719 356.667969h30v53.320312h-30zm0 0" fill="#57565c"/><path d="m102.011719 102.011719h30v53.320312h-30zm0 0" fill="#57565c"/><path d="m356.667969 102.011719h30v53.320312h-30zm0 0" fill="#57565c"/><path d="m7.5 221h30v70h-30zm0 0" fill="#ff3f62"/><g fill="#57565c"><path d="m301.429688 290.976562h30v30.289063h-30zm0 0"/><path d="m271.144531 190.734375h30v30.289063h-30zm0 0"/><path d="m331.714844 351.550781h30v30.285157h-30zm0 0"/><path d="m240.855469 130.164062h30v30.285157h-30zm0 0"/><path d="m362 290.976562h30v60.574219h-30zm0 0"/><path d="m301.429688 381.835938h30v30.285156h-30zm0 0"/><path d="m240.855469 321.265625h30v60.570313h-30zm0 0"/><path d="m271.144531 412.121094h30v30.285156h-30zm0 0"/><path d="m210.570312 290.976562h30v30.289063h-30zm0 0"/><path d="m271.144531 69.59375h30v30.285156h-30zm0 0"/><path d="m392.285156 412.121094h30v30.285156h-30zm0 0"/><path d="m210.570312 381.835938h30v60.570312h-30zm0 0"/><path d="m210.570312 160.449219h30v30.289062h-30zm0 0"/><path d="m210.570312 69.59375h30v60.570312h-30zm0 0"/></g><path d="m195.25 195.25v-133.15625h-133.15625v133.15625zm-118.15625-118.15625h103.15625v103.15625h-103.15625zm0 0"/><path d="m94.511719 162.832031h68.320312v-68.320312h-68.320312zm15-53.320312h38.320312v38.320312h-38.320312zm0 0"/><path d="m62.09375 316.75v133.15625h133.15625v-133.15625zm118.15625 118.15625h-103.15625v-103.15625h103.15625zm0 0"/><path d="m162.832031 349.167969h-68.320312v68.320312h68.320312zm-15 53.320312h-38.320312v-38.320312h38.320312zm0 0"/><path d="m449.90625 195.25v-133.15625h-133.15625v133.15625zm-118.15625-118.15625h103.15625v103.15625h-103.15625zm0 0"/><path d="m386.34375 0v15h110.65625v110.65625h15v-125.65625zm0 0"/><path d="m15 15h110.65625v-15h-125.65625v125.65625h15zm0 0"/><path d="m497 497h-110.65625v15h125.65625v-125.65625h-15zm0 0"/><path d="m15 386.34375h-15v125.65625h125.65625v-15h-110.65625zm0 0"/><path d="m349.167969 162.832031h68.320312v-68.320312h-68.320312zm15-53.320312h38.320312v38.320312h-38.320312zm0 0"/><path d="m0 298.5h512v-85h-512zm15-70h482v55h-482zm0 0"/><path d="m308.929688 107.378906v-45.285156h-45.285157v30.285156h-15.289062v-30.285156h-45.285157v75.570312h30.285157v15.285157h-30.285157v45.289062h60.574219v4.785157h15v-4.785157h15.285157v4.785157h15v-19.785157h-30.285157v-15.289062h30.285157v-45.285157h-30.285157v-15.285156zm-30.285157-30.285156h15.285157v15.285156h-15.285157zm15.285157 60.570312v15.285157h-30.285157v30.289062h-45.574219v-15.289062h30.285157v-45.285157h-30.285157v-45.570312h15.285157v30.285156h30.289062v30.285156zm0 0"/><path d="m203.070312 374.335938v75.570312h45.285157v-30.285156h15.289062v30.285156h75.570313v-30.285156h45.570312v30.285156h45.285156v-75.570312h-30.285156v-45.570313h30.285156v-19.789063h-15v4.789063h-30.285156v75.570313h30.285156v45.570312h-15.285156v-30.285156h-75.570312v30.285156h-45.570313v-15.285156h30.285157v-30.285156h30.285156v-30.289063h30.285156v-50.070313h-15v35.070313h-15.285156v-35.070313h-15v35.070313h-60.570313v60.570313h-30.289062v30.289062h-15.285157v-45.570312h30.285157v-60.574219h60.574219v-19.785157h-15v4.785157h-45.574219v-4.785157h-15v4.785157h-15.285157v-4.785157h-15v19.785157h30.285157v45.574219zm75.574219-15.285157h45.570313v15.285157h-30.285156v30.285156h-15.289063v-45.570313zm0 0"/><path d="m475.5 201v-164.5h-439v164.5h15v-149.5h409v149.5zm0 0"/><path d="m36.5 311v164.5h439v-164.5h-15v149.5h-409v-149.5zm0 0"/><path d="m424.632812 254.96875h-287.828124v-15h287.828124zm-297.828124 0h-15v-15h15zm-25 0h-15v-15h15zm0 0" fill="#fff"/></svg>