<?xml version="1.0" encoding="UTF-8"?>
<!-- Generator: Adobe Illustrator 21.0.0, SVG Export Plug-In . SVG Version: 6.00 Build 0)  -->
<svg version="1.1" id="Calque_1" xmlns="http://www.w3.org/2000/svg" xmlns:xlink="http://www.w3.org/1999/xlink" x="0px" y="0px" viewBox="0 0 1417.3 1417.3" style="enable-background:new 0 0 1417.3 1417.3;" xml:space="preserve">
<style type="text/css">
	.st0{fill:url(#SVGID_1_);}
</style>
<radialGradient id="SVGID_1_" cx="700.1411" cy="705.01" r="628.5695" gradientTransform="matrix(1 0 0 -1 0 1417.3201)" gradientUnits="userSpaceOnUse">
	<stop offset="0" style="stop-color:#0D0D0D"/>
	<stop offset="7.501400e-02" style="stop-color:#090909"/>
	<stop offset="0.3197" style="stop-color:#020202"/>
	<stop offset="1" style="stop-color:#000000"/>
</radialGradient>
<path class="st0" d="M221.8,1417.3c19.1-132.8,45.7-263.2,78.7-391.9c3.2-11.9,1.2-19.5-7.2-29C189.6,880.3,149,743.5,160.6,589.3  c17.9-242.5,205.9-415,369.7-464.3c35-10.3,71.6-15.9,107.7-22.3c8.7-1.6,13.9-4.4,18.3-12.3c13.5-27,28.2-53.7,43.7-83.1  c15.5,28.2,30.2,53.7,43.7,79.9c5.6,10.3,11.9,14.3,23.9,15.9c122.8,13.1,225.4,67.6,313.6,152.6c213.9,205.9,213.1,561.3,2.4,766  c-4,3.6-5.6,12.3-4.8,17.9c12.7,80.3,25.8,160.6,39,240.9c0.4,3.6,0,7.6,0,11.9c-35.8-69.2-71.2-137.9-106.9-207.5  c-5.6,3.2-8.3,4.4-11.1,6.4c-111.7,75.1-235.3,99.8-367.7,85.5c-56.4-6-110.1-20.7-161-45.3c-9.5-4.4-13.5-0.8-18.3,5.6  c-73.1,88.2-146.3,176.9-219.4,265.1C229.3,1407,225.4,1412.1,221.8,1417.3z M768.4,132.9c70.4,137.1,130.4,277.1,180.5,421  c50.1,143.9,89.8,291,121.2,441.6c142.7-139.9,179.3-358.6,110.5-541C1120.6,296.3,955.6,148,768.4,132.9z M633.6,132.5  c-190,15.9-364.1,175.7-418.2,346.6c-27,85.1-31,171.3-15.5,259.2c15.9,88.2,53.7,165.8,113.7,235.7  C391.9,681.1,498.5,402.4,633.6,132.5z M482.6,1104.1c134.8,71.2,364.1,71.9,510.8-42.9c-29.8-43.7-60.8-86.3-104.1-117.7  c-18.7-13.9-40.5-26.2-62.8-31.8c-44.1-11.1-86.7,0-126.8,19.9c-53.3,25.8-99,62.4-142.3,102.2  C531.8,1055.6,507.6,1079.8,482.6,1104.1z"/>
</svg>