<svg xmlns="http://www.w3.org/2000/svg" viewBox="0 0 58 54" width="58" height="54"><path d="M0 14h50v35H0z" fill="#ecf0f1"></path><path d="M0 0h50v14H0z" fill="#546a79"></path><circle cx="7" cy="7" r="3" fill="#ed7161"></circle><circle cx="16" cy="7" r="3" fill="#efc41a"></circle><circle cx="25" cy="7" r="3" fill="#4fba6e"></circle><circle cx="45.5" cy="41.5" r="12.5" fill="#b1d3ef"></circle><path d="M55.193 42.019a.992.992 0 0 0-1.175.788C53.198 46.975 49.616 50 45.5 50c-3.351 0-6.347-2.006-7.789-5H43v-2h-8v8h2v-3.341C38.976 50.315 42.085 52 45.5 52c5.068 0 9.477-3.704 10.481-8.807a1 1 0 0 0-.788-1.174zM54 31.998v3.341c-1.976-2.657-5.086-4.341-8.5-4.341-5.068 0-9.477 3.704-10.481 8.807a1 1 0 0 0 .788 1.174.992.992 0 0 0 1.175-.788c.82-4.168 4.402-7.193 8.519-7.193 3.351 0 6.347 2.006 7.789 5H48v2h8v-8z" fill="#556080"></path></svg>